<?xml version="1.0" encoding="utf-8" standalone="no"?>
<!DOCTYPE svg PUBLIC "-//W3C//DTD SVG 1.1//EN"
  "http://www.w3.org/Graphics/SVG/1.1/DTD/svg11.dtd">
<svg xmlns:xlink="http://www.w3.org/1999/xlink" width="667.44pt" height="437.76pt" viewBox="0 0 667.44 437.76" xmlns="http://www.w3.org/2000/svg" version="1.1">
 <metadata>
  <rdf:RDF xmlns:dc="http://purl.org/dc/elements/1.1/" xmlns:cc="http://creativecommons.org/ns#" xmlns:rdf="http://www.w3.org/1999/02/22-rdf-syntax-ns#">
   <cc:Work>
    <dc:type rdf:resource="http://purl.org/dc/dcmitype/StillImage"/>
    <dc:date>2023-01-15T20:04:32.480906</dc:date>
    <dc:format>image/svg+xml</dc:format>
    <dc:creator>
     <cc:Agent>
      <dc:title>Matplotlib v3.6.2, https://matplotlib.org/</dc:title>
     </cc:Agent>
    </dc:creator>
   </cc:Work>
  </rdf:RDF>
 </metadata>
 <defs>
  <style type="text/css">*{stroke-linejoin: round; stroke-linecap: butt}</style>
 </defs>
 <g id="figure_1">
  <g id="patch_1">
   <path d="M 0 437.76 
L 667.44 437.76 
L 667.44 0 
L 0 0 
z
" style="fill: #ffffff"/>
  </g>
  <g id="axes_1">
   <g id="patch_2">
    <path d="M 66.744 196.838812 
L 648.08424 196.838812 
L 648.08424 47.71584 
L 66.744 47.71584 
z
" style="fill: #ffffff"/>
   </g>
   <g id="matplotlib.axis_1">
    <g id="xtick_1">
     <g id="line2d_1">
      <defs>
       <path id="m09d964c6df" d="M 0 0 
L 0 3.5 
" style="stroke: #000000; stroke-width: 0.8"/>
      </defs>
      <g>
       <use xlink:href="#m09d964c6df" x="93.168556" y="196.838812" style="stroke: #000000; stroke-width: 0.8"/>
      </g>
     </g>
     <g id="text_1">
      <!-- $\mathdefault{0}$ -->
      <g transform="translate(89.266563 214.9084) scale(0.16 -0.16)">
       <defs>
        <path id="CMR17-30" d="M 2688 2025 
C 2688 2416 2682 3080 2413 3591 
C 2176 4039 1798 4198 1466 4198 
C 1158 4198 768 4058 525 3597 
C 269 3118 243 2524 243 2025 
C 243 1661 250 1106 448 619 
C 723 -39 1216 -128 1466 -128 
C 1760 -128 2208 -7 2470 600 
C 2662 1042 2688 1559 2688 2025 
z
M 1466 -26 
C 1056 -26 813 325 723 812 
C 653 1188 653 1738 653 2096 
C 653 2588 653 2997 736 3387 
C 858 3929 1216 4096 1466 4096 
C 1728 4096 2067 3923 2189 3400 
C 2272 3036 2278 2607 2278 2096 
C 2278 1680 2278 1169 2202 792 
C 2067 95 1690 -26 1466 -26 
z
" transform="scale(0.015625)"/>
       </defs>
       <use xlink:href="#CMR17-30" transform="scale(0.996264)"/>
      </g>
     </g>
    </g>
    <g id="xtick_2">
     <g id="line2d_2">
      <g>
       <use xlink:href="#m09d964c6df" x="201.023888" y="196.838812" style="stroke: #000000; stroke-width: 0.8"/>
      </g>
     </g>
     <g id="text_2">
      <!-- $\mathdefault{200}$ -->
      <g transform="translate(189.317908 214.9084) scale(0.16 -0.16)">
       <defs>
        <path id="CMR17-32" d="M 2669 989 
L 2554 989 
C 2490 536 2438 459 2413 420 
C 2381 369 1920 369 1830 369 
L 602 369 
C 832 619 1280 1072 1824 1597 
C 2214 1967 2669 2402 2669 3035 
C 2669 3790 2067 4224 1395 4224 
C 691 4224 262 3604 262 3030 
C 262 2780 448 2748 525 2748 
C 589 2748 781 2787 781 3010 
C 781 3207 614 3264 525 3264 
C 486 3264 448 3258 422 3245 
C 544 3790 915 4058 1306 4058 
C 1862 4058 2227 3617 2227 3035 
C 2227 2479 1901 2000 1536 1584 
L 262 146 
L 262 0 
L 2515 0 
L 2669 989 
z
" transform="scale(0.015625)"/>
       </defs>
       <use xlink:href="#CMR17-32" transform="scale(0.996264)"/>
       <use xlink:href="#CMR17-30" transform="translate(45.690477 0) scale(0.996264)"/>
       <use xlink:href="#CMR17-30" transform="translate(91.380954 0) scale(0.996264)"/>
      </g>
     </g>
    </g>
    <g id="xtick_3">
     <g id="line2d_3">
      <g>
       <use xlink:href="#m09d964c6df" x="308.879221" y="196.838812" style="stroke: #000000; stroke-width: 0.8"/>
      </g>
     </g>
     <g id="text_3">
      <!-- $\mathdefault{400}$ -->
      <g transform="translate(297.17324 214.9084) scale(0.16 -0.16)">
       <defs>
        <path id="CMR17-34" d="M 2150 4122 
C 2150 4256 2144 4256 2029 4256 
L 128 1254 
L 128 1088 
L 1779 1088 
L 1779 457 
C 1779 224 1766 160 1318 160 
L 1197 160 
L 1197 0 
C 1402 0 1747 0 1965 0 
C 2182 0 2528 0 2733 0 
L 2733 160 
L 2611 160 
C 2163 160 2150 224 2150 457 
L 2150 1088 
L 2803 1088 
L 2803 1254 
L 2150 1254 
L 2150 4122 
z
M 1798 3703 
L 1798 1254 
L 256 1254 
L 1798 3703 
z
" transform="scale(0.015625)"/>
       </defs>
       <use xlink:href="#CMR17-34" transform="scale(0.996264)"/>
       <use xlink:href="#CMR17-30" transform="translate(45.690477 0) scale(0.996264)"/>
       <use xlink:href="#CMR17-30" transform="translate(91.380954 0) scale(0.996264)"/>
      </g>
     </g>
    </g>
    <g id="xtick_4">
     <g id="line2d_4">
      <g>
       <use xlink:href="#m09d964c6df" x="416.734553" y="196.838812" style="stroke: #000000; stroke-width: 0.8"/>
      </g>
     </g>
     <g id="text_4">
      <!-- $\mathdefault{600}$ -->
      <g transform="translate(405.028572 214.9084) scale(0.16 -0.16)">
       <defs>
        <path id="CMR17-36" d="M 678 2176 
C 678 3690 1395 4032 1811 4032 
C 1946 4032 2272 4009 2400 3776 
C 2298 3776 2106 3776 2106 3553 
C 2106 3381 2246 3323 2336 3323 
C 2394 3323 2566 3348 2566 3560 
C 2566 3954 2246 4179 1805 4179 
C 1043 4179 243 3390 243 1984 
C 243 253 966 -128 1478 -128 
C 2099 -128 2688 427 2688 1283 
C 2688 2081 2170 2662 1517 2662 
C 1126 2662 838 2407 678 1960 
L 678 2176 
z
M 1478 25 
C 691 25 691 1200 691 1436 
C 691 1896 909 2560 1504 2560 
C 1613 2560 1926 2560 2138 2120 
C 2253 1870 2253 1609 2253 1289 
C 2253 944 2253 690 2118 434 
C 1978 171 1773 25 1478 25 
z
" transform="scale(0.015625)"/>
       </defs>
       <use xlink:href="#CMR17-36" transform="scale(0.996264)"/>
       <use xlink:href="#CMR17-30" transform="translate(45.690477 0) scale(0.996264)"/>
       <use xlink:href="#CMR17-30" transform="translate(91.380954 0) scale(0.996264)"/>
      </g>
     </g>
    </g>
    <g id="xtick_5">
     <g id="line2d_5">
      <g>
       <use xlink:href="#m09d964c6df" x="524.589885" y="196.838812" style="stroke: #000000; stroke-width: 0.8"/>
      </g>
     </g>
     <g id="text_5">
      <!-- $\mathdefault{800}$ -->
      <g transform="translate(512.883904 214.9084) scale(0.16 -0.16)">
       <defs>
        <path id="CMR17-38" d="M 1741 2264 
C 2144 2467 2554 2773 2554 3263 
C 2554 3841 1990 4179 1472 4179 
C 890 4179 378 3759 378 3180 
C 378 3021 416 2747 666 2505 
C 730 2442 998 2251 1171 2130 
C 883 1983 211 1634 211 934 
C 211 279 838 -128 1459 -128 
C 2144 -128 2720 362 2720 1010 
C 2720 1590 2330 1857 2074 2029 
L 1741 2264 
z
M 902 2822 
C 851 2854 595 3051 595 3351 
C 595 3739 998 4032 1459 4032 
C 1965 4032 2336 3676 2336 3262 
C 2336 2669 1670 2331 1638 2331 
C 1632 2331 1626 2331 1574 2370 
L 902 2822 
z
M 2080 1519 
C 2176 1449 2483 1240 2483 851 
C 2483 381 2010 25 1472 25 
C 890 25 448 438 448 940 
C 448 1443 838 1862 1280 2060 
L 2080 1519 
z
" transform="scale(0.015625)"/>
       </defs>
       <use xlink:href="#CMR17-38" transform="scale(0.996264)"/>
       <use xlink:href="#CMR17-30" transform="translate(45.690477 0) scale(0.996264)"/>
       <use xlink:href="#CMR17-30" transform="translate(91.380954 0) scale(0.996264)"/>
      </g>
     </g>
    </g>
    <g id="xtick_6">
     <g id="line2d_6">
      <g>
       <use xlink:href="#m09d964c6df" x="632.445217" y="196.838812" style="stroke: #000000; stroke-width: 0.8"/>
      </g>
     </g>
     <g id="text_6">
      <!-- $\mathdefault{1000}$ -->
      <g transform="translate(616.837243 214.9084) scale(0.16 -0.16)">
       <defs>
        <path id="CMR17-31" d="M 1702 4058 
C 1702 4192 1696 4192 1606 4192 
C 1357 3916 979 3827 621 3827 
C 602 3827 570 3827 563 3808 
C 557 3795 557 3782 557 3648 
C 755 3648 1088 3686 1344 3839 
L 1344 461 
C 1344 236 1331 160 781 160 
L 589 160 
L 589 0 
C 896 0 1216 0 1523 0 
C 1830 0 2150 0 2458 0 
L 2458 160 
L 2266 160 
C 1715 160 1702 230 1702 458 
L 1702 4058 
z
" transform="scale(0.015625)"/>
       </defs>
       <use xlink:href="#CMR17-31" transform="scale(0.996264)"/>
       <use xlink:href="#CMR17-30" transform="translate(45.690477 0) scale(0.996264)"/>
       <use xlink:href="#CMR17-30" transform="translate(91.380954 0) scale(0.996264)"/>
       <use xlink:href="#CMR17-30" transform="translate(137.071431 0) scale(0.996264)"/>
      </g>
     </g>
    </g>
    <g id="text_7">
     <!-- itération -->
     <g transform="translate(330.344633 233.077464) scale(0.16 -0.16)">
      <defs>
       <path id="CMSS17-69" d="M 979 4183 
L 442 4183 
L 442 3648 
L 979 3648 
L 979 4183 
z
M 947 2739 
L 474 2739 
L 474 0 
L 947 0 
L 947 2739 
z
" transform="scale(0.015625)"/>
       <path id="CMSS17-74" d="M 1069 2368 
L 1901 2368 
L 1901 2737 
L 1069 2737 
L 1069 3520 
L 614 3520 
L 614 2737 
L 109 2737 
L 109 2368 
L 602 2368 
L 602 749 
C 602 384 685 -64 1107 -64 
C 1427 -64 1722 25 2003 172 
L 1901 548 
C 1747 414 1562 337 1363 337 
C 1082 337 1069 696 1069 856 
L 1069 2368 
z
" transform="scale(0.015625)"/>
       <path id="CMSS17-13" d="M 2502 4448 
L 2016 4448 
L 1222 3328 
L 1613 3328 
L 2502 4448 
z
" transform="scale(0.015625)"/>
       <path id="CMSS17-65" d="M 2502 1377 
C 2502 1590 2490 2003 2285 2345 
C 2061 2713 1696 2816 1421 2816 
C 755 2816 192 2188 192 1375 
C 192 582 774 -64 1510 -64 
C 1798 -64 2150 19 2470 248 
C 2470 274 2458 414 2451 420 
C 2451 433 2432 630 2432 656 
C 2125 407 1773 325 1517 325 
C 1107 325 666 667 646 1377 
L 2502 1377 
z
M 698 1728 
C 781 2084 1062 2421 1421 2421 
C 1517 2421 1965 2421 2080 1728 
L 698 1728 
z
" transform="scale(0.015625)"/>
       <path id="CMSS17-72" d="M 954 1363 
C 954 1965 1395 2368 1958 2368 
L 1958 2789 
C 1549 2789 1165 2585 934 2253 
L 934 2758 
L 480 2758 
L 480 0 
L 954 0 
L 954 1363 
z
" transform="scale(0.015625)"/>
       <path id="CMSS17-61" d="M 2406 1791 
C 2406 2392 1978 2808 1402 2808 
C 1120 2808 813 2757 461 2553 
L 499 2135 
C 659 2248 934 2432 1395 2432 
C 1722 2432 1920 2180 1920 1782 
L 1920 1536 
C 896 1536 256 1238 256 726 
C 256 461 416 -64 947 -64 
C 1043 -64 1562 -64 1933 217 
L 1933 -19 
L 2406 -19 
L 2406 1791 
z
M 1920 816 
C 1920 701 1920 548 1728 434 
C 1562 325 1350 325 1261 325 
C 941 325 723 511 723 744 
C 723 1211 1722 1211 1920 1211 
L 1920 816 
z
" transform="scale(0.015625)"/>
       <path id="CMSS17-6f" d="M 2829 1356 
C 2829 2176 2221 2816 1504 2816 
C 768 2816 173 2157 173 1356 
C 173 544 787 -64 1498 -64 
C 2227 -64 2829 563 2829 1356 
z
M 1504 337 
C 1050 337 659 709 659 1408 
C 659 2151 1114 2427 1498 2427 
C 1914 2427 2342 2126 2342 1408 
C 2342 683 1926 337 1504 337 
z
" transform="scale(0.015625)"/>
       <path id="CMSS17-6e" d="M 2618 1877 
C 2618 2283 2522 2816 1798 2816 
C 1389 2816 1120 2606 941 2389 
L 941 2758 
L 474 2758 
L 474 0 
L 960 0 
L 960 1559 
C 960 1964 1114 2428 1549 2428 
C 2112 2428 2131 2048 2131 1829 
L 2131 0 
L 2618 0 
L 2618 1877 
z
" transform="scale(0.015625)"/>
      </defs>
      <use xlink:href="#CMSS17-69" transform="scale(0.996264)"/>
      <use xlink:href="#CMSS17-74" transform="translate(22.180723 0) scale(0.996264)"/>
      <use xlink:href="#CMSS17-13" transform="translate(53.409881 0) scale(0.996264)"/>
      <use xlink:href="#CMSS17-65" transform="translate(56.01229 0) scale(0.996264)"/>
      <use xlink:href="#CMSS17-72" transform="translate(97.651112 0) scale(0.996264)"/>
      <use xlink:href="#CMSS17-61" transform="translate(129.560884 0) scale(0.996264)"/>
      <use xlink:href="#CMSS17-74" transform="translate(174.482805 0) scale(0.996264)"/>
      <use xlink:href="#CMSS17-69" transform="translate(208.314372 0) scale(0.996264)"/>
      <use xlink:href="#CMSS17-6f" transform="translate(230.495095 0) scale(0.996264)"/>
      <use xlink:href="#CMSS17-6e" transform="translate(277.338718 0) scale(0.996264)"/>
     </g>
    </g>
   </g>
   <g id="matplotlib.axis_2">
    <g id="ytick_1">
     <g id="line2d_7">
      <defs>
       <path id="meca3fbc444" d="M 0 0 
L -3.5 0 
" style="stroke: #000000; stroke-width: 0.8"/>
      </defs>
      <g>
       <use xlink:href="#meca3fbc444" x="66.744" y="194.7704" style="stroke: #000000; stroke-width: 0.8"/>
      </g>
     </g>
     <g id="text_8">
      <!-- $\mathdefault{0}$ -->
      <g transform="translate(51.940013 200.305194) scale(0.16 -0.16)">
       <use xlink:href="#CMR17-30" transform="scale(0.996264)"/>
      </g>
     </g>
    </g>
    <g id="ytick_2">
     <g id="line2d_8">
      <g>
       <use xlink:href="#meca3fbc444" x="66.744" y="153.005841" style="stroke: #000000; stroke-width: 0.8"/>
      </g>
     </g>
     <g id="text_9">
      <!-- $\mathdefault{50}$ -->
      <g transform="translate(44.136026 158.540635) scale(0.16 -0.16)">
       <defs>
        <path id="CMR17-35" d="M 730 3692 
C 794 3666 1056 3584 1325 3584 
C 1920 3584 2246 3911 2432 4100 
C 2432 4157 2432 4192 2394 4192 
C 2387 4192 2374 4192 2323 4163 
C 2099 4058 1837 3973 1517 3973 
C 1325 3973 1037 3999 723 4139 
C 653 4171 640 4171 634 4171 
C 602 4171 595 4164 595 4037 
L 595 2203 
C 595 2089 595 2057 659 2057 
C 691 2057 704 2070 736 2114 
C 941 2401 1222 2522 1542 2522 
C 1766 2522 2246 2382 2246 1289 
C 2246 1085 2246 715 2054 421 
C 1894 159 1645 25 1370 25 
C 947 25 518 320 403 814 
C 429 807 480 795 506 795 
C 589 795 749 840 749 1038 
C 749 1210 627 1280 506 1280 
C 358 1280 262 1190 262 1011 
C 262 454 704 -128 1382 -128 
C 2042 -128 2669 440 2669 1264 
C 2669 2030 2170 2624 1549 2624 
C 1222 2624 947 2503 730 2274 
L 730 3692 
z
" transform="scale(0.015625)"/>
       </defs>
       <use xlink:href="#CMR17-35" transform="scale(0.996264)"/>
       <use xlink:href="#CMR17-30" transform="translate(45.690477 0) scale(0.996264)"/>
      </g>
     </g>
    </g>
    <g id="ytick_3">
     <g id="line2d_9">
      <g>
       <use xlink:href="#meca3fbc444" x="66.744" y="111.241281" style="stroke: #000000; stroke-width: 0.8"/>
      </g>
     </g>
     <g id="text_10">
      <!-- $\mathdefault{100}$ -->
      <g transform="translate(36.332039 116.776076) scale(0.16 -0.16)">
       <use xlink:href="#CMR17-31" transform="scale(0.996264)"/>
       <use xlink:href="#CMR17-30" transform="translate(45.690477 0) scale(0.996264)"/>
       <use xlink:href="#CMR17-30" transform="translate(91.380954 0) scale(0.996264)"/>
      </g>
     </g>
    </g>
    <g id="ytick_4">
     <g id="line2d_10">
      <g>
       <use xlink:href="#meca3fbc444" x="66.744" y="69.476722" style="stroke: #000000; stroke-width: 0.8"/>
      </g>
     </g>
     <g id="text_11">
      <!-- $\mathdefault{150}$ -->
      <g transform="translate(36.332039 75.011516) scale(0.16 -0.16)">
       <use xlink:href="#CMR17-31" transform="scale(0.996264)"/>
       <use xlink:href="#CMR17-35" transform="translate(45.690477 0) scale(0.996264)"/>
       <use xlink:href="#CMR17-30" transform="translate(91.380954 0) scale(0.996264)"/>
      </g>
     </g>
    </g>
    <g id="text_12">
     <!-- nombre moyen de pas de relaxation -->
     <g transform="translate(29.232563 237.181275) rotate(-90) scale(0.16 -0.16)">
      <defs>
       <path id="CMSS17-6d" d="M 4288 1877 
C 4288 2308 4179 2816 3462 2816 
C 2982 2816 2694 2516 2566 2331 
C 2451 2670 2182 2816 1798 2816 
C 1363 2816 1088 2568 941 2389 
L 941 2758 
L 474 2758 
L 474 0 
L 960 0 
L 960 1559 
C 960 1939 1101 2428 1555 2428 
C 2138 2428 2138 2016 2138 1829 
L 2138 0 
L 2624 0 
L 2624 1559 
C 2624 1939 2765 2428 3219 2428 
C 3802 2428 3802 2016 3802 1829 
L 3802 0 
L 4288 0 
L 4288 1877 
z
" transform="scale(0.015625)"/>
       <path id="CMSS17-62" d="M 954 4416 
L 480 4416 
L 480 -13 
L 966 -13 
L 966 274 
C 1210 38 1504 -64 1766 -64 
C 2381 -64 2880 549 2880 1352 
C 2880 2086 2496 2756 1926 2756 
C 1523 2756 1165 2591 954 2419 
L 954 4416 
z
M 966 2046 
C 1107 2222 1306 2368 1587 2368 
C 1965 2368 2394 2097 2394 1352 
C 2394 558 1882 325 1530 325 
C 1402 325 1267 356 1139 464 
C 966 615 966 709 966 797 
L 966 2046 
z
" transform="scale(0.015625)"/>
       <path id="CMSS17-79" d="M 2675 2752 
L 2176 2752 
C 1632 1294 1446 702 1434 383 
L 1427 383 
C 1408 696 1126 1460 902 2007 
L 602 2752 
L 83 2752 
L 1216 13 
C 1146 -178 1043 -465 1011 -529 
C 870 -885 774 -885 672 -885 
C 646 -885 442 -885 211 -809 
L 250 -1229 
C 410 -1261 570 -1280 685 -1280 
C 845 -1280 1165 -1280 1459 -497 
L 2675 2752 
z
" transform="scale(0.015625)"/>
       <path id="CMSS17-64" d="M 2611 4416 
L 2138 4416 
L 2138 2438 
C 1939 2603 1613 2756 1254 2756 
C 672 2756 211 2131 211 1347 
C 211 562 666 -64 1235 -64 
C 1677 -64 1971 172 2125 306 
L 2125 -13 
L 2611 -13 
L 2611 4416 
z
M 2125 836 
C 2125 747 2125 653 1926 482 
C 1798 375 1645 325 1498 325 
C 1152 325 698 576 698 1340 
C 698 2134 1210 2368 1562 2368 
C 1798 2368 1990 2254 2125 2065 
L 2125 836 
z
" transform="scale(0.015625)"/>
       <path id="CMSS17-70" d="M 966 333 
C 1178 129 1466 -5 1773 -5 
C 2368 -5 2880 603 2880 1412 
C 2880 2159 2496 2816 1946 2816 
C 1626 2816 1242 2702 954 2472 
L 954 2765 
L 480 2765 
L 480 -1216 
L 966 -1216 
L 966 333 
z
M 966 2100 
C 1018 2176 1235 2415 1587 2415 
C 2035 2415 2394 1960 2394 1412 
C 2394 787 1958 384 1530 384 
C 1402 384 1267 415 1139 523 
C 966 674 966 768 966 857 
L 966 2100 
z
" transform="scale(0.015625)"/>
       <path id="CMSS17-73" d="M 2061 2627 
C 1683 2807 1389 2807 1197 2807 
C 742 2807 198 2648 198 2003 
C 198 1359 902 1218 1094 1179 
C 1389 1122 1715 1058 1715 740 
C 1715 337 1254 337 1171 337 
C 915 337 563 407 243 638 
L 166 210 
C 531 0 883 -64 1178 -64 
C 1965 -64 2163 416 2163 781 
C 2163 1094 1984 1305 1862 1401 
C 1651 1568 1574 1587 1050 1696 
C 960 1709 646 1779 646 2066 
C 646 2432 1050 2432 1139 2432 
C 1555 2432 1811 2303 1984 2208 
L 2061 2627 
z
" transform="scale(0.015625)"/>
       <path id="CMSS17-6c" d="M 947 4416 
L 474 4416 
L 474 0 
L 947 0 
L 947 4416 
z
" transform="scale(0.015625)"/>
       <path id="CMSS17-78" d="M 1587 1414 
L 2656 2739 
L 2099 2739 
L 1363 1777 
L 602 2739 
L 32 2739 
L 1139 1414 
L 0 0 
L 563 0 
L 1363 1121 
L 2195 0 
L 2758 0 
L 1587 1414 
z
" transform="scale(0.015625)"/>
      </defs>
      <use xlink:href="#CMSS17-6e" transform="scale(0.996264)"/>
      <use xlink:href="#CMSS17-6f" transform="translate(48.204943 0) scale(0.996264)"/>
      <use xlink:href="#CMSS17-6d" transform="translate(95.048567 0) scale(0.996264)"/>
      <use xlink:href="#CMSS17-62" transform="translate(169.277821 0) scale(0.996264)"/>
      <use xlink:href="#CMSS17-72" transform="translate(214.88031 0) scale(0.996264)"/>
      <use xlink:href="#CMSS17-65" transform="translate(246.790083 0) scale(0.996264)"/>
      <use xlink:href="#CMSS17-6d" transform="translate(319.658018 0) scale(0.996264)"/>
      <use xlink:href="#CMSS17-6f" transform="translate(393.887272 0) scale(0.996264)"/>
      <use xlink:href="#CMSS17-79" transform="translate(438.128442 0) scale(0.996264)"/>
      <use xlink:href="#CMSS17-65" transform="translate(478.526129 0) scale(0.996264)"/>
      <use xlink:href="#CMSS17-6e" transform="translate(520.164952 0) scale(0.996264)"/>
      <use xlink:href="#CMSS17-64" transform="translate(599.599007 0) scale(0.996264)"/>
      <use xlink:href="#CMSS17-65" transform="translate(647.803951 0) scale(0.996264)"/>
      <use xlink:href="#CMSS17-70" transform="translate(720.671885 0) scale(0.996264)"/>
      <use xlink:href="#CMSS17-61" transform="translate(768.876828 0) scale(0.996264)"/>
      <use xlink:href="#CMSS17-73" transform="translate(813.798749 0) scale(0.996264)"/>
      <use xlink:href="#CMSS17-64" transform="translate(880.941404 0) scale(0.996264)"/>
      <use xlink:href="#CMSS17-65" transform="translate(929.146347 0) scale(0.996264)"/>
      <use xlink:href="#CMSS17-72" transform="translate(1002.014282 0) scale(0.996264)"/>
      <use xlink:href="#CMSS17-65" transform="translate(1033.924054 0) scale(0.996264)"/>
      <use xlink:href="#CMSS17-6c" transform="translate(1075.562876 0) scale(0.996264)"/>
      <use xlink:href="#CMSS17-61" transform="translate(1097.743599 0) scale(0.996264)"/>
      <use xlink:href="#CMSS17-78" transform="translate(1142.66552 0) scale(0.996264)"/>
      <use xlink:href="#CMSS17-61" transform="translate(1185.665662 0) scale(0.996264)"/>
      <use xlink:href="#CMSS17-74" transform="translate(1230.587582 0) scale(0.996264)"/>
      <use xlink:href="#CMSS17-69" transform="translate(1264.419149 0) scale(0.996264)"/>
      <use xlink:href="#CMSS17-6f" transform="translate(1286.599872 0) scale(0.996264)"/>
      <use xlink:href="#CMSS17-6e" transform="translate(1333.443496 0) scale(0.996264)"/>
     </g>
    </g>
   </g>
   <g id="line2d_11">
    <path d="M 93.168556 54.494157 
L 103.95409 108.704471 
L 114.739623 145.67384 
L 125.525156 175.036959 
L 136.310689 177.90822 
L 147.096222 180.32212 
L 157.881756 179.982652 
L 168.667289 186.534546 
L 179.452822 185.962635 
L 190.238355 188.529546 
L 201.023888 189.22604 
L 211.809422 189.21517 
L 222.594955 188.492756 
L 233.380488 189.349787 
L 244.166021 189.388248 
L 254.951555 189.649956 
L 265.737088 189.544604 
L 276.522621 189.246943 
L 287.308154 189.785409 
L 298.093687 189.560491 
L 308.879221 189.59728 
L 319.664754 189.680893 
L 330.450287 189.993605 
L 341.23582 189.662498 
L 352.021353 189.087243 
L 362.806887 189.501126 
L 373.59242 189.980227 
L 384.377953 190.008655 
L 395.163486 189.523701 
L 405.949019 190.012836 
L 416.734553 188.895769 
L 427.520086 189.186742 
L 438.305619 190.060495 
L 449.091152 189.389085 
L 459.876685 189.435908 
L 470.662219 189.131557 
L 481.447752 188.683393 
L 492.233285 189.270355 
L 503.018818 189.210989 
L 513.804352 189.900795 
L 524.589885 188.679213 
L 535.375418 189.926714 
L 546.160951 189.522865 
L 556.946484 189.720191 
L 567.732018 189.876547 
L 578.517551 189.05965 
L 589.303084 189.797951 
L 600.088617 189.246943 
L 610.87415 189.3038 
L 621.659684 188.41416 
" clip-path="url(#p960ac4cfe1)" style="fill: none; stroke: #1f77b4; stroke-width: 1.5; stroke-linecap: square"/>
   </g>
   <g id="line2d_12">
    <path d="M 93.168556 67.755972 
L 103.95409 120.666945 
L 114.739623 151.661348 
L 125.525156 167.652283 
L 136.310689 172.303659 
L 147.096222 176.987644 
L 157.881756 173.78026 
L 168.667289 179.663252 
L 179.452822 177.160723 
L 190.238355 173.633102 
L 201.023888 175.43412 
L 211.809422 180.187504 
L 222.594955 183.193381 
L 233.380488 183.418299 
L 244.166021 186.66331 
L 254.951555 184.07884 
L 265.737088 183.265288 
L 276.522621 181.225138 
L 287.308154 178.030295 
L 298.093687 184.705099 
L 308.879221 184.617306 
L 319.664754 184.969316 
L 330.450287 184.435866 
L 341.23582 185.033697 
L 352.021353 186.807123 
L 362.806887 183.408266 
L 373.59242 187.305455 
L 384.377953 184.346401 
L 395.163486 186.529529 
L 405.949019 185.016139 
L 416.734553 184.815468 
L 427.520086 187.399938 
L 438.305619 186.292905 
L 449.091152 184.997744 
L 459.876685 185.384871 
L 470.662219 185.555441 
L 481.447752 185.981866 
L 492.233285 185.716813 
L 503.018818 185.897417 
L 513.804352 186.824682 
L 524.589885 187.333048 
L 535.375418 187.867333 
L 546.160951 186.759464 
L 556.946484 187.577197 
L 567.732018 185.980194 
L 578.517551 186.950101 
L 589.303084 187.232712 
L 600.088617 187.180872 
L 610.87415 187.134049 
L 621.659684 185.924173 
" clip-path="url(#p960ac4cfe1)" style="fill: none; stroke: #ff7f0e; stroke-width: 1.5; stroke-linecap: square"/>
   </g>
   <g id="patch_3">
    <path d="M 66.744 196.838812 
L 66.744 47.71584 
" style="fill: none; stroke: #000000; stroke-width: 0.8; stroke-linejoin: miter; stroke-linecap: square"/>
   </g>
   <g id="patch_4">
    <path d="M 648.08424 196.838812 
L 648.08424 47.71584 
" style="fill: none; stroke: #000000; stroke-width: 0.8; stroke-linejoin: miter; stroke-linecap: square"/>
   </g>
   <g id="patch_5">
    <path d="M 66.744 196.838812 
L 648.08424 196.838812 
" style="fill: none; stroke: #000000; stroke-width: 0.8; stroke-linejoin: miter; stroke-linecap: square"/>
   </g>
   <g id="patch_6">
    <path d="M 66.744 47.71584 
L 648.08424 47.71584 
" style="fill: none; stroke: #000000; stroke-width: 0.8; stroke-linejoin: miter; stroke-linecap: square"/>
   </g>
   <g id="legend_1">
    <g id="patch_7">
     <path d="M 513.6533 105.114792 
L 636.88424 105.114792 
Q 640.08424 105.114792 640.08424 101.914792 
L 640.08424 58.91584 
Q 640.08424 55.71584 636.88424 55.71584 
L 513.6533 55.71584 
Q 510.4533 55.71584 510.4533 58.91584 
L 510.4533 101.914792 
Q 510.4533 105.114792 513.6533 105.114792 
z
" style="fill: #ffffff; opacity: 0.8; stroke: #cccccc; stroke-linejoin: miter"/>
    </g>
    <g id="line2d_13">
     <path d="M 516.8533 67.71584 
L 532.8533 67.71584 
L 548.8533 67.71584 
" style="fill: none; stroke: #1f77b4; stroke-width: 1.5; stroke-linecap: square"/>
    </g>
    <g id="text_13">
     <!-- Sans zones -->
     <g transform="translate(561.6533 73.31584) scale(0.16 -0.16)">
      <defs>
       <path id="CMSS17-53" d="M 2797 4169 
C 2515 4334 2208 4480 1690 4480 
C 864 4480 333 3879 333 3266 
C 333 3025 403 2753 653 2475 
C 902 2196 1184 2121 1542 2033 
C 1690 1994 1939 1924 1984 1906 
C 2342 1767 2515 1444 2515 1140 
C 2515 742 2202 318 1645 318 
C 1453 318 890 318 358 819 
L 269 318 
C 794 -64 1363 -128 1651 -128 
C 2438 -128 3002 488 3002 1186 
C 3002 1440 2925 1763 2656 2061 
C 2394 2347 2163 2410 1638 2549 
C 1338 2626 1146 2677 986 2873 
C 877 3013 819 3146 819 3317 
C 819 3673 1126 4060 1690 4060 
C 1971 4060 2336 4002 2707 3660 
L 2797 4169 
z
" transform="scale(0.015625)"/>
       <path id="CMSS17-7a" d="M 2400 2502 
L 2400 2750 
L 250 2750 
L 250 2368 
L 1069 2368 
C 1146 2368 1222 2368 1299 2368 
L 1747 2368 
L 166 261 
L 166 0 
L 2419 0 
L 2419 395 
L 1549 395 
C 1472 395 1395 395 1318 395 
L 826 395 
L 2400 2502 
z
" transform="scale(0.015625)"/>
      </defs>
      <use xlink:href="#CMSS17-53" transform="scale(0.996264)"/>
      <use xlink:href="#CMSS17-61" transform="translate(52.048516 0) scale(0.996264)"/>
      <use xlink:href="#CMSS17-6e" transform="translate(96.970437 0) scale(0.996264)"/>
      <use xlink:href="#CMSS17-73" transform="translate(145.17538 0) scale(0.996264)"/>
      <use xlink:href="#CMSS17-7a" transform="translate(212.318035 0) scale(0.996264)"/>
      <use xlink:href="#CMSS17-6f" transform="translate(252.995906 0) scale(0.996264)"/>
      <use xlink:href="#CMSS17-6e" transform="translate(299.83953 0) scale(0.996264)"/>
      <use xlink:href="#CMSS17-65" transform="translate(348.044473 0) scale(0.996264)"/>
      <use xlink:href="#CMSS17-73" transform="translate(389.683295 0) scale(0.996264)"/>
     </g>
    </g>
    <g id="line2d_14">
     <path d="M 516.8533 90.015316 
L 532.8533 90.015316 
L 548.8533 90.015316 
" style="fill: none; stroke: #ff7f0e; stroke-width: 1.5; stroke-linecap: square"/>
    </g>
    <g id="text_14">
     <!-- Avec zones -->
     <g transform="translate(561.6533 95.615316) scale(0.16 -0.16)">
      <defs>
       <path id="CMSS17-41" d="M 2272 4416 
L 1722 4416 
L 166 0 
L 653 0 
L 1101 1280 
L 2816 1280 
L 3270 0 
L 3827 0 
L 2272 4416 
z
M 2694 1637 
L 1222 1637 
C 1530 2528 1914 3638 1958 3925 
L 1965 3925 
C 2010 3663 2138 3281 2246 2956 
L 2694 1637 
z
" transform="scale(0.015625)"/>
       <path id="CMSS17-76" d="M 2675 2752 
L 2176 2752 
L 1747 1556 
C 1613 1165 1421 627 1389 352 
L 1382 352 
C 1370 468 1318 634 1286 749 
C 1248 890 1197 1056 1158 1172 
L 595 2752 
L 83 2752 
L 1094 0 
L 1664 0 
L 2675 2752 
z
" transform="scale(0.015625)"/>
       <path id="CMSS17-63" d="M 2464 2541 
C 2464 2585 2170 2714 2093 2739 
C 1882 2816 1613 2816 1542 2816 
C 710 2816 211 2093 211 1363 
C 211 595 768 -64 1517 -64 
C 1946 -64 2253 76 2502 242 
L 2464 664 
C 2189 453 1869 337 1523 337 
C 1024 337 698 774 698 1369 
C 698 1831 909 2414 1549 2414 
C 1901 2414 2099 2343 2394 2145 
L 2464 2541 
z
" transform="scale(0.015625)"/>
      </defs>
      <use xlink:href="#CMSS17-41" transform="scale(0.996264)"/>
      <use xlink:href="#CMSS17-76" transform="translate(62.217855 0) scale(0.996264)"/>
      <use xlink:href="#CMSS17-65" transform="translate(105.217997 0) scale(0.996264)"/>
      <use xlink:href="#CMSS17-63" transform="translate(146.856819 0) scale(0.996264)"/>
      <use xlink:href="#CMSS17-7a" transform="translate(219.724753 0) scale(0.996264)"/>
      <use xlink:href="#CMSS17-6f" transform="translate(260.402625 0) scale(0.996264)"/>
      <use xlink:href="#CMSS17-6e" transform="translate(307.246249 0) scale(0.996264)"/>
      <use xlink:href="#CMSS17-65" transform="translate(355.451192 0) scale(0.996264)"/>
      <use xlink:href="#CMSS17-73" transform="translate(397.090014 0) scale(0.996264)"/>
     </g>
    </g>
   </g>
  </g>
  <g id="axes_2">
   <g id="patch_8">
    <path d="M 66.744 400.98816 
L 648.08424 400.98816 
L 648.08424 251.865188 
L 66.744 251.865188 
z
" style="fill: #ffffff"/>
   </g>
   <g id="matplotlib.axis_3">
    <g id="xtick_7">
     <g id="line2d_15">
      <g>
       <use xlink:href="#m09d964c6df" x="93.168556" y="400.98816" style="stroke: #000000; stroke-width: 0.8"/>
      </g>
     </g>
     <g id="text_15">
      <!-- $\mathdefault{0}$ -->
      <g transform="translate(89.266563 419.057748) scale(0.16 -0.16)">
       <use xlink:href="#CMR17-30" transform="scale(0.996264)"/>
      </g>
     </g>
    </g>
    <g id="xtick_8">
     <g id="line2d_16">
      <g>
       <use xlink:href="#m09d964c6df" x="201.023888" y="400.98816" style="stroke: #000000; stroke-width: 0.8"/>
      </g>
     </g>
     <g id="text_16">
      <!-- $\mathdefault{200}$ -->
      <g transform="translate(189.317908 419.057748) scale(0.16 -0.16)">
       <use xlink:href="#CMR17-32" transform="scale(0.996264)"/>
       <use xlink:href="#CMR17-30" transform="translate(45.690477 0) scale(0.996264)"/>
       <use xlink:href="#CMR17-30" transform="translate(91.380954 0) scale(0.996264)"/>
      </g>
     </g>
    </g>
    <g id="xtick_9">
     <g id="line2d_17">
      <g>
       <use xlink:href="#m09d964c6df" x="308.879221" y="400.98816" style="stroke: #000000; stroke-width: 0.8"/>
      </g>
     </g>
     <g id="text_17">
      <!-- $\mathdefault{400}$ -->
      <g transform="translate(297.17324 419.057748) scale(0.16 -0.16)">
       <use xlink:href="#CMR17-34" transform="scale(0.996264)"/>
       <use xlink:href="#CMR17-30" transform="translate(45.690477 0) scale(0.996264)"/>
       <use xlink:href="#CMR17-30" transform="translate(91.380954 0) scale(0.996264)"/>
      </g>
     </g>
    </g>
    <g id="xtick_10">
     <g id="line2d_18">
      <g>
       <use xlink:href="#m09d964c6df" x="416.734553" y="400.98816" style="stroke: #000000; stroke-width: 0.8"/>
      </g>
     </g>
     <g id="text_18">
      <!-- $\mathdefault{600}$ -->
      <g transform="translate(405.028572 419.057748) scale(0.16 -0.16)">
       <use xlink:href="#CMR17-36" transform="scale(0.996264)"/>
       <use xlink:href="#CMR17-30" transform="translate(45.690477 0) scale(0.996264)"/>
       <use xlink:href="#CMR17-30" transform="translate(91.380954 0) scale(0.996264)"/>
      </g>
     </g>
    </g>
    <g id="xtick_11">
     <g id="line2d_19">
      <g>
       <use xlink:href="#m09d964c6df" x="524.589885" y="400.98816" style="stroke: #000000; stroke-width: 0.8"/>
      </g>
     </g>
     <g id="text_19">
      <!-- $\mathdefault{800}$ -->
      <g transform="translate(512.883904 419.057748) scale(0.16 -0.16)">
       <use xlink:href="#CMR17-38" transform="scale(0.996264)"/>
       <use xlink:href="#CMR17-30" transform="translate(45.690477 0) scale(0.996264)"/>
       <use xlink:href="#CMR17-30" transform="translate(91.380954 0) scale(0.996264)"/>
      </g>
     </g>
    </g>
    <g id="xtick_12">
     <g id="line2d_20">
      <g>
       <use xlink:href="#m09d964c6df" x="632.445217" y="400.98816" style="stroke: #000000; stroke-width: 0.8"/>
      </g>
     </g>
     <g id="text_20">
      <!-- $\mathdefault{1000}$ -->
      <g transform="translate(616.837243 419.057748) scale(0.16 -0.16)">
       <use xlink:href="#CMR17-31" transform="scale(0.996264)"/>
       <use xlink:href="#CMR17-30" transform="translate(45.690477 0) scale(0.996264)"/>
       <use xlink:href="#CMR17-30" transform="translate(91.380954 0) scale(0.996264)"/>
       <use xlink:href="#CMR17-30" transform="translate(137.071431 0) scale(0.996264)"/>
      </g>
     </g>
    </g>
    <g id="text_21">
     <!-- itération -->
     <g transform="translate(330.344633 437.226813) scale(0.16 -0.16)">
      <use xlink:href="#CMSS17-69" transform="scale(0.996264)"/>
      <use xlink:href="#CMSS17-74" transform="translate(22.180723 0) scale(0.996264)"/>
      <use xlink:href="#CMSS17-13" transform="translate(53.409881 0) scale(0.996264)"/>
      <use xlink:href="#CMSS17-65" transform="translate(56.01229 0) scale(0.996264)"/>
      <use xlink:href="#CMSS17-72" transform="translate(97.651112 0) scale(0.996264)"/>
      <use xlink:href="#CMSS17-61" transform="translate(129.560884 0) scale(0.996264)"/>
      <use xlink:href="#CMSS17-74" transform="translate(174.482805 0) scale(0.996264)"/>
      <use xlink:href="#CMSS17-69" transform="translate(208.314372 0) scale(0.996264)"/>
      <use xlink:href="#CMSS17-6f" transform="translate(230.495095 0) scale(0.996264)"/>
      <use xlink:href="#CMSS17-6e" transform="translate(277.338718 0) scale(0.996264)"/>
     </g>
    </g>
   </g>
   <g id="matplotlib.axis_4">
    <g id="ytick_5">
     <g id="line2d_21">
      <g>
       <use xlink:href="#meca3fbc444" x="66.744" y="384.197373" style="stroke: #000000; stroke-width: 0.8"/>
      </g>
     </g>
     <g id="text_22">
      <!-- $\mathdefault{25}$ -->
      <g transform="translate(44.136026 389.732167) scale(0.16 -0.16)">
       <use xlink:href="#CMR17-32" transform="scale(0.996264)"/>
       <use xlink:href="#CMR17-35" transform="translate(45.690477 0) scale(0.996264)"/>
      </g>
     </g>
    </g>
    <g id="ytick_6">
     <g id="line2d_22">
      <g>
       <use xlink:href="#meca3fbc444" x="66.744" y="342.346083" style="stroke: #000000; stroke-width: 0.8"/>
      </g>
     </g>
     <g id="text_23">
      <!-- $\mathdefault{50}$ -->
      <g transform="translate(44.136026 347.880878) scale(0.16 -0.16)">
       <use xlink:href="#CMR17-35" transform="scale(0.996264)"/>
       <use xlink:href="#CMR17-30" transform="translate(45.690477 0) scale(0.996264)"/>
      </g>
     </g>
    </g>
    <g id="ytick_7">
     <g id="line2d_23">
      <g>
       <use xlink:href="#meca3fbc444" x="66.744" y="300.494794" style="stroke: #000000; stroke-width: 0.8"/>
      </g>
     </g>
     <g id="text_24">
      <!-- $\mathdefault{75}$ -->
      <g transform="translate(44.136026 306.029588) scale(0.16 -0.16)">
       <defs>
        <path id="CMR17-37" d="M 2886 3941 
L 2886 4081 
L 1382 4081 
C 634 4081 621 4165 595 4288 
L 480 4288 
L 294 3094 
L 410 3094 
C 429 3215 474 3540 550 3661 
C 589 3712 1062 3712 1171 3712 
L 2579 3712 
L 1869 2661 
C 1395 1954 1069 999 1069 165 
C 1069 89 1069 -128 1299 -128 
C 1530 -128 1530 89 1530 171 
L 1530 465 
C 1530 1508 1709 2196 2003 2636 
L 2886 3941 
z
" transform="scale(0.015625)"/>
       </defs>
       <use xlink:href="#CMR17-37" transform="scale(0.996264)"/>
       <use xlink:href="#CMR17-35" transform="translate(45.690477 0) scale(0.996264)"/>
      </g>
     </g>
    </g>
    <g id="ytick_8">
     <g id="line2d_24">
      <g>
       <use xlink:href="#meca3fbc444" x="66.744" y="258.643505" style="stroke: #000000; stroke-width: 0.8"/>
      </g>
     </g>
     <g id="text_25">
      <!-- $\mathdefault{100}$ -->
      <g transform="translate(36.332039 264.178299) scale(0.16 -0.16)">
       <use xlink:href="#CMR17-31" transform="scale(0.996264)"/>
       <use xlink:href="#CMR17-30" transform="translate(45.690477 0) scale(0.996264)"/>
       <use xlink:href="#CMR17-30" transform="translate(91.380954 0) scale(0.996264)"/>
      </g>
     </g>
    </g>
    <g id="text_26">
     <!-- taux de convergence, \% -->
     <g transform="translate(29.232563 403.876137) rotate(-90) scale(0.16 -0.16)">
      <defs>
       <path id="CMSS17-75" d="M 2618 2739 
L 2131 2739 
L 2131 972 
C 2131 498 1786 306 1421 306 
C 998 306 960 447 960 709 
L 960 2739 
L 474 2739 
L 474 678 
C 474 179 646 -64 1088 -64 
C 1306 -64 1798 -13 2144 306 
L 2144 0 
L 2618 0 
L 2618 2739 
z
" transform="scale(0.015625)"/>
       <path id="CMSS17-67" d="M 2848 2808 
C 2483 2808 2170 2738 1914 2617 
C 1702 2777 1485 2808 1338 2808 
C 781 2808 358 2349 358 1814 
C 358 1468 550 1207 563 1195 
C 448 1035 384 863 384 672 
C 384 448 474 289 544 200 
C 211 -3 166 -314 166 -435 
C 166 -898 749 -1280 1498 -1280 
C 2253 -1280 2835 -898 2835 -428 
C 2835 448 1856 448 1587 448 
L 1069 448 
C 973 448 717 448 717 791 
C 717 921 774 1004 781 1010 
C 877 940 1075 832 1338 832 
C 1869 832 2310 1278 2310 1827 
C 2310 2132 2170 2355 2112 2432 
L 2131 2432 
C 2150 2432 2419 2432 2515 2432 
C 2720 2432 2739 2429 2918 2419 
L 2848 2808 
z
M 1338 1182 
C 1120 1182 813 1315 813 1823 
C 813 2375 1165 2464 1331 2464 
C 1549 2464 1856 2331 1856 1823 
C 1856 1271 1504 1182 1338 1182 
z
M 1581 -10 
C 1734 -10 2381 -10 2381 -442 
C 2381 -714 1984 -929 1504 -929 
C 1018 -929 621 -720 621 -435 
C 621 -403 621 -10 1062 -10 
L 1581 -10 
z
" transform="scale(0.015625)"/>
       <path id="CMSS17-2c" d="M 1088 6 
L 1088 510 
L 576 510 
L 576 0 
L 736 0 
L 570 -800 
L 826 -800 
L 1088 6 
z
" transform="scale(0.015625)"/>
       <path id="CMSS17-25" d="M 3923 4583 
C 3962 4647 3962 4679 3962 4685 
C 3962 4755 3904 4800 3853 4800 
C 3782 4800 3750 4749 3718 4685 
L 1101 -104 
C 1088 -129 1062 -167 1062 -206 
C 1062 -276 1120 -320 1178 -320 
C 1235 -320 1248 -295 1299 -206 
L 3923 4583 
z
M 4678 959 
C 4678 1698 4282 2240 3846 2240 
C 3418 2240 3008 1711 3008 959 
C 3008 208 3418 -320 3846 -320 
C 4288 -320 4678 221 4678 959 
z
M 3846 68 
C 3712 68 3494 189 3494 959 
C 3494 1724 3712 1851 3846 1851 
C 4083 1851 4211 1386 4211 959 
C 4211 533 4083 68 3846 68 
z
M 2003 3519 
C 2003 4258 1606 4800 1171 4800 
C 742 4800 333 4271 333 3519 
C 333 2768 742 2240 1171 2240 
C 1613 2240 2003 2781 2003 3519 
z
M 1171 2628 
C 1037 2628 819 2749 819 3519 
C 819 4284 1037 4411 1171 4411 
C 1408 4411 1536 3946 1536 3519 
C 1536 3093 1408 2628 1171 2628 
z
" transform="scale(0.015625)"/>
      </defs>
      <use xlink:href="#CMSS17-74" transform="scale(0.996264)"/>
      <use xlink:href="#CMSS17-61" transform="translate(33.831567 0) scale(0.996264)"/>
      <use xlink:href="#CMSS17-75" transform="translate(78.753487 0) scale(0.996264)"/>
      <use xlink:href="#CMSS17-78" transform="translate(126.95843 0) scale(0.996264)"/>
      <use xlink:href="#CMSS17-64" transform="translate(201.187685 0) scale(0.996264)"/>
      <use xlink:href="#CMSS17-65" transform="translate(249.392628 0) scale(0.996264)"/>
      <use xlink:href="#CMSS17-63" transform="translate(322.260563 0) scale(0.996264)"/>
      <use xlink:href="#CMSS17-6f" transform="translate(363.899385 0) scale(0.996264)"/>
      <use xlink:href="#CMSS17-6e" transform="translate(410.743008 0) scale(0.996264)"/>
      <use xlink:href="#CMSS17-76" transform="translate(458.947952 0) scale(0.996264)"/>
      <use xlink:href="#CMSS17-65" transform="translate(501.948093 0) scale(0.996264)"/>
      <use xlink:href="#CMSS17-72" transform="translate(543.586915 0) scale(0.996264)"/>
      <use xlink:href="#CMSS17-67" transform="translate(575.496688 0) scale(0.996264)"/>
      <use xlink:href="#CMSS17-65" transform="translate(622.340311 0) scale(0.996264)"/>
      <use xlink:href="#CMSS17-6e" transform="translate(663.979133 0) scale(0.996264)"/>
      <use xlink:href="#CMSS17-63" transform="translate(712.184077 0) scale(0.996264)"/>
      <use xlink:href="#CMSS17-65" transform="translate(753.822899 0) scale(0.996264)"/>
      <use xlink:href="#CMSS17-2c" transform="translate(795.461721 0) scale(0.996264)"/>
      <use xlink:href="#CMSS17-25" transform="translate(852.715038 0) scale(0.996264)"/>
     </g>
    </g>
   </g>
   <g id="line2d_25">
    <path d="M 93.168556 394.209843 
L 103.95409 337.067542 
L 114.739623 296.347369 
L 125.525156 268.530296 
L 136.310689 267.692433 
L 147.096222 265.011269 
L 157.881756 267.022142 
L 168.667289 261.492242 
L 179.452822 261.659814 
L 190.238355 260.15166 
L 201.023888 259.481369 
L 211.809422 259.313796 
L 222.594955 260.15166 
L 233.380488 259.313796 
L 244.166021 259.648942 
L 254.951555 259.146223 
L 265.737088 259.313796 
L 276.522621 259.481369 
L 287.308154 258.643505 
L 298.093687 259.146223 
L 308.879221 258.811078 
L 319.664754 258.978651 
L 330.450287 258.978651 
L 341.23582 258.978651 
L 352.021353 259.648942 
L 362.806887 259.313796 
L 373.59242 258.811078 
L 384.377953 258.811078 
L 395.163486 259.313796 
L 405.949019 258.978651 
L 416.734553 259.816514 
L 427.520086 259.481369 
L 438.305619 258.811078 
L 449.091152 259.313796 
L 459.876685 259.648942 
L 470.662219 259.481369 
L 481.447752 259.481369 
L 492.233285 259.648942 
L 503.018818 259.313796 
L 513.804352 258.811078 
L 524.589885 259.984087 
L 535.375418 258.811078 
L 546.160951 259.146223 
L 556.946484 258.811078 
L 567.732018 258.811078 
L 578.517551 259.816514 
L 589.303084 258.978651 
L 600.088617 258.811078 
L 610.87415 259.313796 
L 621.659684 260.319232 
" clip-path="url(#pff94d3c47d)" style="fill: none; stroke: #1f77b4; stroke-width: 1.5; stroke-linecap: square"/>
   </g>
   <g id="line2d_26">
    <path d="M 93.168556 380.133734 
L 103.95409 325.002306 
L 114.739623 293.33106 
L 125.525156 273.725051 
L 136.310689 270.708742 
L 147.096222 267.52486 
L 157.881756 270.876314 
L 168.667289 262.665251 
L 179.452822 267.189714 
L 190.238355 271.546605 
L 201.023888 270.373596 
L 211.809422 266.351851 
L 222.594955 263.670687 
L 233.380488 263.670687 
L 244.166021 260.486805 
L 254.951555 263.503114 
L 265.737088 263.670687 
L 276.522621 265.178842 
L 287.308154 268.530296 
L 298.093687 262.497678 
L 308.879221 262.665251 
L 319.664754 261.99496 
L 330.450287 263.503114 
L 341.23582 262.497678 
L 352.021353 260.486805 
L 362.806887 263.000396 
L 373.59242 260.486805 
L 384.377953 263.670687 
L 395.163486 261.157096 
L 405.949019 262.162532 
L 416.734553 261.99496 
L 427.520086 260.486805 
L 438.305619 261.827387 
L 449.091152 262.665251 
L 459.876685 261.827387 
L 470.662219 261.157096 
L 481.447752 260.989523 
L 492.233285 261.492242 
L 503.018818 261.324669 
L 513.804352 260.821951 
L 524.589885 260.989523 
L 535.375418 259.816514 
L 546.160951 260.821951 
L 556.946484 260.486805 
L 567.732018 261.324669 
L 578.517551 260.319232 
L 589.303084 260.486805 
L 600.088617 260.486805 
L 610.87415 260.319232 
L 621.659684 261.157096 
" clip-path="url(#pff94d3c47d)" style="fill: none; stroke: #ff7f0e; stroke-width: 1.5; stroke-linecap: square"/>
   </g>
   <g id="patch_9">
    <path d="M 66.744 400.98816 
L 66.744 251.865188 
" style="fill: none; stroke: #000000; stroke-width: 0.8; stroke-linejoin: miter; stroke-linecap: square"/>
   </g>
   <g id="patch_10">
    <path d="M 648.08424 400.98816 
L 648.08424 251.865188 
" style="fill: none; stroke: #000000; stroke-width: 0.8; stroke-linejoin: miter; stroke-linecap: square"/>
   </g>
   <g id="patch_11">
    <path d="M 66.744 400.98816 
L 648.08424 400.98816 
" style="fill: none; stroke: #000000; stroke-width: 0.8; stroke-linejoin: miter; stroke-linecap: square"/>
   </g>
   <g id="patch_12">
    <path d="M 66.744 251.865188 
L 648.08424 251.865188 
" style="fill: none; stroke: #000000; stroke-width: 0.8; stroke-linejoin: miter; stroke-linecap: square"/>
   </g>
   <g id="legend_2">
    <g id="patch_13">
     <path d="M 513.6533 392.98816 
L 636.88424 392.98816 
Q 640.08424 392.98816 640.08424 389.78816 
L 640.08424 346.789208 
Q 640.08424 343.589208 636.88424 343.589208 
L 513.6533 343.589208 
Q 510.4533 343.589208 510.4533 346.789208 
L 510.4533 389.78816 
Q 510.4533 392.98816 513.6533 392.98816 
z
" style="fill: #ffffff; opacity: 0.8; stroke: #cccccc; stroke-linejoin: miter"/>
    </g>
    <g id="line2d_27">
     <path d="M 516.8533 355.589208 
L 532.8533 355.589208 
L 548.8533 355.589208 
" style="fill: none; stroke: #1f77b4; stroke-width: 1.5; stroke-linecap: square"/>
    </g>
    <g id="text_27">
     <!-- Sans zones -->
     <g transform="translate(561.6533 361.189208) scale(0.16 -0.16)">
      <use xlink:href="#CMSS17-53" transform="scale(0.996264)"/>
      <use xlink:href="#CMSS17-61" transform="translate(52.048516 0) scale(0.996264)"/>
      <use xlink:href="#CMSS17-6e" transform="translate(96.970437 0) scale(0.996264)"/>
      <use xlink:href="#CMSS17-73" transform="translate(145.17538 0) scale(0.996264)"/>
      <use xlink:href="#CMSS17-7a" transform="translate(212.318035 0) scale(0.996264)"/>
      <use xlink:href="#CMSS17-6f" transform="translate(252.995906 0) scale(0.996264)"/>
      <use xlink:href="#CMSS17-6e" transform="translate(299.83953 0) scale(0.996264)"/>
      <use xlink:href="#CMSS17-65" transform="translate(348.044473 0) scale(0.996264)"/>
      <use xlink:href="#CMSS17-73" transform="translate(389.683295 0) scale(0.996264)"/>
     </g>
    </g>
    <g id="line2d_28">
     <path d="M 516.8533 377.888684 
L 532.8533 377.888684 
L 548.8533 377.888684 
" style="fill: none; stroke: #ff7f0e; stroke-width: 1.5; stroke-linecap: square"/>
    </g>
    <g id="text_28">
     <!-- Avec zones -->
     <g transform="translate(561.6533 383.488684) scale(0.16 -0.16)">
      <use xlink:href="#CMSS17-41" transform="scale(0.996264)"/>
      <use xlink:href="#CMSS17-76" transform="translate(62.217855 0) scale(0.996264)"/>
      <use xlink:href="#CMSS17-65" transform="translate(105.217997 0) scale(0.996264)"/>
      <use xlink:href="#CMSS17-63" transform="translate(146.856819 0) scale(0.996264)"/>
      <use xlink:href="#CMSS17-7a" transform="translate(219.724753 0) scale(0.996264)"/>
      <use xlink:href="#CMSS17-6f" transform="translate(260.402625 0) scale(0.996264)"/>
      <use xlink:href="#CMSS17-6e" transform="translate(307.246249 0) scale(0.996264)"/>
      <use xlink:href="#CMSS17-65" transform="translate(355.451192 0) scale(0.996264)"/>
      <use xlink:href="#CMSS17-73" transform="translate(397.090014 0) scale(0.996264)"/>
     </g>
    </g>
   </g>
  </g>
 </g>
 <defs>
  <clipPath id="p960ac4cfe1">
   <rect x="66.744" y="47.71584" width="581.34024" height="149.122972"/>
  </clipPath>
  <clipPath id="pff94d3c47d">
   <rect x="66.744" y="251.865188" width="581.34024" height="149.122972"/>
  </clipPath>
 </defs>
</svg>
