<?xml version="1.0" encoding="utf-8" standalone="no"?>
<!DOCTYPE svg PUBLIC "-//W3C//DTD SVG 1.1//EN"
  "http://www.w3.org/Graphics/SVG/1.1/DTD/svg11.dtd">
<!-- Created with matplotlib (https://matplotlib.org/) -->
<svg height="478.8pt" version="1.1" viewBox="0 0 931.68 478.8" width="931.68pt" xmlns="http://www.w3.org/2000/svg" xmlns:xlink="http://www.w3.org/1999/xlink">
 <metadata>
  <rdf:RDF xmlns:cc="http://creativecommons.org/ns#" xmlns:dc="http://purl.org/dc/elements/1.1/" xmlns:rdf="http://www.w3.org/1999/02/22-rdf-syntax-ns#">
   <cc:Work>
    <dc:type rdf:resource="http://purl.org/dc/dcmitype/StillImage"/>
    <dc:date>2022-06-23T10:07:58.047758</dc:date>
    <dc:format>image/svg+xml</dc:format>
    <dc:creator>
     <cc:Agent>
      <dc:title>Matplotlib v3.3.4, https://matplotlib.org/</dc:title>
     </cc:Agent>
    </dc:creator>
   </cc:Work>
  </rdf:RDF>
 </metadata>
 <defs>
  <style type="text/css">*{stroke-linecap:butt;stroke-linejoin:round;}</style>
 </defs>
 <g id="figure_1">
  <g id="patch_1">
   <path d="M 0 478.8 
L 931.68 478.8 
L 931.68 0 
L 0 0 
z
" style="fill:#ffffff;"/>
  </g>
  <g id="axes_1">
   <g id="patch_2">
    <path d="M 116.46 225.036 
L 838.512 225.036 
L 838.512 57.456 
L 116.46 57.456 
z
" style="fill:#ffffff;"/>
   </g>
   <g id="matplotlib.axis_1">
    <g id="xtick_1">
     <g id="line2d_1">
      <defs>
       <path d="M 0 0 
L 0 3.5 
" id="mfa10f1a5d1" style="stroke:#000000;stroke-width:0.8;"/>
      </defs>
      <g>
       <use style="stroke:#000000;stroke-width:0.8;" x="149.280545" xlink:href="#mfa10f1a5d1" y="225.036"/>
      </g>
     </g>
     <g id="text_1">
      <!-- $\mathdefault{0}$ -->
      <g transform="translate(146.789878 238.954498)scale(0.1 -0.1)">
       <defs>
        <path d="M 42 31.640625 
C 42 37.75 41.90625 48.125 37.703125 56.109375 
C 34 63.109375 28.09375 65.59375 22.90625 65.59375 
C 18.09375 65.59375 12 63.40625 8.203125 56.203125 
C 4.203125 48.71875 3.796875 39.4375 3.796875 31.640625 
C 3.796875 25.953125 3.90625 17.28125 7 9.671875 
C 11.296875 -0.609375 19 -2 22.90625 -2 
C 27.5 -2 34.5 -0.109375 38.59375 9.375 
C 41.59375 16.28125 42 24.359375 42 31.640625 
z
M 22.90625 -0.40625 
C 16.5 -0.40625 12.703125 5.078125 11.296875 12.6875 
C 10.203125 18.5625 10.203125 27.15625 10.203125 32.75 
C 10.203125 40.4375 10.203125 46.828125 11.5 52.921875 
C 13.40625 61.390625 19 64 22.90625 64 
C 27 64 32.296875 61.296875 34.203125 53.125 
C 35.5 47.4375 35.59375 40.734375 35.59375 32.75 
C 35.59375 26.25 35.59375 18.265625 34.40625 12.375 
C 32.296875 1.484375 26.40625 -0.40625 22.90625 -0.40625 
z
" id="CMR17-48"/>
       </defs>
       <use transform="scale(0.996264)" xlink:href="#CMR17-48"/>
      </g>
     </g>
    </g>
    <g id="xtick_2">
     <g id="line2d_2">
      <g>
       <use style="stroke:#000000;stroke-width:0.8;" x="231.331909" xlink:href="#mfa10f1a5d1" y="225.036"/>
      </g>
     </g>
     <g id="text_2">
      <!-- $\mathdefault{100}$ -->
      <g transform="translate(223.859906 238.954498)scale(0.1 -0.1)">
       <defs>
        <path d="M 26.59375 63.40625 
C 26.59375 65.5 26.5 65.5 25.09375 65.5 
C 21.203125 61.1875 15.296875 59.796875 9.703125 59.796875 
C 9.40625 59.796875 8.90625 59.796875 8.796875 59.5 
C 8.703125 59.296875 8.703125 59.09375 8.703125 57 
C 11.796875 57 17 57.59375 21 59.984375 
L 21 7.203125 
C 21 3.6875 20.796875 2.5 12.203125 2.5 
L 9.203125 2.5 
L 9.203125 0 
C 14 0 19 0 23.796875 0 
C 28.59375 0 33.59375 0 38.40625 0 
L 38.40625 2.5 
L 35.40625 2.5 
C 26.796875 2.5 26.59375 3.59375 26.59375 7.15625 
z
" id="CMR17-49"/>
       </defs>
       <use transform="scale(0.996264)" xlink:href="#CMR17-49"/>
       <use transform="translate(45.690477 0)scale(0.996264)" xlink:href="#CMR17-48"/>
       <use transform="translate(91.380954 0)scale(0.996264)" xlink:href="#CMR17-48"/>
      </g>
     </g>
    </g>
    <g id="xtick_3">
     <g id="line2d_3">
      <g>
       <use style="stroke:#000000;stroke-width:0.8;" x="313.383273" xlink:href="#mfa10f1a5d1" y="225.036"/>
      </g>
     </g>
     <g id="text_3">
      <!-- $\mathdefault{200}$ -->
      <g transform="translate(305.91127 238.954498)scale(0.1 -0.1)">
       <defs>
        <path d="M 41.703125 15.453125 
L 39.90625 15.453125 
C 38.90625 8.375 38.09375 7.171875 37.703125 6.5625 
C 37.203125 5.765625 30 5.765625 28.59375 5.765625 
L 9.40625 5.765625 
C 13 9.671875 20 16.75 28.5 24.953125 
C 34.59375 30.734375 41.703125 37.53125 41.703125 47.421875 
C 41.703125 59.21875 32.296875 66 21.796875 66 
C 10.796875 66 4.09375 56.3125 4.09375 47.34375 
C 4.09375 43.4375 7 42.9375 8.203125 42.9375 
C 9.203125 42.9375 12.203125 43.546875 12.203125 47.03125 
C 12.203125 50.109375 9.59375 51 8.203125 51 
C 7.59375 51 7 50.90625 6.59375 50.703125 
C 8.5 59.21875 14.296875 63.40625 20.40625 63.40625 
C 29.09375 63.40625 34.796875 56.515625 34.796875 47.421875 
C 34.796875 38.734375 29.703125 31.25 24 24.75 
L 4.09375 2.28125 
L 4.09375 0 
L 39.296875 0 
z
" id="CMR17-50"/>
       </defs>
       <use transform="scale(0.996264)" xlink:href="#CMR17-50"/>
       <use transform="translate(45.690477 0)scale(0.996264)" xlink:href="#CMR17-48"/>
       <use transform="translate(91.380954 0)scale(0.996264)" xlink:href="#CMR17-48"/>
      </g>
     </g>
    </g>
    <g id="xtick_4">
     <g id="line2d_4">
      <g>
       <use style="stroke:#000000;stroke-width:0.8;" x="395.434636" xlink:href="#mfa10f1a5d1" y="225.036"/>
      </g>
     </g>
     <g id="text_4">
      <!-- $\mathdefault{300}$ -->
      <g transform="translate(387.962633 238.954498)scale(0.1 -0.1)">
       <defs>
        <path d="M 22.09375 33.703125 
C 31 33.703125 34.90625 25.96875 34.90625 17.03125 
C 34.90625 5 28.5 0.390625 22.703125 0.390625 
C 17.40625 0.390625 8.796875 3.03125 6.09375 10.828125 
C 6.59375 10.625 7.09375 10.625 7.59375 10.625 
C 10 10.625 11.796875 12.21875 11.796875 14.8125 
C 11.796875 17.703125 9.59375 19 7.59375 19 
C 5.90625 19 3.296875 18.203125 3.296875 14.46875 
C 3.296875 5.234375 12.296875 -2 22.90625 -2 
C 34 -2 42.5 6.71875 42.5 16.953125 
C 42.5 26.671875 34.5 33.703125 25 34.796875 
C 32.59375 36.375 39.90625 43.0625 39.90625 52.015625 
C 39.90625 59.6875 32 65.296875 23 65.296875 
C 13.90625 65.296875 5.90625 59.828125 5.90625 52.015625 
C 5.90625 48.59375 8.5 48 9.796875 48 
C 11.90625 48 13.703125 49.296875 13.703125 51.890625 
C 13.703125 54.46875 11.90625 55.765625 9.796875 55.765625 
C 9.40625 55.765625 8.90625 55.765625 8.5 55.578125 
C 11.40625 61.859375 19.296875 63 22.796875 63 
C 26.296875 63 32.90625 61.328125 32.90625 51.875 
C 32.90625 49.109375 32.5 44.1875 29.09375 39.84375 
C 26.09375 36 22.703125 36 19.40625 35.6875 
C 18.90625 35.6875 16.59375 35.453125 16.203125 35.453125 
C 15.5 35.359375 15.09375 35.265625 15.09375 34.5 
C 15.09375 33.796875 15.203125 33.703125 17.203125 33.703125 
z
" id="CMR17-51"/>
       </defs>
       <use transform="scale(0.996264)" xlink:href="#CMR17-51"/>
       <use transform="translate(45.690477 0)scale(0.996264)" xlink:href="#CMR17-48"/>
       <use transform="translate(91.380954 0)scale(0.996264)" xlink:href="#CMR17-48"/>
      </g>
     </g>
    </g>
    <g id="xtick_5">
     <g id="line2d_5">
      <g>
       <use style="stroke:#000000;stroke-width:0.8;" x="477.486" xlink:href="#mfa10f1a5d1" y="225.036"/>
      </g>
     </g>
     <g id="text_5">
      <!-- $\mathdefault{400}$ -->
      <g transform="translate(470.013997 238.954498)scale(0.1 -0.1)">
       <defs>
        <path d="M 33.59375 64.40625 
C 33.59375 66.5 33.5 66.5 31.703125 66.5 
L 2 19.59375 
L 2 17 
L 27.796875 17 
L 27.796875 7.140625 
C 27.796875 3.5 27.59375 2.5 20.59375 2.5 
L 18.703125 2.5 
L 18.703125 0 
C 21.90625 0 27.296875 0 30.703125 0 
C 34.09375 0 39.5 0 42.703125 0 
L 42.703125 2.5 
L 40.796875 2.5 
C 33.796875 2.5 33.59375 3.5 33.59375 7.140625 
L 33.59375 17 
L 43.796875 17 
L 43.796875 19.59375 
L 33.59375 19.59375 
z
M 28.09375 57.859375 
L 28.09375 19.59375 
L 4 19.59375 
z
" id="CMR17-52"/>
       </defs>
       <use transform="scale(0.996264)" xlink:href="#CMR17-52"/>
       <use transform="translate(45.690477 0)scale(0.996264)" xlink:href="#CMR17-48"/>
       <use transform="translate(91.380954 0)scale(0.996264)" xlink:href="#CMR17-48"/>
      </g>
     </g>
    </g>
    <g id="xtick_6">
     <g id="line2d_6">
      <g>
       <use style="stroke:#000000;stroke-width:0.8;" x="559.537364" xlink:href="#mfa10f1a5d1" y="225.036"/>
      </g>
     </g>
     <g id="text_6">
      <!-- $\mathdefault{500}$ -->
      <g transform="translate(552.065361 238.954498)scale(0.1 -0.1)">
       <defs>
        <path d="M 11.40625 57.6875 
C 12.40625 57.28125 16.5 56 20.703125 56 
C 30 56 35.09375 61.109375 38 64.0625 
C 38 64.953125 38 65.5 37.40625 65.5 
C 37.296875 65.5 37.09375 65.5 36.296875 65.046875 
C 32.796875 63.40625 28.703125 62.078125 23.703125 62.078125 
C 20.703125 62.078125 16.203125 62.484375 11.296875 64.671875 
C 10.203125 65.171875 10 65.171875 9.90625 65.171875 
C 9.40625 65.171875 9.296875 65.0625 9.296875 63.078125 
L 9.296875 34.421875 
C 9.296875 32.640625 9.296875 32.140625 10.296875 32.140625 
C 10.796875 32.140625 11 32.34375 11.5 33.03125 
C 14.703125 37.515625 19.09375 39.40625 24.09375 39.40625 
C 27.59375 39.40625 35.09375 37.21875 35.09375 20.140625 
C 35.09375 16.953125 35.09375 11.171875 32.09375 6.578125 
C 29.59375 2.484375 25.703125 0.390625 21.40625 0.390625 
C 14.796875 0.390625 8.09375 5 6.296875 12.71875 
C 6.703125 12.609375 7.5 12.421875 7.90625 12.421875 
C 9.203125 12.421875 11.703125 13.125 11.703125 16.21875 
C 11.703125 18.90625 9.796875 20 7.90625 20 
C 5.59375 20 4.09375 18.59375 4.09375 15.796875 
C 4.09375 7.09375 11 -2 21.59375 -2 
C 31.90625 -2 41.703125 6.875 41.703125 19.75 
C 41.703125 31.71875 33.90625 41 24.203125 41 
C 19.09375 41 14.796875 39.109375 11.40625 35.53125 
z
" id="CMR17-53"/>
       </defs>
       <use transform="scale(0.996264)" xlink:href="#CMR17-53"/>
       <use transform="translate(45.690477 0)scale(0.996264)" xlink:href="#CMR17-48"/>
       <use transform="translate(91.380954 0)scale(0.996264)" xlink:href="#CMR17-48"/>
      </g>
     </g>
    </g>
    <g id="xtick_7">
     <g id="line2d_7">
      <g>
       <use style="stroke:#000000;stroke-width:0.8;" x="641.588727" xlink:href="#mfa10f1a5d1" y="225.036"/>
      </g>
     </g>
     <g id="text_7">
      <!-- $\mathdefault{600}$ -->
      <g transform="translate(634.116724 238.954498)scale(0.1 -0.1)">
       <defs>
        <path d="M 10.59375 34 
C 10.59375 57.65625 21.796875 63 28.296875 63 
C 30.40625 63 35.5 62.640625 37.5 59 
C 35.90625 59 32.90625 59 32.90625 55.515625 
C 32.90625 52.828125 35.09375 51.921875 36.5 51.921875 
C 37.40625 51.921875 40.09375 52.3125 40.09375 55.625 
C 40.09375 61.78125 35.09375 65.296875 28.203125 65.296875 
C 16.296875 65.296875 3.796875 52.96875 3.796875 31 
C 3.796875 3.953125 15.09375 -2 23.09375 -2 
C 32.796875 -2 42 6.671875 42 20.046875 
C 42 32.515625 33.90625 41.59375 23.703125 41.59375 
C 17.59375 41.59375 13.09375 37.609375 10.59375 30.625 
z
M 23.09375 0.390625 
C 10.796875 0.390625 10.796875 18.75 10.796875 22.4375 
C 10.796875 29.625 14.203125 40 23.5 40 
C 25.203125 40 30.09375 40 33.40625 33.125 
C 35.203125 29.21875 35.203125 25.140625 35.203125 20.140625 
C 35.203125 14.75 35.203125 10.78125 33.09375 6.78125 
C 30.90625 2.671875 27.703125 0.390625 23.09375 0.390625 
z
" id="CMR17-54"/>
       </defs>
       <use transform="scale(0.996264)" xlink:href="#CMR17-54"/>
       <use transform="translate(45.690477 0)scale(0.996264)" xlink:href="#CMR17-48"/>
       <use transform="translate(91.380954 0)scale(0.996264)" xlink:href="#CMR17-48"/>
      </g>
     </g>
    </g>
    <g id="xtick_8">
     <g id="line2d_8">
      <g>
       <use style="stroke:#000000;stroke-width:0.8;" x="723.640091" xlink:href="#mfa10f1a5d1" y="225.036"/>
      </g>
     </g>
     <g id="text_8">
      <!-- $\mathdefault{700}$ -->
      <g transform="translate(716.168088 238.954498)scale(0.1 -0.1)">
       <defs>
        <path d="M 45.09375 61.578125 
L 45.09375 63.765625 
L 21.59375 63.765625 
C 9.90625 63.765625 9.703125 65.078125 9.296875 67 
L 7.5 67 
L 4.59375 48.34375 
L 6.40625 48.34375 
C 6.703125 50.234375 7.40625 55.3125 8.59375 57.203125 
C 9.203125 58 16.59375 58 18.296875 58 
L 40.296875 58 
L 29.203125 41.578125 
C 21.796875 30.53125 16.703125 15.609375 16.703125 2.578125 
C 16.703125 1.390625 16.703125 -2 20.296875 -2 
C 23.90625 -2 23.90625 1.390625 23.90625 2.671875 
L 23.90625 7.265625 
C 23.90625 23.5625 26.703125 34.3125 31.296875 41.1875 
z
" id="CMR17-55"/>
       </defs>
       <use transform="scale(0.996264)" xlink:href="#CMR17-55"/>
       <use transform="translate(45.690477 0)scale(0.996264)" xlink:href="#CMR17-48"/>
       <use transform="translate(91.380954 0)scale(0.996264)" xlink:href="#CMR17-48"/>
      </g>
     </g>
    </g>
    <g id="xtick_9">
     <g id="line2d_9">
      <g>
       <use style="stroke:#000000;stroke-width:0.8;" x="805.691455" xlink:href="#mfa10f1a5d1" y="225.036"/>
      </g>
     </g>
     <g id="text_9">
      <!-- $\mathdefault{800}$ -->
      <g transform="translate(798.219452 238.954498)scale(0.1 -0.1)">
       <defs>
        <path d="M 27.203125 35.375 
C 33.5 38.546875 39.90625 43.328125 39.90625 50.984375 
C 39.90625 60.015625 31.09375 65.296875 23 65.296875 
C 13.90625 65.296875 5.90625 58.734375 5.90625 49.6875 
C 5.90625 47.203125 6.5 42.921875 10.40625 39.140625 
C 11.40625 38.15625 15.59375 35.171875 18.296875 33.28125 
C 13.796875 30.984375 3.296875 25.53125 3.296875 14.59375 
C 3.296875 4.359375 13.09375 -2 22.796875 -2 
C 33.5 -2 42.5 5.65625 42.5 15.78125 
C 42.5 24.84375 36.40625 29.015625 32.40625 31.703125 
z
M 14.09375 44.09375 
C 13.296875 44.59375 9.296875 47.671875 9.296875 52.359375 
C 9.296875 58.421875 15.59375 63 22.796875 63 
C 30.703125 63 36.5 57.4375 36.5 50.96875 
C 36.5 41.703125 26.09375 36.421875 25.59375 36.421875 
C 25.5 36.421875 25.40625 36.421875 24.59375 37.03125 
z
M 32.5 23.734375 
C 34 22.640625 38.796875 19.375 38.796875 13.296875 
C 38.796875 5.953125 31.40625 0.390625 23 0.390625 
C 13.90625 0.390625 7 6.84375 7 14.6875 
C 7 22.546875 13.09375 29.09375 20 32.1875 
z
" id="CMR17-56"/>
       </defs>
       <use transform="scale(0.996264)" xlink:href="#CMR17-56"/>
       <use transform="translate(45.690477 0)scale(0.996264)" xlink:href="#CMR17-48"/>
       <use transform="translate(91.380954 0)scale(0.996264)" xlink:href="#CMR17-48"/>
      </g>
     </g>
    </g>
    <g id="text_10">
     <!-- timestep -->
     <g transform="translate(459.829981 251.810175)scale(0.1 -0.1)">
      <defs>
       <path d="M 16.703125 37 
L 29.703125 37 
L 29.703125 42.765625 
L 16.703125 42.765625 
L 16.703125 55 
L 9.59375 55 
L 9.59375 42.765625 
L 1.703125 42.765625 
L 1.703125 37 
L 9.40625 37 
L 9.40625 11.703125 
C 9.40625 6 10.703125 -1 17.296875 -1 
C 22.296875 -1 26.90625 0.390625 31.296875 2.6875 
L 29.703125 8.5625 
C 27.296875 6.46875 24.40625 5.265625 21.296875 5.265625 
C 16.90625 5.265625 16.703125 10.875 16.703125 13.375 
z
" id="CMSS17-116"/>
       <path d="M 15.296875 65.359375 
L 6.90625 65.359375 
L 6.90625 57 
L 15.296875 57 
z
M 14.796875 42.796875 
L 7.40625 42.796875 
L 7.40625 0 
L 14.796875 0 
z
" id="CMSS17-105"/>
       <path d="M 67 29.328125 
C 67 36.0625 65.296875 44 54.09375 44 
C 46.59375 44 42.09375 39.3125 40.09375 36.421875 
C 38.296875 41.71875 34.09375 44 28.09375 44 
C 21.296875 44 17 40.125 14.703125 37.328125 
L 14.703125 43.09375 
L 7.40625 43.09375 
L 7.40625 0 
L 15 0 
L 15 24.359375 
C 15 30.296875 17.203125 37.9375 24.296875 37.9375 
C 33.40625 37.9375 33.40625 31.5 33.40625 28.578125 
L 33.40625 0 
L 41 0 
L 41 24.359375 
C 41 30.296875 43.203125 37.9375 50.296875 37.9375 
C 59.40625 37.9375 59.40625 31.5 59.40625 28.578125 
L 59.40625 0 
L 67 0 
z
" id="CMSS17-109"/>
       <path d="M 39.09375 21.515625 
C 39.09375 24.84375 38.90625 31.296875 35.703125 36.640625 
C 32.203125 42.390625 26.5 44 22.203125 44 
C 11.796875 44 3 34.1875 3 21.484375 
C 3 9.09375 12.09375 -1 23.59375 -1 
C 28.09375 -1 33.59375 0.296875 38.59375 3.875 
C 38.59375 4.28125 38.40625 6.46875 38.296875 6.5625 
C 38.296875 6.765625 38 9.84375 38 10.25 
C 33.203125 6.359375 27.703125 5.078125 23.703125 5.078125 
C 17.296875 5.078125 10.40625 10.421875 10.09375 21.515625 
z
M 10.90625 27 
C 12.203125 32.5625 16.59375 37.828125 22.203125 37.828125 
C 23.703125 37.828125 30.703125 37.828125 32.5 27 
z
" id="CMSS17-101"/>
       <path d="M 32.203125 41.046875 
C 26.296875 43.859375 21.703125 43.859375 18.703125 43.859375 
C 11.59375 43.859375 3.09375 41.375 3.09375 31.296875 
C 3.09375 21.234375 14.09375 19.03125 17.09375 18.421875 
C 21.703125 17.53125 26.796875 16.53125 26.796875 11.5625 
C 26.796875 5.265625 19.59375 5.265625 18.296875 5.265625 
C 14.296875 5.265625 8.796875 6.359375 3.796875 9.96875 
L 2.59375 3.28125 
C 8.296875 0 13.796875 -1 18.40625 -1 
C 30.703125 -1 33.796875 6.5 33.796875 12.203125 
C 33.796875 17.09375 31 20.390625 29.09375 21.890625 
C 25.796875 24.5 24.59375 24.796875 16.40625 26.5 
C 15 26.703125 10.09375 27.796875 10.09375 32.28125 
C 10.09375 38 16.40625 38 17.796875 38 
C 24.296875 38 28.296875 35.984375 31 34.5 
z
" id="CMSS17-115"/>
       <path d="M 15.09375 5.203125 
C 18.40625 2.015625 22.90625 -0.078125 27.703125 -0.078125 
C 37 -0.078125 45 9.421875 45 22.0625 
C 45 33.734375 39 44 30.40625 44 
C 25.40625 44 19.40625 42.21875 14.90625 38.625 
L 14.90625 43.203125 
L 7.5 43.203125 
L 7.5 -19 
L 15.09375 -19 
z
M 15.09375 32.8125 
C 15.90625 34 19.296875 37.734375 24.796875 37.734375 
C 31.796875 37.734375 37.40625 30.625 37.40625 22.0625 
C 37.40625 12.296875 30.59375 6 23.90625 6 
C 21.90625 6 19.796875 6.484375 17.796875 8.171875 
C 15.09375 10.53125 15.09375 12 15.09375 13.390625 
z
" id="CMSS17-112"/>
      </defs>
      <use transform="scale(0.996264)" xlink:href="#CMSS17-116"/>
      <use transform="translate(33.831567 0)scale(0.996264)" xlink:href="#CMSS17-105"/>
      <use transform="translate(56.01229 0)scale(0.996264)" xlink:href="#CMSS17-109"/>
      <use transform="translate(130.241544 0)scale(0.996264)" xlink:href="#CMSS17-101"/>
      <use transform="translate(171.880366 0)scale(0.996264)" xlink:href="#CMSS17-115"/>
      <use transform="translate(207.793908 0)scale(0.996264)" xlink:href="#CMSS17-116"/>
      <use transform="translate(241.625475 0)scale(0.996264)" xlink:href="#CMSS17-101"/>
      <use transform="translate(283.264297 0)scale(0.996264)" xlink:href="#CMSS17-112"/>
     </g>
    </g>
   </g>
   <g id="matplotlib.axis_2">
    <g id="ytick_1">
     <g id="line2d_10">
      <defs>
       <path d="M 0 0 
L -3.5 0 
" id="m23c9679336" style="stroke:#000000;stroke-width:0.8;"/>
      </defs>
      <g>
       <use style="stroke:#000000;stroke-width:0.8;" x="116.46" xlink:href="#m23c9679336" y="201.131939"/>
      </g>
     </g>
     <g id="text_11">
      <!-- $\mathdefault{0.4}$ -->
      <g transform="translate(96.729921 204.591188)scale(0.1 -0.1)">
       <defs>
        <path d="M 18.40625 4.796875 
C 18.40625 7.6875 16 9.671875 13.59375 9.671875 
C 10.703125 9.671875 8.703125 7.28125 8.703125 4.890625 
C 8.703125 2 11.09375 0 13.5 0 
C 16.40625 0 18.40625 2.390625 18.40625 4.796875 
z
" id="CMMI12-58"/>
       </defs>
       <use transform="scale(0.996264)" xlink:href="#CMR17-48"/>
       <use transform="translate(45.690477 0)scale(0.996264)" xlink:href="#CMMI12-58"/>
       <use transform="translate(72.787654 0)scale(0.996264)" xlink:href="#CMR17-52"/>
      </g>
     </g>
    </g>
    <g id="ytick_2">
     <g id="line2d_11">
      <g>
       <use style="stroke:#000000;stroke-width:0.8;" x="116.46" xlink:href="#m23c9679336" y="165.344835"/>
      </g>
     </g>
     <g id="text_12">
      <!-- $\mathdefault{0.5}$ -->
      <g transform="translate(96.729921 168.804084)scale(0.1 -0.1)">
       <use transform="scale(0.996264)" xlink:href="#CMR17-48"/>
       <use transform="translate(45.690477 0)scale(0.996264)" xlink:href="#CMMI12-58"/>
       <use transform="translate(72.787654 0)scale(0.996264)" xlink:href="#CMR17-53"/>
      </g>
     </g>
    </g>
    <g id="ytick_3">
     <g id="line2d_12">
      <g>
       <use style="stroke:#000000;stroke-width:0.8;" x="116.46" xlink:href="#m23c9679336" y="129.557731"/>
      </g>
     </g>
     <g id="text_13">
      <!-- $\mathdefault{0.6}$ -->
      <g transform="translate(96.729921 133.01698)scale(0.1 -0.1)">
       <use transform="scale(0.996264)" xlink:href="#CMR17-48"/>
       <use transform="translate(45.690477 0)scale(0.996264)" xlink:href="#CMMI12-58"/>
       <use transform="translate(72.787654 0)scale(0.996264)" xlink:href="#CMR17-54"/>
      </g>
     </g>
    </g>
    <g id="ytick_4">
     <g id="line2d_13">
      <g>
       <use style="stroke:#000000;stroke-width:0.8;" x="116.46" xlink:href="#m23c9679336" y="93.770627"/>
      </g>
     </g>
     <g id="text_14">
      <!-- $\mathdefault{0.7}$ -->
      <g transform="translate(96.729921 97.229876)scale(0.1 -0.1)">
       <use transform="scale(0.996264)" xlink:href="#CMR17-48"/>
       <use transform="translate(45.690477 0)scale(0.996264)" xlink:href="#CMMI12-58"/>
       <use transform="translate(72.787654 0)scale(0.996264)" xlink:href="#CMR17-55"/>
      </g>
     </g>
    </g>
    <g id="ytick_5">
     <g id="line2d_14">
      <g>
       <use style="stroke:#000000;stroke-width:0.8;" x="116.46" xlink:href="#m23c9679336" y="57.983523"/>
      </g>
     </g>
     <g id="text_15">
      <!-- $\mathdefault{0.8}$ -->
      <g transform="translate(96.729921 61.442772)scale(0.1 -0.1)">
       <use transform="scale(0.996264)" xlink:href="#CMR17-48"/>
       <use transform="translate(45.690477 0)scale(0.996264)" xlink:href="#CMMI12-58"/>
       <use transform="translate(72.787654 0)scale(0.996264)" xlink:href="#CMR17-56"/>
      </g>
     </g>
    </g>
    <g id="text_16">
     <!-- $I_x$ -->
     <g transform="translate(90.792743 145.694604)rotate(-90)scale(0.1 -0.1)">
      <defs>
       <path d="M 36.796875 60.625 
C 37.703125 64.109375 37.90625 65.109375 45.203125 65.109375 
C 47.40625 65.109375 48.203125 65.109375 48.203125 67 
C 48.203125 68 47.09375 68 46.796875 68 
C 45 68 42.796875 68 41 68 
L 28.703125 68 
C 26.703125 68 24.40625 68 22.40625 68 
C 21.59375 68 20.5 68 20.5 66.109375 
C 20.5 65.109375 21.296875 65.109375 23.296875 65.109375 
C 29.5 65.109375 29.5 64.3125 29.5 63.21875 
C 29.5 62.53125 29.296875 61.921875 29.09375 61.03125 
L 15.59375 7.375 
C 14.703125 3.890625 14.5 2.890625 7.203125 2.890625 
C 5 2.890625 4.09375 2.890625 4.09375 1 
C 4.09375 0 5.09375 0 5.59375 0 
C 7.40625 0 9.59375 0 11.40625 0 
L 23.703125 0 
C 25.703125 0 27.90625 0 29.90625 0 
C 30.703125 0 31.90625 0 31.90625 1.796875 
C 31.90625 2.890625 31.296875 2.890625 29.09375 2.890625 
C 22.90625 2.890625 22.90625 3.6875 22.90625 4.875 
C 22.90625 5.078125 22.90625 5.578125 23.296875 7.171875 
z
" id="CMMI12-73"/>
       <path d="M 47.40625 40.71875 
C 44.203125 40.109375 43 37.71875 43 35.828125 
C 43 33.421875 44.90625 32.625 46.296875 32.625 
C 49.296875 32.625 51.40625 35.21875 51.40625 37.921875 
C 51.40625 42.109375 46.59375 44 42.40625 44 
C 36.296875 44 32.90625 38.015625 32 36.125 
C 29.703125 44 23.5 44 21.703125 44 
C 11.5 44 6.09375 30.9375 6.09375 28.734375 
C 6.09375 28.34375 6.5 27.84375 7.203125 27.84375 
C 8 27.84375 8.203125 28.4375 8.40625 28.84375 
C 11.796875 39.921875 18.5 42.015625 21.40625 42.015625 
C 25.90625 42.015625 26.796875 37.8125 26.796875 35.421875 
C 26.796875 33.234375 26.203125 30.9375 25 26.140625 
L 21.59375 12.46875 
C 20.09375 6.484375 17.203125 1 11.90625 1 
C 11.40625 1 8.90625 1 6.796875 2.296875 
C 10.40625 3 11.203125 5.984375 11.203125 7.1875 
C 11.203125 9.1875 9.703125 10.375 7.796875 10.375 
C 5.40625 10.375 2.796875 8.28125 2.796875 5.09375 
C 2.796875 0.890625 7.5 -1 11.796875 -1 
C 16.59375 -1 20 2.796875 22.09375 6.890625 
C 23.703125 1 28.703125 -1 32.40625 -1 
C 42.59375 -1 48 12.078125 48 14.265625 
C 48 14.765625 47.59375 15.171875 47 15.171875 
C 46.09375 15.171875 46 14.671875 45.703125 13.875 
C 43 5.09375 37.203125 1 32.703125 1 
C 29.203125 1 27.296875 3.59375 27.296875 7.6875 
C 27.296875 9.875 27.703125 11.46875 29.296875 18.0625 
L 32.796875 31.625 
C 34.296875 37.625 37.703125 42.015625 42.296875 42.015625 
C 42.5 42.015625 45.296875 42.015625 47.40625 40.71875 
z
" id="CMMI12-120"/>
      </defs>
      <use transform="scale(0.996264)" xlink:href="#CMMI12-73"/>
      <use transform="translate(43.024176 -14.943915)scale(0.697382)" xlink:href="#CMMI12-120"/>
     </g>
    </g>
   </g>
   <g id="line2d_15">
    <path clip-path="url(#p6d9ffe4f45)" d="M 149.280545 195.873783 
L 153.383114 197.582321 
L 157.485682 200.244157 
L 161.58825 195.415909 
L 165.690818 195.247151 
L 169.793386 198.263259 
L 173.895955 198.559809 
L 177.998523 195.86678 
L 182.101091 193.370964 
L 186.203659 189.088794 
L 190.306227 184.219418 
L 194.408795 178.278176 
L 198.511364 172.578689 
L 202.613932 168.922297 
L 206.7165 162.607223 
L 210.819068 159.078907 
L 214.921636 155.843724 
L 219.024205 152.501661 
L 223.126773 150.957005 
L 227.229341 147.936777 
L 231.331909 144.566081 
L 235.434477 141.221834 
L 239.537045 138.978889 
L 243.639614 135.606352 
L 247.742182 134.921606 
L 251.84475 131.425858 
L 255.947318 130.093163 
L 260.049886 128.945222 
L 264.152455 128.813418 
L 268.255023 129.006064 
L 272.357591 127.401301 
L 276.460159 126.193753 
L 280.562727 125.652545 
L 284.665295 123.965938 
L 288.767864 123.157409 
L 292.870432 124.212608 
L 296.973 123.718982 
L 301.075568 122.174869 
L 305.178136 122.510815 
L 309.280705 121.253443 
L 313.383273 120.596715 
L 477.486 114.229829 
L 641.588727 115.439716 
L 805.691455 114.88721 
" style="fill:none;stroke:#ff0000;stroke-linecap:square;stroke-width:1.5;"/>
   </g>
   <g id="line2d_16">
    <path clip-path="url(#p6d9ffe4f45)" d="M 149.280545 205.620078 
L 153.383114 212.838369 
L 157.485682 213.546081 
L 161.58825 209.659208 
L 165.690818 207.032187 
L 169.793386 204.640347 
L 173.895955 199.958831 
L 177.998523 198.110606 
L 182.101091 197.001405 
L 186.203659 198.21185 
L 190.306227 198.366979 
L 194.408795 191.084776 
L 198.511364 190.040011 
L 202.613932 186.586798 
L 206.7165 183.19801 
L 210.819068 179.509033 
L 214.921636 174.944977 
L 219.024205 171.896408 
L 223.126773 168.958299 
L 227.229341 165.460652 
L 231.331909 160.658948 
L 235.434477 160.82161 
L 239.537045 159.482429 
L 243.639614 154.981752 
L 247.742182 154.339946 
L 251.84475 153.978948 
L 255.947318 151.107964 
L 260.049886 150.190691 
L 264.152455 149.53535 
L 268.255023 148.74347 
L 272.357591 146.066739 
L 276.460159 146.026539 
L 280.562727 146.511644 
L 284.665295 145.590008 
L 288.767864 142.235377 
L 292.870432 140.686262 
L 296.973 140.119246 
L 301.075568 141.721206 
L 305.178136 141.618664 
L 309.280705 140.146446 
L 313.383273 138.902864 
L 477.486 126.910496 
L 641.588727 119.87748 
L 805.691455 117.472802 
" style="fill:none;stroke:#000000;stroke-linecap:square;stroke-width:1.5;"/>
   </g>
   <g id="line2d_17">
    <path clip-path="url(#p6d9ffe4f45)" d="M 149.280545 204.629454 
L 153.383114 211.736784 
L 157.485682 212.658329 
L 161.58825 208.79468 
L 165.690818 205.787339 
L 169.793386 203.335159 
L 173.895955 198.681261 
L 177.998523 196.498518 
L 182.101091 195.17399 
L 186.203659 195.943657 
L 190.306227 196.080173 
L 194.408795 188.129622 
L 198.511364 186.333919 
L 202.613932 182.440397 
L 206.7165 178.552148 
L 210.819068 174.36889 
L 214.921636 169.369428 
L 219.024205 165.875032 
L 223.126773 161.746816 
L 227.229341 157.605988 
L 231.331909 152.399576 
L 235.434477 151.502683 
L 239.537045 149.323631 
L 243.639614 144.559732 
L 247.742182 142.474759 
L 251.84475 141.676044 
L 255.947318 138.53587 
L 260.049886 136.767125 
L 264.152455 135.857224 
L 268.255023 134.44586 
L 272.357591 131.241236 
L 276.460159 131.103676 
L 280.562727 131.188913 
L 284.665295 129.615823 
L 288.767864 126.053622 
L 292.870432 124.489512 
L 296.973 123.54721 
L 301.075568 124.68829 
L 305.178136 123.152952 
L 309.280705 121.398414 
L 313.383273 119.973459 
L 477.486 100.610716 
L 641.588727 89.970074 
L 805.691455 85.090707 
" style="fill:none;stroke:#000000;stroke-dasharray:5.55,2.4;stroke-dashoffset:0;stroke-width:1.5;"/>
   </g>
   <g id="line2d_18">
    <path clip-path="url(#p6d9ffe4f45)" d="M 149.280545 212.894098 
L 153.383114 214.577823 
L 157.485682 217.418727 
L 161.58825 214.894649 
L 165.690818 215.266888 
L 169.793386 216.692544 
L 173.895955 217.293753 
L 177.998523 216.056019 
L 182.101091 214.853827 
L 186.203659 211.971177 
L 190.306227 207.729696 
L 194.408795 203.104678 
L 198.511364 197.980481 
L 202.613932 194.634281 
L 206.7165 188.405646 
L 210.819068 185.764814 
L 214.921636 183.911748 
L 219.024205 180.335773 
L 223.126773 178.217656 
L 227.229341 175.776845 
L 231.331909 173.745422 
L 235.434477 170.768699 
L 239.537045 168.592844 
L 243.639614 166.292359 
L 247.742182 165.573961 
L 251.84475 162.755904 
L 255.947318 162.058691 
L 260.049886 161.127085 
L 264.152455 160.656462 
L 268.255023 160.587133 
L 272.357591 159.062403 
L 276.460159 157.505297 
L 280.562727 156.934756 
L 284.665295 155.823986 
L 288.767864 155.241229 
L 292.870432 156.067878 
L 296.973 156.538356 
L 301.075568 155.312703 
L 305.178136 155.385185 
L 309.280705 154.444269 
L 313.383273 153.705374 
L 477.486 148.694172 
L 641.588727 150.069944 
L 805.691455 150.342131 
" style="fill:none;stroke:#0000ff;stroke-linecap:square;stroke-width:1.5;"/>
   </g>
   <g id="line2d_19">
    <path clip-path="url(#p6d9ffe4f45)" d="M 149.280545 65.073273 
L 153.383114 65.073273 
L 157.485682 65.073273 
L 161.58825 65.073273 
L 165.690818 65.073273 
L 169.793386 65.073363 
L 173.895955 65.073311 
L 177.998523 65.073273 
L 182.101091 65.073273 
L 186.203659 65.073273 
L 190.306227 65.073273 
L 194.408795 65.073273 
L 198.511364 65.073273 
L 202.613932 65.073273 
L 206.7165 65.073273 
L 210.819068 65.073273 
L 214.921636 65.073273 
L 219.024205 65.073273 
L 223.126773 65.073273 
L 227.229341 65.073273 
L 231.331909 65.073273 
L 235.434477 65.073273 
L 239.537045 65.073273 
L 243.639614 65.073273 
L 247.742182 65.073273 
L 251.84475 65.073273 
L 255.947318 65.073364 
L 260.049886 65.073273 
L 264.152455 65.073273 
L 268.255023 65.073273 
L 272.357591 65.073273 
L 276.460159 65.073273 
L 280.562727 65.073273 
L 284.665295 65.073273 
L 288.767864 65.073273 
L 292.870432 65.073273 
L 296.973 65.073273 
L 301.075568 65.073273 
L 305.178136 65.073273 
L 309.280705 65.073273 
L 313.383273 65.073311 
L 477.486 65.073273 
L 641.588727 65.073311 
L 805.691455 65.073273 
" style="fill:none;stroke:#008000;stroke-linecap:square;stroke-width:1.5;"/>
   </g>
   <g id="patch_3">
    <path d="M 116.46 225.036 
L 116.46 57.456 
" style="fill:none;stroke:#000000;stroke-linecap:square;stroke-linejoin:miter;stroke-width:0.8;"/>
   </g>
   <g id="patch_4">
    <path d="M 838.512 225.036 
L 838.512 57.456 
" style="fill:none;stroke:#000000;stroke-linecap:square;stroke-linejoin:miter;stroke-width:0.8;"/>
   </g>
   <g id="patch_5">
    <path d="M 116.46 225.036 
L 838.512 225.036 
" style="fill:none;stroke:#000000;stroke-linecap:square;stroke-linejoin:miter;stroke-width:0.8;"/>
   </g>
   <g id="patch_6">
    <path d="M 116.46 57.456 
L 838.512 57.456 
" style="fill:none;stroke:#000000;stroke-linecap:square;stroke-linejoin:miter;stroke-width:0.8;"/>
   </g>
   <g id="text_17">
    <!-- Map X -->
    <g transform="translate(460.784934 51.456)scale(0.12 -0.12)">
     <defs>
      <path d="M 49.90625 37.046875 
L 45.09375 23.015625 
C 44.296875 20.421875 41.59375 12.359375 41 9.171875 
L 40.90625 9.171875 
C 40.59375 11.171875 40 13.265625 38.40625 18.34375 
C 37.5 21.328125 36.5 24.40625 35.5 27.203125 
L 20.703125 69 
L 9 69 
L 9 0 
L 16.796875 0 
L 16.796875 60.9375 
L 16.90625 60.9375 
C 16.90625 60.84375 17.796875 56.453125 23.90625 39.046875 
L 37.09375 1.5 
L 44.5 1.5 
L 56.40625 34.859375 
C 57.203125 37.15625 59.703125 44.421875 60.796875 47.90625 
C 61.796875 50.890625 64.296875 58.25 64.90625 61.140625 
L 65 61.140625 
L 65 0 
L 72.90625 0 
L 72.90625 69 
L 61.296875 69 
z
" id="CMSS17-77"/>
      <path d="M 37.59375 27.984375 
C 37.59375 37.375 30.90625 43.875 21.90625 43.875 
C 17.5 43.875 12.703125 43.078125 7.203125 39.890625 
L 7.796875 33.359375 
C 10.296875 35.125 14.59375 38 21.796875 38 
C 26.90625 38 30 34.0625 30 27.84375 
L 30 24 
C 14 24 4 19.34375 4 11.34375 
C 4 7.203125 6.5 -1 14.796875 -1 
C 16.296875 -1 24.40625 -1 30.203125 3.390625 
L 30.203125 -0.296875 
L 37.59375 -0.296875 
z
M 30 12.75 
C 30 10.953125 30 8.5625 27 6.78125 
C 24.40625 5.078125 21.09375 5.078125 19.703125 5.078125 
C 14.703125 5.078125 11.296875 7.984375 11.296875 11.625 
C 11.296875 18.921875 26.90625 18.921875 30 18.921875 
z
" id="CMSS17-97"/>
      <path d="M 34.59375 36.390625 
L 57.203125 69 
L 48 69 
L 30.5 43.15625 
L 12.5 69 
L 2.59375 69 
L 26.40625 36.390625 
L 1.296875 0 
L 10.5 0 
L 30.5 30.328125 
L 51.203125 0 
L 61.09375 0 
z
" id="CMSS17-88"/>
     </defs>
     <use transform="scale(0.996264)" xlink:href="#CMSS17-77"/>
     <use transform="translate(81.67603 0)scale(0.996264)" xlink:href="#CMSS17-97"/>
     <use transform="translate(126.597951 0)scale(0.996264)" xlink:href="#CMSS17-112"/>
     <use transform="translate(206.032006 0)scale(0.996264)" xlink:href="#CMSS17-88"/>
    </g>
   </g>
   <g id="legend_1">
    <g id="patch_7">
     <path d="M 683.91751 220.036 
L 831.512 220.036 
Q 833.512 220.036 833.512 218.036 
L 833.512 137.35395 
Q 833.512 135.35395 831.512 135.35395 
L 683.91751 135.35395 
Q 681.91751 135.35395 681.91751 137.35395 
L 681.91751 218.036 
Q 681.91751 220.036 683.91751 220.036 
z
" style="fill:#ffffff;opacity:0.8;stroke:#cccccc;stroke-linejoin:miter;"/>
    </g>
    <g id="line2d_20">
     <path d="M 685.91751 144.6997 
L 705.91751 144.6997 
" style="fill:none;stroke:#ff0000;stroke-linecap:square;stroke-width:1.5;"/>
    </g>
    <g id="line2d_21"/>
    <g id="text_18">
     <!-- $I_x(U|\Pi^{(1)})$, CxSOM -->
     <g transform="translate(713.91751 148.1997)scale(0.1 -0.1)">
      <defs>
       <path d="M 30.59375 -24.390625 
C 30.59375 -24.296875 30.59375 -24.09375 30.296875 -23.796875 
C 25.703125 -19.125 13.40625 -6.359375 13.40625 24.703125 
C 13.40625 55.765625 25.5 68.421875 30.40625 73.390625 
C 30.40625 73.5 30.59375 73.703125 30.59375 74 
C 30.59375 74.296875 30.296875 74.5 29.90625 74.5 
C 28.796875 74.5 20.296875 67.125 15.40625 56.15625 
C 10.40625 45.109375 9 34.359375 9 24.8125 
C 9 17.625 9.703125 5.484375 15.703125 -7.359375 
C 20.5 -17.734375 28.703125 -25 29.90625 -25 
C 30.40625 -25 30.59375 -24.796875 30.59375 -24.390625 
z
" id="CMR17-40"/>
       <path d="M 50.59375 23.03125 
C 47.09375 9.078125 35.5 0.890625 26.09375 0.890625 
C 18.90625 0.890625 14 5.671875 14 13.921875 
C 14 14.3125 14 17.296875 15.09375 21.671875 
L 24.90625 60.734375 
C 25.796875 64.109375 26 65.109375 33.09375 65.109375 
C 34.90625 65.109375 35.90625 65.109375 35.90625 66.90625 
C 35.90625 68 35 68 34.40625 68 
C 32.59375 68 30.5 68 28.59375 68 
L 16.796875 68 
C 14.90625 68 12.796875 68 10.90625 68 
C 10.203125 68 9 68 9 66.109375 
C 9 65.109375 9.703125 65.109375 11.59375 65.109375 
C 17.59375 65.109375 17.59375 64.3125 17.59375 63.21875 
C 17.59375 62.625 16.90625 59.75 16.40625 58.046875 
L 7.703125 23.25 
C 7.40625 22.15625 6.796875 19.46875 6.796875 16.796875 
C 6.796875 5.84375 14.703125 -2 25.59375 -2 
C 35.703125 -2 46.90625 6 52 18.703125 
C 52.703125 20.390625 53.59375 23.90625 54.203125 26.59375 
C 55.203125 30.203125 57.296875 39 58 41.59375 
L 61.796875 56.609375 
C 63.09375 61.8125 63.90625 65.109375 72.703125 65.109375 
C 73.5 65.203125 73.90625 66 73.90625 66.90625 
C 73.90625 68 73 68 72.59375 68 
C 71.203125 68 69.40625 68 68 68 
L 63.296875 68 
C 57.09375 68 53.90625 68 53.796875 68 
C 53.203125 68 52 68 52 66.109375 
C 52 65.109375 52.796875 65.109375 53.5 65.109375 
C 59.5 65.109375 59.90625 62.8125 59.90625 61.015625 
C 59.90625 60.125 59.90625 59.8125 59.5 58.421875 
z
" id="CMMI12-85"/>
       <path d="M 15.90625 71.40625 
C 15.90625 73.203125 15.90625 75 13.90625 75 
C 11.90625 75 11.90625 73.203125 11.90625 71.40625 
L 11.90625 -21.40625 
C 11.90625 -23.203125 11.90625 -25 13.90625 -25 
C 15.90625 -25 15.90625 -23.203125 15.90625 -21.40625 
z
" id="CMSY10-106"/>
       <path d="M 56.09375 60.90625 
C 56.09375 65.40625 57.203125 65.40625 64.09375 65.40625 
L 64.09375 68 
L 5.09375 68 
L 5.09375 65.40625 
C 12 65.40625 13.09375 65.40625 13.09375 60.90625 
L 13.09375 7 
C 13.09375 2.5 12 2.5 5.09375 2.5 
L 5.09375 0 
C 8 0 13.296875 0 16.40625 0 
C 19.5 0 24.796875 0 27.703125 0 
L 27.703125 2.5 
C 20.796875 2.5 19.703125 2.5 19.703125 7 
L 19.703125 65.40625 
L 49.5 65.40625 
L 49.5 7 
C 49.5 2.5 48.40625 2.5 41.5 2.5 
L 41.5 0 
C 44.40625 0 49.703125 0 52.796875 0 
C 55.90625 0 61.203125 0 64.09375 0 
L 64.09375 2.5 
C 57.203125 2.5 56.09375 2.5 56.09375 7 
z
" id="CMR17-5"/>
       <path d="M 26.296875 24.703125 
C 26.296875 31.875 25.59375 44.015625 19.59375 56.859375 
C 14.796875 67.234375 6.59375 74.5 5.40625 74.5 
C 5.09375 74.5 4.703125 74.390625 4.703125 73.890625 
C 4.703125 73.703125 4.796875 73.59375 4.90625 73.390625 
C 9.703125 68.40625 21.90625 55.75 21.90625 24.75 
C 21.90625 -6.359375 9.796875 -19.015625 4.90625 -24.015625 
C 4.796875 -24.203125 4.703125 -24.3125 4.703125 -24.5 
C 4.703125 -25 5.09375 -25 5.40625 -25 
C 6.5 -25 15 -17.625 19.90625 -6.65625 
C 24.90625 4.390625 26.296875 15.140625 26.296875 24.703125 
z
" id="CMR17-41"/>
       <path d="M 17 0.09375 
L 17 7.96875 
L 9 7.96875 
L 9 0 
L 11.5 0 
L 8.90625 -12.5 
L 12.90625 -12.5 
z
" id="CMSS17-44"/>
       <path d="M 54.703125 11.15625 
C 48 6.671875 44.90625 5.375 36.796875 5.375 
C 22.796875 5.375 14.59375 20.359375 14.59375 34.046875 
C 14.59375 48.625 23 63 37.203125 63 
C 43.59375 63 47.796875 61.21875 52.90625 58.046875 
L 54.296875 65.890625 
C 49.5 68.28125 43.40625 69.375 37.296875 69.375 
C 18.09375 69.375 6.203125 51.8125 6.203125 34.046875 
C 6.203125 14.484375 20.296875 -1 36.296875 -1 
C 44.90625 -1 47.90625 -0.296875 55.296875 4.375 
z
" id="CMSS17-67"/>
       <path d="M 24.796875 22.09375 
L 41.5 42.796875 
L 32.796875 42.796875 
L 21.296875 27.765625 
L 9.40625 42.796875 
L 0.5 42.796875 
L 17.796875 22.09375 
L 0 0 
L 8.796875 0 
L 21.296875 17.515625 
L 34.296875 0 
L 43.09375 0 
z
" id="CMSS17-120"/>
       <path d="M 43.703125 65.140625 
C 39.296875 67.71875 34.5 70 26.40625 70 
C 13.5 70 5.203125 60.609375 5.203125 51.03125 
C 5.203125 47.265625 6.296875 43.015625 10.203125 38.671875 
C 14.09375 34.3125 18.5 33.140625 24.09375 31.765625 
C 26.40625 31.15625 30.296875 30.0625 31 29.78125 
C 36.59375 27.609375 39.296875 22.5625 39.296875 17.8125 
C 39.296875 11.59375 34.40625 4.96875 25.703125 4.96875 
C 22.703125 4.96875 13.90625 4.96875 5.59375 12.796875 
L 4.203125 4.96875 
C 12.40625 -1 21.296875 -2 25.796875 -2 
C 38.09375 -2 46.90625 7.625 46.90625 18.53125 
C 46.90625 22.5 45.703125 27.546875 41.5 32.203125 
C 37.40625 36.671875 33.796875 37.65625 25.59375 39.828125 
C 20.90625 41.03125 17.90625 41.828125 15.40625 44.890625 
C 13.703125 47.078125 12.796875 49.15625 12.796875 51.828125 
C 12.796875 57.390625 17.59375 63.4375 26.40625 63.4375 
C 30.796875 63.4375 36.5 62.53125 42.296875 57.1875 
z
" id="CMSS17-83"/>
       <path d="M 64 34.03125 
C 64 54.734375 50.296875 70.265625 34.59375 70.265625 
C 18.90625 70.265625 5.203125 54.640625 5.203125 34.03125 
C 5.203125 13.234375 19.09375 -2 34.59375 -2 
C 50.09375 -2 64 13.234375 64 34.03125 
z
M 34.59375 4.265625 
C 23.59375 4.265625 13.59375 16.515625 13.59375 35.328125 
C 13.59375 53.640625 24.203125 64 34.59375 64 
C 45 64 55.59375 53.640625 55.59375 35.328125 
C 55.59375 16.421875 45.5 4.265625 34.59375 4.265625 
z
" id="CMSS17-79"/>
      </defs>
      <use transform="scale(0.996264)" xlink:href="#CMMI12-73"/>
      <use transform="translate(43.024176 -14.943915)scale(0.697382)" xlink:href="#CMMI12-120"/>
      <use transform="translate(82.325967 0)scale(0.996264)" xlink:href="#CMR17-40"/>
      <use transform="translate(117.606735 0)scale(0.996264)" xlink:href="#CMMI12-85"/>
      <use transform="translate(194.265508 0)scale(0.996264)" xlink:href="#CMSY10-106"/>
      <use transform="translate(221.939592 0)scale(0.996264)" xlink:href="#CMR17-5"/>
      <use transform="translate(291.012022 36.153639)scale(0.697382)" xlink:href="#CMR17-40"/>
      <use transform="translate(315.708443 36.153639)scale(0.697382)" xlink:href="#CMR17-49"/>
      <use transform="translate(347.691625 36.153639)scale(0.697382)" xlink:href="#CMR17-41"/>
      <use transform="translate(372.886177 0)scale(0.996264)" xlink:href="#CMR17-41"/>
      <use transform="translate(408.166945 0)scale(0.996264)" xlink:href="#CMSS17-44"/>
      <use transform="translate(465.420262 0)scale(0.996264)" xlink:href="#CMSS17-67"/>
      <use transform="translate(525.276034 0)scale(0.996264)" xlink:href="#CMSS17-120"/>
      <use transform="translate(568.276176 0)scale(0.996264)" xlink:href="#CMSS17-83"/>
      <use transform="translate(620.324692 0)scale(0.996264)" xlink:href="#CMSS17-79"/>
      <use transform="translate(689.348947 0)scale(0.996264)" xlink:href="#CMSS17-77"/>
     </g>
    </g>
    <g id="line2d_22">
     <path d="M 685.91751 161.03611 
L 705.91751 161.03611 
" style="fill:none;stroke:#000000;stroke-linecap:square;stroke-width:1.5;"/>
    </g>
    <g id="line2d_23"/>
    <g id="text_19">
     <!-- $I_x(U|\Pi^{(1)})$, Carte simple -->
     <g transform="translate(713.91751 164.53611)scale(0.1 -0.1)">
      <defs>
       <path d="M 14.90625 21.296875 
C 14.90625 30.703125 21.796875 37 30.59375 37 
L 30.59375 43.578125 
C 24.203125 43.578125 18.203125 40.390625 14.59375 35.203125 
L 14.59375 43.09375 
L 7.5 43.09375 
L 7.5 0 
L 14.90625 0 
z
" id="CMSS17-114"/>
       <path d="M 14.796875 69 
L 7.40625 69 
L 7.40625 0 
L 14.796875 0 
z
" id="CMSS17-108"/>
      </defs>
      <use transform="scale(0.996264)" xlink:href="#CMMI12-73"/>
      <use transform="translate(43.024176 -14.943915)scale(0.697382)" xlink:href="#CMMI12-120"/>
      <use transform="translate(82.325967 0)scale(0.996264)" xlink:href="#CMR17-40"/>
      <use transform="translate(117.606735 0)scale(0.996264)" xlink:href="#CMMI12-85"/>
      <use transform="translate(194.265508 0)scale(0.996264)" xlink:href="#CMSY10-106"/>
      <use transform="translate(221.939592 0)scale(0.996264)" xlink:href="#CMR17-5"/>
      <use transform="translate(291.012022 36.153639)scale(0.697382)" xlink:href="#CMR17-40"/>
      <use transform="translate(315.708443 36.153639)scale(0.697382)" xlink:href="#CMR17-49"/>
      <use transform="translate(347.691625 36.153639)scale(0.697382)" xlink:href="#CMR17-41"/>
      <use transform="translate(372.886177 0)scale(0.996264)" xlink:href="#CMR17-41"/>
      <use transform="translate(408.166945 0)scale(0.996264)" xlink:href="#CMSS17-44"/>
      <use transform="translate(465.420262 0)scale(0.996264)" xlink:href="#CMSS17-67"/>
      <use transform="translate(525.276034 0)scale(0.996264)" xlink:href="#CMSS17-97"/>
      <use transform="translate(567.595501 0)scale(0.996264)" xlink:href="#CMSS17-114"/>
      <use transform="translate(599.505273 0)scale(0.996264)" xlink:href="#CMSS17-116"/>
      <use transform="translate(633.33684 0)scale(0.996264)" xlink:href="#CMSS17-101"/>
      <use transform="translate(706.204775 0)scale(0.996264)" xlink:href="#CMSS17-115"/>
      <use transform="translate(742.118317 0)scale(0.996264)" xlink:href="#CMSS17-105"/>
      <use transform="translate(764.29904 0)scale(0.996264)" xlink:href="#CMSS17-109"/>
      <use transform="translate(838.528294 0)scale(0.996264)" xlink:href="#CMSS17-112"/>
      <use transform="translate(886.733237 0)scale(0.996264)" xlink:href="#CMSS17-108"/>
      <use transform="translate(908.91396 0)scale(0.996264)" xlink:href="#CMSS17-101"/>
     </g>
    </g>
    <g id="line2d_24">
     <path d="M 685.91751 177.37252 
L 705.91751 177.37252 
" style="fill:none;stroke:#000000;stroke-dasharray:5.55,2.4;stroke-dashoffset:0;stroke-width:1.5;"/>
    </g>
    <g id="line2d_25"/>
    <g id="text_20">
     <!-- $I_x(X^{(1)}|\Pi^{(1)})$, Carte simple -->
     <g transform="translate(713.91751 180.87252)scale(0.1 -0.1)">
      <defs>
       <path d="M 47.5 40.5625 
L 38.09375 62.40625 
C 39.40625 64.796875 42.40625 65.1875 43.59375 65.296875 
C 44.203125 65.296875 45.296875 65.296875 45.296875 67.0625 
C 45.296875 68.1875 44.40625 68.1875 43.796875 68.1875 
C 42.09375 68.1875 40.09375 68.1875 38.40625 68.1875 
L 32.59375 68.1875 
C 26.5 68.1875 22.09375 68.1875 22 68.1875 
C 21.203125 68.1875 20.203125 68.1875 20.203125 66.296875 
C 20.203125 65.296875 21.09375 65.296875 22.40625 65.296875 
C 28.203125 65.296875 28.59375 64.296875 29.59375 61.90625 
L 41.5 34.140625 
L 19.796875 10.828125 
C 16.203125 6.90625 11.90625 3.09375 4.5 3.09375 
C 3.296875 3 2.5 3 2.5 1.0625 
C 2.5 0.75 2.59375 0 3.703125 0 
C 5.09375 0 6.59375 0 8 0 
L 12.703125 0 
C 15.90625 0 19.40625 0 22.5 0 
C 23.203125 0 24.40625 0 24.40625 1.796875 
C 24.40625 2.796875 23.703125 2.890625 23.09375 2.890625 
C 21.09375 3.09375 19.796875 4.1875 19.796875 5.78125 
C 19.796875 7.484375 21 8.703125 23.90625 11.6875 
L 32.796875 21.375 
C 35 23.6875 40.296875 29.46875 42.5 31.65625 
L 53 7.078125 
C 53.09375 6.890625 53.5 5.890625 53.5 5.78125 
C 53.5 4.890625 51.296875 3.09375 48.09375 3.09375 
C 47.5 3.09375 46.40625 3.09375 46.40625 1.109375 
C 46.40625 0 47.40625 0 47.90625 0 
C 49.59375 0 51.59375 0 53.296875 0 
L 64.296875 0 
C 66.09375 0 68 0 69.703125 0 
C 70.40625 0 71.5 0 71.5 2.03125 
C 71.5 3.09375 70.5 3.09375 69.59375 3.09375 
C 63.59375 3.09375 63.40625 3.59375 61.703125 7.265625 
L 48.5 38.140625 
L 61.203125 51.8125 
C 62.203125 52.828125 64.5 55.34375 65.40625 56.34375 
C 69.703125 60.875 73.703125 65 81.796875 65 
C 82.796875 65.296875 83.796875 65.296875 83.796875 67.0625 
C 83.796875 68.1875 82.90625 68.1875 82.5 68.1875 
C 81.09375 68.1875 79.59375 68.1875 78.203125 68.1875 
L 73.59375 68.1875 
C 70.40625 68.1875 66.90625 68.1875 63.796875 68.1875 
C 63.09375 68.1875 61.90625 68.1875 61.90625 66.390625 
C 61.90625 65.390625 62.59375 65.296875 63.203125 65.296875 
C 64.796875 65.109375 66.5 64.3125 66.5 62.40625 
L 66.40625 62.21875 
C 66.296875 61.515625 66.09375 60.515625 65 59.328125 
z
" id="CMMI12-88"/>
      </defs>
      <use transform="scale(0.996264)" xlink:href="#CMMI12-73"/>
      <use transform="translate(43.024176 -14.943915)scale(0.697382)" xlink:href="#CMMI12-120"/>
      <use transform="translate(82.325967 0)scale(0.996264)" xlink:href="#CMR17-40"/>
      <use transform="translate(117.606735 0)scale(0.996264)" xlink:href="#CMMI12-88"/>
      <use transform="translate(206.399297 36.153639)scale(0.697382)" xlink:href="#CMR17-40"/>
      <use transform="translate(231.095717 36.153639)scale(0.697382)" xlink:href="#CMR17-49"/>
      <use transform="translate(263.078899 36.153639)scale(0.697382)" xlink:href="#CMR17-41"/>
      <use transform="translate(288.273451 0)scale(0.996264)" xlink:href="#CMSY10-106"/>
      <use transform="translate(315.947536 0)scale(0.996264)" xlink:href="#CMR17-5"/>
      <use transform="translate(385.019966 36.153639)scale(0.697382)" xlink:href="#CMR17-40"/>
      <use transform="translate(409.716386 36.153639)scale(0.697382)" xlink:href="#CMR17-49"/>
      <use transform="translate(441.699568 36.153639)scale(0.697382)" xlink:href="#CMR17-41"/>
      <use transform="translate(466.894121 0)scale(0.996264)" xlink:href="#CMR17-41"/>
      <use transform="translate(502.174889 0)scale(0.996264)" xlink:href="#CMSS17-44"/>
      <use transform="translate(559.428206 0)scale(0.996264)" xlink:href="#CMSS17-67"/>
      <use transform="translate(619.283978 0)scale(0.996264)" xlink:href="#CMSS17-97"/>
      <use transform="translate(661.603444 0)scale(0.996264)" xlink:href="#CMSS17-114"/>
      <use transform="translate(693.513217 0)scale(0.996264)" xlink:href="#CMSS17-116"/>
      <use transform="translate(727.344784 0)scale(0.996264)" xlink:href="#CMSS17-101"/>
      <use transform="translate(800.212719 0)scale(0.996264)" xlink:href="#CMSS17-115"/>
      <use transform="translate(836.126261 0)scale(0.996264)" xlink:href="#CMSS17-105"/>
      <use transform="translate(858.306984 0)scale(0.996264)" xlink:href="#CMSS17-109"/>
      <use transform="translate(932.536238 0)scale(0.996264)" xlink:href="#CMSS17-112"/>
      <use transform="translate(980.741181 0)scale(0.996264)" xlink:href="#CMSS17-108"/>
      <use transform="translate(1002.921904 0)scale(0.996264)" xlink:href="#CMSS17-101"/>
     </g>
    </g>
    <g id="line2d_26">
     <path d="M 685.91751 193.70893 
L 705.91751 193.70893 
" style="fill:none;stroke:#0000ff;stroke-linecap:square;stroke-width:1.5;"/>
    </g>
    <g id="line2d_27"/>
    <g id="text_21">
     <!-- $I_x(X^{(1)}|\Pi^{(1)})$, CxSOM -->
     <g transform="translate(713.91751 197.20893)scale(0.1 -0.1)">
      <use transform="scale(0.996264)" xlink:href="#CMMI12-73"/>
      <use transform="translate(43.024176 -14.943915)scale(0.697382)" xlink:href="#CMMI12-120"/>
      <use transform="translate(82.325967 0)scale(0.996264)" xlink:href="#CMR17-40"/>
      <use transform="translate(117.606735 0)scale(0.996264)" xlink:href="#CMMI12-88"/>
      <use transform="translate(206.399297 36.153639)scale(0.697382)" xlink:href="#CMR17-40"/>
      <use transform="translate(231.095717 36.153639)scale(0.697382)" xlink:href="#CMR17-49"/>
      <use transform="translate(263.078899 36.153639)scale(0.697382)" xlink:href="#CMR17-41"/>
      <use transform="translate(288.273451 0)scale(0.996264)" xlink:href="#CMSY10-106"/>
      <use transform="translate(315.947536 0)scale(0.996264)" xlink:href="#CMR17-5"/>
      <use transform="translate(385.019966 36.153639)scale(0.697382)" xlink:href="#CMR17-40"/>
      <use transform="translate(409.716386 36.153639)scale(0.697382)" xlink:href="#CMR17-49"/>
      <use transform="translate(441.699568 36.153639)scale(0.697382)" xlink:href="#CMR17-41"/>
      <use transform="translate(466.894121 0)scale(0.996264)" xlink:href="#CMR17-41"/>
      <use transform="translate(502.174889 0)scale(0.996264)" xlink:href="#CMSS17-44"/>
      <use transform="translate(559.428206 0)scale(0.996264)" xlink:href="#CMSS17-67"/>
      <use transform="translate(619.283978 0)scale(0.996264)" xlink:href="#CMSS17-120"/>
      <use transform="translate(662.284119 0)scale(0.996264)" xlink:href="#CMSS17-83"/>
      <use transform="translate(714.332636 0)scale(0.996264)" xlink:href="#CMSS17-79"/>
      <use transform="translate(783.356891 0)scale(0.996264)" xlink:href="#CMSS17-77"/>
     </g>
    </g>
    <g id="line2d_28">
     <path d="M 685.91751 210.04534 
L 705.91751 210.04534 
" style="fill:none;stroke:#008000;stroke-linecap:square;stroke-width:1.5;"/>
    </g>
    <g id="line2d_29"/>
    <g id="text_22">
     <!-- $I_x(U|X^{(1)})$ -->
     <g transform="translate(713.91751 213.54534)scale(0.1 -0.1)">
      <use transform="scale(0.996264)" xlink:href="#CMMI12-73"/>
      <use transform="translate(43.024176 -14.943915)scale(0.697382)" xlink:href="#CMMI12-120"/>
      <use transform="translate(82.325967 0)scale(0.996264)" xlink:href="#CMR17-40"/>
      <use transform="translate(117.606735 0)scale(0.996264)" xlink:href="#CMMI12-85"/>
      <use transform="translate(194.265508 0)scale(0.996264)" xlink:href="#CMSY10-106"/>
      <use transform="translate(221.939592 0)scale(0.996264)" xlink:href="#CMMI12-88"/>
      <use transform="translate(310.732154 36.153639)scale(0.697382)" xlink:href="#CMR17-40"/>
      <use transform="translate(335.428575 36.153639)scale(0.697382)" xlink:href="#CMR17-49"/>
      <use transform="translate(367.411757 36.153639)scale(0.697382)" xlink:href="#CMR17-41"/>
      <use transform="translate(392.606309 0)scale(0.996264)" xlink:href="#CMR17-41"/>
     </g>
    </g>
   </g>
  </g>
  <g id="axes_2">
   <g id="patch_8">
    <path d="M 116.46 426.132 
L 838.512 426.132 
L 838.512 258.552 
L 116.46 258.552 
z
" style="fill:#ffffff;"/>
   </g>
   <g id="matplotlib.axis_3">
    <g id="xtick_10">
     <g id="line2d_30">
      <g>
       <use style="stroke:#000000;stroke-width:0.8;" x="149.280545" xlink:href="#mfa10f1a5d1" y="426.132"/>
      </g>
     </g>
     <g id="text_23">
      <!-- $\mathdefault{0}$ -->
      <g transform="translate(146.789878 440.050498)scale(0.1 -0.1)">
       <use transform="scale(0.996264)" xlink:href="#CMR17-48"/>
      </g>
     </g>
    </g>
    <g id="xtick_11">
     <g id="line2d_31">
      <g>
       <use style="stroke:#000000;stroke-width:0.8;" x="231.331909" xlink:href="#mfa10f1a5d1" y="426.132"/>
      </g>
     </g>
     <g id="text_24">
      <!-- $\mathdefault{100}$ -->
      <g transform="translate(223.859906 440.050498)scale(0.1 -0.1)">
       <use transform="scale(0.996264)" xlink:href="#CMR17-49"/>
       <use transform="translate(45.690477 0)scale(0.996264)" xlink:href="#CMR17-48"/>
       <use transform="translate(91.380954 0)scale(0.996264)" xlink:href="#CMR17-48"/>
      </g>
     </g>
    </g>
    <g id="xtick_12">
     <g id="line2d_32">
      <g>
       <use style="stroke:#000000;stroke-width:0.8;" x="313.383273" xlink:href="#mfa10f1a5d1" y="426.132"/>
      </g>
     </g>
     <g id="text_25">
      <!-- $\mathdefault{200}$ -->
      <g transform="translate(305.91127 440.050498)scale(0.1 -0.1)">
       <use transform="scale(0.996264)" xlink:href="#CMR17-50"/>
       <use transform="translate(45.690477 0)scale(0.996264)" xlink:href="#CMR17-48"/>
       <use transform="translate(91.380954 0)scale(0.996264)" xlink:href="#CMR17-48"/>
      </g>
     </g>
    </g>
    <g id="xtick_13">
     <g id="line2d_33">
      <g>
       <use style="stroke:#000000;stroke-width:0.8;" x="395.434636" xlink:href="#mfa10f1a5d1" y="426.132"/>
      </g>
     </g>
     <g id="text_26">
      <!-- $\mathdefault{300}$ -->
      <g transform="translate(387.962633 440.050498)scale(0.1 -0.1)">
       <use transform="scale(0.996264)" xlink:href="#CMR17-51"/>
       <use transform="translate(45.690477 0)scale(0.996264)" xlink:href="#CMR17-48"/>
       <use transform="translate(91.380954 0)scale(0.996264)" xlink:href="#CMR17-48"/>
      </g>
     </g>
    </g>
    <g id="xtick_14">
     <g id="line2d_34">
      <g>
       <use style="stroke:#000000;stroke-width:0.8;" x="477.486" xlink:href="#mfa10f1a5d1" y="426.132"/>
      </g>
     </g>
     <g id="text_27">
      <!-- $\mathdefault{400}$ -->
      <g transform="translate(470.013997 440.050498)scale(0.1 -0.1)">
       <use transform="scale(0.996264)" xlink:href="#CMR17-52"/>
       <use transform="translate(45.690477 0)scale(0.996264)" xlink:href="#CMR17-48"/>
       <use transform="translate(91.380954 0)scale(0.996264)" xlink:href="#CMR17-48"/>
      </g>
     </g>
    </g>
    <g id="xtick_15">
     <g id="line2d_35">
      <g>
       <use style="stroke:#000000;stroke-width:0.8;" x="559.537364" xlink:href="#mfa10f1a5d1" y="426.132"/>
      </g>
     </g>
     <g id="text_28">
      <!-- $\mathdefault{500}$ -->
      <g transform="translate(552.065361 440.050498)scale(0.1 -0.1)">
       <use transform="scale(0.996264)" xlink:href="#CMR17-53"/>
       <use transform="translate(45.690477 0)scale(0.996264)" xlink:href="#CMR17-48"/>
       <use transform="translate(91.380954 0)scale(0.996264)" xlink:href="#CMR17-48"/>
      </g>
     </g>
    </g>
    <g id="xtick_16">
     <g id="line2d_36">
      <g>
       <use style="stroke:#000000;stroke-width:0.8;" x="641.588727" xlink:href="#mfa10f1a5d1" y="426.132"/>
      </g>
     </g>
     <g id="text_29">
      <!-- $\mathdefault{600}$ -->
      <g transform="translate(634.116724 440.050498)scale(0.1 -0.1)">
       <use transform="scale(0.996264)" xlink:href="#CMR17-54"/>
       <use transform="translate(45.690477 0)scale(0.996264)" xlink:href="#CMR17-48"/>
       <use transform="translate(91.380954 0)scale(0.996264)" xlink:href="#CMR17-48"/>
      </g>
     </g>
    </g>
    <g id="xtick_17">
     <g id="line2d_37">
      <g>
       <use style="stroke:#000000;stroke-width:0.8;" x="723.640091" xlink:href="#mfa10f1a5d1" y="426.132"/>
      </g>
     </g>
     <g id="text_30">
      <!-- $\mathdefault{700}$ -->
      <g transform="translate(716.168088 440.050498)scale(0.1 -0.1)">
       <use transform="scale(0.996264)" xlink:href="#CMR17-55"/>
       <use transform="translate(45.690477 0)scale(0.996264)" xlink:href="#CMR17-48"/>
       <use transform="translate(91.380954 0)scale(0.996264)" xlink:href="#CMR17-48"/>
      </g>
     </g>
    </g>
    <g id="xtick_18">
     <g id="line2d_38">
      <g>
       <use style="stroke:#000000;stroke-width:0.8;" x="805.691455" xlink:href="#mfa10f1a5d1" y="426.132"/>
      </g>
     </g>
     <g id="text_31">
      <!-- $\mathdefault{800}$ -->
      <g transform="translate(798.219452 440.050498)scale(0.1 -0.1)">
       <use transform="scale(0.996264)" xlink:href="#CMR17-56"/>
       <use transform="translate(45.690477 0)scale(0.996264)" xlink:href="#CMR17-48"/>
       <use transform="translate(91.380954 0)scale(0.996264)" xlink:href="#CMR17-48"/>
      </g>
     </g>
    </g>
    <g id="text_32">
     <!-- timestep -->
     <g transform="translate(459.829981 452.906175)scale(0.1 -0.1)">
      <use transform="scale(0.996264)" xlink:href="#CMSS17-116"/>
      <use transform="translate(33.831567 0)scale(0.996264)" xlink:href="#CMSS17-105"/>
      <use transform="translate(56.01229 0)scale(0.996264)" xlink:href="#CMSS17-109"/>
      <use transform="translate(130.241544 0)scale(0.996264)" xlink:href="#CMSS17-101"/>
      <use transform="translate(171.880366 0)scale(0.996264)" xlink:href="#CMSS17-115"/>
      <use transform="translate(207.793908 0)scale(0.996264)" xlink:href="#CMSS17-116"/>
      <use transform="translate(241.625475 0)scale(0.996264)" xlink:href="#CMSS17-101"/>
      <use transform="translate(283.264297 0)scale(0.996264)" xlink:href="#CMSS17-112"/>
     </g>
    </g>
   </g>
   <g id="matplotlib.axis_4">
    <g id="ytick_6">
     <g id="line2d_39">
      <g>
       <use style="stroke:#000000;stroke-width:0.8;" x="116.46" xlink:href="#m23c9679336" y="403.902525"/>
      </g>
     </g>
     <g id="text_33">
      <!-- $\mathdefault{0.4}$ -->
      <g transform="translate(96.729921 407.361774)scale(0.1 -0.1)">
       <use transform="scale(0.996264)" xlink:href="#CMR17-48"/>
       <use transform="translate(45.690477 0)scale(0.996264)" xlink:href="#CMMI12-58"/>
       <use transform="translate(72.787654 0)scale(0.996264)" xlink:href="#CMR17-52"/>
      </g>
     </g>
    </g>
    <g id="ytick_7">
     <g id="line2d_40">
      <g>
       <use style="stroke:#000000;stroke-width:0.8;" x="116.46" xlink:href="#m23c9679336" y="367.558708"/>
      </g>
     </g>
     <g id="text_34">
      <!-- $\mathdefault{0.5}$ -->
      <g transform="translate(96.729921 371.017957)scale(0.1 -0.1)">
       <use transform="scale(0.996264)" xlink:href="#CMR17-48"/>
       <use transform="translate(45.690477 0)scale(0.996264)" xlink:href="#CMMI12-58"/>
       <use transform="translate(72.787654 0)scale(0.996264)" xlink:href="#CMR17-53"/>
      </g>
     </g>
    </g>
    <g id="ytick_8">
     <g id="line2d_41">
      <g>
       <use style="stroke:#000000;stroke-width:0.8;" x="116.46" xlink:href="#m23c9679336" y="331.214891"/>
      </g>
     </g>
     <g id="text_35">
      <!-- $\mathdefault{0.6}$ -->
      <g transform="translate(96.729921 334.67414)scale(0.1 -0.1)">
       <use transform="scale(0.996264)" xlink:href="#CMR17-48"/>
       <use transform="translate(45.690477 0)scale(0.996264)" xlink:href="#CMMI12-58"/>
       <use transform="translate(72.787654 0)scale(0.996264)" xlink:href="#CMR17-54"/>
      </g>
     </g>
    </g>
    <g id="ytick_9">
     <g id="line2d_42">
      <g>
       <use style="stroke:#000000;stroke-width:0.8;" x="116.46" xlink:href="#m23c9679336" y="294.871074"/>
      </g>
     </g>
     <g id="text_36">
      <!-- $\mathdefault{0.7}$ -->
      <g transform="translate(96.729921 298.330324)scale(0.1 -0.1)">
       <use transform="scale(0.996264)" xlink:href="#CMR17-48"/>
       <use transform="translate(45.690477 0)scale(0.996264)" xlink:href="#CMMI12-58"/>
       <use transform="translate(72.787654 0)scale(0.996264)" xlink:href="#CMR17-55"/>
      </g>
     </g>
    </g>
    <g id="text_37">
     <!-- $I_x$ -->
     <g transform="translate(90.792743 346.790604)rotate(-90)scale(0.1 -0.1)">
      <use transform="scale(0.996264)" xlink:href="#CMMI12-73"/>
      <use transform="translate(43.024176 -14.943915)scale(0.697382)" xlink:href="#CMMI12-120"/>
     </g>
    </g>
   </g>
   <g id="line2d_43">
    <path clip-path="url(#p3ab757aba0)" d="M 149.280545 394.80966 
L 153.383114 399.027779 
L 157.485682 397.456221 
L 161.58825 399.690253 
L 165.690818 399.72732 
L 169.793386 399.601859 
L 173.895955 394.82601 
L 177.998523 392.204872 
L 182.101091 388.811436 
L 186.203659 384.799426 
L 190.306227 381.109632 
L 194.408795 377.953588 
L 198.511364 372.049129 
L 202.613932 366.149918 
L 206.7165 364.303603 
L 210.819068 361.707709 
L 214.921636 361.259752 
L 219.024205 357.353886 
L 223.126773 352.451796 
L 227.229341 350.094593 
L 231.331909 346.375516 
L 235.434477 344.038083 
L 239.537045 342.260274 
L 243.639614 338.050509 
L 247.742182 335.24484 
L 251.84475 334.071612 
L 255.947318 333.479765 
L 260.049886 330.803336 
L 264.152455 329.424126 
L 268.255023 328.613875 
L 272.357591 327.959555 
L 276.460159 327.520881 
L 280.562727 326.17033 
L 284.665295 327.003447 
L 288.767864 325.846932 
L 292.870432 325.226295 
L 296.973 322.576882 
L 301.075568 321.287672 
L 305.178136 320.756292 
L 309.280705 319.339 
L 313.383273 316.956287 
L 477.486 314.847153 
L 641.588727 315.781584 
L 805.691455 321.818332 
" style="fill:none;stroke:#ff0000;stroke-linecap:square;stroke-width:1.5;"/>
   </g>
   <g id="line2d_44">
    <path clip-path="url(#p3ab757aba0)" d="M 149.280545 415.969484 
L 153.383114 416.906116 
L 157.485682 418.514727 
L 161.58825 413.540838 
L 165.690818 412.420222 
L 169.793386 412.412079 
L 173.895955 405.958549 
L 177.998523 407.321751 
L 182.101091 403.63852 
L 186.203659 398.848767 
L 190.306227 393.618567 
L 194.408795 388.450691 
L 198.511364 384.320543 
L 202.613932 380.338148 
L 206.7165 378.490247 
L 210.819068 376.973523 
L 214.921636 374.069822 
L 219.024205 369.68802 
L 223.126773 366.299122 
L 227.229341 366.017727 
L 231.331909 363.252932 
L 235.434477 362.332307 
L 239.537045 360.271754 
L 243.639614 358.200405 
L 247.742182 352.818374 
L 251.84475 352.560496 
L 255.947318 351.559849 
L 260.049886 349.408479 
L 264.152455 346.377302 
L 268.255023 348.013859 
L 272.357591 344.351784 
L 276.460159 343.041587 
L 280.562727 341.545728 
L 284.665295 340.64952 
L 288.767864 338.870672 
L 292.870432 339.824563 
L 296.973 339.148105 
L 301.075568 336.796879 
L 305.178136 334.736425 
L 309.280705 332.850947 
L 313.383273 334.300553 
L 477.486 326.981049 
L 641.588727 323.856806 
L 805.691455 318.892262 
" style="fill:none;stroke:#000000;stroke-linecap:square;stroke-width:1.5;"/>
   </g>
   <g id="line2d_45">
    <path clip-path="url(#p3ab757aba0)" d="M 149.280545 414.991143 
L 153.383114 416.01316 
L 157.485682 417.778076 
L 161.58825 412.172661 
L 165.690818 411.336252 
L 169.793386 411.176963 
L 173.895955 404.300335 
L 177.998523 405.40716 
L 182.101091 401.403176 
L 186.203659 396.104264 
L 190.306227 390.279368 
L 194.408795 384.536075 
L 198.511364 379.411603 
L 202.613932 374.534393 
L 206.7165 371.552918 
L 210.819068 368.764731 
L 214.921636 365.187864 
L 219.024205 359.77642 
L 223.126773 355.81016 
L 227.229341 354.568971 
L 231.331909 351.580868 
L 235.434477 350.068306 
L 239.537045 348.500477 
L 243.639614 345.731187 
L 247.742182 340.537825 
L 251.84475 339.098384 
L 255.947318 338.24375 
L 260.049886 335.727592 
L 264.152455 332.008533 
L 268.255023 333.544412 
L 272.357591 329.666603 
L 276.460159 328.09727 
L 280.562727 325.828011 
L 284.665295 325.119625 
L 288.767864 322.923602 
L 292.870432 323.974305 
L 296.973 322.174634 
L 301.075568 319.70855 
L 305.178136 317.483359 
L 309.280705 315.457337 
L 313.383273 316.728423 
L 477.486 300.742551 
L 641.588727 293.85281 
L 805.691455 286.61537 
" style="fill:none;stroke:#000000;stroke-dasharray:5.55,2.4;stroke-dashoffset:0;stroke-width:1.5;"/>
   </g>
   <g id="line2d_46">
    <path clip-path="url(#p3ab757aba0)" d="M 149.280545 411.809914 
L 153.383114 415.858893 
L 157.485682 415.692503 
L 161.58825 418.214848 
L 165.690818 417.739819 
L 169.793386 418.081002 
L 173.895955 414.61579 
L 177.998523 412.179376 
L 182.101091 409.434239 
L 186.203659 407.334102 
L 190.306227 404.189169 
L 194.408795 402.055872 
L 198.511364 396.703824 
L 202.613932 392.466612 
L 206.7165 390.928966 
L 210.819068 387.690119 
L 214.921636 388.344864 
L 219.024205 384.147575 
L 223.126773 379.726802 
L 227.229341 377.951577 
L 231.331909 375.627963 
L 235.434477 373.955343 
L 239.537045 372.855833 
L 243.639614 369.872433 
L 247.742182 367.09541 
L 251.84475 365.615959 
L 255.947318 365.079216 
L 260.049886 362.143143 
L 264.152455 360.73931 
L 268.255023 360.272582 
L 272.357591 359.641981 
L 276.460159 358.863066 
L 280.562727 357.513687 
L 284.665295 358.464027 
L 288.767864 357.796512 
L 292.870432 357.514019 
L 296.973 354.621195 
L 301.075568 353.829725 
L 305.178136 353.348424 
L 309.280705 351.722441 
L 313.383273 349.958026 
L 477.486 349.421791 
L 641.588727 351.383942 
L 805.691455 358.527117 
" style="fill:none;stroke:#0000ff;stroke-linecap:square;stroke-width:1.5;"/>
   </g>
   <g id="line2d_47">
    <path clip-path="url(#p3ab757aba0)" d="M 149.280545 266.169298 
L 153.383114 266.169298 
L 157.485682 266.169273 
L 161.58825 266.169345 
L 165.690818 266.169345 
L 169.793386 266.169298 
L 173.895955 266.169298 
L 177.998523 266.169298 
L 182.101091 266.169298 
L 186.203659 266.169345 
L 190.306227 266.169273 
L 194.408795 266.169298 
L 198.511364 266.16932 
L 202.613932 266.169298 
L 206.7165 266.169298 
L 210.819068 266.169273 
L 214.921636 266.169298 
L 219.024205 266.169273 
L 223.126773 266.169298 
L 227.229341 266.169345 
L 231.331909 266.169298 
L 235.434477 266.169298 
L 239.537045 266.169298 
L 243.639614 266.169298 
L 247.742182 266.169298 
L 251.84475 266.169298 
L 255.947318 266.169298 
L 260.049886 266.169298 
L 264.152455 266.169298 
L 268.255023 266.169298 
L 272.357591 266.169298 
L 276.460159 266.169273 
L 280.562727 266.169298 
L 284.665295 266.169298 
L 288.767864 266.169298 
L 292.870432 266.169345 
L 296.973 266.169298 
L 301.075568 266.169298 
L 305.178136 266.169298 
L 309.280705 266.169298 
L 313.383273 266.169298 
L 477.486 266.169298 
L 641.588727 266.169273 
L 805.691455 266.169298 
" style="fill:none;stroke:#008000;stroke-linecap:square;stroke-width:1.5;"/>
   </g>
   <g id="patch_9">
    <path d="M 116.46 426.132 
L 116.46 258.552 
" style="fill:none;stroke:#000000;stroke-linecap:square;stroke-linejoin:miter;stroke-width:0.8;"/>
   </g>
   <g id="patch_10">
    <path d="M 838.512 426.132 
L 838.512 258.552 
" style="fill:none;stroke:#000000;stroke-linecap:square;stroke-linejoin:miter;stroke-width:0.8;"/>
   </g>
   <g id="patch_11">
    <path d="M 116.46 426.132 
L 838.512 426.132 
" style="fill:none;stroke:#000000;stroke-linecap:square;stroke-linejoin:miter;stroke-width:0.8;"/>
   </g>
   <g id="patch_12">
    <path d="M 116.46 258.552 
L 838.512 258.552 
" style="fill:none;stroke:#000000;stroke-linecap:square;stroke-linejoin:miter;stroke-width:0.8;"/>
   </g>
   <g id="text_38">
    <!-- Map Y -->
    <g transform="translate(460.784934 252.552)scale(0.12 -0.12)">
     <defs>
      <path d="M 62.09375 69 
L 53.5 69 
L 38 44.953125 
C 36.796875 43.046875 33.40625 37.890625 31.796875 35 
L 26.90625 42.859375 
L 10.09375 69 
L 0.296875 69 
L 27.09375 27.640625 
L 27.09375 0 
L 35.296875 0 
L 35.296875 27.546875 
z
" id="CMSS17-89"/>
     </defs>
     <use transform="scale(0.996264)" xlink:href="#CMSS17-77"/>
     <use transform="translate(81.67603 0)scale(0.996264)" xlink:href="#CMSS17-97"/>
     <use transform="translate(126.597951 0)scale(0.996264)" xlink:href="#CMSS17-112"/>
     <use transform="translate(206.032006 0)scale(0.996264)" xlink:href="#CMSS17-89"/>
    </g>
   </g>
   <g id="legend_2">
    <g id="patch_13">
     <path d="M 683.91751 421.132 
L 831.512 421.132 
Q 833.512 421.132 833.512 419.132 
L 833.512 338.44995 
Q 833.512 336.44995 831.512 336.44995 
L 683.91751 336.44995 
Q 681.91751 336.44995 681.91751 338.44995 
L 681.91751 419.132 
Q 681.91751 421.132 683.91751 421.132 
z
" style="fill:#ffffff;opacity:0.8;stroke:#cccccc;stroke-linejoin:miter;"/>
    </g>
    <g id="line2d_48">
     <path d="M 685.91751 345.7957 
L 705.91751 345.7957 
" style="fill:none;stroke:#ff0000;stroke-linecap:square;stroke-width:1.5;"/>
    </g>
    <g id="line2d_49"/>
    <g id="text_39">
     <!-- $I_x(U|\Pi^{(2)})$, CxSOM -->
     <g transform="translate(713.91751 349.2957)scale(0.1 -0.1)">
      <use transform="scale(0.996264)" xlink:href="#CMMI12-73"/>
      <use transform="translate(43.024176 -14.943915)scale(0.697382)" xlink:href="#CMMI12-120"/>
      <use transform="translate(82.325967 0)scale(0.996264)" xlink:href="#CMR17-40"/>
      <use transform="translate(117.606735 0)scale(0.996264)" xlink:href="#CMMI12-85"/>
      <use transform="translate(194.265508 0)scale(0.996264)" xlink:href="#CMSY10-106"/>
      <use transform="translate(221.939592 0)scale(0.996264)" xlink:href="#CMR17-5"/>
      <use transform="translate(291.012022 36.153639)scale(0.697382)" xlink:href="#CMR17-40"/>
      <use transform="translate(315.708443 36.153639)scale(0.697382)" xlink:href="#CMR17-50"/>
      <use transform="translate(347.691625 36.153639)scale(0.697382)" xlink:href="#CMR17-41"/>
      <use transform="translate(372.886177 0)scale(0.996264)" xlink:href="#CMR17-41"/>
      <use transform="translate(408.166945 0)scale(0.996264)" xlink:href="#CMSS17-44"/>
      <use transform="translate(465.420262 0)scale(0.996264)" xlink:href="#CMSS17-67"/>
      <use transform="translate(525.276034 0)scale(0.996264)" xlink:href="#CMSS17-120"/>
      <use transform="translate(568.276176 0)scale(0.996264)" xlink:href="#CMSS17-83"/>
      <use transform="translate(620.324692 0)scale(0.996264)" xlink:href="#CMSS17-79"/>
      <use transform="translate(689.348947 0)scale(0.996264)" xlink:href="#CMSS17-77"/>
     </g>
    </g>
    <g id="line2d_50">
     <path d="M 685.91751 362.13211 
L 705.91751 362.13211 
" style="fill:none;stroke:#000000;stroke-linecap:square;stroke-width:1.5;"/>
    </g>
    <g id="line2d_51"/>
    <g id="text_40">
     <!-- $I_x(U|\Pi^{(2)})$, Carte simple -->
     <g transform="translate(713.91751 365.63211)scale(0.1 -0.1)">
      <use transform="scale(0.996264)" xlink:href="#CMMI12-73"/>
      <use transform="translate(43.024176 -14.943915)scale(0.697382)" xlink:href="#CMMI12-120"/>
      <use transform="translate(82.325967 0)scale(0.996264)" xlink:href="#CMR17-40"/>
      <use transform="translate(117.606735 0)scale(0.996264)" xlink:href="#CMMI12-85"/>
      <use transform="translate(194.265508 0)scale(0.996264)" xlink:href="#CMSY10-106"/>
      <use transform="translate(221.939592 0)scale(0.996264)" xlink:href="#CMR17-5"/>
      <use transform="translate(291.012022 36.153639)scale(0.697382)" xlink:href="#CMR17-40"/>
      <use transform="translate(315.708443 36.153639)scale(0.697382)" xlink:href="#CMR17-50"/>
      <use transform="translate(347.691625 36.153639)scale(0.697382)" xlink:href="#CMR17-41"/>
      <use transform="translate(372.886177 0)scale(0.996264)" xlink:href="#CMR17-41"/>
      <use transform="translate(408.166945 0)scale(0.996264)" xlink:href="#CMSS17-44"/>
      <use transform="translate(465.420262 0)scale(0.996264)" xlink:href="#CMSS17-67"/>
      <use transform="translate(525.276034 0)scale(0.996264)" xlink:href="#CMSS17-97"/>
      <use transform="translate(567.595501 0)scale(0.996264)" xlink:href="#CMSS17-114"/>
      <use transform="translate(599.505273 0)scale(0.996264)" xlink:href="#CMSS17-116"/>
      <use transform="translate(633.33684 0)scale(0.996264)" xlink:href="#CMSS17-101"/>
      <use transform="translate(706.204775 0)scale(0.996264)" xlink:href="#CMSS17-115"/>
      <use transform="translate(742.118317 0)scale(0.996264)" xlink:href="#CMSS17-105"/>
      <use transform="translate(764.29904 0)scale(0.996264)" xlink:href="#CMSS17-109"/>
      <use transform="translate(838.528294 0)scale(0.996264)" xlink:href="#CMSS17-112"/>
      <use transform="translate(886.733237 0)scale(0.996264)" xlink:href="#CMSS17-108"/>
      <use transform="translate(908.91396 0)scale(0.996264)" xlink:href="#CMSS17-101"/>
     </g>
    </g>
    <g id="line2d_52">
     <path d="M 685.91751 378.46852 
L 705.91751 378.46852 
" style="fill:none;stroke:#000000;stroke-dasharray:5.55,2.4;stroke-dashoffset:0;stroke-width:1.5;"/>
    </g>
    <g id="line2d_53"/>
    <g id="text_41">
     <!-- $I_x(X^{(2)}|\Pi^{(1)})$, Carte simple -->
     <g transform="translate(713.91751 381.96852)scale(0.1 -0.1)">
      <use transform="scale(0.996264)" xlink:href="#CMMI12-73"/>
      <use transform="translate(43.024176 -14.943915)scale(0.697382)" xlink:href="#CMMI12-120"/>
      <use transform="translate(82.325967 0)scale(0.996264)" xlink:href="#CMR17-40"/>
      <use transform="translate(117.606735 0)scale(0.996264)" xlink:href="#CMMI12-88"/>
      <use transform="translate(206.399297 36.153639)scale(0.697382)" xlink:href="#CMR17-40"/>
      <use transform="translate(231.095717 36.153639)scale(0.697382)" xlink:href="#CMR17-50"/>
      <use transform="translate(263.078899 36.153639)scale(0.697382)" xlink:href="#CMR17-41"/>
      <use transform="translate(288.273451 0)scale(0.996264)" xlink:href="#CMSY10-106"/>
      <use transform="translate(315.947536 0)scale(0.996264)" xlink:href="#CMR17-5"/>
      <use transform="translate(385.019966 36.153639)scale(0.697382)" xlink:href="#CMR17-40"/>
      <use transform="translate(409.716386 36.153639)scale(0.697382)" xlink:href="#CMR17-49"/>
      <use transform="translate(441.699568 36.153639)scale(0.697382)" xlink:href="#CMR17-41"/>
      <use transform="translate(466.894121 0)scale(0.996264)" xlink:href="#CMR17-41"/>
      <use transform="translate(502.174889 0)scale(0.996264)" xlink:href="#CMSS17-44"/>
      <use transform="translate(559.428206 0)scale(0.996264)" xlink:href="#CMSS17-67"/>
      <use transform="translate(619.283978 0)scale(0.996264)" xlink:href="#CMSS17-97"/>
      <use transform="translate(661.603444 0)scale(0.996264)" xlink:href="#CMSS17-114"/>
      <use transform="translate(693.513217 0)scale(0.996264)" xlink:href="#CMSS17-116"/>
      <use transform="translate(727.344784 0)scale(0.996264)" xlink:href="#CMSS17-101"/>
      <use transform="translate(800.212719 0)scale(0.996264)" xlink:href="#CMSS17-115"/>
      <use transform="translate(836.126261 0)scale(0.996264)" xlink:href="#CMSS17-105"/>
      <use transform="translate(858.306984 0)scale(0.996264)" xlink:href="#CMSS17-109"/>
      <use transform="translate(932.536238 0)scale(0.996264)" xlink:href="#CMSS17-112"/>
      <use transform="translate(980.741181 0)scale(0.996264)" xlink:href="#CMSS17-108"/>
      <use transform="translate(1002.921904 0)scale(0.996264)" xlink:href="#CMSS17-101"/>
     </g>
    </g>
    <g id="line2d_54">
     <path d="M 685.91751 394.80493 
L 705.91751 394.80493 
" style="fill:none;stroke:#0000ff;stroke-linecap:square;stroke-width:1.5;"/>
    </g>
    <g id="line2d_55"/>
    <g id="text_42">
     <!-- $I_x(X^{(2)}|\Pi^{(2)})$, CxSOM -->
     <g transform="translate(713.91751 398.30493)scale(0.1 -0.1)">
      <use transform="scale(0.996264)" xlink:href="#CMMI12-73"/>
      <use transform="translate(43.024176 -14.943915)scale(0.697382)" xlink:href="#CMMI12-120"/>
      <use transform="translate(82.325967 0)scale(0.996264)" xlink:href="#CMR17-40"/>
      <use transform="translate(117.606735 0)scale(0.996264)" xlink:href="#CMMI12-88"/>
      <use transform="translate(206.399297 36.153639)scale(0.697382)" xlink:href="#CMR17-40"/>
      <use transform="translate(231.095717 36.153639)scale(0.697382)" xlink:href="#CMR17-50"/>
      <use transform="translate(263.078899 36.153639)scale(0.697382)" xlink:href="#CMR17-41"/>
      <use transform="translate(288.273451 0)scale(0.996264)" xlink:href="#CMSY10-106"/>
      <use transform="translate(315.947536 0)scale(0.996264)" xlink:href="#CMR17-5"/>
      <use transform="translate(385.019966 36.153639)scale(0.697382)" xlink:href="#CMR17-40"/>
      <use transform="translate(409.716386 36.153639)scale(0.697382)" xlink:href="#CMR17-50"/>
      <use transform="translate(441.699568 36.153639)scale(0.697382)" xlink:href="#CMR17-41"/>
      <use transform="translate(466.894121 0)scale(0.996264)" xlink:href="#CMR17-41"/>
      <use transform="translate(502.174889 0)scale(0.996264)" xlink:href="#CMSS17-44"/>
      <use transform="translate(559.428206 0)scale(0.996264)" xlink:href="#CMSS17-67"/>
      <use transform="translate(619.283978 0)scale(0.996264)" xlink:href="#CMSS17-120"/>
      <use transform="translate(662.284119 0)scale(0.996264)" xlink:href="#CMSS17-83"/>
      <use transform="translate(714.332636 0)scale(0.996264)" xlink:href="#CMSS17-79"/>
      <use transform="translate(783.356891 0)scale(0.996264)" xlink:href="#CMSS17-77"/>
     </g>
    </g>
    <g id="line2d_56">
     <path d="M 685.91751 411.14134 
L 705.91751 411.14134 
" style="fill:none;stroke:#008000;stroke-linecap:square;stroke-width:1.5;"/>
    </g>
    <g id="line2d_57"/>
    <g id="text_43">
     <!-- $I_x(U|X^{(2)})$ -->
     <g transform="translate(713.91751 414.64134)scale(0.1 -0.1)">
      <use transform="scale(0.996264)" xlink:href="#CMMI12-73"/>
      <use transform="translate(43.024176 -14.943915)scale(0.697382)" xlink:href="#CMMI12-120"/>
      <use transform="translate(82.325967 0)scale(0.996264)" xlink:href="#CMR17-40"/>
      <use transform="translate(117.606735 0)scale(0.996264)" xlink:href="#CMMI12-85"/>
      <use transform="translate(194.265508 0)scale(0.996264)" xlink:href="#CMSY10-106"/>
      <use transform="translate(221.939592 0)scale(0.996264)" xlink:href="#CMMI12-88"/>
      <use transform="translate(310.732154 36.153639)scale(0.697382)" xlink:href="#CMR17-40"/>
      <use transform="translate(335.428575 36.153639)scale(0.697382)" xlink:href="#CMR17-50"/>
      <use transform="translate(367.411757 36.153639)scale(0.697382)" xlink:href="#CMR17-41"/>
      <use transform="translate(392.606309 0)scale(0.996264)" xlink:href="#CMR17-41"/>
     </g>
    </g>
   </g>
  </g>
 </g>
 <defs>
  <clipPath id="p6d9ffe4f45">
   <rect height="167.58" width="722.052" x="116.46" y="57.456"/>
  </clipPath>
  <clipPath id="p3ab757aba0">
   <rect height="167.58" width="722.052" x="116.46" y="258.552"/>
  </clipPath>
 </defs>
</svg>
