<?xml version="1.0" encoding="utf-8" standalone="no"?>
<!DOCTYPE svg PUBLIC "-//W3C//DTD SVG 1.1//EN"
  "http://www.w3.org/Graphics/SVG/1.1/DTD/svg11.dtd">
<svg xmlns:xlink="http://www.w3.org/1999/xlink" width="667.44pt" height="465.84pt" viewBox="0 0 667.44 465.84" xmlns="http://www.w3.org/2000/svg" version="1.1">
 <metadata>
  <rdf:RDF xmlns:dc="http://purl.org/dc/elements/1.1/" xmlns:cc="http://creativecommons.org/ns#" xmlns:rdf="http://www.w3.org/1999/02/22-rdf-syntax-ns#">
   <cc:Work>
    <dc:type rdf:resource="http://purl.org/dc/dcmitype/StillImage"/>
    <dc:date>2023-01-10T15:18:16.006211</dc:date>
    <dc:format>image/svg+xml</dc:format>
    <dc:creator>
     <cc:Agent>
      <dc:title>Matplotlib v3.6.2, https://matplotlib.org/</dc:title>
     </cc:Agent>
    </dc:creator>
   </cc:Work>
  </rdf:RDF>
 </metadata>
 <defs>
  <style type="text/css">*{stroke-linejoin: round; stroke-linecap: butt}</style>
 </defs>
 <g id="figure_1">
  <g id="patch_1">
   <path d="M 0 465.84 
L 667.44 465.84 
L 667.44 0 
L 0 0 
z
" style="fill: #ffffff"/>
  </g>
  <g id="axes_1">
   <g id="patch_2">
    <path d="M 39.94 210.44 
L 649.662034 210.44 
L 649.662034 29.832 
L 39.94 29.832 
z
" style="fill: #ffffff"/>
   </g>
   <g id="matplotlib.axis_1">
    <g id="xtick_1">
     <g id="line2d_1">
      <defs>
       <path id="m66a267a5bc" d="M 0 0 
L 0 3.5 
" style="stroke: #000000; stroke-width: 0.8"/>
      </defs>
      <g>
       <use xlink:href="#m66a267a5bc" x="61.880755" y="210.44" style="stroke: #000000; stroke-width: 0.8"/>
      </g>
     </g>
     <g id="text_1">
      <!-- 0 -->
      <g transform="translate(58.699505 225.038438) scale(0.1 -0.1)">
       <defs>
        <path id="DejaVuSans-30" d="M 2034 4250 
Q 1547 4250 1301 3770 
Q 1056 3291 1056 2328 
Q 1056 1369 1301 889 
Q 1547 409 2034 409 
Q 2525 409 2770 889 
Q 3016 1369 3016 2328 
Q 3016 3291 2770 3770 
Q 2525 4250 2034 4250 
z
M 2034 4750 
Q 2819 4750 3233 4129 
Q 3647 3509 3647 2328 
Q 3647 1150 3233 529 
Q 2819 -91 2034 -91 
Q 1250 -91 836 529 
Q 422 1150 422 2328 
Q 422 3509 836 4129 
Q 1250 4750 2034 4750 
z
" transform="scale(0.015625)"/>
       </defs>
       <use xlink:href="#DejaVuSans-30"/>
      </g>
     </g>
    </g>
    <g id="xtick_2">
     <g id="line2d_2">
      <g>
       <use xlink:href="#m66a267a5bc" x="177.358413" y="210.44" style="stroke: #000000; stroke-width: 0.8"/>
      </g>
     </g>
     <g id="text_2">
      <!-- 2000 -->
      <g transform="translate(164.633413 225.038438) scale(0.1 -0.1)">
       <defs>
        <path id="DejaVuSans-32" d="M 1228 531 
L 3431 531 
L 3431 0 
L 469 0 
L 469 531 
Q 828 903 1448 1529 
Q 2069 2156 2228 2338 
Q 2531 2678 2651 2914 
Q 2772 3150 2772 3378 
Q 2772 3750 2511 3984 
Q 2250 4219 1831 4219 
Q 1534 4219 1204 4116 
Q 875 4013 500 3803 
L 500 4441 
Q 881 4594 1212 4672 
Q 1544 4750 1819 4750 
Q 2544 4750 2975 4387 
Q 3406 4025 3406 3419 
Q 3406 3131 3298 2873 
Q 3191 2616 2906 2266 
Q 2828 2175 2409 1742 
Q 1991 1309 1228 531 
z
" transform="scale(0.015625)"/>
       </defs>
       <use xlink:href="#DejaVuSans-32"/>
       <use xlink:href="#DejaVuSans-30" x="63.623047"/>
       <use xlink:href="#DejaVuSans-30" x="127.246094"/>
       <use xlink:href="#DejaVuSans-30" x="190.869141"/>
      </g>
     </g>
    </g>
    <g id="xtick_3">
     <g id="line2d_3">
      <g>
       <use xlink:href="#m66a267a5bc" x="292.836071" y="210.44" style="stroke: #000000; stroke-width: 0.8"/>
      </g>
     </g>
     <g id="text_3">
      <!-- 4000 -->
      <g transform="translate(280.111071 225.038438) scale(0.1 -0.1)">
       <defs>
        <path id="DejaVuSans-34" d="M 2419 4116 
L 825 1625 
L 2419 1625 
L 2419 4116 
z
M 2253 4666 
L 3047 4666 
L 3047 1625 
L 3713 1625 
L 3713 1100 
L 3047 1100 
L 3047 0 
L 2419 0 
L 2419 1100 
L 313 1100 
L 313 1709 
L 2253 4666 
z
" transform="scale(0.015625)"/>
       </defs>
       <use xlink:href="#DejaVuSans-34"/>
       <use xlink:href="#DejaVuSans-30" x="63.623047"/>
       <use xlink:href="#DejaVuSans-30" x="127.246094"/>
       <use xlink:href="#DejaVuSans-30" x="190.869141"/>
      </g>
     </g>
    </g>
    <g id="xtick_4">
     <g id="line2d_4">
      <g>
       <use xlink:href="#m66a267a5bc" x="408.313729" y="210.44" style="stroke: #000000; stroke-width: 0.8"/>
      </g>
     </g>
     <g id="text_4">
      <!-- 6000 -->
      <g transform="translate(395.588729 225.038438) scale(0.1 -0.1)">
       <defs>
        <path id="DejaVuSans-36" d="M 2113 2584 
Q 1688 2584 1439 2293 
Q 1191 2003 1191 1497 
Q 1191 994 1439 701 
Q 1688 409 2113 409 
Q 2538 409 2786 701 
Q 3034 994 3034 1497 
Q 3034 2003 2786 2293 
Q 2538 2584 2113 2584 
z
M 3366 4563 
L 3366 3988 
Q 3128 4100 2886 4159 
Q 2644 4219 2406 4219 
Q 1781 4219 1451 3797 
Q 1122 3375 1075 2522 
Q 1259 2794 1537 2939 
Q 1816 3084 2150 3084 
Q 2853 3084 3261 2657 
Q 3669 2231 3669 1497 
Q 3669 778 3244 343 
Q 2819 -91 2113 -91 
Q 1303 -91 875 529 
Q 447 1150 447 2328 
Q 447 3434 972 4092 
Q 1497 4750 2381 4750 
Q 2619 4750 2861 4703 
Q 3103 4656 3366 4563 
z
" transform="scale(0.015625)"/>
       </defs>
       <use xlink:href="#DejaVuSans-36"/>
       <use xlink:href="#DejaVuSans-30" x="63.623047"/>
       <use xlink:href="#DejaVuSans-30" x="127.246094"/>
       <use xlink:href="#DejaVuSans-30" x="190.869141"/>
      </g>
     </g>
    </g>
    <g id="xtick_5">
     <g id="line2d_5">
      <g>
       <use xlink:href="#m66a267a5bc" x="523.791387" y="210.44" style="stroke: #000000; stroke-width: 0.8"/>
      </g>
     </g>
     <g id="text_5">
      <!-- 8000 -->
      <g transform="translate(511.066387 225.038438) scale(0.1 -0.1)">
       <defs>
        <path id="DejaVuSans-38" d="M 2034 2216 
Q 1584 2216 1326 1975 
Q 1069 1734 1069 1313 
Q 1069 891 1326 650 
Q 1584 409 2034 409 
Q 2484 409 2743 651 
Q 3003 894 3003 1313 
Q 3003 1734 2745 1975 
Q 2488 2216 2034 2216 
z
M 1403 2484 
Q 997 2584 770 2862 
Q 544 3141 544 3541 
Q 544 4100 942 4425 
Q 1341 4750 2034 4750 
Q 2731 4750 3128 4425 
Q 3525 4100 3525 3541 
Q 3525 3141 3298 2862 
Q 3072 2584 2669 2484 
Q 3125 2378 3379 2068 
Q 3634 1759 3634 1313 
Q 3634 634 3220 271 
Q 2806 -91 2034 -91 
Q 1263 -91 848 271 
Q 434 634 434 1313 
Q 434 1759 690 2068 
Q 947 2378 1403 2484 
z
M 1172 3481 
Q 1172 3119 1398 2916 
Q 1625 2713 2034 2713 
Q 2441 2713 2670 2916 
Q 2900 3119 2900 3481 
Q 2900 3844 2670 4047 
Q 2441 4250 2034 4250 
Q 1625 4250 1398 4047 
Q 1172 3844 1172 3481 
z
" transform="scale(0.015625)"/>
       </defs>
       <use xlink:href="#DejaVuSans-38"/>
       <use xlink:href="#DejaVuSans-30" x="63.623047"/>
       <use xlink:href="#DejaVuSans-30" x="127.246094"/>
       <use xlink:href="#DejaVuSans-30" x="190.869141"/>
      </g>
     </g>
    </g>
    <g id="xtick_6">
     <g id="line2d_6">
      <g>
       <use xlink:href="#m66a267a5bc" x="639.269045" y="210.44" style="stroke: #000000; stroke-width: 0.8"/>
      </g>
     </g>
     <g id="text_6">
      <!-- 10000 -->
      <g transform="translate(623.362795 225.038438) scale(0.1 -0.1)">
       <defs>
        <path id="DejaVuSans-31" d="M 794 531 
L 1825 531 
L 1825 4091 
L 703 3866 
L 703 4441 
L 1819 4666 
L 2450 4666 
L 2450 531 
L 3481 531 
L 3481 0 
L 794 0 
L 794 531 
z
" transform="scale(0.015625)"/>
       </defs>
       <use xlink:href="#DejaVuSans-31"/>
       <use xlink:href="#DejaVuSans-30" x="63.623047"/>
       <use xlink:href="#DejaVuSans-30" x="127.246094"/>
       <use xlink:href="#DejaVuSans-30" x="190.869141"/>
       <use xlink:href="#DejaVuSans-30" x="254.492188"/>
      </g>
     </g>
    </g>
   </g>
   <g id="matplotlib.axis_2">
    <g id="ytick_1">
     <g id="line2d_7">
      <defs>
       <path id="mcdb39c1eac" d="M 0 0 
L -3.5 0 
" style="stroke: #000000; stroke-width: 0.8"/>
      </defs>
      <g>
       <use xlink:href="#mcdb39c1eac" x="39.94" y="203.944576" style="stroke: #000000; stroke-width: 0.8"/>
      </g>
     </g>
     <g id="text_7">
      <!-- 0.00 -->
      <g transform="translate(10.674375 207.743794) scale(0.1 -0.1)">
       <defs>
        <path id="DejaVuSans-2e" d="M 684 794 
L 1344 794 
L 1344 0 
L 684 0 
L 684 794 
z
" transform="scale(0.015625)"/>
       </defs>
       <use xlink:href="#DejaVuSans-30"/>
       <use xlink:href="#DejaVuSans-2e" x="63.623047"/>
       <use xlink:href="#DejaVuSans-30" x="95.410156"/>
       <use xlink:href="#DejaVuSans-30" x="159.033203"/>
      </g>
     </g>
    </g>
    <g id="ytick_2">
     <g id="line2d_8">
      <g>
       <use xlink:href="#mcdb39c1eac" x="39.94" y="170.202771" style="stroke: #000000; stroke-width: 0.8"/>
      </g>
     </g>
     <g id="text_8">
      <!-- 0.05 -->
      <g transform="translate(10.674375 174.00199) scale(0.1 -0.1)">
       <defs>
        <path id="DejaVuSans-35" d="M 691 4666 
L 3169 4666 
L 3169 4134 
L 1269 4134 
L 1269 2991 
Q 1406 3038 1543 3061 
Q 1681 3084 1819 3084 
Q 2600 3084 3056 2656 
Q 3513 2228 3513 1497 
Q 3513 744 3044 326 
Q 2575 -91 1722 -91 
Q 1428 -91 1123 -41 
Q 819 9 494 109 
L 494 744 
Q 775 591 1075 516 
Q 1375 441 1709 441 
Q 2250 441 2565 725 
Q 2881 1009 2881 1497 
Q 2881 1984 2565 2268 
Q 2250 2553 1709 2553 
Q 1456 2553 1204 2497 
Q 953 2441 691 2322 
L 691 4666 
z
" transform="scale(0.015625)"/>
       </defs>
       <use xlink:href="#DejaVuSans-30"/>
       <use xlink:href="#DejaVuSans-2e" x="63.623047"/>
       <use xlink:href="#DejaVuSans-30" x="95.410156"/>
       <use xlink:href="#DejaVuSans-35" x="159.033203"/>
      </g>
     </g>
    </g>
    <g id="ytick_3">
     <g id="line2d_9">
      <g>
       <use xlink:href="#mcdb39c1eac" x="39.94" y="136.460966" style="stroke: #000000; stroke-width: 0.8"/>
      </g>
     </g>
     <g id="text_9">
      <!-- 0.10 -->
      <g transform="translate(10.674375 140.260185) scale(0.1 -0.1)">
       <use xlink:href="#DejaVuSans-30"/>
       <use xlink:href="#DejaVuSans-2e" x="63.623047"/>
       <use xlink:href="#DejaVuSans-31" x="95.410156"/>
       <use xlink:href="#DejaVuSans-30" x="159.033203"/>
      </g>
     </g>
    </g>
    <g id="ytick_4">
     <g id="line2d_10">
      <g>
       <use xlink:href="#mcdb39c1eac" x="39.94" y="102.719161" style="stroke: #000000; stroke-width: 0.8"/>
      </g>
     </g>
     <g id="text_10">
      <!-- 0.15 -->
      <g transform="translate(10.674375 106.51838) scale(0.1 -0.1)">
       <use xlink:href="#DejaVuSans-30"/>
       <use xlink:href="#DejaVuSans-2e" x="63.623047"/>
       <use xlink:href="#DejaVuSans-31" x="95.410156"/>
       <use xlink:href="#DejaVuSans-35" x="159.033203"/>
      </g>
     </g>
    </g>
    <g id="ytick_5">
     <g id="line2d_11">
      <g>
       <use xlink:href="#mcdb39c1eac" x="39.94" y="68.977357" style="stroke: #000000; stroke-width: 0.8"/>
      </g>
     </g>
     <g id="text_11">
      <!-- 0.20 -->
      <g transform="translate(10.674375 72.776576) scale(0.1 -0.1)">
       <use xlink:href="#DejaVuSans-30"/>
       <use xlink:href="#DejaVuSans-2e" x="63.623047"/>
       <use xlink:href="#DejaVuSans-32" x="95.410156"/>
       <use xlink:href="#DejaVuSans-30" x="159.033203"/>
      </g>
     </g>
    </g>
    <g id="ytick_6">
     <g id="line2d_12">
      <g>
       <use xlink:href="#mcdb39c1eac" x="39.94" y="35.235552" style="stroke: #000000; stroke-width: 0.8"/>
      </g>
     </g>
     <g id="text_12">
      <!-- 0.25 -->
      <g transform="translate(10.674375 39.034771) scale(0.1 -0.1)">
       <use xlink:href="#DejaVuSans-30"/>
       <use xlink:href="#DejaVuSans-2e" x="63.623047"/>
       <use xlink:href="#DejaVuSans-32" x="95.410156"/>
       <use xlink:href="#DejaVuSans-35" x="159.033203"/>
      </g>
     </g>
    </g>
   </g>
   <g id="line2d_13">
    <path d="M 67.654638 179.063282 
L 73.428521 180.890256 
L 79.202404 184.043257 
L 84.976287 186.84335 
L 90.75017 188.048239 
L 96.524052 190.050744 
L 102.297935 190.494932 
L 108.071818 191.853772 
L 113.845701 192.464906 
L 119.619584 193.52956 
L 125.393467 193.381422 
L 131.16735 194.328502 
L 136.941233 194.246791 
L 142.715116 194.643332 
L 148.488998 194.78722 
L 154.262881 195.252919 
L 160.036764 195.348035 
L 165.810647 196.045933 
L 171.58453 196.224206 
L 177.358413 196.132675 
L 183.132296 197.121002 
L 188.906179 196.936931 
L 194.680062 197.308205 
L 200.453945 197.612356 
L 206.227827 197.846088 
L 212.00171 197.800129 
L 217.775593 198.04489 
L 223.549476 197.78797 
L 229.323359 198.152894 
L 235.097242 197.844168 
L 240.871125 198.483932 
L 246.645008 198.619471 
L 252.418891 198.612318 
L 258.192774 198.442614 
L 263.966656 199.105176 
L 269.740539 198.682475 
L 275.514422 198.897884 
L 281.288305 199.0746 
L 287.062188 199.345415 
L 292.836071 199.460608 
L 298.609954 200.022339 
L 304.383837 199.469762 
L 310.15772 200.159255 
L 315.931603 199.792792 
L 321.705485 199.785705 
L 327.479368 200.311188 
L 333.253251 200.099958 
L 339.027134 200.26505 
L 344.801017 200.049749 
L 350.5749 200.540272 
L 356.348783 200.427368 
L 362.122666 200.479216 
L 367.896549 200.983637 
L 373.670432 201.040383 
L 379.444314 201.173949 
L 385.218197 200.976278 
L 390.99208 201.27553 
L 396.765963 201.325482 
L 402.539846 201.008934 
L 408.313729 201.328507 
L 414.087612 201.339607 
L 419.861495 201.65584 
L 425.635378 201.216584 
L 431.409261 201.590036 
L 437.183143 201.410009 
L 442.957026 201.549286 
L 448.730909 201.649194 
L 454.504792 201.557079 
L 460.278675 201.628881 
L 466.052558 201.724588 
L 471.826441 201.904588 
L 477.600324 201.563857 
L 483.374207 201.507294 
L 489.14809 201.690774 
L 494.921972 201.970575 
L 500.695855 201.875706 
L 506.469738 201.89417 
L 512.243621 202.059272 
L 518.017504 201.884104 
L 523.791387 201.830381 
L 529.56527 201.97819 
L 535.339153 201.924207 
L 541.113036 201.976844 
L 546.886918 202.091563 
L 552.660801 201.77649 
L 558.434684 201.992782 
L 564.208567 202.041874 
L 569.98245 202.105301 
L 575.756333 201.906079 
L 581.530216 202.028224 
L 587.304099 201.926781 
L 593.077982 202.044334 
L 598.851865 202.070625 
L 604.625747 202.068643 
L 610.39963 201.996065 
L 616.173513 202.147597 
L 621.947396 202.230545 
" clip-path="url(#pb5c46fc98e)" style="fill: none; stroke: #1f77b4; stroke-width: 1.5; stroke-linecap: square"/>
   </g>
   <g id="line2d_14">
    <path d="M 67.654638 38.041455 
L 73.428521 164.247872 
L 79.202404 180.607564 
L 84.976287 183.615165 
L 90.75017 184.468852 
L 96.524052 189.196003 
L 102.297935 189.499326 
L 108.071818 189.022385 
L 113.845701 191.955022 
L 119.619584 189.523441 
L 125.393467 190.421438 
L 131.16735 192.353474 
L 136.941233 190.515768 
L 142.715116 190.697151 
L 148.488998 191.606263 
L 154.262881 193.005193 
L 160.036764 191.393359 
L 165.810647 194.310061 
L 171.58453 193.845489 
L 177.358413 193.441177 
L 183.132296 193.201868 
L 188.906179 194.644386 
L 194.680062 192.972191 
L 200.453945 194.325469 
L 206.227827 192.768547 
L 212.00171 194.133926 
L 217.775593 193.266955 
L 223.549476 194.105914 
L 229.323359 194.461987 
L 235.097242 194.265457 
L 240.871125 194.516578 
L 246.645008 194.135284 
L 252.418891 193.932393 
L 258.192774 196.359977 
L 263.966656 193.993147 
L 269.740539 194.342258 
L 275.514422 193.627252 
L 281.288305 195.379512 
L 287.062188 193.881901 
L 292.836071 194.079682 
L 298.609954 194.18437 
L 304.383837 193.818221 
L 310.15772 194.490918 
L 315.931603 194.094884 
L 321.705485 194.496195 
L 327.479368 193.174754 
L 333.253251 193.705764 
L 339.027134 193.761301 
L 344.801017 195.179013 
L 350.5749 195.545846 
L 356.348783 195.074853 
L 362.122666 194.959602 
L 367.896549 196.279015 
L 373.670432 194.548041 
L 379.444314 194.684526 
L 385.218197 195.846329 
L 390.99208 193.97124 
L 396.765963 194.898841 
L 402.539846 194.346657 
L 408.313729 194.742249 
L 414.087612 196.638823 
L 419.861495 195.44643 
L 425.635378 193.962126 
L 431.409261 195.811799 
L 437.183143 194.056275 
L 442.957026 193.494642 
L 448.730909 193.793447 
L 454.504792 193.508206 
L 460.278675 193.819153 
L 466.052558 195.574881 
L 471.826441 194.209263 
L 477.600324 194.202589 
L 483.374207 192.885047 
L 489.14809 193.458437 
L 494.921972 194.513679 
L 500.695855 195.163689 
L 506.469738 195.116915 
L 512.243621 192.742614 
L 518.017504 194.07417 
L 523.791387 194.651139 
L 529.56527 194.047969 
L 535.339153 194.909785 
L 541.113036 194.97407 
L 546.886918 194.327865 
L 552.660801 192.980635 
L 558.434684 193.650146 
L 564.208567 193.880601 
L 569.98245 195.605839 
L 575.756333 194.819929 
L 581.530216 194.509164 
L 587.304099 195.578205 
L 593.077982 195.288002 
L 598.851865 195.335348 
L 604.625747 195.433429 
L 610.39963 195.867621 
L 616.173513 195.16225 
L 621.947396 195.235532 
" clip-path="url(#pb5c46fc98e)" style="fill: none; stroke: #ff7f0e; stroke-width: 1.5; stroke-linecap: square"/>
   </g>
   <g id="patch_3">
    <path d="M 39.94 210.44 
L 39.94 29.832 
" style="fill: none; stroke: #000000; stroke-width: 0.8; stroke-linejoin: miter; stroke-linecap: square"/>
   </g>
   <g id="patch_4">
    <path d="M 649.662034 210.44 
L 649.662034 29.832 
" style="fill: none; stroke: #000000; stroke-width: 0.8; stroke-linejoin: miter; stroke-linecap: square"/>
   </g>
   <g id="patch_5">
    <path d="M 39.94 210.44 
L 649.662034 210.44 
" style="fill: none; stroke: #000000; stroke-width: 0.8; stroke-linejoin: miter; stroke-linecap: square"/>
   </g>
   <g id="patch_6">
    <path d="M 39.94 29.832 
L 649.662034 29.832 
" style="fill: none; stroke: #000000; stroke-width: 0.8; stroke-linejoin: miter; stroke-linecap: square"/>
   </g>
   <g id="text_13">
    <!-- $\omega_e, M^0$ -->
    <g transform="translate(325.481017 23.832) scale(0.12 -0.12)">
     <defs>
      <path id="DejaVuSans-Oblique-3c9" d="M 1369 -91 
Q 72 -91 434 1766 
Q 575 2500 1256 3500 
L 1875 3500 
Q 1231 2500 1088 1750 
Q 819 397 1519 397 
Q 2166 397 2478 2078 
L 3009 2078 
Q 2669 388 3316 397 
Q 4013 403 4275 1750 
Q 4419 2500 4169 3500 
L 4788 3500 
Q 5075 2500 4934 1766 
Q 4578 -94 3278 -91 
Q 2428 -88 2503 844 
Q 2194 -91 1369 -91 
z
" transform="scale(0.015625)"/>
      <path id="DejaVuSans-Oblique-65" d="M 3078 2063 
Q 3088 2113 3092 2166 
Q 3097 2219 3097 2272 
Q 3097 2653 2873 2875 
Q 2650 3097 2266 3097 
Q 1838 3097 1509 2826 
Q 1181 2556 1013 2059 
L 3078 2063 
z
M 3578 1613 
L 903 1613 
Q 884 1494 878 1425 
Q 872 1356 872 1306 
Q 872 872 1139 634 
Q 1406 397 1894 397 
Q 2269 397 2603 481 
Q 2938 566 3225 728 
L 3116 159 
Q 2806 34 2476 -28 
Q 2147 -91 1806 -91 
Q 1078 -91 686 257 
Q 294 606 294 1247 
Q 294 1794 489 2264 
Q 684 2734 1063 3103 
Q 1306 3334 1642 3459 
Q 1978 3584 2356 3584 
Q 2950 3584 3301 3228 
Q 3653 2872 3653 2272 
Q 3653 2128 3634 1964 
Q 3616 1800 3578 1613 
z
" transform="scale(0.015625)"/>
      <path id="DejaVuSans-2c" d="M 750 794 
L 1409 794 
L 1409 256 
L 897 -744 
L 494 -744 
L 750 256 
L 750 794 
z
" transform="scale(0.015625)"/>
      <path id="DejaVuSans-Oblique-4d" d="M 1081 4666 
L 2028 4666 
L 2572 1522 
L 4378 4666 
L 5350 4666 
L 4441 0 
L 3828 0 
L 4622 4091 
L 2791 897 
L 2175 897 
L 1581 4103 
L 788 0 
L 172 0 
L 1081 4666 
z
" transform="scale(0.015625)"/>
     </defs>
     <use xlink:href="#DejaVuSans-Oblique-3c9" transform="translate(0 0.765625)"/>
     <use xlink:href="#DejaVuSans-Oblique-65" transform="translate(83.740234 -15.640625) scale(0.7)"/>
     <use xlink:href="#DejaVuSans-2c" transform="translate(129.541016 0.765625)"/>
     <use xlink:href="#DejaVuSans-Oblique-4d" transform="translate(180.810547 0.765625)"/>
     <use xlink:href="#DejaVuSans-30" transform="translate(274.106615 39.046875) scale(0.7)"/>
    </g>
   </g>
   <g id="legend_1">
    <g id="patch_7">
     <path d="M 573.246693 65.706357 
L 642.662034 65.706357 
Q 644.662034 65.706357 644.662034 63.706357 
L 644.662034 36.832 
Q 644.662034 34.832 642.662034 34.832 
L 573.246693 34.832 
Q 571.246693 34.832 571.246693 36.832 
L 571.246693 63.706357 
Q 571.246693 65.706357 573.246693 65.706357 
z
" style="fill: #ffffff; opacity: 0.8; stroke: #cccccc; stroke-linejoin: miter"/>
    </g>
    <g id="line2d_15">
     <path d="M 575.246693 42.332 
L 585.246693 42.332 
L 595.246693 42.332 
" style="fill: none; stroke: #1f77b4; stroke-width: 1.5; stroke-linecap: square"/>
    </g>
    <g id="text_14">
     <!-- Wc-0.var -->
     <g transform="translate(603.246693 45.832) scale(0.1 -0.1)">
      <defs>
       <path id="CMSS17-57" d="M 5581 4416 
L 5094 4416 
L 4557 2437 
C 4474 2118 4397 1801 4320 1482 
C 4205 1011 4122 681 4109 515 
L 4102 515 
C 4090 687 4006 1049 3904 1457 
C 3827 1795 3744 2131 3654 2462 
L 3123 4416 
L 2586 4416 
L 2080 2562 
L 1824 1549 
C 1632 747 1626 632 1613 505 
L 1606 505 
C 1606 543 1581 753 1402 1498 
C 1312 1868 1222 2244 1126 2601 
L 634 4416 
L 83 4416 
L 1299 0 
L 1830 0 
L 2336 1839 
L 2592 2851 
C 2765 3564 2803 3742 2816 3901 
L 2822 3901 
C 2822 3876 2880 3474 3130 2545 
L 3808 0 
L 4365 0 
L 5581 4416 
z
" transform="scale(0.015625)"/>
       <path id="CMSS17-63" d="M 2464 2541 
C 2464 2585 2170 2714 2093 2739 
C 1882 2816 1613 2816 1542 2816 
C 710 2816 211 2093 211 1363 
C 211 595 768 -64 1517 -64 
C 1946 -64 2253 76 2502 242 
L 2464 664 
C 2189 453 1869 337 1523 337 
C 1024 337 698 774 698 1369 
C 698 1831 909 2414 1549 2414 
C 1901 2414 2099 2343 2394 2145 
L 2464 2541 
z
" transform="scale(0.015625)"/>
       <path id="CMSS17-2d" d="M 1664 1216 
L 1664 1585 
L 64 1585 
L 64 1216 
L 1664 1216 
z
" transform="scale(0.015625)"/>
       <path id="CMSS17-30" d="M 2758 2044 
C 2758 2405 2752 3077 2490 3596 
C 2227 4096 1805 4229 1504 4229 
C 1069 4229 698 3975 506 3570 
C 301 3146 243 2709 243 2044 
C 243 1589 262 1031 493 543 
C 755 5 1197 -128 1498 -128 
C 1894 -128 2278 81 2496 518 
C 2720 974 2758 1474 2758 2044 
z
M 1498 261 
C 1011 261 864 811 819 995 
C 742 1310 730 1614 730 2114 
C 730 2506 730 2948 851 3297 
C 998 3701 1254 3840 1498 3840 
C 1971 3840 2125 3372 2176 3208 
C 2272 2873 2272 2481 2272 2114 
C 2272 1526 2272 261 1498 261 
z
" transform="scale(0.015625)"/>
       <path id="CMSS17-2e" d="M 1088 510 
L 576 510 
L 576 0 
L 1088 0 
L 1088 510 
z
" transform="scale(0.015625)"/>
       <path id="CMSS17-76" d="M 2675 2752 
L 2176 2752 
L 1747 1556 
C 1613 1165 1421 627 1389 352 
L 1382 352 
C 1370 468 1318 634 1286 749 
C 1248 890 1197 1056 1158 1172 
L 595 2752 
L 83 2752 
L 1094 0 
L 1664 0 
L 2675 2752 
z
" transform="scale(0.015625)"/>
       <path id="CMSS17-61" d="M 2406 1791 
C 2406 2392 1978 2808 1402 2808 
C 1120 2808 813 2757 461 2553 
L 499 2135 
C 659 2248 934 2432 1395 2432 
C 1722 2432 1920 2180 1920 1782 
L 1920 1536 
C 896 1536 256 1238 256 726 
C 256 461 416 -64 947 -64 
C 1043 -64 1562 -64 1933 217 
L 1933 -19 
L 2406 -19 
L 2406 1791 
z
M 1920 816 
C 1920 701 1920 548 1728 434 
C 1562 325 1350 325 1261 325 
C 941 325 723 511 723 744 
C 723 1211 1722 1211 1920 1211 
L 1920 816 
z
" transform="scale(0.015625)"/>
       <path id="CMSS17-72" d="M 954 1363 
C 954 1965 1395 2368 1958 2368 
L 1958 2789 
C 1549 2789 1165 2585 934 2253 
L 934 2758 
L 480 2758 
L 480 0 
L 954 0 
L 954 1363 
z
" transform="scale(0.015625)"/>
      </defs>
      <use xlink:href="#CMSS17-57" transform="scale(0.996264)"/>
      <use xlink:href="#CMSS17-63" transform="translate(88.242166 0) scale(0.996264)"/>
      <use xlink:href="#CMSS17-2d" transform="translate(129.880988 0) scale(0.996264)"/>
      <use xlink:href="#CMSS17-30" transform="translate(161.110101 0) scale(0.996264)"/>
      <use xlink:href="#CMSS17-2e" transform="translate(207.953725 0) scale(0.996264)"/>
      <use xlink:href="#CMSS17-76" transform="translate(233.977929 0) scale(0.996264)"/>
      <use xlink:href="#CMSS17-61" transform="translate(276.978071 0) scale(0.996264)"/>
      <use xlink:href="#CMSS17-72" transform="translate(319.297538 0) scale(0.996264)"/>
     </g>
    </g>
    <g id="line2d_16">
     <path d="M 575.246693 56.269178 
L 585.246693 56.269178 
L 595.246693 56.269178 
" style="fill: none; stroke: #ff7f0e; stroke-width: 1.5; stroke-linecap: square"/>
    </g>
    <g id="text_15">
     <!-- We.var -->
     <g transform="translate(603.246693 59.769178) scale(0.1 -0.1)">
      <defs>
       <path id="CMSS17-65" d="M 2502 1377 
C 2502 1590 2490 2003 2285 2345 
C 2061 2713 1696 2816 1421 2816 
C 755 2816 192 2188 192 1375 
C 192 582 774 -64 1510 -64 
C 1798 -64 2150 19 2470 248 
C 2470 274 2458 414 2451 420 
C 2451 433 2432 630 2432 656 
C 2125 407 1773 325 1517 325 
C 1107 325 666 667 646 1377 
L 2502 1377 
z
M 698 1728 
C 781 2084 1062 2421 1421 2421 
C 1517 2421 1965 2421 2080 1728 
L 698 1728 
z
" transform="scale(0.015625)"/>
      </defs>
      <use xlink:href="#CMSS17-57" transform="scale(0.996264)"/>
      <use xlink:href="#CMSS17-65" transform="translate(85.639712 0) scale(0.996264)"/>
      <use xlink:href="#CMSS17-2e" transform="translate(127.278534 0) scale(0.996264)"/>
      <use xlink:href="#CMSS17-76" transform="translate(153.302739 0) scale(0.996264)"/>
      <use xlink:href="#CMSS17-61" transform="translate(196.302881 0) scale(0.996264)"/>
      <use xlink:href="#CMSS17-72" transform="translate(238.622348 0) scale(0.996264)"/>
     </g>
    </g>
   </g>
  </g>
  <g id="axes_2">
   <g id="patch_8">
    <path d="M 39.94 437.96 
L 649.662034 437.96 
L 649.662034 257.352 
L 39.94 257.352 
z
" style="fill: #ffffff"/>
   </g>
   <g id="matplotlib.axis_3">
    <g id="xtick_7">
     <g id="line2d_17">
      <g>
       <use xlink:href="#m66a267a5bc" x="61.880755" y="437.96" style="stroke: #000000; stroke-width: 0.8"/>
      </g>
     </g>
     <g id="text_16">
      <!-- 0 -->
      <g transform="translate(58.699505 452.558437) scale(0.1 -0.1)">
       <use xlink:href="#DejaVuSans-30"/>
      </g>
     </g>
    </g>
    <g id="xtick_8">
     <g id="line2d_18">
      <g>
       <use xlink:href="#m66a267a5bc" x="177.358413" y="437.96" style="stroke: #000000; stroke-width: 0.8"/>
      </g>
     </g>
     <g id="text_17">
      <!-- 2000 -->
      <g transform="translate(164.633413 452.558437) scale(0.1 -0.1)">
       <use xlink:href="#DejaVuSans-32"/>
       <use xlink:href="#DejaVuSans-30" x="63.623047"/>
       <use xlink:href="#DejaVuSans-30" x="127.246094"/>
       <use xlink:href="#DejaVuSans-30" x="190.869141"/>
      </g>
     </g>
    </g>
    <g id="xtick_9">
     <g id="line2d_19">
      <g>
       <use xlink:href="#m66a267a5bc" x="292.836071" y="437.96" style="stroke: #000000; stroke-width: 0.8"/>
      </g>
     </g>
     <g id="text_18">
      <!-- 4000 -->
      <g transform="translate(280.111071 452.558437) scale(0.1 -0.1)">
       <use xlink:href="#DejaVuSans-34"/>
       <use xlink:href="#DejaVuSans-30" x="63.623047"/>
       <use xlink:href="#DejaVuSans-30" x="127.246094"/>
       <use xlink:href="#DejaVuSans-30" x="190.869141"/>
      </g>
     </g>
    </g>
    <g id="xtick_10">
     <g id="line2d_20">
      <g>
       <use xlink:href="#m66a267a5bc" x="408.313729" y="437.96" style="stroke: #000000; stroke-width: 0.8"/>
      </g>
     </g>
     <g id="text_19">
      <!-- 6000 -->
      <g transform="translate(395.588729 452.558437) scale(0.1 -0.1)">
       <use xlink:href="#DejaVuSans-36"/>
       <use xlink:href="#DejaVuSans-30" x="63.623047"/>
       <use xlink:href="#DejaVuSans-30" x="127.246094"/>
       <use xlink:href="#DejaVuSans-30" x="190.869141"/>
      </g>
     </g>
    </g>
    <g id="xtick_11">
     <g id="line2d_21">
      <g>
       <use xlink:href="#m66a267a5bc" x="523.791387" y="437.96" style="stroke: #000000; stroke-width: 0.8"/>
      </g>
     </g>
     <g id="text_20">
      <!-- 8000 -->
      <g transform="translate(511.066387 452.558437) scale(0.1 -0.1)">
       <use xlink:href="#DejaVuSans-38"/>
       <use xlink:href="#DejaVuSans-30" x="63.623047"/>
       <use xlink:href="#DejaVuSans-30" x="127.246094"/>
       <use xlink:href="#DejaVuSans-30" x="190.869141"/>
      </g>
     </g>
    </g>
    <g id="xtick_12">
     <g id="line2d_22">
      <g>
       <use xlink:href="#m66a267a5bc" x="639.269045" y="437.96" style="stroke: #000000; stroke-width: 0.8"/>
      </g>
     </g>
     <g id="text_21">
      <!-- 10000 -->
      <g transform="translate(623.362795 452.558437) scale(0.1 -0.1)">
       <use xlink:href="#DejaVuSans-31"/>
       <use xlink:href="#DejaVuSans-30" x="63.623047"/>
       <use xlink:href="#DejaVuSans-30" x="127.246094"/>
       <use xlink:href="#DejaVuSans-30" x="190.869141"/>
       <use xlink:href="#DejaVuSans-30" x="254.492188"/>
      </g>
     </g>
    </g>
   </g>
   <g id="matplotlib.axis_4">
    <g id="ytick_7">
     <g id="line2d_23">
      <g>
       <use xlink:href="#mcdb39c1eac" x="39.94" y="431.611413" style="stroke: #000000; stroke-width: 0.8"/>
      </g>
     </g>
     <g id="text_22">
      <!-- 0.00 -->
      <g transform="translate(10.674375 435.410631) scale(0.1 -0.1)">
       <use xlink:href="#DejaVuSans-30"/>
       <use xlink:href="#DejaVuSans-2e" x="63.623047"/>
       <use xlink:href="#DejaVuSans-30" x="95.410156"/>
       <use xlink:href="#DejaVuSans-30" x="159.033203"/>
      </g>
     </g>
    </g>
    <g id="ytick_8">
     <g id="line2d_24">
      <g>
       <use xlink:href="#mcdb39c1eac" x="39.94" y="398.69905" style="stroke: #000000; stroke-width: 0.8"/>
      </g>
     </g>
     <g id="text_23">
      <!-- 0.05 -->
      <g transform="translate(10.674375 402.498269) scale(0.1 -0.1)">
       <use xlink:href="#DejaVuSans-30"/>
       <use xlink:href="#DejaVuSans-2e" x="63.623047"/>
       <use xlink:href="#DejaVuSans-30" x="95.410156"/>
       <use xlink:href="#DejaVuSans-35" x="159.033203"/>
      </g>
     </g>
    </g>
    <g id="ytick_9">
     <g id="line2d_25">
      <g>
       <use xlink:href="#mcdb39c1eac" x="39.94" y="365.786687" style="stroke: #000000; stroke-width: 0.8"/>
      </g>
     </g>
     <g id="text_24">
      <!-- 0.10 -->
      <g transform="translate(10.674375 369.585906) scale(0.1 -0.1)">
       <use xlink:href="#DejaVuSans-30"/>
       <use xlink:href="#DejaVuSans-2e" x="63.623047"/>
       <use xlink:href="#DejaVuSans-31" x="95.410156"/>
       <use xlink:href="#DejaVuSans-30" x="159.033203"/>
      </g>
     </g>
    </g>
    <g id="ytick_10">
     <g id="line2d_26">
      <g>
       <use xlink:href="#mcdb39c1eac" x="39.94" y="332.874324" style="stroke: #000000; stroke-width: 0.8"/>
      </g>
     </g>
     <g id="text_25">
      <!-- 0.15 -->
      <g transform="translate(10.674375 336.673543) scale(0.1 -0.1)">
       <use xlink:href="#DejaVuSans-30"/>
       <use xlink:href="#DejaVuSans-2e" x="63.623047"/>
       <use xlink:href="#DejaVuSans-31" x="95.410156"/>
       <use xlink:href="#DejaVuSans-35" x="159.033203"/>
      </g>
     </g>
    </g>
    <g id="ytick_11">
     <g id="line2d_27">
      <g>
       <use xlink:href="#mcdb39c1eac" x="39.94" y="299.961961" style="stroke: #000000; stroke-width: 0.8"/>
      </g>
     </g>
     <g id="text_26">
      <!-- 0.20 -->
      <g transform="translate(10.674375 303.76118) scale(0.1 -0.1)">
       <use xlink:href="#DejaVuSans-30"/>
       <use xlink:href="#DejaVuSans-2e" x="63.623047"/>
       <use xlink:href="#DejaVuSans-32" x="95.410156"/>
       <use xlink:href="#DejaVuSans-30" x="159.033203"/>
      </g>
     </g>
    </g>
    <g id="ytick_12">
     <g id="line2d_28">
      <g>
       <use xlink:href="#mcdb39c1eac" x="39.94" y="267.049599" style="stroke: #000000; stroke-width: 0.8"/>
      </g>
     </g>
     <g id="text_27">
      <!-- 0.25 -->
      <g transform="translate(10.674375 270.848817) scale(0.1 -0.1)">
       <use xlink:href="#DejaVuSans-30"/>
       <use xlink:href="#DejaVuSans-2e" x="63.623047"/>
       <use xlink:href="#DejaVuSans-32" x="95.410156"/>
       <use xlink:href="#DejaVuSans-35" x="159.033203"/>
      </g>
     </g>
    </g>
   </g>
   <g id="line2d_29">
    <path d="M 67.654638 405.205573 
L 73.428521 409.771766 
L 79.202404 411.903917 
L 84.976287 413.567029 
L 90.75017 415.430824 
L 96.524052 416.966817 
L 102.297935 418.98701 
L 108.071818 418.529238 
L 113.845701 420.823784 
L 119.619584 420.920918 
L 125.393467 422.290879 
L 131.16735 421.860207 
L 136.941233 422.613616 
L 142.715116 423.999523 
L 148.488998 423.596028 
L 154.262881 424.137286 
L 160.036764 424.277034 
L 165.810647 424.911354 
L 171.58453 424.87153 
L 177.358413 425.089762 
L 183.132296 424.977785 
L 188.906179 425.290859 
L 194.680062 424.996559 
L 200.453945 425.729369 
L 206.227827 425.225706 
L 212.00171 425.924104 
L 217.775593 426.123084 
L 223.549476 425.916893 
L 229.323359 426.610136 
L 235.097242 426.162127 
L 240.871125 426.173114 
L 246.645008 426.302088 
L 252.418891 426.973727 
L 258.192774 426.344364 
L 263.966656 426.814835 
L 269.740539 427.17958 
L 275.514422 427.477482 
L 281.288305 427.259961 
L 287.062188 427.381208 
L 292.836071 427.605062 
L 298.609954 428.045956 
L 304.383837 427.763136 
L 310.15772 428.083419 
L 315.931603 427.878643 
L 321.705485 428.161652 
L 327.479368 428.174148 
L 333.253251 428.345273 
L 339.027134 427.775465 
L 344.801017 428.401691 
L 350.5749 428.33825 
L 356.348783 428.497777 
L 362.122666 428.625798 
L 367.896549 428.888027 
L 373.670432 428.678029 
L 379.444314 428.863142 
L 385.218197 428.857583 
L 390.99208 428.964121 
L 396.765963 428.950239 
L 402.539846 428.943191 
L 408.313729 429.211295 
L 414.087612 429.17285 
L 419.861495 429.138529 
L 425.635378 429.024847 
L 431.409261 429.364637 
L 437.183143 429.200574 
L 442.957026 429.180029 
L 448.730909 429.219654 
L 454.504792 429.206309 
L 460.278675 429.160728 
L 466.052558 429.43766 
L 471.826441 429.133019 
L 477.600324 429.447329 
L 483.374207 429.256129 
L 489.14809 429.324164 
L 494.921972 429.599645 
L 500.695855 429.441805 
L 506.469738 429.502918 
L 512.243621 429.313903 
L 518.017504 429.556458 
L 523.791387 429.380802 
L 529.56527 429.450007 
L 535.339153 429.45586 
L 541.113036 429.595613 
L 546.886918 429.497968 
L 552.660801 429.750545 
L 558.434684 429.627858 
L 564.208567 429.659427 
L 569.98245 429.630957 
L 575.756333 429.635079 
L 581.530216 429.63093 
L 587.304099 429.482716 
L 593.077982 429.580518 
L 598.851865 429.559063 
L 604.625747 429.663419 
L 610.39963 429.683583 
L 616.173513 429.700548 
L 621.947396 429.723941 
" clip-path="url(#pa27ae7e42e)" style="fill: none; stroke: #1f77b4; stroke-width: 1.5; stroke-linecap: square"/>
   </g>
   <g id="line2d_30">
    <path d="M 67.654638 265.561455 
L 73.428521 381.576824 
L 79.202404 405.215136 
L 84.976287 406.88865 
L 90.75017 414.464431 
L 96.524052 415.429381 
L 102.297935 416.311566 
L 108.071818 414.951319 
L 113.845701 418.359342 
L 119.619584 416.476857 
L 125.393467 420.083828 
L 131.16735 420.631102 
L 136.941233 420.981368 
L 142.715116 420.107495 
L 148.488998 421.275452 
L 154.262881 420.684264 
L 160.036764 420.310137 
L 165.810647 421.116703 
L 171.58453 421.243368 
L 177.358413 421.797224 
L 183.132296 421.323472 
L 188.906179 422.479971 
L 194.680062 422.395994 
L 200.453945 421.806032 
L 206.227827 421.81063 
L 212.00171 421.752963 
L 217.775593 421.774356 
L 223.549476 422.433314 
L 229.323359 422.281665 
L 235.097242 421.006463 
L 240.871125 421.077688 
L 246.645008 420.40697 
L 252.418891 421.52283 
L 258.192774 422.13643 
L 263.966656 421.339982 
L 269.740539 423.02697 
L 275.514422 423.245022 
L 281.288305 422.425839 
L 287.062188 422.091966 
L 292.836071 422.287418 
L 298.609954 422.983909 
L 304.383837 423.296999 
L 310.15772 424.396334 
L 315.931603 422.231409 
L 321.705485 422.091114 
L 327.479368 423.063086 
L 333.253251 422.963795 
L 339.027134 422.87935 
L 344.801017 423.600468 
L 350.5749 422.471209 
L 356.348783 422.944054 
L 362.122666 423.44978 
L 367.896549 422.634691 
L 373.670432 422.465665 
L 379.444314 422.168882 
L 385.218197 422.229755 
L 390.99208 421.815624 
L 396.765963 423.383082 
L 402.539846 423.737237 
L 408.313729 423.414898 
L 414.087612 424.196033 
L 419.861495 422.877822 
L 425.635378 420.209412 
L 431.409261 422.280349 
L 437.183143 422.095034 
L 442.957026 423.07665 
L 448.730909 423.371544 
L 454.504792 424.187128 
L 460.278675 422.667125 
L 466.052558 422.780948 
L 471.826441 423.729105 
L 477.600324 423.122666 
L 483.374207 422.510034 
L 489.14809 421.592441 
L 494.921972 421.51687 
L 500.695855 422.235546 
L 506.469738 422.563956 
L 512.243621 421.368567 
L 518.017504 421.143394 
L 523.791387 423.212181 
L 529.56527 422.980814 
L 535.339153 422.485338 
L 541.113036 422.15307 
L 546.886918 421.888674 
L 552.660801 421.809236 
L 558.434684 422.668456 
L 564.208567 421.654508 
L 569.98245 423.072809 
L 575.756333 422.806794 
L 581.530216 423.167551 
L 587.304099 423.366098 
L 593.077982 423.896611 
L 598.851865 423.168509 
L 604.625747 421.846587 
L 610.39963 423.047313 
L 616.173513 423.854242 
L 621.947396 423.766423 
" clip-path="url(#pa27ae7e42e)" style="fill: none; stroke: #ff7f0e; stroke-width: 1.5; stroke-linecap: square"/>
   </g>
   <g id="patch_9">
    <path d="M 39.94 437.96 
L 39.94 257.352 
" style="fill: none; stroke: #000000; stroke-width: 0.8; stroke-linejoin: miter; stroke-linecap: square"/>
   </g>
   <g id="patch_10">
    <path d="M 649.662034 437.96 
L 649.662034 257.352 
" style="fill: none; stroke: #000000; stroke-width: 0.8; stroke-linejoin: miter; stroke-linecap: square"/>
   </g>
   <g id="patch_11">
    <path d="M 39.94 437.96 
L 649.662034 437.96 
" style="fill: none; stroke: #000000; stroke-width: 0.8; stroke-linejoin: miter; stroke-linecap: square"/>
   </g>
   <g id="patch_12">
    <path d="M 39.94 257.352 
L 649.662034 257.352 
" style="fill: none; stroke: #000000; stroke-width: 0.8; stroke-linejoin: miter; stroke-linecap: square"/>
   </g>
   <g id="text_28">
    <!-- $\omega_e, M^1$ -->
    <g transform="translate(325.481017 251.352) scale(0.12 -0.12)">
     <use xlink:href="#DejaVuSans-Oblique-3c9" transform="translate(0 0.684375)"/>
     <use xlink:href="#DejaVuSans-Oblique-65" transform="translate(83.740234 -15.721875) scale(0.7)"/>
     <use xlink:href="#DejaVuSans-2c" transform="translate(129.541016 0.684375)"/>
     <use xlink:href="#DejaVuSans-Oblique-4d" transform="translate(180.810547 0.684375)"/>
     <use xlink:href="#DejaVuSans-31" transform="translate(274.106615 38.965625) scale(0.7)"/>
    </g>
   </g>
   <g id="legend_2">
    <g id="patch_13">
     <path d="M 573.246693 293.226357 
L 642.662034 293.226357 
Q 644.662034 293.226357 644.662034 291.226357 
L 644.662034 264.352 
Q 644.662034 262.352 642.662034 262.352 
L 573.246693 262.352 
Q 571.246693 262.352 571.246693 264.352 
L 571.246693 291.226357 
Q 571.246693 293.226357 573.246693 293.226357 
z
" style="fill: #ffffff; opacity: 0.8; stroke: #cccccc; stroke-linejoin: miter"/>
    </g>
    <g id="line2d_31">
     <path d="M 575.246693 269.852 
L 585.246693 269.852 
L 595.246693 269.852 
" style="fill: none; stroke: #1f77b4; stroke-width: 1.5; stroke-linecap: square"/>
    </g>
    <g id="text_29">
     <!-- Wc-0.var -->
     <g transform="translate(603.246693 273.352) scale(0.1 -0.1)">
      <use xlink:href="#CMSS17-57" transform="scale(0.996264)"/>
      <use xlink:href="#CMSS17-63" transform="translate(88.242166 0) scale(0.996264)"/>
      <use xlink:href="#CMSS17-2d" transform="translate(129.880988 0) scale(0.996264)"/>
      <use xlink:href="#CMSS17-30" transform="translate(161.110101 0) scale(0.996264)"/>
      <use xlink:href="#CMSS17-2e" transform="translate(207.953725 0) scale(0.996264)"/>
      <use xlink:href="#CMSS17-76" transform="translate(233.977929 0) scale(0.996264)"/>
      <use xlink:href="#CMSS17-61" transform="translate(276.978071 0) scale(0.996264)"/>
      <use xlink:href="#CMSS17-72" transform="translate(319.297538 0) scale(0.996264)"/>
     </g>
    </g>
    <g id="line2d_32">
     <path d="M 575.246693 283.789178 
L 585.246693 283.789178 
L 595.246693 283.789178 
" style="fill: none; stroke: #ff7f0e; stroke-width: 1.5; stroke-linecap: square"/>
    </g>
    <g id="text_30">
     <!-- We.var -->
     <g transform="translate(603.246693 287.289178) scale(0.1 -0.1)">
      <use xlink:href="#CMSS17-57" transform="scale(0.996264)"/>
      <use xlink:href="#CMSS17-65" transform="translate(85.639712 0) scale(0.996264)"/>
      <use xlink:href="#CMSS17-2e" transform="translate(127.278534 0) scale(0.996264)"/>
      <use xlink:href="#CMSS17-76" transform="translate(153.302739 0) scale(0.996264)"/>
      <use xlink:href="#CMSS17-61" transform="translate(196.302881 0) scale(0.996264)"/>
      <use xlink:href="#CMSS17-72" transform="translate(238.622348 0) scale(0.996264)"/>
     </g>
    </g>
   </g>
  </g>
 </g>
 <defs>
  <clipPath id="pb5c46fc98e">
   <rect x="39.94" y="29.832" width="609.722034" height="180.608"/>
  </clipPath>
  <clipPath id="pa27ae7e42e">
   <rect x="39.94" y="257.352" width="609.722034" height="180.608"/>
  </clipPath>
 </defs>
</svg>
