<?xml version="1.0" encoding="UTF-8" standalone="no"?>
<!-- Created with Inkscape (http://www.inkscape.org/) -->

<svg
   width="243.27721mm"
   height="127.44711mm"
   viewBox="0 0 243.2772 127.44711"
   version="1.1"
   id="svg5"
   inkscape:version="1.1.2 (0a00cf5339, 2022-02-04)"
   sodipodi:docname="DNF.svg"
   xmlns:inkscape="http://www.inkscape.org/namespaces/inkscape"
   xmlns:sodipodi="http://sodipodi.sourceforge.net/DTD/sodipodi-0.dtd"
   xmlns:xlink="http://www.w3.org/1999/xlink"
   xmlns="http://www.w3.org/2000/svg"
   xmlns:svg="http://www.w3.org/2000/svg">
  <sodipodi:namedview
     id="namedview7"
     pagecolor="#ffffff"
     bordercolor="#666666"
     borderopacity="1.0"
     inkscape:pageshadow="2"
     inkscape:pageopacity="0.0"
     inkscape:pagecheckerboard="0"
     inkscape:document-units="mm"
     showgrid="false"
     inkscape:zoom="0.46791817"
     inkscape:cx="518.25301"
     inkscape:cy="398.57396"
     inkscape:window-width="1292"
     inkscape:window-height="704"
     inkscape:window-x="0"
     inkscape:window-y="0"
     inkscape:window-maximized="1"
     inkscape:current-layer="g40679"
     fit-margin-top="0"
     fit-margin-left="0"
     fit-margin-right="0"
     fit-margin-bottom="0" />
  <defs
     id="defs2">
    <marker
       style="overflow:visible"
       id="Arrow2Lstart"
       refX="0.0"
       refY="0.0"
       orient="auto"
       inkscape:stockid="Arrow2Lstart"
       inkscape:isstock="true">
      <path
         transform="scale(1.1) translate(1,0)"
         d="M 8.7185878,4.0337352 L -2.2072895,0.016013256 L 8.7185884,-4.0017078 C 6.9730900,-1.6296469 6.9831476,1.6157441 8.7185878,4.0337352 z "
         style="stroke:context-stroke;fill-rule:evenodd;fill:context-stroke;stroke-width:0.62500000;stroke-linejoin:round"
         id="path1419" />
    </marker>
    <marker
       style="overflow:visible;"
       id="Arrow2Lend"
       refX="0.0"
       refY="0.0"
       orient="auto"
       inkscape:stockid="Arrow2Lend"
       inkscape:isstock="true">
      <path
         transform="scale(1.1) rotate(180) translate(1,0)"
         d="M 8.7185878,4.0337352 L -2.2072895,0.016013256 L 8.7185884,-4.0017078 C 6.9730900,-1.6296469 6.9831476,1.6157441 8.7185878,4.0337352 z "
         style="stroke:context-stroke;fill-rule:evenodd;fill:context-stroke;stroke-width:0.62500000;stroke-linejoin:round;"
         id="path1422" />
    </marker>
    <linearGradient
       inkscape:collect="always"
       id="linearGradient31333">
      <stop
         style="stop-color:#0023ff;stop-opacity:1"
         offset="0"
         id="stop32589" />
      <stop
         style="stop-color:#002eff;stop-opacity:0.61214049"
         offset="0.31041679"
         id="stop33298" />
      <stop
         style="stop-color:#0030ff;stop-opacity:0.59544802"
         offset="1"
         id="stop32591" />
    </linearGradient>
    <linearGradient
       inkscape:collect="always"
       id="linearGradient30358">
      <stop
         style="stop-color:#ffd7a8;stop-opacity:0.57169962"
         offset="0"
         id="stop30354" />
      <stop
         style="stop-color:#ff9846;stop-opacity:0.75294119"
         offset="0.26700661"
         id="stop31240" />
      <stop
         style="stop-color:#ff6b00;stop-opacity:0.79455519"
         offset="0.51322979"
         id="stop30703" />
      <stop
         style="stop-color:#ff7400;stop-opacity:0.5164541"
         offset="0.73638189"
         id="stop31174" />
      <stop
         style="stop-color:#ffa02f;stop-opacity:0.30782846"
         offset="1"
         id="stop30356" />
    </linearGradient>
    <marker
       style="overflow:visible"
       id="marker6560"
       refX="0"
       refY="0"
       orient="auto"
       inkscape:stockid="Arrow1Mend"
       inkscape:isstock="true">
      <path
         transform="matrix(-0.4,0,0,-0.4,-4,0)"
         style="fill:context-stroke;fill-rule:evenodd;stroke:context-stroke;stroke-width:1pt"
         d="M 0,0 5,-5 -12.5,0 5,5 Z"
         id="path6308" />
    </marker>
    <marker
       style="overflow:visible"
       id="Arrow1Mstart"
       refX="0"
       refY="0"
       orient="auto"
       inkscape:stockid="Arrow1Mstart"
       inkscape:isstock="true">
      <path
         transform="matrix(0.4,0,0,0.4,4,0)"
         style="fill:context-stroke;fill-rule:evenodd;stroke:context-stroke;stroke-width:1pt"
         d="M 0,0 5,-5 -12.5,0 5,5 Z"
         id="path11265" />
    </marker>
    <marker
       style="overflow:visible"
       id="Arrow1Mend"
       refX="0"
       refY="0"
       orient="auto"
       inkscape:stockid="Arrow1Mend"
       inkscape:isstock="true">
      <path
         transform="matrix(-0.4,0,0,-0.4,-4,0)"
         style="fill:context-stroke;fill-rule:evenodd;stroke:context-stroke;stroke-width:1pt"
         d="M 0,0 5,-5 -12.5,0 5,5 Z"
         id="path11268" />
    </marker>
    <marker
       style="overflow:visible"
       id="marker6560-0"
       refX="0"
       refY="0"
       orient="auto"
       inkscape:stockid="Arrow1Mend"
       inkscape:isstock="true">
      <path
         transform="matrix(-0.4,0,0,-0.4,-4,0)"
         style="fill:context-stroke;fill-rule:evenodd;stroke:context-stroke;stroke-width:1pt"
         d="M 0,0 5,-5 -12.5,0 5,5 Z"
         id="path6308-4" />
    </marker>
    <marker
       style="overflow:visible"
       id="marker6560-9"
       refX="0"
       refY="0"
       orient="auto"
       inkscape:stockid="Arrow1Mend"
       inkscape:isstock="true">
      <path
         transform="matrix(-0.4,0,0,-0.4,-4,0)"
         style="fill:context-stroke;fill-rule:evenodd;stroke:context-stroke;stroke-width:1pt"
         d="M 0,0 5,-5 -12.5,0 5,5 Z"
         id="path6308-6" />
    </marker>
    <marker
       style="overflow:visible"
       id="marker6560-0-1"
       refX="0"
       refY="0"
       orient="auto"
       inkscape:stockid="Arrow1Mend"
       inkscape:isstock="true">
      <path
         transform="matrix(-0.4,0,0,-0.4,-4,0)"
         style="fill:context-stroke;fill-rule:evenodd;stroke:context-stroke;stroke-width:1pt"
         d="M 0,0 5,-5 -12.5,0 5,5 Z"
         id="path6308-4-0" />
    </marker>
    <marker
       style="overflow:visible"
       id="marker6560-2"
       refX="0"
       refY="0"
       orient="auto"
       inkscape:stockid="Arrow1Mend"
       inkscape:isstock="true">
      <path
         transform="matrix(-0.4,0,0,-0.4,-4,0)"
         style="fill:context-stroke;fill-rule:evenodd;stroke:context-stroke;stroke-width:1pt"
         d="M 0,0 5,-5 -12.5,0 5,5 Z"
         id="path6308-0" />
    </marker>
    <marker
       style="overflow:visible"
       id="marker6560-0-5"
       refX="0"
       refY="0"
       orient="auto"
       inkscape:stockid="Arrow1Mend"
       inkscape:isstock="true">
      <path
         transform="matrix(-0.4,0,0,-0.4,-4,0)"
         style="fill:context-stroke;fill-rule:evenodd;stroke:context-stroke;stroke-width:1pt"
         d="M 0,0 5,-5 -12.5,0 5,5 Z"
         id="path6308-4-5" />
    </marker>
    <marker
       style="overflow:visible"
       id="marker6560-0-5-0"
       refX="0"
       refY="0"
       orient="auto"
       inkscape:stockid="Arrow1Mend"
       inkscape:isstock="true">
      <path
         transform="matrix(-0.4,0,0,-0.4,-4,0)"
         style="fill:context-stroke;fill-rule:evenodd;stroke:context-stroke;stroke-width:1pt"
         d="M 0,0 5,-5 -12.5,0 5,5 Z"
         id="path6308-4-5-2" />
    </marker>
    <marker
       style="overflow:visible"
       id="marker6560-2-8"
       refX="0"
       refY="0"
       orient="auto"
       inkscape:stockid="Arrow1Mend"
       inkscape:isstock="true">
      <path
         transform="matrix(-0.4,0,0,-0.4,-4,0)"
         style="fill:context-stroke;fill-rule:evenodd;stroke:context-stroke;stroke-width:1pt"
         d="M 0,0 5,-5 -12.5,0 5,5 Z"
         id="path6308-0-3" />
    </marker>
    <linearGradient
       inkscape:collect="always"
       xlink:href="#linearGradient30358"
       id="linearGradient30421"
       x1="363.47748"
       y1="398.91245"
       x2="415.82285"
       y2="399.16083"
       gradientUnits="userSpaceOnUse" />
    <linearGradient
       inkscape:collect="always"
       xlink:href="#linearGradient31333"
       id="linearGradient32587"
       x1="97.746933"
       y1="85.598022"
       x2="12.446521"
       y2="85.515701"
       gradientUnits="userSpaceOnUse"
       gradientTransform="translate(1.8059389,53.705679)" />
    <linearGradient
       inkscape:collect="always"
       xlink:href="#linearGradient31333"
       id="linearGradient34649"
       gradientUnits="userSpaceOnUse"
       gradientTransform="matrix(-1,0,0,1,220.17351,53.983989)"
       x1="97.746933"
       y1="85.598022"
       x2="12.446521"
       y2="85.515701" />
    <g
       id="g4853">
      <symbol
         overflow="visible"
         id="symbol4958">
        <path
           style="stroke:none"
           d=""
           id="path3514" />
      </symbol>
      <symbol
         overflow="visible"
         id="symbol4017">
        <path
           style="stroke:none"
           d="m 6.03125,-3.703125 c 0,-0.453125 -0.171875,-0.703125 -0.40625,-0.703125 -0.25,0 -0.515625,0.234375 -0.515625,0.46875 0,0.09375 0.046875,0.203125 0.140625,0.296875 0.171875,0.15625 0.359375,0.421875 0.359375,0.84375 0,0.390625 -0.203125,0.96875 -0.5,1.421875 C 4.8125,-0.953125 4.4375,-0.609375 3.96875,-0.609375 3.40625,-0.609375 3.09375,-0.96875 3,-1.5 c 0.109375,-0.265625 0.34375,-0.90625 0.34375,-1.1875 0,-0.109375 -0.046875,-0.21875 -0.1875,-0.21875 -0.078125,0 -0.1875,0.03125 -0.265625,0.171875 C 2.78125,-2.53125 2.65625,-1.890625 2.65625,-1.53125 2.328125,-1.0625 1.9375,-0.609375 1.3125,-0.609375 c -0.671875,0 -0.875,-0.59375 -0.875,-1.140625 0,-1.25 1.015625,-2.296875 1.015625,-2.421875 0,-0.109375 -0.078125,-0.1875 -0.1875,-0.1875 -0.125,0 -0.203125,0.125 -0.265625,0.21875 -0.5,0.734375 -0.875,1.921875 -0.875,2.828125 0,0.6875 0.21875,1.421875 1.046875,1.421875 0.703125,0 1.171875,-0.5 1.53125,-1.046875 0.09375,0.578125 0.484375,1.046875 1.09375,1.046875 0.78125,0 1.25,-0.609375 1.609375,-1.359375 0.25,-0.484375 0.625,-1.84375 0.625,-2.453125 z m 0,0"
           id="path6436" />
      </symbol>
      <symbol
         overflow="visible"
         id="symbol3326">
        <path
           style="stroke:none"
           d="M 3.328125,-3.015625 C 3.390625,-3.265625 3.625,-4.1875 4.3125,-4.1875 c 0.046875,0 0.296875,0 0.5,0.125 C 4.53125,-4 4.34375,-3.765625 4.34375,-3.515625 c 0,0.15625 0.109375,0.34375 0.375,0.34375 0.21875,0 0.53125,-0.171875 0.53125,-0.578125 0,-0.515625 -0.578125,-0.65625 -0.921875,-0.65625 -0.578125,0 -0.921875,0.53125 -1.046875,0.75 -0.25,-0.65625 -0.78125,-0.75 -1.078125,-0.75 -1.03125,0 -1.609375,1.28125 -1.609375,1.53125 0,0.109375 0.109375,0.109375 0.125,0.109375 0.078125,0 0.109375,-0.03125 0.125,-0.109375 0.34375,-1.0625 1,-1.3125 1.34375,-1.3125 0.1875,0 0.53125,0.09375 0.53125,0.671875 0,0.3125 -0.171875,0.96875 -0.53125,2.375 -0.15625,0.609375 -0.515625,1.03125 -0.953125,1.03125 -0.0625,0 -0.28125,0 -0.5,-0.125 0.25,-0.0625 0.46875,-0.265625 0.46875,-0.546875 0,-0.265625 -0.21875,-0.34375 -0.359375,-0.34375 -0.3125,0 -0.546875,0.25 -0.546875,0.578125 0,0.453125 0.484375,0.65625 0.921875,0.65625 0.671875,0 1.03125,-0.703125 1.046875,-0.75 0.125,0.359375 0.484375,0.75 1.078125,0.75 1.03125,0 1.59375,-1.28125 1.59375,-1.53125 0,-0.109375 -0.078125,-0.109375 -0.109375,-0.109375 -0.09375,0 -0.109375,0.046875 -0.140625,0.109375 -0.328125,1.078125 -1,1.3125 -1.3125,1.3125 -0.390625,0 -0.546875,-0.3125 -0.546875,-0.65625 0,-0.21875 0.046875,-0.4375 0.15625,-0.875 z m 0,0"
           id="path9357" />
      </symbol>
      <symbol
         overflow="visible"
         id="symbol2272">
        <path
           style="stroke:none"
           d="m 4.84375,-3.796875 c 0.046875,-0.140625 0.046875,-0.15625 0.046875,-0.234375 0,-0.171875 -0.140625,-0.265625 -0.296875,-0.265625 -0.09375,0 -0.25,0.0625 -0.34375,0.203125 -0.015625,0.0625 -0.109375,0.359375 -0.140625,0.546875 -0.078125,0.25 -0.140625,0.53125 -0.203125,0.796875 l -0.453125,1.796875 c -0.03125,0.140625 -0.46875,0.84375 -1.125,0.84375 -0.5,0 -0.609375,-0.4375 -0.609375,-0.8125 C 1.71875,-1.375 1.890625,-2 2.21875,-2.875 2.375,-3.28125 2.421875,-3.390625 2.421875,-3.59375 c 0,-0.4375 -0.3125,-0.8125 -0.8125,-0.8125 -0.953125,0 -1.3125,1.453125 -1.3125,1.53125 0,0.109375 0.09375,0.109375 0.109375,0.109375 0.109375,0 0.109375,-0.03125 0.15625,-0.1875 0.28125,-0.9375 0.671875,-1.234375 1.015625,-1.234375 0.078125,0 0.25,0 0.25,0.3125 0,0.25 -0.109375,0.515625 -0.171875,0.703125 -0.40625,1.0625 -0.578125,1.625 -0.578125,2.09375 0,0.890625 0.625,1.1875 1.21875,1.1875 0.390625,0 0.71875,-0.171875 1,-0.453125 -0.125,0.515625 -0.25,1.015625 -0.640625,1.546875 -0.265625,0.328125 -0.640625,0.625 -1.09375,0.625 -0.140625,0 -0.59375,-0.03125 -0.765625,-0.421875 0.15625,0 0.296875,0 0.421875,-0.125 C 1.328125,1.203125 1.421875,1.0625 1.421875,0.875 1.421875,0.5625 1.15625,0.53125 1.0625,0.53125 0.828125,0.53125 0.5,0.6875 0.5,1.171875 c 0,0.5 0.4375,0.875 1.0625,0.875 1.015625,0 2.046875,-0.90625 2.328125,-2.03125 z m 0,0"
           id="path6131" />
      </symbol>
      <symbol
         overflow="visible"
         id="symbol5603">
        <path
           style="stroke:none"
           d=""
           id="path6677" />
      </symbol>
      <symbol
         overflow="visible"
         id="symbol4275">
        <path
           style="stroke:none"
           d="m 3.296875,2.390625 c 0,-0.03125 0,-0.046875 -0.171875,-0.21875 C 1.890625,0.921875 1.5625,-0.96875 1.5625,-2.5 c 0,-1.734375 0.375,-3.46875 1.609375,-4.703125 0.125,-0.125 0.125,-0.140625 0.125,-0.171875 0,-0.078125 -0.03125,-0.109375 -0.09375,-0.109375 -0.109375,0 -1,0.6875 -1.59375,1.953125 -0.5,1.09375 -0.625,2.203125 -0.625,3.03125 0,0.78125 0.109375,1.984375 0.65625,3.125 C 2.25,1.84375 3.09375,2.5 3.203125,2.5 c 0.0625,0 0.09375,-0.03125 0.09375,-0.109375 z m 0,0"
           id="path4822" />
      </symbol>
      <symbol
         overflow="visible"
         id="symbol9618">
        <path
           style="stroke:none"
           d="m 2.875,-2.5 c 0,-0.765625 -0.109375,-1.96875 -0.65625,-3.109375 -0.59375,-1.21875 -1.453125,-1.875 -1.546875,-1.875 -0.0625,0 -0.109375,0.046875 -0.109375,0.109375 0,0.03125 0,0.046875 0.1875,0.234375 0.984375,0.984375 1.546875,2.5625 1.546875,4.640625 0,1.71875 -0.359375,3.46875 -1.59375,4.71875 C 0.5625,2.34375 0.5625,2.359375 0.5625,2.390625 0.5625,2.453125 0.609375,2.5 0.671875,2.5 0.765625,2.5 1.671875,1.8125 2.25,0.546875 2.765625,-0.546875 2.875,-1.65625 2.875,-2.5 Z m 0,0"
           id="path8045" />
      </symbol>
      <symbol
         overflow="visible"
         id="symbol8204">
        <path
           style="stroke:none"
           d=""
           id="path9421" />
      </symbol>
      <symbol
         overflow="visible"
         id="symbol2812">
        <path
           style="stroke:none"
           d="m 6.5625,-2.296875 c 0.171875,0 0.359375,0 0.359375,-0.203125 0,-0.1875 -0.1875,-0.1875 -0.359375,-0.1875 H 1.171875 c -0.171875,0 -0.34375,0 -0.34375,0.1875 0,0.203125 0.171875,0.203125 0.34375,0.203125 z m 0,0"
           id="path4668" />
      </symbol>
    </g>
  </defs>
  <g
     inkscape:label="Layer 1"
     inkscape:groupmode="layer"
     id="layer1"
     transform="translate(-7.4220591,23.260132)">
    <path
       style="fill:none;stroke:#000000;stroke-width:0.548033;stroke-linecap:butt;stroke-linejoin:miter;stroke-miterlimit:4;stroke-dasharray:none;stroke-opacity:1;marker-start:url(#Arrow1Mstart)"
       d="M 12.988741,26.964503 V 104.18698"
       id="path857"
       sodipodi:nodetypes="cc" />
    <path
       style="fill:none;stroke:#000000;stroke-width:0.630445;stroke-linecap:butt;stroke-linejoin:miter;stroke-miterlimit:4;stroke-dasharray:none;stroke-opacity:1;marker-end:url(#Arrow1Mend)"
       d="M 12.604002,80.359005 H 169.96576"
       id="path972" />
    <path
       style="fill:none;stroke:#000000;stroke-width:0.383211;stroke-linecap:butt;stroke-linejoin:miter;stroke-miterlimit:4;stroke-dasharray:1.53285, 0.383211;stroke-dashoffset:0;stroke-opacity:1"
       d="m 12.789891,75.281635 h 20.424971 c 7.368179,0.14381 6.768548,-11.81153 10.061136,-11.835278 3.45944,0.07763 2.281464,11.504168 9.69782,11.407898 13.30016,0 34.292923,1.05381 39.900479,0 5.452244,-0.58073 8.948803,-20.611938 15.292773,-20.862673 5.88652,0.717836 9.65552,16.729593 15.45097,20.310923 4.24505,2.49107 28.97277,0 43.45916,0"
       id="path1087"
       sodipodi:nodetypes="cccccccc" />
    <text
       xml:space="preserve"
       style="font-style:normal;font-weight:normal;font-size:5.64444px;line-height:1.25;font-family:sans-serif;letter-spacing:0px;word-spacing:0px;fill:#280b0b;fill-opacity:1;stroke:none;stroke-width:0.264583"
       x="174.30531"
       y="72.656998"
       id="text3454"><tspan
         sodipodi:role="line"
         id="tspan3452"
         style="font-style:normal;font-variant:normal;font-weight:normal;font-stretch:normal;font-family:'TeX Gyre Pagella';-inkscape-font-specification:'TeX Gyre Pagella';fill:#280b0b;stroke-width:0.264583"
         x="174.30531"
         y="72.656998">s(x)</tspan></text>
    <path
       style="fill:none;stroke:#000000;stroke-width:0.630445;stroke-linecap:butt;stroke-linejoin:miter;stroke-miterlimit:4;stroke-dasharray:none;stroke-opacity:1"
       d="m 12.988741,91.845265 c 4.274259,-0.15274 12.009505,0.29966 16.575726,-0.0722 5.767491,-0.46964 8.282309,-2.97709 12.446957,-2.95695 2.550376,0.0124 5.653251,2.5995 11.180586,2.89635 10.007899,0.53749 24.111067,0.0551 29.962564,-0.66867 15.895387,-2.52646 16.178997,-62.2344 25.176936,-62.64151 7.77163,-0.682727 11.59162,56.60337 22.19931,60.99715 3.7558,3.48853 15.76819,2.34096 32.20572,2.5632"
       id="path4765"
       sodipodi:nodetypes="cssscccc" />
    <path
       style="fill:none;stroke:#ff0000;stroke-width:0.801035;stroke-linecap:butt;stroke-linejoin:miter;stroke-miterlimit:4;stroke-dasharray:none;stroke-opacity:1"
       d="m 12.604002,80.359005 c 23.858438,-0.64225 49.803495,0.78559 70.165833,-0.44732 16.090436,-2.45148 15.643276,-10.02969 24.641215,-10.25692 7.77163,-0.38107 11.77155,7.16989 22.37924,9.62232 3.7558,1.94716 16.12398,1.02341 32.56151,1.14746"
       id="path4765-3"
       sodipodi:nodetypes="ccccc" />
    <text
       xml:space="preserve"
       style="font-style:normal;font-weight:normal;font-size:5.64444px;line-height:1.25;font-family:sans-serif;letter-spacing:0px;word-spacing:0px;fill:#000000;fill-opacity:1;stroke:none;stroke-width:0.264583"
       x="173.80132"
       y="92.315697"
       id="text7910"><tspan
         sodipodi:role="line"
         id="tspan7908"
         style="font-style:normal;font-variant:normal;font-weight:normal;font-stretch:normal;font-family:'TeX Gyre Pagella';-inkscape-font-specification:'TeX Gyre Pagella';stroke-width:0.264583"
         x="173.80132"
         y="92.315697">u(x,t)</tspan></text>
    <path
       style="fill:none;stroke:#000000;stroke-width:0.452554;stroke-linecap:butt;stroke-linejoin:miter;stroke-miterlimit:4;stroke-dasharray:none;stroke-opacity:1"
       d="m 107.18431,79.164255 v 2.23967"
       id="path11629" />
    <text
       xml:space="preserve"
       style="font-style:normal;font-weight:normal;font-size:5.25175px;line-height:1.25;font-family:sans-serif;letter-spacing:0px;word-spacing:0px;opacity:0.55466;fill:#000000;fill-opacity:1;stroke:none;stroke-width:0.246176"
       x="6.8269262"
       y="99.557335"
       id="text2774"
       transform="scale(1.0747725,0.93042948)"><tspan
         sodipodi:role="line"
         id="tspan2772"
         style="font-style:normal;font-variant:normal;font-weight:normal;font-stretch:normal;font-family:'TeX Gyre Schola Math';-inkscape-font-specification:'TeX Gyre Schola Math';stroke-width:0.246176"
         x="6.8269262"
         y="99.557335">h</tspan></text>
    <text
       xml:space="preserve"
       style="font-style:normal;font-weight:normal;font-size:5.80428px;line-height:1.25;font-family:sans-serif;letter-spacing:0px;word-spacing:0px;fill:#ff7a00;fill-opacity:1;stroke:none;stroke-width:0.272077"
       x="90.435158"
       y="18.352106"
       id="text4882"><tspan
         sodipodi:role="line"
         id="tspan4880"
         style="font-style:normal;font-variant:normal;font-weight:normal;font-stretch:normal;font-family:'TeX Gyre Pagella';-inkscape-font-specification:'TeX Gyre Pagella';fill:#ff7a00;fill-opacity:1;stroke-width:0.272077"
         x="90.435158"
         y="18.352106">excitation locale</tspan><tspan
         sodipodi:role="line"
         style="font-style:normal;font-variant:normal;font-weight:normal;font-stretch:normal;font-family:'TeX Gyre Pagella';-inkscape-font-specification:'TeX Gyre Pagella';fill:#ff7a00;fill-opacity:1;stroke-width:0.272077"
         x="90.435158"
         y="25.832733"
         id="tspan14198" /></text>
    <path
       style="fill:none;stroke:#ff9300;stroke-width:0.630445;stroke-linecap:butt;stroke-linejoin:miter;stroke-miterlimit:4;stroke-dasharray:none;stroke-opacity:1;marker-end:url(#marker6560)"
       d="M 104.4862,30.406241 C 97.531881,33.80055 92.23093,52.824186 92.825795,64.44136"
       id="path6202"
       sodipodi:nodetypes="cc" />
    <path
       style="fill:none;stroke:#ff9300;stroke-width:0.630445;stroke-linecap:butt;stroke-linejoin:miter;stroke-miterlimit:4;stroke-dasharray:none;stroke-opacity:1;marker-end:url(#marker6560-0)"
       d="M 104.4862,30.406241 C 97.131881,33.386409 86.924141,48.128693 86.061559,59.738118"
       id="path6202-8"
       sodipodi:nodetypes="cc" />
    <path
       style="fill:none;stroke:#ff9300;stroke-width:0.630445;stroke-linecap:butt;stroke-linejoin:miter;stroke-miterlimit:4;stroke-dasharray:none;stroke-opacity:1;marker-end:url(#marker6560-9)"
       d="m 112.65972,30.445671 c 6.95432,3.394309 12.25527,22.417946 11.66041,34.03512"
       id="path6202-4"
       sodipodi:nodetypes="cc" />
    <path
       style="fill:none;stroke:#ff9300;stroke-width:0.630445;stroke-linecap:butt;stroke-linejoin:miter;stroke-miterlimit:4;stroke-dasharray:none;stroke-opacity:1;marker-end:url(#marker6560-0-1)"
       d="m 112.65972,30.445671 c 7.35432,2.980169 17.56206,17.722453 18.42464,29.331878"
       id="path6202-8-2"
       sodipodi:nodetypes="cc" />
    <path
       style="fill:none;stroke:#5a7bf6;stroke-width:0.630445;stroke-linecap:butt;stroke-linejoin:miter;stroke-miterlimit:4;stroke-dasharray:none;stroke-opacity:1;marker-end:url(#marker6560-2)"
       d="M 104.4862,30.406241 C 97.531881,33.80055 67.384388,32.326826 47.929171,57.988968"
       id="path6202-2"
       sodipodi:nodetypes="cc" />
    <path
       style="fill:none;stroke:#5a7bf6;stroke-width:0.630445;stroke-linecap:butt;stroke-linejoin:miter;stroke-miterlimit:4;stroke-dasharray:none;stroke-opacity:1;marker-end:url(#marker6560-0-5)"
       d="M 104.4862,30.406241 C 96.077021,32.092046 50.600121,39.127614 35.641308,56.443673"
       id="path6202-8-9"
       sodipodi:nodetypes="cc" />
    <path
       style="fill:none;stroke:#5a7bf6;stroke-width:0.630445;stroke-linecap:butt;stroke-linejoin:miter;stroke-miterlimit:4;stroke-dasharray:none;stroke-opacity:1;marker-end:url(#marker6560-2-8)"
       d="m 112.65972,30.445671 c 6.95432,3.394309 37.10182,1.920586 56.55703,27.582727"
       id="path6202-2-8"
       sodipodi:nodetypes="cc" />
    <path
       style="fill:none;stroke:#5a7bf6;stroke-width:0.630445;stroke-linecap:butt;stroke-linejoin:miter;stroke-miterlimit:4;stroke-dasharray:none;stroke-opacity:1;marker-end:url(#marker6560-0-5-0)"
       d="m 112.65972,30.445671 c 8.40918,1.685806 53.88608,8.721374 68.84489,26.037432"
       id="path6202-8-9-0"
       sodipodi:nodetypes="cc" />
    <text
       xml:space="preserve"
       style="font-style:normal;font-weight:normal;font-size:5.41601px;line-height:1.25;font-family:sans-serif;letter-spacing:0px;word-spacing:0px;fill:#4a79f8;fill-opacity:1;stroke:none;stroke-width:0.253876"
       x="18.207609"
       y="18.070223"
       id="text8966"><tspan
         sodipodi:role="line"
         id="tspan8964"
         style="font-style:normal;font-variant:normal;font-weight:normal;font-stretch:normal;font-family:'TeX Gyre Pagella';-inkscape-font-specification:'TeX Gyre Pagella';fill:#4a79f8;fill-opacity:1;stroke-width:0.253876"
         x="18.207609"
         y="18.070223">inhibition longue portée</tspan></text>
    <text
       xml:space="preserve"
       style="font-style:normal;font-weight:normal;font-size:5.64444px;line-height:1.25;font-family:sans-serif;letter-spacing:0px;word-spacing:0px;fill:#000000;fill-opacity:1;stroke:none;stroke-width:0.264583"
       x="173.39482"
       y="82.368454"
       id="text9942"><tspan
         sodipodi:role="line"
         id="tspan9940"
         style="font-style:normal;font-variant:normal;font-weight:normal;font-stretch:normal;font-family:'TeX Gyre Pagella';-inkscape-font-specification:'TeX Gyre Pagella';fill:#ff0000;fill-opacity:1;stroke-width:0.264583"
         x="173.39482"
         y="82.368454">g(u(x))</tspan></text>
    <path
       style="opacity:0.491206;fill:none;stroke:#000000;stroke-width:0.548033;stroke-linecap:butt;stroke-linejoin:miter;stroke-miterlimit:4;stroke-dasharray:1.09607, 0.548033;stroke-dashoffset:0;stroke-opacity:1"
       d="M 12.988741,91.845265 H 169.24115"
       id="path13163" />
    <text
       xml:space="preserve"
       style="font-style:normal;font-weight:normal;font-size:8.33408px;line-height:1.25;font-family:sans-serif;letter-spacing:0px;word-spacing:0px;fill:#000000;fill-opacity:1;stroke:none;stroke-width:0.39066"
       x="105.19279"
       y="88.276779"
       id="text15230"><tspan
         sodipodi:role="line"
         id="tspan15228"
         style="font-style:normal;font-variant:normal;font-weight:normal;font-stretch:normal;font-family:'TeX Gyre Pagella Math';-inkscape-font-specification:'TeX Gyre Pagella Math';stroke-width:0.39066"
         x="105.19279"
         y="88.276779">x</tspan></text>
    <g
       id="g36839"
       transform="matrix(1,0,0,0.55543572,-2.0715535,-78.504448)">
      <path
         style="opacity:0.298553;fill:none;fill-opacity:1;stroke:#000000;stroke-width:0.23;stroke-linecap:butt;stroke-linejoin:miter;stroke-miterlimit:4;stroke-dasharray:none;stroke-opacity:1"
         d="m 14.25246,139.22138 c 31.888354,0.59722 31.712627,0.24141 56.980542,1.49898 3.195293,-0.0839 10.744131,3.0496 15.109857,6.54622 5.797291,4.6432 8.088961,6.05023 10.666566,2.72573 6.470425,-8.34536 5.764555,-49.993196 14.009965,-50.366256"
         id="path4765-7"
         sodipodi:nodetypes="ccssc" />
      <path
         style="opacity:0.246705;fill:none;fill-opacity:1;stroke:#000000;stroke-width:0.33;stroke-linecap:butt;stroke-linejoin:miter;stroke-miterlimit:4;stroke-dasharray:none;stroke-opacity:1"
         d="m 175.17983,139.8645 c 0,0 0.89385,-0.40171 -24.37407,0.85586 -3.19529,-0.0839 -10.74413,3.0496 -15.10986,6.54622 -5.79729,4.6432 -8.08896,6.05023 -10.66655,2.72573 -6.47043,-8.34536 -5.76455,-49.993196 -14.00996,-50.366256"
         id="path4765-7-3"
         sodipodi:nodetypes="ccssc" />
      <path
         style="opacity:0.486774;fill:url(#linearGradient32587);fill-opacity:1;fill-rule:evenodd;stroke:none;stroke-width:0.41103;stroke-linejoin:round;stroke-miterlimit:4;stroke-dasharray:0.82206, 0.41103;stroke-dashoffset:0;stroke-opacity:1;stop-color:#000000"
         d="m 92.290054,150.91377 c -1.279401,-0.60526 -2.039887,-1.11912 -4.615672,-3.11877 -2.644294,-2.05283 -4.364239,-3.15967 -6.786772,-4.36749 -4.550896,-2.26897 -6.838751,-2.93175 -10.875192,-3.15049 -11.023079,-0.59737 -21.412994,-0.91409 -37.368136,-1.13912 -6.386108,-0.0901 -13.101333,-0.20941 -14.922723,-0.2652 l -3.311618,-0.10144 v -2.35329 -2.35329 h 43.337224 c 42.17066,0 43.337225,0.008 43.337225,0.30476 0,0.49251 -0.95485,5.63576 -1.396865,7.52414 -0.88719,3.79032 -2.14226,6.89942 -3.31735,8.2179 -1.24347,1.3952 -2.361928,1.61513 -4.080121,0.80229 z"
         id="path24280" />
      <path
         style="opacity:0.486774;fill:url(#linearGradient34649);fill-opacity:1;fill-rule:evenodd;stroke:none;stroke-width:0.41103;stroke-linejoin:round;stroke-miterlimit:4;stroke-dasharray:0.82206, 0.41103;stroke-dashoffset:0;stroke-opacity:1;stop-color:#000000"
         d="m 129.6894,151.19209 c 1.2794,-0.60526 2.03988,-1.11912 4.61567,-3.11877 2.64429,-2.05283 4.36424,-3.15967 6.78677,-4.36749 4.55089,-2.26897 6.83875,-2.93175 10.87519,-3.15049 23.2128,-0.69084 23.2128,-0.69084 23.4434,-1.83822 v -2.35329 -2.35329 l -11.17815,0.33246 c 15.36216,-0.4569 -43.59801,-0.5766 -43.59801,-0.27984 0,0.49251 1.21565,6.22036 1.65766,8.10874 0.88719,3.79032 2.14226,6.89942 3.31735,8.2179 1.24347,1.3952 2.36193,1.61513 4.08012,0.80229 z"
         id="path24280-7"
         sodipodi:nodetypes="sssccccsssss" />
      <path
         style="opacity:1;fill:#ff8a00;fill-opacity:0;fill-rule:evenodd;stroke:none;stroke-width:1.09849;stroke-linejoin:round;stroke-miterlimit:4;stroke-dasharray:2.19698, 1.09849;stroke-dashoffset:0;stroke-opacity:1;stop-color:#000000"
         d="m 354.81971,462.07817 c 0.13364,-0.54086 2.029,-13.37394 4.21192,-28.51795 4.45394,-30.89934 6.35438,-42.84708 8.57746,-53.92506 4.20213,-20.93985 8.93271,-34.23952 14.24691,-40.05411 3.66917,-4.01466 6.6783,-4.96294 10.25473,-3.23162 8.34852,4.04145 14.91441,22.78068 21.11261,60.25591 1.41232,8.53908 8.74305,58.30985 9.51474,64.59871 l 0.22793,1.85749 h -34.19464 -34.19464 z"
         id="path29479"
         transform="matrix(0.26458333,0,0,0.26458333,8.1251758,11.246513)" />
      <path
         style="opacity:1;fill:#ff8a00;fill-opacity:0;fill-rule:evenodd;stroke:none;stroke-width:1.09849;stroke-linejoin:round;stroke-miterlimit:4;stroke-dasharray:2.19698, 1.09849;stroke-dashoffset:0;stroke-opacity:1;stop-color:#000000"
         d="m 354.81971,462.07817 c 0.13364,-0.54086 2.029,-13.37394 4.21192,-28.51795 4.45394,-30.89934 6.35438,-42.84708 8.57746,-53.92506 4.20213,-20.93985 8.93271,-34.23952 14.24691,-40.05411 3.66917,-4.01466 6.6783,-4.96294 10.25473,-3.23162 8.34852,4.04145 14.91441,22.78068 21.11261,60.25591 1.41232,8.53908 8.74305,58.30985 9.51474,64.59871 l 0.22793,1.85749 h -34.19464 -34.19464 z"
         id="path29518"
         transform="matrix(0.26458333,0,0,0.26458333,8.1251758,11.246513)" />
      <path
         style="opacity:1;fill:#ff8a00;fill-opacity:0;fill-rule:evenodd;stroke:none;stroke-width:1.09849;stroke-linejoin:round;stroke-miterlimit:4;stroke-dasharray:2.19698, 1.09849;stroke-dashoffset:0;stroke-opacity:1;stop-color:#000000"
         d="m 354.81971,462.07817 c 0.13364,-0.54086 2.029,-13.37394 4.21192,-28.51795 4.45394,-30.89934 6.35438,-42.84708 8.57746,-53.92506 4.20213,-20.93985 8.93271,-34.23952 14.24691,-40.05411 3.66917,-4.01466 6.6783,-4.96294 10.25473,-3.23162 8.34852,4.04145 14.91441,22.78068 21.11261,60.25591 1.41232,8.53908 8.74305,58.30985 9.51474,64.59871 l 0.22793,1.85749 h -34.19464 -34.19464 z"
         id="path29557"
         transform="matrix(0.26458333,0,0,0.26458333,8.1251758,11.246513)" />
      <path
         style="opacity:1;fill:#ff8a00;fill-opacity:0;fill-rule:evenodd;stroke:none;stroke-width:1.09849;stroke-linejoin:round;stroke-miterlimit:4;stroke-dasharray:2.19698, 1.09849;stroke-dashoffset:0;stroke-opacity:1;stop-color:#000000"
         d="m 354.81971,462.07817 c 0.13364,-0.54086 2.029,-13.37394 4.21192,-28.51795 4.45394,-30.89934 6.35438,-42.84708 8.57746,-53.92506 4.20213,-20.93985 8.93271,-34.23952 14.24691,-40.05411 3.66917,-4.01466 6.6783,-4.96294 10.25473,-3.23162 8.34852,4.04145 14.91441,22.78068 21.11261,60.25591 1.41232,8.53908 8.74305,58.30985 9.51474,64.59871 l 0.22793,1.85749 h -34.19464 -34.19464 z"
         id="path29596"
         transform="matrix(0.26458333,0,0,0.26458333,8.1251758,11.246513)" />
      <path
         style="opacity:1;fill:#ff8a00;fill-opacity:0;fill-rule:evenodd;stroke:none;stroke-width:1.09849;stroke-linejoin:round;stroke-miterlimit:4;stroke-dasharray:2.19698, 1.09849;stroke-dashoffset:0;stroke-opacity:1;stop-color:#000000"
         d="m 354.81971,462.07817 c 0.13364,-0.54086 2.029,-13.37394 4.21192,-28.51795 4.45394,-30.89934 6.35438,-42.84708 8.57746,-53.92506 4.20213,-20.93985 8.93271,-34.23952 14.24691,-40.05411 3.66917,-4.01466 6.6783,-4.96294 10.25473,-3.23162 8.34852,4.04145 14.91441,22.78068 21.11261,60.25591 1.41232,8.53908 8.74305,58.30985 9.51474,64.59871 l 0.22793,1.85749 h -34.19464 -34.19464 z"
         id="path29826"
         transform="matrix(0.26458333,0,0,0.26458333,8.1251758,11.246513)" />
      <path
         style="opacity:1;fill:url(#linearGradient30421);fill-opacity:1;fill-rule:evenodd;stroke:none;stroke-width:1.09849;stroke-linejoin:round;stroke-miterlimit:4;stroke-dasharray:2.19698, 1.09849;stroke-dashoffset:0;stroke-opacity:1;stop-color:#000000"
         d="m 354.81971,462.07817 c 0.13364,-0.54086 2.029,-13.37394 4.21192,-28.51795 4.45394,-30.89934 6.35438,-42.84708 8.57746,-53.92506 4.20213,-20.93985 8.93271,-34.23952 14.24691,-40.05411 3.66917,-4.01466 6.6783,-4.96294 10.25473,-3.23162 8.34852,4.04145 14.91441,22.78068 21.11261,60.25591 1.41232,8.53908 8.74305,58.30985 9.51474,64.59871 l 0.22793,1.85749 h -34.19464 -34.19464 z"
         id="path29982"
         transform="matrix(0.26458333,0,0,0.26458333,8.1251758,11.246513)" />
    </g>
    <text
       xml:space="preserve"
       style="font-style:normal;font-weight:normal;font-size:5.64444px;line-height:1.25;font-family:sans-serif;letter-spacing:0px;word-spacing:0px;fill:#000000;fill-opacity:1;stroke:none;stroke-width:0.264583"
       x="7.5248523"
       y="-3.8361042"
       id="text37567"><tspan
         sodipodi:role="line"
         id="tspan37565"
         style="font-style:normal;font-variant:normal;font-weight:normal;font-stretch:normal;font-family:'TeX Gyre Pagella';-inkscape-font-specification:'TeX Gyre Pagella';stroke-width:0.264583"
         x="7.5248523"
         y="-3.8361042">0</tspan></text>
    <text
       xml:space="preserve"
       style="font-style:normal;font-weight:normal;font-size:5.64444px;line-height:1.25;font-family:sans-serif;letter-spacing:0px;word-spacing:0px;fill:#000000;fill-opacity:1;stroke:none;stroke-width:0.264583"
       x="7.3377657"
       y="82.17157"
       id="text37567-3"><tspan
         sodipodi:role="line"
         id="tspan37565-3"
         style="font-style:normal;font-variant:normal;font-weight:normal;font-stretch:normal;font-family:'TeX Gyre Pagella';-inkscape-font-specification:'TeX Gyre Pagella';stroke-width:0.264583"
         x="7.3377657"
         y="82.17157">0</tspan></text>
    <g
       inkscape:label=""
       transform="matrix(0.57563239,0,0,0.57563239,126.17709,-48.175941)"
       id="g40679">
      <g
         style="fill:#000000;fill-opacity:1"
         id="g3081">
        <use
           xlink:href="#symbol4017"
           x="91.925003"
           y="81.962997"
           id="use3664"
           width="100%"
           height="100%" />
      </g>
      <g
         style="fill:#000000;fill-opacity:1"
         id="g5940">
        <use
           xlink:href="#symbol4275"
           x="98.484001"
           y="81.962997"
           id="use8798"
           width="100%"
           height="100%" />
      </g>
      <g
         style="fill:#000000;fill-opacity:1"
         id="g5683">
        <use
           xlink:href="#symbol3326"
           x="102.358"
           y="81.962997"
           id="use264"
           width="100%"
           height="100%" />
      </g>
      <g
         style="fill:#000000;fill-opacity:1"
         id="g7658">
        <use
           xlink:href="#symbol2812"
           x="110.266"
           y="81.962997"
           id="use1093"
           width="100%"
           height="100%" />
      </g>
      <use
         xlink:href="#symbol2272"
         x="120.229"
         y="81.962997"
         id="use4852"
         width="100%"
         height="100%"
         style="fill:#000000;fill-opacity:1" />
      <use
         xlink:href="#symbol2272"
         x="120.229"
         y="81.962997"
         id="use4852-3"
         width="100%"
         height="100%"
         style="fill:#000000;fill-opacity:1"
         transform="matrix(0.96247805,0,0,0.96247805,-38.044576,12.484253)" />
      <g
         style="fill:#000000;fill-opacity:1"
         id="g8137">
        <use
           xlink:href="#symbol9618"
           x="125.471"
           y="81.962997"
           id="use1006"
           width="100%"
           height="100%" />
      </g>
    </g>
    <text
       xml:space="preserve"
       style="font-style:normal;font-weight:normal;font-size:5.64444px;line-height:1.25;font-family:sans-serif;letter-spacing:0px;word-spacing:0px;fill:#000000;fill-opacity:1;stroke:none;stroke-width:0.264583"
       x="204.11023"
       y="-0.61135632"
       id="text46273"><tspan
         sodipodi:role="line"
         id="tspan46271"
         style="font-style:normal;font-variant:normal;font-weight:normal;font-stretch:normal;font-family:'TeX Gyre Pagella';-inkscape-font-specification:'TeX Gyre Pagella';stroke-width:0.264583"
         x="204.11023"
         y="-0.61135632">Interaction latérale</tspan></text>
    <text
       xml:space="preserve"
       style="font-style:normal;font-weight:normal;font-size:5.64444px;line-height:1.25;font-family:sans-serif;letter-spacing:0px;word-spacing:0px;fill:#000000;fill-opacity:1;stroke:none;stroke-width:0.264583"
       x="204.11023"
       y="73.142418"
       id="text47239"><tspan
         sodipodi:role="line"
         id="tspan47237"
         style="font-style:normal;font-variant:normal;font-weight:normal;font-stretch:normal;font-family:'TeX Gyre Pagella';-inkscape-font-specification:'TeX Gyre Pagella';stroke-width:0.264583"
         x="204.11023"
         y="73.142418">Entrée</tspan></text>
    <text
       xml:space="preserve"
       style="font-style:normal;font-weight:normal;font-size:5.64444px;line-height:1.25;font-family:sans-serif;letter-spacing:0px;word-spacing:0px;fill:#000000;fill-opacity:1;stroke:none;stroke-width:0.264583"
       x="204.14973"
       y="82.478523"
       id="text50169"><tspan
         sodipodi:role="line"
         id="tspan50167"
         style="font-style:normal;font-variant:normal;font-weight:normal;font-stretch:normal;font-family:'TeX Gyre Pagella';-inkscape-font-specification:'TeX Gyre Pagella';fill:#ff0000;fill-opacity:1;stroke-width:0.264583"
         x="204.14973"
         y="82.478523">Activation (sortie)</tspan></text>
    <text
       xml:space="preserve"
       style="font-style:normal;font-weight:normal;font-size:5.64444px;line-height:1.25;font-family:sans-serif;letter-spacing:0px;word-spacing:0px;fill:#000000;fill-opacity:1;stroke:none;stroke-width:0.264583"
       x="204.11023"
       y="92.897072"
       id="text51639"><tspan
         sodipodi:role="line"
         id="tspan51637"
         style="font-style:normal;font-variant:normal;font-weight:normal;font-stretch:normal;font-family:'TeX Gyre Pagella';-inkscape-font-specification:'TeX Gyre Pagella';stroke-width:0.264583"
         x="204.11023"
         y="92.897072">Potentiel</tspan></text>
    <path
       style="fill:none;stroke:#000000;stroke-width:0.365;stroke-linecap:butt;stroke-linejoin:miter;stroke-opacity:1;stroke-miterlimit:4;stroke-dasharray:none;marker-end:url(#Arrow1Mend)"
       d="M 12.338388,-4.0401361 H 174.81699"
       id="path1189" />
  </g>
</svg>
