<?xml version="1.0" encoding="UTF-8" standalone="no"?>
<svg
   width="697.68pt"
   height="339.84pt"
   viewBox="0 0 697.68 339.84"
   version="1.1"
   id="svg478"
   sodipodi:docname="grid_torsion.svg"
   inkscape:version="1.1.2 (0a00cf5339, 2022-02-04)"
   xmlns:inkscape="http://www.inkscape.org/namespaces/inkscape"
   xmlns:sodipodi="http://sodipodi.sourceforge.net/DTD/sodipodi-0.dtd"
   xmlns:xlink="http://www.w3.org/1999/xlink"
   xmlns="http://www.w3.org/2000/svg"
   xmlns:svg="http://www.w3.org/2000/svg"
   xmlns:rdf="http://www.w3.org/1999/02/22-rdf-syntax-ns#"
   xmlns:cc="http://creativecommons.org/ns#"
   xmlns:dc="http://purl.org/dc/elements/1.1/">
  <sodipodi:namedview
     id="namedview480"
     pagecolor="#ffffff"
     bordercolor="#666666"
     borderopacity="1.0"
     inkscape:pageshadow="2"
     inkscape:pageopacity="0.0"
     inkscape:pagecheckerboard="0"
     inkscape:document-units="pt"
     showgrid="false"
     inkscape:zoom="0.52325295"
     inkscape:cx="929.76064"
     inkscape:cy="298.13496"
     inkscape:window-width="1314"
     inkscape:window-height="679"
     inkscape:window-x="26"
     inkscape:window-y="23"
     inkscape:window-maximized="0"
     inkscape:current-layer="svg478" />
  <metadata
     id="metadata2">
    <rdf:RDF>
      <cc:Work>
        <dc:type
           rdf:resource="http://purl.org/dc/dcmitype/StillImage" />
        <dc:date>2023-02-18T13:11:22.565282</dc:date>
        <dc:format>image/svg+xml</dc:format>
        <dc:creator>
          <cc:Agent>
            <dc:title>Matplotlib v3.6.3, https://matplotlib.org/</dc:title>
          </cc:Agent>
        </dc:creator>
      </cc:Work>
    </rdf:RDF>
  </metadata>
  <defs
     id="defs6">
    <style
       type="text/css"
       id="style4">*{stroke-linejoin: round; stroke-linecap: butt}</style>
  </defs>
  <g
     id="matplotlib.axis_1">
    <g
       id="xtick_1">
      <g
         id="line2d_1">
        <defs
           id="defs15">
          <path
             id="mf8b6d52523"
             d="M 0,0 V 3.5"
             style="stroke:#000000;stroke-width:0.8" />
        </defs>
        <g
           id="g19">
          <use
             xlink:href="#mf8b6d52523"
             x="45.575043"
             y="301.39093"
             style="stroke:#000000;stroke-width:0.8"
             id="use17"
             width="100%"
             height="100%" />
        </g>
      </g>
      <g
         id="text_1">
        <!-- $\mathdefault{0.0}$ -->
        <g
           transform="matrix(0.16,0,0,-0.16,35.603283,319.46052)"
           id="g32">
          <defs
             id="defs24">
            <path
               id="CMR17-30"
               d="m 2688,2025 c 0,391 -6,1055 -275,1566 -237,448 -615,607 -947,607 -308,0 -698,-140 -941,-601 C 269,3118 243,2524 243,2025 c 0,-364 7,-919 205,-1406 275,-658 768,-747 1018,-747 294,0 742,121 1004,728 192,442 218,959 218,1425 z M 1466,-26 c -410,0 -653,351 -743,838 -70,376 -70,926 -70,1284 0,492 0,901 83,1291 122,542 480,709 730,709 262,0 601,-173 723,-696 83,-364 89,-793 89,-1304 0,-416 0,-927 -76,-1304 C 2067,95 1690,-26 1466,-26 Z"
               transform="scale(0.015625)" />
            <path
               id="CMMI12-3a"
               d="M 1178,307 C 1178,492 1024,619 870,619 685,619 557,466 557,313 557,128 710,0 864,0 c 186,0 314,153 314,307 z"
               transform="scale(0.015625)" />
          </defs>
          <use
             xlink:href="#CMR17-30"
             transform="scale(0.996264)"
             id="use26"
             x="0"
             y="0"
             width="100%"
             height="100%" />
          <use
             xlink:href="#CMMI12-3a"
             transform="matrix(0.996264,0,0,0.996264,45.690477,0)"
             id="use28"
             x="0"
             y="0"
             width="100%"
             height="100%" />
          <use
             xlink:href="#CMR17-30"
             transform="matrix(0.996264,0,0,0.996264,72.787654,0)"
             id="use30"
             x="0"
             y="0"
             width="100%"
             height="100%" />
        </g>
      </g>
    </g>
    <g
       id="xtick_2">
      <g
         id="line2d_2">
        <g
           id="g38">
          <use
             xlink:href="#mf8b6d52523"
             x="108.27019"
             y="301.39093"
             style="stroke:#000000;stroke-width:0.8"
             id="use36"
             width="100%"
             height="100%" />
        </g>
      </g>
      <g
         id="text_2">
        <!-- $\mathdefault{0.2}$ -->
        <g
           transform="matrix(0.16,0,0,-0.16,98.29843,319.46052)"
           id="g50">
          <defs
             id="defs42">
            <path
               id="CMR17-32"
               d="M 2669,989 H 2554 C 2490,536 2438,459 2413,420 2381,369 1920,369 1830,369 H 602 c 230,250 678,703 1222,1228 390,370 845,805 845,1438 0,755 -602,1189 -1274,1189 -704,0 -1133,-620 -1133,-1194 0,-250 186,-282 263,-282 64,0 256,39 256,262 0,197 -167,254 -256,254 -39,0 -77,-6 -103,-19 122,545 493,813 884,813 556,0 921,-441 921,-1023 0,-556 -326,-1035 -691,-1451 L 262,146 V 0 h 2253 z"
               transform="scale(0.015625)" />
          </defs>
          <use
             xlink:href="#CMR17-30"
             transform="scale(0.996264)"
             id="use44"
             x="0"
             y="0"
             width="100%"
             height="100%" />
          <use
             xlink:href="#CMMI12-3a"
             transform="matrix(0.996264,0,0,0.996264,45.690477,0)"
             id="use46"
             x="0"
             y="0"
             width="100%"
             height="100%" />
          <use
             xlink:href="#CMR17-32"
             transform="matrix(0.996264,0,0,0.996264,72.787654,0)"
             id="use48"
             x="0"
             y="0"
             width="100%"
             height="100%" />
        </g>
      </g>
    </g>
    <g
       id="xtick_3">
      <g
         id="line2d_3">
        <g
           id="g56">
          <use
             xlink:href="#mf8b6d52523"
             x="170.96533"
             y="301.39093"
             style="stroke:#000000;stroke-width:0.8"
             id="use54"
             width="100%"
             height="100%" />
        </g>
      </g>
      <g
         id="text_3">
        <!-- $\mathdefault{0.4}$ -->
        <g
           transform="matrix(0.16,0,0,-0.16,160.99358,319.46052)"
           id="g68">
          <defs
             id="defs60">
            <path
               id="CMR17-34"
               d="m 2150,4122 c 0,134 -6,134 -121,134 L 128,1254 V 1088 H 1779 V 457 c 0,-233 -13,-297 -461,-297 H 1197 V 0 c 205,0 550,0 768,0 217,0 563,0 768,0 v 160 h -122 c -448,0 -461,64 -461,297 v 631 h 653 v 166 H 2150 Z M 1798,3703 V 1254 H 256 Z"
               transform="scale(0.015625)" />
          </defs>
          <use
             xlink:href="#CMR17-30"
             transform="scale(0.996264)"
             id="use62"
             x="0"
             y="0"
             width="100%"
             height="100%" />
          <use
             xlink:href="#CMMI12-3a"
             transform="matrix(0.996264,0,0,0.996264,45.690477,0)"
             id="use64"
             x="0"
             y="0"
             width="100%"
             height="100%" />
          <use
             xlink:href="#CMR17-34"
             transform="matrix(0.996264,0,0,0.996264,72.787654,0)"
             id="use66"
             x="0"
             y="0"
             width="100%"
             height="100%" />
        </g>
      </g>
    </g>
    <g
       id="xtick_4">
      <g
         id="line2d_4">
        <g
           id="g74">
          <use
             xlink:href="#mf8b6d52523"
             x="233.66049"
             y="301.39093"
             style="stroke:#000000;stroke-width:0.8"
             id="use72"
             width="100%"
             height="100%" />
        </g>
      </g>
      <g
         id="text_4">
        <!-- $\mathdefault{0.6}$ -->
        <g
           transform="matrix(0.16,0,0,-0.16,223.68872,319.46052)"
           id="g86">
          <defs
             id="defs78">
            <path
               id="CMR17-36"
               d="m 678,2176 c 0,1514 717,1856 1133,1856 135,0 461,-23 589,-256 -102,0 -294,0 -294,-223 0,-172 140,-230 230,-230 58,0 230,25 230,237 0,394 -320,619 -761,619 -762,0 -1562,-789 -1562,-2195 0,-1731 723,-2112 1235,-2112 621,0 1210,555 1210,1411 0,798 -518,1379 -1171,1379 -391,0 -679,-255 -839,-702 z M 1478,25 c -787,0 -787,1175 -787,1411 0,460 218,1124 813,1124 109,0 422,0 634,-440 115,-250 115,-511 115,-831 0,-345 0,-599 -135,-855 C 1978,171 1773,25 1478,25 Z"
               transform="scale(0.015625)" />
          </defs>
          <use
             xlink:href="#CMR17-30"
             transform="scale(0.996264)"
             id="use80"
             x="0"
             y="0"
             width="100%"
             height="100%" />
          <use
             xlink:href="#CMMI12-3a"
             transform="matrix(0.996264,0,0,0.996264,45.690477,0)"
             id="use82"
             x="0"
             y="0"
             width="100%"
             height="100%" />
          <use
             xlink:href="#CMR17-36"
             transform="matrix(0.996264,0,0,0.996264,72.787654,0)"
             id="use84"
             x="0"
             y="0"
             width="100%"
             height="100%" />
        </g>
      </g>
    </g>
    <g
       id="xtick_5">
      <g
         id="line2d_5">
        <g
           id="g92">
          <use
             xlink:href="#mf8b6d52523"
             x="296.35562"
             y="301.39093"
             style="stroke:#000000;stroke-width:0.8"
             id="use90"
             width="100%"
             height="100%" />
        </g>
      </g>
      <g
         id="text_5">
        <!-- $\mathdefault{0.8}$ -->
        <g
           transform="matrix(0.16,0,0,-0.16,286.38387,319.46052)"
           id="g104">
          <defs
             id="defs96">
            <path
               id="CMR17-38"
               d="m 1741,2264 c 403,203 813,509 813,999 0,578 -564,916 -1082,916 -582,0 -1094,-420 -1094,-999 0,-159 38,-433 288,-675 64,-63 332,-254 505,-375 C 883,1983 211,1634 211,934 211,279 838,-128 1459,-128 c 685,0 1261,490 1261,1138 0,580 -390,847 -646,1019 z m -839,558 c -51,32 -307,229 -307,529 0,388 403,681 864,681 506,0 877,-356 877,-770 0,-593 -666,-931 -698,-931 -6,0 -12,0 -64,39 z M 2080,1519 c 96,-70 403,-279 403,-668 C 2483,381 2010,25 1472,25 890,25 448,438 448,940 c 0,503 390,922 832,1120 z"
               transform="scale(0.015625)" />
          </defs>
          <use
             xlink:href="#CMR17-30"
             transform="scale(0.996264)"
             id="use98"
             x="0"
             y="0"
             width="100%"
             height="100%" />
          <use
             xlink:href="#CMMI12-3a"
             transform="matrix(0.996264,0,0,0.996264,45.690477,0)"
             id="use100"
             x="0"
             y="0"
             width="100%"
             height="100%" />
          <use
             xlink:href="#CMR17-38"
             transform="matrix(0.996264,0,0,0.996264,72.787654,0)"
             id="use102"
             x="0"
             y="0"
             width="100%"
             height="100%" />
        </g>
      </g>
    </g>
  </g>
  <g
     id="matplotlib.axis_2">
    <g
       id="ytick_1">
      <g
         id="line2d_6">
        <defs
           id="defs110">
          <path
             id="m49062d3215"
             d="M 0,0 H -3.5"
             style="stroke:#000000;stroke-width:0.8" />
        </defs>
        <g
           id="g114">
          <use
             xlink:href="#m49062d3215"
             x="44.223522"
             y="251.76967"
             style="stroke:#000000;stroke-width:0.8"
             id="use112"
             width="100%"
             height="100%" />
        </g>
      </g>
      <g
         id="text_6">
        <!-- $\mathdefault{0.2}$ -->
        <g
           transform="matrix(0.16,0,0,-0.16,17.28,257.30446)"
           id="g123">
          <use
             xlink:href="#CMR17-30"
             transform="scale(0.996264)"
             id="use117"
             x="0"
             y="0"
             width="100%"
             height="100%" />
          <use
             xlink:href="#CMMI12-3a"
             transform="matrix(0.996264,0,0,0.996264,45.690477,0)"
             id="use119"
             x="0"
             y="0"
             width="100%"
             height="100%" />
          <use
             xlink:href="#CMR17-32"
             transform="matrix(0.996264,0,0,0.996264,72.787654,0)"
             id="use121"
             x="0"
             y="0"
             width="100%"
             height="100%" />
        </g>
      </g>
    </g>
    <g
       id="ytick_2">
      <g
         id="line2d_7">
        <g
           id="g129">
          <use
             xlink:href="#m49062d3215"
             x="44.223522"
             y="196.48634"
             style="stroke:#000000;stroke-width:0.8"
             id="use127"
             width="100%"
             height="100%" />
        </g>
      </g>
      <g
         id="text_7">
        <!-- $\mathdefault{0.4}$ -->
        <g
           transform="matrix(0.16,0,0,-0.16,17.28,202.02114)"
           id="g138">
          <use
             xlink:href="#CMR17-30"
             transform="scale(0.996264)"
             id="use132"
             x="0"
             y="0"
             width="100%"
             height="100%" />
          <use
             xlink:href="#CMMI12-3a"
             transform="matrix(0.996264,0,0,0.996264,45.690477,0)"
             id="use134"
             x="0"
             y="0"
             width="100%"
             height="100%" />
          <use
             xlink:href="#CMR17-34"
             transform="matrix(0.996264,0,0,0.996264,72.787654,0)"
             id="use136"
             x="0"
             y="0"
             width="100%"
             height="100%" />
        </g>
      </g>
    </g>
    <g
       id="ytick_3">
      <g
         id="line2d_8">
        <g
           id="g144">
          <use
             xlink:href="#m49062d3215"
             x="44.223522"
             y="141.20303"
             style="stroke:#000000;stroke-width:0.8"
             id="use142"
             width="100%"
             height="100%" />
        </g>
      </g>
      <g
         id="text_8">
        <!-- $\mathdefault{0.6}$ -->
        <g
           transform="matrix(0.16,0,0,-0.16,17.28,146.73783)"
           id="g153">
          <use
             xlink:href="#CMR17-30"
             transform="scale(0.996264)"
             id="use147"
             x="0"
             y="0"
             width="100%"
             height="100%" />
          <use
             xlink:href="#CMMI12-3a"
             transform="matrix(0.996264,0,0,0.996264,45.690477,0)"
             id="use149"
             x="0"
             y="0"
             width="100%"
             height="100%" />
          <use
             xlink:href="#CMR17-36"
             transform="matrix(0.996264,0,0,0.996264,72.787654,0)"
             id="use151"
             x="0"
             y="0"
             width="100%"
             height="100%" />
        </g>
      </g>
    </g>
    <g
       id="ytick_4">
      <g
         id="line2d_9">
        <g
           id="g159">
          <use
             xlink:href="#m49062d3215"
             x="44.223522"
             y="85.919724"
             style="stroke:#000000;stroke-width:0.8"
             id="use157"
             width="100%"
             height="100%" />
        </g>
      </g>
      <g
         id="text_9">
        <!-- $\mathdefault{0.8}$ -->
        <g
           transform="matrix(0.16,0,0,-0.16,17.28,91.45452)"
           id="g168">
          <use
             xlink:href="#CMR17-30"
             transform="scale(0.996264)"
             id="use162"
             x="0"
             y="0"
             width="100%"
             height="100%" />
          <use
             xlink:href="#CMMI12-3a"
             transform="matrix(0.996264,0,0,0.996264,45.690477,0)"
             id="use164"
             x="0"
             y="0"
             width="100%"
             height="100%" />
          <use
             xlink:href="#CMR17-38"
             transform="matrix(0.996264,0,0,0.996264,72.787654,0)"
             id="use166"
             x="0"
             y="0"
             width="100%"
             height="100%" />
        </g>
      </g>
    </g>
  </g>
  <g
     id="line2d_10">
    <path
       d="m 57.859055,50.090456 0.702725,-0.119062 1.240068,0.11373 1.288347,0.07681 1.420899,0.121141 1.426552,0.07949 1.475818,0.02323 1.48551,-0.0069 1.585326,-0.02949 1.555349,-0.08306 1.573032,-0.08799 1.571759,-0.09979 1.566599,0.0023 1.548469,-0.0373 1.551073,-0.0062 1.61729,0.0076 1.767863,0.0229 1.793037,0.06422 1.96378,0.136433 2.015693,0.157079 2.156784,0.28026 2.184712,0.261666 1.96588,0.290255 1.991002,0.24317 1.885768,0.266055 1.939909,0.227898 2.044231,0.198321 2.03362,0.162028 2.10232,0.224867 2.08398,0.178414 2.33226,0.145631 2.3655,0.103671 2.34161,0.08375 2.26402,0.0941 2.23055,0.11098 2.22763,0.08807 2.37453,0.04174 2.33628,-0.03483 2.3178,-0.07857 2.3245,-0.124811 2.36884,-0.109058 2.3487,-0.117546 2.3506,-0.142827 2.38969,-0.192716 2.39666,-0.246853 2.33476,-0.230271 2.30585,-0.157785 2.36504,-0.177438 2.38566,-0.159312 2.55498,-0.10537 2.98831,-0.05843 3.20248,-0.06307 3.42417,-0.04054 3.45525,0.0019 3.55112,0.02484 3.52536,0.01572 3.66596,0.101728 3.70531,0.09185 3.5245,0.09473 3.28648,0.08434 3.06751,0.08018 2.95248,0.04461 3.07546,0.07024 2.9324,0.03188 2.90634,0.06386 3.01654,0.05887 3.04377,0.02969 3.04155,5.76e-4 3.12177,0.02317 3.14211,-0.02247 2.95214,0.108826 2.92472,0.06579 2.94192,0.05332 2.88829,0.01818 3.07617,0.02446 3.10837,0.06911 2.90041,0.08588 2.95264,0.06753 3.06802,0.0752 2.89459,0.105052 4.08903,-0.137735 4.35405,-0.196949 4.68783,-0.03146 4.76833,-0.03121 4.55209,-0.02832 4.3904,-0.02858 4.34623,0.0096 4.22729,0.04561 4.18265,0.03145 4.04422,-0.01461 3.54195,-0.06802 3.44749,-0.110668 3.25729,-0.131582 3.18196,-0.175903 3.11613,-0.159495 3.06096,-0.212096 2.77412,-0.307189 2.78392,-0.36776 2.54907,-0.330889 2.5044,-0.366514"
       clip-path="url(#p030045ed50)"
       style="fill:none;stroke:#000000;stroke-width:1.5;stroke-linecap:square;stroke-opacity:0.7"
       id="path173" />
  </g>
  <g
     id="line2d_11">
    <path
       d="m 59.354784,289.02113 0.452595,0.26954 0.691463,0.0401 0.692994,0.0878 0.832954,-0.0146 0.953732,-0.0316 1.143191,-0.12351 1.216557,-0.10669 1.371677,-0.16751 1.410837,-0.11372 1.481018,-0.16709 1.589143,-0.19798 1.847531,-0.16943 1.913929,-0.14733 2.082316,-0.22085 2.081251,-0.22578 2.264408,-0.36249 2.246971,-0.39903 2.336165,-0.37553 2.375052,-0.3886 2.431642,-0.41923 2.225241,-0.3599 1.93829,-0.18777 2.019233,-0.15488 1.887909,-0.1015 1.820447,-0.0653 1.78816,-0.0472 1.81061,-0.0221 1.93932,-0.047 2.07516,-0.009 1.99693,0.0239 1.93076,0.0689 2.0608,-0.008 2.09109,0.0565 2.19742,0.0681 2.24693,0.12535 2.21784,0.11588 2.26522,0.097 2.64813,0.10781 2.57209,0.14199 2.4937,6.3e-4 2.51998,-0.0558 2.82472,-0.22614 2.775,-0.18044 2.82532,-0.16676 2.81347,-0.15534 2.86168,-0.2199 2.79708,-0.14458 2.9564,-0.0782 2.9743,-0.056 3.01954,0.007 2.93216,0.0363 2.937,0.11595 2.94871,0.13865 2.93748,0.0891 2.86041,0.11315 2.77444,0.0901 2.6942,0.11814 2.82759,-0.009 2.84708,0.0586 2.99996,0.0611 2.90364,0.10667 2.76318,0.041 2.83732,0.0722 3.09341,0.16876 3.17622,0.1948 3.18733,0.17309 2.94152,0.14848 2.68324,0.0386 2.65752,0.065 2.68402,0.0371 2.70796,0.0499 2.97701,-0.0324 3.17594,-0.0448 3.12308,-0.0511 3.2404,-0.0736 3.40911,-0.0392 3.51215,-0.0723 3.37012,-0.19065 3.29189,-0.19669 4.52451,-0.0874 4.77049,-0.0638 4.42188,-0.0511 4.3105,-0.0374 4.21641,-0.16365 4.32852,-0.1862 4.33262,-0.23893 4.30418,-0.22176 3.98929,-0.27511 3.95964,-0.23308 3.64232,-0.19726 3.46518,-0.14786 3.24167,-0.14047 3.17507,-0.0768 3.01279,-0.0672 2.99203,-0.0205 2.97834,4.7e-4 2.93958,0.08 2.6511,0.15005 2.55563,0.17516"
       clip-path="url(#p030045ed50)"
       style="fill:none;stroke:#000000;stroke-width:1.5;stroke-linecap:square;stroke-opacity:0.7"
       id="path176" />
  </g>
  <g
     id="line2d_12">
    <path
       d="m 57.859055,50.090456 0.122522,1.181975 0.167389,1.331214 0.109061,1.620356 0.08826,1.78991 0.06956,1.864819 0.03431,2.021468 0.03431,2.06426 0.0147,2.10537 0.0019,2.327659 -0.01479,2.370777 0.02466,2.334121 0.0393,2.399117 0.04841,2.640562 0.0656,2.825756 0.07322,2.88349 0.131216,2.857336 0.137846,2.789063 0.154513,2.728606 0.150703,2.758367 0.08768,2.936026 -0.02914,2.261729 -0.03739,2.223273 0.02498,2.45252 0.05818,2.5441 0.06902,2.58447 0.09048,2.64792 0.09089,2.74933 0.09774,2.74059 0.09009,2.60521 0.0782,2.56562 0.0095,2.52235 3.4e-4,2.534 0.01859,2.5777 0.0059,2.55089 -0.01551,2.58862 -0.02054,2.88382 -0.05991,2.87074 -0.1074,2.65833 -0.100586,2.74024 -0.0504,2.64636 -0.04964,2.53814 -0.02914,2.42582 -0.05859,2.21358 -0.05617,2.26807 -0.06563,2.22188 -0.07726,2.25825 -0.06496,2.27552 -0.08543,2.33103 -0.105868,2.30342 -0.09541,2.40703 -0.06129,2.46257 -0.0039,2.44931 0.02244,2.32192 -10e-4,2.39865 -0.01398,2.45392 0.01389,2.6162 0.0247,2.80242 0.05602,2.9055 0.07592,2.91708 0.07264,2.70202 0.0784,2.6782 0.06702,2.74306 0.04063,2.66104 0.05698,2.53469 0.04187,2.65337 0.04871,2.54191 -0.02359,2.55354 -0.02238,2.42495 -0.04584,2.36499 -0.06882,2.31694 -0.126173,2.29348 -0.0958,2.18359 -0.10136,2.27793 -0.0963,2.38623 -0.116812,2.37159 -0.145796,2.36276 -0.161473,2.39605 -0.196254,2.28883 -0.179917,2.18277 -0.186646,2.91943 -0.156835,3.28092 -0.06784,3.28259 -0.04134,3.1755 -0.03449,2.99442 0.0077,2.99182 0.03065,2.80422 0.132021,2.76906 0.155934,2.4653 0.158912,2.33288 0.155532,2.22792 0.140896,2.12683 0.144243,1.97754 0.13976,1.8726 0.147913,1.8066 0.152091,1.67096 0.1341,1.51351 0.09897,1.35292 0.07776,1.15052 0.102494,0.94882"
       clip-path="url(#p030045ed50)"
       style="fill:none;stroke:#000000;stroke-width:1.5;stroke-linecap:square;stroke-opacity:0.7"
       id="path179" />
  </g>
  <g
     id="line2d_13">
    <path
       d="m 322.50746,50.243788 -0.44227,1.346232 -0.22774,1.449309 -0.0753,1.520475 0.0774,1.623097 0.16098,1.628254 0.21521,1.641245 0.27202,1.639797 0.37982,1.686625 0.27998,1.674551 0.0483,1.802695 0.0857,2.075678 0.11988,2.23294 0.0858,2.372671 0.18967,2.697243 0.30959,2.950235 0.29374,3.245862 0.21612,3.296332 0.0858,3.47258 0.0101,3.46316 -0.0923,3.189512 0.12154,2.536416 -0.10796,2.523643 -0.16814,2.51714 -0.23883,2.55398 -0.19245,2.68968 -0.18706,2.75401 -0.1792,2.80327 -0.18761,2.75864 -0.0869,2.5783 0.0362,2.49851 -0.0188,2.44692 0.005,2.37736 0.0118,2.33466 -0.10049,2.34923 -0.26291,2.29411 -0.35015,2.2193 -0.39094,2.26051 -0.38254,2.24421 -0.26927,2.25862 -0.15532,2.21586 -0.16337,2.24421 -0.0561,2.06973 0.0798,2.0211 0.17525,1.99433 0.0711,2.24745 -0.018,2.6184 -0.1369,2.74121 -0.10339,2.69915 -0.0883,2.7825 -0.15427,2.85639 -0.184,2.84743 -0.28148,2.83144 -0.24775,2.88633 -0.2285,2.87779 -0.0484,2.73099 0.0245,2.46072 0.0746,2.47199 -0.0301,2.50386 -0.10024,2.46029 -0.0898,2.45156 -0.0791,2.32358 -0.0622,2.35978 0.003,2.30195 0.039,2.25276 0.14371,2.27348 0.0161,2.20442 -0.015,2.21803 -0.11619,2.55329 -0.11755,2.56849 -0.10392,2.52126 -0.13866,2.64723 -0.16157,2.62836 -0.30264,2.54795 -0.54102,2.33906 -0.50126,2.41099 -0.42765,2.41514 -0.44169,2.30954 -0.34448,2.27617 -0.28316,2.17289 0.0457,2.89972 0.13949,3.08984 0.0677,3.1916 0.14563,3.01951 0.10794,2.84434 0.1324,2.62503 0.27579,2.44596 0.27536,2.33344 0.074,2.28357 0.0856,2.18777 0.0529,2.10343 0.0429,2.02691 0.0443,1.86817 0.18319,1.75369 0.36542,1.54284 0.49141,1.50801 0.55065,1.45848 0.66707,1.37647 0.69339,1.30056 0.77144,1.27197"
       clip-path="url(#p030045ed50)"
       style="fill:none;stroke:#000000;stroke-width:1.5;stroke-linecap:square;stroke-opacity:0.7"
       id="path182" />
  </g>
  <g
     id="line2d_14">
    <path
       d="m 59.399492,95.920708 0.682202,-0.04986 0.846671,-0.105583 0.88524,-0.114489 1.0133,-0.10493 1.037467,-0.115151 1.215701,-0.124473 1.410519,-0.0786 1.451948,-0.0082 1.427773,-0.02494 1.448921,-0.07603 1.581215,-0.138733 1.794125,-0.125421 1.900245,-0.08595 2.031083,-0.08873 2.152996,-0.04312 2.25803,-0.01972 2.446771,0.05467 2.434311,8.95e-4 2.476518,-0.09226 2.488333,-0.04371 2.262189,-0.05887 1.893479,-0.05292 1.945798,-0.03013 2.006603,0.04143 1.97058,0.07487 1.94429,0.08957 1.90359,0.08662 1.85929,0.08479 1.93598,0.09671 2.02908,0.07292 2.08936,0.02758 1.98399,-0.04617 1.94076,-0.04537 1.86046,-0.05014 1.85245,-0.011 1.93315,0.0601 1.92676,0.08994 1.9921,0.127197 2.14152,0.149786 2.16088,0.162089 2.25435,0.104076 2.2616,0.03203 2.40277,0.01262 2.56819,-0.01335 2.61586,0.01634 2.85975,0.0556 2.98843,0.06444 3.06756,0.06033 2.9837,0.09491 3.21718,0.06277 3.1689,0.04705 3.0797,0.01112 3.07564,-0.117836 3.09788,-0.16939 2.86327,-0.205989 2.91989,-0.212569 2.90463,-0.299908 2.91048,-0.247554 2.96248,-0.234956 2.84515,-0.245335 2.82734,-0.234446 2.94634,-0.132194 2.84313,-0.06898 2.95338,-0.07646 3.08142,-0.0827 3.10668,-0.100305 3.10004,-0.102233 3.20796,-0.06568 3.17231,-0.08306 3.03194,-0.01944 3.09613,-0.02985 3.17896,-0.04172 3.01105,0.03456 3.23477,0.110979 3.4056,0.03606 3.58246,0.145938 3.60983,0.180348 3.65437,0.139867 3.62215,0.145262 4.71821,0.107705 5.20485,0.100588 4.85205,0.184998 4.75864,0.109112 4.6794,-0.01298 4.67331,-0.04382 4.58587,-0.01553 4.45777,0.0436 4.17444,0.06502 3.93507,0.04835 3.67507,0.06553 3.50311,0.03458 3.33451,0.04758 3.21401,0.06354 3.03606,0.130306 2.81633,0.131001 2.49258,0.09272 2.3813,0.07419 2.2065,0.06088 2.0726,-0.01086"
       clip-path="url(#p030045ed50)"
       style="fill:none;stroke:#000000;stroke-width:1.5;stroke-linecap:square;stroke-opacity:0.7"
       id="path185" />
  </g>
  <g
     id="line2d_15">
    <path
       d="m 59.612518,147.86852 0.708926,-0.21934 0.824849,-0.18327 0.893217,-0.14376 0.981907,-0.12816 1.034362,-0.0782 1.051626,-0.0589 1.143769,-0.035 1.262375,-0.0311 1.371804,0.014 1.46465,-0.0311 1.498035,-0.0719 1.642969,-0.0834 1.758363,-0.007 1.918133,0.0464 2.055509,0.0299 2.143166,0.0201 2.286502,-0.082 2.420503,-0.12161 2.42563,-0.068 2.449277,-0.009 2.175176,-0.0425 2.022701,-0.0603 2.199262,-0.0838 2.202636,-0.15081 2.172075,-0.21354 2.14323,-0.19346 2.1343,-0.16589 2.0075,-0.14169 2.00908,-0.17875 2.15748,-0.20793 2.16132,-0.20384 2.15709,-0.1359 2.09631,-0.0981 2.08852,-0.12085 1.93047,-0.0749 1.9822,-0.0409 2.08525,-0.0229 2.15409,-0.096 2.32129,-0.17485 2.20112,-0.27653 2.24666,-0.25672 2.47411,-0.25722 2.59556,-0.23734 2.64236,-0.21782 2.609,-0.2295 2.51457,-0.11659 2.54833,-0.0998 2.79125,-0.14828 2.89256,-0.13628 2.82407,-0.13514 2.67167,-0.16061 2.61235,-0.12903 2.57089,-0.10668 2.55754,-0.0325 2.62094,-0.0205 2.6455,0.0914 2.61243,0.1661 2.58927,0.2375 2.66063,0.26656 3.18216,0.19569 3.22637,0.12898 3.44593,0.0522 3.66766,-0.0275 3.81922,0.0182 3.84699,0.0267 3.94792,0.0728 3.80791,0.0947 3.74914,0.10032 3.66678,-0.0236 3.60114,-0.0564 3.7454,-0.0168 3.66952,0.0191 3.65368,0.0515 3.59817,0.0291 3.518,0.0602 3.54473,0.0452 3.53922,0.0585 3.5815,0.11199 3.34984,0.12664 3.5097,0.11842 4.17176,0.0685 3.91902,0.10825 3.86181,0.0688 3.74105,0.0886 3.67769,0.12704 3.56243,0.11909 3.34217,0.1499 3.1382,0.10346 3.13847,0.0685 3.23167,0.042 3.15799,-0.006 3.11914,0.0323 3.09817,0.0205 3.11694,0.0529 3.1072,0.0269 2.87891,-0.0641 2.87256,-0.053 2.87178,-0.065 2.68881,-0.0289"
       clip-path="url(#p030045ed50)"
       style="fill:none;stroke:#000000;stroke-width:1.5;stroke-linecap:square;stroke-opacity:0.7"
       id="path188" />
  </g>
  <g
     id="line2d_16">
    <path
       d="m 59.10988,197.14085 0.968822,0.0265 1.142079,-0.009 1.211098,-0.0655 1.205557,-0.0659 1.320928,-0.0516 1.354721,-0.0162 1.339279,3.2e-4 1.428663,-0.003 1.495461,-0.0155 1.574871,-0.037 1.575632,-0.009 1.618521,-0.0589 1.70125,-0.0809 1.718531,-0.0505 1.712476,9.6e-4 1.667673,-0.1038 1.665984,-0.12698 1.796789,-0.15957 1.826253,-0.15516 2.023574,-0.17413 1.839557,-0.1522 1.814651,-0.14477 1.884671,-0.14176 1.919219,-0.1363 1.985555,-0.15761 1.990285,-0.14455 1.94094,-0.13816 2.02813,-0.20497 2.13015,-0.16437 2.15468,-0.13007 2.10773,-0.0883 2.11834,-0.0521 2.30411,-2.8e-4 2.30825,-0.01 2.47794,0.0145 2.62148,0.0667 2.65856,0.11366 2.69164,0.23038 2.63742,0.20187 2.62421,0.25455 2.76783,0.23651 2.68672,0.22068 2.64176,0.30093 2.70255,0.26392 2.715,0.29116 2.58616,0.3086 2.5097,0.28174 2.54845,0.20605 2.73053,0.23849 2.75217,0.19857 2.6533,0.13922 2.71001,0.15864 2.70223,0.11389 2.79755,-0.008 2.81822,0.079 2.47728,0.0513 2.33469,-0.004 2.26605,-0.0206 2.28895,0.005 2.29223,-0.0549 2.23269,-0.0239 2.51047,-0.0589 2.76021,-0.0358 3.01422,-0.0956 3.40308,-0.13776 4.07924,-0.12838 4.44311,-0.11009 4.2153,-0.11983 4.16048,-0.10576 4.19422,-0.0465 4.07505,-0.11459 4.07638,-0.12748 3.98989,-0.19625 4.05863,-0.27731 4.03393,-0.30726 4.12817,-0.20628 3.99059,-0.21838 3.69902,-0.2096 3.39391,-0.24168 3.63943,-0.20454 4.21564,-0.092 3.98329,-0.1333 3.7679,-0.082 3.60325,-0.0664 3.58441,0.0242 3.46511,0.0553 3.22306,0.0177 3.10105,0.0391 3.04927,0.0551 3.00034,0.0994 2.9466,0.0761 2.89397,8.4e-4 2.87585,-0.007 2.85642,-0.017 2.87788,-0.0528 2.88197,-0.0151 2.72308,0.0503 2.55602,0.041 2.51025,0.0268"
       clip-path="url(#p030045ed50)"
       style="fill:none;stroke:#000000;stroke-width:1.5;stroke-linecap:square;stroke-opacity:0.7"
       id="path191" />
  </g>
  <g
     id="line2d_17">
    <path
       d="m 57.876322,246.2762 0.579244,-0.0886 0.683409,-0.12523 0.804256,-0.21425 1.011809,-0.28821 1.213706,-0.30341 1.485963,-0.27916 1.522566,-0.20371 1.498573,-0.079 1.648545,-0.0246 1.727437,0.002 1.805727,-0.0417 2.140702,-0.15724 2.2071,-0.16615 2.206256,-0.0664 2.191744,-0.0137 2.245544,0.004 2.344109,0.0397 2.39251,0.0692 2.411633,0.135 2.520877,0.0674 2.167192,0.0461 1.92783,0.0165 1.844971,0.009 1.712215,-0.0826 1.74304,-0.0776 1.76883,-0.0781 1.72872,-0.0744 1.91814,-0.10118 1.97829,-0.0527 2.02049,-0.0606 2.02502,-0.0482 2.06521,-0.0793 2.33643,-0.008 2.5227,-0.0481 2.6359,-0.14015 2.69579,-0.19708 2.65695,-0.17119 2.58958,-0.11771 2.35411,-0.10242 2.28614,-0.0757 2.35384,-0.14232 2.32828,-0.12742 2.31686,-0.0568 2.23078,-0.0671 2.14935,-0.0643 2.11674,-0.0289 2.33478,-0.0805 2.49385,-0.0605 2.62238,-0.0808 2.73997,-0.0759 2.65436,-0.0477 2.53862,-0.0574 2.52185,0.0276 2.60228,0.0183 2.53341,0.063 2.5746,0.0577 2.55594,0.0439 2.52857,0.0482 2.55942,0.0962 2.6651,0.16375 2.77879,0.17678 2.99058,0.18739 3.13468,0.13662 3.41445,0.14081 3.67384,0.11375 3.75547,0.16068 3.74563,0.18312 3.84708,0.21681 4.15143,0.1777 3.98637,0.14356 3.91384,0.10365 3.85622,0.0647 3.79442,-0.0241 3.58038,0.0244 3.47739,0.0284 3.36482,0.0123 3.27428,0.0417 3.27555,0.0469 3.10677,0.0219 3.35767,0.0214 4.00585,0.0625 4.12156,-0.002 4.02257,0.014 3.89314,-0.0165 3.5113,-0.0609 3.45269,-0.093 3.39064,-0.14241 3.15506,-0.18439 3.10171,-0.16789 3.09205,-0.11679 3.1159,-0.10197 3.06042,-0.0505 3.02864,-0.0581 2.87142,0.005 2.89311,0.0301 2.77755,-0.005 2.64482,-0.0563 2.54385,-0.0956 2.42374,-0.17701"
       clip-path="url(#p030045ed50)"
       style="fill:none;stroke:#000000;stroke-width:1.5;stroke-linecap:square;stroke-opacity:0.7"
       id="path194" />
  </g>
  <g
     id="line2d_18">
    <path
       d="m 89.165028,50.705902 0.112084,1.102823 0.19737,1.396927 0.194671,1.473645 0.171658,1.476139 0.158191,1.524674 0.144439,1.685361 0.103777,1.727712 0.126576,1.999367 0.117129,2.086722 0.121363,2.342441 0.14358,2.442993 0.146558,2.534042 0.178521,2.579893 0.260936,2.572149 0.245166,2.667502 0.222859,2.812402 0.188686,2.901552 0.17572,2.910115 0.138121,2.880894 0.07043,2.71315 0.03873,2.185426 0.04464,2.06145 0.07015,1.984539 0.0802,2.09404 0.106007,2.28223 0.03399,2.3934 -0.03197,2.60487 -0.04807,2.67352 -0.06727,2.71136 -0.106976,2.71878 -0.128734,2.69986 -0.149083,2.57827 -0.169265,2.5824 -0.210781,2.73245 -0.235019,2.97293 -0.212804,3.11883 -0.203569,3.11034 -0.18116,2.96076 -0.07434,2.89979 0.01055,2.72529 -0.01061,2.50867 -0.02578,2.64775 9.87e-4,2.77545 -0.0019,2.73645 -0.01088,2.90053 -0.04909,2.5055 -0.07925,2.49117 -0.06628,2.44226 -0.0469,2.40689 -0.06538,2.54116 -0.05049,2.52303 -0.08562,2.4775 -0.08602,2.46342 -0.08386,2.42873 -0.09201,2.40706 -0.153454,2.41597 -0.197863,2.22887 -0.210576,2.1592 -0.104988,2.16603 -0.07008,2.13415 -0.07832,2.06824 -9e-4,2.07748 0.06208,2.06674 0.08238,2.13313 0.163865,2.19927 0.184442,2.36736 0.157424,2.38723 0.122185,2.5254 0.0944,2.52044 0.0709,2.46591 0.147149,2.42081 0.178033,2.45148 0.204579,2.46674 0.164405,2.4508 0.240017,2.58907 0.280161,2.62958 0.247554,2.55763 0.251379,2.65665 0.235532,2.71634 0.252721,2.8044 0.119089,3.04012 0.09931,2.89101 0.104446,2.87883 0.09865,2.94282 0.03247,3.09012 -0.01516,2.92191 -0.02186,2.76887 -0.104127,2.41316 -0.10079,2.1812 -0.136543,2.01964 -0.150828,1.90674 -0.180825,1.75428 -0.203279,1.67065 -0.264646,1.69639 -0.295885,1.65166 -0.258139,1.55545 -0.231739,1.45618 -0.163892,1.29587 -0.07407,1.11133"
       clip-path="url(#p030045ed50)"
       style="fill:none;stroke:#000000;stroke-width:1.5;stroke-linecap:square;stroke-opacity:0.7"
       id="path197" />
  </g>
  <g
     id="line2d_19">
    <path
       d="m 132.87997,53.079251 0.006,1.242014 -0.0431,1.342275 -0.0335,1.360503 -0.0412,1.434574 -0.0761,1.511153 -0.15994,1.745233 -0.1556,1.886446 -0.10045,1.948354 -0.0594,2.01444 -0.0559,2.085016 -0.0989,2.151438 -0.16812,2.288387 -0.0767,2.530311 -0.064,2.494427 0.0102,2.616857 -0.0662,2.754021 -0.0684,2.871907 0.0732,2.839102 0.15311,2.70527 0.16023,2.504418 0.18463,2.159128 0.18791,2.117681 0.21924,2.016194 0.21075,2.07759 0.18622,2.15955 0.17892,2.11464 0.13213,2.15198 0.14597,2.23268 0.20342,2.35549 0.21566,2.3972 0.1451,2.57686 0.0405,2.62935 0.0196,2.67173 -0.0526,2.62936 -0.0626,2.58441 -0.0832,2.61186 -0.12686,2.76244 -0.0817,2.84723 -0.12462,2.78374 -0.20428,2.65894 -0.18021,2.79766 -0.17788,2.73026 -0.0575,2.60891 -0.10417,2.47181 -0.085,2.25486 -0.10303,2.13946 -0.10485,2.27014 -0.0596,2.2676 -0.0503,2.23036 -0.0282,2.35419 -0.0193,2.46034 0.0148,2.46271 0.0911,2.537 0.0658,2.62094 0.15375,2.75029 0.1577,2.8741 0.18101,2.92677 0.20302,2.88417 0.1924,2.83385 0.25685,2.78435 0.26276,2.86696 0.24869,2.94224 0.19922,2.89169 0.20222,2.90839 0.19184,2.92154 0.18445,2.7883 0.17761,2.66556 0.14429,2.50508 0.044,2.35764 0.0541,2.42838 0.13994,2.35804 0.0902,2.15377 0.0563,1.9415 0.0377,1.91401 0.0435,1.93345 0.0667,2.02422 -0.0278,1.99331 -0.10381,1.99549 -0.1041,2.05889 -0.10772,2.24615 -0.0368,2.30885 -0.0983,2.49342 -0.18525,2.41314 -0.30211,2.39564 -0.3462,2.6755 -0.37763,2.65182 -0.33883,2.59087 -0.25077,2.40145 -0.13851,2.26506 0.0683,2.27783 0.0737,2.2586 0.018,2.19727 -0.0156,2.09573 -0.0283,2.10585 -0.0902,2.07967 -0.0704,1.94475 -0.0749,1.84933 -0.15109,1.84267 -0.15526,1.64606"
       clip-path="url(#p030045ed50)"
       style="fill:none;stroke:#000000;stroke-width:1.5;stroke-linecap:square;stroke-opacity:0.7"
       id="path200" />
  </g>
  <g
     id="line2d_20">
    <path
       d="m 191.70836,51.88235 0.064,1.224001 0.066,1.296468 0.0461,1.365554 0.0676,1.401889 0.0761,1.477256 0.13109,1.566265 0.0363,1.750553 -0.0492,1.867345 -0.17646,2.096051 -0.25147,2.293431 -0.22591,2.388954 -0.3065,2.567826 -0.304,2.66854 -0.21093,2.697777 -0.22061,2.779435 -0.23046,2.749555 -0.29309,2.790655 -0.25877,2.635078 -0.24748,2.468133 -0.35794,2.252687 -0.3574,2.042695 -0.23746,2.179644 -0.20871,2.337248 -0.24845,2.24889 -0.31692,2.31954 -0.24695,2.45734 -0.27864,2.39929 -0.32017,2.48112 -0.33025,2.57023 -0.27546,2.51891 -0.15487,2.40099 -0.13413,2.52815 -0.1221,2.4173 -0.16099,2.40819 -0.12483,2.36003 0.005,2.37406 0.0943,2.54532 0.14942,2.56617 0.19376,2.63319 0.22315,2.60856 0.20805,2.4854 0.19916,2.45724 0.2044,2.49899 0.2454,2.50655 0.13541,2.43563 0.0624,2.51148 -0.0526,2.60297 -0.10812,2.70112 -0.14223,2.7578 -0.0893,2.86028 -0.0943,2.86069 -1.3e-4,2.71725 -0.0357,2.88728 -0.10379,3.06271 -0.16934,3.21678 -0.2024,3.24481 -0.23127,3.17108 -0.18847,3.09508 -0.11693,2.8379 -0.0544,2.68147 -0.1179,2.68797 -0.0617,2.52516 -0.0475,2.34206 -0.10509,2.35406 -0.0549,2.30163 -0.11035,2.26755 -0.18931,2.21799 -0.21411,2.17404 -0.19885,2.19863 -0.16922,2.15576 -0.17445,2.08774 -0.12633,1.99717 0.002,1.99846 0.0569,2.01906 0.0741,2.11779 0.0971,2.11222 0.0848,2.09796 0.0982,2.12412 0.17491,2.11833 0.22171,2.61987 0.22585,3.03564 0.25999,3.20914 0.27808,3.18869 0.33057,3.11258 0.34783,3.22852 0.34122,3.13469 0.31808,2.88121 0.35207,2.6535 0.34523,2.47754 0.34679,2.24035 0.28927,1.8813 0.26918,1.75482 0.2258,1.70621 0.25261,1.57108 0.30355,1.45894 0.25118,1.29029 0.20495,1.24833 0.14644,1.20978 0.11676,1.11778"
       clip-path="url(#p030045ed50)"
       style="fill:none;stroke:#000000;stroke-width:1.5;stroke-linecap:square;stroke-opacity:0.7"
       id="path203" />
  </g>
  <g
     id="line2d_21">
    <path
       d="m 252.73708,52.718395 -0.0521,1.064423 0.0796,1.269403 0.0134,1.296904 -0.0179,1.344034 -0.0239,1.458158 0.052,1.485783 0.14968,1.555236 0.0472,1.639486 0.0418,1.815589 0.002,1.865038 -0.0636,1.928369 -0.039,2.236456 0.002,2.48362 0.0458,2.564504 0.18208,2.782926 0.35495,2.886591 0.38748,2.939598 0.29901,2.88216 0.15294,2.950227 0.0963,2.916565 0.0939,2.789402 0.1928,2.837676 0.16416,2.799827 0.16509,2.73009 0.21631,2.69152 0.17985,2.70247 0.17008,2.61074 0.22313,2.52912 0.31577,2.67661 0.48904,2.83391 0.35234,2.65853 0.29162,2.52087 0.38023,2.35984 0.37118,2.21031 0.36222,2.13156 0.29973,2.10446 0.11416,2.0368 0.0118,2.04349 -0.0737,2.07544 -0.0664,2.18085 0.0408,2.13416 0.0618,2.23415 -0.002,2.24225 0.001,2.28742 0.0154,2.32446 0.11863,2.4467 0.20163,2.42029 0.14466,2.39263 0.0863,2.4707 0.0131,2.65772 0.0235,2.72987 0.10483,2.66693 0.24471,2.59547 0.26717,2.70647 0.259,2.68221 0.0399,2.74408 -0.004,2.95051 -0.17819,3.03078 -0.21691,2.95893 -0.14708,2.96059 -0.29719,3.02344 -0.54828,2.85788 -0.50907,2.80681 -0.51313,2.70768 -0.49566,2.53913 -0.46433,2.51646 -0.36076,2.63532 -0.2467,2.58721 -0.19851,2.40924 -0.12369,2.24262 -0.0866,2.16168 -0.0343,2.12426 0.005,2.16091 -0.0885,2.25305 -0.11615,2.42583 -0.12904,2.4453 -0.12845,2.42114 -0.0718,2.3314 0.0325,2.24725 -0.005,2.56525 0.0283,2.919 -0.0938,2.83409 -0.11002,2.83901 -0.043,2.70954 -0.1132,2.59984 -0.15424,2.49218 -0.11127,2.37514 -0.19545,2.2604 -0.31425,2.19159 -0.39898,2.09266 -0.47997,2.02232 -0.47225,1.98556 -0.37387,1.90728 -0.12718,1.82259 0.0169,1.84457 0.0929,1.73366 0.0179,1.49996 -0.0726,1.34882 -0.11065,1.25129"
       clip-path="url(#p030045ed50)"
       style="fill:none;stroke:#000000;stroke-width:1.5;stroke-linecap:square;stroke-opacity:0.7"
       id="path206" />
  </g>
  <g
     id="patch_3">
    <path
       d="M 44.223522,301.39094 V 37.999035"
       style="fill:none;stroke:#000000;stroke-width:0.8;stroke-linecap:square;stroke-linejoin:miter"
       id="path209" />
  </g>
  <g
     id="patch_4">
    <path
       d="M 337.97396,301.39094 V 37.999035"
       style="fill:none;stroke:#000000;stroke-width:0.8;stroke-linecap:square;stroke-linejoin:miter"
       id="path212" />
  </g>
  <g
     id="patch_5">
    <path
       d="M 44.223522,301.39094 H 337.97396"
       style="fill:none;stroke:#000000;stroke-width:0.8;stroke-linecap:square;stroke-linejoin:miter"
       id="path215" />
  </g>
  <g
     id="patch_6">
    <path
       d="M 44.223522,37.999035 H 337.97396"
       style="fill:none;stroke:#000000;stroke-width:0.8;stroke-linecap:square;stroke-linejoin:miter"
       id="path218" />
  </g>
  <g
     id="matplotlib.axis_3">
    <g
       id="xtick_6">
      <g
         id="line2d_22">
        <g
           id="g262">
          <use
             xlink:href="#mf8b6d52523"
             x="434.87512"
             y="301.39093"
             style="stroke:#000000;stroke-width:0.8"
             id="use260"
             width="100%"
             height="100%" />
        </g>
      </g>
      <g
         id="text_11">
        <!-- $\mathdefault{0.2}$ -->
        <g
           transform="matrix(0.16,0,0,-0.16,424.90335,319.46052)"
           id="g271">
          <use
             xlink:href="#CMR17-30"
             transform="scale(0.996264)"
             id="use265"
             x="0"
             y="0"
             width="100%"
             height="100%" />
          <use
             xlink:href="#CMMI12-3a"
             transform="matrix(0.996264,0,0,0.996264,45.690477,0)"
             id="use267"
             x="0"
             y="0"
             width="100%"
             height="100%" />
          <use
             xlink:href="#CMR17-32"
             transform="matrix(0.996264,0,0,0.996264,72.787654,0)"
             id="use269"
             x="0"
             y="0"
             width="100%"
             height="100%" />
        </g>
      </g>
    </g>
    <g
       id="xtick_7">
      <g
         id="line2d_23">
        <g
           id="g277">
          <use
             xlink:href="#mf8b6d52523"
             x="493.76404"
             y="301.39093"
             style="stroke:#000000;stroke-width:0.8"
             id="use275"
             width="100%"
             height="100%" />
        </g>
      </g>
      <g
         id="text_12">
        <!-- $\mathdefault{0.4}$ -->
        <g
           transform="matrix(0.16,0,0,-0.16,483.79227,319.46052)"
           id="g286">
          <use
             xlink:href="#CMR17-30"
             transform="scale(0.996264)"
             id="use280"
             x="0"
             y="0"
             width="100%"
             height="100%" />
          <use
             xlink:href="#CMMI12-3a"
             transform="matrix(0.996264,0,0,0.996264,45.690477,0)"
             id="use282"
             x="0"
             y="0"
             width="100%"
             height="100%" />
          <use
             xlink:href="#CMR17-34"
             transform="matrix(0.996264,0,0,0.996264,72.787654,0)"
             id="use284"
             x="0"
             y="0"
             width="100%"
             height="100%" />
        </g>
      </g>
    </g>
    <g
       id="xtick_8">
      <g
         id="line2d_24">
        <g
           id="g292">
          <use
             xlink:href="#mf8b6d52523"
             x="552.65295"
             y="301.39093"
             style="stroke:#000000;stroke-width:0.8"
             id="use290"
             width="100%"
             height="100%" />
        </g>
      </g>
      <g
         id="text_13">
        <!-- $\mathdefault{0.6}$ -->
        <g
           transform="matrix(0.16,0,0,-0.16,542.6812,319.46052)"
           id="g301">
          <use
             xlink:href="#CMR17-30"
             transform="scale(0.996264)"
             id="use295"
             x="0"
             y="0"
             width="100%"
             height="100%" />
          <use
             xlink:href="#CMMI12-3a"
             transform="matrix(0.996264,0,0,0.996264,45.690477,0)"
             id="use297"
             x="0"
             y="0"
             width="100%"
             height="100%" />
          <use
             xlink:href="#CMR17-36"
             transform="matrix(0.996264,0,0,0.996264,72.787654,0)"
             id="use299"
             x="0"
             y="0"
             width="100%"
             height="100%" />
        </g>
      </g>
    </g>
    <g
       id="xtick_9">
      <g
         id="line2d_25">
        <g
           id="g307">
          <use
             xlink:href="#mf8b6d52523"
             x="611.54187"
             y="301.39093"
             style="stroke:#000000;stroke-width:0.8"
             id="use305"
             width="100%"
             height="100%" />
        </g>
      </g>
      <g
         id="text_14">
        <!-- $\mathdefault{0.8}$ -->
        <g
           transform="matrix(0.16,0,0,-0.16,601.57013,319.46052)"
           id="g316">
          <use
             xlink:href="#CMR17-30"
             transform="scale(0.996264)"
             id="use310"
             x="0"
             y="0"
             width="100%"
             height="100%" />
          <use
             xlink:href="#CMMI12-3a"
             transform="matrix(0.996264,0,0,0.996264,45.690477,0)"
             id="use312"
             x="0"
             y="0"
             width="100%"
             height="100%" />
          <use
             xlink:href="#CMR17-38"
             transform="matrix(0.996264,0,0,0.996264,72.787654,0)"
             id="use314"
             x="0"
             y="0"
             width="100%"
             height="100%" />
        </g>
      </g>
    </g>
    <g
       id="xtick_10">
      <g
         id="line2d_26">
        <g
           id="g322">
          <use
             xlink:href="#mf8b6d52523"
             x="670.43079"
             y="301.39093"
             style="stroke:#000000;stroke-width:0.8"
             id="use320"
             width="100%"
             height="100%" />
        </g>
      </g>
      <g
         id="text_15">
        <!-- $\mathdefault{1.0}$ -->
        <g
           transform="matrix(0.16,0,0,-0.16,660.45905,319.46052)"
           id="g331">
          <path
             id="use325"
             d="m 26.494396,63.169364 c 0,2.085928 -0.0934,2.085928 -1.494396,2.085928 -3.87609,-4.296388 -9.760274,-5.681818 -15.3331259,-5.681818 -0.2957658,0 -0.7938978,0 -0.9028642,-0.295766 -0.0934,-0.202366 -0.0934,-0.404732 -0.0934,-2.49066 3.0821921,0 8.2658781,0.591532 12.2509341,2.973225 V 7.1762141 c 0,-3.5024906 -0.202366,-4.6855541 -8.76401,-4.6855541 H 9.1687421 V 0 c 4.7789539,0 9.7602739,0 14.5392279,0 4.778954,0 9.760274,0 14.554794,0 v 2.49066 h -2.988792 c -8.57721,0 -8.779576,1.0896638 -8.779576,4.6388543 z"
             style="stroke-width:0.0155666" />
          <use
             xlink:href="#CMMI12-3a"
             transform="matrix(0.996264,0,0,0.996264,45.690477,0)"
             id="use327"
             x="0"
             y="0"
             width="100%"
             height="100%" />
          <use
             xlink:href="#CMR17-30"
             transform="matrix(0.996264,0,0,0.996264,72.787654,0)"
             id="use329"
             x="0"
             y="0"
             width="100%"
             height="100%" />
        </g>
      </g>
    </g>
  </g>
  <g
     id="matplotlib.axis_4">
    <g
       id="ytick_5">
      <g
         id="line2d_27">
        <g
           id="g338">
          <use
             xlink:href="#m49062d3215"
             x="382.19748"
             y="254.15851"
             style="stroke:#000000;stroke-width:0.8"
             id="use336"
             width="100%"
             height="100%" />
        </g>
      </g>
      <g
         id="text_16">
        <!-- $\mathdefault{0.2}$ -->
        <g
           transform="matrix(0.16,0,0,-0.16,355.25396,259.6933)"
           id="g347">
          <use
             xlink:href="#CMR17-30"
             transform="scale(0.996264)"
             id="use341"
             x="0"
             y="0"
             width="100%"
             height="100%" />
          <use
             xlink:href="#CMMI12-3a"
             transform="matrix(0.996264,0,0,0.996264,45.690477,0)"
             id="use343"
             x="0"
             y="0"
             width="100%"
             height="100%" />
          <use
             xlink:href="#CMR17-32"
             transform="matrix(0.996264,0,0,0.996264,72.787654,0)"
             id="use345"
             x="0"
             y="0"
             width="100%"
             height="100%" />
        </g>
      </g>
    </g>
    <g
       id="ytick_6">
      <g
         id="line2d_28">
        <g
           id="g353">
          <use
             xlink:href="#m49062d3215"
             x="382.19748"
             y="199.67686"
             style="stroke:#000000;stroke-width:0.8"
             id="use351"
             width="100%"
             height="100%" />
        </g>
      </g>
      <g
         id="text_17">
        <!-- $\mathdefault{0.4}$ -->
        <g
           transform="matrix(0.16,0,0,-0.16,355.25396,205.21166)"
           id="g362">
          <use
             xlink:href="#CMR17-30"
             transform="scale(0.996264)"
             id="use356"
             x="0"
             y="0"
             width="100%"
             height="100%" />
          <use
             xlink:href="#CMMI12-3a"
             transform="matrix(0.996264,0,0,0.996264,45.690477,0)"
             id="use358"
             x="0"
             y="0"
             width="100%"
             height="100%" />
          <use
             xlink:href="#CMR17-34"
             transform="matrix(0.996264,0,0,0.996264,72.787654,0)"
             id="use360"
             x="0"
             y="0"
             width="100%"
             height="100%" />
        </g>
      </g>
    </g>
    <g
       id="ytick_7">
      <g
         id="line2d_29">
        <g
           id="g368">
          <use
             xlink:href="#m49062d3215"
             x="382.19748"
             y="145.19522"
             style="stroke:#000000;stroke-width:0.8"
             id="use366"
             width="100%"
             height="100%" />
        </g>
      </g>
      <g
         id="text_18">
        <!-- $\mathdefault{0.6}$ -->
        <g
           transform="matrix(0.16,0,0,-0.16,355.25396,150.73002)"
           id="g377">
          <use
             xlink:href="#CMR17-30"
             transform="scale(0.996264)"
             id="use371"
             x="0"
             y="0"
             width="100%"
             height="100%" />
          <use
             xlink:href="#CMMI12-3a"
             transform="matrix(0.996264,0,0,0.996264,45.690477,0)"
             id="use373"
             x="0"
             y="0"
             width="100%"
             height="100%" />
          <use
             xlink:href="#CMR17-36"
             transform="matrix(0.996264,0,0,0.996264,72.787654,0)"
             id="use375"
             x="0"
             y="0"
             width="100%"
             height="100%" />
        </g>
      </g>
    </g>
    <g
       id="ytick_8">
      <g
         id="line2d_30">
        <g
           id="g383">
          <use
             xlink:href="#m49062d3215"
             x="382.19748"
             y="90.713585"
             style="stroke:#000000;stroke-width:0.8"
             id="use381"
             width="100%"
             height="100%" />
        </g>
      </g>
      <g
         id="text_19">
        <!-- $\mathdefault{0.8}$ -->
        <g
           transform="matrix(0.16,0,0,-0.16,355.25396,96.24838)"
           id="g392">
          <use
             xlink:href="#CMR17-30"
             transform="scale(0.996264)"
             id="use386"
             x="0"
             y="0"
             width="100%"
             height="100%" />
          <use
             xlink:href="#CMMI12-3a"
             transform="matrix(0.996264,0,0,0.996264,45.690477,0)"
             id="use388"
             x="0"
             y="0"
             width="100%"
             height="100%" />
          <use
             xlink:href="#CMR17-38"
             transform="matrix(0.996264,0,0,0.996264,72.787654,0)"
             id="use390"
             x="0"
             y="0"
             width="100%"
             height="100%" />
        </g>
      </g>
    </g>
  </g>
  <g
     id="line2d_31">
    <path
       d="m 662.59562,183.4049 -0.33101,-0.4332 -0.37187,-0.0311 -0.38322,0.26654 -0.38161,0.56432 -0.35697,0.70768 -0.3851,0.97829 -0.39218,1.15739 -0.36496,1.38542 -0.37958,1.49133 -0.35259,1.6346 -0.32579,1.68879 -0.32161,1.63092 -0.29485,1.62675 -0.32242,2.14527 -0.31807,2.36795 -0.33416,2.7818 -0.32127,2.86931 -0.24313,3.15293 -0.20165,3.06716 -0.23293,3.13137 -0.15089,2.81158 -0.16406,2.79067 -0.15353,2.78428 -0.28923,3.13586 -0.28058,3.05211 -0.29999,3.07722 -0.30281,2.9768 -0.32859,2.94166 -0.30072,2.75776 -0.31124,2.80841 -0.25838,2.70437 -0.35799,2.85879 -0.37344,2.77398 -0.57195,2.67277 -0.59088,2.51548 -0.83786,2.358 -0.82384,2.2164 -0.99426,2.12982 -0.96029,2.07195 -1.05826,1.93747 -1.00759,1.79572 -1.13144,1.59879 -1.1863,1.55758 -1.33361,1.43293 -1.27287,1.38728 -1.55674,1.28667 -1.49809,1.26293 -1.67666,1.08742 -1.6479,1.11597 -2.04184,0.99437 -2.19259,1.02756 -2.66231,0.62665 -2.68254,0.51199 -2.93492,0.33295 -3.09666,0.35497 -3.09646,0.33779 -3.1542,0.39231 -3.32216,0.35539 -3.43,0.37229 -3.725,0.21361 -3.93085,0.23664 -4.37804,0.22446 -4.6072,0.19714 -4.72555,0.11902 -4.87768,0.14458 -5.00402,0.0332 -5.24029,0.0789 -5.63425,0.0693 -5.73387,0.10526 -6.0584,0.0341 -6.17186,0.0839 -6.05122,0.1089 -5.9415,0.12417 -5.60805,0.13126 -5.40889,0.14671 -5.22466,0.14976 -5.12674,0.16217 -4.8311,0.13829 -4.74234,0.12175 -6.83094,-0.18879 -6.89111,-0.26201 -6.40889,-0.29831 -6.2071,-0.40377 -5.73757,-0.4723 -5.23313,-0.45168 -4.47278,-0.42585 -4.15855,-0.36889 -3.84765,-0.46105 -3.48001,-0.44182 -3.13269,-0.46605 -3.0366,-0.42067 -2.91933,-0.4403 -2.78407,-0.40564 -2.45994,-0.45574 -2.46693,-0.42732 -2.46697,-0.47919 -2.44754,-0.45789 -2.43586,-0.4268 -2.31634,-0.38322"
       clip-path="url(#p502d32edf6)"
       style="fill:none;stroke:#000000;stroke-width:1.5;stroke-linecap:square;stroke-opacity:0.7"
       id="path397" />
  </g>
  <g
     id="line2d_32">
    <path
       d="m 408.73382,223.0507 -0.37388,-0.28018 0.35671,-1.3098 0.20846,-1.27802 0.25654,-1.29695 0.15229,-1.31853 0.0226,-1.34339 -0.11476,-1.32095 -0.27511,-1.33737 -0.4246,-1.32902 -0.55062,-1.46099 -0.64583,-1.62874 -0.62966,-1.76337 -0.69894,-1.90775 -0.71498,-2.12574 -0.69069,-2.38276 -0.38417,-2.85803 -0.0308,-3.28046 0.18334,-3.44903 0.31555,-3.60011 0.46324,-3.8267 0.55457,-3.4144 0.26997,-1.83075 0.16322,-1.78941 0.0375,-1.71037 -0.0388,-1.68404 -0.008,-1.80946 -0.0839,-1.7863 -0.10787,-1.78375 -0.15299,-1.79937 -0.3641,-2.15119 -0.39131,-2.26164 -0.31664,-2.35749 -0.30525,-2.27915 -0.31384,-2.17514 -0.38387,-2.08314 -0.44346,-2.03222 -0.51793,-2.00774 -0.56975,-1.91495 -0.5323,-1.81682 -0.66182,-1.88539 -0.62469,-1.88864 -0.55545,-1.99319 -0.59991,-2.06224 -0.49351,-2.17945 -0.45437,-2.21006 -0.47752,-2.24749 -0.47189,-2.15678 -0.50095,-2.07874 -0.49242,-1.93764 -0.26433,-1.9928 -0.20703,-1.96964 -0.12959,-2.12278 -0.14522,-2.167 -0.0254,-2.34073 0.0161,-2.28472 0.11774,-2.36197 0.0893,-2.40475 0.092,-2.50439 0.0956,-2.47488 0.2625,-2.790824 0.30651,-2.760536 0.36567,-2.463089 0.33704,-2.397736 0.42767,-2.388415 0.48788,-2.442563 0.66621,-2.562171 0.68463,-2.553045 0.85006,-2.666459 0.86722,-2.527078 0.94463,-2.043853 0.99739,-2.026052 1.0827,-1.947889 1.06075,-1.920365 1.26831,-1.904897 1.23733,-1.861201 1.35834,-1.762079 1.34649,-1.778336 1.4898,-1.679371 1.59975,-1.593667 2.00713,-1.211441 2.10261,-1.160176 2.05535,-0.831347 2.05483,-0.745752 1.98351,-0.545063 1.9564,-0.541947 2.01132,-0.397014 2.06815,-0.404856 2.11764,-0.245894 2.17941,-0.276862 2.23535,-0.24452 2.31448,-0.241766 2.36653,-0.234603 2.40179,-0.224792 2.41037,-0.126089 2.47407,-0.132275 2.33896,-0.05047 2.4352,-0.07786 2.33773,-0.115475 2.32367,-0.152976"
       clip-path="url(#p502d32edf6)"
       style="fill:none;stroke:#000000;stroke-width:1.5;stroke-linecap:square;stroke-opacity:0.7"
       id="path400" />
  </g>
  <g
     id="line2d_33">
    <path
       d="m 662.59562,183.4049 -0.23588,-3.25302 -0.24303,-3.47554 -0.212,-3.71105 -0.18104,-3.82467 -0.19602,-3.8721 -0.18982,-4.05966 -0.20415,-4.18742 -0.19083,-3.9858 -0.21209,-3.91417 -0.23184,-4.10329 -0.22592,-4.05939 -0.26012,-4.15197 -0.26555,-3.95108 -0.2754,-3.77077 -0.27654,-3.62424 -0.28696,-3.30687 -0.30567,-3.36802 -0.29846,-3.26506 -0.299,-3.10409 -0.31193,-2.87803 -0.34556,-2.87576 -0.40292,-2.82389 -0.44455,-2.72627 -0.52857,-2.636389 -0.65353,-2.528224 -0.75702,-2.339697 -0.86015,-2.210368 -0.8642,-2.121279 -0.8953,-2.041224 -0.97905,-2.092397 -1.06734,-2.094592 -1.19892,-2.04527 -1.42596,-2.153271 -1.59299,-2.251312 -1.7854,-2.297506 -1.96113,-2.26892 -2.23288,-2.246266 -2.63612,-2.160315 -2.93861,-1.967554 -3.01294,-1.814459 -3.26001,-1.718569 -3.22386,-1.390057 -3.214,-1.268402 -3.38239,-1.140651 -3.89574,-0.987829 -4.00004,-0.826724 -4.26698,-0.716362 -4.73342,-0.604468 -4.76303,-0.432223 -4.72057,-0.315796 -4.96983,-0.167537 -4.86708,-0.03448 -4.96653,0.178699 -4.86353,0.244947 -4.9239,0.455615 -4.91527,0.666168 -4.54707,0.701196 -4.40478,0.791271 -4.14049,0.849869 -3.9302,0.828168 -3.45021,0.856174 -3.19805,0.983747 -3.31253,1.392876 -3.33365,1.897358 -3.22752,2.329877 -3.23278,2.922734 -3.46951,3.612312 -3.56208,3.94004 -3.64782,4.336007 -3.59638,4.542091 -3.3944,4.570053 -3.227,4.638668 -3.08653,4.658324 -3.31045,5.032927 -3.58049,5.51143 -3.74652,5.89662 -3.65331,5.9372 -3.73907,6.15105 -3.80896,6.25712 -5.56696,8.34575 -5.64197,8.30109 -5.23627,7.70127 -4.90312,7.17017 -4.58277,6.61887 -4.11969,5.76581 -3.92119,5.35691 -3.88261,5.03363 -3.56938,4.41776 -3.45456,4.13763 -3.32833,3.81979 -2.96316,3.2464 -2.79534,2.9561 -2.54033,2.57322 -2.46659,2.40264 -2.38908,2.21935 -2.41483,2.21223 -2.41361,2.19354 -2.39958,2.17434 -2.22106,1.98106"
       clip-path="url(#p502d32edf6)"
       style="fill:none;stroke:#000000;stroke-width:1.5;stroke-linecap:square;stroke-opacity:0.7"
       id="path403" />
  </g>
  <g
     id="line2d_34">
    <path
       d="m 422.89147,281.28129 1.25281,-0.56688 1.17323,-0.61997 1.13774,-0.69156 1.1292,-0.76161 1.14761,-0.77759 1.09544,-0.83873 1.11565,-1.05608 1.16449,-1.19966 1.1683,-1.24593 1.18484,-1.32796 1.39492,-1.37193 1.46041,-1.38808 1.51677,-1.49595 1.59005,-1.7948 1.7807,-1.98872 1.99851,-2.35939 2.35663,-2.6161 2.59218,-2.77685 2.87177,-2.83575 2.78406,-2.55955 1.22404,-1.68861 1.2213,-1.71313 1.18156,-1.64046 1.09664,-1.66382 1.12063,-1.83653 1.13684,-1.94624 1.30763,-1.88858 1.33348,-2.05926 1.45343,-2.34857 1.40309,-2.4369 1.21182,-2.3592 0.98519,-2.14062 0.90952,-1.98621 0.94645,-2.00514 0.8805,-1.98329 0.93607,-1.93243 0.84052,-1.95452 0.80313,-2.12032 0.73434,-2.19331 0.68951,-2.21385 0.70187,-2.45656 0.69011,-2.65685 0.65393,-2.64289 0.64343,-2.66205 0.66512,-2.693 0.57157,-2.58049 0.40744,-2.29897 0.45924,-2.17124 0.4645,-2.15131 0.39322,-2.11554 0.34907,-2.10335 0.34615,-2.22401 0.3477,-2.17919 0.24768,-2.44024 0.17976,-2.84103 0.0888,-2.83745 0.0791,-2.82713 0.0835,-3.04559 0.0749,-3.22906 0.0535,-3.55697 0.0911,-3.84352 0.13892,-4.19481 0.0753,-4.85197 -0.0742,-5.21336 -0.15097,-5.32011 -0.19372,-5.44373 -0.23965,-5.31482 -0.33785,-5.0665 -0.32447,-4.67706 -0.3647,-4.6822 -0.43081,-4.59365 -0.52606,-4.51509 -0.54858,-4.128663 -0.55886,-3.783915 -0.55157,-3.515729 -0.59072,-3.40036 -0.64977,-3.16472 -0.61811,-2.687882 -0.65026,-2.371166 -0.86182,-2.374246 -1.09878,-2.238938 -1.08164,-1.757239 -1.11516,-1.700236 -1.18648,-1.651335 -1.19049,-1.611883 -1.40097,-1.685156 -1.30467,-1.625541 -1.30032,-1.572617 -1.26281,-1.533095 -1.17392,-1.413705 -1.14754,-1.343468 -1.03233,-1.139581 -0.91699,-1.094607 -0.80934,-1.042055 -0.71931,-0.939987 -0.64307,-0.919628 -0.53823,-0.952333 -0.40758,-0.934163 -0.25068,-0.913828"
       clip-path="url(#p502d32edf6)"
       style="fill:none;stroke:#000000;stroke-width:1.5;stroke-linecap:square;stroke-opacity:0.7"
       id="path406" />
  </g>
  <g
     id="line2d_35">
    <path
       d="m 657.69337,109.53866 -0.50757,0.63968 -0.53095,0.73909 -0.55529,0.8605 -0.60406,0.96706 -0.63185,1.13116 -0.66383,1.24997 -0.75429,1.47218 -0.86297,1.75429 -0.89287,1.86782 -0.95936,2.00026 -0.99033,2.13055 -1.0381,2.33537 -1.02192,2.46746 -1.04777,2.67772 -1.07606,2.93276 -1.10545,3.00195 -1.18069,3.12457 -1.19449,3.15764 -1.26506,3.28573 -1.23856,3.31189 -1.09183,3.10519 -0.94548,2.7141 -0.96078,2.82009 -0.99092,2.88253 -0.94782,2.85998 -0.92972,2.94656 -0.91104,3.06809 -0.88237,2.99621 -0.86563,2.95524 -0.84961,2.90576 -0.86548,2.87152 -0.87493,2.77114 -0.86767,2.63167 -0.9366,2.5775 -1.0317,2.64771 -1.12074,2.78087 -1.06783,2.63122 -1.11426,2.71217 -1.24402,2.71947 -1.31568,2.74224 -1.37135,2.67077 -1.57081,2.68261 -1.622,2.46727 -1.57341,2.12751 -1.5936,1.95237 -1.63291,1.90146 -1.67706,1.87073 -1.70399,1.77064 -1.7972,1.77836 -1.95735,1.67724 -1.98453,1.59632 -1.97915,1.52488 -1.94814,1.37869 -1.9175,1.16941 -1.96239,1.12643 -2.15976,1.09193 -2.1492,0.9715 -2.08775,0.81879 -2.1058,0.84907 -2.21181,0.87973 -2.31179,0.89474 -2.53427,0.88368 -2.72214,0.88505 -3.01915,0.93345 -3.24707,0.94108 -3.49283,0.93403 -3.61816,0.99034 -3.72993,1.05388 -3.88822,1.00795 -4.0092,1.04952 -4.13594,0.99855 -4.04543,0.94296 -3.88219,0.76217 -3.96443,0.73999 -4.06584,0.7276 -3.88484,0.67427 -3.75155,0.55404 -3.44877,0.40051 -3.40931,0.367 -3.6131,0.24568 -4.24593,0.0722 -4.39597,0.0243 -4.33236,0.004 -4.1644,-0.005 -3.94682,-0.12896 -3.64151,-0.16327 -3.43339,-0.25345 -3.26613,-0.25481 -3.10715,-0.23665 -2.81897,-0.26082 -2.67508,-0.26131 -2.5275,-0.27236 -2.42496,-0.28406 -2.41272,-0.32099 -2.27885,-0.38514 -2.06586,-0.40601 -1.95349,-0.40532 -1.76524,-0.37787 -1.71481,-0.35375"
       clip-path="url(#p502d32edf6)"
       style="fill:none;stroke:#000000;stroke-width:1.5;stroke-linecap:square;stroke-opacity:0.7"
       id="path409" />
  </g>
  <g
     id="line2d_36">
    <path
       d="m 631.11023,63.843697 -0.73695,1.057929 -0.79402,1.227731 -0.85053,1.317373 -0.85031,1.409657 -0.87336,1.436003 -0.82366,1.377786 -0.76146,1.351748 -0.73179,1.423071 -0.79701,1.461197 -0.88383,1.768017 -0.91308,2.038757 -0.98226,2.111087 -0.94841,2.216709 -0.90334,2.391743 -0.92595,2.417275 -0.99176,2.454139 -0.99843,2.574101 -1.09463,2.643552 -1.05894,2.825044 -1.02033,3.060594 -0.86835,2.70111 -0.69705,2.25204 -0.69166,2.44103 -0.66974,2.81001 -0.58044,2.73638 -0.69815,2.75072 -0.77261,2.75722 -0.71927,2.72539 -0.67006,2.58958 -0.67756,2.56468 -0.6989,2.73449 -0.76828,2.68575 -0.90436,2.54891 -0.9326,2.49267 -0.96337,2.62467 -0.99312,2.60233 -1.01531,2.62817 -1.07094,2.60381 -1.11811,2.78303 -1.19992,2.58318 -1.31527,2.56379 -1.35164,2.56591 -1.48423,2.49477 -1.64892,2.49941 -1.71664,2.51052 -1.72474,2.46029 -1.77479,2.38231 -1.85928,2.28883 -1.81453,2.06464 -1.82771,1.80612 -1.78973,1.7266 -1.69889,1.60629 -1.69633,1.50948 -1.80749,1.40456 -1.85661,1.34662 -1.80993,1.28642 -1.88495,1.29362 -1.90241,1.24632 -1.93651,1.27808 -1.97625,1.26507 -1.82521,1.13462 -1.78501,1.01173 -1.89547,1.04074 -2.02191,1.00864 -2.01539,1.01299 -2.133,0.94135 -2.25378,0.96043 -2.34738,1.0005 -2.11984,0.97564 -2.096,0.82339 -2.15413,0.77604 -2.18151,0.81242 -2.06079,0.84351 -2.12377,0.88926 -2.07379,0.73418 -2.1551,0.61688 -2.14657,0.56185 -2.13284,0.52519 -2.08633,0.47197 -2.22005,0.40363 -2.72924,0.28051 -2.91513,0.25737 -2.69099,0.29537 -2.62601,0.25268 -2.54393,0.14688 -2.56873,0.14489 -2.52816,0.11593 -2.46054,0.0938 -2.4413,0.098 -2.42536,0.0448 -2.40429,0.0531 -2.3343,-5e-4 -2.28415,-0.005 -2.1016,-0.0148 -1.90496,-0.0405 -1.66991,-0.002 -1.66792,0.0192 -1.62812,-0.004 -1.60855,-0.006"
       clip-path="url(#p502d32edf6)"
       style="fill:none;stroke:#000000;stroke-width:1.5;stroke-linecap:square;stroke-opacity:0.7"
       id="path412" />
  </g>
  <g
     id="line2d_37">
    <path
       d="m 545.12151,58.956536 0.50129,0.835171 0.55371,0.940743 0.51077,1.022877 0.49512,1.02637 0.51692,1.123157 0.57146,1.141384 0.5753,1.135007 0.64789,1.17559 0.6676,1.19191 0.70782,1.293793 0.68997,1.318743 0.80103,1.408753 0.83573,1.471958 0.88246,1.546024 0.95387,1.70497 0.99866,1.948137 1.00269,2.137079 0.91147,2.337238 0.76687,2.482401 0.57663,2.503934 0.15564,2.109291 -0.10197,1.810637 -0.11417,1.83911 -0.0226,1.732987 -0.12685,1.638154 -0.35313,1.66859 -0.45215,1.795716 -0.37302,1.81654 -0.47235,1.78856 -0.51318,1.83939 -0.44072,1.80213 -0.43093,1.83164 -0.4076,1.84903 -0.37077,1.79948 -0.46163,1.97459 -0.57082,1.97159 -0.64719,1.83277 -0.58295,1.6745 -0.65682,1.62435 -0.65375,1.59256 -0.68159,1.51849 -0.73207,1.60782 -0.80465,1.64196 -0.89991,1.6403 -0.86391,1.58115 -0.88283,1.57214 -0.82711,1.61463 -0.8613,1.67426 -0.93809,1.73589 -1.06367,1.7598 -1.15771,1.73664 -1.06889,1.57683 -1.04577,1.37983 -1.15564,1.25862 -1.20716,1.06741 -1.12075,0.93333 -1.15351,0.88703 -1.1129,0.84849 -1.14325,0.84601 -1.17926,0.83084 -1.1402,0.68655 -1.20238,0.57715 -1.26128,0.60513 -1.30631,0.63751 -1.29141,0.62895 -1.318,0.61574 -1.33466,0.5653 -1.27364,0.52942 -1.24397,0.52311 -1.25201,0.51647 -1.24616,0.51592 -1.28402,0.46488 -1.21885,0.40413 -1.21256,0.31157 -1.2591,0.2804 -1.4068,0.14123 -1.37396,0.15895 -1.32106,0.0737 -1.39586,-0.0258 -1.72931,-0.10812 -1.8826,-0.10891 -1.81103,6.2e-4 -1.72315,-0.0171 -1.67333,-0.0204 -1.66168,0.0292 -1.55363,-0.10259 -1.43724,-0.0995 -1.27099,-0.0267 -1.13725,0.0377 -1.04945,0.0167 -0.98932,-0.006 -0.89222,-0.004 -0.83933,-0.0162 -0.75498,-0.0872 -0.69833,-0.11079 -0.67045,-0.14168 -0.65471,-0.15808 -0.66953,-0.24807 -0.62804,-0.25954"
       clip-path="url(#p502d32edf6)"
       style="fill:none;stroke:#000000;stroke-width:1.5;stroke-linecap:square;stroke-opacity:0.7"
       id="path415" />
  </g>
  <g
     id="line2d_38">
    <path
       d="m 473.97729,142.76889 -0.15309,0.18619 0.0351,-0.0754 0.30062,-0.39329 0.42867,-0.57383 0.50936,-0.71891 0.58524,-0.84877 0.43874,-0.70118 0.29722,-0.47774 0.24072,-0.4336 0.1117,-0.32301 10e-4,-0.23928 -0.11821,-0.11604 -0.21531,-0.10518 -0.28188,-0.19317 -0.47628,-0.0304 -0.657,0.0343 -0.69166,-0.0829 -0.69675,-0.14248 -0.56208,-0.45028 -0.37408,-0.52659 -0.43065,-0.0148 -0.5354,0.0951 -0.52355,0.0757 -0.51206,5.4e-4 -0.56933,0.0246 -0.68717,0.16233 -0.90939,0.17107 -0.89161,0.0983 -1.03654,0.14248 -1.04758,0.0266 -0.90103,-0.12679 -0.83537,-0.25249 -0.72531,-0.37211 -0.71059,-0.40753 -0.93391,-0.39397 -0.99561,-0.43534 -0.93034,-0.49174 -0.7051,-0.55951 -0.65251,-0.58599 -0.60513,-0.69884 -0.69399,-0.68353 -0.70771,-0.67213 -0.65702,-0.68829 -0.71639,-0.72402 -0.75143,-0.71131 -0.77065,-0.78156 -0.8618,-0.9119 -0.97202,-1.0987 -1.16649,-1.2635 -1.16693,-1.23827 -1.06768,-1.17925 -1.05479,-1.11425 -0.9442,-1.14457 -0.87648,-1.224 -0.87765,-1.17993 -0.8017,-1.1683 -0.77474,-1.2232 -0.6315,-1.19197 -0.59287,-1.20707 -0.44302,-1.27611 -0.36923,-1.32427 -0.23387,-1.32139 -0.16015,-1.2983 -0.0669,-1.24904 -0.0546,-1.23202 0.0336,-1.24668 0.0588,-1.26365 0.11332,-1.29582 0.12197,-1.41136 0.20765,-1.392652 0.39423,-1.310269 0.40972,-1.352307 0.49007,-1.228313 0.61291,-1.169658 0.66998,-1.15395 0.89645,-1.089694 0.96704,-1.020309 0.9622,-1.036959 0.96556,-1.034085 1.32615,-1.095487 1.65351,-1.155863 1.77323,-1.08908 1.90919,-1.044043 1.8653,-0.969542 1.72057,-0.870593 1.70619,-0.808751 1.59493,-0.618604 1.4494,-0.530942 1.42914,-0.519841 1.42853,-0.447222 1.38687,-0.430689 1.34393,-0.440163 1.33567,-0.459793 1.24126,-0.505759 1.17283,-0.465234 1.19909,-0.397731 1.28857,-0.376605 1.34562,-0.310902 1.13552,-0.324831"
       clip-path="url(#p502d32edf6)"
       style="fill:none;stroke:#000000;stroke-width:1.5;stroke-linecap:square;stroke-opacity:0.7"
       id="path418" />
  </g>
  <g
     id="line2d_39">
    <path
       d="m 655.98065,215.58845 -0.64879,-2.35637 -0.71105,-2.53621 -0.73763,-2.62012 -0.76708,-2.67388 -0.7847,-2.93638 -0.84878,-3.2408 -0.87229,-3.45626 -0.86312,-3.59168 -0.88455,-3.73688 -0.95287,-3.79423 -0.90468,-3.52329 -0.87906,-3.52574 -0.88465,-3.71214 -0.8918,-3.70538 -0.88583,-3.59075 -0.79716,-3.22825 -0.81403,-3.27971 -0.78811,-3.29662 -0.77768,-3.18446 -0.71489,-2.95299 -0.67319,-2.70852 -0.68361,-2.5341 -0.75937,-2.47065 -0.75606,-2.31999 -0.79546,-2.25225 -0.86058,-2.21882 -0.9496,-2.19138 -1.02015,-2.26139 -1.0707,-2.30914 -1.17362,-2.37788 -1.26299,-2.46019 -1.38395,-2.57385 -1.60777,-2.78429 -1.76915,-2.80621 -1.80411,-2.75818 -1.85114,-2.56512 -1.95627,-2.34812 -2.0005,-2.18174 -1.97927,-2.06678 -2.04423,-2.0505 -1.994,-1.92316 -2.03025,-1.802591 -2.10115,-1.555298 -2.24485,-1.427513 -2.19508,-1.23903 -2.20574,-1.034064 -2.3803,-1.023088 -2.51432,-0.916415 -2.60042,-0.769876 -2.59828,-0.73075 -2.70478,-0.678776 -2.68596,-0.498771 -2.73143,-0.395621 -3.06188,-0.210742 -3.22656,-0.08267 -3.33309,-0.01362 -3.40866,0.09855 -3.35502,0.137257 -3.2685,0.165825 -3.24114,0.194918 -3.32127,0.258232 -3.37695,0.363293 -3.19751,0.493627 -3.09582,0.563108 -3.13385,0.736111 -3.30216,1.039239 -3.27815,1.243079 -3.76048,1.792525 -4.14261,2.226707 -4.19796,2.508713 -4.23951,2.640591 -4.44854,2.98551 -4.41513,3.07377 -4.59443,3.27047 -5.25085,3.74023 -5.52815,3.95831 -5.71067,4.12052 -5.62005,4.10549 -5.59196,4.11673 -6.38335,4.61939 -6.82093,4.99234 -6.55386,4.84483 -6.0362,4.4195 -5.53929,4.01525 -5.15264,3.71609 -4.63703,3.3199 -4.14316,2.84579 -3.66041,2.44105 -3.27586,2.14564 -3.06858,1.98702 -2.87432,1.82742 -2.5054,1.59174 -2.2846,1.44618 -2.12398,1.50327 -1.98118,1.52537 -1.80761,1.36011 -1.77024,1.25705 -1.66031,1.11788 -1.64533,1.03896"
       clip-path="url(#p502d32edf6)"
       style="fill:none;stroke:#000000;stroke-width:1.5;stroke-linecap:square;stroke-opacity:0.7"
       id="path421" />
  </g>
  <g
     id="line2d_40">
    <path
       d="m 646.57186,268.96383 -0.72144,-1.29153 -0.84457,-1.67694 -0.95876,-1.87909 -0.95809,-2.03195 -0.99006,-2.15315 -0.99902,-2.23657 -1.06684,-2.40089 -1.12554,-2.5387 -1.18615,-2.74768 -1.33937,-3.21051 -1.40793,-3.35783 -1.45614,-3.5611 -1.70106,-4.12167 -1.78597,-4.33644 -1.86252,-4.48049 -1.85798,-4.51365 -1.81873,-4.32157 -1.8322,-4.10654 -1.68328,-3.81956 -1.21842,-3.1924 -0.96279,-2.79977 -0.95972,-2.76417 -0.96326,-2.76521 -1.03137,-2.74328 -1.06616,-2.74297 -1.03398,-2.66582 -1.01891,-2.66988 -0.93669,-2.44572 -0.82919,-2.18641 -0.9235,-2.31915 -1.09446,-2.49466 -1.23669,-2.637 -1.34064,-2.66825 -1.41457,-2.7873 -1.42884,-2.68372 -1.37843,-2.54901 -1.36996,-2.62576 -1.36318,-2.52889 -1.42063,-2.43982 -1.52444,-2.4464 -1.60171,-2.4299 -1.59828,-2.52687 -1.82672,-2.43231 -1.96769,-2.30485 -2.05736,-2.20181 -2.18064,-2.15469 -2.22821,-1.85659 -2.31743,-1.77871 -2.38888,-1.67564 -2.22617,-1.40997 -2.23568,-1.26897 -2.34146,-1.16514 -2.25239,-1.07109 -2.34039,-1.01904 -2.58831,-0.98139 -2.58037,-0.92502 -2.53032,-0.93394 -2.51425,-0.86456 -2.50852,-0.72793 -2.48378,-0.60057 -2.56487,-0.53121 -2.63092,-0.42482 -2.84478,-0.36409 -3.29618,-0.31615 -3.69577,-0.17912 -3.68991,-0.11186 -3.87637,-0.0224 -4.32378,0.0936 -4.43441,0.21019 -4.88261,0.3399 -5.26678,0.56031 -5.71511,0.71853 -6.13221,0.87288 -6.19151,0.97712 -6.15958,1.06708 -6.03262,1.06205 -5.98134,1.09351 -5.64015,1.09026 -5.18845,1.034 -5.58328,1.15192 -5.86627,1.2879 -5.64327,1.18077 -5.27554,1.06342 -4.60081,0.95825 -4.00099,0.87254 -3.60224,0.78418 -3.13586,0.64949 -2.87961,0.5724 -2.67036,0.51452 -2.53678,0.47528 -2.2964,0.41121 -1.98565,0.32926 -1.78482,0.25944 -1.69164,0.19287 -1.69974,0.16741 -1.73973,0.17819 -1.78911,0.19363 -1.76102,0.17445 -1.60932,0.0998"
       clip-path="url(#p502d32edf6)"
       style="fill:none;stroke:#000000;stroke-width:1.5;stroke-linecap:square;stroke-opacity:0.7"
       id="path424" />
  </g>
  <g
     id="line2d_41">
    <path
       d="m 601.92198,287.009 -0.49556,-1.34598 -0.6076,-1.422 -0.73544,-1.55715 -0.76168,-1.61179 -0.76419,-1.75489 -0.82948,-1.83281 -0.90028,-1.87635 -0.95976,-1.95086 -1.01648,-2.16226 -1.1508,-2.42855 -1.14895,-2.52511 -1.22948,-2.80434 -1.32824,-2.94857 -1.26129,-3.04606 -1.26596,-3.30959 -1.1547,-3.30065 -1.06373,-3.3396 -0.93597,-3.20933 -0.82526,-2.85898 -0.73505,-2.43285 -0.68065,-2.19377 -0.82053,-2.17033 -0.85698,-2.08802 -0.90597,-2.09014 -0.91653,-2.13388 -1.00796,-2.23088 -0.9886,-2.28662 -1.02024,-2.34168 -1.04063,-2.32645 -1.10194,-2.4947 -1.18939,-2.68317 -1.23177,-2.74582 -1.2126,-2.69076 -1.24415,-2.56377 -1.10798,-2.36331 -1.12182,-2.20823 -1.13031,-2.24237 -1.16506,-2.23268 -1.20763,-2.25462 -1.21781,-2.32805 -1.13893,-2.37627 -1.18673,-2.37692 -1.30056,-2.37893 -1.31432,-2.36031 -1.25311,-2.26809 -1.28311,-2.22858 -1.27142,-2.17912 -1.39804,-2.16119 -1.52362,-2.22705 -1.45444,-2.04608 -1.54989,-1.9905 -1.59756,-2.01392 -1.49038,-1.9384 -1.53559,-1.89324 -1.60149,-1.88045 -1.64148,-1.81238 -1.64709,-1.63482 -1.74286,-1.47249 -1.86918,-1.46505 -1.99188,-1.51338 -2.19162,-1.57794 -2.80065,-1.79258 -3.06978,-1.85541 -3.19767,-1.83236 -3.607,-1.92279 -3.99444,-1.94858 -4.834,-2.27071 -5.18693,-2.37669 -5.46841,-2.42032 -5.63951,-2.41594 -5.71914,-2.41777 -5.63315,-2.34758 -5.68858,-2.30988 -5.76693,-2.25759 -5.63242,-2.16255 -5.18097,-1.94531 -4.67844,-1.72915 -4.29318,-1.57973 -3.95963,-1.4412 -4.21727,-1.46759 -4.00885,-1.31228 -3.52327,-1.13288 -3.42691,-1.04021 -3.22686,-0.88237 -3.06008,-0.87715 -2.75637,-0.77343 -2.64122,-0.75302 -2.36998,-0.67037 -2.14784,-0.6066 -2.13978,-0.61152 -2.06925,-0.58842 -2.06229,-0.59282 -1.97986,-0.56803 -1.81282,-0.53344 -1.64354,-0.4978 -1.58103,-0.46716 -1.55341,-0.448532 -1.48024,-0.410482 -1.32548,-0.3553"
       clip-path="url(#p502d32edf6)"
       style="fill:none;stroke:#000000;stroke-width:1.5;stroke-linecap:square;stroke-opacity:0.7"
       id="path427" />
  </g>
  <g
     id="line2d_42">
    <path
       d="m 495.79453,289.22979 0.53454,-0.78831 0.74239,-0.92124 0.84803,-0.92472 1.0246,-1.0506 1.13692,-1.14222 0.93177,-1.26229 0.46449,-1.34089 0.44732,-1.36938 0.49872,-1.4478 0.51585,-1.49196 0.59882,-1.51821 0.70879,-1.69767 0.92997,-2.04316 1.10943,-2.09404 1.17245,-2.31053 1.21914,-2.50444 1.16446,-2.63823 0.92605,-2.62741 0.67756,-2.46818 0.53209,-2.31074 0.38789,-2.14509 0.42078,-2.16749 0.51649,-2.19661 0.59259,-2.54763 0.74349,-2.78314 0.78153,-2.7962 0.76368,-2.72579 0.61149,-2.61082 0.56407,-2.56961 0.53553,-2.53952 0.48775,-2.4516 0.32369,-2.23482 0.2204,-2.19415 0.1521,-2.06411 0.17854,-1.97357 0.26426,-1.90798 0.2281,-2.02329 0.12579,-2.08273 -0.003,-2.09647 -0.11713,-2.00016 -0.24298,-2.09651 -0.33778,-2.07539 -0.30436,-2.08102 -0.34701,-2.12587 -0.3755,-2.18743 -0.44663,-2.33526 -0.45958,-2.29942 -0.57803,-2.46402 -0.61211,-2.64226 -0.62541,-2.62257 -0.61356,-2.51605 -0.65084,-2.45404 -0.74134,-2.41869 -0.82027,-2.3417 -0.93795,-2.5043 -0.98324,-2.5219 -0.96272,-2.47545 -1.12995,-2.65655 -1.3687,-2.86785 -1.49739,-2.97371 -1.73936,-3.27054 -1.90244,-3.37643 -2.09162,-3.49735 -2.25711,-3.52628 -2.37294,-3.6449 -2.65109,-3.92622 -2.75537,-3.96083 -2.91809,-4.08244 -3.18257,-4.35884 -3.40978,-4.57221 -3.80265,-4.6853 -3.83713,-4.5246 -3.76155,-4.2674 -3.54563,-3.86377 -3.33558,-3.50471 -3.00266,-3.081873 -2.74569,-2.724054 -2.56513,-2.527769 -2.44804,-2.419823 -3.01899,-2.884684 -3.46628,-3.272221 -3.21675,-3.001816 -2.96595,-2.726891 -2.60846,-2.321892 -2.27999,-2.111614 -2.07369,-1.984705 -1.87031,-1.77536 -1.64,-1.541305 -1.4722,-1.406684 -1.40434,-1.30599 -1.30696,-1.216647 -1.23924,-1.147004 -1.22801,-1.137819 -1.19257,-1.121026 -1.10979,-1.087486 -1.05577,-1.076432 -0.95218,-1.03612 -0.91562,-0.992764 -0.77022,-0.822068"
       clip-path="url(#p502d32edf6)"
       style="fill:none;stroke:#000000;stroke-width:1.5;stroke-linecap:square;stroke-opacity:0.7"
       id="path430" />
  </g>
  <g
     id="patch_8">
    <path
       d="M 382.19748,301.39094 V 37.999035"
       style="fill:none;stroke:#000000;stroke-width:0.8;stroke-linecap:square;stroke-linejoin:miter"
       id="path433" />
  </g>
  <g
     id="patch_9">
    <path
       d="M 675.94791,301.39094 V 37.999035"
       style="fill:none;stroke:#000000;stroke-width:0.8;stroke-linecap:square;stroke-linejoin:miter"
       id="path436" />
  </g>
  <g
     id="patch_10">
    <path
       d="M 382.19748,301.39094 H 675.94791"
       style="fill:none;stroke:#000000;stroke-width:0.8;stroke-linecap:square;stroke-linejoin:miter"
       id="path439" />
  </g>
  <g
     id="patch_11">
    <path
       d="M 382.19748,37.999035 H 675.94791"
       style="fill:none;stroke:#000000;stroke-width:0.8;stroke-linecap:square;stroke-linejoin:miter"
       id="path442" />
  </g>
  <defs
     id="defs476">
    <clipPath
       id="p030045ed50">
      <rect
         x="44.223522"
         y="37.999035"
         width="293.750434"
         height="263.391901"
         id="rect470" />
    </clipPath>
    <clipPath
       id="p502d32edf6">
      <rect
         x="382.197479"
         y="37.999035"
         width="293.750434"
         height="263.391901"
         id="rect473" />
    </clipPath>
  </defs>
</svg>
