<?xml version="1.0" encoding="UTF-8" standalone="no"?>
<!-- Created with Inkscape (http://www.inkscape.org/) -->

<svg
   xmlns:dc="http://purl.org/dc/elements/1.1/"
   xmlns:cc="http://creativecommons.org/ns#"
   xmlns:rdf="http://www.w3.org/1999/02/22-rdf-syntax-ns#"
   xmlns:svg="http://www.w3.org/2000/svg"
   xmlns="http://www.w3.org/2000/svg"
   xmlns:xlink="http://www.w3.org/1999/xlink"
   xmlns:sodipodi="http://sodipodi.sourceforge.net/DTD/sodipodi-0.dtd"
   xmlns:inkscape="http://www.inkscape.org/namespaces/inkscape"
   width="382.43619mm"
   height="107.1791mm"
   viewBox="0 0 382.43619 107.1791"
   version="1.1"
   id="svg8"
   inkscape:version="0.92.5 (2060ec1f9f, 2020-04-08)"
   sodipodi:docname="sphere_inputs.svg">
  <defs
     id="defs2">
    <marker
       inkscape:isstock="true"
       style="overflow:visible"
       id="marker1021"
       refX="0"
       refY="0"
       orient="auto"
       inkscape:stockid="Arrow1Mend">
      <path
         inkscape:connector-curvature="0"
         transform="matrix(-0.4,0,0,-0.4,-4,0)"
         style="fill:#000000;fill-opacity:1;fill-rule:evenodd;stroke:#000000;stroke-width:1.00000003pt;stroke-opacity:1"
         d="M 0,0 5,-5 -12.5,0 5,5 Z"
         id="path1019" />
    </marker>
    <marker
       inkscape:stockid="Arrow1Mend"
       orient="auto"
       refY="0"
       refX="0"
       id="marker2431"
       style="overflow:visible"
       inkscape:isstock="true">
      <path
         id="path2429"
         d="M 0,0 5,-5 -12.5,0 5,5 Z"
         style="fill:#000000;fill-opacity:1;fill-rule:evenodd;stroke:#000000;stroke-width:1.00000003pt;stroke-opacity:1"
         transform="matrix(-0.4,0,0,-0.4,-4,0)"
         inkscape:connector-curvature="0" />
    </marker>
    <linearGradient
       inkscape:collect="always"
       id="linearGradient2224">
      <stop
         style="stop-color:#000000;stop-opacity:1;"
         offset="0"
         id="stop2220" />
      <stop
         style="stop-color:#000000;stop-opacity:0;"
         offset="1"
         id="stop2222" />
    </linearGradient>
    <marker
       inkscape:stockid="Arrow1Mend"
       orient="auto"
       refY="0"
       refX="0"
       id="marker2138"
       style="overflow:visible"
       inkscape:isstock="true">
      <path
         id="path2136"
         d="M 0,0 5,-5 -12.5,0 5,5 Z"
         style="fill:#000000;fill-opacity:1;fill-rule:evenodd;stroke:#000000;stroke-width:1.00000003pt;stroke-opacity:1"
         transform="matrix(-0.4,0,0,-0.4,-4,0)"
         inkscape:connector-curvature="0" />
    </marker>
    <marker
       inkscape:stockid="Arrow1Mend"
       orient="auto"
       refY="0"
       refX="0"
       id="marker2090"
       style="overflow:visible"
       inkscape:isstock="true"
       inkscape:collect="always">
      <path
         id="path2088"
         d="M 0,0 5,-5 -12.5,0 5,5 Z"
         style="fill:#000000;fill-opacity:1;fill-rule:evenodd;stroke:#000000;stroke-width:1.00000003pt;stroke-opacity:1"
         transform="matrix(-0.4,0,0,-0.4,-4,0)"
         inkscape:connector-curvature="0" />
    </marker>
    <marker
       inkscape:stockid="Arrow1Mend"
       orient="auto"
       refY="0"
       refX="0"
       id="Arrow1Mend"
       style="overflow:visible"
       inkscape:isstock="true">
      <path
         id="path845"
         d="M 0,0 5,-5 -12.5,0 5,5 Z"
         style="fill:#000000;fill-opacity:1;fill-rule:evenodd;stroke:#000000;stroke-width:1.00000003pt;stroke-opacity:1"
         transform="matrix(-0.4,0,0,-0.4,-4,0)"
         inkscape:connector-curvature="0" />
    </marker>
    <marker
       inkscape:stockid="Arrow1Mstart"
       orient="auto"
       refY="0"
       refX="0"
       id="Arrow1Mstart"
       style="overflow:visible"
       inkscape:isstock="true">
      <path
         id="path842"
         d="M 0,0 5,-5 -12.5,0 5,5 Z"
         style="fill:#000000;fill-opacity:1;fill-rule:evenodd;stroke:#000000;stroke-width:1.00000003pt;stroke-opacity:1"
         transform="matrix(0.4,0,0,0.4,4,0)"
         inkscape:connector-curvature="0" />
    </marker>
    <linearGradient
       inkscape:collect="always"
       xlink:href="#linearGradient2224"
       id="linearGradient2226"
       x1="66.570641"
       y1="102.55835"
       x2="148.74329"
       y2="102.55835"
       gradientUnits="userSpaceOnUse"
       gradientTransform="translate(-50.113036,-48.576237)" />
  </defs>
  <sodipodi:namedview
     id="base"
     pagecolor="#ffffff"
     bordercolor="#666666"
     borderopacity="1.0"
     inkscape:pageopacity="0.0"
     inkscape:pageshadow="2"
     inkscape:zoom="0.49497474"
     inkscape:cx="621.25916"
     inkscape:cy="611.12884"
     inkscape:document-units="mm"
     inkscape:current-layer="layer1"
     showgrid="false"
     inkscape:window-width="1848"
     inkscape:window-height="1016"
     inkscape:window-x="72"
     inkscape:window-y="27"
     inkscape:window-maximized="1"
     fit-margin-top="0"
     fit-margin-left="0"
     fit-margin-right="0"
     fit-margin-bottom="0"
     showguides="false" />
  <metadata
     id="metadata5">
    <rdf:RDF>
      <cc:Work
         rdf:about="">
        <dc:format>image/svg+xml</dc:format>
        <dc:type
           rdf:resource="http://purl.org/dc/dcmitype/StillImage" />
        <dc:title></dc:title>
      </cc:Work>
    </rdf:RDF>
  </metadata>
  <g
     inkscape:label="Layer 1"
     inkscape:groupmode="layer"
     id="layer1"
     transform="translate(42.662675,-4.8233201)">
    <g
       id="g2745"
       transform="matrix(0.89541657,0,0,0.89541657,19.226332,4.023767)">
      <path
         inkscape:connector-curvature="0"
         id="path2427"
         d="m 174.43941,85.891881 h 29.93418"
         style="fill:none;stroke:#000000;stroke-width:0.86500001;stroke-linecap:butt;stroke-linejoin:miter;stroke-miterlimit:4;stroke-dasharray:none;stroke-opacity:1;marker-end:url(#marker2431)" />
      <g
         transform="matrix(1.2580134,0,0,1.2580134,72.344359,-116.18961)"
         id="g3712">
        <g
           style="font-style:normal;font-variant:normal;font-weight:normal;font-stretch:normal;letter-spacing:normal;word-spacing:normal;text-anchor:start;fill:none;fill-opacity:1;fill-rule:evenodd;stroke:#000000;stroke-linecap:butt;stroke-linejoin:miter;stroke-miterlimit:10.43299961;stroke-dasharray:none;stroke-dashoffset:0;stroke-opacity:1"
           id="g3710"
           transform="matrix(0.21040381,0,0,-0.21040381,-36.820667,231.60139)"
           xml:space="preserve"
           stroke-miterlimit="10.433"
           font-style="normal"
           font-variant="normal"
           font-weight="normal"
           font-stretch="normal"
           font-size-adjust="none"
           letter-spacing="normal"
           word-spacing="normal"><path
             style="fill:#000000;stroke-width:0"
             inkscape:connector-curvature="0"
             d="m 479.68,426.68 -4.18,9.91 c -0.15,0.41 -0.25,0.59 -0.25,0.64 0,0.31 0.85,1.25 2.94,1.45 0.5,0.05 1,0.1 1,0.96 0,0.59 -0.61,0.59 -0.75,0.59 -2.05,0 -4.19,-0.16 -6.28,-0.16 -1.25,0 -4.33,0.16 -5.58,0.16 -0.29,0 -0.9,0 -0.9,-1 0,-0.55 0.5,-0.55 1.15,-0.55 2.99,0 3.28,-0.5 3.74,-1.59 l 5.87,-13.91 -10.51,-11.31 -0.64,-0.55 c -2.44,-2.64 -4.79,-3.43 -7.33,-3.57 -0.64,-0.05 -1.1,-0.05 -1.1,-1 0,-0.05 0,-0.55 0.66,-0.55 1.48,0 3.12,0.16 4.67,0.16 1.85,0 3.8,-0.16 5.58,-0.16 0.31,0 0.91,0 0.91,1 0,0.5 -0.5,0.55 -0.6,0.55 -0.45,0.04 -2,0.14 -2,1.54 0,0.8 0.75,1.6 1.35,2.24 l 5.07,5.39 4.49,4.87 5.03,-11.9 c 0.2,-0.55 0.25,-0.6 0.25,-0.71 0,-0.39 -0.94,-1.23 -2.89,-1.43 -0.55,-0.05 -0.99,-0.11 -0.99,-0.96 0,-0.59 0.55,-0.59 0.74,-0.59 1.41,0 4.89,0.16 6.28,0.16 1.25,0 4.28,-0.16 5.53,-0.16 0.35,0 0.95,0 0.95,0.95 0,0.6 -0.5,0.6 -0.9,0.6 -3.33,0.04 -3.44,0.2 -4.28,2.18 -1.94,4.64 -5.28,12.41 -6.42,15.39 3.39,3.5 8.6,9.43 10.2,10.82 1.45,1.2 3.34,2.39 6.33,2.54 0.65,0.05 1.09,0.05 1.09,1 0,0.05 0,0.55 -0.64,0.55 -1.5,0 -3.14,-0.16 -4.69,-0.16 -1.84,0 -3.73,0.16 -5.53,0.16 -0.3,0 -0.94,0 -0.94,-1 0,-0.34 0.25,-0.5 0.6,-0.55 0.45,-0.04 2,-0.15 2,-1.54 0,-0.71 -0.55,-1.35 -0.96,-1.8 z"
             id="path3692" /><path
             style="fill:#000000;stroke-width:0"
             inkscape:connector-curvature="0"
             d="m 510.87,440.65 0.03,0.06 0.02,0.05 0.02,0.05 0.03,0.05 0.02,0.04 0.01,0.05 0.02,0.04 0.02,0.04 0.01,0.05 0.02,0.04 0.01,0.03 0.01,0.04 0.01,0.04 0.02,0.03 v 0.04 l 0.01,0.03 0.01,0.03 0.01,0.03 v 0.03 l 0.01,0.03 v 0.03 l 0.01,0.03 v 0.03 0.02 l 0.01,0.06 v 0.05 0.04 0.05 c 0,1.08 -0.98,1.92 -2.06,1.92 -1.33,0 -1.73,-1.09 -1.91,-1.64 l -4.6,-15.09 c -0.04,-0.06 -0.18,-0.52 -0.18,-0.56 0,-0.41 1.08,-0.77 1.36,-0.77 0.25,0 0.28,0.08 0.52,0.59 z"
             id="path3694" /><path
             style="fill:#000000;stroke-width:0"
             inkscape:connector-curvature="0"
             d="m 562.84,422.5 h 0.14 0.14 0.14 l 0.08,0.01 h 0.07 l 0.07,0.01 0.07,0.01 0.07,0.01 0.07,0.01 0.07,0.01 0.07,0.02 0.06,0.02 0.06,0.02 0.07,0.02 0.05,0.03 0.06,0.03 0.05,0.04 0.05,0.03 0.05,0.05 0.04,0.04 0.04,0.05 0.02,0.03 0.02,0.03 0.01,0.02 0.02,0.03 0.01,0.03 0.02,0.04 0.01,0.03 0.01,0.04 0.01,0.03 0.01,0.04 0.01,0.04 v 0.04 l 0.01,0.04 v 0.04 0.04 0.05 c 0,1 -0.95,1 -1.64,1 h -29.84 c -0.7,0 -1.64,0 -1.64,-1 0,-0.98 0.94,-0.98 1.69,-0.98 z"
             id="path3696" /><path
             style="fill:#000000;stroke-width:0"
             inkscape:connector-curvature="0"
             d="m 562.88,412.82 h 0.07 0.06 l 0.14,0.01 h 0.14 0.07 l 0.07,0.01 0.07,0.01 h 0.07 l 0.07,0.01 0.06,0.02 0.07,0.01 0.07,0.02 0.06,0.02 0.06,0.02 0.06,0.02 0.06,0.03 0.05,0.03 0.06,0.04 0.04,0.04 0.05,0.04 0.04,0.05 0.02,0.02 0.02,0.03 0.02,0.02 0.02,0.03 0.02,0.03 0.01,0.03 0.01,0.03 0.02,0.03 0.01,0.04 0.01,0.03 0.01,0.04 0.01,0.04 0.01,0.04 v 0.04 l 0.01,0.04 v 0.04 0.05 0.04 c 0,1 -0.95,1 -1.68,1 h -29.75 c -0.75,0 -1.69,0 -1.69,-1 0,-1 0.94,-1 1.64,-1 z"
             id="path3698" /><path
             style="fill:#000000;stroke-width:0"
             inkscape:connector-curvature="0"
             d="m 605.31,426.68 -4.17,9.91 c -0.16,0.41 -0.25,0.59 -0.25,0.64 0,0.31 0.84,1.25 2.94,1.45 0.5,0.05 1,0.1 1,0.96 0,0.59 -0.61,0.59 -0.75,0.59 -2.05,0 -4.19,-0.16 -6.28,-0.16 -1.25,0 -4.33,0.16 -5.58,0.16 -0.3,0 -0.91,0 -0.91,-1 0,-0.55 0.5,-0.55 1.16,-0.55 2.98,0 3.28,-0.5 3.73,-1.59 l 5.88,-13.91 -10.52,-11.31 -0.64,-0.55 c -2.44,-2.64 -4.78,-3.43 -7.33,-3.57 -0.64,-0.05 -1.09,-0.05 -1.09,-1 0,-0.05 0,-0.55 0.66,-0.55 1.48,0 3.12,0.16 4.67,0.16 1.84,0 3.79,-0.16 5.58,-0.16 0.31,0 0.9,0 0.9,1 0,0.5 -0.5,0.55 -0.59,0.55 -0.45,0.04 -2,0.14 -2,1.54 0,0.8 0.75,1.6 1.34,2.24 l 5.08,5.39 4.48,4.87 5.04,-11.9 c 0.2,-0.55 0.25,-0.6 0.25,-0.71 0,-0.39 -0.94,-1.23 -2.89,-1.43 -0.55,-0.05 -0.99,-0.11 -0.99,-0.96 0,-0.59 0.55,-0.59 0.74,-0.59 1.4,0 4.89,0.16 6.28,0.16 1.25,0 4.28,-0.16 5.53,-0.16 0.34,0 0.95,0 0.95,0.95 0,0.6 -0.5,0.6 -0.91,0.6 -3.32,0.04 -3.43,0.2 -4.28,2.18 -1.93,4.64 -5.28,12.41 -6.42,15.39 3.39,3.5 8.61,9.43 10.2,10.82 1.46,1.2 3.35,2.39 6.33,2.54 0.66,0.05 1.1,0.05 1.1,1 0,0.05 0,0.55 -0.64,0.55 -1.5,0 -3.14,-0.16 -4.69,-0.16 -1.84,0 -3.74,0.16 -5.53,0.16 -0.3,0 -0.94,0 -0.94,-1 0,-0.34 0.25,-0.5 0.59,-0.55 0.46,-0.04 2,-0.15 2,-1.54 0,-0.71 -0.54,-1.35 -0.95,-1.8 z"
             id="path3700" /><path
             style="fill:#000000;stroke-width:0"
             inkscape:connector-curvature="0"
             d="m 637.71,412.11 -0.12,-0.03 -0.11,-0.02 -0.11,-0.03 -0.1,-0.04 -0.1,-0.03 -0.1,-0.04 -0.09,-0.05 -0.09,-0.05 -0.08,-0.05 -0.08,-0.05 -0.07,-0.06 -0.07,-0.06 -0.07,-0.06 -0.06,-0.07 -0.06,-0.06 -0.06,-0.07 -0.05,-0.07 -0.05,-0.07 -0.04,-0.07 -0.04,-0.08 -0.04,-0.07 -0.04,-0.08 -0.03,-0.07 -0.02,-0.08 -0.03,-0.07 -0.02,-0.08 -0.02,-0.08 -0.01,-0.07 -0.01,-0.08 -0.01,-0.07 v -0.08 -0.07 c 0,-0.94 0.73,-1.28 1.35,-1.28 0.77,0 1.99,0.55 1.99,2.22 0,2.37 -2.72,3.03 -4.59,3.03 -5.24,0 -10.08,-4.8 -10.08,-9.64 0,-3 2.09,-6.06 6.45,-6.06 5.89,0 8.64,3.44 8.64,3.94 0,0.2 -0.31,0.59 -0.59,0.59 -0.2,0 -0.28,-0.08 -0.57,-0.36 -2.71,-3.2 -6.79,-3.2 -7.42,-3.2 -2.5,0 -3.62,1.7 -3.62,3.87 0,1 0.5,4.8 2.31,7.2 1.31,1.72 3.13,2.69 4.88,2.69 0.48,0 2.15,-0.06 3.03,-1.04 z"
             id="path3702" /><path
             style="fill:#000000;stroke-width:0"
             inkscape:connector-curvature="0"
             d="m 674.14,417.65 h 13.9 c 0.69,0 1.64,0 1.64,1 0,1 -0.95,1 -1.64,1 h -13.9 v 13.96 c 0,0.68 0,1.64 -1,1.64 -0.99,0 -0.99,-0.96 -0.99,-1.64 V 419.65 H 658.2 c -0.7,0 -1.64,0 -1.64,-1 0,-1 0.94,-1 1.64,-1 h 13.95 v -13.94 c 0,-0.7 0,-1.65 0.99,-1.65 1,0 1,0.95 1,1.65 z"
             id="path3704" /><path
             style="fill:#000000;stroke-width:0"
             inkscape:connector-curvature="0"
             d="m 729.42,423.14 0.47,0.11 0.48,0.12 0.48,0.14 0.48,0.15 0.49,0.16 0.48,0.18 0.48,0.19 0.47,0.2 0.47,0.22 0.47,0.23 0.46,0.24 0.44,0.25 0.44,0.27 0.43,0.28 0.42,0.29 0.4,0.3 0.39,0.31 0.37,0.32 0.36,0.34 0.33,0.35 0.32,0.35 0.29,0.37 0.28,0.38 0.25,0.39 0.22,0.4 0.2,0.41 0.17,0.42 0.15,0.43 0.11,0.44 0.08,0.45 0.05,0.46 0.02,0.47 c 0,4.28 -4.48,7.47 -11,7.47 h -14.2 c -1,0 -1.45,0 -1.45,-1 0,-0.55 0.45,-0.55 1.4,-0.55 0.1,0 1.05,0 1.89,-0.09 0.89,-0.11 1.34,-0.16 1.34,-0.8 0,-0.2 -0.04,-0.36 -0.2,-0.95 l -6.67,-26.75 c -0.5,-1.95 -0.59,-2.34 -4.53,-2.34 -0.91,0 -1.35,0 -1.35,-1 0,-0.55 0.6,-0.55 0.69,-0.55 1.41,0 4.89,0.16 6.28,0.16 1.4,0 4.94,-0.16 6.33,-0.16 0.41,0 1,0 1,1 0,0.55 -0.45,0.55 -1.39,0.55 -1.84,0 -3.25,0 -3.25,0.89 0,0.29 0.11,0.54 0.16,0.84 l 3.28,13.2 h 5.94 l -0.05,1.11 H 719 l 3.25,13 c 0.29,1.19 0.43,1.69 1.39,1.85 0.45,0.04 2.04,0.04 3.03,0.04 3.55,0 9.08,0 9.08,-4.93 0,-1.69 -0.8,-5.13 -2.75,-7.07 -1.28,-1.29 -3.93,-2.89 -8.41,-2.89 l 0.05,-1.11 c 4.53,0 5.42,-2.78 5.42,-4.53 0,-0.75 -0.39,-2.28 -0.69,-3.44 -0.36,-1.39 -0.8,-3.23 -0.8,-4.23 0,-5.37 5.97,-5.37 6.63,-5.37 4.23,0 5.97,5.03 5.97,5.73 0,0.59 -0.55,0.59 -0.6,0.59 -0.45,0 -0.54,-0.36 -0.64,-0.7 -1.25,-3.69 -3.39,-4.53 -4.54,-4.53 -1.64,0 -1.99,1.09 -1.99,3.05 0,1.53 0.3,4.07 0.5,5.67 0.1,0.7 0.2,1.64 0.2,2.34 0,3.83 -3.34,5.38 -4.68,5.88 z"
             id="path3706" /><path
             style="fill:#000000;stroke-width:0"
             inkscape:connector-curvature="0"
             d="m 765.87,426.68 -4.17,9.91 c -0.16,0.41 -0.25,0.59 -0.25,0.64 0,0.31 0.84,1.25 2.94,1.45 0.5,0.05 1,0.1 1,0.96 0,0.59 -0.61,0.59 -0.75,0.59 -2.05,0 -4.19,-0.16 -6.29,-0.16 -1.25,0 -4.32,0.16 -5.57,0.16 -0.3,0 -0.91,0 -0.91,-1 0,-0.55 0.5,-0.55 1.16,-0.55 2.98,0 3.28,-0.5 3.73,-1.59 l 5.88,-13.91 -10.52,-11.31 -0.64,-0.55 c -2.44,-2.64 -4.78,-3.43 -7.33,-3.57 -0.64,-0.05 -1.09,-0.05 -1.09,-1 0,-0.05 0,-0.55 0.66,-0.55 1.48,0 3.12,0.16 4.67,0.16 1.84,0 3.79,-0.16 5.58,-0.16 0.31,0 0.9,0 0.9,1 0,0.5 -0.5,0.55 -0.59,0.55 -0.46,0.04 -2,0.14 -2,1.54 0,0.8 0.75,1.6 1.34,2.24 l 5.08,5.39 4.48,4.87 5.04,-11.9 c 0.2,-0.55 0.25,-0.6 0.25,-0.71 0,-0.39 -0.94,-1.23 -2.9,-1.43 -0.54,-0.05 -0.98,-0.11 -0.98,-0.96 0,-0.59 0.55,-0.59 0.73,-0.59 1.41,0 4.9,0.16 6.28,0.16 1.25,0 4.29,-0.16 5.54,-0.16 0.34,0 0.95,0 0.95,0.95 0,0.6 -0.5,0.6 -0.91,0.6 -3.33,0.04 -3.43,0.2 -4.28,2.18 -1.93,4.64 -5.28,12.41 -6.42,15.39 3.39,3.5 8.61,9.43 10.2,10.82 1.46,1.2 3.35,2.39 6.33,2.54 0.66,0.05 1.09,0.05 1.09,1 0,0.05 0,0.55 -0.63,0.55 -1.5,0 -3.15,-0.16 -4.69,-0.16 -1.85,0 -3.74,0.16 -5.53,0.16 -0.3,0 -0.94,0 -0.94,-1 0,-0.34 0.25,-0.5 0.59,-0.55 0.45,-0.04 2,-0.15 2,-1.54 0,-0.71 -0.55,-1.35 -0.95,-1.8 z"
             id="path3708" /></g>      </g>
      <g
         transform="matrix(1.02575,0,0,1.02575,61.57297,-105.45827)"
         id="g3970">
        <g
           style="font-style:normal;font-variant:normal;font-weight:normal;font-stretch:normal;letter-spacing:normal;word-spacing:normal;text-anchor:start;fill:none;fill-opacity:1;fill-rule:evenodd;stroke:#000000;stroke-linecap:butt;stroke-linejoin:miter;stroke-miterlimit:10.43299961;stroke-dasharray:none;stroke-dashoffset:0;stroke-opacity:1"
           id="g3968"
           transform="matrix(0.21040381,0,0,-0.21040381,-36.820667,231.60139)"
           xml:space="preserve"
           stroke-miterlimit="10.433"
           font-style="normal"
           font-variant="normal"
           font-weight="normal"
           font-stretch="normal"
           font-size-adjust="none"
           letter-spacing="normal"
           word-spacing="normal"><path
             style="fill:#000000;stroke-width:0"
             inkscape:connector-curvature="0"
             d="m 488.71,439.93 h -30.46 l -0.93,-11.22 h 1.25 c 0.68,8.04 1.43,9.68 8.95,9.68 0.91,0 2.2,0 2.7,-0.11 1.05,-0.19 1.05,-0.74 1.05,-1.89 v -26.25 c 0,-1.71 0,-2.39 -5.23,-2.39 h -2 v -1.55 c 2.04,0.16 7.12,0.16 9.42,0.16 2.29,0 7.42,0 9.47,-0.16 v 1.55 h -2 c -5.24,0 -5.24,0.68 -5.24,2.39 v 26.25 c 0,1 0,1.7 0.91,1.89 0.54,0.11 1.89,0.11 2.84,0.11 7.52,0 8.27,-1.64 8.95,-9.68 h 1.25 z"
             id="path3916" /><path
             style="fill:#000000;stroke-width:0"
             inkscape:connector-curvature="0"
             d="m 495.63,422.75 v 5.46 l -6.92,-0.54 v -1.55 c 3.49,0 3.89,-0.34 3.89,-2.78 v -13.36 c 0,-2.23 -0.55,-2.23 -3.89,-2.23 v -1.55 c 1.95,0.05 4.28,0.16 5.69,0.16 1.98,0 4.33,0 6.33,-0.16 v 1.55 h -1.05 c -3.69,0 -3.8,0.54 -3.8,2.34 v 7.67 c 0,4.92 2.1,9.36 5.89,9.36 0.35,0 0.44,0 0.55,-0.05 -0.16,-0.04 -1.16,-0.64 -1.16,-1.93 0,-1.41 1.05,-2.14 2.16,-2.14 0.89,0 2.14,0.59 2.14,2.18 0,1.6 -1.55,3.03 -3.69,3.03 -3.64,0 -5.43,-3.32 -6.14,-5.46 z"
             id="path3918" /><path
             style="fill:#000000;stroke-width:0"
             inkscape:connector-curvature="0"
             d="m 523.47,409.98 0.03,-0.19 0.02,-0.18 0.04,-0.19 0.04,-0.18 0.05,-0.19 0.06,-0.18 0.06,-0.18 0.07,-0.18 0.07,-0.18 0.08,-0.17 0.09,-0.18 0.1,-0.16 0.1,-0.16 0.1,-0.16 0.12,-0.16 0.12,-0.14 0.12,-0.14 0.13,-0.14 0.14,-0.13 0.15,-0.12 0.15,-0.12 0.15,-0.1 0.17,-0.1 0.17,-0.09 0.17,-0.08 0.18,-0.07 0.19,-0.06 0.19,-0.05 0.2,-0.04 0.21,-0.03 0.21,-0.02 0.21,-0.01 c 1.04,0 4.08,0.71 4.08,4.74 v 2.78 h -1.25 v -2.78 c 0,-2.89 -1.23,-3.19 -1.79,-3.19 -1.65,0 -1.85,2.23 -1.85,2.48 v 9.97 c 0,2.1 0,4.03 -1.78,5.88 -1.95,1.93 -4.44,2.73 -6.83,2.73 -4.09,0 -7.53,-2.33 -7.53,-5.62 0,-1.49 1,-2.35 2.3,-2.35 1.39,0 2.29,1 2.29,2.3 0,0.59 -0.25,2.23 -2.54,2.3 1.34,1.73 3.78,2.28 5.37,2.28 2.45,0 5.28,-1.94 5.28,-6.38 v -1.84 -1.05 -4.98 c 0,-4.74 -3.58,-6.42 -5.83,-6.42 -2.43,0 -4.48,1.75 -4.48,4.23 0,2.73 2.1,6.88 10.31,7.17 v 0 1.05 c -2.53,-0.14 -6.01,-0.3 -9.15,-1.8 -3.74,-1.69 -4.99,-4.28 -4.99,-6.47 0,-4.03 4.83,-5.28 7.97,-5.28 3.3,0 5.58,1.99 6.53,4.33 z"
             id="path3920" /><path
             style="fill:#000000;stroke-width:0"
             inkscape:connector-curvature="0"
             d="m 537.32,423.34 v -13.36 c 0,-2.23 -0.55,-2.23 -3.89,-2.23 v -1.55 c 1.75,0.05 4.28,0.16 5.62,0.16 1.3,0 3.9,-0.11 5.58,-0.16 v 1.55 c -3.33,0 -3.87,0 -3.87,2.23 v 9.17 c 0,5.19 3.53,7.97 6.72,7.97 3.14,0 3.68,-2.69 3.68,-5.53 v -11.61 c 0,-2.23 -0.54,-2.23 -3.89,-2.23 v -1.55 c 1.75,0.05 4.3,0.16 5.64,0.16 1.3,0 3.88,-0.11 5.58,-0.16 v 1.55 c -2.59,0 -3.84,0 -3.89,1.5 v 9.51 c 0,4.28 0,5.83 -1.55,7.61 -0.68,0.86 -2.34,1.84 -5.21,1.84 -3.64,0 -5.99,-2.14 -7.38,-5.21 v 5.21 l -7.03,-0.54 v -1.55 c 3.48,0 3.89,-0.34 3.89,-2.78 z"
             id="path3922" /><path
             style="fill:#000000;stroke-width:0"
             inkscape:connector-curvature="0"
             d="m 569.91,415.87 0.12,-0.02 0.12,-0.02 0.14,-0.03 0.16,-0.04 0.17,-0.04 0.18,-0.04 0.19,-0.05 0.2,-0.06 0.2,-0.06 0.21,-0.07 0.22,-0.08 0.22,-0.08 0.22,-0.1 0.22,-0.1 0.22,-0.11 0.22,-0.12 0.21,-0.14 0.22,-0.14 0.2,-0.15 0.2,-0.16 0.19,-0.18 0.18,-0.19 0.17,-0.2 0.16,-0.21 0.14,-0.22 0.06,-0.12 0.07,-0.12 0.06,-0.13 0.05,-0.12 0.05,-0.14 0.04,-0.13 0.04,-0.14 0.04,-0.14 0.03,-0.15 0.03,-0.15 0.02,-0.16 0.01,-0.15 0.01,-0.17 v -0.16 c 0,-2.53 -1.75,-4.53 -5.62,-4.53 -4.19,0 -5.99,2.84 -6.94,7.07 -0.14,0.64 -0.19,0.85 -0.69,0.85 -0.65,0 -0.65,-0.35 -0.65,-1.25 v -6.58 c 0,-0.84 0,-1.19 0.54,-1.19 0.25,0 0.3,0.05 1.25,1 0.1,0.1 0.1,0.19 1,1.14 2.19,-2.09 4.44,-2.14 5.49,-2.14 5.72,0 8.01,3.35 8.01,6.92 0,2.64 -1.5,4.14 -2.09,4.74 -1.64,1.59 -3.6,2 -5.69,2.39 -2.78,0.55 -6.12,1.2 -6.12,4.09 0,1.74 1.29,3.78 5.57,3.78 5.49,0 5.74,-4.48 5.83,-6.03 0.06,-0.45 0.5,-0.45 0.61,-0.45 0.64,0 0.64,0.25 0.64,1.2 v 5.03 c 0,0.85 0,1.19 -0.54,1.19 -0.25,0 -0.35,0 -1,-0.59 -0.15,-0.21 -0.65,-0.64 -0.85,-0.8 -1.89,1.39 -3.94,1.39 -4.69,1.39 -6.07,0 -7.96,-3.33 -7.96,-6.12 0,-1.74 0.79,-3.14 2.14,-4.24 1.59,-1.29 3,-1.59 6.57,-2.28 z"
             id="path3924" /><path
             style="fill:#000000;stroke-width:0"
             inkscape:connector-curvature="0"
             d="m 588.05,440.78 -7.17,-0.55 v -1.55 c 3.48,0 3.89,-0.34 3.89,-2.79 v -25.91 c 0,-2.23 -0.55,-2.23 -3.89,-2.23 v -1.55 c 1.64,0.05 4.28,0.16 5.53,0.16 1.25,0 3.68,-0.11 5.53,-0.16 v 1.55 c -3.35,0 -3.89,0 -3.89,2.23 z"
             id="path3926" /><path
             style="fill:#000000;stroke-width:0"
             inkscape:connector-curvature="0"
             d="m 609.62,409.98 0.03,-0.19 0.03,-0.18 0.03,-0.19 0.04,-0.18 0.05,-0.19 0.06,-0.18 0.06,-0.18 0.07,-0.18 0.07,-0.18 0.09,-0.17 0.08,-0.18 0.1,-0.16 0.1,-0.16 0.1,-0.16 0.12,-0.16 0.12,-0.14 0.12,-0.14 0.14,-0.14 0.13,-0.13 0.15,-0.12 0.15,-0.12 0.16,-0.1 0.16,-0.1 0.17,-0.09 0.17,-0.08 0.18,-0.07 0.19,-0.06 0.19,-0.05 0.2,-0.04 0.21,-0.03 0.21,-0.02 0.22,-0.01 c 1.03,0 4.07,0.71 4.07,4.74 v 2.78 h -1.25 v -2.78 c 0,-2.89 -1.23,-3.19 -1.79,-3.19 -1.64,0 -1.85,2.23 -1.85,2.48 v 9.97 c 0,2.1 0,4.03 -1.78,5.88 -1.95,1.93 -4.44,2.73 -6.83,2.73 -4.09,0 -7.53,-2.33 -7.53,-5.62 0,-1.49 1,-2.35 2.3,-2.35 1.39,0 2.3,1 2.3,2.3 0,0.59 -0.25,2.23 -2.55,2.3 1.34,1.73 3.78,2.28 5.37,2.28 2.46,0 5.29,-1.94 5.29,-6.38 v -1.84 -1.05 -4.98 c 0,-4.74 -3.58,-6.42 -5.83,-6.42 -2.44,0 -4.49,1.75 -4.49,4.23 0,2.73 2.1,6.88 10.32,7.17 v 0 1.05 c -2.54,-0.14 -6.02,-0.3 -9.16,-1.8 -3.73,-1.69 -4.99,-4.28 -4.99,-6.47 0,-4.03 4.83,-5.28 7.97,-5.28 3.3,0 5.58,1.99 6.53,4.33 z"
             id="path3928" /><path
             style="fill:#000000;stroke-width:0"
             inkscape:connector-curvature="0"
             d="m 626.61,426.12 h 7.13 v 1.55 h -7.13 v 9.17 h -1.25 c -0.04,-4.08 -1.54,-9.42 -6.42,-9.61 v -1.11 h 4.24 v -13.75 c 0,-6.12 4.62,-6.72 6.42,-6.72 3.53,0 4.93,3.53 4.93,6.72 v 2.84 h -1.25 v -2.73 c 0,-3.69 -1.5,-5.58 -3.34,-5.58 -3.33,0 -3.33,4.53 -3.33,5.38 z"
             id="path3930" /><path
             style="fill:#000000;stroke-width:0"
             inkscape:connector-curvature="0"
             d="m 646.12,428.21 -6.97,-0.54 v -1.55 c 3.23,0 3.69,-0.3 3.69,-2.73 v -13.41 c 0,-2.23 -0.55,-2.23 -3.89,-2.23 v -1.55 c 1.59,0.05 4.28,0.16 5.48,0.16 1.75,0 3.48,-0.11 5.19,-0.16 v 1.55 c -3.3,0 -3.5,0.25 -3.5,2.18 z"
             id="path3932" /><path
             style="fill:#000000;stroke-width:0"
             inkscape:connector-curvature="0"
             d="m 646.32,436.89 v 0.14 l -0.01,0.15 -0.02,0.14 -0.03,0.14 -0.03,0.13 -0.03,0.13 -0.05,0.13 -0.05,0.12 -0.05,0.12 -0.06,0.12 -0.07,0.11 -0.07,0.1 -0.07,0.1 -0.08,0.1 -0.09,0.1 -0.09,0.08 -0.09,0.09 -0.1,0.08 -0.1,0.07 -0.1,0.07 -0.11,0.07 -0.11,0.06 -0.12,0.05 -0.11,0.05 -0.12,0.04 -0.12,0.04 -0.12,0.03 -0.13,0.03 -0.12,0.02 -0.13,0.01 -0.13,0.01 -0.13,0.01 c -1.55,0 -2.64,-1.35 -2.64,-2.64 0,-1.35 1.09,-2.64 2.64,-2.64 1.39,0 2.64,1.04 2.64,2.64 z"
             id="path3934" /><path
             style="fill:#000000;stroke-width:0"
             inkscape:connector-curvature="0"
             d="m 674.57,416.86 -0.01,0.59 -0.05,0.59 -0.07,0.58 -0.1,0.57 -0.12,0.56 -0.15,0.55 -0.17,0.54 -0.2,0.53 -0.23,0.51 -0.24,0.5 -0.27,0.49 -0.29,0.47 -0.3,0.46 -0.33,0.44 -0.35,0.43 -0.37,0.4 -0.38,0.39 -0.4,0.37 -0.42,0.35 -0.43,0.32 -0.45,0.31 -0.46,0.28 -0.47,0.26 -0.49,0.24 -0.5,0.21 -0.51,0.18 -0.52,0.16 -0.53,0.13 -0.54,0.11 -0.55,0.07 -0.55,0.05 -0.57,0.01 -0.04,-1.09 c 2.19,0 4.33,-1.1 5.62,-3.24 1.3,-2.14 1.3,-5.03 1.3,-6.92 0,-1.8 0,-4.48 -1.09,-6.67 -1.1,-2.25 -3.29,-3.69 -5.79,-3.69 v 0 c -2.14,0 -4.32,1.05 -5.67,3.33 -1.25,2.2 -1.25,5.23 -1.25,7.03 0,1.94 0,4.63 1.19,6.83 1.36,2.28 3.69,3.33 5.69,3.33 l 0.04,1.09 c -6.21,0 -11.06,-5.42 -11.06,-11.65 0,-6.43 5.19,-11.21 11.02,-11.21 6.03,0 11.06,4.88 11.06,11.21 z"
             id="path3936" /><path
             style="fill:#000000;stroke-width:0"
             inkscape:connector-curvature="0"
             d="m 681.54,423.34 v -13.36 c 0,-2.23 -0.54,-2.23 -3.89,-2.23 v -1.55 c 1.75,0.05 4.28,0.16 5.63,0.16 1.29,0 3.89,-0.11 5.57,-0.16 v 1.55 c -3.32,0 -3.87,0 -3.87,2.23 v 9.17 c 0,5.19 3.53,7.97 6.72,7.97 3.14,0 3.69,-2.69 3.69,-5.53 v -11.61 c 0,-2.23 -0.55,-2.23 -3.89,-2.23 v -1.55 c 1.75,0.05 4.29,0.16 5.64,0.16 1.29,0 3.87,-0.11 5.58,-0.16 v 1.55 c -2.6,0 -3.85,0 -3.9,1.5 v 9.51 c 0,4.28 0,5.83 -1.54,7.61 -0.69,0.86 -2.35,1.84 -5.22,1.84 -3.64,0 -5.99,-2.14 -7.38,-5.21 v 5.21 l -7.03,-0.54 v -1.55 c 3.49,0 3.89,-0.34 3.89,-2.78 z"
             id="path3938" /><path
             style="fill:#000000;stroke-width:0"
             inkscape:connector-curvature="0"
             d="m 744.38,426.68 -4.18,9.91 c -0.15,0.41 -0.25,0.59 -0.25,0.64 0,0.31 0.85,1.25 2.94,1.45 0.5,0.05 1,0.1 1,0.96 0,0.59 -0.61,0.59 -0.75,0.59 -2.05,0 -4.19,-0.16 -6.28,-0.16 -1.25,0 -4.33,0.16 -5.58,0.16 -0.3,0 -0.9,0 -0.9,-1 0,-0.55 0.5,-0.55 1.15,-0.55 2.99,0 3.28,-0.5 3.74,-1.59 l 5.87,-13.91 -10.52,-11.31 -0.64,-0.55 c -2.43,-2.64 -4.78,-3.43 -7.32,-3.57 -0.64,-0.05 -1.1,-0.05 -1.1,-1 0,-0.05 0,-0.55 0.66,-0.55 1.48,0 3.12,0.16 4.67,0.16 1.84,0 3.8,-0.16 5.58,-0.16 0.31,0 0.91,0 0.91,1 0,0.5 -0.5,0.55 -0.6,0.55 -0.45,0.04 -2,0.14 -2,1.54 0,0.8 0.75,1.6 1.34,2.24 l 5.08,5.39 4.49,4.87 5.03,-11.9 c 0.2,-0.55 0.25,-0.6 0.25,-0.71 0,-0.39 -0.94,-1.23 -2.89,-1.43 -0.55,-0.05 -0.99,-0.11 -0.99,-0.96 0,-0.59 0.55,-0.59 0.74,-0.59 1.4,0 4.89,0.16 6.28,0.16 1.25,0 4.28,-0.16 5.53,-0.16 0.34,0 0.95,0 0.95,0.95 0,0.6 -0.5,0.6 -0.9,0.6 -3.33,0.04 -3.44,0.2 -4.28,2.18 -1.94,4.64 -5.29,12.41 -6.43,15.39 3.4,3.5 8.61,9.43 10.21,10.82 1.45,1.2 3.34,2.39 6.33,2.54 0.65,0.05 1.09,0.05 1.09,1 0,0.05 0,0.55 -0.64,0.55 -1.5,0 -3.14,-0.16 -4.69,-0.16 -1.84,0 -3.73,0.16 -5.53,0.16 -0.3,0 -0.94,0 -0.94,-1 0,-0.34 0.25,-0.5 0.6,-0.55 0.45,-0.04 2,-0.15 2,-1.54 0,-0.71 -0.55,-1.35 -0.96,-1.8 z"
             id="path3940" /><path
             style="fill:#000000;stroke-width:0"
             inkscape:connector-curvature="0"
             d="m 776.78,412.11 -0.11,-0.03 -0.11,-0.02 -0.11,-0.03 -0.1,-0.04 -0.1,-0.03 -0.1,-0.04 -0.09,-0.05 -0.09,-0.05 -0.08,-0.05 -0.08,-0.05 -0.07,-0.06 -0.07,-0.06 -0.07,-0.06 -0.06,-0.07 -0.06,-0.06 -0.06,-0.07 -0.05,-0.07 -0.05,-0.07 -0.04,-0.07 -0.05,-0.08 -0.03,-0.07 -0.04,-0.08 -0.03,-0.07 -0.03,-0.08 -0.02,-0.07 -0.02,-0.08 -0.02,-0.08 -0.01,-0.07 -0.01,-0.08 -0.01,-0.07 v -0.08 L 775,410.15 c 0,-0.94 0.74,-1.28 1.36,-1.28 0.77,0 1.99,0.55 1.99,2.22 0,2.37 -2.72,3.03 -4.6,3.03 -5.23,0 -10.07,-4.8 -10.07,-9.64 0,-3 2.09,-6.06 6.45,-6.06 5.89,0 8.64,3.44 8.64,3.94 0,0.2 -0.31,0.59 -0.59,0.59 -0.21,0 -0.28,-0.08 -0.57,-0.36 -2.71,-3.2 -6.79,-3.2 -7.42,-3.2 -2.5,0 -3.62,1.7 -3.62,3.87 0,1 0.5,4.8 2.31,7.2 1.31,1.72 3.12,2.69 4.87,2.69 0.49,0 2.16,-0.06 3.03,-1.04 z"
             id="path3942" /><path
             style="fill:#000000;stroke-width:0"
             inkscape:connector-curvature="0"
             d="m 804.01,417.71 0.05,1.05 c 0.29,7.42 4.48,8.66 6.19,8.66 5.12,0 5.62,-6.72 5.62,-8.66 h -11.81 l -0.05,-1.05 h 13.91 c 1.09,0 1.23,0 1.23,1.05 0,4.92 -2.68,9.75 -8.9,9.75 -5.78,0 -10.38,-5.12 -10.38,-11.36 0,-6.67 5.23,-11.5 10.97,-11.5 6.08,0 8.31,5.53 8.31,6.47 0,0.5 -0.39,0.61 -0.64,0.61 -0.45,0 -0.54,-0.3 -0.66,-0.7 -1.73,-5.13 -6.21,-5.13 -6.71,-5.13 -2.5,0 -4.49,1.49 -5.63,3.33 -1.5,2.39 -1.5,5.69 -1.5,7.48 z"
             id="path3944" /><path
             style="fill:#000000;stroke-width:0"
             inkscape:connector-curvature="0"
             d="m 829.18,426.12 h 7.13 v 1.55 h -7.13 v 9.17 h -1.25 c -0.04,-4.08 -1.54,-9.42 -6.42,-9.61 v -1.11 h 4.24 v -13.75 c 0,-6.12 4.62,-6.72 6.42,-6.72 3.53,0 4.93,3.53 4.93,6.72 v 2.84 h -1.25 v -2.73 c 0,-3.69 -1.5,-5.58 -3.34,-5.58 -3.33,0 -3.33,4.53 -3.33,5.38 z"
             id="path3946" /><path
             style="fill:#000000;stroke-width:0"
             inkscape:connector-curvature="0"
             d="m 864.87,422.75 v 5.46 l -6.92,-0.54 v -1.55 c 3.48,0 3.89,-0.34 3.89,-2.78 v -13.36 c 0,-2.23 -0.55,-2.23 -3.89,-2.23 v -1.55 c 1.95,0.05 4.28,0.16 5.68,0.16 1.99,0 4.33,0 6.33,-0.16 v 1.55 h -1.05 c -3.68,0 -3.79,0.54 -3.79,2.34 v 7.67 c 0,4.92 2.09,9.36 5.89,9.36 0.34,0 0.44,0 0.54,-0.05 -0.15,-0.04 -1.15,-0.64 -1.15,-1.93 0,-1.41 1.05,-2.14 2.15,-2.14 0.9,0 2.15,0.59 2.15,2.18 0,1.6 -1.55,3.03 -3.69,3.03 -3.64,0 -5.44,-3.32 -6.14,-5.46 z"
             id="path3948" /><path
             style="fill:#000000;stroke-width:0"
             inkscape:connector-curvature="0"
             d="m 899.58,416.86 -0.01,0.59 -0.05,0.59 -0.07,0.58 -0.09,0.57 -0.13,0.56 -0.15,0.55 -0.17,0.54 -0.2,0.53 -0.22,0.51 -0.25,0.5 -0.26,0.49 -0.29,0.47 -0.31,0.46 -0.33,0.44 -0.35,0.43 -0.36,0.4 -0.39,0.39 -0.4,0.37 -0.42,0.35 -0.43,0.32 -0.44,0.31 -0.47,0.28 -0.47,0.26 -0.49,0.24 -0.5,0.21 -0.51,0.18 -0.52,0.16 -0.53,0.13 -0.54,0.11 -0.55,0.07 -0.55,0.05 -0.56,0.01 -0.05,-1.09 c 2.19,0 4.33,-1.1 5.63,-3.24 1.29,-2.14 1.29,-5.03 1.29,-6.92 0,-1.8 0,-4.48 -1.09,-6.67 -1.1,-2.25 -3.28,-3.69 -5.78,-3.69 v 0 c -2.14,0 -4.33,1.05 -5.67,3.33 -1.25,2.2 -1.25,5.23 -1.25,7.03 0,1.94 0,4.63 1.18,6.83 1.36,2.28 3.69,3.33 5.69,3.33 l 0.05,1.09 c -6.22,0 -11.07,-5.42 -11.07,-11.65 0,-6.43 5.19,-11.21 11.02,-11.21 6.03,0 11.06,4.88 11.06,11.21 z"
             id="path3950" /><path
             style="fill:#000000;stroke-width:0"
             inkscape:connector-curvature="0"
             d="m 909.7,426.12 h 7.12 v 1.55 h -7.12 v 9.17 h -1.25 c -0.05,-4.08 -1.55,-9.42 -6.43,-9.61 v -1.11 h 4.24 v -13.75 c 0,-6.12 4.62,-6.72 6.42,-6.72 3.53,0 4.94,3.53 4.94,6.72 v 2.84 h -1.25 v -2.73 c 0,-3.69 -1.5,-5.58 -3.35,-5.58 -3.32,0 -3.32,4.53 -3.32,5.38 z"
             id="path3952" /><path
             style="fill:#000000;stroke-width:0"
             inkscape:connector-curvature="0"
             d="m 936.98,409.98 0.02,-0.19 0.03,-0.18 0.04,-0.19 0.04,-0.18 0.05,-0.19 0.05,-0.18 0.07,-0.18 0.06,-0.18 0.08,-0.18 0.08,-0.17 0.09,-0.18 0.09,-0.16 0.1,-0.16 0.11,-0.16 0.11,-0.16 0.12,-0.14 0.13,-0.14 0.13,-0.14 0.14,-0.13 0.14,-0.12 0.15,-0.12 0.16,-0.1 0.16,-0.1 0.17,-0.09 0.18,-0.08 0.18,-0.07 0.19,-0.06 0.19,-0.05 0.2,-0.04 0.2,-0.03 0.21,-0.02 0.22,-0.01 c 1.03,0 4.08,0.71 4.08,4.74 v 2.78 h -1.25 v -2.78 c 0,-2.89 -1.23,-3.19 -1.8,-3.19 -1.64,0 -1.84,2.23 -1.84,2.48 v 9.97 c 0,2.1 0,4.03 -1.78,5.88 -1.96,1.93 -4.44,2.73 -6.83,2.73 -4.1,0 -7.53,-2.33 -7.53,-5.62 0,-1.49 1,-2.35 2.3,-2.35 1.38,0 2.29,1 2.29,2.3 0,0.59 -0.25,2.23 -2.54,2.3 1.34,1.73 3.78,2.28 5.37,2.28 2.45,0 5.28,-1.94 5.28,-6.38 v -1.84 -1.05 -4.98 c 0,-4.74 -3.58,-6.42 -5.83,-6.42 -2.44,0 -4.48,1.75 -4.48,4.23 0,2.73 2.09,6.88 10.31,7.17 v 0 1.05 c -2.53,-0.14 -6.02,-0.3 -9.15,-1.8 -3.74,-1.69 -4.99,-4.28 -4.99,-6.47 0,-4.03 4.83,-5.28 7.97,-5.28 3.3,0 5.58,1.99 6.53,4.33 z"
             id="path3954" /><path
             style="fill:#000000;stroke-width:0"
             inkscape:connector-curvature="0"
             d="m 953.97,426.12 h 7.12 v 1.55 h -7.12 v 9.17 h -1.25 c -0.05,-4.08 -1.55,-9.42 -6.42,-9.61 v -1.11 h 4.23 v -13.75 c 0,-6.12 4.63,-6.72 6.42,-6.72 3.53,0 4.94,3.53 4.94,6.72 v 2.84 h -1.25 v -2.73 c 0,-3.69 -1.5,-5.58 -3.34,-5.58 -3.33,0 -3.33,4.53 -3.33,5.38 z"
             id="path3956" /><path
             style="fill:#000000;stroke-width:0"
             inkscape:connector-curvature="0"
             d="m 973.47,428.21 -6.97,-0.54 v -1.55 c 3.24,0 3.69,-0.3 3.69,-2.73 v -13.41 c 0,-2.23 -0.54,-2.23 -3.89,-2.23 v -1.55 c 1.6,0.05 4.28,0.16 5.48,0.16 1.75,0 3.49,-0.11 5.19,-0.16 v 1.55 c -3.29,0 -3.5,0.25 -3.5,2.18 z"
             id="path3958" /><path
             style="fill:#000000;stroke-width:0"
             inkscape:connector-curvature="0"
             d="m 973.68,436.89 -0.01,0.14 -0.01,0.15 -0.02,0.14 -0.02,0.14 -0.03,0.13 -0.04,0.13 -0.04,0.13 -0.05,0.12 -0.06,0.12 -0.06,0.12 -0.06,0.11 -0.07,0.1 -0.08,0.1 -0.08,0.1 -0.08,0.1 -0.09,0.08 -0.1,0.09 -0.09,0.08 -0.1,0.07 -0.11,0.07 -0.11,0.07 -0.11,0.06 -0.11,0.05 -0.12,0.05 -0.11,0.04 -0.12,0.04 -0.13,0.03 -0.12,0.03 -0.13,0.02 -0.13,0.01 -0.13,0.01 -0.13,0.01 c -1.54,0 -2.63,-1.35 -2.63,-2.64 0,-1.35 1.09,-2.64 2.63,-2.64 1.4,0 2.65,1.04 2.65,2.64 z"
             id="path3960" /><path
             style="fill:#000000;stroke-width:0"
             inkscape:connector-curvature="0"
             d="m 1001.9,416.86 v 0.59 0.59 l -0.1,0.58 -0.1,0.57 -0.1,0.56 -0.2,0.55 -0.1,0.54 -0.2,0.53 -0.3,0.51 -0.2,0.5 -0.3,0.49 -0.3,0.47 -0.28,0.46 -0.32,0.44 -0.35,0.43 -0.37,0.4 -0.38,0.39 -0.4,0.37 -0.42,0.35 -0.43,0.32 -0.45,0.31 -0.46,0.28 -0.48,0.26 -0.48,0.24 -0.5,0.21 -0.51,0.18 -0.52,0.16 -0.53,0.13 -0.54,0.11 -0.55,0.07 -0.56,0.05 -0.56,0.01 -0.05,-1.09 c 2.19,0 4.33,-1.1 5.63,-3.24 1.29,-2.14 1.29,-5.03 1.29,-6.92 0,-1.8 0,-4.48 -1.09,-6.67 -1.09,-2.25 -3.28,-3.69 -5.78,-3.69 v 0 c -2.14,0 -4.33,1.05 -5.67,3.33 -1.25,2.2 -1.25,5.23 -1.25,7.03 0,1.94 0,4.63 1.19,6.83 1.35,2.28 3.68,3.33 5.68,3.33 l 0.05,1.09 c -6.22,0 -11.06,-5.42 -11.06,-11.65 0,-6.43 5.18,-11.21 11.01,-11.21 6.04,0 11.04,4.88 11.04,11.21 z"
             id="path3962" /><path
             style="fill:#000000;stroke-width:0"
             inkscape:connector-curvature="0"
             d="m 1008.9,423.34 v -13.36 c 0,-2.23 -0.6,-2.23 -3.9,-2.23 v -1.55 c 1.8,0.05 4.3,0.16 5.6,0.16 1.3,0 3.9,-0.11 5.6,-0.16 v 1.55 c -3.3,0 -3.9,0 -3.9,2.23 v 9.17 c 0,5.19 3.6,7.97 6.7,7.97 3.2,0 3.7,-2.69 3.7,-5.53 v -11.61 c 0,-2.23 -0.5,-2.23 -3.9,-2.23 v -1.55 c 1.8,0.05 4.4,0.16 5.7,0.16 1.3,0 3.9,-0.11 5.6,-0.16 v 1.55 c -2.6,0 -3.9,0 -3.9,1.5 v 9.51 c 0,4.28 0,5.83 -1.6,7.61 -0.6,0.86 -2.3,1.84 -5.2,1.84 -3.6,0 -6,-2.14 -7.4,-5.21 v 5.21 l -7,-0.54 v -1.55 c 3.5,0 3.9,-0.34 3.9,-2.78 z"
             id="path3964" /><path
             style="fill:#000000;stroke-width:0"
             inkscape:connector-curvature="0"
             d="m 1073.4,423.14 0.5,0.11 0.5,0.12 0.5,0.14 0.4,0.15 0.5,0.16 0.5,0.18 0.5,0.19 0.5,0.2 0.4,0.22 0.5,0.23 0.5,0.24 0.4,0.25 0.4,0.27 0.5,0.28 0.4,0.29 0.4,0.3 0.4,0.31 0.4,0.32 0.3,0.34 0.3,0.35 0.4,0.35 0.3,0.37 0.2,0.38 0.3,0.39 0.2,0.4 0.2,0.41 0.2,0.42 0.1,0.43 0.1,0.44 0.1,0.45 0.1,0.46 v 0.47 c 0,4.28 -4.5,7.47 -11,7.47 h -14.2 c -1,0 -1.5,0 -1.5,-1 0,-0.55 0.5,-0.55 1.4,-0.55 0.1,0 1.1,0 1.9,-0.09 0.9,-0.11 1.4,-0.16 1.4,-0.8 0,-0.2 -0.1,-0.36 -0.2,-0.95 l -6.7,-26.75 c -0.5,-1.95 -0.6,-2.34 -4.5,-2.34 -0.9,0 -1.4,0 -1.4,-1 0,-0.55 0.6,-0.55 0.7,-0.55 1.4,0 4.9,0.16 6.3,0.16 1.4,0 4.9,-0.16 6.3,-0.16 0.4,0 1,0 1,1 0,0.55 -0.4,0.55 -1.4,0.55 -1.8,0 -3.2,0 -3.2,0.89 0,0.29 0.1,0.54 0.1,0.84 l 3.3,13.2 h 6 l -0.1,1.11 h -5.6 l 3.3,13 c 0.3,1.19 0.4,1.69 1.4,1.85 0.4,0.04 2,0.04 3,0.04 3.5,0 9.1,0 9.1,-4.93 0,-1.69 -0.8,-5.13 -2.8,-7.07 -1.3,-1.29 -3.9,-2.89 -8.4,-2.89 l 0.1,-1.11 c 4.5,0 5.4,-2.78 5.4,-4.53 0,-0.75 -0.4,-2.28 -0.7,-3.44 -0.4,-1.39 -0.8,-3.23 -0.8,-4.23 0,-5.37 6,-5.37 6.6,-5.37 4.2,0 6,5.03 6,5.73 0,0.59 -0.6,0.59 -0.6,0.59 -0.5,0 -0.6,-0.36 -0.7,-0.7 -1.2,-3.69 -3.3,-4.53 -4.5,-4.53 -1.6,0 -2,1.09 -2,3.05 0,1.53 0.3,4.07 0.5,5.67 0.1,0.7 0.2,1.64 0.2,2.34 0,3.83 -3.3,5.38 -4.7,5.88 z"
             id="path3966" /></g>      </g>
    </g>
    <g
       id="g1452"
       transform="matrix(1.3957233,0,0,1.3957233,-156.32876,-258.44839)">
      <g
         word-spacing="normal"
         letter-spacing="normal"
         font-size-adjust="none"
         font-stretch="normal"
         font-weight="normal"
         font-variant="normal"
         font-style="normal"
         stroke-miterlimit="10.433"
         xml:space="preserve"
         transform="matrix(0.16309253,0,0,-0.16309253,-28.541192,264.60519)"
         id="g1450"
         style="font-style:normal;font-variant:normal;font-weight:normal;font-stretch:normal;letter-spacing:normal;word-spacing:normal;text-anchor:start;fill:none;fill-opacity:1;fill-rule:evenodd;stroke:#000000;stroke-linecap:butt;stroke-linejoin:miter;stroke-miterlimit:10.43299961;stroke-dasharray:none;stroke-dashoffset:0;stroke-opacity:1"><path
           id="path1414"
           d="m 1149.9,239.84 -4.2,9.91 c -0.1,0.41 -0.3,0.59 -0.3,0.64 0,0.31 0.9,1.25 3,1.45 0.5,0.05 1,0.1 1,0.96 0,0.59 -0.6,0.59 -0.8,0.59 -2,0 -4.2,-0.16 -6.2,-0.16 -1.3,0 -4.4,0.16 -5.6,0.16 -0.3,0 -0.9,0 -0.9,-1 0,-0.55 0.5,-0.55 1.1,-0.55 3,0 3.3,-0.5 3.8,-1.59 l 5.8,-13.91 -10.5,-11.31 -0.6,-0.55 c -2.4,-2.64 -4.8,-3.43 -7.3,-3.57 -0.7,-0.05 -1.1,-0.05 -1.1,-1 0,-0.05 0,-0.55 0.6,-0.55 1.5,0 3.1,0.16 4.7,0.16 1.8,0 3.8,-0.16 5.6,-0.16 0.3,0 0.9,0 0.9,1 0,0.5 -0.5,0.55 -0.6,0.55 -0.5,0.04 -2,0.14 -2,1.54 0,0.8 0.7,1.6 1.3,2.24 l 5.1,5.39 4.5,4.87 5,-11.9 c 0.2,-0.55 0.3,-0.6 0.3,-0.71 0,-0.39 -1,-1.23 -2.9,-1.43 -0.6,-0.05 -1,-0.11 -1,-0.96 0,-0.59 0.5,-0.59 0.7,-0.59 1.4,0 4.9,0.16 6.3,0.16 1.3,0 4.3,-0.16 5.5,-0.16 0.4,0 1,0 1,0.95 0,0.6 -0.5,0.6 -0.9,0.6 -3.3,0.04 -3.4,0.2 -4.3,2.18 -1.9,4.64 -5.3,12.41 -6.4,15.39 3.4,3.5 8.6,9.43 10.2,10.82 1.4,1.2 3.3,2.39 6.3,2.54 0.7,0.05 1.1,0.05 1.1,1 0,0.05 0,0.55 -0.6,0.55 -1.5,0 -3.2,-0.16 -4.7,-0.16 -1.9,0 -3.7,0.16 -5.6,0.16 -0.3,0 -0.9,0 -0.9,-1 0,-0.34 0.3,-0.5 0.6,-0.55 0.5,-0.04 2,-0.15 2,-1.54 0,-0.71 -0.5,-1.35 -1,-1.8 z"
           inkscape:connector-curvature="0"
           style="fill:#000000;stroke-width:0" /><path
           id="path1416"
           d="m 1219,235.66 h 0.1 0.2 0.1 l 0.1,0.01 h 0.1 v 0.01 l 0.1,0.01 0.1,0.01 v 0.01 l 0.1,0.01 0.1,0.02 v 0.02 l 0.1,0.02 0.1,0.02 v 0.03 l 0.1,0.03 v 0.04 l 0.1,0.03 v 0.05 l 0.1,0.04 v 0.05 0.03 l 0.1,0.03 v 0.02 0.03 0.04 0.03 0.03 0.04 0.03 l 0.1,0.04 v 0.04 0.04 0.04 0.04 0.05 0.04 c 0,1 -1,1 -1.7,1 h -29.8 c -0.7,0 -1.6,0 -1.6,-1 0,-0.98 0.9,-0.98 1.6,-0.98 z"
           inkscape:connector-curvature="0"
           style="fill:#000000;stroke-width:0" /><path
           id="path1418"
           d="m 1219,225.98 h 0.1 0.1 l 0.1,0.01 h 0.1 0.1 l 0.1,0.01 0.1,0.01 v 0 l 0.1,0.01 0.1,0.02 v 0.01 l 0.1,0.02 0.1,0.02 v 0.02 l 0.1,0.02 v 0.03 l 0.1,0.03 v 0.04 l 0.1,0.04 v 0.04 l 0.1,0.05 v 0.02 0.03 0.02 l 0.1,0.03 v 0.03 0.03 0.03 0.03 0.04 0.03 0.04 l 0.1,0.04 v 0.04 0.04 0.04 0.04 0.05 0.04 c 0,1 -1,1 -1.7,1 h -29.8 c -0.7,0 -1.6,0 -1.6,-1 0,-1 0.9,-1 1.6,-1 z"
           inkscape:connector-curvature="0"
           style="fill:#000000;stroke-width:0" /><polygon
           id="polygon1420"
           points="1270.2,347.94 1270.2,351.38 1253.6,351.38 1253.6,261.75 1257,261.75 1257,347.94 "
           style="fill:#000000;stroke-width:0" /><polygon
           id="polygon1422"
           points="1257,231.78 1257,261.77 1253.6,261.77 1253.6,231.78 "
           style="fill:#000000;stroke-width:0" /><polygon
           id="polygon1424"
           points="1257,201.9 1257,231.89 1253.6,231.89 1253.6,201.9 "
           style="fill:#000000;stroke-width:0" /><polygon
           id="polygon1426"
           points="1257,115.72 1257,201.92 1253.6,201.92 1253.6,112.28 1270.2,112.28 1270.2,115.72 "
           style="fill:#000000;stroke-width:0" /><path
           id="path1428"
           d="m 1287.2,324.53 v 0.13 l 0.1,0.15 v 0.16 l 0.1,0.18 v 0.2 l 0.1,0.2 v 0.22 l 0.1,0.22 0.1,0.24 0.1,0.23 0.1,0.25 0.1,0.25 0.1,0.25 0.1,0.25 0.1,0.24 0.2,0.25 0.1,0.24 0.2,0.24 0.1,0.23 0.2,0.23 0.2,0.21 0.2,0.2 0.2,0.19 0.2,0.18 0.3,0.16 0.2,0.14 0.1,0.07 0.2,0.06 0.1,0.05 0.1,0.05 0.2,0.05 0.1,0.04 0.2,0.03 0.1,0.03 0.2,0.02 0.1,0.02 0.2,0.01 h 0.1 c 0.3,0 1.5,0 2.5,-0.64 -1.4,-0.25 -2.4,-1.5 -2.4,-2.69 0,-0.79 0.6,-1.75 1.9,-1.75 1.1,0 2.7,0.89 2.7,2.89 0,2.6 -2.9,3.29 -4.6,3.29 -2.9,0 -4.7,-2.64 -5.3,-3.79 -1.2,3.29 -3.9,3.79 -5.3,3.79 -5.2,0 -8.1,-6.43 -8.1,-7.68 0,-0.5 0.5,-0.5 0.7,-0.5 0.3,0 0.5,0.11 0.6,0.55 1.7,5.28 5,6.53 6.7,6.53 0.9,0 2.7,-0.44 2.7,-3.33 0,-1.54 -0.9,-4.89 -2.7,-11.86 -0.8,-3.09 -2.6,-5.18 -4.8,-5.18 -0.3,0 -1.4,0 -2.5,0.65 1.3,0.24 2.4,1.28 2.4,2.69 0,1.34 -1.1,1.74 -1.8,1.74 -1.6,0 -2.8,-1.3 -2.8,-2.9 0,-2.28 2.5,-3.28 4.7,-3.28 3.3,0 5.1,3.49 5.2,3.78 0.6,-1.84 2.4,-3.78 5.4,-3.78 5.1,0 8,6.43 8,7.68 0,0.5 -0.5,0.5 -0.6,0.5 -0.5,0 -0.6,-0.21 -0.7,-0.55 -1.6,-5.33 -5,-6.53 -6.6,-6.53 -2,0 -2.7,1.59 -2.7,3.29 0,1.1 0.2,2.19 0.8,4.38 z"
           inkscape:connector-curvature="0"
           style="fill:#000000;stroke-width:0" /><path
           id="path1430"
           d="m 1310.7,324.2 v 0.04 0.04 0.04 0.04 0.04 0.04 0.04 0.03 0.03 0.04 0.03 0.03 0.03 0.03 l -0.1,0.02 v 0.03 0.03 0.02 0.02 0.03 0.04 0.04 0.03 0.03 l -0.1,0.03 v 0.02 0.03 0.02 l -0.1,0.01 v 0.02 l -0.1,0.01 v 0.01 0.01 0 l -0.1,0.01 v 0 0 0.01 h -0.1 v 0 0 h -0.1 v 0.01 0 h -0.1 v 0 h -0.1 v 0 0 h -0.1 v 0 h -0.1 c -2.2,-2.2 -5.4,-2.23 -6.8,-2.23 v -1.25 c 0.8,0 3.1,0 5,0.96 V 304.9 c 0,-1.16 0,-1.61 -3.4,-1.61 h -1.3 v -1.25 c 0.6,0.03 4.8,0.14 6.1,0.14 1.1,0 5.5,-0.11 6.3,-0.14 v 1.25 h -1.3 c -3.5,0 -3.5,0.45 -3.5,1.61 z"
           inkscape:connector-curvature="0"
           style="fill:#000000;stroke-width:0" /><path
           id="path1432"
           d="m 1287.2,264.77 v 0.13 l 0.1,0.15 v 0.16 l 0.1,0.18 v 0.19 l 0.1,0.21 v 0.22 l 0.1,0.22 0.1,0.23 0.1,0.24 0.1,0.25 0.1,0.24 0.1,0.25 0.1,0.25 0.1,0.25 0.2,0.25 0.1,0.24 0.2,0.24 0.1,0.23 0.2,0.22 0.2,0.22 0.2,0.2 0.2,0.19 0.2,0.18 0.3,0.16 0.2,0.14 0.1,0.07 0.2,0.06 0.1,0.05 0.1,0.05 0.2,0.05 0.1,0.04 0.2,0.03 0.1,0.03 0.2,0.02 0.1,0.02 0.2,0.01 h 0.1 c 0.3,0 1.5,0 2.5,-0.64 -1.4,-0.25 -2.4,-1.5 -2.4,-2.69 0,-0.79 0.6,-1.75 1.9,-1.75 1.1,0 2.7,0.89 2.7,2.89 0,2.6 -2.9,3.28 -4.6,3.28 -2.9,0 -4.7,-2.64 -5.3,-3.78 -1.2,3.28 -3.9,3.78 -5.3,3.78 -5.2,0 -8.1,-6.42 -8.1,-7.67 0,-0.5 0.5,-0.5 0.7,-0.5 0.3,0 0.5,0.11 0.6,0.55 1.7,5.28 5,6.53 6.7,6.53 0.9,0 2.7,-0.44 2.7,-3.33 0,-1.54 -0.9,-4.89 -2.7,-11.86 -0.8,-3.09 -2.6,-5.18 -4.8,-5.18 -0.3,0 -1.4,0 -2.5,0.65 1.3,0.24 2.4,1.28 2.4,2.69 0,1.34 -1.1,1.73 -1.8,1.73 -1.6,0 -2.8,-1.29 -2.8,-2.89 0,-2.28 2.5,-3.28 4.7,-3.28 3.3,0 5.1,3.49 5.2,3.78 0.6,-1.84 2.4,-3.78 5.4,-3.78 5.1,0 8,6.42 8,7.67 0,0.5 -0.5,0.5 -0.6,0.5 -0.5,0 -0.6,-0.2 -0.7,-0.54 -1.6,-5.33 -5,-6.53 -6.6,-6.53 -2,0 -2.7,1.59 -2.7,3.29 0,1.1 0.2,2.19 0.8,4.38 z"
           inkscape:connector-curvature="0"
           style="fill:#000000;stroke-width:0" /><path
           id="path1434"
           d="m 1316.6,248.62 h -1.2 c -0.1,-0.76 -0.5,-2.82 -0.9,-3.17 -0.3,-0.2 -2.9,-0.2 -3.4,-0.2 h -6.5 c 3.7,3.23 4.9,4.2 7,5.84 2.6,2.07 5,4.22 5,7.53 0,4.22 -3.7,6.8 -8.2,6.8 -4.3,0 -7.2,-3.03 -7.2,-6.23 0,-1.78 1.5,-1.96 1.9,-1.96 0.8,0 1.8,0.6 1.8,1.85 0,0.62 -0.3,1.84 -2.1,1.84 1.1,2.47 3.5,3.24 5.1,3.24 3.5,0 5.3,-2.71 5.3,-5.54 0,-3.03 -2.1,-5.43 -3.3,-6.68 l -8.3,-8.3 c -0.4,-0.31 -0.4,-0.39 -0.4,-1.36 h 14.4 z"
           inkscape:connector-curvature="0"
           style="fill:#000000;stroke-width:0" /><path
           id="path1436"
           d="m 1287.2,205.01 v 0.13 l 0.1,0.15 v 0.16 l 0.1,0.18 v 0.2 l 0.1,0.2 v 0.22 l 0.1,0.22 0.1,0.24 0.1,0.24 0.1,0.24 0.1,0.25 0.1,0.25 0.1,0.25 0.1,0.25 0.2,0.24 0.1,0.24 0.2,0.24 0.1,0.23 0.2,0.23 0.2,0.21 0.2,0.2 0.2,0.19 0.2,0.18 0.3,0.16 0.2,0.14 0.1,0.07 0.2,0.06 0.1,0.05 0.1,0.05 0.2,0.05 0.1,0.04 0.2,0.03 0.1,0.03 0.2,0.02 0.1,0.02 0.2,0.01 h 0.1 c 0.3,0 1.5,0 2.5,-0.64 -1.4,-0.25 -2.4,-1.5 -2.4,-2.69 0,-0.79 0.6,-1.75 1.9,-1.75 1.1,0 2.7,0.9 2.7,2.9 0,2.59 -2.9,3.28 -4.6,3.28 -2.9,0 -4.7,-2.64 -5.3,-3.78 -1.2,3.28 -3.9,3.78 -5.3,3.78 -5.2,0 -8.1,-6.43 -8.1,-7.68 0,-0.5 0.5,-0.5 0.7,-0.5 0.3,0 0.5,0.11 0.6,0.55 1.7,5.28 5,6.53 6.7,6.53 0.9,0 2.7,-0.43 2.7,-3.33 0,-1.54 -0.9,-4.89 -2.7,-11.85 -0.8,-3.1 -2.6,-5.19 -4.8,-5.19 -0.3,0 -1.4,0 -2.5,0.65 1.3,0.24 2.4,1.29 2.4,2.69 0,1.35 -1.1,1.74 -1.8,1.74 -1.6,0 -2.8,-1.3 -2.8,-2.89 0,-2.29 2.5,-3.29 4.7,-3.29 3.3,0 5.1,3.49 5.2,3.79 0.6,-1.85 2.4,-3.79 5.4,-3.79 5.1,0 8,6.43 8,7.68 0,0.5 -0.5,0.5 -0.6,0.5 -0.5,0 -0.6,-0.21 -0.7,-0.55 -1.6,-5.33 -5,-6.53 -6.6,-6.53 -2,0 -2.7,1.59 -2.7,3.29 0,1.1 0.2,2.19 0.8,4.38 z"
           inkscape:connector-curvature="0"
           style="fill:#000000;stroke-width:0" /><path
           id="path1438"
           d="m 1308.5,194.16 0.3,-0.01 0.2,-0.01 0.3,-0.03 0.2,-0.04 0.2,-0.05 0.3,-0.06 0.2,-0.07 0.2,-0.08 0.2,-0.1 0.2,-0.1 0.2,-0.12 0.2,-0.12 0.2,-0.14 0.1,-0.15 0.2,-0.16 0.2,-0.17 0.1,-0.18 0.2,-0.19 0.1,-0.21 0.1,-0.21 0.1,-0.22 0.2,-0.24 0.1,-0.25 V 191 l 0.1,-0.27 0.1,-0.28 0.1,-0.29 v -0.3 -0.31 l 0.1,-0.32 v -0.34 -0.34 c 0,-4.33 -2.5,-5.61 -4.5,-5.61 -1.4,0 -4.5,0.38 -6,2.44 1.7,0.06 2.1,1.22 2.1,1.95 0,1.11 -0.9,1.91 -2,1.91 -0.9,0 -1.9,-0.59 -1.9,-2.02 0,-3.28 3.6,-5.4 7.8,-5.4 4.9,0 8.2,3.25 8.2,6.73 0,2.72 -2.2,5.44 -6.1,6.24 3.7,1.32 5,3.93 5,6.06 0,2.75 -3.1,4.81 -7,4.81 -3.9,0 -6.8,-1.89 -6.8,-4.67 0,-1.19 0.7,-1.84 1.8,-1.84 1.1,0 1.8,0.79 1.8,1.76 0,1.02 -0.7,1.75 -1.8,1.81 1.2,1.55 3.6,1.93 4.9,1.93 1.5,0 3.7,-0.77 3.7,-3.8 0,-1.47 -0.4,-3.06 -1.3,-4.14 -1.2,-1.33 -2.2,-1.41 -3.9,-1.5 -0.9,-0.08 -1,-0.08 -1.1,-0.11 -0.1,0 -0.4,-0.06 -0.4,-0.45 0,-0.49 0.3,-0.49 0.9,-0.49 z"
           inkscape:connector-curvature="0"
           style="fill:#000000;stroke-width:0" /><path
           id="path1440"
           d="m 1306.4,146.14 v 0.74 0.75 0.75 0.74 l -0.1,0.75 v 0.74 l -0.1,0.74 -0.1,0.73 -0.1,0.73 -0.2,0.73 -0.1,0.72 -0.2,0.72 -0.2,0.72 -0.3,0.7 -0.2,0.7 -0.2,0.35 -0.2,0.34 c -2.2,4.8 -6.3,5.6 -8.4,5.6 -3,0 -6.7,-1.3 -8.7,-5.94 -1.6,-3.44 -1.8,-7.33 -1.8,-11.31 0,-3.74 0.2,-8.22 2.2,-12 2.1,-4.04 5.8,-5.04 8.2,-5.04 v 1.1 c -1.9,0 -4.9,1.25 -5.8,6.03 -0.5,2.98 -0.5,7.56 -0.5,10.52 0,3.18 0,6.46 0.4,9.15 0.9,5.94 4.7,6.38 5.9,6.38 1.7,0 5,-0.89 5.9,-5.83 0.5,-2.78 0.5,-6.58 0.5,-9.7 0,-3.75 0,-7.13 -0.5,-10.32 -0.8,-4.73 -3.6,-6.23 -5.9,-6.23 v 0 -1.1 c 2.7,0 6.5,1.05 8.7,5.79 1.6,3.43 1.8,7.31 1.8,11.25 z"
           inkscape:connector-curvature="0"
           style="fill:#000000;stroke-width:0" /><polygon
           id="polygon1442"
           points="1321.7,351.38 1321.7,347.94 1334.8,347.94 1334.8,261.75 1338.3,261.75 1338.3,351.38 "
           style="fill:#000000;stroke-width:0" /><polygon
           id="polygon1444"
           points="1338.3,231.78 1338.3,261.77 1334.8,261.77 1334.8,231.78 "
           style="fill:#000000;stroke-width:0" /><polygon
           id="polygon1446"
           points="1338.3,201.9 1338.3,231.89 1334.8,231.89 1334.8,201.9 "
           style="fill:#000000;stroke-width:0" /><polygon
           id="polygon1448"
           points="1338.3,112.28 1338.3,201.92 1334.8,201.92 1334.8,115.72 1321.7,115.72 1321.7,112.28 "
           style="fill:#000000;stroke-width:0" /></g>    </g>
    <g
       id="g2043"
       transform="matrix(1.4941925,0,0,1.4941925,42.132342,-280.78076)">
      <g
         word-spacing="normal"
         letter-spacing="normal"
         font-size-adjust="none"
         font-stretch="normal"
         font-weight="normal"
         font-variant="normal"
         font-style="normal"
         stroke-miterlimit="10.433"
         xml:space="preserve"
         transform="matrix(0.16309253,0,0,-0.16309253,-28.541192,264.60519)"
         id="content"
         style="font-style:normal;font-variant:normal;font-weight:normal;font-stretch:normal;letter-spacing:normal;word-spacing:normal;text-anchor:start;fill:none;fill-opacity:1;fill-rule:evenodd;stroke:#000000;stroke-linecap:butt;stroke-linejoin:miter;stroke-miterlimit:10.43299961;stroke-dasharray:none;stroke-dashoffset:0;stroke-opacity:1"><path
           id="path1993"
           d="m 1142.9,239.84 -4.1,9.91 c -0.2,0.41 -0.3,0.59 -0.3,0.64 0,0.31 0.8,1.25 2.9,1.45 0.5,0.05 1,0.1 1,0.96 0,0.59 -0.6,0.59 -0.7,0.59 -2.1,0 -4.2,-0.16 -6.3,-0.16 -1.2,0 -4.3,0.16 -5.6,0.16 -0.3,0 -0.9,0 -0.9,-1 0,-0.55 0.5,-0.55 1.2,-0.55 3,0 3.3,-0.5 3.7,-1.59 l 5.9,-13.91 -10.5,-11.31 -0.7,-0.55 c -2.4,-2.64 -4.7,-3.43 -7.3,-3.57 -0.6,-0.05 -1.1,-0.05 -1.1,-1 0,-0.05 0,-0.55 0.7,-0.55 1.4,0 3.1,0.16 4.6,0.16 1.9,0 3.8,-0.16 5.6,-0.16 0.3,0 0.9,0 0.9,1 0,0.5 -0.5,0.55 -0.6,0.55 -0.4,0.04 -2,0.14 -2,1.54 0,0.8 0.8,1.6 1.4,2.24 l 5.1,5.39 4.4,4.87 5.1,-11.9 c 0.2,-0.55 0.2,-0.6 0.2,-0.71 0,-0.39 -0.9,-1.23 -2.9,-1.43 -0.5,-0.05 -1,-0.11 -1,-0.96 0,-0.59 0.6,-0.59 0.8,-0.59 1.4,0 4.9,0.16 6.3,0.16 1.2,0 4.2,-0.16 5.5,-0.16 0.3,0 0.9,0 0.9,0.95 0,0.6 -0.5,0.6 -0.9,0.6 -3.3,0.04 -3.4,0.2 -4.3,2.18 -1.9,4.64 -5.2,12.41 -6.4,15.39 3.4,3.5 8.6,9.43 10.2,10.82 1.5,1.2 3.4,2.39 6.4,2.54 0.6,0.05 1.1,0.05 1.1,1 0,0.05 0,0.55 -0.7,0.55 -1.5,0 -3.1,-0.16 -4.7,-0.16 -1.8,0 -3.7,0.16 -5.5,0.16 -0.3,0 -0.9,0 -0.9,-1 0,-0.34 0.2,-0.5 0.5,-0.55 0.5,-0.04 2,-0.15 2,-1.54 0,-0.71 -0.5,-1.35 -0.9,-1.8 z"
           inkscape:connector-curvature="0"
           style="fill:#000000;stroke-width:0" /><path
           id="path1995"
           d="m 1174.1,256.45 v 0.06 l 0.1,0.05 v 0.05 0.05 0.04 0.05 l 0.1,0.04 v 0.05 0.04 0.04 0.03 0.04 0.04 l 0.1,0.03 v 0.04 0.03 0.03 0.03 0.03 0.03 0.03 0.03 0.03 0.03 0.05 0.05 0.05 0.04 c 0,1.08 -1,1.92 -2,1.92 -1.4,0 -1.8,-1.09 -2,-1.64 l -4.6,-15.09 c 0,-0.06 -0.1,-0.52 -0.1,-0.56 0,-0.41 1.1,-0.77 1.3,-0.77 0.3,0 0.3,0.08 0.6,0.6 z"
           inkscape:connector-curvature="0"
           style="fill:#000000;stroke-width:0" /><path
           id="path1997"
           d="m 1225.9,235.66 h 0.2 0.1 0.2 l 0.1,0.01 v 0 l 0.1,0.01 0.1,0.01 v 0.01 l 0.1,0.01 0.1,0.01 v 0.02 l 0.1,0.02 0.1,0.02 v 0.02 l 0.1,0.03 v 0.03 l 0.1,0.04 0.1,0.03 v 0.05 0.04 l 0.1,0.05 v 0.03 0.03 0.02 0.03 l 0.1,0.04 v 0.03 0.03 0.04 0.03 0.04 0.04 0.04 0.04 0.04 0.05 0.04 c 0,1 -0.9,1 -1.6,1 h -29.8 c -0.8,0 -1.7,0 -1.7,-1 0,-0.98 0.9,-0.98 1.7,-0.98 z"
           inkscape:connector-curvature="0"
           style="fill:#000000;stroke-width:0" /><path
           id="path1999"
           d="m 1226,225.98 h 0.1 v 0 l 0.2,0.01 h 0.1 0.1 V 226 l 0.1,0.01 h 0.1 l 0.1,0.01 v 0.02 l 0.1,0.01 0.1,0.02 v 0.02 l 0.1,0.02 v 0.02 l 0.1,0.03 0.1,0.03 v 0.04 l 0.1,0.04 v 0.04 0.05 l 0.1,0.02 v 0.03 0.02 0.03 0.03 0.03 l 0.1,0.03 v 0.03 0.04 0.03 0.04 0.04 0.04 0.04 0.04 0.04 0.05 0.04 c 0,1 -0.9,1 -1.7,1 h -29.7 c -0.8,0 -1.7,0 -1.7,-1 0,-1 0.9,-1 1.7,-1 z"
           inkscape:connector-curvature="0"
           style="fill:#000000;stroke-width:0" /><polygon
           id="polygon2001"
           points="1260.5,351.38 1260.5,261.75 1263.9,261.75 1263.9,347.94 1277.1,347.94 1277.1,351.38 "
           style="fill:#000000;stroke-width:0" /><polygon
           id="polygon2003"
           points="1260.5,261.77 1260.5,231.78 1263.9,231.78 1263.9,261.77 "
           style="fill:#000000;stroke-width:0" /><polygon
           id="polygon2005"
           points="1260.5,231.89 1260.5,201.9 1263.9,201.9 1263.9,231.89 "
           style="fill:#000000;stroke-width:0" /><polygon
           id="polygon2007"
           points="1260.5,201.92 1260.5,112.28 1277.1,112.28 1277.1,115.72 1263.9,115.72 1263.9,201.92 "
           style="fill:#000000;stroke-width:0" /><path
           id="path2009"
           d="m 1294.2,324.53 v 0.13 0.15 l 0.1,0.16 v 0.18 l 0.1,0.2 v 0.2 l 0.1,0.22 0.1,0.22 v 0.24 l 0.1,0.23 0.1,0.25 0.1,0.25 0.1,0.25 0.2,0.25 0.1,0.24 0.1,0.25 0.2,0.24 0.1,0.24 0.2,0.23 0.2,0.23 0.2,0.21 0.2,0.2 0.2,0.19 0.2,0.18 0.2,0.16 0.3,0.14 0.1,0.07 0.1,0.06 0.2,0.05 0.1,0.05 0.1,0.05 0.2,0.04 0.1,0.03 0.2,0.03 0.1,0.02 0.2,0.02 0.1,0.01 h 0.2 c 0.2,0 1.4,0 2.5,-0.64 -1.4,-0.25 -2.4,-1.5 -2.4,-2.69 0,-0.79 0.5,-1.75 1.9,-1.75 1.1,0 2.7,0.89 2.7,2.89 0,2.6 -3,3.29 -4.7,3.29 -2.9,0 -4.6,-2.64 -5.2,-3.79 -1.2,3.29 -3.9,3.79 -5.4,3.79 -5.2,0 -8,-6.43 -8,-7.68 0,-0.5 0.5,-0.5 0.6,-0.5 0.4,0 0.6,0.11 0.7,0.55 1.6,5.28 4.9,6.53 6.6,6.53 1,0 2.7,-0.44 2.7,-3.33 0,-1.54 -0.8,-4.89 -2.7,-11.86 -0.8,-3.09 -2.5,-5.18 -4.7,-5.18 -0.3,0 -1.5,0 -2.5,0.65 1.3,0.24 2.4,1.28 2.4,2.69 0,1.34 -1.1,1.74 -1.9,1.74 -1.5,0 -2.7,-1.3 -2.7,-2.9 0,-2.28 2.5,-3.28 4.6,-3.28 3.3,0 5.1,3.49 5.3,3.78 0.6,-1.84 2.4,-3.78 5.3,-3.78 5.2,0 8,6.43 8,7.68 0,0.5 -0.4,0.5 -0.6,0.5 -0.4,0 -0.5,-0.21 -0.6,-0.55 -1.7,-5.33 -5,-6.53 -6.6,-6.53 -2,0 -2.8,1.59 -2.8,3.29 0,1.1 0.3,2.19 0.9,4.38 z"
           inkscape:connector-curvature="0"
           style="fill:#000000;stroke-width:0" /><path
           id="path2011"
           d="m 1316.1,344.05 v 0.06 0.05 0.05 l 0.1,0.05 v 0.05 0.04 0.04 0.05 l 0.1,0.04 v 0.04 0.04 0.03 0.04 0.04 0.03 0.03 0.03 0.04 l 0.1,0.03 v 0.03 0.02 0.03 0.03 0.03 0.05 0.05 0.05 0.04 c 0,1.08 -1,1.93 -2.1,1.93 -1.3,0 -1.7,-1.1 -1.9,-1.64 l -4.6,-15.1 c 0,-0.06 -0.2,-0.51 -0.2,-0.56 0,-0.41 1.1,-0.77 1.4,-0.77 0.2,0 0.3,0.08 0.5,0.6 z"
           inkscape:connector-curvature="0"
           style="fill:#000000;stroke-width:0" /><path
           id="path2013"
           d="m 1317.6,319.28 v 0.04 0.04 0.05 0.04 0.03 0.04 0.04 0.03 0.04 0.03 0.03 0.03 0.03 0.03 0.03 0.02 0.03 0.02 0.03 0.02 0.04 0.04 l -0.1,0.03 v 0.03 0.03 0.03 0.02 l -0.1,0.02 v 0.02 l -0.1,0.01 v 0.01 0.02 h -0.1 v 0 0.01 0 l -0.1,0.01 v 0 0 h -0.1 v 0 0.01 0 h -0.1 v 0 h -0.1 v 0 0 h -0.1 v 0 h -0.1 v 0 c -2.3,-2.2 -5.4,-2.23 -6.8,-2.23 v -1.25 c 0.8,0 3.1,0 5,0.97 v -17.77 c 0,-1.16 0,-1.61 -3.5,-1.61 h -1.3 v -1.25 c 0.6,0.03 4.9,0.14 6.2,0.14 1.1,0 5.5,-0.11 6.2,-0.14 v 1.25 h -1.3 c -3.5,0 -3.5,0.45 -3.5,1.61 z"
           inkscape:connector-curvature="0"
           style="fill:#000000;stroke-width:0" /><path
           id="path2015"
           d="m 1294.2,264.77 v 0.13 0.15 l 0.1,0.16 v 0.18 l 0.1,0.19 v 0.21 l 0.1,0.22 0.1,0.22 v 0.23 l 0.1,0.24 0.1,0.25 0.1,0.24 0.1,0.25 0.2,0.25 0.1,0.25 0.1,0.25 0.2,0.24 0.1,0.24 0.2,0.23 0.2,0.22 0.2,0.22 0.2,0.2 0.2,0.19 0.2,0.18 0.2,0.16 0.3,0.14 0.1,0.07 0.1,0.06 0.2,0.05 0.1,0.05 0.1,0.05 0.2,0.04 0.1,0.03 0.2,0.03 0.1,0.02 0.2,0.02 0.1,0.01 h 0.2 c 0.2,0 1.4,0 2.5,-0.64 -1.4,-0.25 -2.4,-1.5 -2.4,-2.69 0,-0.79 0.5,-1.75 1.9,-1.75 1.1,0 2.7,0.89 2.7,2.89 0,2.6 -3,3.28 -4.7,3.28 -2.9,0 -4.6,-2.64 -5.2,-3.78 -1.2,3.28 -3.9,3.78 -5.4,3.78 -5.2,0 -8,-6.42 -8,-7.67 0,-0.5 0.5,-0.5 0.6,-0.5 0.4,0 0.6,0.11 0.7,0.55 1.6,5.28 4.9,6.53 6.6,6.53 1,0 2.7,-0.44 2.7,-3.33 0,-1.54 -0.8,-4.89 -2.7,-11.86 -0.8,-3.09 -2.5,-5.18 -4.7,-5.18 -0.3,0 -1.5,0 -2.5,0.65 1.3,0.24 2.4,1.28 2.4,2.69 0,1.34 -1.1,1.73 -1.9,1.73 -1.5,0 -2.7,-1.29 -2.7,-2.89 0,-2.28 2.5,-3.28 4.6,-3.28 3.3,0 5.1,3.49 5.3,3.78 0.6,-1.84 2.4,-3.78 5.3,-3.78 5.2,0 8,6.42 8,7.67 0,0.5 -0.4,0.5 -0.6,0.5 -0.4,0 -0.5,-0.2 -0.6,-0.54 -1.7,-5.33 -5,-6.53 -6.6,-6.53 -2,0 -2.8,1.59 -2.8,3.29 0,1.1 0.3,2.19 0.9,4.38 z"
           inkscape:connector-curvature="0"
           style="fill:#000000;stroke-width:0" /><path
           id="path2017"
           d="m 1316.1,284.29 v 0.06 0.05 0.05 l 0.1,0.05 v 0.04 0.05 0.04 0.04 l 0.1,0.05 v 0.04 0.03 0.04 0.04 0.03 0.04 0.03 0.03 0.03 l 0.1,0.03 v 0.03 0.03 0.03 0.03 0.02 0.06 0.05 0.04 0.05 c 0,1.08 -1,1.92 -2.1,1.92 -1.3,0 -1.7,-1.09 -1.9,-1.64 l -4.6,-15.09 c 0,-0.06 -0.2,-0.52 -0.2,-0.56 0,-0.41 1.1,-0.77 1.4,-0.77 0.2,0 0.3,0.08 0.5,0.6 z"
           inkscape:connector-curvature="0"
           style="fill:#000000;stroke-width:0" /><path
           id="path2019"
           d="m 1323.6,243.7 h -1.2 c -0.1,-0.76 -0.5,-2.82 -0.9,-3.17 -0.3,-0.2 -3,-0.2 -3.5,-0.2 h -6.4 c 3.7,3.23 4.9,4.2 7,5.84 2.6,2.06 5,4.22 5,7.53 0,4.22 -3.7,6.8 -8.2,6.8 -4.3,0 -7.2,-3.03 -7.2,-6.23 0,-1.79 1.5,-1.96 1.8,-1.96 0.8,0 1.8,0.6 1.8,1.85 0,0.62 -0.2,1.84 -2,1.84 1.1,2.47 3.4,3.23 5.1,3.23 3.5,0 5.3,-2.7 5.3,-5.53 0,-3.03 -2.2,-5.43 -3.3,-6.68 l -8.4,-8.3 c -0.3,-0.31 -0.3,-0.39 -0.3,-1.36 h 14.3 z"
           inkscape:connector-curvature="0"
           style="fill:#000000;stroke-width:0" /><path
           id="path2021"
           d="m 1294.2,205.01 v 0.13 0.15 l 0.1,0.16 v 0.18 l 0.1,0.2 v 0.2 l 0.1,0.22 0.1,0.22 v 0.24 l 0.1,0.24 0.1,0.24 0.1,0.25 0.1,0.25 0.2,0.25 0.1,0.25 0.1,0.24 0.2,0.24 0.1,0.24 0.2,0.23 0.2,0.23 0.2,0.21 0.2,0.2 0.2,0.19 0.2,0.18 0.2,0.16 0.3,0.14 0.1,0.07 0.1,0.06 0.2,0.05 0.1,0.05 0.1,0.05 0.2,0.04 0.1,0.03 0.2,0.03 0.1,0.02 0.2,0.02 0.1,0.01 h 0.2 c 0.2,0 1.4,0 2.5,-0.64 -1.4,-0.25 -2.4,-1.5 -2.4,-2.69 0,-0.79 0.5,-1.75 1.9,-1.75 1.1,0 2.7,0.9 2.7,2.9 0,2.59 -3,3.28 -4.7,3.28 -2.9,0 -4.6,-2.64 -5.2,-3.78 -1.2,3.28 -3.9,3.78 -5.4,3.78 -5.2,0 -8,-6.43 -8,-7.68 0,-0.5 0.5,-0.5 0.6,-0.5 0.4,0 0.6,0.11 0.7,0.55 1.6,5.28 4.9,6.53 6.6,6.53 1,0 2.7,-0.43 2.7,-3.33 0,-1.54 -0.8,-4.89 -2.7,-11.85 -0.8,-3.1 -2.5,-5.19 -4.7,-5.19 -0.3,0 -1.5,0 -2.5,0.65 1.3,0.24 2.4,1.29 2.4,2.69 0,1.35 -1.1,1.74 -1.9,1.74 -1.5,0 -2.7,-1.3 -2.7,-2.89 0,-2.29 2.5,-3.29 4.6,-3.29 3.3,0 5.1,3.49 5.3,3.79 0.6,-1.85 2.4,-3.79 5.3,-3.79 5.2,0 8,6.43 8,7.68 0,0.5 -0.4,0.5 -0.6,0.5 -0.4,0 -0.5,-0.21 -0.6,-0.55 -1.7,-5.33 -5,-6.53 -6.6,-6.53 -2,0 -2.8,1.59 -2.8,3.29 0,1.1 0.3,2.19 0.9,4.38 z"
           inkscape:connector-curvature="0"
           style="fill:#000000;stroke-width:0" /><path
           id="path2023"
           d="m 1316.1,224.53 v 0.05 0.06 0.05 l 0.1,0.04 v 0.05 0.05 0.04 0.04 l 0.1,0.04 v 0.04 0.04 0.04 0.04 0.03 0.04 0.03 0.03 0.03 l 0.1,0.03 v 0.03 0.03 0.03 0.03 0.02 0.06 0.05 0.04 0.05 c 0,1.08 -1,1.92 -2.1,1.92 -1.3,0 -1.7,-1.09 -1.9,-1.64 l -4.6,-15.09 c 0,-0.06 -0.2,-0.52 -0.2,-0.56 0,-0.41 1.1,-0.77 1.4,-0.77 0.2,0 0.3,0.08 0.5,0.59 z"
           inkscape:connector-curvature="0"
           style="fill:#000000;stroke-width:0" /><path
           id="path2025"
           d="m 1315.5,189.24 h 0.2 l 0.3,-0.02 0.2,-0.03 0.3,-0.04 0.2,-0.05 0.2,-0.06 0.2,-0.07 0.3,-0.08 0.2,-0.1 0.2,-0.1 0.2,-0.12 0.2,-0.12 0.1,-0.14 0.2,-0.15 0.2,-0.16 0.1,-0.17 0.2,-0.18 0.1,-0.19 0.2,-0.2 0.1,-0.22 0.1,-0.22 0.1,-0.24 0.1,-0.24 0.1,-0.26 0.1,-0.27 0.1,-0.28 v -0.29 l 0.1,-0.3 v -0.31 -0.32 -0.33 l 0.1,-0.35 c 0,-4.33 -2.6,-5.61 -4.6,-5.61 -1.4,0 -4.4,0.38 -5.9,2.44 1.6,0.06 2,1.22 2,1.95 0,1.11 -0.8,1.91 -1.9,1.91 -1,0 -2,-0.59 -2,-2.02 0,-3.28 3.7,-5.4 7.9,-5.4 4.8,0 8.2,3.25 8.2,6.73 0,2.72 -2.2,5.44 -6.1,6.24 3.7,1.33 5,3.93 5,6.06 0,2.75 -3.2,4.81 -7,4.81 -3.9,0 -6.9,-1.89 -6.9,-4.67 0,-1.19 0.8,-1.84 1.8,-1.84 1.1,0 1.8,0.79 1.8,1.76 0,1.02 -0.7,1.75 -1.8,1.81 1.3,1.55 3.6,1.93 5,1.93 1.5,0 3.7,-0.77 3.7,-3.8 0,-1.47 -0.5,-3.06 -1.4,-4.14 -1.1,-1.33 -2.1,-1.41 -3.8,-1.5 -0.9,-0.08 -1,-0.08 -1.2,-0.11 0,0 -0.3,-0.06 -0.3,-0.45 0,-0.49 0.3,-0.49 0.9,-0.49 z"
           inkscape:connector-curvature="0"
           style="fill:#000000;stroke-width:0" /><path
           id="path2028"
           d="m 1294.2,145.25 v 0.13 0.15 l 0.1,0.16 v 0.18 l 0.1,0.19 v 0.21 l 0.1,0.22 0.1,0.22 v 0.23 l 0.1,0.24 0.1,0.25 0.1,0.24 0.1,0.25 0.2,0.25 0.1,0.25 0.1,0.25 0.2,0.24 0.1,0.24 0.2,0.23 0.2,0.22 0.2,0.22 0.2,0.2 0.2,0.19 0.2,0.18 0.2,0.16 0.3,0.14 0.1,0.07 0.1,0.06 0.2,0.05 0.1,0.05 0.1,0.05 0.2,0.04 0.1,0.03 0.2,0.03 0.1,0.02 0.2,0.02 0.1,0.01 h 0.2 c 0.2,0 1.4,0 2.5,-0.64 -1.4,-0.25 -2.4,-1.5 -2.4,-2.69 0,-0.79 0.5,-1.75 1.9,-1.75 1.1,0 2.7,0.89 2.7,2.89 0,2.6 -3,3.28 -4.7,3.28 -2.9,0 -4.6,-2.64 -5.2,-3.78 -1.2,3.28 -3.9,3.78 -5.4,3.78 -5.2,0 -8,-6.42 -8,-7.67 0,-0.5 0.5,-0.5 0.6,-0.5 0.4,0 0.6,0.11 0.7,0.55 1.6,5.28 4.9,6.53 6.6,6.53 1,0 2.7,-0.44 2.7,-3.33 0,-1.54 -0.8,-4.89 -2.7,-11.86 -0.8,-3.09 -2.5,-5.18 -4.7,-5.18 -0.3,0 -1.5,0 -2.5,0.65 1.3,0.24 2.4,1.28 2.4,2.69 0,1.34 -1.1,1.73 -1.9,1.73 -1.5,0 -2.7,-1.29 -2.7,-2.89 0,-2.28 2.5,-3.28 4.6,-3.28 3.3,0 5.1,3.49 5.3,3.78 0.6,-1.84 2.4,-3.78 5.3,-3.78 5.2,0 8,6.42 8,7.67 0,0.5 -0.4,0.5 -0.6,0.5 -0.4,0 -0.5,-0.2 -0.6,-0.54 -1.7,-5.33 -5,-6.53 -6.6,-6.53 -2,0 -2.8,1.59 -2.8,3.29 0,1.1 0.3,2.19 0.9,4.38 z"
           inkscape:connector-curvature="0"
           style="fill:#000000;stroke-width:0" /><path
           id="path2030"
           d="m 1316.1,164.77 v 0.06 0.05 0.05 l 0.1,0.05 v 0.04 0.05 0.04 0.05 l 0.1,0.04 v 0.04 0.04 0.03 0.04 0.03 0.04 0.03 0.03 0.03 l 0.1,0.04 v 0.02 0.03 0.03 0.03 0.03 0.05 0.05 0.05 0.04 c 0,1.08 -1,1.92 -2.1,1.92 -1.3,0 -1.7,-1.09 -1.9,-1.64 l -4.6,-15.09 c 0,-0.06 -0.2,-0.52 -0.2,-0.56 0,-0.41 1.1,-0.77 1.4,-0.77 0.2,0 0.3,0.08 0.5,0.6 z"
           inkscape:connector-curvature="0"
           style="fill:#000000;stroke-width:0" /><path
           id="path2032"
           d="m 1324.4,123.56 v 1.25 h -3.9 v 15.54 c 0,0.72 0,0.97 -0.7,0.97 -0.5,0 -0.6,0 -1,-0.48 l -11.5,-16.03 v -1.25 h 10.3 l 0.2,1.25 h -9.2 l 9.2,12.75 v -12.75 l -0.2,-1.25 v -2.86 c 0,-1.19 0,-1.61 -2.9,-1.61 h -0.9 v -1.25 c 1.7,0.06 4,0.14 5.2,0.14 1.3,0 3.5,-0.08 5.3,-0.14 v 1.25 h -1 c -2.8,0 -2.8,0.42 -2.8,1.61 v 2.86 z"
           inkscape:connector-curvature="0"
           style="fill:#000000;stroke-width:0" /><polygon
           id="polygon2034"
           points="1341.8,347.94 1341.8,261.75 1345.2,261.75 1345.2,351.38 1328.6,351.38 1328.6,347.94 "
           style="fill:#000000;stroke-width:0" /><polygon
           id="polygon2036"
           points="1341.8,261.77 1341.8,231.78 1345.2,231.78 1345.2,261.77 "
           style="fill:#000000;stroke-width:0" /><polygon
           id="polygon2038"
           points="1341.8,231.89 1341.8,201.9 1345.2,201.9 1345.2,231.89 "
           style="fill:#000000;stroke-width:0" /><polygon
           id="polygon2040"
           points="1341.8,201.92 1341.8,115.72 1328.6,115.72 1328.6,112.28 1345.2,112.28 1345.2,201.92 "
           style="fill:#000000;stroke-width:0" /></g>    </g>
    <g
       id="g2703">
      <g
         transform="translate(-49.712133)"
         id="g1770">
        <circle
           style="opacity:0.35200004;vector-effect:none;fill:url(#linearGradient2226);fill-opacity:1;fill-rule:evenodd;stroke:none;stroke-width:0.1;stroke-linecap:butt;stroke-linejoin:miter;stroke-miterlimit:4;stroke-dasharray:none;stroke-dashoffset:0;stroke-opacity:1"
           id="path2027"
           cx="57.543934"
           cy="53.982113"
           r="40.593002" />
        <path
           style="fill:none;stroke:#000000;stroke-width:0.36500001;stroke-linecap:butt;stroke-linejoin:miter;stroke-miterlimit:4;stroke-dasharray:none;stroke-opacity:1;marker-end:url(#marker2090)"
           d="M 57.098569,53.510216 57.596579,5.54258"
           id="path2086"
           inkscape:connector-curvature="0" />
        <path
           style="fill:none;stroke:#000000;stroke-width:0.36500001;stroke-linecap:butt;stroke-linejoin:miter;stroke-miterlimit:4;stroke-dasharray:none;stroke-opacity:1;marker-start:url(#Arrow1Mstart);marker-end:url(#marker2138)"
           d="M 102.49786,75.834466 57.098569,53.510216 7.7508168,64.742776"
           id="path2134"
           inkscape:connector-curvature="0" />
        <path
           style="fill:none;stroke:#000000;stroke-width:0.14948958;stroke-linecap:butt;stroke-linejoin:miter;stroke-miterlimit:4;stroke-dasharray:0.44846875, 0.44846875;stroke-dashoffset:0;stroke-opacity:1"
           d="M 44.567194,40.087162 67.151469,34.875408"
           id="path2029"
           inkscape:connector-curvature="0" />
        <path
           style="fill:none;stroke:#000000;stroke-width:0.14948958;stroke-linecap:butt;stroke-linejoin:miter;stroke-miterlimit:4;stroke-dasharray:0.44846875, 0.44846875;stroke-dashoffset:0;stroke-opacity:1"
           d="M 44.112411,40.056619 43.9599,63.851706"
           id="path2033"
           inkscape:connector-curvature="0"
           sodipodi:nodetypes="cc" />
        <path
           style="fill:none;stroke:#000000;stroke-width:0.17594792;stroke-linecap:butt;stroke-linejoin:miter;stroke-miterlimit:4;stroke-dasharray:0.52784377, 0.52784377;stroke-dashoffset:0;stroke-opacity:1"
           d="M 33.870472,59.441766 43.9599,63.851706"
           id="path2031-6"
           inkscape:connector-curvature="0" />
        <path
           style="fill:none;stroke:#000000;stroke-width:0.17594792;stroke-linecap:butt;stroke-linejoin:miter;stroke-miterlimit:4;stroke-dasharray:0.52784377, 0.52784377;stroke-dashoffset:0;stroke-opacity:1"
           d="m 57.062039,30.465468 10.08943,4.40994"
           id="path2031-7"
           inkscape:connector-curvature="0" />
        <path
           style="fill:none;stroke:#000000;stroke-width:0.1494896;stroke-linecap:butt;stroke-linejoin:miter;stroke-miterlimit:4;stroke-dasharray:0.44846879, 0.44846879;stroke-dashoffset:0;stroke-opacity:1"
           d="m 43.9599,63.851706 22.584269,-5.21176"
           id="path2029-5"
           inkscape:connector-curvature="0" />
        <ellipse
           style="opacity:0.35200004;vector-effect:none;fill:none;fill-opacity:1;fill-rule:evenodd;stroke:#000000;stroke-width:0.26100001;stroke-linecap:butt;stroke-linejoin:miter;stroke-miterlimit:4;stroke-dasharray:0.783, 0.783;stroke-dashoffset:0;stroke-opacity:1"
           id="path2228"
           cx="56.767849"
           cy="37.446247"
           rx="36.434128"
           ry="2.6538899" />
        <circle
           style="opacity:1;vector-effect:none;fill:#070707;fill-opacity:1;fill-rule:evenodd;stroke:none;stroke-width:0.68791664;stroke-linecap:butt;stroke-linejoin:miter;stroke-miterlimit:4;stroke-dasharray:none;stroke-dashoffset:0;stroke-opacity:1"
           id="path989"
           cx="56.965939"
           cy="53.503719"
           r="0.82682288" />
        <path
           style="fill:none;stroke:#000000;stroke-width:0.26458332px;stroke-linecap:butt;stroke-linejoin:miter;stroke-opacity:1"
           d="M 43.959899,63.851705 57.09857,53.510214 44.112411,40.056619"
           id="path991"
           inkscape:connector-curvature="0" />
        <path
           style="fill:none;stroke:#000000;stroke-width:0.34977448;stroke-linecap:butt;stroke-linejoin:miter;stroke-miterlimit:4;stroke-dasharray:none;stroke-opacity:1;marker-end:url(#Arrow1Mend)"
           d="m 65.319434,57.500469 c -4.248882,3.707704 -8.870051,5.541217 -14.680991,1.38515"
           id="path995"
           inkscape:connector-curvature="0"
           sodipodi:nodetypes="cc" />
        <path
           style="fill:none;stroke:#000000;stroke-width:0.30813459;stroke-linecap:butt;stroke-linejoin:miter;stroke-miterlimit:4;stroke-dasharray:none;stroke-opacity:1;marker-end:url(#marker1021)"
           d="M 57.266457,41.413113 C 51.84599,39.91558 49.656862,42.375239 48.142148,43.618084"
           id="path1011"
           inkscape:connector-curvature="0"
           sodipodi:nodetypes="cc" />
        <path
           style="opacity:0.519;vector-effect:none;fill:#ff9c66;fill-opacity:1;fill-rule:evenodd;stroke:none;stroke-width:0.35770527;stroke-linecap:butt;stroke-linejoin:miter;stroke-miterlimit:4;stroke-dasharray:none;stroke-dashoffset:0;stroke-opacity:1"
           d="m 187.46822,212.17489 c 0,-0.32893 -0.41344,-0.38938 -1.52414,-0.22282 -2.01416,0.30205 -7.35207,-1.04966 -11.33512,-2.87036 l -2.99924,-1.37099 1.4114,-0.41247 c 0.91779,-0.26822 1.22404,-0.48752 0.87568,-0.62704 -0.29465,-0.11801 -2.18083,-0.81931 -4.19153,-1.55844 -2.0107,-0.73913 -3.63586,-1.50458 -3.61146,-1.70101 0.0244,-0.19643 4.64272,-3.98324 10.26295,-8.41515 10.15979,-8.01162 10.22737,-8.05714 11.74121,-7.90846 1.0211,0.10029 1.81669,-0.0432 2.41547,-0.43549 0.87617,-0.57409 1.14749,-0.45963 14.51598,6.12375 l 13.62313,6.70876 -2.8243,2.1826 c -4.56848,3.53048 -7.81395,5.49399 -9.081,5.49399 -0.82153,0 -1.18151,0.19081 -1.31371,0.69635 -0.21786,0.8331 -4.20487,2.58193 -8.23791,3.61341 -3.50901,0.89746 -9.72741,1.3471 -9.72741,0.70337 z m 3.51791,-0.57532 c 0.0688,-0.0575 0.0324,-0.25443 -0.0808,-0.43758 -0.30824,-0.49874 -2.00857,-0.0649 -2.00857,0.51249 0,0.36545 0.26557,0.43718 0.98214,0.26527 0.54018,-0.12959 1.03841,-0.28267 1.10719,-0.34018 z m 3.26781,-1.09339 c 0,-0.36544 -0.26558,-0.43717 -0.98214,-0.26527 -1.19757,0.2873 -1.28746,0.35541 -1.02643,0.77776 0.30823,0.49874 2.00857,0.0649 2.00857,-0.51249 z m 3.21428,-0.66585 c 0,-0.59079 -0.15748,-0.62732 -1.33928,-0.31061 -1.15817,0.31038 -0.98855,0.84633 0.26786,0.84633 0.71428,0 1.07142,-0.17858 1.07142,-0.53572 z m 3.0504,-0.55947 c 0.12948,-0.2095 0.15108,-0.46525 0.048,-0.56833 -0.28045,-0.28045 -1.66982,0.23222 -1.66982,0.61615 0,0.45989 1.33232,0.4206 1.62182,-0.0478 z m 3.32702,-0.65135 c 0.34084,-0.21597 0.36638,-0.38008 0.0861,-0.5533 -0.49466,-0.30572 -1.82065,0.0863 -1.82065,0.53819 0,0.41598 1.08695,0.42545 1.73456,0.0151 z"
           id="path1589"
           inkscape:connector-curvature="0"
           transform="matrix(0.26458333,0,0,0.26458333,7.0494577,4.8233201)" />
        <path
           style="opacity:0.519;vector-effect:none;fill:#66ceff;fill-opacity:1;fill-rule:evenodd;stroke:none;stroke-width:0.12646791;stroke-linecap:butt;stroke-linejoin:miter;stroke-miterlimit:4;stroke-dasharray:none;stroke-dashoffset:0;stroke-opacity:1"
           d="m 175.47738,169.0198 c -6.43953,-6.67409 -13.70495,-14.20513 -16.14537,-16.73565 -2.44043,-2.53052 -4.41485,-4.63701 -4.38762,-4.68108 0.0272,-0.0441 1.95441,-0.89993 4.28259,-1.90191 2.32818,-1.00198 4.23458,-1.85623 4.23643,-1.89833 0.002,-0.0421 -0.4654,-0.11435 -1.03834,-0.16056 -0.57295,-0.0462 -1.31365,-0.11879 -1.646,-0.16129 l -0.60429,-0.0773 1.10936,-0.81831 c 3.91899,-2.89082 8.17274,-4.59592 13.04179,-5.22778 0.65975,-0.0856 2.30756,-0.15303 3.6618,-0.14981 3.30025,0.008 5.35342,0.25054 9.0598,1.07087 l 1.79934,0.39824 -0.003,2.9169 c -0.002,1.6043 -0.0855,10.24683 -0.18649,19.20562 -0.10104,8.95879 -0.18577,17.11261 -0.1883,18.11961 l -0.005,1.8309 -0.63953,0.20228 -0.63954,0.20227 -11.70823,-12.1347 z"
           id="path1887"
           inkscape:connector-curvature="0"
           transform="matrix(0.26458333,0,0,0.26458333,7.0494577,4.8233201)" />
        <g
           id="g1993"
           transform="translate(12.281995,-131.70683)">
          <g
             word-spacing="normal"
             letter-spacing="normal"
             font-size-adjust="none"
             font-stretch="normal"
             font-weight="normal"
             font-variant="normal"
             font-style="normal"
             stroke-miterlimit="10.433"
             xml:space="preserve"
             transform="matrix(0.16309253,0,0,-0.16309253,-28.541192,264.60519)"
             id="g1991"
             style="font-style:normal;font-variant:normal;font-weight:normal;font-stretch:normal;letter-spacing:normal;word-spacing:normal;text-anchor:start;fill:none;fill-opacity:1;fill-rule:evenodd;stroke:#000000;stroke-linecap:butt;stroke-linejoin:miter;stroke-miterlimit:10.43299961;stroke-dasharray:none;stroke-dashoffset:0;stroke-opacity:1"><path
               id="path1989"
               d="m 463.99,397.73 -0.01,-0.03 -0.01,-0.03 -0.01,-0.03 -0.01,-0.03 -0.01,-0.02 -0.01,-0.03 -0.01,-0.05 -0.02,-0.05 -0.01,-0.04 -0.01,-0.05 -0.02,-0.04 -0.01,-0.04 -0.01,-0.03 -0.01,-0.04 -0.01,-0.03 -0.01,-0.03 -0.01,-0.03 -0.01,-0.03 v -0.02 l -0.01,-0.03 -0.01,-0.02 v -0.02 l -0.01,-0.03 v -0.02 -0.02 l -0.01,-0.04 -0.01,-0.04 v -0.04 -0.04 -0.03 -0.02 c 0,-1.09 0.95,-1.39 1.45,-1.39 0.25,0 1.35,0.14 1.85,1.3 0.14,0.39 0.39,2.04 1.73,9.11 0.45,-0.05 0.8,-0.1 1.64,-0.1 8.28,0 15.95,7.83 15.95,15.69 l -1.4,-1.09 c 0,-5.63 -6.42,-11.71 -14.1,-11.71 v 0 c -0.39,0 -0.5,0 -0.89,0.05 -0.61,0 -0.65,0.05 -0.65,0.2 0,0.1 0.84,4.63 1,5.38 1.54,6.37 5.43,11.15 9.86,11.15 3.43,0 4.78,-2.68 4.78,-5.07 l 1.4,1.09 c 0,3.89 -1.95,6.87 -5.68,6.87 -7.22,0 -10.21,-9.65 -13.21,-19.37 -5.37,1 -8.17,3.78 -8.17,7.37 0,1.4 1.16,6.88 4.14,10.32 0.39,0.45 0.39,0.54 0.39,0.64 0,0.2 -0.09,0.5 -0.59,0.5 -1.39,0 -5.24,-7.22 -5.24,-12 0,-4.69 3.3,-8.33 8.63,-9.56 z"
               inkscape:connector-curvature="0"
               style="fill:#000000;stroke-width:0" /></g>        </g>
        <g
           id="g2107"
           transform="matrix(0.83108188,0,0,0.83108188,14.894605,-116.51822)">
          <g
             word-spacing="normal"
             letter-spacing="normal"
             font-size-adjust="none"
             font-stretch="normal"
             font-weight="normal"
             font-variant="normal"
             font-style="normal"
             stroke-miterlimit="10.433"
             xml:space="preserve"
             transform="matrix(0.16309253,0,0,-0.16309253,-28.541192,264.60519)"
             id="g2105"
             style="font-style:normal;font-variant:normal;font-weight:normal;font-stretch:normal;letter-spacing:normal;word-spacing:normal;text-anchor:start;fill:none;fill-opacity:1;fill-rule:evenodd;stroke:#000000;stroke-linecap:butt;stroke-linejoin:miter;stroke-miterlimit:10.43299961;stroke-dasharray:none;stroke-dashoffset:0;stroke-opacity:1"><path
               id="path2103"
               d="m 478.19,431.11 v 0.31 l -0.01,0.34 -0.02,0.36 -0.02,0.37 -0.03,0.39 -0.04,0.39 -0.04,0.41 -0.06,0.41 -0.07,0.42 -0.07,0.43 -0.09,0.42 -0.1,0.43 -0.12,0.42 -0.12,0.42 -0.14,0.41 -0.16,0.41 -0.17,0.4 -0.18,0.38 -0.2,0.37 -0.22,0.36 -0.23,0.34 -0.25,0.32 -0.28,0.3 -0.29,0.27 -0.31,0.25 -0.16,0.12 -0.17,0.1 -0.17,0.1 -0.18,0.1 -0.18,0.08 -0.19,0.08 -0.19,0.07 -0.2,0.06 -0.21,0.05 -0.21,0.05 -0.22,0.03 -0.22,0.02 -0.23,0.02 h -0.23 l -0.05,-1.09 c 2.44,0 2.73,-3.19 2.73,-6.03 0,-2.44 -0.39,-4.99 -1.59,-9.92 h -10.41 c 0.85,3.2 1.85,7.18 3.83,10.72 1.36,2.43 3.19,5.23 5.44,5.23 l 0.05,1.09 c -6.92,0 -14.6,-14.04 -14.6,-25.45 0,-4.69 1.44,-10.22 5.99,-10.22 v 1.1 c -1.66,0 -2.71,1.45 -2.71,6.07 0,2.1 0.3,4.99 1.6,9.86 h 10.37 c -0.54,-2.28 -1.59,-6.51 -3.5,-10.11 -1.73,-3.39 -3.62,-5.82 -5.76,-5.82 v -1.1 c 7.01,0 14.59,14.3 14.59,25.46 z"
               inkscape:connector-curvature="0"
               style="fill:#000000;stroke-width:0" /></g>        </g>
        <g
           id="g2224"
           transform="matrix(0.47275357,0,0,0.47275357,37.377679,-40.481072)">
          <g
             word-spacing="normal"
             letter-spacing="normal"
             font-size-adjust="none"
             font-stretch="normal"
             font-weight="normal"
             font-variant="normal"
             font-style="normal"
             stroke-miterlimit="10.433"
             xml:space="preserve"
             transform="matrix(0.16309253,0,0,-0.16309253,-28.541192,264.60519)"
             id="g2222"
             style="font-style:normal;font-variant:normal;font-weight:normal;font-stretch:normal;letter-spacing:normal;word-spacing:normal;text-anchor:start;fill:none;fill-opacity:1;fill-rule:evenodd;stroke:#000000;stroke-linecap:butt;stroke-linejoin:miter;stroke-miterlimit:10.43299961;stroke-dasharray:none;stroke-dashoffset:0;stroke-opacity:1"><path
               id="path2220"
               d="m 488.19088,430.05504 v 1.08393 l -0.0147,1.09857 -0.0293,1.09858 -0.0586,1.08393 -0.0586,1.09858 -0.0879,1.08393 -0.11718,1.08393 -0.13183,1.06928 -0.17577,1.06928 -0.20507,1.06929 -0.23436,1.05463 -0.27831,1.05463 -0.3076,1.05464 -0.36619,1.02534 -0.41014,1.02534 -0.21971,0.51267 -0.23436,0.49802 c -3.33968,7.03089 -9.33059,8.20271 -12.40661,8.20271 -4.36501,0 -9.69677,-1.9042 -12.69955,-8.70073 -2.32899,-5.03881 -2.69518,-10.73677 -2.69518,-16.56655 0,-5.47824 0.29295,-12.04041 3.29573,-17.57724 3.13461,-5.90303 8.46637,-7.3678 12.04041,-7.3678 v 1.5966 c -2.84165,0 -7.16272,1.83097 -8.48102,8.83257 -0.79097,4.36501 -0.79097,11.07366 -0.79097,15.40938 0,4.65797 0,9.46241 0.58591,13.40264 1.37688,8.70074 6.85512,9.34524 8.68608,9.34524 2.40223,0 7.22132,-1.30365 8.5982,-8.53961 0.73239,-4.07206 0.73239,-9.63819 0.73239,-14.20827 0,-5.49289 0,-10.44381 -0.80563,-15.11643 -1.09857,-6.92836 -5.25852,-9.12552 -8.52496,-9.12552 v 0 -1.5966 c 3.92559,0 9.46242,1.52336 12.69956,8.46637 2.32898,5.02417 2.69518,10.70747 2.69518,16.47867 z"
               inkscape:connector-curvature="0"
               style="fill:#000000;stroke-width:0" /></g>        </g>
        <g
           id="g2344"
           transform="matrix(0.60853001,0,0,0.60853001,31.406938,-108.35215)">
          <g
             word-spacing="normal"
             letter-spacing="normal"
             font-size-adjust="none"
             font-stretch="normal"
             font-weight="normal"
             font-variant="normal"
             font-style="normal"
             stroke-miterlimit="10.433"
             xml:space="preserve"
             transform="matrix(0.16309253,0,0,-0.16309253,-28.541192,264.60519)"
             id="g2342"
             style="font-style:normal;font-variant:normal;font-weight:normal;font-stretch:normal;letter-spacing:normal;word-spacing:normal;text-anchor:start;fill:none;fill-opacity:1;fill-rule:evenodd;stroke:#000000;stroke-linecap:butt;stroke-linejoin:miter;stroke-miterlimit:10.43299961;stroke-dasharray:none;stroke-dashoffset:0;stroke-opacity:1"><path
               id="path2340"
               d="m 469.76207,463.85489 v 0.0729 0.0875 0.0729 0.0729 0.073 0.0729 0.0584 0.0729 0.0584 0.0584 l -0.0146,0.0584 v 0.0584 0.0584 0.0438 0.0583 l -0.0146,0.0438 -0.0146,0.10213 v 0.0875 l -0.0292,0.0729 -0.0146,0.0729 -0.0292,0.0729 -0.0292,0.0584 -0.0292,0.0584 -0.0292,0.0438 -0.0438,0.0438 -0.0438,0.0438 -0.0584,0.0438 -0.0584,0.0292 -0.0584,0.0292 -0.0438,0.0146 -0.0292,0.0146 h -0.0438 l -0.0292,0.0146 -0.0438,0.0146 h -0.0438 l -0.0438,0.0146 h -0.0438 l -0.0584,0.0146 h -0.0438 -0.0584 l -0.0438,0.0146 h -0.0584 -0.0584 -0.0729 -0.0584 -0.0584 l -0.0729,0.0146 h -0.0729 -0.073 -0.0729 -0.0729 c -4.50827,-4.65417 -10.89864,-4.65417 -13.21843,-4.65417 v -2.26144 c 1.45899,0 5.73382,0 9.49801,1.89669 v -37.65648 c 0,-2.62617 -0.20426,-3.48698 -6.74052,-3.48698 h -2.33438 v -2.26157 c 2.55323,0.23344 8.87064,0.23344 11.77403,0.23344 2.91797,0 9.2208,0 11.77403,-0.23344 v 2.26143 h -2.31979 c -6.53627,0 -6.7697,0.78786 -6.7697,3.48698 z"
               inkscape:connector-curvature="0"
               style="fill:#000000;stroke-width:0" /></g>        </g>
        <g
           id="g2485"
           transform="matrix(1.5976039,0,0,1.5976039,-26.334639,-24.228251)">
          <path
             inkscape:connector-curvature="0"
             id="path2035"
             d="M 42.853588,40.895263 45.215939,39.33611"
             style="fill:none;stroke:#ff0017;stroke-width:0.565;stroke-linecap:butt;stroke-linejoin:miter;stroke-miterlimit:4;stroke-dasharray:none;stroke-opacity:1" />
          <path
             inkscape:connector-curvature="0"
             id="path2037"
             d="m 43.207942,38.674652 1.866257,3.023809"
             style="fill:none;stroke:#ff0017;stroke-width:0.565;stroke-linecap:butt;stroke-linejoin:miter;stroke-miterlimit:4;stroke-dasharray:none;stroke-opacity:1" />
        </g>
      </g>
      <g
         transform="matrix(1.4846938,0,0,1.4846938,-91.307254,-185.51167)"
         id="g2672">
        <g
           style="font-style:normal;font-variant:normal;font-weight:normal;font-stretch:normal;letter-spacing:normal;word-spacing:normal;text-anchor:start;fill:none;fill-opacity:1;fill-rule:evenodd;stroke:#000000;stroke-linecap:butt;stroke-linejoin:miter;stroke-miterlimit:10.43299961;stroke-dasharray:none;stroke-dashoffset:0;stroke-opacity:1"
           id="g2670"
           transform="matrix(0.16309253,0,0,-0.16309253,-28.541192,264.60519)"
           xml:space="preserve"
           stroke-miterlimit="10.433"
           font-style="normal"
           font-variant="normal"
           font-weight="normal"
           font-stretch="normal"
           font-size-adjust="none"
           letter-spacing="normal"
           word-spacing="normal"><path
             style="fill:#000000;stroke-width:0"
             inkscape:connector-curvature="0"
             d="m 487.16,435 0.1,0.37 0.05,0.19 0.06,0.18 0.06,0.17 0.07,0.17 0.07,0.17 0.08,0.16 0.08,0.16 0.1,0.16 0.09,0.15 0.11,0.14 0.11,0.14 0.13,0.14 0.13,0.12 0.14,0.13 0.15,0.12 0.17,0.11 0.17,0.11 0.19,0.1 0.19,0.09 0.21,0.09 0.23,0.08 0.23,0.08 0.26,0.07 0.26,0.06 0.28,0.06 0.3,0.04 0.31,0.05 0.33,0.03 0.35,0.03 0.18,0.01 h 0.19 c 0.25,0 0.84,0.05 0.84,1 0,0.05 0,0.55 -0.64,0.55 -1.64,0 -3.39,-0.16 -5.08,-0.16 -1.7,0 -3.55,0.16 -5.19,0.16 -0.29,0 -0.89,0 -0.89,-1 0,-0.55 0.5,-0.55 0.89,-0.55 2.85,-0.04 3.39,-1.09 3.39,-2.18 0,-0.16 -0.11,-0.91 -0.15,-1.05 l -4.49,-17.8 c -1.68,-6.67 -7.42,-11 -12.4,-11 -3.38,0 -6.08,2.19 -6.08,6.47 0,0.11 0,1.7 0.55,3.89 l 4.84,19.38 c 0.44,1.79 0.55,2.29 4.19,2.29 1.28,0 1.68,0 1.68,1 0,0.55 -0.54,0.55 -0.7,0.55 -1.39,0 -4.98,-0.16 -6.37,-0.16 -1.44,0 -4.99,0.16 -6.43,0.16 -0.4,0 -0.95,0 -0.95,-1 0,-0.55 0.45,-0.55 1.41,-0.55 0.09,0 1.04,0 1.89,-0.09 0.89,-0.11 1.34,-0.16 1.34,-0.8 0,-0.31 -0.55,-2.39 -0.84,-3.54 l -1.11,-4.38 c -0.44,-1.95 -2.83,-11.36 -3.03,-12.31 -0.35,-1.39 -0.35,-2.14 -0.35,-2.89 0,-6.08 4.53,-9.56 9.77,-9.56 6.26,0 12.45,5.62 14.09,12.2 z"
             id="path2654" /><path
             style="fill:#000000;stroke-width:0"
             inkscape:connector-curvature="0"
             d="m 543.03,422.5 h 0.14 0.14 0.15 l 0.07,0.01 h 0.07 l 0.08,0.01 0.07,0.01 0.07,0.01 0.07,0.01 0.07,0.01 0.06,0.02 0.07,0.02 0.06,0.02 0.06,0.02 0.06,0.03 0.06,0.03 0.05,0.04 0.05,0.03 0.05,0.05 0.04,0.04 0.04,0.05 0.02,0.03 0.01,0.03 0.02,0.02 0.02,0.03 0.01,0.03 0.01,0.04 0.02,0.03 0.01,0.04 0.01,0.03 v 0.04 l 0.01,0.04 0.01,0.04 v 0.04 l 0.01,0.04 v 0.04 0.05 c 0,1 -0.95,1 -1.64,1 h -29.85 c -0.7,0 -1.64,0 -1.64,-1 0,-0.98 0.94,-0.98 1.69,-0.98 z"
             id="path2656" /><path
             style="fill:#000000;stroke-width:0"
             inkscape:connector-curvature="0"
             d="m 543.08,412.82 h 0.06 0.07 l 0.14,0.01 h 0.13 0.07 l 0.07,0.01 0.07,0.01 h 0.07 l 0.07,0.01 0.07,0.02 0.07,0.01 0.06,0.02 0.06,0.02 0.07,0.02 0.06,0.02 0.05,0.03 0.06,0.03 0.05,0.04 0.05,0.04 0.05,0.04 0.04,0.05 0.02,0.02 0.02,0.03 0.02,0.02 0.01,0.03 0.02,0.03 0.02,0.03 0.01,0.03 0.01,0.03 0.02,0.04 0.01,0.03 0.01,0.04 v 0.04 l 0.01,0.04 0.01,0.04 v 0.04 l 0.01,0.04 v 0.05 0.04 c 0,1 -0.95,1 -1.69,1 h -29.75 c -0.75,0 -1.69,0 -1.69,-1 0,-1 0.94,-1 1.64,-1 z"
             id="path2658" /><polygon
             style="fill:#000000;stroke-width:0"
             points="567.35,443.56 567.35,393.75 574.18,393.75 574.18,395.73 569.35,395.73 569.35,441.57 574.18,441.57 574.18,443.56 "
             id="polygon2660" /><path
             style="fill:#000000;stroke-width:0"
             inkscape:connector-curvature="0"
             d="m 597.95,431.11 -0.01,0.31 -0.01,0.34 -0.01,0.36 -0.02,0.37 -0.03,0.39 -0.04,0.39 -0.05,0.41 -0.06,0.41 -0.06,0.42 -0.08,0.43 -0.09,0.42 -0.1,0.43 -0.11,0.42 -0.13,0.42 -0.14,0.41 -0.15,0.41 -0.17,0.4 -0.19,0.38 -0.2,0.37 -0.21,0.36 -0.24,0.34 -0.25,0.32 -0.27,0.3 -0.29,0.27 -0.31,0.25 -0.16,0.12 -0.17,0.1 -0.17,0.1 -0.18,0.1 -0.19,0.08 -0.18,0.08 -0.2,0.07 -0.2,0.06 -0.2,0.05 -0.21,0.05 -0.22,0.03 -0.23,0.02 -0.22,0.02 h -0.24 l -0.05,-1.09 c 2.44,0 2.74,-3.19 2.74,-6.03 0,-2.44 -0.39,-4.99 -1.6,-9.92 h -10.4 c 0.84,3.2 1.84,7.18 3.83,10.72 1.36,2.43 3.18,5.23 5.43,5.23 l 0.05,1.09 c -6.92,0 -14.59,-14.04 -14.59,-25.45 0,-4.69 1.43,-10.22 5.98,-10.22 v 1.1 c -1.65,0 -2.7,1.45 -2.7,6.07 0,2.1 0.3,4.99 1.59,9.86 h 10.38 c -0.55,-2.28 -1.6,-6.51 -3.5,-10.11 -1.74,-3.39 -3.63,-5.82 -5.77,-5.82 v -1.1 c 7.02,0 14.6,14.3 14.6,25.46 z"
             id="path2662" /><path
             style="fill:#000000;stroke-width:0"
             inkscape:connector-curvature="0"
             d="m 610.22,406.25 v 0.3 l -0.02,0.3 -0.01,0.29 -0.03,0.28 -0.03,0.27 -0.04,0.26 -0.04,0.26 -0.05,0.24 -0.06,0.24 -0.07,0.23 -0.07,0.22 -0.07,0.21 -0.09,0.2 -0.09,0.19 -0.09,0.19 -0.1,0.17 -0.11,0.16 -0.11,0.16 -0.12,0.14 -0.12,0.13 -0.13,0.13 -0.13,0.11 -0.14,0.1 -0.15,0.1 -0.15,0.08 -0.15,0.07 -0.16,0.06 -0.16,0.05 -0.17,0.04 -0.17,0.03 -0.18,0.01 -0.18,0.01 c -1.64,0 -2.64,-1.25 -2.64,-2.64 0,-1.34 1,-2.64 2.64,-2.64 0.59,0 1.25,0.2 1.75,0.64 0.14,0.11 0.2,0.16 0.25,0.16 0.05,0 0.09,-0.05 0.09,-0.75 0,-3.69 -1.73,-6.68 -3.39,-8.32 -0.54,-0.54 -0.54,-0.65 -0.54,-0.79 0,-0.36 0.25,-0.55 0.5,-0.55 0.54,0 4.53,3.83 4.53,9.66 z"
             id="path2664" /><path
             style="fill:#000000;stroke-width:0"
             inkscape:connector-curvature="0"
             d="m 630.66,397.73 -0.01,-0.03 -0.01,-0.03 -0.01,-0.03 -0.01,-0.03 -0.01,-0.02 -0.01,-0.03 -0.01,-0.05 -0.02,-0.05 -0.01,-0.04 -0.02,-0.05 -0.01,-0.04 -0.01,-0.04 -0.01,-0.03 -0.01,-0.04 -0.01,-0.03 -0.01,-0.03 -0.01,-0.03 -0.01,-0.03 -0.01,-0.02 v -0.03 l -0.01,-0.02 v -0.02 l -0.01,-0.03 v -0.02 l -0.01,-0.02 v -0.04 l -0.01,-0.04 v -0.04 -0.04 -0.03 -0.02 c 0,-1.09 0.95,-1.39 1.45,-1.39 0.25,0 1.34,0.14 1.84,1.3 0.14,0.39 0.39,2.04 1.74,9.11 0.45,-0.05 0.79,-0.1 1.64,-0.1 8.28,0 15.95,7.83 15.95,15.69 l -1.41,-1.09 c 0,-5.63 -6.42,-11.71 -14.09,-11.71 v 0 c -0.39,0 -0.5,0 -0.89,0.05 -0.61,0 -0.66,0.05 -0.66,0.2 0,0.1 0.85,4.63 1,5.38 1.55,6.37 5.44,11.15 9.86,11.15 3.44,0 4.78,-2.68 4.78,-5.07 l 1.41,1.09 c 0,3.89 -1.95,6.87 -5.69,6.87 -7.22,0 -10.2,-9.65 -13.2,-19.37 -5.37,1 -8.17,3.78 -8.17,7.37 0,1.4 1.15,6.88 4.14,10.32 0.39,0.45 0.39,0.54 0.39,0.64 0,0.2 -0.09,0.5 -0.59,0.5 -1.39,0 -5.24,-7.22 -5.24,-12 0,-4.69 3.3,-8.33 8.63,-9.56 z"
             id="path2666" /><polygon
             style="fill:#000000;stroke-width:0"
             points="655.92,393.75 662.75,393.75 662.75,443.56 655.92,443.56 655.92,441.57 660.75,441.57 660.75,395.73 655.92,395.73 "
             id="polygon2668" /></g>      </g>
      <g
         transform="translate(-23.826367,-167.10274)"
         id="g2286">
        <g
           style="font-style:normal;font-variant:normal;font-weight:normal;font-stretch:normal;letter-spacing:normal;word-spacing:normal;text-anchor:start;fill:none;fill-opacity:1;fill-rule:evenodd;stroke:#000000;stroke-linecap:butt;stroke-linejoin:miter;stroke-miterlimit:10.43299961;stroke-dasharray:none;stroke-dashoffset:0;stroke-opacity:1"
           id="g2284"
           transform="matrix(0.153113,0,0,-0.153113,-26.794775,286.82714)"
           xml:space="preserve"
           stroke-miterlimit="10.433"
           font-style="normal"
           font-variant="normal"
           font-weight="normal"
           font-stretch="normal"
           font-size-adjust="none"
           letter-spacing="normal"
           word-spacing="normal"><path
             style="fill:#000000;stroke-width:0"
             inkscape:connector-curvature="0"
             d="m 472.16,421.25 0.03,0.13 0.04,0.15 0.04,0.16 0.04,0.18 0.06,0.19 0.06,0.21 0.06,0.22 0.07,0.22 0.08,0.23 0.09,0.24 0.1,0.25 0.1,0.24 0.11,0.25 0.12,0.25 0.13,0.25 0.14,0.25 0.15,0.24 0.15,0.24 0.17,0.23 0.18,0.22 0.18,0.22 0.2,0.2 0.21,0.19 0.22,0.18 0.23,0.16 0.25,0.14 0.12,0.07 0.13,0.06 0.14,0.05 0.13,0.05 0.14,0.05 0.14,0.04 0.15,0.03 0.15,0.03 0.15,0.02 0.16,0.02 0.16,0.01 h 0.16 c 0.25,0 1.44,0 2.48,-0.64 -1.39,-0.25 -2.39,-1.5 -2.39,-2.69 0,-0.79 0.55,-1.75 1.89,-1.75 1.1,0 2.69,0.89 2.69,2.89 0,2.6 -2.94,3.28 -4.63,3.28 -2.89,0 -4.64,-2.64 -5.23,-3.78 -1.25,3.28 -3.94,3.78 -5.37,3.78 -5.19,0 -8.04,-6.42 -8.04,-7.67 0,-0.5 0.5,-0.5 0.61,-0.5 0.39,0 0.55,0.11 0.64,0.55 1.69,5.28 4.99,6.53 6.68,6.53 0.95,0 2.68,-0.44 2.68,-3.33 0,-1.54 -0.84,-4.89 -2.68,-11.86 -0.8,-3.09 -2.54,-5.18 -4.74,-5.18 -0.3,0 -1.44,0 -2.48,0.65 1.25,0.24 2.34,1.28 2.34,2.69 0,1.34 -1.09,1.73 -1.84,1.73 -1.5,0 -2.75,-1.29 -2.75,-2.89 0,-2.28 2.5,-3.28 4.68,-3.28 3.3,0 5.08,3.49 5.24,3.78 0.59,-1.84 2.39,-3.78 5.37,-3.78 5.14,0 7.99,6.42 7.99,7.67 0,0.5 -0.45,0.5 -0.61,0.5 -0.44,0 -0.55,-0.2 -0.64,-0.54 -1.64,-5.33 -5.03,-6.53 -6.63,-6.53 -1.95,0 -2.75,1.59 -2.75,3.29 0,1.1 0.3,2.19 0.86,4.38 z"
             id="path2280" /><path
             style="fill:#000000;stroke-width:0"
             inkscape:connector-curvature="0"
             d="m 495.63,420.92 v 0.04 0.04 0.05 0.04 0.03 0.04 0.04 0.03 0.04 0.03 l -0.01,0.03 v 0.03 0.03 l -0.01,0.03 v 0.03 0.02 l -0.01,0.03 v 0.02 l -0.01,0.03 v 0.02 l -0.01,0.04 -0.02,0.04 -0.02,0.03 -0.02,0.03 -0.02,0.03 -0.02,0.03 -0.03,0.02 -0.03,0.02 -0.03,0.02 -0.04,0.01 -0.04,0.01 -0.05,0.02 h -0.02 -0.02 l -0.03,0.01 h -0.03 l -0.02,0.01 h -0.03 -0.03 -0.03 -0.03 l -0.04,0.01 h -0.03 -0.04 -0.03 -0.04 -0.04 -0.04 -0.04 -0.04 -0.05 -0.04 c -2.24,-2.2 -5.39,-2.23 -6.83,-2.23 v -1.25 c 0.84,0 3.14,0 5.04,0.97 v -17.77 c 0,-1.16 0,-1.61 -3.48,-1.61 h -1.31 v -1.25 c 0.62,0.03 4.9,0.14 6.2,0.14 1.08,0 5.47,-0.11 6.24,-0.14 v 1.25 h -1.33 c -3.49,0 -3.49,0.45 -3.49,1.61 z"
             id="path2282" /></g>      </g>
      <g
         transform="translate(-63.783483,-169.04985)"
         id="g2456">
        <g
           style="font-style:normal;font-variant:normal;font-weight:normal;font-stretch:normal;letter-spacing:normal;word-spacing:normal;text-anchor:start;fill:none;fill-opacity:1;fill-rule:evenodd;stroke:#000000;stroke-linecap:butt;stroke-linejoin:miter;stroke-miterlimit:10.43299961;stroke-dasharray:none;stroke-dashoffset:0;stroke-opacity:1"
           id="g2454"
           transform="matrix(0.153113,0,0,-0.153113,-26.794775,286.82714)"
           xml:space="preserve"
           stroke-miterlimit="10.433"
           font-style="normal"
           font-variant="normal"
           font-weight="normal"
           font-stretch="normal"
           font-size-adjust="none"
           letter-spacing="normal"
           word-spacing="normal"><path
             style="fill:#000000;stroke-width:0"
             inkscape:connector-curvature="0"
             d="m 472.16,421.25 0.03,0.13 0.04,0.15 0.04,0.16 0.04,0.18 0.06,0.19 0.06,0.21 0.06,0.22 0.07,0.22 0.08,0.23 0.09,0.24 0.1,0.25 0.1,0.24 0.11,0.25 0.12,0.25 0.13,0.25 0.14,0.25 0.15,0.24 0.15,0.24 0.17,0.23 0.18,0.22 0.18,0.22 0.2,0.2 0.21,0.19 0.22,0.18 0.23,0.16 0.25,0.14 0.12,0.07 0.13,0.06 0.14,0.05 0.13,0.05 0.14,0.05 0.14,0.04 0.15,0.03 0.15,0.03 0.15,0.02 0.16,0.02 0.16,0.01 h 0.16 c 0.25,0 1.44,0 2.48,-0.64 -1.39,-0.25 -2.39,-1.5 -2.39,-2.69 0,-0.79 0.55,-1.75 1.89,-1.75 1.1,0 2.69,0.89 2.69,2.89 0,2.6 -2.94,3.28 -4.63,3.28 -2.89,0 -4.64,-2.64 -5.23,-3.78 -1.25,3.28 -3.94,3.78 -5.37,3.78 -5.19,0 -8.04,-6.42 -8.04,-7.67 0,-0.5 0.5,-0.5 0.61,-0.5 0.39,0 0.55,0.11 0.64,0.55 1.69,5.28 4.99,6.53 6.68,6.53 0.95,0 2.68,-0.44 2.68,-3.33 0,-1.54 -0.84,-4.89 -2.68,-11.86 -0.8,-3.09 -2.54,-5.18 -4.74,-5.18 -0.3,0 -1.44,0 -2.48,0.65 1.25,0.24 2.34,1.28 2.34,2.69 0,1.34 -1.09,1.73 -1.84,1.73 -1.5,0 -2.75,-1.29 -2.75,-2.89 0,-2.28 2.5,-3.28 4.68,-3.28 3.3,0 5.08,3.49 5.24,3.78 0.59,-1.84 2.39,-3.78 5.37,-3.78 5.14,0 7.99,6.42 7.99,7.67 0,0.5 -0.45,0.5 -0.61,0.5 -0.44,0 -0.55,-0.2 -0.64,-0.54 -1.64,-5.33 -5.03,-6.53 -6.63,-6.53 -1.95,0 -2.75,1.59 -2.75,3.29 0,1.1 0.3,2.19 0.86,4.38 z"
             id="path2450" /><path
             style="fill:#000000;stroke-width:0"
             inkscape:connector-curvature="0"
             d="m 501.55,405.11 h -1.18 c -0.1,-0.77 -0.46,-2.83 -0.91,-3.18 -0.26,-0.2 -2.95,-0.2 -3.44,-0.2 h -6.42 c 3.66,3.23 4.88,4.2 6.97,5.84 2.58,2.07 4.98,4.22 4.98,7.54 0,4.21 -3.68,6.79 -8.15,6.79 -4.31,0 -7.25,-3.03 -7.25,-6.23 0,-1.78 1.5,-1.96 1.86,-1.96 0.83,0 1.84,0.6 1.84,1.85 0,0.62 -0.25,1.84 -2.06,1.84 1.08,2.47 3.45,3.24 5.09,3.24 3.49,0 5.3,-2.71 5.3,-5.53 0,-3.04 -2.16,-5.44 -3.28,-6.69 l -8.39,-8.3 c -0.36,-0.31 -0.36,-0.39 -0.36,-1.36 h 14.36 z"
             id="path2452" /></g>      </g>
      <g
         transform="matrix(1.204058,0,0,1.204058,-54.667259,-239.7872)"
         id="g2630">
        <g
           style="font-style:normal;font-variant:normal;font-weight:normal;font-stretch:normal;letter-spacing:normal;word-spacing:normal;text-anchor:start;fill:none;fill-opacity:1;fill-rule:evenodd;stroke:#000000;stroke-linecap:butt;stroke-linejoin:miter;stroke-miterlimit:10.43299961;stroke-dasharray:none;stroke-dashoffset:0;stroke-opacity:1"
           id="g2628"
           transform="matrix(0.153113,0,0,-0.153113,-26.794775,286.82714)"
           xml:space="preserve"
           stroke-miterlimit="10.433"
           font-style="normal"
           font-variant="normal"
           font-weight="normal"
           font-stretch="normal"
           font-size-adjust="none"
           letter-spacing="normal"
           word-spacing="normal"><path
             style="fill:#000000;stroke-width:0"
             inkscape:connector-curvature="0"
             d="m 472.16,421.25 0.03,0.13 0.04,0.15 0.04,0.16 0.04,0.18 0.06,0.19 0.06,0.21 0.06,0.22 0.07,0.22 0.08,0.23 0.09,0.24 0.1,0.25 0.1,0.24 0.11,0.25 0.12,0.25 0.13,0.25 0.14,0.25 0.15,0.24 0.15,0.24 0.17,0.23 0.18,0.22 0.18,0.22 0.2,0.2 0.21,0.19 0.22,0.18 0.23,0.16 0.25,0.14 0.12,0.07 0.13,0.06 0.14,0.05 0.13,0.05 0.14,0.05 0.14,0.04 0.15,0.03 0.15,0.03 0.15,0.02 0.16,0.02 0.16,0.01 h 0.16 c 0.25,0 1.44,0 2.48,-0.64 -1.39,-0.25 -2.39,-1.5 -2.39,-2.69 0,-0.79 0.55,-1.75 1.89,-1.75 1.1,0 2.69,0.89 2.69,2.89 0,2.6 -2.94,3.28 -4.63,3.28 -2.89,0 -4.64,-2.64 -5.23,-3.78 -1.25,3.28 -3.94,3.78 -5.37,3.78 -5.19,0 -8.04,-6.42 -8.04,-7.67 0,-0.5 0.5,-0.5 0.61,-0.5 0.39,0 0.55,0.11 0.64,0.55 1.69,5.28 4.99,6.53 6.68,6.53 0.95,0 2.68,-0.44 2.68,-3.33 0,-1.54 -0.84,-4.89 -2.68,-11.86 -0.8,-3.09 -2.54,-5.18 -4.74,-5.18 -0.3,0 -1.44,0 -2.48,0.65 1.25,0.24 2.34,1.28 2.34,2.69 0,1.34 -1.09,1.73 -1.84,1.73 -1.5,0 -2.75,-1.29 -2.75,-2.89 0,-2.28 2.5,-3.28 4.68,-3.28 3.3,0 5.08,3.49 5.24,3.78 0.59,-1.84 2.39,-3.78 5.37,-3.78 5.14,0 7.99,6.42 7.99,7.67 0,0.5 -0.45,0.5 -0.61,0.5 -0.44,0 -0.55,-0.2 -0.64,-0.54 -1.64,-5.33 -5.03,-6.53 -6.63,-6.53 -1.95,0 -2.75,1.59 -2.75,3.29 0,1.1 0.3,2.19 0.86,4.38 z"
             id="path2624" /><path
             style="fill:#000000;stroke-width:0"
             inkscape:connector-curvature="0"
             d="m 493.48,410.4 h 0.25 l 0.25,-0.02 0.24,-0.03 0.24,-0.04 0.23,-0.05 0.23,-0.06 0.22,-0.07 0.21,-0.08 0.21,-0.1 0.2,-0.1 0.2,-0.12 0.19,-0.12 0.18,-0.14 0.18,-0.15 0.16,-0.16 0.16,-0.17 0.15,-0.18 0.15,-0.19 0.13,-0.2 0.13,-0.22 0.11,-0.22 0.11,-0.24 0.1,-0.24 0.09,-0.26 0.08,-0.27 0.07,-0.28 0.06,-0.29 0.05,-0.3 0.04,-0.31 0.03,-0.32 0.01,-0.33 0.01,-0.35 c 0,-4.33 -2.52,-5.61 -4.53,-5.61 -1.39,0 -4.47,0.38 -5.92,2.44 1.62,0.06 2.01,1.22 2.01,1.95 0,1.11 -0.84,1.91 -1.92,1.91 -0.97,0 -1.95,-0.59 -1.95,-2.02 0,-3.28 3.62,-5.4 7.84,-5.4 4.84,0 8.19,3.25 8.19,6.73 0,2.72 -2.22,5.44 -6.07,6.24 3.66,1.33 4.99,3.93 4.99,6.06 0,2.75 -3.17,4.81 -7.03,4.81 -3.88,0 -6.83,-1.89 -6.83,-4.67 0,-1.19 0.77,-1.84 1.81,-1.84 1.08,0 1.77,0.79 1.77,1.76 0,1.02 -0.69,1.75 -1.77,1.81 1.22,1.55 3.61,1.93 4.91,1.93 1.56,0 3.76,-0.77 3.76,-3.8 0,-1.47 -0.48,-3.06 -1.39,-4.14 -1.15,-1.33 -2.12,-1.41 -3.87,-1.5 -0.88,-0.08 -0.94,-0.08 -1.11,-0.11 -0.08,0 -0.36,-0.06 -0.36,-0.45 0,-0.49 0.31,-0.49 0.91,-0.49 z"
             id="path2626" /></g>      </g>
    </g>
  </g>
</svg>
