<?xml version="1.0" encoding="UTF-8" standalone="no"?>
<!-- Created with Inkscape (http://www.inkscape.org/) -->

<svg
   xmlns:dc="http://purl.org/dc/elements/1.1/"
   xmlns:cc="http://creativecommons.org/ns#"
   xmlns:rdf="http://www.w3.org/1999/02/22-rdf-syntax-ns#"
   xmlns:svg="http://www.w3.org/2000/svg"
   xmlns="http://www.w3.org/2000/svg"
   xmlns:sodipodi="http://sodipodi.sourceforge.net/DTD/sodipodi-0.dtd"
   xmlns:inkscape="http://www.inkscape.org/namespaces/inkscape"
   width="140.54149mm"
   height="31.626013mm"
   viewBox="0 0 140.54149 31.626013"
   version="1.1"
   id="svg1533"
   inkscape:version="0.92.5 (2060ec1f9f, 2020-04-08)"
   sodipodi:docname="archi_2som.svg">
  <defs
     id="defs1527" />
  <sodipodi:namedview
     id="base"
     pagecolor="#ffffff"
     bordercolor="#666666"
     borderopacity="1.0"
     inkscape:pageopacity="0.0"
     inkscape:pageshadow="2"
     inkscape:zoom="0.35"
     inkscape:cx="-147.26687"
     inkscape:cy="-400.23436"
     inkscape:document-units="mm"
     inkscape:current-layer="layer1"
     showgrid="false"
     fit-margin-top="0"
     fit-margin-left="0"
     fit-margin-right="0"
     fit-margin-bottom="0"
     inkscape:window-width="1294"
     inkscape:window-height="704"
     inkscape:window-x="72"
     inkscape:window-y="27"
     inkscape:window-maximized="1" />
  <metadata
     id="metadata1530">
    <rdf:RDF>
      <cc:Work
         rdf:about="">
        <dc:format>image/svg+xml</dc:format>
        <dc:type
           rdf:resource="http://purl.org/dc/dcmitype/StillImage" />
        <dc:title></dc:title>
      </cc:Work>
    </rdf:RDF>
  </metadata>
  <g
     inkscape:label="Layer 1"
     inkscape:groupmode="layer"
     id="layer1"
     transform="translate(-10.616145,-11.311979)">
    <path
       inkscape:connector-curvature="0"
       id="path827"
       style="fill:#003aff;fill-opacity:0.37000002;fill-rule:nonzero;stroke:none;stroke-width:0.35277775"
       d="m 22.942582,22.359681 h 42.763369 v 4.27602 H 22.942582 Z" />
    <g
       transform="matrix(0.35277777,0,0,0.35277777,10.616174,-9.697592)"
       id="g829">
      <path
         inkscape:connector-curvature="0"
         id="path831"
         style="fill:none;stroke:#000000;stroke-width:0.75118101;stroke-linecap:butt;stroke-linejoin:round;stroke-miterlimit:4;stroke-dasharray:none;stroke-opacity:1"
         d="M 34.941,90.871 H 156.16 v 12.121 H 34.941 Z" />
    </g>
    <path
       inkscape:connector-curvature="0"
       id="path833"
       style="fill:#ffb200;fill-opacity:0.85500004;fill-rule:nonzero;stroke:none;stroke-width:0.35277775"
       d="m 22.942582,18.083661 h 42.763369 v 4.27602 H 22.942582 Z" />
    <g
       transform="matrix(0.35277777,0,0,0.35277777,10.616174,-9.697592)"
       id="g835">
      <path
         inkscape:connector-curvature="0"
         id="path837"
         style="fill:none;stroke:#000000;stroke-width:0.75118101;stroke-linecap:butt;stroke-linejoin:round;stroke-miterlimit:4;stroke-dasharray:none;stroke-opacity:1"
         d="M 34.941,78.75 H 156.16 V 90.871 H 34.941 Z" />
    </g>
    <path
       inkscape:connector-curvature="0"
       id="path839"
       style="fill:#003aff;fill-opacity:0.37000002;fill-rule:nonzero;stroke:none;stroke-width:0.35277775"
       d="m 95.033426,22.359681 h 42.761954 v 4.27602 H 95.033426 Z" />
    <g
       transform="matrix(0.35277777,0,0,0.35277777,10.616174,-9.697592)"
       id="g841">
      <path
         inkscape:connector-curvature="0"
         id="path843"
         style="fill:none;stroke:#000000;stroke-width:0.75118101;stroke-linecap:butt;stroke-linejoin:round;stroke-miterlimit:4;stroke-dasharray:none;stroke-opacity:1"
         d="m 239.293,90.871 h 121.215 v 12.121 H 239.293 Z" />
    </g>
    <path
       inkscape:connector-curvature="0"
       id="path845"
       style="fill:#ffb200;fill-opacity:0.85500004;fill-rule:nonzero;stroke:none;stroke-width:0.35277775"
       d="m 95.033426,18.083661 h 42.761954 v 4.27602 H 95.033426 Z" />
    <g
       transform="matrix(0.35277777,0,0,0.35277777,10.616174,-9.697592)"
       id="g847">
      <path
         inkscape:connector-curvature="0"
         id="path849"
         style="fill:none;stroke:#000000;stroke-width:0.75118101;stroke-linecap:butt;stroke-linejoin:round;stroke-miterlimit:4;stroke-dasharray:none;stroke-opacity:1"
         d="M 239.293,78.75 H 360.508 V 90.871 H 239.293 Z" />
    </g>
    <g
       transform="matrix(0.35277777,0,0,0.35277777,10.616174,-9.697592)"
       id="g851">
      <path
         inkscape:connector-curvature="0"
         id="path853"
         style="fill:none;stroke:#ff0000;stroke-width:1.60157502;stroke-linecap:butt;stroke-linejoin:miter;stroke-miterlimit:4;stroke-dasharray:none;stroke-opacity:1"
         d="m 165.758,94.711 h 65.086" />
    </g>
    <g
       transform="matrix(-0.35277777,0,0,-0.35277777,10.616174,-9.697592)"
       id="g855">
      <path
         inkscape:connector-curvature="0"
         id="path857"
         style="fill:#ff0000;fill-opacity:1;fill-rule:evenodd;stroke:#ff0000;stroke-width:0.854173;stroke-linecap:butt;stroke-linejoin:miter;stroke-miterlimit:4;stroke-dasharray:none;stroke-opacity:1"
         d="m -224.438,-94.711 3.204,-3.203 -11.211,3.203 11.211,3.203 z" />
    </g>
    <g
       transform="matrix(0.35277777,0,0,0.35277777,10.616174,-9.697592)"
       id="g859">
      <path
         inkscape:connector-curvature="0"
         id="path861"
         style="fill:none;stroke:#ff0000;stroke-width:1.60157502;stroke-linecap:butt;stroke-linejoin:miter;stroke-miterlimit:4;stroke-dasharray:none;stroke-opacity:1"
         d="M 231.781,81.453 H 166.426" />
    </g>
    <g
       transform="matrix(0.35277777,0,0,0.35277777,10.616174,-9.697592)"
       id="g863">
      <path
         inkscape:connector-curvature="0"
         id="path865"
         style="fill:#ff0000;fill-opacity:1;fill-rule:evenodd;stroke:#ff0000;stroke-width:0.854173;stroke-linecap:butt;stroke-linejoin:miter;stroke-miterlimit:4;stroke-dasharray:none;stroke-opacity:1"
         d="m 172.832,81.453 3.203,-3.203 -11.211,3.203 11.211,3.203 z" />
    </g>
    <g
       transform="matrix(0.35277777,0,0,0.35277777,10.616174,-9.697592)"
       id="g867">
      <path
         inkscape:connector-curvature="0"
         id="path869"
         style="fill:none;stroke:#1100ff;stroke-width:1.03464603;stroke-linecap:butt;stroke-linejoin:miter;stroke-miterlimit:4;stroke-dasharray:none;stroke-opacity:1"
         d="M 91.695,130.336 V 112.121" />
    </g>
    <g
       transform="matrix(0,0.35277777,-0.35277777,0,10.616174,-9.697592)"
       id="g871">
      <path
         inkscape:connector-curvature="0"
         id="path873"
         style="fill:#1100ff;fill-opacity:1;fill-rule:evenodd;stroke:#1100ff;stroke-width:0.55181098;stroke-linecap:butt;stroke-linejoin:miter;stroke-miterlimit:4;stroke-dasharray:none;stroke-opacity:1"
         d="m 116.262,-91.695 2.07,-2.067 -7.242,2.067 7.242,2.07 z" />
    </g>
    <g
       transform="matrix(0.35277777,0,0,0.35277777,10.616174,-9.697592)"
       id="g875">
      <path
         inkscape:connector-curvature="0"
         id="path877"
         style="fill:none;stroke:#1100ff;stroke-width:1.03464603;stroke-linecap:butt;stroke-linejoin:miter;stroke-miterlimit:4;stroke-dasharray:none;stroke-opacity:1"
         d="M 304.105,127.605 V 109.391" />
    </g>
    <g
       transform="matrix(0,0.35277777,-0.35277777,0,10.616174,-9.697592)"
       id="g879">
      <path
         inkscape:connector-curvature="0"
         id="path881"
         style="fill:#1100ff;fill-opacity:1;fill-rule:evenodd;stroke:#1100ff;stroke-width:0.55181098;stroke-linecap:butt;stroke-linejoin:miter;stroke-miterlimit:4;stroke-dasharray:none;stroke-opacity:1"
         d="m 113.531,-304.105 2.071,-2.067 -7.243,2.067 7.243,2.07 z" />
    </g>
    <path
       inkscape:connector-curvature="0"
       id="path883"
       style="fill:#000000;fill-opacity:1;fill-rule:evenodd;stroke:none;stroke-width:0.35277775"
       d="m 14.65936,17.685371 v -0.0261 l -0.0014,-0.0261 -0.0014,-0.025 -0.0028,-0.0247 -0.0014,-0.0233 -0.0039,-0.0236 -0.0042,-0.0205 -0.0056,-0.0222 -0.0039,-0.0205 -0.0056,-0.0194 -0.0071,-0.018 -0.0053,-0.018 -0.0071,-0.018 -0.0081,-0.0148 -0.0085,-0.0166 -0.0081,-0.0138 -0.0081,-0.0152 -0.0099,-0.0127 -0.0095,-0.0109 -0.01094,-0.0123 -0.0194,-0.0194 -0.02222,-0.0162 -0.01235,-0.006 -0.01093,-0.007 -0.01235,-0.005 -0.01235,-0.003 -0.01235,-0.004 -0.02505,-0.003 -0.01376,-0.001 c -0.166511,0 -0.337608,0.1531 -0.337608,0.30056 0,0.0621 0.02893,0.1323 0.09384,0.19015 0.110067,0.0953 0.223308,0.26741 0.223308,0.53622 0,0.25612 -0.121355,0.61878 -0.317147,0.91088 -0.191558,0.2741 -0.428625,0.49036 -0.728839,0.49036 -0.363714,0 -0.560916,-0.22719 -0.617361,-0.57186 0.0702,-0.16545 0.216253,-0.57326 0.216253,-0.75388 0,-0.0755 -0.03316,-0.139 -0.1143,-0.139 -0.05256,0 -0.122767,0.0138 -0.172156,0.1076 -0.07058,0.12805 -0.147483,0.54291 -0.147483,0.77151 -0.210961,0.30057 -0.464608,0.58561 -0.866775,0.58561 -0.423333,0 -0.555625,-0.37606 -0.555625,-0.73166 0,-0.79798 0.650523,-1.46896 0.650523,-1.5501 0,-0.0691 -0.05221,-0.12136 -0.121356,-0.12136 -0.08396,0 -0.128058,0.084 -0.166511,0.14182 -0.325261,0.47272 -0.567972,1.23049 -0.567972,1.8094 0,0.44097 0.148872,0.91228 0.671336,0.91228 0.451908,0 0.751064,-0.31821 0.981075,-0.66957 0.05786,0.369 0.305858,0.66957 0.701322,0.66957 0.498828,0 0.806097,-0.38876 1.033639,-0.86819 0.154164,-0.3115 0.395464,-1.17828 0.395464,-1.57374 z" />
    <path
       inkscape:connector-curvature="0"
       id="path885"
       style="fill:#000000;fill-opacity:1;fill-rule:evenodd;stroke:none;stroke-width:0.35277775"
       d="m 16.307538,14.526952 -0.05927,0.04269 -0.05503,0.04409 -0.05256,0.0455 -0.0508,0.0469 -0.04692,0.0469 -0.04551,0.0494 -0.04127,0.0497 -0.04127,0.0508 -0.03881,0.0511 -0.03457,0.0536 -0.03422,0.0526 -0.03175,0.0536 -0.02893,0.055 -0.02752,0.054 -0.02611,0.055 -0.02363,0.055 -0.02046,0.0564 -0.02081,0.0554 -0.01799,0.0564 -0.01799,0.055 -0.02752,0.11007 -0.01093,0.0554 -0.01094,0.0536 -0.0085,0.055 -0.01376,0.10478 -0.0053,0.0526 -0.0056,0.10195 -0.0014,0.048 -0.0014,0.0497 c 0,0.46849 0.140758,1.19768 0.800805,1.66194 0.02611,0 0.06456,0 0.06456,-0.0384 0,-0.0208 -0.0095,-0.0279 -0.03281,-0.0512 -0.44239,-0.39828 -0.605021,-0.96449 -0.605021,-1.5695 0,-0.89712 0.3429,-1.33668 0.61595,-1.58327 0.01235,-0.0127 0.02187,-0.0236 0.02187,-0.04022 0,-0.03986 -0.03845,-0.03986 -0.06456,-0.03986 z" />
    <path
       inkscape:connector-curvature="0"
       id="path887"
       style="fill:#000000;fill-opacity:1;fill-rule:evenodd;stroke:none;stroke-width:0.35277775"
       d="m 17.728174,14.907251 v -0.0303 l -0.0014,-0.003 v -0.0191 l -0.0014,-0.003 v -0.003 l -0.0014,-10e-4 v -0.003 l -0.0025,-0.008 -0.0014,-0.003 -0.0028,-0.003 -0.0028,-0.005 -0.0028,-10e-4 -0.0028,-0.003 h -0.0039 l -0.0028,-0.003 -0.0042,-0.001 h -0.0053 l -0.0014,-10e-4 h -0.0099 l -0.0025,-10e-4 h -0.0127 l -0.0025,-10e-4 h -0.03601 c -0.212372,0.21091 -0.513997,0.21374 -0.650522,0.21374 v 0.11853 c 0.08008,0 0.299155,0 0.481189,-0.091 v 1.6951 c 0,0.11007 0,0.15275 -0.332317,0.15275 h -0.125236 v 0.11995 c 0.05927,-0.003 0.468489,-0.0138 0.592314,-0.0138 0.101953,0 0.522464,0.0109 0.594078,0.0138 v -0.11995 h -0.126648 c -0.332316,0 -0.332316,-0.0427 -0.332316,-0.15275 z" />
    <path
       inkscape:connector-curvature="0"
       id="path889"
       style="fill:#000000;fill-opacity:1;fill-rule:evenodd;stroke:none;stroke-width:0.35277775"
       d="m 18.803088,14.526952 h -0.01799 l -0.0014,0.0014 h -0.01093 l -0.0056,0.0028 h -0.0039 l -0.0085,0.0039 -0.0014,0.0014 -0.0025,0.0014 -0.0014,0.0028 -0.0028,0.0028 h -0.0014 v 0.0028 h -0.0014 v 0.0025 h -0.0014 v 0.0028 l -0.0014,0.0014 v 0.0028 l -0.0014,0.0014 v 0.0081 c 0,0.01658 0.0099,0.02752 0.03034,0.05115 0.286809,0.26318 0.605014,0.71226 0.605014,1.56951 0,0.69462 -0.216253,1.22097 -0.576086,1.54623 -0.05503,0.0564 -0.05927,0.0593 -0.05927,0.0787 0,0.0152 0.0099,0.037 0.04269,0.037 0.04163,0 0.357011,-0.21767 0.576086,-0.63394 0.145964,-0.2755 0.244036,-0.63674 0.244036,-1.02515 0,-0.46708 -0.140758,-1.19627 -0.797983,-1.66335 z" />
    <path
       inkscape:connector-curvature="0"
       id="path891"
       style="fill:#000000;fill-opacity:1;fill-rule:evenodd;stroke:none;stroke-width:0.35277775"
       d="m 16.719582,19.086961 -0.01517,0.003 -0.01376,0.002 -0.01517,0.004 -0.01235,0.006 -0.0127,0.003 -0.03563,0.0176 -0.01093,0.007 -0.0194,0.0138 -0.0081,0.008 -0.0099,0.007 -0.0067,0.01 -0.0085,0.008 -0.0067,0.008 -0.0071,0.01 -0.0067,0.008 -0.0042,0.01 -0.0071,0.01 -0.0039,0.01 -0.0056,0.01 -0.0028,0.008 -0.0028,0.0109 -0.0039,0.01 -0.0056,0.0194 -0.0028,0.0194 v 0.0191 l -0.0014,0.01 c 0,0.11995 0.09384,0.16405 0.17392,0.16405 0.09772,0 0.254705,-0.072 0.254705,-0.2854 0,-0.30304 -0.348544,-0.38735 -0.589844,-0.38735 -0.668161,0 -1.288344,0.61454 -1.288344,1.23331 0,0.38453 0.267405,0.77611 0.8255,0.77611 0.753886,0 1.106663,-0.4385 1.106663,-0.50306 0,-0.0261 -0.04022,-0.0773 -0.07585,-0.0773 -0.02646,0 -0.03598,0.0109 -0.07303,0.0469 -0.347486,0.40922 -0.869597,0.40922 -0.949677,0.40922 -0.319617,0 -0.464256,-0.21766 -0.464256,-0.49459 0,-0.12841 0.06456,-0.61489 0.296334,-0.92216 0.167922,-0.22049 0.399344,-0.34431 0.622652,-0.34431 0.0635,0 0.276931,0.007 0.390172,0.1337 z" />
    <path
       inkscape:connector-curvature="0"
       id="path893"
       style="fill:#000000;fill-opacity:1;fill-rule:evenodd;stroke:none;stroke-width:0.35277775"
       d="m 14.577869,25.662731 v -0.0289 l -0.0011,-0.0261 -0.0014,-0.0275 -0.0028,-0.0247 -0.0014,-0.025 -0.0081,-0.0466 -0.01129,-0.0441 -0.0053,-0.0194 -0.01376,-0.0384 -0.0071,-0.018 -0.0071,-0.0166 -0.0095,-0.018 -0.0081,-0.0138 -0.0099,-0.0152 -0.0095,-0.0138 -0.0095,-0.0124 -0.02222,-0.0222 -0.02187,-0.0191 -0.01129,-0.008 -0.01235,-0.005 -0.01235,-0.007 -0.01376,-0.006 -0.01094,-0.004 -0.01376,-0.004 -0.02752,-0.003 -0.0127,-0.001 c -0.174978,0 -0.353836,0.15981 -0.353836,0.31574 0,0.0632 0.02999,0.13758 0.09772,0.19826 0.115711,0.10054 0.234244,0.27975 0.234244,0.56092 0,0.26882 -0.126647,0.6477 -0.331964,0.95497 -0.201436,0.28822 -0.449439,0.514 -0.763764,0.514 -0.381705,0 -0.58808,-0.23848 -0.647347,-0.59937 0.07444,-0.17357 0.227189,-0.60078 0.227189,-0.78952 0,-0.0801 -0.03457,-0.14605 -0.119944,-0.14605 -0.05503,0 -0.128059,0.0152 -0.18027,0.11289 -0.07338,0.1337 -0.154516,0.56762 -0.154516,0.80751 -0.220486,0.31573 -0.486481,0.61454 -0.90805,0.61454 -0.442384,0 -0.581731,-0.39406 -0.581731,-0.76765 0,-0.83502 0.682272,-1.53776 0.682272,-1.62313 0,-0.073 -0.05503,-0.127 -0.126647,-0.127 -0.08961,0 -0.135114,0.0882 -0.174978,0.14887 -0.341844,0.49495 -0.595492,1.2887 -0.595492,1.89477 0,0.46179 0.155575,0.95497 0.702734,0.95497 0.472722,0 0.787047,-0.33196 1.027994,-0.70132 0.06068,0.38876 0.321028,0.70132 0.734483,0.70132 0.522464,0 0.843492,-0.4064 1.083381,-0.90805 0.159808,-0.32667 0.413103,-1.23472 0.413103,-1.64818 z" />
    <path
       inkscape:connector-curvature="0"
       id="path895"
       style="fill:#000000;fill-opacity:1;fill-rule:evenodd;stroke:none;stroke-width:0.35277775"
       d="m 16.248271,22.584401 -0.05644,0.0413 -0.05398,0.0427 -0.05221,0.0441 -0.04833,0.0455 -0.04692,0.0469 -0.0441,0.0483 -0.04127,0.0494 -0.03986,0.0497 -0.03739,0.0494 -0.03422,0.0512 -0.03316,0.0522 -0.03175,0.0526 -0.05503,0.10759 -0.02469,0.0536 -0.02363,0.0536 -0.02046,0.054 -0.0194,0.055 -0.01799,0.055 -0.01658,0.0536 -0.01517,0.054 -0.01235,0.055 -0.01094,0.0522 -0.01093,0.054 -0.0099,0.0522 -0.0053,0.0526 -0.0071,0.0522 -0.0042,0.0497 -0.0039,0.0508 -0.0028,0.0497 -0.0014,0.0469 v 0.048 c 0,0.45897 0.136525,1.17158 0.781403,1.62631 0.02611,0 0.0635,0 0.0635,-0.0374 0,-0.0205 -0.0085,-0.0275 -0.03175,-0.0494 -0.432858,-0.39159 -0.591255,-0.94404 -0.591255,-1.5367 0,-0.87771 0.334786,-1.30775 0.602191,-1.54764 0.01235,-0.0138 0.02082,-0.0233 0.02082,-0.0399 0,-0.0384 -0.03739,-0.0384 -0.0635,-0.0384 z" />
    <path
       inkscape:connector-curvature="0"
       id="path897"
       style="fill:#000000;fill-opacity:1;fill-rule:evenodd;stroke:none;stroke-width:0.35277775"
       d="m 17.638569,22.955161 v -0.0441 l -0.0014,-0.003 v -0.004 l -0.0014,-0.003 v -0.007 l -0.0025,-0.004 -0.0042,-0.008 -0.0028,-0.003 -0.0014,-0.003 -0.0028,-0.003 -0.0025,-0.001 -0.0042,-10e-4 -0.0056,-0.003 h -0.0053 l -0.0014,-0.001 h -0.0028 l -0.0028,-0.001 h -0.0042 l -0.0025,-10e-4 h -0.04978 c -0.208138,0.20514 -0.503061,0.20796 -0.636763,0.20796 v 0.11712 c 0.07867,0 0.293511,0 0.4699,-0.0896 v 1.6577 c 0,0.10901 0,0.15029 -0.32385,0.15029 h -0.122414 v 0.11712 c 0.05786,-0.003 0.457552,-0.0138 0.578555,-0.0138 0.100542,0 0.511175,0.0109 0.581731,0.0138 v -0.11712 H 17.96397 c -0.325261,0 -0.325261,-0.0413 -0.325261,-0.15028 z" />
    <path
       inkscape:connector-curvature="0"
       id="path899"
       style="fill:#000000;fill-opacity:1;fill-rule:evenodd;stroke:none;stroke-width:0.35277775"
       d="m 18.69161,22.584401 h -0.02505 l -0.0028,0.001 h -0.0039 l -0.0014,10e-4 h -0.0056 l -0.0014,0.001 -0.0025,0.001 h -0.0028 l -0.0028,0.003 h -0.0014 l -0.0014,0.003 -0.0028,10e-4 -0.0028,0.003 v 0.003 h -0.0011 l -0.0014,0.001 v 0.001 l -0.0014,10e-4 v 0.003 l -0.0014,0.001 v 0.003 l -0.0014,10e-4 v 0.008 c 0,0.0166 0.0095,0.0261 0.02893,0.0497 0.281164,0.25611 0.592667,0.69567 0.592667,1.53493 0,0.67945 -0.212372,1.19486 -0.563739,1.51307 -0.05362,0.0554 -0.05785,0.0579 -0.05785,0.0758 0,0.0166 0.0095,0.0374 0.04269,0.0374 0.03845,0 0.348544,-0.21379 0.563739,-0.62019 0.141817,-0.27023 0.237066,-0.623 0.237066,-1.0033 0,-0.45755 -0.136524,-1.16981 -0.779991,-1.62595 z" />
    <path
       inkscape:connector-curvature="0"
       id="path901"
       style="fill:#000000;fill-opacity:1;fill-rule:evenodd;stroke:none;stroke-width:0.35277775"
       d="m 15.735685,27.855251 h 0.05927 l 0.01905,-10e-4 h 0.03881 l 0.01905,-0.001 0.0441,-0.002 0.04974,-0.003 0.02328,-0.001 0.02646,-0.001 0.04939,-0.006 0.05398,-0.005 0.05362,-0.007 0.05503,-0.008 0.05398,-0.008 0.05503,-0.0109 0.02611,-0.006 0.02611,-0.007 0.02505,-0.007 0.02611,-0.008 0.02328,-0.007 0.02505,-0.007 c 0.345722,-0.12277 0.410634,-0.34608 0.410634,-0.48789 0,-0.25647 -0.257881,-0.40923 -0.58032,-0.40923 v 0.12947 c 0.205317,0 0.378883,0.10196 0.378883,0.27976 0,0.45332 -0.789516,0.45332 -0.990599,0.45332 H 15.47783 c 0.190147,-0.67663 0.7112,-0.73308 0.840669,-0.73308 v -0.12947 c -0.559505,0 -1.317272,0.42863 -1.317272,1.22767 0,0.4699 0.294922,0.87665 0.841728,0.87665 0.789869,0 1.159227,-0.45896 1.159227,-0.52634 0,-0.0289 -0.04163,-0.0801 -0.08008,-0.0801 -0.02752,0 -0.03704,0.01 -0.07585,0.0483 -0.363714,0.42862 -0.910872,0.42862 -0.994833,0.42862 -0.281164,0 -0.467078,-0.18626 -0.467078,-0.56515 0,-0.0649 0,-0.1598 0.05644,-0.41486 z" />
    <path
       inkscape:connector-curvature="0"
       id="path903"
       style="fill:#000000;fill-opacity:1;fill-rule:evenodd;stroke:none;stroke-width:0.35277775"
       d="m 145.64892,25.166731 v -0.0289 l -0.003,-0.055 -0.003,-0.0261 -0.003,-0.0251 -0.004,-0.0247 -0.004,-0.0233 -0.006,-0.0236 -0.0109,-0.0441 -0.007,-0.0194 -0.008,-0.019 -0.007,-0.0194 -0.008,-0.0166 -0.01,-0.018 -0.008,-0.0152 -0.01,-0.0148 -0.01,-0.0141 -0.0219,-0.0247 -0.0109,-0.0109 -0.0222,-0.0194 -0.0124,-0.008 -0.0247,-0.0138 -0.0138,-0.006 -0.0127,-0.004 -0.0138,-0.004 -0.0413,-0.004 c -0.18062,0 -0.36653,0.16404 -0.36653,0.32526 0,0.066 0.0318,0.14182 0.10195,0.20532 0.11853,0.10336 0.24271,0.28927 0.24271,0.57996 0,0.27729 -0.13229,0.66852 -0.34466,0.98672 -0.20814,0.29634 -0.46426,0.53058 -0.78811,0.53058 -0.39405,0 -0.60783,-0.24659 -0.66851,-0.62018 0.0758,-0.17886 0.23424,-0.61983 0.23424,-0.81563 0,-0.0815 -0.0356,-0.15028 -0.12382,-0.15028 -0.0565,0 -0.13229,0.0152 -0.18768,0.11571 -0.0741,0.13794 -0.1584,0.58702 -0.1584,0.83503 -0.22719,0.32526 -0.50306,0.63535 -0.93839,0.63535 -0.45614,0 -0.60078,-0.40781 -0.60078,-0.79234 0,-0.86395 0.70556,-1.58891 0.70556,-1.67852 0,-0.0744 -0.0579,-0.13088 -0.13229,-0.13088 -0.091,0 -0.13794,0.091 -0.17921,0.15311 -0.35419,0.51117 -0.61595,1.33103 -0.61595,1.95933 0,0.47554 0.16121,0.98531 0.72636,0.98531 0.48895,0 0.8128,-0.3429 1.06222,-0.7232 0.0621,0.39935 0.33091,0.7232 0.75953,0.7232 0.53869,0 0.87065,-0.41875 1.1176,-0.93839 0.16651,-0.3362 0.42863,-1.27459 0.42863,-1.70321 z" />
    <path
       inkscape:connector-curvature="0"
       id="path905"
       style="fill:#000000;fill-opacity:1;fill-rule:evenodd;stroke:none;stroke-width:0.35277775"
       d="m 147.44703,21.807231 -0.066,0.048 -0.0621,0.0497 -0.0593,0.0512 -0.0579,0.0522 -0.0526,0.0536 -0.0508,0.0554 -0.0483,0.0564 -0.0455,0.0564 -0.0427,0.0579 -0.0399,0.0593 -0.0744,0.12135 -0.0318,0.0607 -0.0317,0.0617 -0.0289,0.0621 -0.0275,0.0621 -0.0233,0.0621 -0.0222,0.0631 -0.0205,0.0635 -0.0194,0.0621 -0.0166,0.0621 -0.0152,0.0617 -0.0124,0.0621 -0.0109,0.0607 -0.0113,0.0621 -0.008,0.0593 -0.007,0.0593 -0.005,0.0579 -0.008,0.11571 v 0.055 l -0.001,0.054 c 0,0.52917 0.15734,1.34903 0.89993,1.87255 0.0303,0 0.0744,0 0.0744,-0.0427 0,-0.0233 -0.0109,-0.0318 -0.037,-0.0579 -0.49883,-0.44909 -0.68227,-1.08585 -0.68227,-1.76812 0,-1.01001 0.38594,-1.5046 0.69461,-1.78294 0.0138,-0.0138 0.0247,-0.0265 0.0247,-0.0441 0,-0.0455 -0.0441,-0.0455 -0.0744,-0.0455 z" />
    <path
       inkscape:connector-curvature="0"
       id="path907"
       style="fill:#000000;fill-opacity:1;fill-rule:evenodd;stroke:none;stroke-width:0.35277775"
       d="m 149.68364,23.934831 h -0.12806 c -0.01,0.0825 -0.0483,0.30303 -0.0967,0.34184 -0.0289,0.0205 -0.3168,0.0205 -0.37042,0.0205 h -0.68929 c 0.393,-0.34713 0.52388,-0.4505 0.7486,-0.62689 0.27693,-0.22189 0.53587,-0.45331 0.53587,-0.81033 0,-0.45332 -0.39688,-0.73025 -0.8763,-0.73025 -0.46461,0 -0.78,0.32527 -0.78,0.66958 0,0.19297 0.16122,0.21096 0.20109,0.21096 0.0882,0 0.1972,-0.0649 0.1972,-0.20003 0,-0.066 -0.0265,-0.19685 -0.2219,-0.19685 0.11712,-0.26599 0.37183,-0.34748 0.54681,-0.34748 0.375,0 0.57079,0.29104 0.57079,0.59407 0,0.32668 -0.23283,0.5842 -0.35278,0.71791 l -0.90134,0.89288 c -0.0399,0.0332 -0.0399,0.0416 -0.0399,0.1464 h 1.54482 z" />
    <path
       inkscape:connector-curvature="0"
       id="path909"
       style="fill:#000000;fill-opacity:1;fill-rule:evenodd;stroke:none;stroke-width:0.35277775"
       d="m 150.25831,21.807231 h -0.0208 l -10e-4,10e-4 h -0.007 l -0.003,0.001 h -0.006 l -0.004,0.001 h -0.003 l -0.006,0.003 -0.001,0.001 -0.004,0.001 -0.008,0.008 h -0.001 l -0.001,0.001 v 0.003 l -0.001,10e-4 v 0.001 l -0.003,0.003 v 0.001 l -0.001,10e-4 v 0.0152 c 0,0.0176 0.01,0.0303 0.0332,0.0564 0.32244,0.29633 0.68051,0.80186 0.68051,1.76777 0,0.78281 -0.24377,1.37548 -0.6477,1.7406 -0.0617,0.0649 -0.066,0.0688 -0.066,0.0882 0,0.0194 0.01,0.0441 0.0483,0.0441 0.0441,0 0.40076,-0.24659 0.64735,-0.71508 0.16404,-0.3115 0.27446,-0.71684 0.27446,-1.15499 0,-0.52635 -0.1584,-1.3462 -0.89852,-1.87255 z" />
    <path
       inkscape:connector-curvature="0"
       id="path911"
       style="fill:#000000;fill-opacity:1;fill-rule:evenodd;stroke:none;stroke-width:0.35277775"
       d="m 146.84342,27.432271 h 0.0607 l 0.0194,-0.001 h 0.0413 l 0.0208,-10e-4 0.0219,-0.001 0.0236,-0.001 0.0741,-0.004 0.0265,-0.001 0.0522,-0.006 0.0565,-0.005 0.0554,-0.007 0.0565,-0.008 0.055,-0.01 0.0579,-0.0109 0.0261,-0.006 0.0275,-0.007 0.0265,-0.007 0.0261,-0.008 0.0247,-0.007 0.0247,-0.008 c 0.35701,-0.127 0.42439,-0.35842 0.42439,-0.50306 0,-0.266 -0.26564,-0.4244 -0.59937,-0.4244 v 0.13512 c 0.21238,0 0.39159,0.10477 0.39159,0.28928 0,0.46707 -0.81598,0.46707 -1.02412,0.46707 h -0.23565 c 0.1972,-0.6985 0.73448,-0.75635 0.86818,-0.75635 v -0.13512 c -0.57855,0 -1.36137,0.4438 -1.36137,1.2693 0,0.48613 0.30445,0.90523 0.87101,0.90523 0.81563,0 1.19592,-0.47414 1.19592,-0.54434 0,-0.0289 -0.0427,-0.0825 -0.0811,-0.0825 -0.0289,0 -0.0388,0.0109 -0.0787,0.0494 -0.37606,0.44379 -0.94121,0.44379 -1.02799,0.44379 -0.28928,0 -0.48225,-0.19296 -0.48225,-0.58278 0,-0.0691 0,-0.16546 0.0579,-0.43004 z" />
    <path
       inkscape:connector-curvature="0"
       id="path913"
       style="fill:#000000;fill-opacity:1;fill-rule:evenodd;stroke:none;stroke-width:0.35277775"
       d="m 145.55649,16.927601 v -0.0289 l -0.003,-0.0554 -0.003,-0.0261 -0.003,-0.0233 -0.004,-0.0251 -0.004,-0.0233 -0.006,-0.0233 -0.005,-0.0222 -0.006,-0.0205 -0.007,-0.0194 -0.006,-0.0194 -0.007,-0.0194 -0.008,-0.0162 -0.01,-0.0166 -0.008,-0.0152 -0.01,-0.0152 -0.01,-0.0138 -0.0219,-0.0251 -0.0109,-0.0109 -0.0222,-0.0194 -0.0124,-0.008 -0.0247,-0.0138 -0.0138,-0.006 -0.0123,-0.004 -0.0141,-0.004 -0.0138,-0.001 -0.0124,-10e-4 -0.0138,-0.001 c -0.17921,0 -0.3623,0.16263 -0.3623,0.32244 0,0.0649 0.0317,0.14076 0.10054,0.20249 0.11712,0.10231 0.23989,0.2854 0.23989,0.57327 0,0.27446 -0.13088,0.66145 -0.34043,0.97437 -0.20532,0.29351 -0.45755,0.52493 -0.77858,0.52493 -0.39017,0 -0.60078,-0.24377 -0.66146,-0.61171 0.0759,-0.1778 0.23142,-0.61313 0.23142,-0.8061 0,-0.0815 -0.0346,-0.15029 -0.12135,-0.15029 -0.0565,0 -0.13229,0.0152 -0.1845,0.11572 -0.0744,0.13652 -0.1584,0.58032 -0.1584,0.8255 -0.22331,0.32102 -0.49636,0.62688 -0.92604,0.62688 -0.45226,0 -0.59408,-0.40216 -0.59408,-0.78387 0,-0.85161 0.69603,-1.56951 0.69603,-1.6577 0,-0.073 -0.0554,-0.12983 -0.12947,-0.12983 -0.0896,0 -0.13653,0.091 -0.1778,0.1517 -0.3489,0.50588 -0.60784,1.31621 -0.60784,1.93604 0,0.47131 0.1584,0.97438 0.7165,0.97438 0.48365,0 0.80468,-0.33902 1.05021,-0.71508 0.0621,0.39546 0.32774,0.71508 0.75107,0.71508 0.53199,0 0.86113,-0.41487 1.10384,-0.92746 0.1651,-0.33337 0.42298,-1.25941 0.42298,-1.68239 z" />
    <path
       inkscape:connector-curvature="0"
       id="path915"
       style="fill:#000000;fill-opacity:1;fill-rule:evenodd;stroke:none;stroke-width:0.35277775"
       d="m 146.97713,13.37478 -0.0565,0.04163 -0.0536,0.04269 -0.0512,0.04269 -0.0483,0.04551 -0.0455,0.04657 -0.0437,0.04692 -0.0416,0.04833 -0.0385,0.04974 -0.0374,0.04939 -0.0342,0.05115 -0.0317,0.0508 -0.0318,0.05256 -0.055,0.104775 -0.0247,0.05362 -0.0222,0.05221 -0.0208,0.05397 -0.019,0.05362 -0.018,0.05362 -0.0166,0.05397 -0.0138,0.05362 -0.0123,0.05362 -0.0222,0.104772 -0.008,0.0526 -0.007,0.0522 -0.007,0.0512 -0.008,0.0991 -0.002,0.0483 v 0.0466 l -10e-4,0.0483 c 0,0.45332 0.13511,1.15641 0.77294,1.60549 0.0247,0 0.0621,0 0.0621,-0.037 0,-0.0194 -0.008,-0.0265 -0.0318,-0.0497 -0.42721,-0.38453 -0.5842,-0.93169 -0.5842,-1.51589 0,-0.866774 0.33056,-1.291165 0.59514,-1.529643 0.0127,-0.01235 0.0208,-0.02187 0.0208,-0.03845 0,-0.03881 -0.0374,-0.03881 -0.0621,-0.03881 z" />
    <path
       inkscape:connector-curvature="0"
       id="path917"
       style="fill:#000000;fill-opacity:1;fill-rule:evenodd;stroke:none;stroke-width:0.35277775"
       d="m 148.89553,15.200761 h -0.11042 c -0.008,0.0702 -0.0413,0.25894 -0.0825,0.2921 -0.0251,0.018 -0.27164,0.018 -0.31715,0.018 h -0.59231 c 0.33761,-0.29775 0.4505,-0.38735 0.64347,-0.53728 0.23706,-0.19015 0.45896,-0.39017 0.45896,-0.694622 0,-0.390172 -0.34043,-0.626886 -0.75106,-0.626886 -0.39829,0 -0.66852,0.278342 -0.66852,0.574322 0,0.164042 0.13794,0.180623 0.1711,0.180623 0.0755,0 0.16933,-0.05503 0.16933,-0.170745 0,-0.05786 -0.0233,-0.169686 -0.19014,-0.169686 0.10054,-0.227189 0.3182,-0.297391 0.4699,-0.297391 0.32102,0 0.48789,0.248002 0.48789,0.509763 0,0.278342 -0.19862,0.500242 -0.30198,0.615952 l -0.77294,0.76482 c -0.0332,0.0289 -0.0332,0.0356 -0.0332,0.12524 h 1.32292 z" />
    <path
       inkscape:connector-curvature="0"
       id="path919"
       style="fill:#000000;fill-opacity:1;fill-rule:evenodd;stroke:none;stroke-width:0.35277775"
       d="m 149.38871,13.37478 h -0.018 l -0.001,0.0014 h -0.0109 l -0.005,0.0028 h -0.003 l -0.001,0.0014 h -0.003 l -0.001,0.0014 -0.006,0.0028 -0.001,0.0014 -0.001,0.0025 -0.003,0.0014 v 0.0014 h -0.001 v 0.0014 l -0.001,0.0014 v 0.0028 h -0.001 l -10e-4,0.0014 v 0.0053 l -0.001,0.0028 v 0.0085 c 0,0.01517 0.01,0.02469 0.0289,0.04798 0.27587,0.253647 0.58455,0.687916 0.58455,1.515883 0,0.67134 -0.20955,1.17969 -0.55704,1.49402 -0.0536,0.055 -0.0564,0.0578 -0.0564,0.0755 0,0.0152 0.01,0.0374 0.0413,0.0374 0.0388,0 0.34326,-0.21238 0.55563,-0.61313 0.14182,-0.26741 0.23565,-0.61489 0.23565,-0.99095 0,-0.451913 -0.13511,-1.154647 -0.77046,-1.605497 z" />
    <path
       inkscape:connector-curvature="0"
       id="path921"
       style="fill:#000000;fill-opacity:1;fill-rule:evenodd;stroke:none;stroke-width:0.35277775"
       d="m 147.75994,18.426911 -0.0166,0.002 -0.0152,0.003 -0.0152,0.004 -0.0138,0.006 -0.0138,0.004 -0.0138,0.007 -0.0247,0.0109 -0.0222,0.0138 -0.0289,0.025 -0.008,0.01 -0.008,0.008 -0.0205,0.0289 -0.006,0.01 -0.007,0.0109 -0.004,0.01 -0.006,0.0113 -0.004,0.01 -0.002,0.0109 -0.004,0.0109 -0.003,0.01 -0.003,0.0109 -0.001,0.01 -0.001,0.0113 -0.001,0.008 v 0.0109 l -10e-4,0.01 c 0,0.12947 0.10054,0.17639 0.18591,0.17639 0.10478,0 0.2727,-0.0758 0.2727,-0.3048 0,-0.32385 -0.37324,-0.41451 -0.62971,-0.41451 -0.71649,0 -1.37936,0.65722 -1.37936,1.32009 0,0.41064 0.28681,0.82938 0.88335,0.82938 0.8061,0 1.18252,-0.4699 1.18252,-0.53869 0,-0.0289 -0.0416,-0.0815 -0.0801,-0.0815 -0.0289,0 -0.0385,0.0113 -0.0787,0.0483 -0.37042,0.43815 -0.92852,0.43815 -1.01565,0.43815 -0.34149,0 -0.49601,-0.23283 -0.49601,-0.52917 0,-0.13758 0.0688,-0.65722 0.31715,-0.9853 0.17886,-0.23566 0.42721,-0.36936 0.66675,-0.36936 0.0663,0 0.29492,0.008 0.41628,0.14499 z" />
    <g
       transform="matrix(0.35277777,0,0,0.35277777,10.616174,-9.697592)"
       id="g923">
      <path
         inkscape:connector-curvature="0"
         id="path925"
         style="fill:none;stroke:#ff0005;stroke-width:2.70100689;stroke-linecap:butt;stroke-linejoin:miter;stroke-miterlimit:4;stroke-dasharray:none;stroke-opacity:1"
         d="m 69.645,78.742 v 23.891" />
    </g>
    <g
       transform="matrix(0.35277777,0,0,0.35277777,10.616174,-9.697592)"
       id="g927">
      <path
         inkscape:connector-curvature="0"
         id="path929"
         style="fill:none;stroke:#ff0005;stroke-width:2.70100689;stroke-linecap:butt;stroke-linejoin:miter;stroke-miterlimit:4;stroke-dasharray:none;stroke-opacity:1"
         d="m 306.043,78.676 v 23.89" />
    </g>
    <path
       inkscape:connector-curvature="0"
       id="path931"
       style="fill:#000000;fill-opacity:1;fill-rule:evenodd;stroke:none;stroke-width:0.35277775"
       d="m 119.66719,13.070332 v -0.05362 l 10e-4,-0.01517 v -0.01658 l 0.001,-0.01376 0.003,-0.01376 0.001,-0.01235 0.004,-0.0127 0.003,-0.01235 0.006,-0.01094 0.007,-0.01094 0.007,-0.0085 0.005,-0.01094 0.01,-0.0081 0.01,-0.0071 0.0123,-0.0081 0.0124,-0.0071 0.0141,-0.0053 0.007,-0.0042 0.008,-0.0014 0.01,-0.0028 0.008,-0.0028 0.01,-0.0028 0.008,-0.0025 h 0.0109 l 0.01,-0.0028 0.0109,-0.0028 0.0124,-0.0014 0.0109,-0.0014 0.0123,-0.0014 0.0141,-0.0014 0.0123,-0.0014 0.0152,-0.0011 h 0.0124 l 0.0152,-0.0014 0.0166,-0.0014 0.0152,-0.0014 h 0.0162 l 0.018,-0.0014 h 0.23036 v -0.175 h -3.85727 V 12.8072 h 0.13653 c 0.43391,0 0.44626,0.06209 0.44626,0.263172 v 2.958749 c 0,0.2039 -0.0124,0.26599 -0.44626,0.26599 h -0.13653 v 0.17498 c 0.19862,-0.018 0.61736,-0.018 0.83114,-0.018 0.21344,0 0.63642,0 0.83503,0.018 v -0.17498 h -0.13653 c -0.43391,0 -0.44661,-0.0621 -0.44661,-0.26599 V 12.8072 h 1.69086 v 3.221921 c 0,0.2039 -0.0138,0.26599 -0.44626,0.26599 h -0.13653 v 0.17498 c 0.19827,-0.018 0.61595,-0.018 0.83079,-0.018 0.21379,0 0.63677,0 0.83538,0.018 v -0.17498 h -0.13652 c -0.43427,0 -0.4438,-0.0621 -0.4438,-0.26599 z" />
    <path
       inkscape:connector-curvature="0"
       id="path933"
       style="fill:#000000;fill-opacity:1;fill-rule:evenodd;stroke:none;stroke-width:0.35277775"
       d="m 121.83642,11.467663 -0.0691,0.05115 -0.0645,0.05221 -0.0635,0.05362 -0.0593,0.05539 -0.0564,0.05644 -0.054,0.05786 -0.0508,0.06068 -0.0469,0.05927 -0.0455,0.06209 -0.0427,0.06174 -0.0399,0.0635 -0.0374,0.0635 -0.0356,0.06456 -0.0317,0.06491 -0.0303,0.06597 -0.0289,0.06491 -0.0247,0.06597 -0.0236,0.06632 -0.0219,0.06597 -0.0208,0.06632 -0.0166,0.06597 -0.0303,0.129822 -0.0109,0.06456 -0.0124,0.06491 -0.007,0.06315 -0.008,0.06209 -0.006,0.06209 -0.008,0.121355 -10e-4,0.05786 -0.001,0.05644 c 0,0.558095 0.16686,1.423463 0.94968,1.974853 0.0328,0 0.0783,0 0.0783,-0.0455 0,-0.025 -0.0109,-0.0318 -0.0384,-0.0593 -0.52634,-0.47554 -0.72072,-1.146526 -0.72072,-1.865839 0,-1.065389 0.40781,-1.586089 0.73307,-1.8796 0.0152,-0.01517 0.0261,-0.02752 0.0261,-0.04692 0,-0.04833 -0.0455,-0.04833 -0.0783,-0.04833 z" />
    <path
       inkscape:connector-curvature="0"
       id="path935"
       style="fill:#000000;fill-opacity:1;fill-rule:evenodd;stroke:none;stroke-width:0.35277775"
       d="m 124.19544,13.712388 h -0.13511 c -0.01,0.08572 -0.0508,0.319969 -0.10195,0.358422 -0.0303,0.02328 -0.33479,0.02328 -0.38982,0.02328 h -0.72778 c 0.41345,-0.366536 0.5528,-0.476603 0.78951,-0.662869 0.29245,-0.232834 0.56515,-0.478014 0.56515,-0.852664 0,-0.478367 -0.41769,-0.770467 -0.92322,-0.770467 -0.49071,0 -0.82268,0.343253 -0.82268,0.705556 0,0.203905 0.16934,0.223308 0.21061,0.223308 0.0938,0 0.20955,-0.06914 0.20955,-0.210961 0,-0.0702 -0.0289,-0.208139 -0.23424,-0.208139 0.12136,-0.279753 0.39158,-0.366536 0.5775,-0.366536 0.39405,0 0.60078,0.305858 0.60078,0.627239 0,0.3429 -0.24518,0.61595 -0.37218,0.757766 l -0.95215,0.9398 c -0.0399,0.03598 -0.0399,0.0441 -0.0399,0.154517 h 1.62737 z" />
    <path
       inkscape:connector-curvature="0"
       id="path937"
       style="fill:#000000;fill-opacity:1;fill-rule:evenodd;stroke:none;stroke-width:0.35277775"
       d="m 124.80187,11.467663 h -0.0222 l -0.003,0.0014 h -0.005 l -0.004,0.0014 h -0.003 l -0.004,0.0014 -0.001,0.0014 h -0.006 l -0.004,0.0014 -10e-4,0.0025 -0.004,0.0014 h -0.003 l -0.001,0.0028 -0.003,0.0028 -0.003,0.0014 v 0.0014 l -0.002,0.0028 v 0.0011 l -0.003,0.0028 v 0.0042 l -0.001,0.0014 v 0.0028 l -10e-4,0.0014 v 0.0067 l -0.001,0.0014 v 0.0042 c 0,0.0194 0.0124,0.03175 0.036,0.05927 0.34007,0.312914 0.71931,0.845961 0.71931,1.863019 0,0.8255 -0.25788,1.450975 -0.68368,1.836915 -0.066,0.0674 -0.0716,0.0716 -0.0716,0.0924 0,0.0191 0.0124,0.0455 0.0522,0.0455 0.0469,0 0.42334,-0.25929 0.68369,-0.75388 0.17356,-0.328085 0.28786,-0.755299 0.28786,-1.216732 0,-0.555272 -0.1651,-1.420989 -0.9465,-1.97485 z" />
    <path
       inkscape:connector-curvature="0"
       id="path939"
       style="fill:#000000;fill-opacity:1;fill-rule:evenodd;stroke:none;stroke-width:0.35277775"
       d="m 35.739243,12.753538 v -0.04833 l 0.0014,-0.01376 v -0.01517 l 0.0028,-0.02469 0.0081,-0.03316 0.0056,-0.01094 0.0053,-0.0099 0.0056,-0.0067 0.0067,-0.0099 0.01658,-0.01376 0.01129,-0.0081 0.01623,-0.0085 0.01376,-0.0053 0.0071,-0.0014 0.02469,-0.0085 0.01658,-0.0025 0.0099,-0.0014 0.0095,-0.0028 0.01094,-0.0014 0.0095,-0.0014 0.01129,-0.0014 h 0.01235 l 0.01093,-0.0014 0.01376,-0.0028 h 0.02505 l 0.01482,-0.0011 0.01411,-0.0014 h 0.01482 l 0.01517,-0.0014 h 0.206728 v -0.157349 h -3.4671 v 0.157339 h 0.122767 c 0.389819,0 0.401108,0.05503 0.401108,0.237067 v 2.659593 c 0,0.18309 -0.01129,0.23812 -0.401108,0.23812 h -0.122767 v 0.15875 c 0.179211,-0.0166 0.554214,-0.0166 0.746831,-0.0166 0.192969,0 0.573263,0 0.751063,0.0166 v -0.15875 h -0.122321 c -0.390173,0 -0.401109,-0.055 -0.401109,-0.23812 v -2.89666 h 1.518709 v 2.89666 c 0,0.18309 -0.01129,0.23812 -0.401109,0.23812 h -0.122766 v 0.15875 c 0.179211,-0.0166 0.555625,-0.0166 0.74683,-0.0166 0.19297,0 0.573617,0 0.751064,0.0166 v -0.15875 H 36.13893 c -0.391583,0 -0.399697,-0.055 -0.399697,-0.23812 z" />
    <path
       inkscape:connector-curvature="0"
       id="path941"
       style="fill:#000000;fill-opacity:1;fill-rule:evenodd;stroke:none;stroke-width:0.35277775"
       d="m 37.689044,11.312088 -0.06068,0.04692 -0.05927,0.04657 -0.05644,0.04692 -0.05362,0.05115 -0.05115,0.0508 -0.04798,0.05115 -0.04551,0.05503 -0.04268,0.05362 -0.04163,0.05539 -0.03704,0.05503 -0.0374,0.05786 -0.03281,0.05644 -0.03175,0.05786 -0.02893,0.05786 -0.02752,0.05927 -0.02505,0.05927 -0.02328,0.05927 -0.02081,0.05927 -0.01905,0.06068 -0.01799,0.05786 -0.01658,0.05927 -0.01376,0.05927 -0.01235,0.05786 -0.01093,0.05927 -0.0099,0.05786 -0.0067,0.05644 -0.0085,0.05644 -0.0081,0.110419 -0.0028,0.05362 -0.0014,0.05256 -0.0014,0.0508 c 0,0.50165 0.150283,1.278819 0.853016,1.774828 0.02893,0 0.0702,0 0.0702,-0.0399 0,-0.0233 -0.0095,-0.0289 -0.03422,-0.055 -0.472721,-0.425803 -0.6477,-1.029405 -0.6477,-1.677105 0,-0.957792 0.366538,-1.426281 0.658638,-1.688042 0.01376,-0.01517 0.02328,-0.02611 0.02328,-0.0441 10e-7,-0.04269 -0.04127,-0.04269 -0.0702,-0.04269 z" />
    <path
       inkscape:connector-curvature="0"
       id="path943"
       style="fill:#000000;fill-opacity:1;fill-rule:evenodd;stroke:none;stroke-width:0.35277775"
       d="m 39.207754,11.718488 v -0.02893 l -0.0014,-0.0028 v -0.01376 l -0.0013,-0.0028 v -0.0053 l -0.0013,-0.0028 v -0.0071 l -0.0013,-0.0025 -0.0039,-0.0127 -0.0028,-0.0025 -0.0013,-0.0028 -0.0056,-0.0056 -0.0028,-0.0014 -0.0039,-0.0014 -0.0028,-0.0014 -0.0042,-0.0011 -0.0053,-0.0014 -0.0013,-0.0014 h -0.0113 l -0.0024,-0.0014 h -0.0141 l -0.003,-0.0014 h -0.03739 c -0.227395,0.224718 -0.549835,0.227187 -0.695885,0.227187 v 0.128411 c 0.08678,0 0.321029,0 0.513998,-0.09807 v 1.809397 c 0,0.117123 0,0.164042 -0.35419,0.164042 h -0.135112 v 0.126647 c 0.06456,-0.0025 0.500237,-0.01376 0.633942,-0.01376 0.108653,0 0.556683,0.01129 0.633941,0.01376 v -0.126647 h -0.135114 c -0.35419,0 -0.35419,-0.04692 -0.35419,-0.164042 z" />
    <path
       inkscape:connector-curvature="0"
       id="path945"
       style="fill:#000000;fill-opacity:1;fill-rule:evenodd;stroke:none;stroke-width:0.35277775"
       d="m 40.355694,11.312088 h -0.01939 l -0.0028,0.0014 h -0.0053 l -0.0028,0.0011 h -0.0042 l -0.0028,0.0014 h -0.0053 l -0.0013,0.0014 -0.0085,0.0042 -0.0013,0.0014 -0.0024,0.0014 -0.0013,0.0028 -0.0028,0.0014 -0.0013,0.0011 v 0.0014 h -0.0013 v 0.0014 l -0.0033,0.0028 v 0.0042 l -0.0013,0.0014 v 0.0028 h -0.0013 v 0.0067 l -0.0011,0.0014 v 0.0028 c 0,0.01799 0.01236,0.02893 0.03281,0.05503 0.305858,0.279753 0.646287,0.759178 0.646287,1.674284 0,0.741539 -0.231421,1.304925 -0.614537,1.651 -0.05927,0.0607 -0.06456,0.0635 -0.06456,0.084 0,0.0166 0.01236,0.0399 0.04798,0.0399 0.04268,0 0.378884,-0.23283 0.613482,-0.677681 0.155334,-0.293864 0.258696,-0.678039 0.258696,-1.094317 -1.75e-4,-0.498828 -0.149045,-1.275997 -0.850368,-1.774825 z" />
    <path
       inkscape:connector-curvature="0"
       id="path947"
       style="fill:#000000;fill-opacity:1;fill-rule:evenodd;stroke:none;stroke-width:0.35277775"
       d="m 40.890152,40.592641 -0.478015,-1.13559 c -0.01799,-0.0469 -0.02893,-0.0674 -0.02893,-0.073 0,-0.036 0.09631,-0.14323 0.336198,-0.16686 0.05785,-0.005 0.1143,-0.0109 0.1143,-0.10866 0,-0.0677 -0.06879,-0.0677 -0.08537,-0.0677 -0.234243,0 -0.479425,0.018 -0.719315,0.018 -0.143226,0 -0.496003,-0.018 -0.639585,-0.018 -0.03281,0 -0.10301,0 -0.10301,0.1143 0,0.0621 0.05785,0.0621 0.132292,0.0621 0.341487,0 0.37606,0.0579 0.42827,0.18203 l 0.672748,1.59421 -1.204383,1.2954 -0.07302,0.0621 c -0.279752,0.30303 -0.548569,0.39405 -0.839258,0.40922 -0.07303,0.006 -0.127001,0.006 -0.127001,0.1143 0,0.006 0,0.0635 0.07585,0.0635 0.169686,0 0.357011,-0.018 0.534811,-0.018 0.212018,0 0.435327,0.018 0.639233,0.018 0.03598,0 0.104775,0 0.104775,-0.1143 0,-0.0579 -0.05786,-0.0635 -0.06879,-0.0635 -0.05256,-0.004 -0.228952,-0.0152 -0.228952,-0.17639 0,-0.091 0.08573,-0.18309 0.154516,-0.25612 l 0.579967,-0.61736 0.513995,-0.55809 0.577499,1.36278 c 0.02222,0.0635 0.02752,0.0688 0.02752,0.0811 0,0.0455 -0.107243,0.14217 -0.330552,0.16404 -0.0635,0.006 -0.113241,0.0124 -0.113241,0.11042 0,0.0674 0.0635,0.0674 0.08431,0.0674 0.161221,0 0.560916,-0.018 0.719315,-0.018 0.143226,0 0.49036,0.018 0.633941,0.018 0.03987,0 0.108657,0 0.108657,-0.10865 0,-0.0692 -0.05786,-0.0692 -0.103365,-0.0692 -0.381707,-0.004 -0.394052,-0.0219 -0.49036,-0.24941 -0.221898,-0.53199 -0.605015,-1.42205 -0.734484,-1.76248 0.386996,-0.40111 0.985309,-1.08021 1.1684,-1.24037 0.165452,-0.13617 0.381704,-0.27269 0.724959,-0.29069 0.07444,-0.005 0.123825,-0.005 0.123825,-0.1143 0,-0.006 0,-0.0621 -0.07303,-0.0621 -0.172157,0 -0.359482,0.018 -0.537282,0.018 -0.21096,0 -0.427215,-0.018 -0.632531,-0.018 -0.03457,0 -0.109009,0 -0.109009,0.1143 0,0.0388 0.02893,0.0568 0.06915,0.0621 0.05221,0.006 0.23001,0.018 0.23001,0.17639 0,0.0815 -0.0635,0.15593 -0.110067,0.20673 z" />
    <path
       inkscape:connector-curvature="0"
       id="path949"
       style="fill:#000000;fill-opacity:1;fill-rule:evenodd;stroke:none;stroke-width:0.35277775"
       d="m 44.722729,37.881901 -0.07055,0.0526 -0.06597,0.0522 -0.0635,0.0536 -0.05927,0.0564 -0.05644,0.0568 -0.05503,0.0593 -0.05115,0.0603 -0.04939,0.0607 -0.04551,0.0621 -0.04268,0.0621 -0.04022,0.0649 -0.03704,0.0631 -0.03598,0.0663 -0.03281,0.0646 -0.03034,0.0663 -0.02752,0.0674 -0.02646,0.0663 -0.02468,0.066 -0.02188,0.0677 -0.01939,0.066 -0.01799,0.0663 -0.01659,0.0674 -0.01376,0.0649 -0.01236,0.0646 -0.0095,0.0663 -0.0099,0.0632 -0.0081,0.0635 -0.0056,0.0635 -0.0081,0.12135 -0.0013,0.0589 v 0.0582 c 0,0.56339 0.168275,1.43722 0.959202,1.9939 0.03175,0 0.07832,0 0.07832,-0.0455 0,-0.0247 -0.01093,-0.0318 -0.03986,-0.0607 -0.53058,-0.47942 -0.726372,-1.15746 -0.726372,-1.88525 0,-1.07597 0.412047,-1.60407 0.74013,-1.89865 0.01516,-0.0166 0.02611,-0.0293 0.02611,-0.0483 0,-0.0483 -0.04657,-0.0483 -0.07832,-0.0483 z" />
    <path
       inkscape:connector-curvature="0"
       id="path951"
       style="fill:#000000;fill-opacity:1;fill-rule:evenodd;stroke:none;stroke-width:0.35277775"
       d="m 46.428762,38.338041 v -0.036 l -0.0013,-0.004 v -0.0138 l -0.0013,-0.004 v -0.006 l -0.0013,-0.002 v -0.003 l -0.0013,-0.003 v -0.003 l -0.0013,-0.004 -0.0013,-0.005 -0.0028,-0.003 -0.0013,-0.004 -0.0024,-0.003 -0.0028,-0.004 -0.0028,-10e-4 -0.0042,-0.003 -0.0024,-10e-4 -0.0056,-0.001 -0.0042,-10e-4 -0.0053,-10e-4 -0.0028,-0.001 h -0.0013 l -0.0042,-10e-4 h -0.0065 l -0.0039,-10e-4 h -0.06067 c -0.255058,0.25082 -0.617363,0.2547 -0.779991,0.2547 v 0.14358 c 0.0949,0 0.359478,0 0.576085,-0.11041 v 2.03411 c 0,0.1337 0,0.1845 -0.398285,0.1845 h -0.150284 v 0.14323 c 0.07161,-0.004 0.562327,-0.0166 0.7112,-0.0166 0.122412,0 0.625475,0.0127 0.713669,0.0166 v -0.14323 h -0.151694 c -0.399346,0 -0.399346,-0.0508 -0.399346,-0.1845 z" />
    <path
       inkscape:connector-curvature="0"
       id="path953"
       style="fill:#000000;fill-opacity:1;fill-rule:evenodd;stroke:none;stroke-width:0.35277775"
       d="m 47.718519,37.881901 h -0.02082 l -0.0028,10e-4 h -0.0067 l -0.0028,0.001 h -0.0042 l -0.0053,0.003 h -0.0056 l -0.0042,10e-4 -0.0011,0.002 -0.0042,10e-4 -0.0028,10e-4 -0.0042,0.004 -0.0028,10e-4 v 10e-4 l -0.0011,0.001 v 10e-4 l -0.0028,0.002 v 10e-4 l -0.0028,0.003 v 0.007 l -0.0013,0.002 v 0.007 l -0.0013,0.003 c 0,0.0191 0.01236,0.0318 0.03739,0.0607 0.3429,0.31538 0.724607,0.85442 0.724607,1.88383 0,0.83362 -0.257527,1.46473 -0.690386,1.85455 -0.06597,0.0691 -0.07161,0.0716 -0.07161,0.0938 0,0.0194 0.01236,0.0455 0.05256,0.0455 0.04798,0 0.426861,-0.26176 0.690386,-0.76059 0.176389,-0.3309 0.2921,-0.76341 0.2921,-1.23084 0,-0.56056 -0.168275,-1.43439 -0.957792,-1.99531 z" />
    <path
       inkscape:connector-curvature="0"
       id="path955"
       style="fill:#000000;fill-opacity:1;fill-rule:evenodd;stroke:none;stroke-width:0.35277775"
       d="m 115.624,40.522091 -0.44908,-1.06222 c -0.0152,-0.0441 -0.0265,-0.0635 -0.0265,-0.0677 0,-0.0342 0.091,-0.13476 0.31573,-0.15557 0.0536,-0.006 0.10619,-0.0109 0.10619,-0.10337 0,-0.0635 -0.0649,-0.0635 -0.0801,-0.0635 -0.21908,0 -0.44909,0.018 -0.6724,0.018 -0.13511,0 -0.46425,-0.018 -0.59937,-0.018 -0.0303,0 -0.0967,0 -0.0967,0.1076 0,0.0593 0.054,0.0593 0.12418,0.0593 0.32103,0 0.35137,0.0536 0.40111,0.16933 l 0.62971,1.49261 -1.12748,1.21249 -0.0688,0.0579 c -0.26176,0.28399 -0.514,0.36795 -0.78528,0.38312 -0.0692,0.006 -0.11854,0.006 -0.11854,0.1076 0,0.006 0,0.0593 0.0716,0.0593 0.1584,0 0.33338,-0.018 0.50024,-0.018 0.19826,0 0.40781,0.018 0.59796,0.018 0.0332,0 0.0977,0 0.0977,-0.1076 0,-0.0536 -0.0536,-0.0593 -0.0646,-0.0593 -0.0483,-0.004 -0.21378,-0.0152 -0.21378,-0.1651 0,-0.0857 0.0801,-0.1711 0.14499,-0.23989 l 0.54293,-0.5775 0.48083,-0.52211 0.54011,1.276 c 0.0208,0.0579 0.0261,0.0635 0.0261,0.0759 0,0.0413 -0.10054,0.13088 -0.31009,0.15275 -0.0593,0.006 -0.10583,0.0127 -0.10583,0.10337 0,0.0635 0.0593,0.0635 0.0797,0.0635 0.15029,0 0.52388,-0.018 0.6724,-0.018 0.13511,0 0.45896,0.018 0.59408,0.018 0.0374,0 0.10054,0 0.10054,-0.10195 0,-0.0649 -0.0522,-0.0649 -0.0963,-0.0649 -0.35701,-0.004 -0.36795,-0.0219 -0.45756,-0.23425 -0.20813,-0.49742 -0.56656,-1.32962 -0.68897,-1.64924 0.36371,-0.375 0.92181,-1.01176 1.09396,-1.16064 0.15452,-0.12805 0.35701,-0.25611 0.67804,-0.27128 0.0702,-0.006 0.11712,-0.006 0.11712,-0.1076 0,-0.005 0,-0.0593 -0.0688,-0.0593 -0.16122,0 -0.33619,0.018 -0.50306,0.018 -0.19685,0 -0.3997,-0.018 -0.59266,-0.018 -0.0314,0 -0.10055,0 -0.10055,0.1076 0,0.036 0.0265,0.0536 0.0649,0.0593 0.0483,0.004 0.21344,0.0152 0.21344,0.16545 0,0.0758 -0.0593,0.14464 -0.10337,0.19297 z" />
    <path
       inkscape:connector-curvature="0"
       id="path957"
       style="fill:#000000;fill-opacity:1;fill-rule:evenodd;stroke:none;stroke-width:0.35277775"
       d="m 119.21104,37.986671 -0.066,0.0483 -0.0621,0.048 -0.0593,0.0511 -0.055,0.0522 -0.054,0.054 -0.0508,0.055 -0.0483,0.0564 -0.0455,0.0564 -0.0427,0.0579 -0.0399,0.0593 -0.0374,0.0607 -0.0356,0.0593 -0.0332,0.0607 -0.0318,0.0621 -0.0289,0.0621 -0.0497,0.12383 -0.0219,0.0621 -0.0208,0.0635 -0.0356,0.12382 -0.0152,0.0635 -0.0247,0.12136 -0.01,0.0617 -0.008,0.0593 -0.007,0.0593 -0.005,0.0593 -0.008,0.11324 v 0.0564 l -10e-4,0.0536 c 0,0.52634 0.15734,1.34514 0.89852,1.86725 0.0289,0 0.073,0 0.073,-0.0427 0,-0.0233 -0.01,-0.0303 -0.037,-0.0579 -0.49742,-0.44909 -0.67945,-1.08303 -0.67945,-1.76389 0,-1.00753 0.38453,-1.50072 0.6918,-1.77765 0.0152,-0.0152 0.0247,-0.0261 0.0247,-0.0455 0,-0.0441 -0.0441,-0.0441 -0.073,-0.0441 z" />
    <path
       inkscape:connector-curvature="0"
       id="path959"
       style="fill:#000000;fill-opacity:1;fill-rule:evenodd;stroke:none;stroke-width:0.35277775"
       d="m 121.44201,40.108981 h -0.12664 c -0.0109,0.0811 -0.0498,0.30304 -0.0977,0.34008 -0.0289,0.0208 -0.31573,0.0208 -0.36935,0.0208 h -0.68757 c 0.39265,-0.34572 0.52352,-0.45049 0.74683,-0.62547 0.27693,-0.22049 0.53446,-0.45226 0.53446,-0.80751 0,-0.45226 -0.39546,-0.72919 -0.87348,-0.72919 -0.46319,0 -0.77716,0.32526 -0.77716,0.66851 0,0.19156 0.1598,0.2092 0.19826,0.2092 0.0882,0 0.1972,-0.0632 0.1972,-0.19826 0,-0.0663 -0.0261,-0.1972 -0.22049,-0.1972 0.11571,-0.26459 0.37077,-0.34573 0.54575,-0.34573 0.37465,0 0.56762,0.28928 0.56762,0.59267 0,0.32491 -0.23142,0.58138 -0.35137,0.71649 l -0.89852,0.88865 c -0.0384,0.0346 -0.0384,0.0427 -0.0384,0.14605 h 1.53916 z" />
    <path
       inkscape:connector-curvature="0"
       id="path961"
       style="fill:#000000;fill-opacity:1;fill-rule:evenodd;stroke:none;stroke-width:0.35277775"
       d="m 122.01528,37.986671 h -0.0289 l -0.002,10e-4 h -0.004 l -10e-4,10e-4 -0.004,0.001 h -0.003 l -0.002,10e-4 h -0.003 l -0.001,0.002 -0.004,10e-4 h -10e-4 l -0.003,0.003 -0.001,0.003 -0.002,10e-4 -0.003,0.003 v 0.001 l -0.001,10e-4 v 0.003 h -0.001 l -10e-4,10e-4 v 0.007 l -0.001,10e-4 v 0.008 l -0.001,10e-4 c 0,0.0194 0.0124,0.0303 0.0346,0.0579 0.32102,0.29352 0.67945,0.7994 0.67945,1.76248 0,0.77999 -0.24272,1.37125 -0.64629,1.73637 -0.0621,0.0649 -0.0677,0.0674 -0.0677,0.0882 0,0.018 0.0124,0.0427 0.0498,0.0427 0.0441,0 0.39969,-0.24518 0.64629,-0.71367 0.16404,-0.30868 0.27269,-0.71402 0.27269,-1.15076 0,-0.52493 -0.15698,-1.34373 -0.8957,-1.86725 z" />
  </g>
</svg>
