<?xml version="1.0" encoding="utf-8" standalone="no"?>
<!DOCTYPE svg PUBLIC "-//W3C//DTD SVG 1.1//EN"
  "http://www.w3.org/Graphics/SVG/1.1/DTD/svg11.dtd">
<!-- Created with matplotlib (https://matplotlib.org/) -->
<svg height="473.04pt" version="1.1" viewBox="0 0 666 473.04" width="666pt" xmlns="http://www.w3.org/2000/svg" xmlns:xlink="http://www.w3.org/1999/xlink">
 <metadata>
  <rdf:RDF xmlns:cc="http://creativecommons.org/ns#" xmlns:dc="http://purl.org/dc/elements/1.1/" xmlns:rdf="http://www.w3.org/1999/02/22-rdf-syntax-ns#">
   <cc:Work>
    <dc:type rdf:resource="http://purl.org/dc/dcmitype/StillImage"/>
    <dc:date>2022-10-25T18:18:07.451359</dc:date>
    <dc:format>image/svg+xml</dc:format>
    <dc:creator>
     <cc:Agent>
      <dc:title>Matplotlib v3.3.4, https://matplotlib.org/</dc:title>
     </cc:Agent>
    </dc:creator>
   </cc:Work>
  </rdf:RDF>
 </metadata>
 <defs>
  <style type="text/css">*{stroke-linecap:butt;stroke-linejoin:round;}</style>
 </defs>
 <g id="figure_1">
  <g id="patch_1">
   <path d="M 0 473.04 
L 666 473.04 
L 666 0 
L 0 0 
z
" style="fill:#ffffff;"/>
  </g>
  <g id="axes_1">
   <g id="patch_2">
    <path d="M 44.223522 206.710936 
L 646.193292 206.710936 
L 646.193292 17.28 
L 44.223522 17.28 
z
" style="fill:#ffffff;"/>
   </g>
   <g id="PolyCollection_1">
    <defs>
     <path d="M 71.585785 -436.282676 
L 71.585785 -411.8426 
L 71.864991 -396.545669 
L 72.144198 -403.770784 
L 72.423405 -401.779136 
L 72.702612 -387.631633 
L 72.981818 -382.988939 
L 73.261025 -388.174801 
L 73.540232 -381.250788 
L 73.819439 -377.870683 
L 74.098645 -387.079287 
L 74.377852 -392.302136 
L 74.657059 -392.48752 
L 74.936266 -387.996347 
L 75.215472 -389.176367 
L 75.494679 -393.516258 
L 75.773886 -394.838438 
L 76.053093 -395.835235 
L 76.332299 -395.467051 
L 76.611506 -393.39616 
L 76.890713 -393.278299 
L 77.16992 -394.334913 
L 77.449126 -396.902722 
L 77.728333 -395.029799 
L 78.00754 -399.67752 
L 78.286747 -397.365854 
L 78.565954 -400.653122 
L 78.84516 -400.795893 
L 79.124367 -398.146776 
L 79.403574 -401.747028 
L 79.682781 -398.567922 
L 79.961987 -400.769387 
L 80.241194 -396.613471 
L 80.520401 -398.131522 
L 80.799608 -398.565842 
L 81.078814 -398.240821 
L 81.358021 -398.845437 
L 81.637228 -400.311788 
L 81.916435 -403.831273 
L 82.195641 -402.25388 
L 82.474848 -402.529752 
L 82.754055 -403.219988 
L 93.922325 -404.961152 
L 105.090595 -403.110671 
L 116.258866 -408.186226 
L 127.427136 -403.197764 
L 138.595406 -402.7508 
L 149.763677 -401.305768 
L 160.931947 -400.443801 
L 172.100217 -408.754738 
L 183.268488 -411.142894 
L 194.436758 -410.000395 
L 205.605028 -408.974868 
L 216.773299 -406.238627 
L 227.941569 -407.101689 
L 239.109839 -407.605622 
L 250.278109 -406.80902 
L 261.44638 -411.215455 
L 272.61465 -412.669266 
L 283.78292 -414.634569 
L 294.951191 -416.665705 
L 306.119461 -417.557873 
L 317.287731 -418.256547 
L 328.456002 -416.879781 
L 339.624272 -416.870198 
L 350.792542 -417.153301 
L 361.960813 -421.393606 
L 373.129083 -420.062508 
L 384.297353 -422.639365 
L 395.465623 -420.026683 
L 406.633894 -424.336145 
L 417.802164 -424.23374 
L 428.970434 -425.253681 
L 440.138705 -428.385313 
L 451.306975 -425.582583 
L 462.475245 -427.320739 
L 473.643516 -425.775035 
L 484.811786 -423.751886 
L 495.980056 -423.822645 
L 507.148326 -427.226232 
L 518.316597 -422.699401 
L 529.484867 -423.8409 
L 540.653137 -424.946592 
L 551.821408 -422.446215 
L 562.989678 -427.215143 
L 574.157948 -425.623683 
L 585.326219 -425.384197 
L 596.494489 -425.049509 
L 607.662759 -424.606579 
L 618.83103 -425.024333 
L 618.83103 -435.440228 
L 618.83103 -435.440228 
L 607.662759 -436.349833 
L 596.494489 -436.655178 
L 585.326219 -435.277477 
L 574.157948 -436.239028 
L 562.989678 -439.937504 
L 551.821408 -436.092337 
L 540.653137 -436.101375 
L 529.484867 -436.938841 
L 518.316597 -435.203539 
L 507.148326 -434.301863 
L 495.980056 -435.103666 
L 484.811786 -437.48553 
L 473.643516 -436.293295 
L 462.475245 -435.212783 
L 451.306975 -438.594747 
L 440.138705 -434.936816 
L 428.970434 -435.127483 
L 417.802164 -435.889746 
L 406.633894 -433.829272 
L 395.465623 -436.724922 
L 384.297353 -439.41923 
L 373.129083 -439.290263 
L 361.960813 -437.865269 
L 350.792542 -438.347548 
L 339.624272 -439.438209 
L 328.456002 -440.904717 
L 317.287731 -439.454654 
L 306.119461 -440.537617 
L 294.951191 -441.459618 
L 283.78292 -438.367642 
L 272.61465 -445.934568 
L 261.44638 -447.026535 
L 250.278109 -444.685437 
L 239.109839 -445.442708 
L 227.941569 -447.149503 
L 216.773299 -444.760964 
L 205.605028 -442.291703 
L 194.436758 -440.29115 
L 183.268488 -440.889094 
L 172.100217 -436.532963 
L 160.931947 -431.606763 
L 149.763677 -429.992075 
L 138.595406 -435.525658 
L 127.427136 -428.005366 
L 116.258866 -423.361835 
L 105.090595 -422.569744 
L 93.922325 -424.577403 
L 82.754055 -425.557393 
L 82.474848 -425.4449 
L 82.195641 -424.364411 
L 81.916435 -426.523199 
L 81.637228 -425.580987 
L 81.358021 -425.189077 
L 81.078814 -424.559776 
L 80.799608 -423.720197 
L 80.520401 -422.528313 
L 80.241194 -424.12857 
L 79.961987 -421.997411 
L 79.682781 -420.385351 
L 79.403574 -421.516719 
L 79.124367 -422.43817 
L 78.84516 -424.837846 
L 78.565954 -422.246843 
L 78.286747 -422.31388 
L 78.00754 -419.827976 
L 77.728333 -420.699233 
L 77.449126 -418.535147 
L 77.16992 -416.816742 
L 76.890713 -415.062726 
L 76.611506 -417.165102 
L 76.332299 -417.033254 
L 76.053093 -419.58077 
L 75.773886 -418.095128 
L 75.494679 -418.611311 
L 75.215472 -416.062843 
L 74.936266 -414.657186 
L 74.657059 -413.722911 
L 74.377852 -410.247886 
L 74.098645 -408.66523 
L 73.819439 -404.134522 
L 73.540232 -403.775218 
L 73.261025 -407.977612 
L 72.981818 -413.396248 
L 72.702612 -425.39902 
L 72.423405 -439.640394 
L 72.144198 -445.529105 
L 71.864991 -440.396456 
L 71.585785 -436.282676 
z
" id="mbfbb2b45d6" style="stroke:#0000ff;stroke-opacity:0.5;"/>
    </defs>
    <g clip-path="url(#pbe33667b73)">
     <use style="fill:#0000ff;fill-opacity:0.5;stroke:#0000ff;stroke-opacity:0.5;" x="0" xlink:href="#mbfbb2b45d6" y="473.04"/>
    </g>
   </g>
   <g id="PolyCollection_2">
    <defs>
     <path d="M 71.585785 -293.800749 
L 71.585785 -274.939562 
L 71.864991 -277.618124 
L 72.144198 -281.087296 
L 72.423405 -279.211467 
L 72.702612 -282.886804 
L 72.981818 -285.40049 
L 73.261025 -286.026375 
L 73.540232 -282.340553 
L 73.819439 -286.787504 
L 74.098645 -287.526589 
L 74.377852 -289.650188 
L 74.657059 -291.815844 
L 74.936266 -293.563087 
L 75.215472 -291.366996 
L 75.494679 -294.164198 
L 75.773886 -294.796037 
L 76.053093 -294.26497 
L 76.332299 -295.262025 
L 76.611506 -296.558762 
L 76.890713 -298.517947 
L 77.16992 -297.535886 
L 77.449126 -296.92531 
L 77.728333 -298.832091 
L 78.00754 -301.248347 
L 78.286747 -299.62034 
L 78.565954 -300.239706 
L 78.84516 -299.006478 
L 79.124367 -301.011182 
L 79.403574 -302.097217 
L 79.682781 -302.087577 
L 79.961987 -302.56431 
L 80.241194 -303.256347 
L 80.520401 -304.596315 
L 80.799608 -304.02794 
L 81.078814 -302.87812 
L 81.358021 -303.69735 
L 81.637228 -304.047677 
L 81.916435 -305.014405 
L 82.195641 -302.501654 
L 82.474848 -305.139798 
L 82.754055 -305.592203 
L 93.922325 -304.635199 
L 105.090595 -305.863512 
L 116.258866 -305.456371 
L 127.427136 -309.322053 
L 138.595406 -310.105428 
L 149.763677 -307.559337 
L 160.931947 -308.306809 
L 172.100217 -307.226494 
L 183.268488 -308.957746 
L 194.436758 -308.5858 
L 205.605028 -309.345235 
L 216.773299 -310.641348 
L 227.941569 -308.294681 
L 239.109839 -309.667041 
L 250.278109 -311.09267 
L 261.44638 -310.095763 
L 272.61465 -309.561662 
L 283.78292 -309.596125 
L 294.951191 -309.363899 
L 306.119461 -309.403108 
L 317.287731 -310.058751 
L 328.456002 -309.925963 
L 339.624272 -310.246163 
L 350.792542 -309.556154 
L 361.960813 -310.06814 
L 373.129083 -309.724096 
L 384.297353 -310.449833 
L 395.465623 -309.443104 
L 406.633894 -309.471147 
L 417.802164 -309.320198 
L 428.970434 -310.049194 
L 440.138705 -308.627267 
L 451.306975 -310.505211 
L 462.475245 -309.827652 
L 473.643516 -311.786389 
L 484.811786 -311.861712 
L 495.980056 -311.880528 
L 507.148326 -310.685847 
L 518.316597 -311.51729 
L 529.484867 -310.060825 
L 540.653137 -310.59424 
L 551.821408 -310.239659 
L 562.989678 -308.754492 
L 574.157948 -310.450203 
L 585.326219 -310.340217 
L 596.494489 -309.280933 
L 607.662759 -310.847184 
L 618.83103 -310.355571 
L 618.83103 -316.803588 
L 618.83103 -316.803588 
L 607.662759 -316.678129 
L 596.494489 -317.945034 
L 585.326219 -318.663647 
L 574.157948 -316.475084 
L 562.989678 -318.135315 
L 551.821408 -317.173327 
L 540.653137 -318.124138 
L 529.484867 -318.487019 
L 518.316597 -318.665311 
L 507.148326 -318.953789 
L 495.980056 -317.702118 
L 484.811786 -318.741972 
L 473.643516 -319.137341 
L 462.475245 -317.985859 
L 451.306975 -317.84413 
L 440.138705 -316.50623 
L 428.970434 -316.876169 
L 417.802164 -318.539842 
L 406.633894 -317.218906 
L 395.465623 -319.234265 
L 384.297353 -315.057834 
L 373.129083 -318.285019 
L 361.960813 -317.803735 
L 350.792542 -319.036441 
L 339.624272 -317.790039 
L 328.456002 -319.221679 
L 317.287731 -317.422142 
L 306.119461 -317.305325 
L 294.951191 -317.502602 
L 283.78292 -314.850541 
L 272.61465 -317.393036 
L 261.44638 -317.409811 
L 250.278109 -315.834957 
L 239.109839 -317.509308 
L 227.941569 -320.548503 
L 216.773299 -318.367083 
L 205.605028 -319.15152 
L 194.436758 -316.668385 
L 183.268488 -317.070171 
L 172.100217 -318.443553 
L 160.931947 -314.633577 
L 149.763677 -318.82828 
L 138.595406 -320.21595 
L 127.427136 -317.655896 
L 116.258866 -315.972616 
L 105.090595 -316.221001 
L 93.922325 -316.398005 
L 82.754055 -315.197106 
L 82.474848 -313.232254 
L 82.195641 -310.352856 
L 81.916435 -314.594349 
L 81.637228 -312.385235 
L 81.358021 -312.719055 
L 81.078814 -312.164943 
L 80.799608 -313.222738 
L 80.520401 -315.458064 
L 80.241194 -315.946636 
L 79.961987 -313.40396 
L 79.682781 -311.74859 
L 79.403574 -309.080095 
L 79.124367 -311.211023 
L 78.84516 -311.78277 
L 78.565954 -313.853937 
L 78.286747 -314.113713 
L 78.00754 -315.700399 
L 77.728333 -312.434925 
L 77.449126 -309.94655 
L 77.16992 -308.042554 
L 76.890713 -313.333867 
L 76.611506 -310.985445 
L 76.332299 -312.973868 
L 76.053093 -313.626027 
L 75.773886 -316.738297 
L 75.494679 -314.453737 
L 75.215472 -310.798375 
L 74.936266 -311.008653 
L 74.657059 -307.754246 
L 74.377852 -305.832751 
L 74.098645 -301.027452 
L 73.819439 -296.928572 
L 73.540232 -300.297915 
L 73.261025 -296.430873 
L 72.981818 -292.938768 
L 72.702612 -297.938032 
L 72.423405 -301.197655 
L 72.144198 -292.52906 
L 71.864991 -300.888509 
L 71.585785 -293.800749 
z
" id="m125eb27b5a" style="stroke:#008000;stroke-opacity:0.5;"/>
    </defs>
    <g clip-path="url(#pbe33667b73)">
     <use style="fill:#008000;fill-opacity:0.5;stroke:#008000;stroke-opacity:0.5;" x="0" xlink:href="#m125eb27b5a" y="473.04"/>
    </g>
   </g>
   <g id="matplotlib.axis_1">
    <g id="xtick_1">
     <g id="line2d_1">
      <defs>
       <path d="M 0 0 
L 0 3.5 
" id="m7a2514416a" style="stroke:#000000;stroke-width:0.8;"/>
      </defs>
      <g>
       <use style="stroke:#000000;stroke-width:0.8;" x="71.585785" xlink:href="#m7a2514416a" y="206.710936"/>
      </g>
     </g>
     <g id="text_1">
      <!-- $\mathdefault{0}$ -->
      <g transform="translate(67.683791 224.780524)scale(0.16 -0.16)">
       <defs>
        <path d="M 42 31.640625 
C 42 37.75 41.90625 48.125 37.703125 56.109375 
C 34 63.109375 28.09375 65.59375 22.90625 65.59375 
C 18.09375 65.59375 12 63.40625 8.203125 56.203125 
C 4.203125 48.71875 3.796875 39.4375 3.796875 31.640625 
C 3.796875 25.953125 3.90625 17.28125 7 9.671875 
C 11.296875 -0.609375 19 -2 22.90625 -2 
C 27.5 -2 34.5 -0.109375 38.59375 9.375 
C 41.59375 16.28125 42 24.359375 42 31.640625 
z
M 22.90625 -0.40625 
C 16.5 -0.40625 12.703125 5.078125 11.296875 12.6875 
C 10.203125 18.5625 10.203125 27.15625 10.203125 32.75 
C 10.203125 40.4375 10.203125 46.828125 11.5 52.921875 
C 13.40625 61.390625 19 64 22.90625 64 
C 27 64 32.296875 61.296875 34.203125 53.125 
C 35.5 47.4375 35.59375 40.734375 35.59375 32.75 
C 35.59375 26.25 35.59375 18.265625 34.40625 12.375 
C 32.296875 1.484375 26.40625 -0.40625 22.90625 -0.40625 
z
" id="CMR17-48"/>
       </defs>
       <use transform="scale(0.996264)" xlink:href="#CMR17-48"/>
      </g>
     </g>
    </g>
    <g id="xtick_2">
     <g id="line2d_2">
      <g>
       <use style="stroke:#000000;stroke-width:0.8;" x="183.268488" xlink:href="#m7a2514416a" y="206.710936"/>
      </g>
     </g>
     <g id="text_2">
      <!-- $\mathdefault{2000}$ -->
      <g transform="translate(167.660514 224.780524)scale(0.16 -0.16)">
       <defs>
        <path d="M 41.703125 15.453125 
L 39.90625 15.453125 
C 38.90625 8.375 38.09375 7.171875 37.703125 6.5625 
C 37.203125 5.765625 30 5.765625 28.59375 5.765625 
L 9.40625 5.765625 
C 13 9.671875 20 16.75 28.5 24.953125 
C 34.59375 30.734375 41.703125 37.53125 41.703125 47.421875 
C 41.703125 59.21875 32.296875 66 21.796875 66 
C 10.796875 66 4.09375 56.3125 4.09375 47.34375 
C 4.09375 43.4375 7 42.9375 8.203125 42.9375 
C 9.203125 42.9375 12.203125 43.546875 12.203125 47.03125 
C 12.203125 50.109375 9.59375 51 8.203125 51 
C 7.59375 51 7 50.90625 6.59375 50.703125 
C 8.5 59.21875 14.296875 63.40625 20.40625 63.40625 
C 29.09375 63.40625 34.796875 56.515625 34.796875 47.421875 
C 34.796875 38.734375 29.703125 31.25 24 24.75 
L 4.09375 2.28125 
L 4.09375 0 
L 39.296875 0 
z
" id="CMR17-50"/>
       </defs>
       <use transform="scale(0.996264)" xlink:href="#CMR17-50"/>
       <use transform="translate(45.690477 0)scale(0.996264)" xlink:href="#CMR17-48"/>
       <use transform="translate(91.380954 0)scale(0.996264)" xlink:href="#CMR17-48"/>
       <use transform="translate(137.071431 0)scale(0.996264)" xlink:href="#CMR17-48"/>
      </g>
     </g>
    </g>
    <g id="xtick_3">
     <g id="line2d_3">
      <g>
       <use style="stroke:#000000;stroke-width:0.8;" x="294.951191" xlink:href="#m7a2514416a" y="206.710936"/>
      </g>
     </g>
     <g id="text_3">
      <!-- $\mathdefault{4000}$ -->
      <g transform="translate(279.343217 224.780524)scale(0.16 -0.16)">
       <defs>
        <path d="M 33.59375 64.40625 
C 33.59375 66.5 33.5 66.5 31.703125 66.5 
L 2 19.59375 
L 2 17 
L 27.796875 17 
L 27.796875 7.140625 
C 27.796875 3.5 27.59375 2.5 20.59375 2.5 
L 18.703125 2.5 
L 18.703125 0 
C 21.90625 0 27.296875 0 30.703125 0 
C 34.09375 0 39.5 0 42.703125 0 
L 42.703125 2.5 
L 40.796875 2.5 
C 33.796875 2.5 33.59375 3.5 33.59375 7.140625 
L 33.59375 17 
L 43.796875 17 
L 43.796875 19.59375 
L 33.59375 19.59375 
z
M 28.09375 57.859375 
L 28.09375 19.59375 
L 4 19.59375 
z
" id="CMR17-52"/>
       </defs>
       <use transform="scale(0.996264)" xlink:href="#CMR17-52"/>
       <use transform="translate(45.690477 0)scale(0.996264)" xlink:href="#CMR17-48"/>
       <use transform="translate(91.380954 0)scale(0.996264)" xlink:href="#CMR17-48"/>
       <use transform="translate(137.071431 0)scale(0.996264)" xlink:href="#CMR17-48"/>
      </g>
     </g>
    </g>
    <g id="xtick_4">
     <g id="line2d_4">
      <g>
       <use style="stroke:#000000;stroke-width:0.8;" x="406.633894" xlink:href="#m7a2514416a" y="206.710936"/>
      </g>
     </g>
     <g id="text_4">
      <!-- $\mathdefault{6000}$ -->
      <g transform="translate(391.02592 224.780524)scale(0.16 -0.16)">
       <defs>
        <path d="M 10.59375 34 
C 10.59375 57.65625 21.796875 63 28.296875 63 
C 30.40625 63 35.5 62.640625 37.5 59 
C 35.90625 59 32.90625 59 32.90625 55.515625 
C 32.90625 52.828125 35.09375 51.921875 36.5 51.921875 
C 37.40625 51.921875 40.09375 52.3125 40.09375 55.625 
C 40.09375 61.78125 35.09375 65.296875 28.203125 65.296875 
C 16.296875 65.296875 3.796875 52.96875 3.796875 31 
C 3.796875 3.953125 15.09375 -2 23.09375 -2 
C 32.796875 -2 42 6.671875 42 20.046875 
C 42 32.515625 33.90625 41.59375 23.703125 41.59375 
C 17.59375 41.59375 13.09375 37.609375 10.59375 30.625 
z
M 23.09375 0.390625 
C 10.796875 0.390625 10.796875 18.75 10.796875 22.4375 
C 10.796875 29.625 14.203125 40 23.5 40 
C 25.203125 40 30.09375 40 33.40625 33.125 
C 35.203125 29.21875 35.203125 25.140625 35.203125 20.140625 
C 35.203125 14.75 35.203125 10.78125 33.09375 6.78125 
C 30.90625 2.671875 27.703125 0.390625 23.09375 0.390625 
z
" id="CMR17-54"/>
       </defs>
       <use transform="scale(0.996264)" xlink:href="#CMR17-54"/>
       <use transform="translate(45.690477 0)scale(0.996264)" xlink:href="#CMR17-48"/>
       <use transform="translate(91.380954 0)scale(0.996264)" xlink:href="#CMR17-48"/>
       <use transform="translate(137.071431 0)scale(0.996264)" xlink:href="#CMR17-48"/>
      </g>
     </g>
    </g>
    <g id="xtick_5">
     <g id="line2d_5">
      <g>
       <use style="stroke:#000000;stroke-width:0.8;" x="518.316597" xlink:href="#m7a2514416a" y="206.710936"/>
      </g>
     </g>
     <g id="text_5">
      <!-- $\mathdefault{8000}$ -->
      <g transform="translate(502.708623 224.780524)scale(0.16 -0.16)">
       <defs>
        <path d="M 27.203125 35.375 
C 33.5 38.546875 39.90625 43.328125 39.90625 50.984375 
C 39.90625 60.015625 31.09375 65.296875 23 65.296875 
C 13.90625 65.296875 5.90625 58.734375 5.90625 49.6875 
C 5.90625 47.203125 6.5 42.921875 10.40625 39.140625 
C 11.40625 38.15625 15.59375 35.171875 18.296875 33.28125 
C 13.796875 30.984375 3.296875 25.53125 3.296875 14.59375 
C 3.296875 4.359375 13.09375 -2 22.796875 -2 
C 33.5 -2 42.5 5.65625 42.5 15.78125 
C 42.5 24.84375 36.40625 29.015625 32.40625 31.703125 
z
M 14.09375 44.09375 
C 13.296875 44.59375 9.296875 47.671875 9.296875 52.359375 
C 9.296875 58.421875 15.59375 63 22.796875 63 
C 30.703125 63 36.5 57.4375 36.5 50.96875 
C 36.5 41.703125 26.09375 36.421875 25.59375 36.421875 
C 25.5 36.421875 25.40625 36.421875 24.59375 37.03125 
z
M 32.5 23.734375 
C 34 22.640625 38.796875 19.375 38.796875 13.296875 
C 38.796875 5.953125 31.40625 0.390625 23 0.390625 
C 13.90625 0.390625 7 6.84375 7 14.6875 
C 7 22.546875 13.09375 29.09375 20 32.1875 
z
" id="CMR17-56"/>
       </defs>
       <use transform="scale(0.996264)" xlink:href="#CMR17-56"/>
       <use transform="translate(45.690477 0)scale(0.996264)" xlink:href="#CMR17-48"/>
       <use transform="translate(91.380954 0)scale(0.996264)" xlink:href="#CMR17-48"/>
       <use transform="translate(137.071431 0)scale(0.996264)" xlink:href="#CMR17-48"/>
      </g>
     </g>
    </g>
    <g id="xtick_6">
     <g id="line2d_6">
      <g>
       <use style="stroke:#000000;stroke-width:0.8;" x="629.9993" xlink:href="#m7a2514416a" y="206.710936"/>
      </g>
     </g>
     <g id="text_6">
      <!-- $\mathdefault{10000}$ -->
      <g transform="translate(610.489332 224.780524)scale(0.16 -0.16)">
       <defs>
        <path d="M 26.59375 63.40625 
C 26.59375 65.5 26.5 65.5 25.09375 65.5 
C 21.203125 61.1875 15.296875 59.796875 9.703125 59.796875 
C 9.40625 59.796875 8.90625 59.796875 8.796875 59.5 
C 8.703125 59.296875 8.703125 59.09375 8.703125 57 
C 11.796875 57 17 57.59375 21 59.984375 
L 21 7.203125 
C 21 3.6875 20.796875 2.5 12.203125 2.5 
L 9.203125 2.5 
L 9.203125 0 
C 14 0 19 0 23.796875 0 
C 28.59375 0 33.59375 0 38.40625 0 
L 38.40625 2.5 
L 35.40625 2.5 
C 26.796875 2.5 26.59375 3.59375 26.59375 7.15625 
z
" id="CMR17-49"/>
       </defs>
       <use transform="scale(0.996264)" xlink:href="#CMR17-49"/>
       <use transform="translate(45.690477 0)scale(0.996264)" xlink:href="#CMR17-48"/>
       <use transform="translate(91.380954 0)scale(0.996264)" xlink:href="#CMR17-48"/>
       <use transform="translate(137.071431 0)scale(0.996264)" xlink:href="#CMR17-48"/>
       <use transform="translate(182.761908 0)scale(0.996264)" xlink:href="#CMR17-48"/>
      </g>
     </g>
    </g>
   </g>
   <g id="matplotlib.axis_2">
    <g id="ytick_1">
     <g id="line2d_7">
      <defs>
       <path d="M 0 0 
L -3.5 0 
" id="m95976f72ab" style="stroke:#000000;stroke-width:0.8;"/>
      </defs>
      <g>
       <use style="stroke:#000000;stroke-width:0.8;" x="44.223522" xlink:href="#m95976f72ab" y="204.492202"/>
      </g>
     </g>
     <g id="text_7">
      <!-- $\mathdefault{0.00}$ -->
      <g transform="translate(9.476013 210.026996)scale(0.16 -0.16)">
       <defs>
        <path d="M 18.40625 4.796875 
C 18.40625 7.6875 16 9.671875 13.59375 9.671875 
C 10.703125 9.671875 8.703125 7.28125 8.703125 4.890625 
C 8.703125 2 11.09375 0 13.5 0 
C 16.40625 0 18.40625 2.390625 18.40625 4.796875 
z
" id="CMMI12-58"/>
       </defs>
       <use transform="scale(0.996264)" xlink:href="#CMR17-48"/>
       <use transform="translate(45.690477 0)scale(0.996264)" xlink:href="#CMMI12-58"/>
       <use transform="translate(72.787654 0)scale(0.996264)" xlink:href="#CMR17-48"/>
       <use transform="translate(118.478131 0)scale(0.996264)" xlink:href="#CMR17-48"/>
      </g>
     </g>
    </g>
    <g id="ytick_2">
     <g id="line2d_8">
      <g>
       <use style="stroke:#000000;stroke-width:0.8;" x="44.223522" xlink:href="#m95976f72ab" y="161.134861"/>
      </g>
     </g>
     <g id="text_8">
      <!-- $\mathdefault{0.25}$ -->
      <g transform="translate(9.476013 166.669655)scale(0.16 -0.16)">
       <defs>
        <path d="M 11.40625 57.6875 
C 12.40625 57.28125 16.5 56 20.703125 56 
C 30 56 35.09375 61.109375 38 64.0625 
C 38 64.953125 38 65.5 37.40625 65.5 
C 37.296875 65.5 37.09375 65.5 36.296875 65.046875 
C 32.796875 63.40625 28.703125 62.078125 23.703125 62.078125 
C 20.703125 62.078125 16.203125 62.484375 11.296875 64.671875 
C 10.203125 65.171875 10 65.171875 9.90625 65.171875 
C 9.40625 65.171875 9.296875 65.0625 9.296875 63.078125 
L 9.296875 34.421875 
C 9.296875 32.640625 9.296875 32.140625 10.296875 32.140625 
C 10.796875 32.140625 11 32.34375 11.5 33.03125 
C 14.703125 37.515625 19.09375 39.40625 24.09375 39.40625 
C 27.59375 39.40625 35.09375 37.21875 35.09375 20.140625 
C 35.09375 16.953125 35.09375 11.171875 32.09375 6.578125 
C 29.59375 2.484375 25.703125 0.390625 21.40625 0.390625 
C 14.796875 0.390625 8.09375 5 6.296875 12.71875 
C 6.703125 12.609375 7.5 12.421875 7.90625 12.421875 
C 9.203125 12.421875 11.703125 13.125 11.703125 16.21875 
C 11.703125 18.90625 9.796875 20 7.90625 20 
C 5.59375 20 4.09375 18.59375 4.09375 15.796875 
C 4.09375 7.09375 11 -2 21.59375 -2 
C 31.90625 -2 41.703125 6.875 41.703125 19.75 
C 41.703125 31.71875 33.90625 41 24.203125 41 
C 19.09375 41 14.796875 39.109375 11.40625 35.53125 
z
" id="CMR17-53"/>
       </defs>
       <use transform="scale(0.996264)" xlink:href="#CMR17-48"/>
       <use transform="translate(45.690477 0)scale(0.996264)" xlink:href="#CMMI12-58"/>
       <use transform="translate(72.787654 0)scale(0.996264)" xlink:href="#CMR17-50"/>
       <use transform="translate(118.478131 0)scale(0.996264)" xlink:href="#CMR17-53"/>
      </g>
     </g>
    </g>
    <g id="ytick_3">
     <g id="line2d_9">
      <g>
       <use style="stroke:#000000;stroke-width:0.8;" x="44.223522" xlink:href="#m95976f72ab" y="117.777521"/>
      </g>
     </g>
     <g id="text_9">
      <!-- $\mathdefault{0.50}$ -->
      <g transform="translate(9.476013 123.312315)scale(0.16 -0.16)">
       <use transform="scale(0.996264)" xlink:href="#CMR17-48"/>
       <use transform="translate(45.690477 0)scale(0.996264)" xlink:href="#CMMI12-58"/>
       <use transform="translate(72.787654 0)scale(0.996264)" xlink:href="#CMR17-53"/>
       <use transform="translate(118.478131 0)scale(0.996264)" xlink:href="#CMR17-48"/>
      </g>
     </g>
    </g>
    <g id="ytick_4">
     <g id="line2d_10">
      <g>
       <use style="stroke:#000000;stroke-width:0.8;" x="44.223522" xlink:href="#m95976f72ab" y="74.42018"/>
      </g>
     </g>
     <g id="text_10">
      <!-- $\mathdefault{0.75}$ -->
      <g transform="translate(9.476013 79.954974)scale(0.16 -0.16)">
       <defs>
        <path d="M 45.09375 61.578125 
L 45.09375 63.765625 
L 21.59375 63.765625 
C 9.90625 63.765625 9.703125 65.078125 9.296875 67 
L 7.5 67 
L 4.59375 48.34375 
L 6.40625 48.34375 
C 6.703125 50.234375 7.40625 55.3125 8.59375 57.203125 
C 9.203125 58 16.59375 58 18.296875 58 
L 40.296875 58 
L 29.203125 41.578125 
C 21.796875 30.53125 16.703125 15.609375 16.703125 2.578125 
C 16.703125 1.390625 16.703125 -2 20.296875 -2 
C 23.90625 -2 23.90625 1.390625 23.90625 2.671875 
L 23.90625 7.265625 
C 23.90625 23.5625 26.703125 34.3125 31.296875 41.1875 
z
" id="CMR17-55"/>
       </defs>
       <use transform="scale(0.996264)" xlink:href="#CMR17-48"/>
       <use transform="translate(45.690477 0)scale(0.996264)" xlink:href="#CMMI12-58"/>
       <use transform="translate(72.787654 0)scale(0.996264)" xlink:href="#CMR17-55"/>
       <use transform="translate(118.478131 0)scale(0.996264)" xlink:href="#CMR17-53"/>
      </g>
     </g>
    </g>
    <g id="ytick_5">
     <g id="line2d_11">
      <g>
       <use style="stroke:#000000;stroke-width:0.8;" x="44.223522" xlink:href="#m95976f72ab" y="31.062839"/>
      </g>
     </g>
     <g id="text_11">
      <!-- $\mathdefault{1.00}$ -->
      <g transform="translate(9.476013 36.597633)scale(0.16 -0.16)">
       <use transform="scale(0.996264)" xlink:href="#CMR17-49"/>
       <use transform="translate(45.690477 0)scale(0.996264)" xlink:href="#CMMI12-58"/>
       <use transform="translate(72.787654 0)scale(0.996264)" xlink:href="#CMR17-48"/>
       <use transform="translate(118.478131 0)scale(0.996264)" xlink:href="#CMR17-48"/>
      </g>
     </g>
    </g>
   </g>
   <g id="line2d_12">
    <path clip-path="url(#pbe33667b73)" d="M 71.585785 48.977362 
L 71.864991 54.568937 
L 72.144198 48.390056 
L 72.423405 52.330235 
L 72.702612 66.524673 
L 72.981818 74.847406 
L 73.261025 74.963793 
L 73.540232 80.526997 
L 73.819439 82.037398 
L 74.098645 75.167742 
L 74.377852 71.764989 
L 74.657059 69.934784 
L 74.936266 71.713234 
L 75.215472 70.420395 
L 75.494679 66.976215 
L 75.773886 66.573217 
L 76.053093 65.331997 
L 76.332299 66.789848 
L 76.611506 67.759369 
L 76.890713 68.869487 
L 77.16992 67.464173 
L 77.449126 65.321065 
L 77.728333 65.175484 
L 78.00754 63.287252 
L 78.286747 63.200133 
L 78.565954 61.590017 
L 78.84516 60.223131 
L 79.124367 62.747527 
L 79.403574 61.408127 
L 79.682781 63.563364 
L 79.961987 61.656601 
L 80.241194 62.668979 
L 80.520401 62.710083 
L 80.799608 61.89698 
L 81.078814 61.639701 
L 81.358021 61.022743 
L 81.637228 60.093612 
L 81.916435 57.862764 
L 82.195641 59.730855 
L 82.474848 59.052674 
L 82.754055 58.651309 
L 93.922325 58.270722 
L 105.090595 60.199793 
L 116.258866 57.265969 
L 127.427136 57.438435 
L 138.595406 53.901771 
L 149.763677 57.391078 
L 160.931947 57.014718 
L 172.100217 50.39615 
L 183.268488 47.024006 
L 194.436758 47.894228 
L 205.605028 47.406715 
L 216.773299 47.540205 
L 227.941569 45.914404 
L 239.109839 46.515835 
L 250.278109 47.292772 
L 261.44638 43.919005 
L 272.61465 43.738083 
L 283.78292 46.538894 
L 294.951191 43.977339 
L 306.119461 43.992255 
L 317.287731 44.1844 
L 328.456002 44.147751 
L 339.624272 44.885797 
L 350.792542 45.289575 
L 361.960813 43.410562 
L 373.129083 43.363614 
L 384.297353 42.010703 
L 395.465623 44.664198 
L 406.633894 43.957291 
L 417.802164 42.978257 
L 428.970434 42.849418 
L 440.138705 41.378935 
L 451.306975 40.951335 
L 462.475245 41.773239 
L 473.643516 42.005835 
L 484.811786 42.421292 
L 495.980056 43.576845 
L 507.148326 42.275953 
L 518.316597 44.08853 
L 529.484867 42.65013 
L 540.653137 42.516016 
L 551.821408 43.770724 
L 562.989678 39.463677 
L 574.157948 42.108644 
L 585.326219 42.709163 
L 596.494489 42.187657 
L 607.662759 42.561794 
L 618.83103 42.80772 
" style="fill:none;stroke:#0000ff;stroke-linecap:square;stroke-width:1.5;"/>
   </g>
   <g id="line2d_13">
    <path clip-path="url(#pbe33667b73)" d="M 71.585785 188.669845 
L 71.864991 183.786683 
L 72.144198 186.231822 
L 72.423405 182.835439 
L 72.702612 182.627582 
L 72.981818 183.870371 
L 73.261025 181.811376 
L 73.540232 181.720766 
L 73.819439 181.181962 
L 74.098645 178.76298 
L 74.377852 175.29853 
L 74.657059 173.254955 
L 74.936266 170.75413 
L 75.215472 171.957315 
L 75.494679 168.731033 
L 75.773886 167.272833 
L 76.053093 169.094501 
L 76.332299 168.922053 
L 76.611506 169.267896 
L 76.890713 167.114093 
L 77.16992 170.25078 
L 77.449126 169.60407 
L 77.728333 167.406492 
L 78.00754 164.565627 
L 78.286747 166.172974 
L 78.565954 165.993179 
L 78.84516 167.645376 
L 79.124367 166.928897 
L 79.403574 167.451344 
L 79.682781 166.121916 
L 79.961987 165.055865 
L 80.241194 163.438508 
L 80.520401 163.01281 
L 80.799608 164.414661 
L 81.078814 165.518468 
L 81.358021 164.831797 
L 81.637228 164.823544 
L 81.916435 163.235623 
L 82.195641 166.612745 
L 82.474848 163.853974 
L 82.754055 162.645346 
L 93.922325 162.523398 
L 105.090595 161.997743 
L 116.258866 162.325507 
L 127.427136 159.551026 
L 138.595406 157.879311 
L 149.763677 159.846192 
L 160.931947 161.569807 
L 172.100217 160.204977 
L 183.268488 160.026042 
L 194.436758 160.412908 
L 205.605028 158.791622 
L 216.773299 158.535785 
L 227.941569 158.618408 
L 239.109839 159.451826 
L 250.278109 159.576187 
L 261.44638 159.287213 
L 272.61465 159.562651 
L 283.78292 160.816667 
L 294.951191 159.60675 
L 306.119461 159.685783 
L 317.287731 159.299554 
L 328.456002 158.466179 
L 339.624272 159.021899 
L 350.792542 158.743703 
L 361.960813 159.104062 
L 373.129083 159.035443 
L 384.297353 160.286166 
L 395.465623 158.701316 
L 406.633894 159.694974 
L 417.802164 159.10998 
L 428.970434 159.577318 
L 440.138705 160.473252 
L 451.306975 158.86533 
L 462.475245 159.133245 
L 473.643516 157.578135 
L 484.811786 157.738158 
L 495.980056 158.248677 
L 507.148326 158.220182 
L 518.316597 157.948699 
L 529.484867 158.766078 
L 540.653137 158.680811 
L 551.821408 159.333507 
L 562.989678 159.595096 
L 574.157948 159.577356 
L 585.326219 158.538068 
L 596.494489 159.427017 
L 607.662759 159.277343 
L 618.83103 159.460421 
" style="fill:none;stroke:#008000;stroke-linecap:square;stroke-width:1.5;"/>
   </g>
   <g id="patch_3">
    <path d="M 44.223522 206.710936 
L 44.223522 17.28 
" style="fill:none;stroke:#000000;stroke-linecap:square;stroke-linejoin:miter;stroke-width:0.8;"/>
   </g>
   <g id="patch_4">
    <path d="M 646.193292 206.710936 
L 646.193292 17.28 
" style="fill:none;stroke:#000000;stroke-linecap:square;stroke-linejoin:miter;stroke-width:0.8;"/>
   </g>
   <g id="patch_5">
    <path d="M 44.223522 206.710936 
L 646.193292 206.710936 
" style="fill:none;stroke:#000000;stroke-linecap:square;stroke-linejoin:miter;stroke-width:0.8;"/>
   </g>
   <g id="patch_6">
    <path d="M 44.223522 17.28 
L 646.193292 17.28 
" style="fill:none;stroke:#000000;stroke-linecap:square;stroke-linejoin:miter;stroke-width:0.8;"/>
   </g>
   <g id="legend_1">
    <g id="patch_7">
     <path d="M 438.228974 140.533687 
L 634.993292 140.533687 
Q 638.193292 140.533687 638.193292 137.333687 
L 638.193292 86.657248 
Q 638.193292 83.457248 634.993292 83.457248 
L 438.228974 83.457248 
Q 435.028974 83.457248 435.028974 86.657248 
L 435.028974 137.333687 
Q 435.028974 140.533687 438.228974 140.533687 
z
" style="fill:#ffffff;opacity:0.8;stroke:#cccccc;stroke-linejoin:miter;"/>
    </g>
    <g id="line2d_14">
     <path d="M 441.428974 98.410412 
L 473.428974 98.410412 
" style="fill:none;stroke:#0000ff;stroke-linecap:square;stroke-width:1.5;"/>
    </g>
    <g id="line2d_15"/>
    <g id="text_12">
     <!-- $\eta(U|\Pi^{(1)})$,CxSOM -->
     <g transform="translate(486.228974 104.010412)scale(0.16 -0.16)">
      <defs>
       <path d="M 47.5 27.625 
C 48 29.609375 48.296875 30.828125 48.296875 33.515625 
C 48.296875 39.5 44.796875 43.984375 37.203125 43.984375 
C 28.296875 43.984375 23.59375 37.703125 21.796875 35.21875 
C 21.5 40.90625 17.40625 43.984375 13 43.984375 
C 10.09375 43.984375 7.796875 42.59375 5.90625 38.796875 
C 4.09375 35.21875 2.703125 29.125 2.703125 28.734375 
C 2.703125 28.328125 3.09375 27.828125 3.796875 27.828125 
C 4.59375 27.828125 4.703125 27.9375 5.296875 30.21875 
C 6.796875 36.109375 8.703125 42 12.703125 42 
C 15 42 15.796875 40.40625 15.796875 37.40625 
C 15.796875 35.21875 14.796875 31.328125 14.09375 28.234375 
L 11.296875 17.46875 
C 10.90625 15.5625 9.796875 11.078125 9.296875 9.265625 
C 8.59375 6.6875 7.5 1.984375 7.5 1.5 
C 7.5 0.09375 8.59375 -1 10.09375 -1 
C 11.296875 -1 12.703125 -0.390625 13.5 1.09375 
C 13.703125 1.59375 14.59375 5.09375 15.09375 7.078125 
L 17.296875 16.0625 
L 20.59375 29.234375 
C 20.796875 29.828125 23.296875 34.8125 27 38 
C 29.59375 40.40625 33 42 36.90625 42 
C 40.90625 42 42.296875 39 42.296875 35.015625 
C 42.296875 32.109375 41.90625 30.515625 41.40625 28.609375 
L 29.796875 -17.296875 
C 29.703125 -17.796875 29.5 -18.390625 29.5 -19 
C 29.5 -20.5 30.703125 -21.5 32.203125 -21.5 
C 33.09375 -21.5 35.203125 -21.09375 36 -18.09375 
z
" id="CMMI12-17"/>
       <path d="M 30.59375 -24.390625 
C 30.59375 -24.296875 30.59375 -24.09375 30.296875 -23.796875 
C 25.703125 -19.125 13.40625 -6.359375 13.40625 24.703125 
C 13.40625 55.765625 25.5 68.421875 30.40625 73.390625 
C 30.40625 73.5 30.59375 73.703125 30.59375 74 
C 30.59375 74.296875 30.296875 74.5 29.90625 74.5 
C 28.796875 74.5 20.296875 67.125 15.40625 56.15625 
C 10.40625 45.109375 9 34.359375 9 24.8125 
C 9 17.625 9.703125 5.484375 15.703125 -7.359375 
C 20.5 -17.734375 28.703125 -25 29.90625 -25 
C 30.40625 -25 30.59375 -24.796875 30.59375 -24.390625 
z
" id="CMR17-40"/>
       <path d="M 50.59375 23.03125 
C 47.09375 9.078125 35.5 0.890625 26.09375 0.890625 
C 18.90625 0.890625 14 5.671875 14 13.921875 
C 14 14.3125 14 17.296875 15.09375 21.671875 
L 24.90625 60.734375 
C 25.796875 64.109375 26 65.109375 33.09375 65.109375 
C 34.90625 65.109375 35.90625 65.109375 35.90625 66.90625 
C 35.90625 68 35 68 34.40625 68 
C 32.59375 68 30.5 68 28.59375 68 
L 16.796875 68 
C 14.90625 68 12.796875 68 10.90625 68 
C 10.203125 68 9 68 9 66.109375 
C 9 65.109375 9.703125 65.109375 11.59375 65.109375 
C 17.59375 65.109375 17.59375 64.3125 17.59375 63.21875 
C 17.59375 62.625 16.90625 59.75 16.40625 58.046875 
L 7.703125 23.25 
C 7.40625 22.15625 6.796875 19.46875 6.796875 16.796875 
C 6.796875 5.84375 14.703125 -2 25.59375 -2 
C 35.703125 -2 46.90625 6 52 18.703125 
C 52.703125 20.390625 53.59375 23.90625 54.203125 26.59375 
C 55.203125 30.203125 57.296875 39 58 41.59375 
L 61.796875 56.609375 
C 63.09375 61.8125 63.90625 65.109375 72.703125 65.109375 
C 73.5 65.203125 73.90625 66 73.90625 66.90625 
C 73.90625 68 73 68 72.59375 68 
C 71.203125 68 69.40625 68 68 68 
L 63.296875 68 
C 57.09375 68 53.90625 68 53.796875 68 
C 53.203125 68 52 68 52 66.109375 
C 52 65.109375 52.796875 65.109375 53.5 65.109375 
C 59.5 65.109375 59.90625 62.8125 59.90625 61.015625 
C 59.90625 60.125 59.90625 59.8125 59.5 58.421875 
z
" id="CMMI12-85"/>
       <path d="M 15.90625 71.40625 
C 15.90625 73.203125 15.90625 75 13.90625 75 
C 11.90625 75 11.90625 73.203125 11.90625 71.40625 
L 11.90625 -21.40625 
C 11.90625 -23.203125 11.90625 -25 13.90625 -25 
C 15.90625 -25 15.90625 -23.203125 15.90625 -21.40625 
z
" id="CMSY10-106"/>
       <path d="M 56.09375 60.90625 
C 56.09375 65.40625 57.203125 65.40625 64.09375 65.40625 
L 64.09375 68 
L 5.09375 68 
L 5.09375 65.40625 
C 12 65.40625 13.09375 65.40625 13.09375 60.90625 
L 13.09375 7 
C 13.09375 2.5 12 2.5 5.09375 2.5 
L 5.09375 0 
C 8 0 13.296875 0 16.40625 0 
C 19.5 0 24.796875 0 27.703125 0 
L 27.703125 2.5 
C 20.796875 2.5 19.703125 2.5 19.703125 7 
L 19.703125 65.40625 
L 49.5 65.40625 
L 49.5 7 
C 49.5 2.5 48.40625 2.5 41.5 2.5 
L 41.5 0 
C 44.40625 0 49.703125 0 52.796875 0 
C 55.90625 0 61.203125 0 64.09375 0 
L 64.09375 2.5 
C 57.203125 2.5 56.09375 2.5 56.09375 7 
z
" id="CMR17-5"/>
       <path d="M 26.296875 24.703125 
C 26.296875 31.875 25.59375 44.015625 19.59375 56.859375 
C 14.796875 67.234375 6.59375 74.5 5.40625 74.5 
C 5.09375 74.5 4.703125 74.390625 4.703125 73.890625 
C 4.703125 73.703125 4.796875 73.59375 4.90625 73.390625 
C 9.703125 68.40625 21.90625 55.75 21.90625 24.75 
C 21.90625 -6.359375 9.796875 -19.015625 4.90625 -24.015625 
C 4.796875 -24.203125 4.703125 -24.3125 4.703125 -24.5 
C 4.703125 -25 5.09375 -25 5.40625 -25 
C 6.5 -25 15 -17.625 19.90625 -6.65625 
C 24.90625 4.390625 26.296875 15.140625 26.296875 24.703125 
z
" id="CMR17-41"/>
       <path d="M 17 0.09375 
L 17 7.96875 
L 9 7.96875 
L 9 0 
L 11.5 0 
L 8.90625 -12.5 
L 12.90625 -12.5 
z
" id="CMSS17-44"/>
       <path d="M 54.703125 11.15625 
C 48 6.671875 44.90625 5.375 36.796875 5.375 
C 22.796875 5.375 14.59375 20.359375 14.59375 34.046875 
C 14.59375 48.625 23 63 37.203125 63 
C 43.59375 63 47.796875 61.21875 52.90625 58.046875 
L 54.296875 65.890625 
C 49.5 68.28125 43.40625 69.375 37.296875 69.375 
C 18.09375 69.375 6.203125 51.8125 6.203125 34.046875 
C 6.203125 14.484375 20.296875 -1 36.296875 -1 
C 44.90625 -1 47.90625 -0.296875 55.296875 4.375 
z
" id="CMSS17-67"/>
       <path d="M 24.796875 22.09375 
L 41.5 42.796875 
L 32.796875 42.796875 
L 21.296875 27.765625 
L 9.40625 42.796875 
L 0.5 42.796875 
L 17.796875 22.09375 
L 0 0 
L 8.796875 0 
L 21.296875 17.515625 
L 34.296875 0 
L 43.09375 0 
z
" id="CMSS17-120"/>
       <path d="M 43.703125 65.140625 
C 39.296875 67.71875 34.5 70 26.40625 70 
C 13.5 70 5.203125 60.609375 5.203125 51.03125 
C 5.203125 47.265625 6.296875 43.015625 10.203125 38.671875 
C 14.09375 34.3125 18.5 33.140625 24.09375 31.765625 
C 26.40625 31.15625 30.296875 30.0625 31 29.78125 
C 36.59375 27.609375 39.296875 22.5625 39.296875 17.8125 
C 39.296875 11.59375 34.40625 4.96875 25.703125 4.96875 
C 22.703125 4.96875 13.90625 4.96875 5.59375 12.796875 
L 4.203125 4.96875 
C 12.40625 -1 21.296875 -2 25.796875 -2 
C 38.09375 -2 46.90625 7.625 46.90625 18.53125 
C 46.90625 22.5 45.703125 27.546875 41.5 32.203125 
C 37.40625 36.671875 33.796875 37.65625 25.59375 39.828125 
C 20.90625 41.03125 17.90625 41.828125 15.40625 44.890625 
C 13.703125 47.078125 12.796875 49.15625 12.796875 51.828125 
C 12.796875 57.390625 17.59375 63.4375 26.40625 63.4375 
C 30.796875 63.4375 36.5 62.53125 42.296875 57.1875 
z
" id="CMSS17-83"/>
       <path d="M 64 34.03125 
C 64 54.734375 50.296875 70.265625 34.59375 70.265625 
C 18.90625 70.265625 5.203125 54.640625 5.203125 34.03125 
C 5.203125 13.234375 19.09375 -2 34.59375 -2 
C 50.09375 -2 64 13.234375 64 34.03125 
z
M 34.59375 4.265625 
C 23.59375 4.265625 13.59375 16.515625 13.59375 35.328125 
C 13.59375 53.640625 24.203125 64 34.59375 64 
C 45 64 55.59375 53.640625 55.59375 35.328125 
C 55.59375 16.421875 45.5 4.265625 34.59375 4.265625 
z
" id="CMSS17-79"/>
       <path d="M 49.90625 37.046875 
L 45.09375 23.015625 
C 44.296875 20.421875 41.59375 12.359375 41 9.171875 
L 40.90625 9.171875 
C 40.59375 11.171875 40 13.265625 38.40625 18.34375 
C 37.5 21.328125 36.5 24.40625 35.5 27.203125 
L 20.703125 69 
L 9 69 
L 9 0 
L 16.796875 0 
L 16.796875 60.9375 
L 16.90625 60.9375 
C 16.90625 60.84375 17.796875 56.453125 23.90625 39.046875 
L 37.09375 1.5 
L 44.5 1.5 
L 56.40625 34.859375 
C 57.203125 37.15625 59.703125 44.421875 60.796875 47.90625 
C 61.796875 50.890625 64.296875 58.25 64.90625 61.140625 
L 65 61.140625 
L 65 0 
L 72.90625 0 
L 72.90625 69 
L 61.296875 69 
z
" id="CMSS17-77"/>
      </defs>
      <use transform="scale(0.996264)" xlink:href="#CMMI12-17"/>
      <use transform="translate(51.703816 0)scale(0.996264)" xlink:href="#CMR17-40"/>
      <use transform="translate(86.984584 0)scale(0.996264)" xlink:href="#CMMI12-85"/>
      <use transform="translate(163.643356 0)scale(0.996264)" xlink:href="#CMSY10-106"/>
      <use transform="translate(191.317441 0)scale(0.996264)" xlink:href="#CMR17-5"/>
      <use transform="translate(260.389871 36.153639)scale(0.697382)" xlink:href="#CMR17-40"/>
      <use transform="translate(285.086291 36.153639)scale(0.697382)" xlink:href="#CMR17-49"/>
      <use transform="translate(317.069473 36.153639)scale(0.697382)" xlink:href="#CMR17-41"/>
      <use transform="translate(342.264026 0)scale(0.996264)" xlink:href="#CMR17-41"/>
      <use transform="translate(377.544794 0)scale(0.996264)" xlink:href="#CMSS17-44"/>
      <use transform="translate(403.568998 0)scale(0.996264)" xlink:href="#CMSS17-67"/>
      <use transform="translate(463.42477 0)scale(0.996264)" xlink:href="#CMSS17-120"/>
      <use transform="translate(506.424912 0)scale(0.996264)" xlink:href="#CMSS17-83"/>
      <use transform="translate(558.473428 0)scale(0.996264)" xlink:href="#CMSS17-79"/>
      <use transform="translate(627.497683 0)scale(0.996264)" xlink:href="#CMSS17-77"/>
     </g>
    </g>
    <g id="line2d_16">
     <path d="M 441.428974 124.548631 
L 473.428974 124.548631 
" style="fill:none;stroke:#008000;stroke-linecap:square;stroke-width:1.5;"/>
    </g>
    <g id="line2d_17"/>
    <g id="text_13">
     <!-- $\eta(U|\Pi^{(1)})$,carte simple -->
     <g transform="translate(486.228974 130.148631)scale(0.16 -0.16)">
      <defs>
       <path d="M 38.5 39.703125 
C 38.5 40.390625 33.90625 42.40625 32.703125 42.796875 
C 29.40625 44 25.203125 44 24.09375 44 
C 11.09375 44 3.296875 32.703125 3.296875 21.296875 
C 3.296875 9.296875 12 -1 23.703125 -1 
C 30.40625 -1 35.203125 1.1875 39.09375 3.78125 
L 38.5 10.375 
C 34.203125 7.078125 29.203125 5.265625 23.796875 5.265625 
C 16 5.265625 10.90625 12.09375 10.90625 21.390625 
C 10.90625 28.609375 14.203125 37.71875 24.203125 37.71875 
C 29.703125 37.71875 32.796875 36.609375 37.40625 33.515625 
z
" id="CMSS17-99"/>
       <path d="M 37.59375 27.984375 
C 37.59375 37.375 30.90625 43.875 21.90625 43.875 
C 17.5 43.875 12.703125 43.078125 7.203125 39.890625 
L 7.796875 33.359375 
C 10.296875 35.125 14.59375 38 21.796875 38 
C 26.90625 38 30 34.0625 30 27.84375 
L 30 24 
C 14 24 4 19.34375 4 11.34375 
C 4 7.203125 6.5 -1 14.796875 -1 
C 16.296875 -1 24.40625 -1 30.203125 3.390625 
L 30.203125 -0.296875 
L 37.59375 -0.296875 
z
M 30 12.75 
C 30 10.953125 30 8.5625 27 6.78125 
C 24.40625 5.078125 21.09375 5.078125 19.703125 5.078125 
C 14.703125 5.078125 11.296875 7.984375 11.296875 11.625 
C 11.296875 18.921875 26.90625 18.921875 30 18.921875 
z
" id="CMSS17-97"/>
       <path d="M 14.90625 21.296875 
C 14.90625 30.703125 21.796875 37 30.59375 37 
L 30.59375 43.578125 
C 24.203125 43.578125 18.203125 40.390625 14.59375 35.203125 
L 14.59375 43.09375 
L 7.5 43.09375 
L 7.5 0 
L 14.90625 0 
z
" id="CMSS17-114"/>
       <path d="M 16.703125 37 
L 29.703125 37 
L 29.703125 42.765625 
L 16.703125 42.765625 
L 16.703125 55 
L 9.59375 55 
L 9.59375 42.765625 
L 1.703125 42.765625 
L 1.703125 37 
L 9.40625 37 
L 9.40625 11.703125 
C 9.40625 6 10.703125 -1 17.296875 -1 
C 22.296875 -1 26.90625 0.390625 31.296875 2.6875 
L 29.703125 8.5625 
C 27.296875 6.46875 24.40625 5.265625 21.296875 5.265625 
C 16.90625 5.265625 16.703125 10.875 16.703125 13.375 
z
" id="CMSS17-116"/>
       <path d="M 39.09375 21.515625 
C 39.09375 24.84375 38.90625 31.296875 35.703125 36.640625 
C 32.203125 42.390625 26.5 44 22.203125 44 
C 11.796875 44 3 34.1875 3 21.484375 
C 3 9.09375 12.09375 -1 23.59375 -1 
C 28.09375 -1 33.59375 0.296875 38.59375 3.875 
C 38.59375 4.28125 38.40625 6.46875 38.296875 6.5625 
C 38.296875 6.765625 38 9.84375 38 10.25 
C 33.203125 6.359375 27.703125 5.078125 23.703125 5.078125 
C 17.296875 5.078125 10.40625 10.421875 10.09375 21.515625 
z
M 10.90625 27 
C 12.203125 32.5625 16.59375 37.828125 22.203125 37.828125 
C 23.703125 37.828125 30.703125 37.828125 32.5 27 
z
" id="CMSS17-101"/>
       <path d="M 32.203125 41.046875 
C 26.296875 43.859375 21.703125 43.859375 18.703125 43.859375 
C 11.59375 43.859375 3.09375 41.375 3.09375 31.296875 
C 3.09375 21.234375 14.09375 19.03125 17.09375 18.421875 
C 21.703125 17.53125 26.796875 16.53125 26.796875 11.5625 
C 26.796875 5.265625 19.59375 5.265625 18.296875 5.265625 
C 14.296875 5.265625 8.796875 6.359375 3.796875 9.96875 
L 2.59375 3.28125 
C 8.296875 0 13.796875 -1 18.40625 -1 
C 30.703125 -1 33.796875 6.5 33.796875 12.203125 
C 33.796875 17.09375 31 20.390625 29.09375 21.890625 
C 25.796875 24.5 24.59375 24.796875 16.40625 26.5 
C 15 26.703125 10.09375 27.796875 10.09375 32.28125 
C 10.09375 38 16.40625 38 17.796875 38 
C 24.296875 38 28.296875 35.984375 31 34.5 
z
" id="CMSS17-115"/>
       <path d="M 15.296875 65.359375 
L 6.90625 65.359375 
L 6.90625 57 
L 15.296875 57 
z
M 14.796875 42.796875 
L 7.40625 42.796875 
L 7.40625 0 
L 14.796875 0 
z
" id="CMSS17-105"/>
       <path d="M 67 29.328125 
C 67 36.0625 65.296875 44 54.09375 44 
C 46.59375 44 42.09375 39.3125 40.09375 36.421875 
C 38.296875 41.71875 34.09375 44 28.09375 44 
C 21.296875 44 17 40.125 14.703125 37.328125 
L 14.703125 43.09375 
L 7.40625 43.09375 
L 7.40625 0 
L 15 0 
L 15 24.359375 
C 15 30.296875 17.203125 37.9375 24.296875 37.9375 
C 33.40625 37.9375 33.40625 31.5 33.40625 28.578125 
L 33.40625 0 
L 41 0 
L 41 24.359375 
C 41 30.296875 43.203125 37.9375 50.296875 37.9375 
C 59.40625 37.9375 59.40625 31.5 59.40625 28.578125 
L 59.40625 0 
L 67 0 
z
" id="CMSS17-109"/>
       <path d="M 15.09375 5.203125 
C 18.40625 2.015625 22.90625 -0.078125 27.703125 -0.078125 
C 37 -0.078125 45 9.421875 45 22.0625 
C 45 33.734375 39 44 30.40625 44 
C 25.40625 44 19.40625 42.21875 14.90625 38.625 
L 14.90625 43.203125 
L 7.5 43.203125 
L 7.5 -19 
L 15.09375 -19 
z
M 15.09375 32.8125 
C 15.90625 34 19.296875 37.734375 24.796875 37.734375 
C 31.796875 37.734375 37.40625 30.625 37.40625 22.0625 
C 37.40625 12.296875 30.59375 6 23.90625 6 
C 21.90625 6 19.796875 6.484375 17.796875 8.171875 
C 15.09375 10.53125 15.09375 12 15.09375 13.390625 
z
" id="CMSS17-112"/>
       <path d="M 14.796875 69 
L 7.40625 69 
L 7.40625 0 
L 14.796875 0 
z
" id="CMSS17-108"/>
      </defs>
      <use transform="scale(0.996264)" xlink:href="#CMMI12-17"/>
      <use transform="translate(51.703816 0)scale(0.996264)" xlink:href="#CMR17-40"/>
      <use transform="translate(86.984584 0)scale(0.996264)" xlink:href="#CMMI12-85"/>
      <use transform="translate(163.643356 0)scale(0.996264)" xlink:href="#CMSY10-106"/>
      <use transform="translate(191.317441 0)scale(0.996264)" xlink:href="#CMR17-5"/>
      <use transform="translate(260.389871 36.153639)scale(0.697382)" xlink:href="#CMR17-40"/>
      <use transform="translate(285.086291 36.153639)scale(0.697382)" xlink:href="#CMR17-49"/>
      <use transform="translate(317.069473 36.153639)scale(0.697382)" xlink:href="#CMR17-41"/>
      <use transform="translate(342.264026 0)scale(0.996264)" xlink:href="#CMR17-41"/>
      <use transform="translate(377.544794 0)scale(0.996264)" xlink:href="#CMSS17-44"/>
      <use transform="translate(403.568998 0)scale(0.996264)" xlink:href="#CMSS17-99"/>
      <use transform="translate(445.207821 0)scale(0.996264)" xlink:href="#CMSS17-97"/>
      <use transform="translate(487.527287 0)scale(0.996264)" xlink:href="#CMSS17-114"/>
      <use transform="translate(519.43706 0)scale(0.996264)" xlink:href="#CMSS17-116"/>
      <use transform="translate(553.268626 0)scale(0.996264)" xlink:href="#CMSS17-101"/>
      <use transform="translate(626.136561 0)scale(0.996264)" xlink:href="#CMSS17-115"/>
      <use transform="translate(662.050103 0)scale(0.996264)" xlink:href="#CMSS17-105"/>
      <use transform="translate(684.230826 0)scale(0.996264)" xlink:href="#CMSS17-109"/>
      <use transform="translate(758.460081 0)scale(0.996264)" xlink:href="#CMSS17-112"/>
      <use transform="translate(806.665024 0)scale(0.996264)" xlink:href="#CMSS17-108"/>
      <use transform="translate(828.845747 0)scale(0.996264)" xlink:href="#CMSS17-101"/>
     </g>
    </g>
   </g>
  </g>
  <g id="axes_2">
   <g id="patch_8">
    <path d="M 44.223522 434.590936 
L 646.193292 434.590936 
L 646.193292 245.16 
L 44.223522 245.16 
z
" style="fill:#ffffff;"/>
   </g>
   <g id="PolyCollection_3">
    <defs>
     <path d="M 71.585785 -192.752777 
L 71.585785 -105.54623 
L 71.864991 -83.80946 
L 72.144198 -112.073319 
L 72.423405 -112.821565 
L 72.702612 -82.940279 
L 72.981818 -119.381993 
L 73.261025 -113.676819 
L 73.540232 -101.491703 
L 73.819439 -109.574361 
L 74.098645 -91.113799 
L 74.377852 -90.070027 
L 74.657059 -91.640436 
L 74.936266 -78.955276 
L 75.215472 -87.048802 
L 75.494679 -85.774956 
L 75.773886 -85.473049 
L 76.053093 -95.740223 
L 76.332299 -91.709269 
L 76.611506 -89.685635 
L 76.890713 -92.567133 
L 77.16992 -107.81051 
L 77.449126 -100.964366 
L 77.728333 -104.84125 
L 78.00754 -106.061757 
L 78.286747 -113.415939 
L 78.565954 -105.299929 
L 78.84516 -108.688281 
L 79.124367 -114.336938 
L 79.403574 -107.870846 
L 79.682781 -113.421426 
L 79.961987 -113.671518 
L 80.241194 -120.660932 
L 80.520401 -107.193692 
L 80.799608 -107.332884 
L 81.078814 -114.568388 
L 81.358021 -116.268158 
L 81.637228 -114.588121 
L 81.916435 -113.043814 
L 82.195641 -116.582513 
L 82.474848 -117.746325 
L 82.754055 -121.881667 
L 93.922325 -127.154626 
L 105.090595 -131.499413 
L 116.258866 -134.666849 
L 127.427136 -138.420412 
L 138.595406 -136.235893 
L 149.763677 -135.123917 
L 160.931947 -118.682743 
L 172.100217 -123.634819 
L 183.268488 -116.43156 
L 194.436758 -115.626179 
L 205.605028 -116.485153 
L 216.773299 -109.820874 
L 227.941569 -121.593097 
L 239.109839 -110.73027 
L 250.278109 -120.550763 
L 261.44638 -136.748168 
L 272.61465 -140.963365 
L 283.78292 -142.660483 
L 294.951191 -147.709325 
L 306.119461 -149.731976 
L 317.287731 -142.677594 
L 328.456002 -132.604866 
L 339.624272 -140.31281 
L 350.792542 -133.537826 
L 361.960813 -149.849008 
L 373.129083 -147.059851 
L 384.297353 -144.667334 
L 395.465623 -140.016131 
L 406.633894 -141.369068 
L 417.802164 -147.418929 
L 428.970434 -139.568878 
L 440.138705 -142.862419 
L 451.306975 -146.60288 
L 462.475245 -150.839818 
L 473.643516 -150.324017 
L 484.811786 -144.724397 
L 495.980056 -147.457871 
L 507.148326 -142.565633 
L 518.316597 -139.685046 
L 529.484867 -145.961943 
L 540.653137 -149.172965 
L 551.821408 -139.119032 
L 562.989678 -144.820811 
L 574.157948 -141.051783 
L 585.326219 -136.016963 
L 596.494489 -136.140392 
L 607.662759 -135.943832 
L 618.83103 -141.922888 
L 618.83103 -183.182806 
L 618.83103 -183.182806 
L 607.662759 -180.742512 
L 596.494489 -184.727875 
L 585.326219 -178.090395 
L 574.157948 -181.307459 
L 562.989678 -183.987093 
L 551.821408 -185.717403 
L 540.653137 -177.471388 
L 529.484867 -177.111717 
L 518.316597 -171.903833 
L 507.148326 -184.049442 
L 495.980056 -180.637713 
L 484.811786 -175.687566 
L 473.643516 -177.866104 
L 462.475245 -178.236719 
L 451.306975 -178.031186 
L 440.138705 -180.888068 
L 428.970434 -178.599352 
L 417.802164 -170.964971 
L 406.633894 -174.261187 
L 395.465623 -170.71976 
L 384.297353 -179.248627 
L 373.129083 -171.897917 
L 361.960813 -177.987906 
L 350.792542 -182.66359 
L 339.624272 -170.138613 
L 328.456002 -175.672133 
L 317.287731 -180.832002 
L 306.119461 -180.016836 
L 294.951191 -171.969441 
L 283.78292 -172.29453 
L 272.61465 -172.825666 
L 261.44638 -162.686989 
L 250.278109 -168.844587 
L 239.109839 -169.440702 
L 227.941569 -162.759421 
L 216.773299 -162.431334 
L 205.605028 -175.238197 
L 194.436758 -178.256213 
L 183.268488 -174.267479 
L 172.100217 -178.011866 
L 160.931947 -174.884845 
L 149.763677 -181.35101 
L 138.595406 -182.864759 
L 127.427136 -197.20923 
L 116.258866 -174.174182 
L 105.090595 -181.854316 
L 93.922325 -171.817339 
L 82.754055 -173.951159 
L 82.474848 -168.665076 
L 82.195641 -168.535503 
L 81.916435 -171.19366 
L 81.637228 -171.364893 
L 81.358021 -172.868211 
L 81.078814 -171.552937 
L 80.799608 -176.466833 
L 80.520401 -170.5408 
L 80.241194 -162.254728 
L 79.961987 -165.164562 
L 79.682781 -172.560536 
L 79.403574 -170.307273 
L 79.124367 -180.944825 
L 78.84516 -175.830321 
L 78.565954 -174.63565 
L 78.286747 -167.541011 
L 78.00754 -161.054936 
L 77.728333 -157.66858 
L 77.449126 -158.798992 
L 77.16992 -161.656656 
L 76.890713 -158.84431 
L 76.611506 -168.181616 
L 76.332299 -166.829002 
L 76.053093 -150.907634 
L 75.773886 -169.598044 
L 75.494679 -166.072813 
L 75.215472 -178.69946 
L 74.936266 -181.925165 
L 74.657059 -167.670273 
L 74.377852 -175.298692 
L 74.098645 -171.844042 
L 73.819439 -171.877621 
L 73.540232 -171.411049 
L 73.261025 -184.406536 
L 72.981818 -166.556979 
L 72.702612 -184.611145 
L 72.423405 -190.741988 
L 72.144198 -219.269503 
L 71.864991 -200.868095 
L 71.585785 -192.752777 
z
" id="m0d535630f1" style="stroke:#ff0000;stroke-opacity:0.5;"/>
    </defs>
    <g clip-path="url(#p8a1d7ec029)">
     <use style="fill:#ff0000;fill-opacity:0.5;stroke:#ff0000;stroke-opacity:0.5;" x="0" xlink:href="#m0d535630f1" y="473.04"/>
    </g>
   </g>
   <g id="PolyCollection_4">
    <defs>
     <path d="M 71.585785 -86.876063 
L 71.585785 -65.904583 
L 71.864991 -64.622056 
L 72.144198 -63.439144 
L 72.423405 -61.662547 
L 72.702612 -50.297232 
L 72.981818 -47.582858 
L 73.261025 -69.711345 
L 73.540232 -69.935741 
L 73.819439 -61.5162 
L 74.098645 -66.191337 
L 74.377852 -67.286628 
L 74.657059 -64.862183 
L 74.936266 -49.020799 
L 75.215472 -57.271611 
L 75.494679 -55.080418 
L 75.773886 -51.233438 
L 76.053093 -48.755516 
L 76.332299 -47.059562 
L 76.611506 -53.123572 
L 76.890713 -69.520198 
L 77.16992 -68.81728 
L 77.449126 -65.572797 
L 77.728333 -73.887654 
L 78.00754 -73.221263 
L 78.286747 -73.402107 
L 78.565954 -75.815393 
L 78.84516 -81.044937 
L 79.124367 -85.648991 
L 79.403574 -85.864004 
L 79.682781 -83.050423 
L 79.961987 -86.410974 
L 80.241194 -87.362835 
L 80.520401 -87.740196 
L 80.799608 -87.967624 
L 81.078814 -87.784093 
L 81.358021 -88.822357 
L 81.637228 -84.809411 
L 81.916435 -85.952425 
L 82.195641 -85.860205 
L 82.474848 -85.220706 
L 82.754055 -86.616274 
L 93.922325 -87.434707 
L 105.090595 -91.643784 
L 116.258866 -91.869403 
L 127.427136 -89.966 
L 138.595406 -89.539778 
L 149.763677 -90.505501 
L 160.931947 -88.781611 
L 172.100217 -89.304224 
L 183.268488 -90.637487 
L 194.436758 -90.226094 
L 205.605028 -91.422506 
L 216.773299 -92.034259 
L 227.941569 -92.591135 
L 239.109839 -93.121625 
L 250.278109 -93.825115 
L 261.44638 -92.652199 
L 272.61465 -94.097915 
L 283.78292 -93.47441 
L 294.951191 -94.201809 
L 306.119461 -94.708967 
L 317.287731 -94.57091 
L 328.456002 -93.878327 
L 339.624272 -94.942051 
L 350.792542 -94.815779 
L 361.960813 -94.028956 
L 373.129083 -93.7375 
L 384.297353 -94.309325 
L 395.465623 -93.711457 
L 406.633894 -94.059773 
L 417.802164 -93.939449 
L 428.970434 -94.471984 
L 440.138705 -94.322988 
L 451.306975 -93.755941 
L 462.475245 -93.550931 
L 473.643516 -94.825734 
L 484.811786 -93.579396 
L 495.980056 -94.823156 
L 507.148326 -94.781559 
L 518.316597 -93.842203 
L 529.484867 -93.629068 
L 540.653137 -93.615225 
L 551.821408 -94.332175 
L 562.989678 -95.233442 
L 574.157948 -93.633888 
L 585.326219 -94.152243 
L 596.494489 -94.376312 
L 607.662759 -94.112221 
L 618.83103 -94.591962 
L 618.83103 -97.76248 
L 618.83103 -97.76248 
L 607.662759 -97.841228 
L 596.494489 -98.356868 
L 585.326219 -99.393234 
L 574.157948 -97.632353 
L 562.989678 -98.434471 
L 551.821408 -98.080261 
L 540.653137 -98.592462 
L 529.484867 -97.76977 
L 518.316597 -98.985994 
L 507.148326 -98.802399 
L 495.980056 -98.604838 
L 484.811786 -98.372288 
L 473.643516 -97.411245 
L 462.475245 -97.58945 
L 451.306975 -97.825921 
L 440.138705 -97.282765 
L 428.970434 -97.931335 
L 417.802164 -98.222567 
L 406.633894 -97.564162 
L 395.465623 -97.934908 
L 384.297353 -97.914998 
L 373.129083 -97.198605 
L 361.960813 -96.893595 
L 350.792542 -97.570011 
L 339.624272 -99.24249 
L 328.456002 -98.144354 
L 317.287731 -98.356112 
L 306.119461 -97.28457 
L 294.951191 -98.128447 
L 283.78292 -96.883512 
L 272.61465 -97.901541 
L 261.44638 -98.42632 
L 250.278109 -99.456732 
L 239.109839 -98.244269 
L 227.941569 -96.965818 
L 216.773299 -98.100597 
L 205.605028 -99.208737 
L 194.436758 -98.764005 
L 183.268488 -97.963462 
L 172.100217 -97.88508 
L 160.931947 -98.842229 
L 149.763677 -96.858318 
L 138.595406 -95.78045 
L 127.427136 -96.151821 
L 116.258866 -97.18836 
L 105.090595 -97.018529 
L 93.922325 -96.920399 
L 82.754055 -97.880427 
L 82.474848 -96.267894 
L 82.195641 -97.725514 
L 81.916435 -96.637937 
L 81.637228 -97.7262 
L 81.358021 -97.277658 
L 81.078814 -95.659801 
L 80.799608 -96.793474 
L 80.520401 -96.19843 
L 80.241194 -95.587948 
L 79.961987 -95.797792 
L 79.682781 -93.928072 
L 79.403574 -94.585221 
L 79.124367 -94.230035 
L 78.84516 -93.768862 
L 78.565954 -95.729694 
L 78.286747 -96.449241 
L 78.00754 -98.876756 
L 77.728333 -97.924001 
L 77.449126 -101.269266 
L 77.16992 -95.328223 
L 76.890713 -94.250487 
L 76.611506 -94.531882 
L 76.332299 -95.703978 
L 76.053093 -93.786146 
L 75.773886 -93.731557 
L 75.494679 -89.583342 
L 75.215472 -91.965125 
L 74.936266 -94.516641 
L 74.657059 -103.687719 
L 74.377852 -96.465641 
L 74.098645 -93.587368 
L 73.819439 -94.656549 
L 73.540232 -96.40869 
L 73.261025 -91.250218 
L 72.981818 -81.43124 
L 72.702612 -81.646633 
L 72.423405 -85.884807 
L 72.144198 -88.092789 
L 71.864991 -84.933662 
L 71.585785 -86.876063 
z
" id="m21f1fa98b7" style="stroke:#000000;stroke-opacity:0.5;"/>
    </defs>
    <g clip-path="url(#p8a1d7ec029)">
     <use style="fill-opacity:0.5;stroke:#000000;stroke-opacity:0.5;" x="0" xlink:href="#m21f1fa98b7" y="473.04"/>
    </g>
   </g>
   <g id="matplotlib.axis_3">
    <g id="xtick_7">
     <g id="line2d_18">
      <g>
       <use style="stroke:#000000;stroke-width:0.8;" x="71.585785" xlink:href="#m7a2514416a" y="434.590936"/>
      </g>
     </g>
     <g id="text_14">
      <!-- $\mathdefault{0}$ -->
      <g transform="translate(67.683791 452.660524)scale(0.16 -0.16)">
       <use transform="scale(0.996264)" xlink:href="#CMR17-48"/>
      </g>
     </g>
    </g>
    <g id="xtick_8">
     <g id="line2d_19">
      <g>
       <use style="stroke:#000000;stroke-width:0.8;" x="183.268488" xlink:href="#m7a2514416a" y="434.590936"/>
      </g>
     </g>
     <g id="text_15">
      <!-- $\mathdefault{2000}$ -->
      <g transform="translate(167.660514 452.660524)scale(0.16 -0.16)">
       <use transform="scale(0.996264)" xlink:href="#CMR17-50"/>
       <use transform="translate(45.690477 0)scale(0.996264)" xlink:href="#CMR17-48"/>
       <use transform="translate(91.380954 0)scale(0.996264)" xlink:href="#CMR17-48"/>
       <use transform="translate(137.071431 0)scale(0.996264)" xlink:href="#CMR17-48"/>
      </g>
     </g>
    </g>
    <g id="xtick_9">
     <g id="line2d_20">
      <g>
       <use style="stroke:#000000;stroke-width:0.8;" x="294.951191" xlink:href="#m7a2514416a" y="434.590936"/>
      </g>
     </g>
     <g id="text_16">
      <!-- $\mathdefault{4000}$ -->
      <g transform="translate(279.343217 452.660524)scale(0.16 -0.16)">
       <use transform="scale(0.996264)" xlink:href="#CMR17-52"/>
       <use transform="translate(45.690477 0)scale(0.996264)" xlink:href="#CMR17-48"/>
       <use transform="translate(91.380954 0)scale(0.996264)" xlink:href="#CMR17-48"/>
       <use transform="translate(137.071431 0)scale(0.996264)" xlink:href="#CMR17-48"/>
      </g>
     </g>
    </g>
    <g id="xtick_10">
     <g id="line2d_21">
      <g>
       <use style="stroke:#000000;stroke-width:0.8;" x="406.633894" xlink:href="#m7a2514416a" y="434.590936"/>
      </g>
     </g>
     <g id="text_17">
      <!-- $\mathdefault{6000}$ -->
      <g transform="translate(391.02592 452.660524)scale(0.16 -0.16)">
       <use transform="scale(0.996264)" xlink:href="#CMR17-54"/>
       <use transform="translate(45.690477 0)scale(0.996264)" xlink:href="#CMR17-48"/>
       <use transform="translate(91.380954 0)scale(0.996264)" xlink:href="#CMR17-48"/>
       <use transform="translate(137.071431 0)scale(0.996264)" xlink:href="#CMR17-48"/>
      </g>
     </g>
    </g>
    <g id="xtick_11">
     <g id="line2d_22">
      <g>
       <use style="stroke:#000000;stroke-width:0.8;" x="518.316597" xlink:href="#m7a2514416a" y="434.590936"/>
      </g>
     </g>
     <g id="text_18">
      <!-- $\mathdefault{8000}$ -->
      <g transform="translate(502.708623 452.660524)scale(0.16 -0.16)">
       <use transform="scale(0.996264)" xlink:href="#CMR17-56"/>
       <use transform="translate(45.690477 0)scale(0.996264)" xlink:href="#CMR17-48"/>
       <use transform="translate(91.380954 0)scale(0.996264)" xlink:href="#CMR17-48"/>
       <use transform="translate(137.071431 0)scale(0.996264)" xlink:href="#CMR17-48"/>
      </g>
     </g>
    </g>
    <g id="xtick_12">
     <g id="line2d_23">
      <g>
       <use style="stroke:#000000;stroke-width:0.8;" x="629.9993" xlink:href="#m7a2514416a" y="434.590936"/>
      </g>
     </g>
     <g id="text_19">
      <!-- $\mathdefault{10000}$ -->
      <g transform="translate(610.489332 452.660524)scale(0.16 -0.16)">
       <use transform="scale(0.996264)" xlink:href="#CMR17-49"/>
       <use transform="translate(45.690477 0)scale(0.996264)" xlink:href="#CMR17-48"/>
       <use transform="translate(91.380954 0)scale(0.996264)" xlink:href="#CMR17-48"/>
       <use transform="translate(137.071431 0)scale(0.996264)" xlink:href="#CMR17-48"/>
       <use transform="translate(182.761908 0)scale(0.996264)" xlink:href="#CMR17-48"/>
      </g>
     </g>
    </g>
   </g>
   <g id="matplotlib.axis_4">
    <g id="ytick_6">
     <g id="line2d_24">
      <g>
       <use style="stroke:#000000;stroke-width:0.8;" x="44.223522" xlink:href="#m95976f72ab" y="414.563217"/>
      </g>
     </g>
     <g id="text_20">
      <!-- $\mathdefault{0.8}$ -->
      <g transform="translate(17.28 420.098011)scale(0.16 -0.16)">
       <use transform="scale(0.996264)" xlink:href="#CMR17-48"/>
       <use transform="translate(45.690477 0)scale(0.996264)" xlink:href="#CMMI12-58"/>
       <use transform="translate(72.787654 0)scale(0.996264)" xlink:href="#CMR17-56"/>
      </g>
     </g>
    </g>
    <g id="ytick_7">
     <g id="line2d_25">
      <g>
       <use style="stroke:#000000;stroke-width:0.8;" x="44.223522" xlink:href="#m95976f72ab" y="368.094971"/>
      </g>
     </g>
     <g id="text_21">
      <!-- $\mathdefault{0.9}$ -->
      <g transform="translate(17.28 373.629765)scale(0.16 -0.16)">
       <defs>
        <path d="M 35.203125 29.125 
C 35.203125 7.25 26.09375 0.484375 18.59375 0.484375 
C 16.296875 0.484375 10.703125 0.484375 8.40625 4.59375 
C 11 4.1875 12.90625 5.578125 12.90625 8.09375 
C 12.90625 10.8125 10.703125 11.703125 9.296875 11.703125 
C 8.40625 11.703125 5.703125 11.296875 5.703125 7.90625 
C 5.703125 1.109375 11.59375 -2 18.796875 -2 
C 30.296875 -2 42 10.53125 42 32.390625 
C 42 59.640625 30.796875 65.296875 23.203125 65.296875 
C 13.296875 65.296875 3.796875 56.6875 3.796875 43.40625 
C 3.796875 31.109375 11.90625 22 22.09375 22 
C 30.5 22 34.203125 29.734375 35.203125 33 
z
M 22.296875 23.59375 
C 19.59375 23.59375 15.796875 24.09375 12.703125 30.03125 
C 10.59375 33.890625 10.59375 38.453125 10.59375 43.296875 
C 10.59375 49.15625 10.59375 53.203125 13.40625 57.5625 
C 14.796875 59.640625 17.40625 63 23.203125 63 
C 35 63 35 45.078125 35 41.125 
C 35 34.09375 31.796875 23.59375 22.296875 23.59375 
z
" id="CMR17-57"/>
       </defs>
       <use transform="scale(0.996264)" xlink:href="#CMR17-48"/>
       <use transform="translate(45.690477 0)scale(0.996264)" xlink:href="#CMMI12-58"/>
       <use transform="translate(72.787654 0)scale(0.996264)" xlink:href="#CMR17-57"/>
      </g>
     </g>
    </g>
    <g id="ytick_8">
     <g id="line2d_26">
      <g>
       <use style="stroke:#000000;stroke-width:0.8;" x="44.223522" xlink:href="#m95976f72ab" y="321.626725"/>
      </g>
     </g>
     <g id="text_22">
      <!-- $\mathdefault{1.0}$ -->
      <g transform="translate(17.28 327.161519)scale(0.16 -0.16)">
       <use transform="scale(0.996264)" xlink:href="#CMR17-49"/>
       <use transform="translate(45.690477 0)scale(0.996264)" xlink:href="#CMMI12-58"/>
       <use transform="translate(72.787654 0)scale(0.996264)" xlink:href="#CMR17-48"/>
      </g>
     </g>
    </g>
    <g id="ytick_9">
     <g id="line2d_27">
      <g>
       <use style="stroke:#000000;stroke-width:0.8;" x="44.223522" xlink:href="#m95976f72ab" y="275.158479"/>
      </g>
     </g>
     <g id="text_23">
      <!-- $\mathdefault{1.1}$ -->
      <g transform="translate(17.28 280.693273)scale(0.16 -0.16)">
       <use transform="scale(0.996264)" xlink:href="#CMR17-49"/>
       <use transform="translate(45.690477 0)scale(0.996264)" xlink:href="#CMMI12-58"/>
       <use transform="translate(72.787654 0)scale(0.996264)" xlink:href="#CMR17-49"/>
      </g>
     </g>
    </g>
   </g>
   <g id="line2d_28">
    <path clip-path="url(#p8a1d7ec029)" d="M 71.585785 323.890496 
L 71.864991 330.701223 
L 72.144198 307.368589 
L 72.423405 321.258223 
L 72.702612 339.264288 
L 72.981818 330.070514 
L 73.261025 323.998323 
L 73.540232 336.588624 
L 73.819439 332.314009 
L 74.098645 341.561079 
L 74.377852 340.355641 
L 74.657059 343.384645 
L 74.936266 342.59978 
L 75.215472 340.165869 
L 75.494679 347.116115 
L 75.773886 345.504453 
L 76.053093 349.716072 
L 76.332299 343.770864 
L 76.611506 344.106375 
L 76.890713 347.334278 
L 77.16992 338.306417 
L 77.449126 343.158321 
L 77.728333 341.785085 
L 78.00754 339.481654 
L 78.286747 332.561525 
L 78.565954 333.072211 
L 78.84516 330.780699 
L 79.124367 325.399118 
L 79.403574 333.95094 
L 79.682781 330.049019 
L 79.961987 333.62196 
L 80.241194 331.58217 
L 80.520401 334.172754 
L 80.799608 331.140142 
L 81.078814 329.979338 
L 81.358021 328.471815 
L 81.637228 330.063493 
L 81.916435 330.921263 
L 82.195641 330.480992 
L 82.474848 329.834299 
L 82.754055 325.123587 
L 93.922325 323.554018 
L 105.090595 316.363136 
L 116.258866 318.619485 
L 127.427136 305.225179 
L 138.595406 313.489674 
L 149.763677 314.802536 
L 160.931947 326.256206 
L 172.100217 322.216657 
L 183.268488 327.69048 
L 194.436758 326.098804 
L 205.605028 327.178325 
L 216.773299 336.913896 
L 227.941569 330.863741 
L 239.109839 332.954514 
L 250.278109 328.342325 
L 261.44638 323.322421 
L 272.61465 316.145485 
L 283.78292 315.562494 
L 294.951191 313.200617 
L 306.119461 308.165594 
L 317.287731 311.285202 
L 328.456002 318.9015 
L 339.624272 317.814288 
L 350.792542 314.939292 
L 361.960813 309.121543 
L 373.129083 313.561116 
L 384.297353 311.08202 
L 395.465623 317.672054 
L 406.633894 315.224873 
L 417.802164 313.84805 
L 428.970434 313.955885 
L 440.138705 311.164757 
L 451.306975 310.722967 
L 462.475245 308.501731 
L 473.643516 308.94494 
L 484.811786 312.834018 
L 495.980056 308.992208 
L 507.148326 309.732463 
L 518.316597 317.245561 
L 529.484867 311.50317 
L 540.653137 309.717823 
L 551.821408 310.621783 
L 562.989678 308.636048 
L 574.157948 311.860379 
L 585.326219 315.986321 
L 596.494489 312.605866 
L 607.662759 314.696828 
L 618.83103 310.487153 
" style="fill:none;stroke:#ff0000;stroke-linecap:square;stroke-width:1.5;"/>
   </g>
   <g id="line2d_29">
    <path clip-path="url(#p8a1d7ec029)" d="M 71.585785 396.649677 
L 71.864991 398.262141 
L 72.144198 397.274034 
L 72.423405 399.266323 
L 72.702612 407.068067 
L 72.981818 408.532951 
L 73.261025 392.559218 
L 73.540232 389.867784 
L 73.819439 394.953626 
L 74.098645 393.150647 
L 74.377852 391.163866 
L 74.657059 388.765049 
L 74.936266 401.27128 
L 75.215472 398.421632 
L 75.494679 400.70812 
L 75.773886 400.557503 
L 76.053093 401.769169 
L 76.332299 401.65823 
L 76.611506 399.212273 
L 76.890713 391.154658 
L 77.16992 390.967249 
L 77.449126 389.618968 
L 77.728333 387.134173 
L 78.00754 386.990991 
L 78.286747 388.114326 
L 78.565954 387.267457 
L 78.84516 385.633101 
L 79.124367 383.100487 
L 79.403574 382.815388 
L 79.682781 384.550752 
L 79.961987 381.935617 
L 80.241194 381.564608 
L 80.520401 381.070687 
L 80.799608 380.659451 
L 81.078814 381.318053 
L 81.358021 379.989992 
L 81.637228 381.772195 
L 81.916435 381.744819 
L 82.195641 381.24714 
L 82.474848 382.2957 
L 82.754055 380.79165 
L 93.922325 380.862447 
L 105.090595 378.708844 
L 116.258866 378.511119 
L 127.427136 379.981089 
L 138.595406 380.379886 
L 149.763677 379.35809 
L 160.931947 379.22808 
L 172.100217 379.445348 
L 183.268488 378.739525 
L 194.436758 378.54495 
L 205.605028 377.724378 
L 216.773299 377.972572 
L 227.941569 378.261523 
L 239.109839 377.357053 
L 250.278109 376.399077 
L 261.44638 377.50074 
L 272.61465 377.040272 
L 283.78292 377.861039 
L 294.951191 376.874872 
L 306.119461 377.043232 
L 317.287731 376.576489 
L 328.456002 377.02866 
L 339.624272 375.947729 
L 350.792542 376.847105 
L 361.960813 377.578724 
L 373.129083 377.571948 
L 384.297353 376.927838 
L 395.465623 377.216818 
L 406.633894 377.228033 
L 417.802164 376.958992 
L 428.970434 376.838341 
L 440.138705 377.237124 
L 451.306975 377.249069 
L 462.475245 377.469809 
L 473.643516 376.92151 
L 484.811786 377.064158 
L 495.980056 376.326003 
L 507.148326 376.248021 
L 518.316597 376.625901 
L 529.484867 377.340581 
L 540.653137 376.936157 
L 551.821408 376.833782 
L 562.989678 376.206044 
L 574.157948 377.406879 
L 585.326219 376.267261 
L 596.494489 376.67341 
L 607.662759 377.063275 
L 618.83103 376.862779 
" style="fill:none;stroke:#000000;stroke-linecap:square;stroke-width:1.5;"/>
   </g>
   <g id="patch_9">
    <path d="M 44.223522 434.590936 
L 44.223522 245.16 
" style="fill:none;stroke:#000000;stroke-linecap:square;stroke-linejoin:miter;stroke-width:0.8;"/>
   </g>
   <g id="patch_10">
    <path d="M 646.193292 434.590936 
L 646.193292 245.16 
" style="fill:none;stroke:#000000;stroke-linecap:square;stroke-linejoin:miter;stroke-width:0.8;"/>
   </g>
   <g id="patch_11">
    <path d="M 44.223522 434.590936 
L 646.193292 434.590936 
" style="fill:none;stroke:#000000;stroke-linecap:square;stroke-linejoin:miter;stroke-width:0.8;"/>
   </g>
   <g id="patch_12">
    <path d="M 44.223522 245.16 
L 646.193292 245.16 
" style="fill:none;stroke:#000000;stroke-linecap:square;stroke-linejoin:miter;stroke-width:0.8;"/>
   </g>
   <g id="legend_2">
    <g id="patch_13">
     <path d="M 55.423522 310.236439 
L 252.18784 310.236439 
Q 255.38784 310.236439 255.38784 307.036439 
L 255.38784 256.36 
Q 255.38784 253.16 252.18784 253.16 
L 55.423522 253.16 
Q 52.223522 253.16 52.223522 256.36 
L 52.223522 307.036439 
Q 52.223522 310.236439 55.423522 310.236439 
z
" style="fill:#ffffff;opacity:0.8;stroke:#cccccc;stroke-linejoin:miter;"/>
    </g>
    <g id="line2d_30">
     <path d="M 58.623522 268.113163 
L 90.623522 268.113163 
" style="fill:none;stroke:#ff0000;stroke-linecap:square;stroke-width:1.5;"/>
    </g>
    <g id="line2d_31"/>
    <g id="text_24">
     <!-- $\eta(U|\Pi^{(2)})$,CxSOM -->
     <g transform="translate(103.423522 273.713163)scale(0.16 -0.16)">
      <use transform="scale(0.996264)" xlink:href="#CMMI12-17"/>
      <use transform="translate(51.703816 0)scale(0.996264)" xlink:href="#CMR17-40"/>
      <use transform="translate(86.984584 0)scale(0.996264)" xlink:href="#CMMI12-85"/>
      <use transform="translate(163.643356 0)scale(0.996264)" xlink:href="#CMSY10-106"/>
      <use transform="translate(191.317441 0)scale(0.996264)" xlink:href="#CMR17-5"/>
      <use transform="translate(260.389871 36.153639)scale(0.697382)" xlink:href="#CMR17-40"/>
      <use transform="translate(285.086291 36.153639)scale(0.697382)" xlink:href="#CMR17-50"/>
      <use transform="translate(317.069473 36.153639)scale(0.697382)" xlink:href="#CMR17-41"/>
      <use transform="translate(342.264026 0)scale(0.996264)" xlink:href="#CMR17-41"/>
      <use transform="translate(377.544794 0)scale(0.996264)" xlink:href="#CMSS17-44"/>
      <use transform="translate(403.568998 0)scale(0.996264)" xlink:href="#CMSS17-67"/>
      <use transform="translate(463.42477 0)scale(0.996264)" xlink:href="#CMSS17-120"/>
      <use transform="translate(506.424912 0)scale(0.996264)" xlink:href="#CMSS17-83"/>
      <use transform="translate(558.473428 0)scale(0.996264)" xlink:href="#CMSS17-79"/>
      <use transform="translate(627.497683 0)scale(0.996264)" xlink:href="#CMSS17-77"/>
     </g>
    </g>
    <g id="line2d_32">
     <path d="M 58.623522 294.251383 
L 90.623522 294.251383 
" style="fill:none;stroke:#000000;stroke-linecap:square;stroke-width:1.5;"/>
    </g>
    <g id="line2d_33"/>
    <g id="text_25">
     <!-- $\eta(U|\Pi^{(2)})$,carte simple -->
     <g transform="translate(103.423522 299.851383)scale(0.16 -0.16)">
      <use transform="scale(0.996264)" xlink:href="#CMMI12-17"/>
      <use transform="translate(51.703816 0)scale(0.996264)" xlink:href="#CMR17-40"/>
      <use transform="translate(86.984584 0)scale(0.996264)" xlink:href="#CMMI12-85"/>
      <use transform="translate(163.643356 0)scale(0.996264)" xlink:href="#CMSY10-106"/>
      <use transform="translate(191.317441 0)scale(0.996264)" xlink:href="#CMR17-5"/>
      <use transform="translate(260.389871 36.153639)scale(0.697382)" xlink:href="#CMR17-40"/>
      <use transform="translate(285.086291 36.153639)scale(0.697382)" xlink:href="#CMR17-50"/>
      <use transform="translate(317.069473 36.153639)scale(0.697382)" xlink:href="#CMR17-41"/>
      <use transform="translate(342.264026 0)scale(0.996264)" xlink:href="#CMR17-41"/>
      <use transform="translate(377.544794 0)scale(0.996264)" xlink:href="#CMSS17-44"/>
      <use transform="translate(403.568998 0)scale(0.996264)" xlink:href="#CMSS17-99"/>
      <use transform="translate(445.207821 0)scale(0.996264)" xlink:href="#CMSS17-97"/>
      <use transform="translate(487.527287 0)scale(0.996264)" xlink:href="#CMSS17-114"/>
      <use transform="translate(519.43706 0)scale(0.996264)" xlink:href="#CMSS17-116"/>
      <use transform="translate(553.268626 0)scale(0.996264)" xlink:href="#CMSS17-101"/>
      <use transform="translate(626.136561 0)scale(0.996264)" xlink:href="#CMSS17-115"/>
      <use transform="translate(662.050103 0)scale(0.996264)" xlink:href="#CMSS17-105"/>
      <use transform="translate(684.230826 0)scale(0.996264)" xlink:href="#CMSS17-109"/>
      <use transform="translate(758.460081 0)scale(0.996264)" xlink:href="#CMSS17-112"/>
      <use transform="translate(806.665024 0)scale(0.996264)" xlink:href="#CMSS17-108"/>
      <use transform="translate(828.845747 0)scale(0.996264)" xlink:href="#CMSS17-101"/>
     </g>
    </g>
   </g>
  </g>
 </g>
 <defs>
  <clipPath id="pbe33667b73">
   <rect height="189.430936" width="601.969769" x="44.223522" y="17.28"/>
  </clipPath>
  <clipPath id="p8a1d7ec029">
   <rect height="189.430936" width="601.969769" x="44.223522" y="245.16"/>
  </clipPath>
 </defs>
</svg>
