<?xml version="1.0" encoding="utf-8" standalone="no"?>
<!DOCTYPE svg PUBLIC "-//W3C//DTD SVG 1.1//EN"
  "http://www.w3.org/Graphics/SVG/1.1/DTD/svg11.dtd">
<!-- Created with matplotlib (https://matplotlib.org/) -->
<svg height="480.96pt" version="1.1" viewBox="0 0 691.92 480.96" width="691.92pt" xmlns="http://www.w3.org/2000/svg" xmlns:xlink="http://www.w3.org/1999/xlink">
 <metadata>
  <rdf:RDF xmlns:cc="http://creativecommons.org/ns#" xmlns:dc="http://purl.org/dc/elements/1.1/" xmlns:rdf="http://www.w3.org/1999/02/22-rdf-syntax-ns#">
   <cc:Work>
    <dc:type rdf:resource="http://purl.org/dc/dcmitype/StillImage"/>
    <dc:date>2022-10-27T17:46:25.921575</dc:date>
    <dc:format>image/svg+xml</dc:format>
    <dc:creator>
     <cc:Agent>
      <dc:title>Matplotlib v3.3.4, https://matplotlib.org/</dc:title>
     </cc:Agent>
    </dc:creator>
   </cc:Work>
  </rdf:RDF>
 </metadata>
 <defs>
  <style type="text/css">*{stroke-linecap:butt;stroke-linejoin:round;}</style>
 </defs>
 <g id="figure_1">
  <g id="patch_1">
   <path d="M 0 480.96 
L 691.92 480.96 
L 691.92 0 
L 0 0 
z
" style="fill:#ffffff;"/>
  </g>
  <g id="axes_1">
   <g id="patch_2">
    <path d="M 62.392587 192.501871 
L 669.55573 192.501871 
L 669.55573 36.563515 
L 62.392587 36.563515 
z
" style="fill:#ffffff;"/>
   </g>
   <g id="PolyCollection_1">
    <defs>
     <path d="M 89.990912 -350.327879 
L 89.990912 -312.180549 
L 90.272527 -311.159532 
L 90.554143 -310.547019 
L 90.835758 -314.86358 
L 91.117374 -315.630456 
L 91.398989 -303.602421 
L 91.680605 -298.464112 
L 91.96222 -306.127961 
L 92.243836 -308.566855 
L 92.525452 -311.845352 
L 92.807067 -322.675709 
L 93.088683 -329.744247 
L 93.370298 -335.364359 
L 93.651914 -337.807461 
L 93.933529 -343.767907 
L 94.215145 -345.969636 
L 94.49676 -349.591423 
L 94.778376 -355.605623 
L 95.059992 -356.658736 
L 95.341607 -358.307898 
L 95.623223 -365.758816 
L 95.904838 -371.388539 
L 96.186454 -376.553549 
L 96.468069 -374.764961 
L 96.749685 -377.934315 
L 97.0313 -380.751433 
L 97.312916 -380.832648 
L 97.594532 -382.938256 
L 97.876147 -383.598454 
L 98.157763 -386.692954 
L 98.439378 -385.049712 
L 98.720994 -388.611632 
L 99.002609 -381.778583 
L 99.284225 -391.198051 
L 99.565841 -390.543278 
L 99.847456 -389.547082 
L 100.129072 -389.264499 
L 100.410687 -392.486465 
L 100.692303 -394.694721 
L 100.973918 -394.217231 
L 101.255534 -396.638396 
L 112.520156 -403.990381 
L 123.784778 -415.253103 
L 135.049401 -413.138498 
L 146.314023 -410.450789 
L 157.578645 -413.866233 
L 168.843268 -411.589197 
L 180.10789 -415.556087 
L 191.372512 -413.411034 
L 202.637135 -414.27089 
L 213.901757 -413.527561 
L 225.166379 -414.408596 
L 236.431002 -415.977338 
L 247.695624 -411.122693 
L 258.960246 -413.967585 
L 270.224869 -414.747083 
L 281.489491 -417.515301 
L 292.754113 -416.280761 
L 304.018736 -416.865181 
L 315.283358 -416.232893 
L 326.54798 -418.192982 
L 337.812603 -419.650763 
L 349.077225 -418.898393 
L 360.341847 -422.441381 
L 371.60647 -422.042678 
L 382.871092 -420.229577 
L 394.135714 -422.040136 
L 405.400337 -418.058033 
L 416.664959 -416.272083 
L 427.929581 -419.550378 
L 439.194204 -422.073731 
L 450.458826 -421.046535 
L 461.723448 -419.270884 
L 472.988071 -421.051538 
L 484.252693 -423.544961 
L 495.517315 -422.10032 
L 506.781938 -424.97762 
L 518.04656 -421.716877 
L 529.311182 -422.970049 
L 540.575804 -423.831254 
L 551.840427 -423.104751 
L 563.105049 -424.946861 
L 574.369671 -420.89103 
L 585.634294 -424.715909 
L 596.898916 -425.901965 
L 608.163538 -425.855251 
L 619.428161 -423.807979 
L 630.692783 -423.827219 
L 641.957405 -424.714189 
L 641.957405 -436.569587 
L 641.957405 -436.569587 
L 630.692783 -437.308378 
L 619.428161 -433.052329 
L 608.163538 -433.480686 
L 596.898916 -433.622445 
L 585.634294 -431.398472 
L 574.369671 -435.429804 
L 563.105049 -433.810787 
L 551.840427 -430.496042 
L 540.575804 -433.99824 
L 529.311182 -432.398589 
L 518.04656 -430.337449 
L 506.781938 -429.885338 
L 495.517315 -432.491985 
L 484.252693 -431.861284 
L 472.988071 -430.84446 
L 461.723448 -430.844612 
L 450.458826 -430.300143 
L 439.194204 -431.629106 
L 427.929581 -430.529773 
L 416.664959 -427.061151 
L 405.400337 -430.393433 
L 394.135714 -429.659597 
L 382.871092 -429.540509 
L 371.60647 -430.919607 
L 360.341847 -431.070766 
L 349.077225 -428.979896 
L 337.812603 -428.182873 
L 326.54798 -425.138955 
L 315.283358 -428.161186 
L 304.018736 -426.616836 
L 292.754113 -426.983075 
L 281.489491 -428.67271 
L 270.224869 -425.152908 
L 258.960246 -424.608409 
L 247.695624 -425.383519 
L 236.431002 -423.421092 
L 225.166379 -426.072411 
L 213.901757 -423.148177 
L 202.637135 -423.347704 
L 191.372512 -421.719553 
L 180.10789 -423.462257 
L 168.843268 -427.269503 
L 157.578645 -422.989036 
L 146.314023 -419.781495 
L 135.049401 -426.508597 
L 123.784778 -424.656694 
L 112.520156 -429.254637 
L 101.255534 -416.12116 
L 100.973918 -411.855924 
L 100.692303 -414.870051 
L 100.410687 -413.989071 
L 100.129072 -414.183789 
L 99.847456 -414.728743 
L 99.565841 -412.106754 
L 99.284225 -410.032722 
L 99.002609 -410.375692 
L 98.720994 -410.566247 
L 98.439378 -408.060564 
L 98.157763 -407.42819 
L 97.876147 -405.257516 
L 97.594532 -408.269979 
L 97.312916 -409.161001 
L 97.0313 -407.676975 
L 96.749685 -403.378647 
L 96.468069 -404.896034 
L 96.186454 -399.485074 
L 95.904838 -401.173612 
L 95.623223 -399.06558 
L 95.341607 -389.301885 
L 95.059992 -384.94077 
L 94.778376 -384.27051 
L 94.49676 -380.157615 
L 94.215145 -379.772476 
L 93.933529 -376.490427 
L 93.651914 -370.664915 
L 93.370298 -359.963828 
L 93.088683 -355.203866 
L 92.807067 -348.256764 
L 92.525452 -342.577802 
L 92.243836 -339.348931 
L 91.96222 -333.986534 
L 91.680605 -335.536569 
L 91.398989 -339.661475 
L 91.117374 -338.263781 
L 90.835758 -347.805715 
L 90.554143 -340.788749 
L 90.272527 -347.70895 
L 89.990912 -350.327879 
z
" id="md63145fad1" style="stroke:#0000ff;stroke-opacity:0.5;"/>
    </defs>
    <g clip-path="url(#p15a917d9bc)">
     <use style="fill:#0000ff;fill-opacity:0.5;stroke:#0000ff;stroke-opacity:0.5;" x="0" xlink:href="#md63145fad1" y="480.96"/>
    </g>
   </g>
   <g id="PolyCollection_2">
    <defs>
     <path d="M 89.990912 -330.626707 
L 89.990912 -304.483655 
L 90.272527 -295.546236 
L 90.554143 -296.699993 
L 90.835758 -298.580743 
L 91.117374 -297.354115 
L 91.398989 -296.238797 
L 91.680605 -301.933616 
L 91.96222 -303.874048 
L 92.243836 -307.264003 
L 92.525452 -300.091574 
L 92.807067 -302.377091 
L 93.088683 -305.471867 
L 93.370298 -311.393884 
L 93.651914 -315.487422 
L 93.933529 -312.434905 
L 94.215145 -318.956598 
L 94.49676 -321.933803 
L 94.778376 -326.874712 
L 95.059992 -329.257561 
L 95.341607 -328.714303 
L 95.623223 -337.172309 
L 95.904838 -340.689882 
L 96.186454 -340.621622 
L 96.468069 -347.551807 
L 96.749685 -344.031444 
L 97.0313 -346.355837 
L 97.312916 -352.681393 
L 97.594532 -352.448035 
L 97.876147 -349.47089 
L 98.157763 -353.78669 
L 98.439378 -355.474856 
L 98.720994 -356.02051 
L 99.002609 -358.059769 
L 99.284225 -358.121607 
L 99.565841 -359.342784 
L 99.847456 -360.619634 
L 100.129072 -360.182541 
L 100.410687 -361.455675 
L 100.692303 -361.732614 
L 100.973918 -361.922791 
L 101.255534 -363.159357 
L 112.520156 -378.423383 
L 123.784778 -387.17641 
L 135.049401 -386.612018 
L 146.314023 -389.517804 
L 157.578645 -393.50012 
L 168.843268 -392.95188 
L 180.10789 -395.144566 
L 191.372512 -394.021237 
L 202.637135 -394.23396 
L 213.901757 -395.826946 
L 225.166379 -395.24078 
L 236.431002 -394.525924 
L 247.695624 -393.88933 
L 258.960246 -396.106281 
L 270.224869 -399.455036 
L 281.489491 -395.510468 
L 292.754113 -394.467523 
L 304.018736 -397.99758 
L 315.283358 -393.993792 
L 326.54798 -394.597473 
L 337.812603 -396.17885 
L 349.077225 -396.006991 
L 360.341847 -395.802018 
L 371.60647 -394.388336 
L 382.871092 -396.252004 
L 394.135714 -395.891045 
L 405.400337 -393.25365 
L 416.664959 -395.205124 
L 427.929581 -394.358936 
L 439.194204 -393.928335 
L 450.458826 -396.645619 
L 461.723448 -393.895434 
L 472.988071 -395.128009 
L 484.252693 -396.751905 
L 495.517315 -395.404557 
L 506.781938 -394.758095 
L 518.04656 -392.418539 
L 529.311182 -394.154487 
L 540.575804 -393.95863 
L 551.840427 -395.141284 
L 563.105049 -395.464927 
L 574.369671 -398.086126 
L 585.634294 -396.355756 
L 596.898916 -395.961385 
L 608.163538 -397.318194 
L 619.428161 -396.065359 
L 630.692783 -394.520916 
L 641.957405 -397.467371 
L 641.957405 -402.333357 
L 641.957405 -402.333357 
L 630.692783 -401.972567 
L 619.428161 -401.403751 
L 608.163538 -401.879049 
L 596.898916 -403.699305 
L 585.634294 -400.62283 
L 574.369671 -402.412874 
L 563.105049 -402.430373 
L 551.840427 -401.830123 
L 540.575804 -401.257958 
L 529.311182 -402.796721 
L 518.04656 -399.999415 
L 506.781938 -401.724311 
L 495.517315 -400.792348 
L 484.252693 -401.865977 
L 472.988071 -400.437687 
L 461.723448 -399.913986 
L 450.458826 -402.325846 
L 439.194204 -400.23199 
L 427.929581 -402.004109 
L 416.664959 -401.57269 
L 405.400337 -400.705366 
L 394.135714 -400.054804 
L 382.871092 -401.74703 
L 371.60647 -400.028124 
L 360.341847 -401.476425 
L 349.077225 -399.609778 
L 337.812603 -402.63779 
L 326.54798 -402.65983 
L 315.283358 -399.369606 
L 304.018736 -402.938073 
L 292.754113 -403.049881 
L 281.489491 -400.789241 
L 270.224869 -405.221044 
L 258.960246 -402.40939 
L 247.695624 -400.568641 
L 236.431002 -400.071073 
L 225.166379 -399.407217 
L 213.901757 -401.015825 
L 202.637135 -400.791318 
L 191.372512 -402.455629 
L 180.10789 -400.859153 
L 168.843268 -400.675576 
L 157.578645 -399.530443 
L 146.314023 -399.637268 
L 135.049401 -400.318296 
L 123.784778 -396.37702 
L 112.520156 -389.272949 
L 101.255534 -375.314415 
L 100.973918 -374.245371 
L 100.692303 -372.690194 
L 100.410687 -370.923163 
L 100.129072 -374.30877 
L 99.847456 -372.718214 
L 99.565841 -369.220241 
L 99.284225 -367.722971 
L 99.002609 -368.239496 
L 98.720994 -366.168733 
L 98.439378 -364.631125 
L 98.157763 -365.795565 
L 97.876147 -367.427199 
L 97.594532 -362.090784 
L 97.312916 -361.371989 
L 97.0313 -358.604184 
L 96.749685 -365.257369 
L 96.468069 -364.79188 
L 96.186454 -359.642785 
L 95.904838 -357.590519 
L 95.623223 -357.294951 
L 95.341607 -350.633013 
L 95.059992 -351.18309 
L 94.778376 -349.767557 
L 94.49676 -350.483547 
L 94.215145 -341.862624 
L 93.933529 -340.506368 
L 93.651914 -338.73855 
L 93.370298 -337.866762 
L 93.088683 -337.048067 
L 92.807067 -326.954151 
L 92.525452 -326.612139 
L 92.243836 -331.42683 
L 91.96222 -331.148103 
L 91.680605 -326.715248 
L 91.398989 -324.877528 
L 91.117374 -326.205177 
L 90.835758 -322.271531 
L 90.554143 -312.306485 
L 90.272527 -320.515982 
L 89.990912 -330.626707 
z
" id="m0a7de116cc" style="stroke:#008000;stroke-opacity:0.5;"/>
    </defs>
    <g clip-path="url(#p15a917d9bc)">
     <use style="fill:#008000;fill-opacity:0.5;stroke:#008000;stroke-opacity:0.5;" x="0" xlink:href="#m0a7de116cc" y="480.96"/>
    </g>
   </g>
   <g id="matplotlib.axis_1">
    <g id="xtick_1">
     <g id="line2d_1">
      <defs>
       <path d="M 0 0 
L 0 3.5 
" id="mad21db1e18" style="stroke:#000000;stroke-width:0.8;"/>
      </defs>
      <g>
       <use style="stroke:#000000;stroke-width:0.8;" x="89.990912" xlink:href="#mad21db1e18" y="192.501871"/>
      </g>
     </g>
     <g id="text_1">
      <!-- $\mathdefault{0}$ -->
      <g transform="translate(86.088918 210.571459)scale(0.16 -0.16)">
       <defs>
        <path d="M 42 31.640625 
C 42 37.75 41.90625 48.125 37.703125 56.109375 
C 34 63.109375 28.09375 65.59375 22.90625 65.59375 
C 18.09375 65.59375 12 63.40625 8.203125 56.203125 
C 4.203125 48.71875 3.796875 39.4375 3.796875 31.640625 
C 3.796875 25.953125 3.90625 17.28125 7 9.671875 
C 11.296875 -0.609375 19 -2 22.90625 -2 
C 27.5 -2 34.5 -0.109375 38.59375 9.375 
C 41.59375 16.28125 42 24.359375 42 31.640625 
z
M 22.90625 -0.40625 
C 16.5 -0.40625 12.703125 5.078125 11.296875 12.6875 
C 10.203125 18.5625 10.203125 27.15625 10.203125 32.75 
C 10.203125 40.4375 10.203125 46.828125 11.5 52.921875 
C 13.40625 61.390625 19 64 22.90625 64 
C 27 64 32.296875 61.296875 34.203125 53.125 
C 35.5 47.4375 35.59375 40.734375 35.59375 32.75 
C 35.59375 26.25 35.59375 18.265625 34.40625 12.375 
C 32.296875 1.484375 26.40625 -0.40625 22.90625 -0.40625 
z
" id="CMR17-48"/>
       </defs>
       <use transform="scale(0.996264)" xlink:href="#CMR17-48"/>
      </g>
     </g>
    </g>
    <g id="xtick_2">
     <g id="line2d_2">
      <g>
       <use style="stroke:#000000;stroke-width:0.8;" x="202.637135" xlink:href="#mad21db1e18" y="192.501871"/>
      </g>
     </g>
     <g id="text_2">
      <!-- $\mathdefault{2000}$ -->
      <g transform="translate(187.029161 210.571459)scale(0.16 -0.16)">
       <defs>
        <path d="M 41.703125 15.453125 
L 39.90625 15.453125 
C 38.90625 8.375 38.09375 7.171875 37.703125 6.5625 
C 37.203125 5.765625 30 5.765625 28.59375 5.765625 
L 9.40625 5.765625 
C 13 9.671875 20 16.75 28.5 24.953125 
C 34.59375 30.734375 41.703125 37.53125 41.703125 47.421875 
C 41.703125 59.21875 32.296875 66 21.796875 66 
C 10.796875 66 4.09375 56.3125 4.09375 47.34375 
C 4.09375 43.4375 7 42.9375 8.203125 42.9375 
C 9.203125 42.9375 12.203125 43.546875 12.203125 47.03125 
C 12.203125 50.109375 9.59375 51 8.203125 51 
C 7.59375 51 7 50.90625 6.59375 50.703125 
C 8.5 59.21875 14.296875 63.40625 20.40625 63.40625 
C 29.09375 63.40625 34.796875 56.515625 34.796875 47.421875 
C 34.796875 38.734375 29.703125 31.25 24 24.75 
L 4.09375 2.28125 
L 4.09375 0 
L 39.296875 0 
z
" id="CMR17-50"/>
       </defs>
       <use transform="scale(0.996264)" xlink:href="#CMR17-50"/>
       <use transform="translate(45.690477 0)scale(0.996264)" xlink:href="#CMR17-48"/>
       <use transform="translate(91.380954 0)scale(0.996264)" xlink:href="#CMR17-48"/>
       <use transform="translate(137.071431 0)scale(0.996264)" xlink:href="#CMR17-48"/>
      </g>
     </g>
    </g>
    <g id="xtick_3">
     <g id="line2d_3">
      <g>
       <use style="stroke:#000000;stroke-width:0.8;" x="315.283358" xlink:href="#mad21db1e18" y="192.501871"/>
      </g>
     </g>
     <g id="text_3">
      <!-- $\mathdefault{4000}$ -->
      <g transform="translate(299.675384 210.571459)scale(0.16 -0.16)">
       <defs>
        <path d="M 33.59375 64.40625 
C 33.59375 66.5 33.5 66.5 31.703125 66.5 
L 2 19.59375 
L 2 17 
L 27.796875 17 
L 27.796875 7.140625 
C 27.796875 3.5 27.59375 2.5 20.59375 2.5 
L 18.703125 2.5 
L 18.703125 0 
C 21.90625 0 27.296875 0 30.703125 0 
C 34.09375 0 39.5 0 42.703125 0 
L 42.703125 2.5 
L 40.796875 2.5 
C 33.796875 2.5 33.59375 3.5 33.59375 7.140625 
L 33.59375 17 
L 43.796875 17 
L 43.796875 19.59375 
L 33.59375 19.59375 
z
M 28.09375 57.859375 
L 28.09375 19.59375 
L 4 19.59375 
z
" id="CMR17-52"/>
       </defs>
       <use transform="scale(0.996264)" xlink:href="#CMR17-52"/>
       <use transform="translate(45.690477 0)scale(0.996264)" xlink:href="#CMR17-48"/>
       <use transform="translate(91.380954 0)scale(0.996264)" xlink:href="#CMR17-48"/>
       <use transform="translate(137.071431 0)scale(0.996264)" xlink:href="#CMR17-48"/>
      </g>
     </g>
    </g>
    <g id="xtick_4">
     <g id="line2d_4">
      <g>
       <use style="stroke:#000000;stroke-width:0.8;" x="427.929581" xlink:href="#mad21db1e18" y="192.501871"/>
      </g>
     </g>
     <g id="text_4">
      <!-- $\mathdefault{6000}$ -->
      <g transform="translate(412.321607 210.571459)scale(0.16 -0.16)">
       <defs>
        <path d="M 10.59375 34 
C 10.59375 57.65625 21.796875 63 28.296875 63 
C 30.40625 63 35.5 62.640625 37.5 59 
C 35.90625 59 32.90625 59 32.90625 55.515625 
C 32.90625 52.828125 35.09375 51.921875 36.5 51.921875 
C 37.40625 51.921875 40.09375 52.3125 40.09375 55.625 
C 40.09375 61.78125 35.09375 65.296875 28.203125 65.296875 
C 16.296875 65.296875 3.796875 52.96875 3.796875 31 
C 3.796875 3.953125 15.09375 -2 23.09375 -2 
C 32.796875 -2 42 6.671875 42 20.046875 
C 42 32.515625 33.90625 41.59375 23.703125 41.59375 
C 17.59375 41.59375 13.09375 37.609375 10.59375 30.625 
z
M 23.09375 0.390625 
C 10.796875 0.390625 10.796875 18.75 10.796875 22.4375 
C 10.796875 29.625 14.203125 40 23.5 40 
C 25.203125 40 30.09375 40 33.40625 33.125 
C 35.203125 29.21875 35.203125 25.140625 35.203125 20.140625 
C 35.203125 14.75 35.203125 10.78125 33.09375 6.78125 
C 30.90625 2.671875 27.703125 0.390625 23.09375 0.390625 
z
" id="CMR17-54"/>
       </defs>
       <use transform="scale(0.996264)" xlink:href="#CMR17-54"/>
       <use transform="translate(45.690477 0)scale(0.996264)" xlink:href="#CMR17-48"/>
       <use transform="translate(91.380954 0)scale(0.996264)" xlink:href="#CMR17-48"/>
       <use transform="translate(137.071431 0)scale(0.996264)" xlink:href="#CMR17-48"/>
      </g>
     </g>
    </g>
    <g id="xtick_5">
     <g id="line2d_5">
      <g>
       <use style="stroke:#000000;stroke-width:0.8;" x="540.575804" xlink:href="#mad21db1e18" y="192.501871"/>
      </g>
     </g>
     <g id="text_5">
      <!-- $\mathdefault{8000}$ -->
      <g transform="translate(524.96783 210.571459)scale(0.16 -0.16)">
       <defs>
        <path d="M 27.203125 35.375 
C 33.5 38.546875 39.90625 43.328125 39.90625 50.984375 
C 39.90625 60.015625 31.09375 65.296875 23 65.296875 
C 13.90625 65.296875 5.90625 58.734375 5.90625 49.6875 
C 5.90625 47.203125 6.5 42.921875 10.40625 39.140625 
C 11.40625 38.15625 15.59375 35.171875 18.296875 33.28125 
C 13.796875 30.984375 3.296875 25.53125 3.296875 14.59375 
C 3.296875 4.359375 13.09375 -2 22.796875 -2 
C 33.5 -2 42.5 5.65625 42.5 15.78125 
C 42.5 24.84375 36.40625 29.015625 32.40625 31.703125 
z
M 14.09375 44.09375 
C 13.296875 44.59375 9.296875 47.671875 9.296875 52.359375 
C 9.296875 58.421875 15.59375 63 22.796875 63 
C 30.703125 63 36.5 57.4375 36.5 50.96875 
C 36.5 41.703125 26.09375 36.421875 25.59375 36.421875 
C 25.5 36.421875 25.40625 36.421875 24.59375 37.03125 
z
M 32.5 23.734375 
C 34 22.640625 38.796875 19.375 38.796875 13.296875 
C 38.796875 5.953125 31.40625 0.390625 23 0.390625 
C 13.90625 0.390625 7 6.84375 7 14.6875 
C 7 22.546875 13.09375 29.09375 20 32.1875 
z
" id="CMR17-56"/>
       </defs>
       <use transform="scale(0.996264)" xlink:href="#CMR17-56"/>
       <use transform="translate(45.690477 0)scale(0.996264)" xlink:href="#CMR17-48"/>
       <use transform="translate(91.380954 0)scale(0.996264)" xlink:href="#CMR17-48"/>
       <use transform="translate(137.071431 0)scale(0.996264)" xlink:href="#CMR17-48"/>
      </g>
     </g>
    </g>
    <g id="xtick_6">
     <g id="line2d_6">
      <g>
       <use style="stroke:#000000;stroke-width:0.8;" x="653.222028" xlink:href="#mad21db1e18" y="192.501871"/>
      </g>
     </g>
     <g id="text_6">
      <!-- $\mathdefault{10000}$ -->
      <g transform="translate(633.71206 210.571459)scale(0.16 -0.16)">
       <defs>
        <path d="M 26.59375 63.40625 
C 26.59375 65.5 26.5 65.5 25.09375 65.5 
C 21.203125 61.1875 15.296875 59.796875 9.703125 59.796875 
C 9.40625 59.796875 8.90625 59.796875 8.796875 59.5 
C 8.703125 59.296875 8.703125 59.09375 8.703125 57 
C 11.796875 57 17 57.59375 21 59.984375 
L 21 7.203125 
C 21 3.6875 20.796875 2.5 12.203125 2.5 
L 9.203125 2.5 
L 9.203125 0 
C 14 0 19 0 23.796875 0 
C 28.59375 0 33.59375 0 38.40625 0 
L 38.40625 2.5 
L 35.40625 2.5 
C 26.796875 2.5 26.59375 3.59375 26.59375 7.15625 
z
" id="CMR17-49"/>
       </defs>
       <use transform="scale(0.996264)" xlink:href="#CMR17-49"/>
       <use transform="translate(45.690477 0)scale(0.996264)" xlink:href="#CMR17-48"/>
       <use transform="translate(91.380954 0)scale(0.996264)" xlink:href="#CMR17-48"/>
       <use transform="translate(137.071431 0)scale(0.996264)" xlink:href="#CMR17-48"/>
       <use transform="translate(182.761908 0)scale(0.996264)" xlink:href="#CMR17-48"/>
      </g>
     </g>
    </g>
    <g id="text_7">
     <!-- timestep -->
     <g transform="translate(338.399167 228.740524)scale(0.16 -0.16)">
      <defs>
       <path d="M 16.703125 37 
L 29.703125 37 
L 29.703125 42.765625 
L 16.703125 42.765625 
L 16.703125 55 
L 9.59375 55 
L 9.59375 42.765625 
L 1.703125 42.765625 
L 1.703125 37 
L 9.40625 37 
L 9.40625 11.703125 
C 9.40625 6 10.703125 -1 17.296875 -1 
C 22.296875 -1 26.90625 0.390625 31.296875 2.6875 
L 29.703125 8.5625 
C 27.296875 6.46875 24.40625 5.265625 21.296875 5.265625 
C 16.90625 5.265625 16.703125 10.875 16.703125 13.375 
z
" id="CMSS17-116"/>
       <path d="M 15.296875 65.359375 
L 6.90625 65.359375 
L 6.90625 57 
L 15.296875 57 
z
M 14.796875 42.796875 
L 7.40625 42.796875 
L 7.40625 0 
L 14.796875 0 
z
" id="CMSS17-105"/>
       <path d="M 67 29.328125 
C 67 36.0625 65.296875 44 54.09375 44 
C 46.59375 44 42.09375 39.3125 40.09375 36.421875 
C 38.296875 41.71875 34.09375 44 28.09375 44 
C 21.296875 44 17 40.125 14.703125 37.328125 
L 14.703125 43.09375 
L 7.40625 43.09375 
L 7.40625 0 
L 15 0 
L 15 24.359375 
C 15 30.296875 17.203125 37.9375 24.296875 37.9375 
C 33.40625 37.9375 33.40625 31.5 33.40625 28.578125 
L 33.40625 0 
L 41 0 
L 41 24.359375 
C 41 30.296875 43.203125 37.9375 50.296875 37.9375 
C 59.40625 37.9375 59.40625 31.5 59.40625 28.578125 
L 59.40625 0 
L 67 0 
z
" id="CMSS17-109"/>
       <path d="M 39.09375 21.515625 
C 39.09375 24.84375 38.90625 31.296875 35.703125 36.640625 
C 32.203125 42.390625 26.5 44 22.203125 44 
C 11.796875 44 3 34.1875 3 21.484375 
C 3 9.09375 12.09375 -1 23.59375 -1 
C 28.09375 -1 33.59375 0.296875 38.59375 3.875 
C 38.59375 4.28125 38.40625 6.46875 38.296875 6.5625 
C 38.296875 6.765625 38 9.84375 38 10.25 
C 33.203125 6.359375 27.703125 5.078125 23.703125 5.078125 
C 17.296875 5.078125 10.40625 10.421875 10.09375 21.515625 
z
M 10.90625 27 
C 12.203125 32.5625 16.59375 37.828125 22.203125 37.828125 
C 23.703125 37.828125 30.703125 37.828125 32.5 27 
z
" id="CMSS17-101"/>
       <path d="M 32.203125 41.046875 
C 26.296875 43.859375 21.703125 43.859375 18.703125 43.859375 
C 11.59375 43.859375 3.09375 41.375 3.09375 31.296875 
C 3.09375 21.234375 14.09375 19.03125 17.09375 18.421875 
C 21.703125 17.53125 26.796875 16.53125 26.796875 11.5625 
C 26.796875 5.265625 19.59375 5.265625 18.296875 5.265625 
C 14.296875 5.265625 8.796875 6.359375 3.796875 9.96875 
L 2.59375 3.28125 
C 8.296875 0 13.796875 -1 18.40625 -1 
C 30.703125 -1 33.796875 6.5 33.796875 12.203125 
C 33.796875 17.09375 31 20.390625 29.09375 21.890625 
C 25.796875 24.5 24.59375 24.796875 16.40625 26.5 
C 15 26.703125 10.09375 27.796875 10.09375 32.28125 
C 10.09375 38 16.40625 38 17.796875 38 
C 24.296875 38 28.296875 35.984375 31 34.5 
z
" id="CMSS17-115"/>
       <path d="M 15.09375 5.203125 
C 18.40625 2.015625 22.90625 -0.078125 27.703125 -0.078125 
C 37 -0.078125 45 9.421875 45 22.0625 
C 45 33.734375 39 44 30.40625 44 
C 25.40625 44 19.40625 42.21875 14.90625 38.625 
L 14.90625 43.203125 
L 7.5 43.203125 
L 7.5 -19 
L 15.09375 -19 
z
M 15.09375 32.8125 
C 15.90625 34 19.296875 37.734375 24.796875 37.734375 
C 31.796875 37.734375 37.40625 30.625 37.40625 22.0625 
C 37.40625 12.296875 30.59375 6 23.90625 6 
C 21.90625 6 19.796875 6.484375 17.796875 8.171875 
C 15.09375 10.53125 15.09375 12 15.09375 13.390625 
z
" id="CMSS17-112"/>
      </defs>
      <use transform="scale(0.996264)" xlink:href="#CMSS17-116"/>
      <use transform="translate(33.831567 0)scale(0.996264)" xlink:href="#CMSS17-105"/>
      <use transform="translate(56.01229 0)scale(0.996264)" xlink:href="#CMSS17-109"/>
      <use transform="translate(130.241544 0)scale(0.996264)" xlink:href="#CMSS17-101"/>
      <use transform="translate(171.880366 0)scale(0.996264)" xlink:href="#CMSS17-115"/>
      <use transform="translate(207.793908 0)scale(0.996264)" xlink:href="#CMSS17-116"/>
      <use transform="translate(241.625475 0)scale(0.996264)" xlink:href="#CMSS17-101"/>
      <use transform="translate(283.264297 0)scale(0.996264)" xlink:href="#CMSS17-112"/>
     </g>
    </g>
   </g>
   <g id="matplotlib.axis_2">
    <g id="ytick_1">
     <g id="line2d_7">
      <defs>
       <path d="M 0 0 
L -3.5 0 
" id="mbeb3b8ad60" style="stroke:#000000;stroke-width:0.8;"/>
      </defs>
      <g>
       <use style="stroke:#000000;stroke-width:0.8;" x="62.392587" xlink:href="#mbeb3b8ad60" y="132.232299"/>
      </g>
     </g>
     <g id="text_8">
      <!-- $\mathdefault{0.6}$ -->
      <g transform="translate(35.449064 137.767093)scale(0.16 -0.16)">
       <defs>
        <path d="M 18.40625 4.796875 
C 18.40625 7.6875 16 9.671875 13.59375 9.671875 
C 10.703125 9.671875 8.703125 7.28125 8.703125 4.890625 
C 8.703125 2 11.09375 0 13.5 0 
C 16.40625 0 18.40625 2.390625 18.40625 4.796875 
z
" id="CMMI12-58"/>
       </defs>
       <use transform="scale(0.996264)" xlink:href="#CMR17-48"/>
       <use transform="translate(45.690477 0)scale(0.996264)" xlink:href="#CMMI12-58"/>
       <use transform="translate(72.787654 0)scale(0.996264)" xlink:href="#CMR17-54"/>
      </g>
     </g>
    </g>
    <g id="ytick_2">
     <g id="line2d_8">
      <g>
       <use style="stroke:#000000;stroke-width:0.8;" x="62.392587" xlink:href="#mbeb3b8ad60" y="56.981935"/>
      </g>
     </g>
     <g id="text_9">
      <!-- $\mathdefault{0.8}$ -->
      <g transform="translate(35.449064 62.516729)scale(0.16 -0.16)">
       <use transform="scale(0.996264)" xlink:href="#CMR17-48"/>
       <use transform="translate(45.690477 0)scale(0.996264)" xlink:href="#CMMI12-58"/>
       <use transform="translate(72.787654 0)scale(0.996264)" xlink:href="#CMR17-56"/>
      </g>
     </g>
    </g>
    <g id="text_10">
     <!-- $I_x$ -->
     <g transform="translate(28.349588 121.163209)rotate(-90)scale(0.16 -0.16)">
      <defs>
       <path d="M 36.796875 60.625 
C 37.703125 64.109375 37.90625 65.109375 45.203125 65.109375 
C 47.40625 65.109375 48.203125 65.109375 48.203125 67 
C 48.203125 68 47.09375 68 46.796875 68 
C 45 68 42.796875 68 41 68 
L 28.703125 68 
C 26.703125 68 24.40625 68 22.40625 68 
C 21.59375 68 20.5 68 20.5 66.109375 
C 20.5 65.109375 21.296875 65.109375 23.296875 65.109375 
C 29.5 65.109375 29.5 64.3125 29.5 63.21875 
C 29.5 62.53125 29.296875 61.921875 29.09375 61.03125 
L 15.59375 7.375 
C 14.703125 3.890625 14.5 2.890625 7.203125 2.890625 
C 5 2.890625 4.09375 2.890625 4.09375 1 
C 4.09375 0 5.09375 0 5.59375 0 
C 7.40625 0 9.59375 0 11.40625 0 
L 23.703125 0 
C 25.703125 0 27.90625 0 29.90625 0 
C 30.703125 0 31.90625 0 31.90625 1.796875 
C 31.90625 2.890625 31.296875 2.890625 29.09375 2.890625 
C 22.90625 2.890625 22.90625 3.6875 22.90625 4.875 
C 22.90625 5.078125 22.90625 5.578125 23.296875 7.171875 
z
" id="CMMI12-73"/>
       <path d="M 47.40625 40.71875 
C 44.203125 40.109375 43 37.71875 43 35.828125 
C 43 33.421875 44.90625 32.625 46.296875 32.625 
C 49.296875 32.625 51.40625 35.21875 51.40625 37.921875 
C 51.40625 42.109375 46.59375 44 42.40625 44 
C 36.296875 44 32.90625 38.015625 32 36.125 
C 29.703125 44 23.5 44 21.703125 44 
C 11.5 44 6.09375 30.9375 6.09375 28.734375 
C 6.09375 28.34375 6.5 27.84375 7.203125 27.84375 
C 8 27.84375 8.203125 28.4375 8.40625 28.84375 
C 11.796875 39.921875 18.5 42.015625 21.40625 42.015625 
C 25.90625 42.015625 26.796875 37.8125 26.796875 35.421875 
C 26.796875 33.234375 26.203125 30.9375 25 26.140625 
L 21.59375 12.46875 
C 20.09375 6.484375 17.203125 1 11.90625 1 
C 11.40625 1 8.90625 1 6.796875 2.296875 
C 10.40625 3 11.203125 5.984375 11.203125 7.1875 
C 11.203125 9.1875 9.703125 10.375 7.796875 10.375 
C 5.40625 10.375 2.796875 8.28125 2.796875 5.09375 
C 2.796875 0.890625 7.5 -1 11.796875 -1 
C 16.59375 -1 20 2.796875 22.09375 6.890625 
C 23.703125 1 28.703125 -1 32.40625 -1 
C 42.59375 -1 48 12.078125 48 14.265625 
C 48 14.765625 47.59375 15.171875 47 15.171875 
C 46.09375 15.171875 46 14.671875 45.703125 13.875 
C 43 5.09375 37.203125 1 32.703125 1 
C 29.203125 1 27.296875 3.59375 27.296875 7.6875 
C 27.296875 9.875 27.703125 11.46875 29.296875 18.0625 
L 32.796875 31.625 
C 34.296875 37.625 37.703125 42.015625 42.296875 42.015625 
C 42.5 42.015625 45.296875 42.015625 47.40625 40.71875 
z
" id="CMMI12-120"/>
      </defs>
      <use transform="scale(0.996264)" xlink:href="#CMMI12-73"/>
      <use transform="translate(43.024176 -14.943915)scale(0.697382)" xlink:href="#CMMI12-120"/>
     </g>
    </g>
   </g>
   <g id="line2d_9">
    <path clip-path="url(#p15a917d9bc)" d="M 89.990912 149.705786 
L 90.272527 151.525759 
L 90.554143 155.292116 
L 90.835758 149.625353 
L 91.117374 154.012881 
L 91.398989 159.328052 
L 91.680605 163.959659 
L 91.96222 160.902752 
L 92.243836 157.002107 
L 92.525452 153.748423 
L 92.807067 145.493763 
L 93.088683 138.485944 
L 93.370298 133.295907 
L 93.651914 126.723812 
L 93.933529 120.830833 
L 94.215145 118.088944 
L 94.49676 116.085481 
L 94.778376 111.021933 
L 95.059992 110.160247 
L 95.341607 107.155109 
L 95.623223 98.547802 
L 95.904838 94.678924 
L 96.186454 92.940689 
L 96.468069 91.129502 
L 96.749685 90.303519 
L 97.0313 86.745796 
L 97.312916 85.963176 
L 97.594532 85.355883 
L 97.876147 86.532015 
L 98.157763 83.899428 
L 98.439378 84.404862 
L 98.720994 81.37106 
L 99.002609 84.882863 
L 99.284225 80.344613 
L 99.565841 79.634984 
L 99.847456 78.822088 
L 100.129072 79.235856 
L 100.410687 77.722232 
L 100.692303 76.177614 
L 100.973918 77.923422 
L 101.255534 74.580222 
L 112.520156 64.337491 
L 123.784778 61.005102 
L 135.049401 61.136452 
L 146.314023 65.843858 
L 157.578645 62.532366 
L 168.843268 61.53065 
L 180.10789 61.450828 
L 191.372512 63.394707 
L 202.637135 62.150703 
L 213.901757 62.622131 
L 225.166379 60.719497 
L 236.431002 61.260785 
L 247.695624 62.706894 
L 258.960246 61.672003 
L 270.224869 61.010005 
L 281.489491 57.865995 
L 292.754113 59.328082 
L 304.018736 59.218991 
L 315.283358 58.762961 
L 326.54798 59.294032 
L 337.812603 57.043182 
L 349.077225 57.020855 
L 360.341847 54.203926 
L 371.60647 54.478858 
L 382.871092 56.074957 
L 394.135714 55.110133 
L 405.400337 56.734267 
L 416.664959 59.293383 
L 427.929581 55.919924 
L 439.194204 54.108581 
L 450.458826 55.286661 
L 461.723448 55.902252 
L 472.988071 55.012001 
L 484.252693 53.256877 
L 495.517315 53.663847 
L 506.781938 53.528521 
L 518.04656 54.932837 
L 529.311182 53.275681 
L 540.575804 52.045253 
L 551.840427 54.159603 
L 563.105049 51.581176 
L 574.369671 52.799583 
L 585.634294 52.902809 
L 596.898916 51.197795 
L 608.163538 51.292031 
L 619.428161 52.529846 
L 630.692783 50.392202 
L 641.957405 50.318112 
" style="fill:none;stroke:#0000ff;stroke-linecap:square;stroke-width:1.5;"/>
   </g>
   <g id="line2d_10">
    <path clip-path="url(#p15a917d9bc)" d="M 89.990912 163.404819 
L 90.272527 172.928891 
L 90.554143 176.456761 
L 90.835758 170.533863 
L 91.117374 169.180354 
L 91.398989 170.401838 
L 91.680605 166.635568 
L 91.96222 163.448925 
L 92.243836 161.614584 
L 92.525452 167.608143 
L 92.807067 166.294379 
L 93.088683 159.700033 
L 93.370298 156.329677 
L 93.651914 153.847014 
L 93.933529 154.489363 
L 94.215145 150.550389 
L 94.49676 144.751325 
L 94.778376 142.638865 
L 95.059992 140.739675 
L 95.341607 141.286342 
L 95.623223 133.72637 
L 95.904838 131.819799 
L 96.186454 130.827797 
L 96.468069 124.788156 
L 96.749685 126.315593 
L 97.0313 128.47999 
L 97.312916 123.933309 
L 97.594532 123.69059 
L 97.876147 122.510956 
L 98.157763 121.168873 
L 98.439378 120.907009 
L 98.720994 119.865379 
L 99.002609 117.810368 
L 99.284225 118.037711 
L 99.565841 116.678487 
L 99.847456 114.291076 
L 100.129072 113.714345 
L 100.410687 114.770581 
L 100.692303 113.748596 
L 100.973918 112.875919 
L 101.255534 111.723114 
L 112.520156 97.111834 
L 123.784778 89.183285 
L 135.049401 87.494843 
L 146.314023 86.382464 
L 157.578645 84.444719 
L 168.843268 84.146272 
L 180.10789 82.95814 
L 191.372512 82.721567 
L 202.637135 83.447361 
L 213.901757 82.538615 
L 225.166379 83.636001 
L 236.431002 83.661502 
L 247.695624 83.731015 
L 258.960246 81.702165 
L 270.224869 78.62196 
L 281.489491 82.810146 
L 292.754113 82.201298 
L 304.018736 80.492173 
L 315.283358 84.278301 
L 326.54798 82.331349 
L 337.812603 81.55168 
L 349.077225 83.151615 
L 360.341847 82.320779 
L 371.60647 83.75177 
L 382.871092 81.960483 
L 394.135714 82.987076 
L 405.400337 83.980492 
L 416.664959 82.571093 
L 427.929581 82.778478 
L 439.194204 83.879837 
L 450.458826 81.474267 
L 461.723448 84.05529 
L 472.988071 83.177152 
L 484.252693 81.651059 
L 495.517315 82.861547 
L 506.781938 82.718797 
L 518.04656 84.751023 
L 529.311182 82.484396 
L 540.575804 83.351706 
L 551.840427 82.474296 
L 563.105049 82.01235 
L 574.369671 80.7105 
L 585.634294 82.470707 
L 596.898916 81.129655 
L 608.163538 81.361379 
L 619.428161 82.225445 
L 630.692783 82.713259 
L 641.957405 81.059636 
" style="fill:none;stroke:#008000;stroke-linecap:square;stroke-width:1.5;"/>
   </g>
   <g id="patch_3">
    <path d="M 62.392587 192.501871 
L 62.392587 36.563515 
" style="fill:none;stroke:#000000;stroke-linecap:square;stroke-linejoin:miter;stroke-width:0.8;"/>
   </g>
   <g id="patch_4">
    <path d="M 669.55573 192.501871 
L 669.55573 36.563515 
" style="fill:none;stroke:#000000;stroke-linecap:square;stroke-linejoin:miter;stroke-width:0.8;"/>
   </g>
   <g id="patch_5">
    <path d="M 62.392587 192.501871 
L 669.55573 192.501871 
" style="fill:none;stroke:#000000;stroke-linecap:square;stroke-linejoin:miter;stroke-width:0.8;"/>
   </g>
   <g id="patch_6">
    <path d="M 62.392587 36.563515 
L 669.55573 36.563515 
" style="fill:none;stroke:#000000;stroke-linecap:square;stroke-linejoin:miter;stroke-width:0.8;"/>
   </g>
   <g id="text_11">
    <!-- Map X -->
    <g transform="translate(340.222187 30.563515)scale(0.192 -0.192)">
     <defs>
      <path d="M 49.90625 37.046875 
L 45.09375 23.015625 
C 44.296875 20.421875 41.59375 12.359375 41 9.171875 
L 40.90625 9.171875 
C 40.59375 11.171875 40 13.265625 38.40625 18.34375 
C 37.5 21.328125 36.5 24.40625 35.5 27.203125 
L 20.703125 69 
L 9 69 
L 9 0 
L 16.796875 0 
L 16.796875 60.9375 
L 16.90625 60.9375 
C 16.90625 60.84375 17.796875 56.453125 23.90625 39.046875 
L 37.09375 1.5 
L 44.5 1.5 
L 56.40625 34.859375 
C 57.203125 37.15625 59.703125 44.421875 60.796875 47.90625 
C 61.796875 50.890625 64.296875 58.25 64.90625 61.140625 
L 65 61.140625 
L 65 0 
L 72.90625 0 
L 72.90625 69 
L 61.296875 69 
z
" id="CMSS17-77"/>
      <path d="M 37.59375 27.984375 
C 37.59375 37.375 30.90625 43.875 21.90625 43.875 
C 17.5 43.875 12.703125 43.078125 7.203125 39.890625 
L 7.796875 33.359375 
C 10.296875 35.125 14.59375 38 21.796875 38 
C 26.90625 38 30 34.0625 30 27.84375 
L 30 24 
C 14 24 4 19.34375 4 11.34375 
C 4 7.203125 6.5 -1 14.796875 -1 
C 16.296875 -1 24.40625 -1 30.203125 3.390625 
L 30.203125 -0.296875 
L 37.59375 -0.296875 
z
M 30 12.75 
C 30 10.953125 30 8.5625 27 6.78125 
C 24.40625 5.078125 21.09375 5.078125 19.703125 5.078125 
C 14.703125 5.078125 11.296875 7.984375 11.296875 11.625 
C 11.296875 18.921875 26.90625 18.921875 30 18.921875 
z
" id="CMSS17-97"/>
      <path d="M 34.59375 36.390625 
L 57.203125 69 
L 48 69 
L 30.5 43.15625 
L 12.5 69 
L 2.59375 69 
L 26.40625 36.390625 
L 1.296875 0 
L 10.5 0 
L 30.5 30.328125 
L 51.203125 0 
L 61.09375 0 
z
" id="CMSS17-88"/>
     </defs>
     <use transform="scale(0.996264)" xlink:href="#CMSS17-77"/>
     <use transform="translate(81.67603 0)scale(0.996264)" xlink:href="#CMSS17-97"/>
     <use transform="translate(126.597951 0)scale(0.996264)" xlink:href="#CMSS17-112"/>
     <use transform="translate(206.032006 0)scale(0.996264)" xlink:href="#CMSS17-88"/>
    </g>
   </g>
   <g id="legend_1">
    <g id="patch_7">
     <path d="M 417.609373 184.501871 
L 658.35573 184.501871 
Q 661.55573 184.501871 661.55573 181.301871 
L 661.55573 136.159895 
Q 661.55573 132.959895 658.35573 132.959895 
L 417.609373 132.959895 
Q 414.409373 132.959895 414.409373 136.159895 
L 414.409373 181.301871 
Q 414.409373 184.501871 417.609373 184.501871 
z
" style="fill:#ffffff;opacity:0.8;stroke:#cccccc;stroke-linejoin:miter;"/>
    </g>
    <g id="line2d_11">
     <path d="M 420.809373 145.917395 
L 452.809373 145.917395 
" style="fill:none;stroke:#0000ff;stroke-linecap:square;stroke-width:1.5;"/>
    </g>
    <g id="line2d_12"/>
    <g id="text_12">
     <!-- UC, binning 50 -->
     <g transform="translate(465.609373 151.517395)scale(0.16 -0.16)">
      <defs>
       <path d="M 55.5 68.5 
L 47.90625 68.5 
L 47.90625 22.640625 
C 47.90625 9.4375 39.796875 3.578125 32.40625 3.578125 
C 24.796875 3.578125 17.203125 9.734375 17.203125 22.546875 
L 17.203125 68.5 
L 8.796875 68.5 
L 8.796875 22.71875 
C 8.796875 8.421875 19.90625 -2 32.296875 -2 
C 44.703125 -2 55.5 8.421875 55.5 22.71875 
z
" id="CMSS17-85"/>
       <path d="M 54.703125 11.15625 
C 48 6.671875 44.90625 5.375 36.796875 5.375 
C 22.796875 5.375 14.59375 20.359375 14.59375 34.046875 
C 14.59375 48.625 23 63 37.203125 63 
C 43.59375 63 47.796875 61.21875 52.90625 58.046875 
L 54.296875 65.890625 
C 49.5 68.28125 43.40625 69.375 37.296875 69.375 
C 18.09375 69.375 6.203125 51.8125 6.203125 34.046875 
C 6.203125 14.484375 20.296875 -1 36.296875 -1 
C 44.90625 -1 47.90625 -0.296875 55.296875 4.375 
z
" id="CMSS17-67"/>
       <path d="M 17 0.09375 
L 17 7.96875 
L 9 7.96875 
L 9 0 
L 11.5 0 
L 8.90625 -12.5 
L 12.90625 -12.5 
z
" id="CMSS17-44"/>
       <path d="M 14.90625 69 
L 7.5 69 
L 7.5 -0.203125 
L 15.09375 -0.203125 
L 15.09375 4.28125 
C 18.90625 0.59375 23.5 -1 27.59375 -1 
C 37.203125 -1 45 8.578125 45 21.125 
C 45 32.59375 39 43.0625 30.09375 43.0625 
C 23.796875 43.0625 18.203125 40.484375 14.90625 37.796875 
z
M 15.09375 31.96875 
C 17.296875 34.71875 20.40625 37 24.796875 37 
C 30.703125 37 37.40625 32.765625 37.40625 21.125 
C 37.40625 8.71875 29.40625 5.078125 23.90625 5.078125 
C 21.90625 5.078125 19.796875 5.5625 17.796875 7.25 
C 15.09375 9.609375 15.09375 11.078125 15.09375 12.453125 
z
" id="CMSS17-98"/>
       <path d="M 40.90625 29.328125 
C 40.90625 35.671875 39.40625 44 28.09375 44 
C 21.703125 44 17.5 40.71875 14.703125 37.328125 
L 14.703125 43.09375 
L 7.40625 43.09375 
L 7.40625 0 
L 15 0 
L 15 24.359375 
C 15 30.6875 17.40625 37.9375 24.203125 37.9375 
C 33 37.9375 33.296875 32 33.296875 28.578125 
L 33.296875 0 
L 40.90625 0 
z
" id="CMSS17-110"/>
       <path d="M 44.5 43.875 
C 38.796875 43.875 33.90625 42.78125 29.90625 40.890625 
C 26.59375 43.390625 23.203125 43.875 20.90625 43.875 
C 12.203125 43.875 5.59375 36.703125 5.59375 28.34375 
C 5.59375 22.9375 8.59375 18.859375 8.796875 18.671875 
C 7 16.171875 6 13.484375 6 10.5 
C 6 7 7.40625 4.515625 8.5 3.125 
C 3.296875 -0.046875 2.59375 -4.90625 2.59375 -6.796875 
C 2.59375 -14.03125 11.703125 -20 23.40625 -20 
C 35.203125 -20 44.296875 -14.03125 44.296875 -6.6875 
C 44.296875 7 29 7 24.796875 7 
L 16.703125 7 
C 15.203125 7 11.203125 7 11.203125 12.359375 
C 11.203125 14.390625 12.09375 15.6875 12.203125 15.78125 
C 13.703125 14.6875 16.796875 13 20.90625 13 
C 29.203125 13 36.09375 19.96875 36.09375 28.546875 
C 36.09375 33.3125 33.90625 36.796875 33 38 
L 33.296875 38 
C 33.59375 38 37.796875 38 39.296875 38 
C 42.5 38 42.796875 37.953125 45.59375 37.796875 
z
M 20.90625 18.46875 
C 17.5 18.46875 12.703125 20.546875 12.703125 28.484375 
C 12.703125 37.109375 18.203125 38.5 20.796875 38.5 
C 24.203125 38.5 29 36.421875 29 28.484375 
C 29 19.859375 23.5 18.46875 20.90625 18.46875 
z
M 24.703125 -0.15625 
C 27.09375 -0.15625 37.203125 -0.15625 37.203125 -6.90625 
C 37.203125 -11.15625 31 -14.515625 23.5 -14.515625 
C 15.90625 -14.515625 9.703125 -11.25 9.703125 -6.796875 
C 9.703125 -6.296875 9.703125 -0.15625 16.59375 -0.15625 
z
" id="CMSS17-103"/>
       <path d="M 14.59375 58.625 
L 39.09375 58.625 
L 39.09375 65 
L 7.296875 65 
L 7.296875 27.828125 
L 14 27.828125 
C 15.796875 31.96875 19.5 35 24.296875 35 
C 28.796875 35 33.796875 31.078125 33.796875 19.78125 
C 33.796875 7.703125 26.703125 4.171875 21.5 4.171875 
C 15.09375 4.171875 9.203125 8 6.59375 13.296875 
L 3.40625 7.796875 
C 8 0.765625 15.5 -2 21.5 -2 
C 33.09375 -2 42.203125 7.765625 42.203125 19.578125 
C 42.203125 31.71875 34.09375 41.078125 24.40625 41.078125 
C 20.90625 41.078125 17.5 39.890625 14.59375 37.484375 
z
" id="CMSS17-53"/>
       <path d="M 43.09375 31.9375 
C 43.09375 37.578125 43 48.078125 38.90625 56.1875 
C 34.796875 64 28.203125 66.078125 23.5 66.078125 
C 16.703125 66.078125 10.90625 62.109375 7.90625 55.78125 
C 4.703125 49.15625 3.796875 42.328125 3.796875 31.9375 
C 3.796875 24.828125 4.09375 16.109375 7.703125 8.484375 
C 11.796875 0.078125 18.703125 -2 23.40625 -2 
C 29.59375 -2 35.59375 1.265625 39 8.09375 
C 42.5 15.21875 43.09375 23.03125 43.09375 31.9375 
z
M 23.40625 4.078125 
C 15.796875 4.078125 13.5 12.671875 12.796875 15.546875 
C 11.59375 20.46875 11.40625 25.21875 11.40625 33.03125 
C 11.40625 39.15625 11.40625 46.0625 13.296875 51.515625 
C 15.59375 57.828125 19.59375 60 23.40625 60 
C 30.796875 60 33.203125 52.6875 34 50.125 
C 35.5 44.890625 35.5 38.765625 35.5 33.03125 
C 35.5 23.84375 35.5 4.078125 23.40625 4.078125 
z
" id="CMSS17-48"/>
      </defs>
      <use transform="scale(0.996264)" xlink:href="#CMSS17-85"/>
      <use transform="translate(64.13974 0)scale(0.996264)" xlink:href="#CMSS17-67"/>
      <use transform="translate(123.995512 0)scale(0.996264)" xlink:href="#CMSS17-44"/>
      <use transform="translate(181.248829 0)scale(0.996264)" xlink:href="#CMSS17-98"/>
      <use transform="translate(229.453773 0)scale(0.996264)" xlink:href="#CMSS17-105"/>
      <use transform="translate(251.634496 0)scale(0.996264)" xlink:href="#CMSS17-110"/>
      <use transform="translate(299.839439 0)scale(0.996264)" xlink:href="#CMSS17-110"/>
      <use transform="translate(348.044382 0)scale(0.996264)" xlink:href="#CMSS17-105"/>
      <use transform="translate(370.225105 0)scale(0.996264)" xlink:href="#CMSS17-110"/>
      <use transform="translate(418.430048 0)scale(0.996264)" xlink:href="#CMSS17-103"/>
      <use transform="translate(496.502784 0)scale(0.996264)" xlink:href="#CMSS17-53"/>
      <use transform="translate(543.346408 0)scale(0.996264)" xlink:href="#CMSS17-48"/>
     </g>
    </g>
    <g id="line2d_13">
     <path d="M 420.809373 169.402395 
L 452.809373 169.402395 
" style="fill:none;stroke:#008000;stroke-linecap:square;stroke-width:1.5;"/>
    </g>
    <g id="line2d_14"/>
    <g id="text_13">
     <!-- UC non connecté, binning 50 -->
     <g transform="translate(465.609373 175.002395)scale(0.16 -0.16)">
      <defs>
       <path d="M 44.203125 21.1875 
C 44.203125 34 34.703125 44 23.5 44 
C 12 44 2.703125 33.703125 2.703125 21.1875 
C 2.703125 8.5 12.296875 -1 23.40625 -1 
C 34.796875 -1 44.203125 8.796875 44.203125 21.1875 
z
M 23.5 5.265625 
C 16.40625 5.265625 10.296875 11.078125 10.296875 22 
C 10.296875 33.609375 17.40625 37.921875 23.40625 37.921875 
C 29.90625 37.921875 36.59375 33.21875 36.59375 22 
C 36.59375 10.671875 30.09375 5.265625 23.5 5.265625 
z
" id="CMSS17-111"/>
       <path d="M 38.5 39.703125 
C 38.5 40.390625 33.90625 42.40625 32.703125 42.796875 
C 29.40625 44 25.203125 44 24.09375 44 
C 11.09375 44 3.296875 32.703125 3.296875 21.296875 
C 3.296875 9.296875 12 -1 23.703125 -1 
C 30.40625 -1 35.203125 1.1875 39.09375 3.78125 
L 38.5 10.375 
C 34.203125 7.078125 29.203125 5.265625 23.796875 5.265625 
C 16 5.265625 10.90625 12.09375 10.90625 21.390625 
C 10.90625 28.609375 14.203125 37.71875 24.203125 37.71875 
C 29.703125 37.71875 32.796875 36.609375 37.40625 33.515625 
z
" id="CMSS17-99"/>
       <path d="M 39.09375 69.5 
L 31.5 69.5 
L 19.09375 52 
L 25.203125 52 
z
" id="CMSS17-19"/>
      </defs>
      <use transform="scale(0.996264)" xlink:href="#CMSS17-85"/>
      <use transform="translate(64.13974 0)scale(0.996264)" xlink:href="#CMSS17-67"/>
      <use transform="translate(155.224625 0)scale(0.996264)" xlink:href="#CMSS17-110"/>
      <use transform="translate(203.429568 0)scale(0.996264)" xlink:href="#CMSS17-111"/>
      <use transform="translate(250.273191 0)scale(0.996264)" xlink:href="#CMSS17-110"/>
      <use transform="translate(329.707247 0)scale(0.996264)" xlink:href="#CMSS17-99"/>
      <use transform="translate(371.346069 0)scale(0.996264)" xlink:href="#CMSS17-111"/>
      <use transform="translate(418.189693 0)scale(0.996264)" xlink:href="#CMSS17-110"/>
      <use transform="translate(466.394636 0)scale(0.996264)" xlink:href="#CMSS17-110"/>
      <use transform="translate(514.599579 0)scale(0.996264)" xlink:href="#CMSS17-101"/>
      <use transform="translate(556.238401 0)scale(0.996264)" xlink:href="#CMSS17-99"/>
      <use transform="translate(597.877223 0)scale(0.996264)" xlink:href="#CMSS17-116"/>
      <use transform="translate(629.106381 0)scale(0.996264)" xlink:href="#CMSS17-19"/>
      <use transform="translate(631.70879 0)scale(0.996264)" xlink:href="#CMSS17-101"/>
      <use transform="translate(673.347612 0)scale(0.996264)" xlink:href="#CMSS17-44"/>
      <use transform="translate(730.600929 0)scale(0.996264)" xlink:href="#CMSS17-98"/>
      <use transform="translate(778.805873 0)scale(0.996264)" xlink:href="#CMSS17-105"/>
      <use transform="translate(800.986596 0)scale(0.996264)" xlink:href="#CMSS17-110"/>
      <use transform="translate(849.191539 0)scale(0.996264)" xlink:href="#CMSS17-110"/>
      <use transform="translate(897.396482 0)scale(0.996264)" xlink:href="#CMSS17-105"/>
      <use transform="translate(919.577205 0)scale(0.996264)" xlink:href="#CMSS17-110"/>
      <use transform="translate(967.782148 0)scale(0.996264)" xlink:href="#CMSS17-103"/>
      <use transform="translate(1045.854884 0)scale(0.996264)" xlink:href="#CMSS17-53"/>
      <use transform="translate(1092.698508 0)scale(0.996264)" xlink:href="#CMSS17-48"/>
     </g>
    </g>
   </g>
  </g>
  <g id="axes_2">
   <g id="patch_8">
    <path d="M 62.392587 424.341871 
L 669.55573 424.341871 
L 669.55573 268.403515 
L 62.392587 268.403515 
z
" style="fill:#ffffff;"/>
   </g>
   <g id="PolyCollection_3">
    <defs>
     <path d="M 89.990912 -126.315337 
L 89.990912 -93.08988 
L 90.272527 -92.925401 
L 90.554143 -87.543059 
L 90.835758 -80.418404 
L 91.117374 -81.079257 
L 91.398989 -82.320082 
L 91.680605 -83.701091 
L 91.96222 -84.66771 
L 92.243836 -86.296985 
L 92.525452 -91.650788 
L 92.807067 -95.718202 
L 93.088683 -101.720123 
L 93.370298 -106.215895 
L 93.651914 -113.662701 
L 93.933529 -115.829276 
L 94.215145 -117.539674 
L 94.49676 -120.715755 
L 94.778376 -122.638158 
L 95.059992 -130.037818 
L 95.341607 -137.077132 
L 95.623223 -136.851994 
L 95.904838 -143.454517 
L 96.186454 -141.001268 
L 96.468069 -147.058057 
L 96.749685 -150.070166 
L 97.0313 -151.293605 
L 97.312916 -154.534639 
L 97.594532 -155.166827 
L 97.876147 -157.849497 
L 98.157763 -155.375038 
L 98.439378 -155.231629 
L 98.720994 -158.38726 
L 99.002609 -155.90287 
L 99.284225 -158.158222 
L 99.565841 -158.715021 
L 99.847456 -160.592801 
L 100.129072 -162.760186 
L 100.410687 -164.781636 
L 100.692303 -166.611975 
L 100.973918 -166.616131 
L 101.255534 -168.079462 
L 112.520156 -178.833133 
L 123.784778 -181.600807 
L 135.049401 -181.720539 
L 146.314023 -179.321766 
L 157.578645 -178.905879 
L 168.843268 -181.300601 
L 180.10789 -182.782658 
L 191.372512 -181.708938 
L 202.637135 -181.844819 
L 213.901757 -183.555699 
L 225.166379 -184.549244 
L 236.431002 -182.936997 
L 247.695624 -184.80751 
L 258.960246 -183.681633 
L 270.224869 -184.111872 
L 281.489491 -185.18354 
L 292.754113 -184.272667 
L 304.018736 -183.507268 
L 315.283358 -184.228638 
L 326.54798 -185.53905 
L 337.812603 -184.688415 
L 349.077225 -185.777816 
L 360.341847 -185.493897 
L 371.60647 -187.802956 
L 382.871092 -188.069241 
L 394.135714 -189.343539 
L 405.400337 -187.568303 
L 416.664959 -188.725934 
L 427.929581 -188.280448 
L 439.194204 -191.605179 
L 450.458826 -192.92253 
L 461.723448 -190.491425 
L 472.988071 -189.860826 
L 484.252693 -190.54617 
L 495.517315 -190.477264 
L 506.781938 -190.428319 
L 518.04656 -189.262486 
L 529.311182 -189.573391 
L 540.575804 -192.383861 
L 551.840427 -193.058718 
L 563.105049 -191.307219 
L 574.369671 -192.953132 
L 585.634294 -187.166119 
L 596.898916 -190.69287 
L 608.163538 -191.656547 
L 619.428161 -195.113679 
L 630.692783 -193.355977 
L 641.957405 -190.038202 
L 641.957405 -205.468378 
L 641.957405 -205.468378 
L 630.692783 -203.46854 
L 619.428161 -204.185653 
L 608.163538 -203.447451 
L 596.898916 -202.348564 
L 585.634294 -203.867583 
L 574.369671 -203.009765 
L 563.105049 -202.107824 
L 551.840427 -202.917089 
L 540.575804 -203.220823 
L 529.311182 -201.937495 
L 518.04656 -203.099375 
L 506.781938 -201.943729 
L 495.517315 -201.280034 
L 484.252693 -202.688073 
L 472.988071 -199.286565 
L 461.723448 -200.045532 
L 450.458826 -199.98192 
L 439.194204 -198.413034 
L 427.929581 -197.379935 
L 416.664959 -197.676038 
L 405.400337 -195.7397 
L 394.135714 -196.09745 
L 382.871092 -198.455661 
L 371.60647 -197.885658 
L 360.341847 -197.518521 
L 349.077225 -196.697026 
L 337.812603 -196.426097 
L 326.54798 -198.633912 
L 315.283358 -198.311298 
L 304.018736 -195.258236 
L 292.754113 -197.488209 
L 281.489491 -198.437346 
L 270.224869 -198.524356 
L 258.960246 -196.797855 
L 247.695624 -197.491436 
L 236.431002 -194.165304 
L 225.166379 -195.97413 
L 213.901757 -197.125834 
L 202.637135 -195.278062 
L 191.372512 -194.531631 
L 180.10789 -195.941037 
L 168.843268 -198.552695 
L 157.578645 -196.795925 
L 146.314023 -196.17758 
L 135.049401 -197.240498 
L 123.784778 -197.031997 
L 112.520156 -194.002022 
L 101.255534 -190.614373 
L 100.973918 -188.366068 
L 100.692303 -186.393262 
L 100.410687 -186.479486 
L 100.129072 -185.75904 
L 99.847456 -181.543502 
L 99.565841 -180.873375 
L 99.284225 -183.849539 
L 99.002609 -184.683002 
L 98.720994 -183.771179 
L 98.439378 -184.886803 
L 98.157763 -179.280437 
L 97.876147 -178.58164 
L 97.594532 -175.134848 
L 97.312916 -171.082432 
L 97.0313 -169.345004 
L 96.749685 -170.060484 
L 96.468069 -166.831348 
L 96.186454 -164.762233 
L 95.904838 -165.110168 
L 95.623223 -162.702823 
L 95.341607 -158.450225 
L 95.059992 -156.975731 
L 94.778376 -152.783564 
L 94.49676 -151.307549 
L 94.215145 -148.043463 
L 93.933529 -139.088013 
L 93.651914 -136.204101 
L 93.370298 -131.317449 
L 93.088683 -124.410867 
L 92.807067 -121.775345 
L 92.525452 -125.533462 
L 92.243836 -122.458166 
L 91.96222 -118.496468 
L 91.680605 -114.11923 
L 91.398989 -110.980811 
L 91.117374 -107.321627 
L 90.835758 -110.316468 
L 90.554143 -112.852196 
L 90.272527 -112.07426 
L 89.990912 -126.315337 
z
" id="m4545ce20c6" style="stroke:#0000ff;stroke-opacity:0.5;"/>
    </defs>
    <g clip-path="url(#pdf5ac6fb0a)">
     <use style="fill:#0000ff;fill-opacity:0.5;stroke:#0000ff;stroke-opacity:0.5;" x="0" xlink:href="#m4545ce20c6" y="480.96"/>
    </g>
   </g>
   <g id="PolyCollection_4">
    <defs>
     <path d="M 89.990912 -96.077112 
L 89.990912 -72.748055 
L 90.272527 -70.651914 
L 90.554143 -66.808004 
L 90.835758 -67.759664 
L 91.117374 -67.134119 
L 91.398989 -63.706236 
L 91.680605 -65.939942 
L 91.96222 -68.925 
L 92.243836 -73.250971 
L 92.525452 -83.512765 
L 92.807067 -84.76669 
L 93.088683 -90.701727 
L 93.370298 -88.370633 
L 93.651914 -88.61161 
L 93.933529 -95.032891 
L 94.215145 -97.025448 
L 94.49676 -100.555615 
L 94.778376 -104.487649 
L 95.059992 -109.860854 
L 95.341607 -111.133509 
L 95.623223 -111.624942 
L 95.904838 -111.450762 
L 96.186454 -117.493287 
L 96.468069 -118.149748 
L 96.749685 -122.155729 
L 97.0313 -122.007663 
L 97.312916 -124.13875 
L 97.594532 -125.115334 
L 97.876147 -127.15115 
L 98.157763 -127.858835 
L 98.439378 -132.345586 
L 98.720994 -132.618685 
L 99.002609 -131.496279 
L 99.284225 -133.300725 
L 99.565841 -133.61188 
L 99.847456 -131.041471 
L 100.129072 -132.74313 
L 100.410687 -137.389712 
L 100.692303 -140.006875 
L 100.973918 -141.441086 
L 101.255534 -141.212618 
L 112.520156 -147.494396 
L 123.784778 -153.721641 
L 135.049401 -159.272845 
L 146.314023 -159.86444 
L 157.578645 -163.364564 
L 168.843268 -162.722746 
L 180.10789 -164.529929 
L 191.372512 -167.768661 
L 202.637135 -167.559188 
L 213.901757 -168.77726 
L 225.166379 -169.113432 
L 236.431002 -163.154811 
L 247.695624 -168.305456 
L 258.960246 -169.061114 
L 270.224869 -167.130698 
L 281.489491 -167.577426 
L 292.754113 -168.463084 
L 304.018736 -169.128258 
L 315.283358 -167.434807 
L 326.54798 -170.724936 
L 337.812603 -170.655401 
L 349.077225 -169.323267 
L 360.341847 -170.293967 
L 371.60647 -168.745619 
L 382.871092 -167.72567 
L 394.135714 -169.327797 
L 405.400337 -167.391583 
L 416.664959 -169.59062 
L 427.929581 -167.763424 
L 439.194204 -166.096365 
L 450.458826 -170.161937 
L 461.723448 -169.109111 
L 472.988071 -165.900197 
L 484.252693 -169.865021 
L 495.517315 -167.221351 
L 506.781938 -167.921985 
L 518.04656 -168.445068 
L 529.311182 -166.423083 
L 540.575804 -166.599977 
L 551.840427 -167.280362 
L 563.105049 -168.970584 
L 574.369671 -168.904811 
L 585.634294 -165.869166 
L 596.898916 -166.70532 
L 608.163538 -169.080679 
L 619.428161 -168.118431 
L 630.692783 -168.87172 
L 641.957405 -167.390706 
L 641.957405 -174.763415 
L 641.957405 -174.763415 
L 630.692783 -174.405018 
L 619.428161 -172.840485 
L 608.163538 -174.468469 
L 596.898916 -173.11338 
L 585.634294 -173.095697 
L 574.369671 -176.162161 
L 563.105049 -172.998044 
L 551.840427 -174.54086 
L 540.575804 -176.63189 
L 529.311182 -176.261657 
L 518.04656 -172.975263 
L 506.781938 -174.456765 
L 495.517315 -174.85896 
L 484.252693 -174.574641 
L 472.988071 -175.389452 
L 461.723448 -175.904067 
L 450.458826 -174.356362 
L 439.194204 -173.567328 
L 427.929581 -173.201699 
L 416.664959 -173.64778 
L 405.400337 -176.248355 
L 394.135714 -172.143882 
L 382.871092 -174.82107 
L 371.60647 -174.44953 
L 360.341847 -175.635574 
L 349.077225 -175.200548 
L 337.812603 -173.399698 
L 326.54798 -174.721869 
L 315.283358 -173.716142 
L 304.018736 -174.266898 
L 292.754113 -174.746108 
L 281.489491 -173.475924 
L 270.224869 -175.0623 
L 258.960246 -173.413148 
L 247.695624 -173.703396 
L 236.431002 -173.503818 
L 225.166379 -173.843493 
L 213.901757 -176.050924 
L 202.637135 -174.317003 
L 191.372512 -175.014312 
L 180.10789 -173.139496 
L 168.843268 -172.235658 
L 157.578645 -172.133476 
L 146.314023 -173.351625 
L 135.049401 -173.762672 
L 123.784778 -169.313246 
L 112.520156 -167.482312 
L 101.255534 -155.193003 
L 100.973918 -156.224113 
L 100.692303 -155.846687 
L 100.410687 -154.467116 
L 100.129072 -155.151962 
L 99.847456 -151.297497 
L 99.565841 -151.132972 
L 99.284225 -150.415353 
L 99.002609 -151.678775 
L 98.720994 -148.333845 
L 98.439378 -146.886682 
L 98.157763 -144.749874 
L 97.876147 -145.240618 
L 97.594532 -140.158386 
L 97.312916 -135.799566 
L 97.0313 -135.943027 
L 96.749685 -134.68359 
L 96.468069 -134.431013 
L 96.186454 -130.896558 
L 95.904838 -132.037607 
L 95.623223 -130.727083 
L 95.341607 -129.241566 
L 95.059992 -132.72046 
L 94.778376 -131.336958 
L 94.49676 -122.796748 
L 94.215145 -121.587035 
L 93.933529 -123.08114 
L 93.651914 -121.002115 
L 93.370298 -113.916975 
L 93.088683 -116.105106 
L 92.807067 -111.338049 
L 92.525452 -104.431941 
L 92.243836 -102.294392 
L 91.96222 -102.051188 
L 91.680605 -103.974108 
L 91.398989 -86.325289 
L 91.117374 -89.719195 
L 90.835758 -92.173 
L 90.554143 -88.524406 
L 90.272527 -91.17708 
L 89.990912 -96.077112 
z
" id="mc00ddfe258" style="stroke:#008000;stroke-opacity:0.5;"/>
    </defs>
    <g clip-path="url(#pdf5ac6fb0a)">
     <use style="fill:#008000;fill-opacity:0.5;stroke:#008000;stroke-opacity:0.5;" x="0" xlink:href="#mc00ddfe258" y="480.96"/>
    </g>
   </g>
   <g id="matplotlib.axis_3">
    <g id="xtick_7">
     <g id="line2d_15">
      <g>
       <use style="stroke:#000000;stroke-width:0.8;" x="89.990912" xlink:href="#mad21db1e18" y="424.341871"/>
      </g>
     </g>
     <g id="text_14">
      <!-- $\mathdefault{0}$ -->
      <g transform="translate(86.088918 442.411459)scale(0.16 -0.16)">
       <use transform="scale(0.996264)" xlink:href="#CMR17-48"/>
      </g>
     </g>
    </g>
    <g id="xtick_8">
     <g id="line2d_16">
      <g>
       <use style="stroke:#000000;stroke-width:0.8;" x="202.637135" xlink:href="#mad21db1e18" y="424.341871"/>
      </g>
     </g>
     <g id="text_15">
      <!-- $\mathdefault{2000}$ -->
      <g transform="translate(187.029161 442.411459)scale(0.16 -0.16)">
       <use transform="scale(0.996264)" xlink:href="#CMR17-50"/>
       <use transform="translate(45.690477 0)scale(0.996264)" xlink:href="#CMR17-48"/>
       <use transform="translate(91.380954 0)scale(0.996264)" xlink:href="#CMR17-48"/>
       <use transform="translate(137.071431 0)scale(0.996264)" xlink:href="#CMR17-48"/>
      </g>
     </g>
    </g>
    <g id="xtick_9">
     <g id="line2d_17">
      <g>
       <use style="stroke:#000000;stroke-width:0.8;" x="315.283358" xlink:href="#mad21db1e18" y="424.341871"/>
      </g>
     </g>
     <g id="text_16">
      <!-- $\mathdefault{4000}$ -->
      <g transform="translate(299.675384 442.411459)scale(0.16 -0.16)">
       <use transform="scale(0.996264)" xlink:href="#CMR17-52"/>
       <use transform="translate(45.690477 0)scale(0.996264)" xlink:href="#CMR17-48"/>
       <use transform="translate(91.380954 0)scale(0.996264)" xlink:href="#CMR17-48"/>
       <use transform="translate(137.071431 0)scale(0.996264)" xlink:href="#CMR17-48"/>
      </g>
     </g>
    </g>
    <g id="xtick_10">
     <g id="line2d_18">
      <g>
       <use style="stroke:#000000;stroke-width:0.8;" x="427.929581" xlink:href="#mad21db1e18" y="424.341871"/>
      </g>
     </g>
     <g id="text_17">
      <!-- $\mathdefault{6000}$ -->
      <g transform="translate(412.321607 442.411459)scale(0.16 -0.16)">
       <use transform="scale(0.996264)" xlink:href="#CMR17-54"/>
       <use transform="translate(45.690477 0)scale(0.996264)" xlink:href="#CMR17-48"/>
       <use transform="translate(91.380954 0)scale(0.996264)" xlink:href="#CMR17-48"/>
       <use transform="translate(137.071431 0)scale(0.996264)" xlink:href="#CMR17-48"/>
      </g>
     </g>
    </g>
    <g id="xtick_11">
     <g id="line2d_19">
      <g>
       <use style="stroke:#000000;stroke-width:0.8;" x="540.575804" xlink:href="#mad21db1e18" y="424.341871"/>
      </g>
     </g>
     <g id="text_18">
      <!-- $\mathdefault{8000}$ -->
      <g transform="translate(524.96783 442.411459)scale(0.16 -0.16)">
       <use transform="scale(0.996264)" xlink:href="#CMR17-56"/>
       <use transform="translate(45.690477 0)scale(0.996264)" xlink:href="#CMR17-48"/>
       <use transform="translate(91.380954 0)scale(0.996264)" xlink:href="#CMR17-48"/>
       <use transform="translate(137.071431 0)scale(0.996264)" xlink:href="#CMR17-48"/>
      </g>
     </g>
    </g>
    <g id="xtick_12">
     <g id="line2d_20">
      <g>
       <use style="stroke:#000000;stroke-width:0.8;" x="653.222028" xlink:href="#mad21db1e18" y="424.341871"/>
      </g>
     </g>
     <g id="text_19">
      <!-- $\mathdefault{10000}$ -->
      <g transform="translate(633.71206 442.411459)scale(0.16 -0.16)">
       <use transform="scale(0.996264)" xlink:href="#CMR17-49"/>
       <use transform="translate(45.690477 0)scale(0.996264)" xlink:href="#CMR17-48"/>
       <use transform="translate(91.380954 0)scale(0.996264)" xlink:href="#CMR17-48"/>
       <use transform="translate(137.071431 0)scale(0.996264)" xlink:href="#CMR17-48"/>
       <use transform="translate(182.761908 0)scale(0.996264)" xlink:href="#CMR17-48"/>
      </g>
     </g>
    </g>
    <g id="text_20">
     <!-- timestep -->
     <g transform="translate(338.399167 460.580524)scale(0.16 -0.16)">
      <use transform="scale(0.996264)" xlink:href="#CMSS17-116"/>
      <use transform="translate(33.831567 0)scale(0.996264)" xlink:href="#CMSS17-105"/>
      <use transform="translate(56.01229 0)scale(0.996264)" xlink:href="#CMSS17-109"/>
      <use transform="translate(130.241544 0)scale(0.996264)" xlink:href="#CMSS17-101"/>
      <use transform="translate(171.880366 0)scale(0.996264)" xlink:href="#CMSS17-115"/>
      <use transform="translate(207.793908 0)scale(0.996264)" xlink:href="#CMSS17-116"/>
      <use transform="translate(241.625475 0)scale(0.996264)" xlink:href="#CMSS17-101"/>
      <use transform="translate(283.264297 0)scale(0.996264)" xlink:href="#CMSS17-112"/>
     </g>
    </g>
   </g>
   <g id="matplotlib.axis_4">
    <g id="ytick_3">
     <g id="line2d_21">
      <g>
       <use style="stroke:#000000;stroke-width:0.8;" x="62.392587" xlink:href="#mbeb3b8ad60" y="358.935262"/>
      </g>
     </g>
     <g id="text_21">
      <!-- $\mathdefault{0.6}$ -->
      <g transform="translate(35.449064 364.470056)scale(0.16 -0.16)">
       <use transform="scale(0.996264)" xlink:href="#CMR17-48"/>
       <use transform="translate(45.690477 0)scale(0.996264)" xlink:href="#CMMI12-58"/>
       <use transform="translate(72.787654 0)scale(0.996264)" xlink:href="#CMR17-54"/>
      </g>
     </g>
    </g>
    <g id="ytick_4">
     <g id="line2d_22">
      <g>
       <use style="stroke:#000000;stroke-width:0.8;" x="62.392587" xlink:href="#mbeb3b8ad60" y="283.078588"/>
      </g>
     </g>
     <g id="text_22">
      <!-- $\mathdefault{0.8}$ -->
      <g transform="translate(35.449064 288.613382)scale(0.16 -0.16)">
       <use transform="scale(0.996264)" xlink:href="#CMR17-48"/>
       <use transform="translate(45.690477 0)scale(0.996264)" xlink:href="#CMMI12-58"/>
       <use transform="translate(72.787654 0)scale(0.996264)" xlink:href="#CMR17-56"/>
      </g>
     </g>
    </g>
    <g id="text_23">
     <!-- $I_x$ -->
     <g transform="translate(28.349588 353.003209)rotate(-90)scale(0.16 -0.16)">
      <use transform="scale(0.996264)" xlink:href="#CMMI12-73"/>
      <use transform="translate(43.024176 -14.943915)scale(0.697382)" xlink:href="#CMMI12-120"/>
     </g>
    </g>
   </g>
   <g id="line2d_23">
    <path clip-path="url(#pdf5ac6fb0a)" d="M 89.990912 371.257392 
L 90.272527 378.460169 
L 90.554143 380.762372 
L 90.835758 385.592564 
L 91.117374 386.759558 
L 91.398989 384.309553 
L 91.680605 382.049839 
L 91.96222 379.377911 
L 92.243836 376.582425 
L 92.525452 372.367875 
L 92.807067 372.213226 
L 93.088683 367.894505 
L 93.370298 362.193328 
L 93.651914 356.026599 
L 93.933529 353.501355 
L 94.215145 348.168431 
L 94.49676 344.948348 
L 94.778376 343.249139 
L 95.059992 337.453225 
L 95.341607 333.196322 
L 95.623223 331.182591 
L 95.904838 326.677657 
L 96.186454 328.07825 
L 96.468069 324.015297 
L 96.749685 320.894675 
L 97.0313 320.640695 
L 97.312916 318.151464 
L 97.594532 315.809162 
L 97.876147 312.744432 
L 98.157763 313.632263 
L 98.439378 310.900784 
L 98.720994 309.88078 
L 99.002609 310.667064 
L 99.284225 309.95612 
L 99.565841 311.165802 
L 99.847456 309.891848 
L 100.129072 306.700387 
L 100.410687 305.329439 
L 100.692303 304.457382 
L 100.973918 303.468901 
L 101.255534 301.613082 
L 112.520156 294.542422 
L 123.784778 291.643598 
L 135.049401 291.479482 
L 146.314023 293.210327 
L 157.578645 293.109098 
L 168.843268 291.033352 
L 180.10789 291.598152 
L 191.372512 292.839715 
L 202.637135 292.39856 
L 213.901757 290.619234 
L 225.166379 290.698313 
L 236.431002 292.40885 
L 247.695624 289.810527 
L 258.960246 290.720256 
L 270.224869 289.641886 
L 281.489491 289.149557 
L 292.754113 290.079562 
L 304.018736 291.577248 
L 315.283358 289.690032 
L 326.54798 288.873519 
L 337.812603 290.402744 
L 349.077225 289.722579 
L 360.341847 289.453791 
L 371.60647 288.115693 
L 382.871092 287.697549 
L 394.135714 288.239505 
L 405.400337 289.305998 
L 416.664959 287.759014 
L 427.929581 288.129808 
L 439.194204 285.950894 
L 450.458826 284.507775 
L 461.723448 285.691521 
L 472.988071 286.386305 
L 484.252693 284.342879 
L 495.517315 285.081351 
L 506.781938 284.773976 
L 518.04656 284.779069 
L 529.311182 285.204557 
L 540.575804 283.157658 
L 551.840427 282.972096 
L 563.105049 284.252479 
L 574.369671 282.978552 
L 585.634294 285.443149 
L 596.898916 284.439283 
L 608.163538 283.408001 
L 619.428161 281.310334 
L 630.692783 282.547742 
L 641.957405 283.20671 
" style="fill:none;stroke:#0000ff;stroke-linecap:square;stroke-width:1.5;"/>
   </g>
   <g id="line2d_24">
    <path clip-path="url(#pdf5ac6fb0a)" d="M 89.990912 396.547416 
L 90.272527 400.045503 
L 90.554143 403.293795 
L 90.835758 400.993668 
L 91.117374 402.533343 
L 91.398989 405.944238 
L 91.680605 396.002975 
L 91.96222 395.471906 
L 92.243836 393.187318 
L 92.525452 386.987647 
L 92.807067 382.90763 
L 93.088683 377.556584 
L 93.370298 379.816196 
L 93.651914 376.153138 
L 93.933529 371.902984 
L 94.215145 371.653758 
L 94.49676 369.283818 
L 94.778376 363.047697 
L 95.059992 359.669343 
L 95.341607 360.772462 
L 95.623223 359.783987 
L 95.904838 359.215816 
L 96.186454 356.765077 
L 96.468069 354.66962 
L 96.749685 352.540341 
L 97.0313 351.984655 
L 97.312916 350.990842 
L 97.594532 348.32314 
L 97.876147 344.764116 
L 98.157763 344.655645 
L 98.439378 341.343866 
L 98.720994 340.483735 
L 99.002609 339.372473 
L 99.284225 339.101961 
L 99.565841 338.587574 
L 99.847456 339.790516 
L 100.129072 337.012454 
L 100.410687 335.031586 
L 100.692303 333.033219 
L 100.973918 332.127401 
L 101.255534 332.75719 
L 112.520156 323.471646 
L 123.784778 319.442556 
L 135.049401 314.442242 
L 146.314023 314.351967 
L 157.578645 313.21098 
L 168.843268 313.480798 
L 180.10789 312.125287 
L 191.372512 309.568514 
L 202.637135 310.021904 
L 213.901757 308.545908 
L 225.166379 309.481537 
L 236.431002 312.630685 
L 247.695624 309.955574 
L 258.960246 309.722869 
L 270.224869 309.863501 
L 281.489491 310.433325 
L 292.754113 309.355404 
L 304.018736 309.262422 
L 315.283358 310.384526 
L 326.54798 308.236597 
L 337.812603 308.932451 
L 349.077225 308.698093 
L 360.341847 307.995229 
L 371.60647 309.362425 
L 382.871092 309.68663 
L 394.135714 310.22416 
L 405.400337 309.140031 
L 416.664959 309.3408 
L 427.929581 310.477439 
L 439.194204 311.128154 
L 450.458826 308.700851 
L 461.723448 308.453411 
L 472.988071 310.315176 
L 484.252693 308.740169 
L 495.517315 309.919845 
L 506.781938 309.770625 
L 518.04656 310.249835 
L 529.311182 309.61763 
L 540.575804 309.344067 
L 551.840427 310.049389 
L 563.105049 309.975686 
L 574.369671 308.426514 
L 585.634294 311.477568 
L 596.898916 311.05065 
L 608.163538 309.185426 
L 619.428161 310.480542 
L 630.692783 309.321631 
L 641.957405 309.882939 
" style="fill:none;stroke:#008000;stroke-linecap:square;stroke-width:1.5;"/>
   </g>
   <g id="patch_9">
    <path d="M 62.392587 424.341871 
L 62.392587 268.403515 
" style="fill:none;stroke:#000000;stroke-linecap:square;stroke-linejoin:miter;stroke-width:0.8;"/>
   </g>
   <g id="patch_10">
    <path d="M 669.55573 424.341871 
L 669.55573 268.403515 
" style="fill:none;stroke:#000000;stroke-linecap:square;stroke-linejoin:miter;stroke-width:0.8;"/>
   </g>
   <g id="patch_11">
    <path d="M 62.392587 424.341871 
L 669.55573 424.341871 
" style="fill:none;stroke:#000000;stroke-linecap:square;stroke-linejoin:miter;stroke-width:0.8;"/>
   </g>
   <g id="patch_12">
    <path d="M 62.392587 268.403515 
L 669.55573 268.403515 
" style="fill:none;stroke:#000000;stroke-linecap:square;stroke-linejoin:miter;stroke-width:0.8;"/>
   </g>
   <g id="text_24">
    <!-- Map Y -->
    <g transform="translate(340.222187 262.403515)scale(0.192 -0.192)">
     <defs>
      <path d="M 62.09375 69 
L 53.5 69 
L 38 44.953125 
C 36.796875 43.046875 33.40625 37.890625 31.796875 35 
L 26.90625 42.859375 
L 10.09375 69 
L 0.296875 69 
L 27.09375 27.640625 
L 27.09375 0 
L 35.296875 0 
L 35.296875 27.546875 
z
" id="CMSS17-89"/>
     </defs>
     <use transform="scale(0.996264)" xlink:href="#CMSS17-77"/>
     <use transform="translate(81.67603 0)scale(0.996264)" xlink:href="#CMSS17-97"/>
     <use transform="translate(126.597951 0)scale(0.996264)" xlink:href="#CMSS17-112"/>
     <use transform="translate(206.032006 0)scale(0.996264)" xlink:href="#CMSS17-89"/>
    </g>
   </g>
   <g id="legend_2">
    <g id="patch_13">
     <path d="M 438.420005 416.341871 
L 658.35573 416.341871 
Q 661.55573 416.341871 661.55573 413.141871 
L 661.55573 391.484895 
Q 661.55573 388.284895 658.35573 388.284895 
L 438.420005 388.284895 
Q 435.220005 388.284895 435.220005 391.484895 
L 435.220005 413.141871 
Q 435.220005 416.341871 438.420005 416.341871 
z
" style="fill:#ffffff;opacity:0.8;stroke:#cccccc;stroke-linejoin:miter;"/>
    </g>
    <g id="line2d_25">
     <path d="M 441.620005 401.242395 
L 473.620005 401.242395 
" style="fill:none;stroke:#008000;stroke-linecap:square;stroke-width:1.5;"/>
    </g>
    <g id="line2d_26"/>
    <g id="text_25">
     <!-- UC non connecté, binning -->
     <g transform="translate(486.420005 406.842395)scale(0.16 -0.16)">
      <use transform="scale(0.996264)" xlink:href="#CMSS17-85"/>
      <use transform="translate(64.13974 0)scale(0.996264)" xlink:href="#CMSS17-67"/>
      <use transform="translate(155.224625 0)scale(0.996264)" xlink:href="#CMSS17-110"/>
      <use transform="translate(203.429568 0)scale(0.996264)" xlink:href="#CMSS17-111"/>
      <use transform="translate(250.273191 0)scale(0.996264)" xlink:href="#CMSS17-110"/>
      <use transform="translate(329.707247 0)scale(0.996264)" xlink:href="#CMSS17-99"/>
      <use transform="translate(371.346069 0)scale(0.996264)" xlink:href="#CMSS17-111"/>
      <use transform="translate(418.189693 0)scale(0.996264)" xlink:href="#CMSS17-110"/>
      <use transform="translate(466.394636 0)scale(0.996264)" xlink:href="#CMSS17-110"/>
      <use transform="translate(514.599579 0)scale(0.996264)" xlink:href="#CMSS17-101"/>
      <use transform="translate(556.238401 0)scale(0.996264)" xlink:href="#CMSS17-99"/>
      <use transform="translate(597.877223 0)scale(0.996264)" xlink:href="#CMSS17-116"/>
      <use transform="translate(629.106381 0)scale(0.996264)" xlink:href="#CMSS17-19"/>
      <use transform="translate(631.70879 0)scale(0.996264)" xlink:href="#CMSS17-101"/>
      <use transform="translate(673.347612 0)scale(0.996264)" xlink:href="#CMSS17-44"/>
      <use transform="translate(730.600929 0)scale(0.996264)" xlink:href="#CMSS17-98"/>
      <use transform="translate(778.805873 0)scale(0.996264)" xlink:href="#CMSS17-105"/>
      <use transform="translate(800.986596 0)scale(0.996264)" xlink:href="#CMSS17-110"/>
      <use transform="translate(849.191539 0)scale(0.996264)" xlink:href="#CMSS17-110"/>
      <use transform="translate(897.396482 0)scale(0.996264)" xlink:href="#CMSS17-105"/>
      <use transform="translate(919.577205 0)scale(0.996264)" xlink:href="#CMSS17-110"/>
      <use transform="translate(967.782148 0)scale(0.996264)" xlink:href="#CMSS17-103"/>
     </g>
    </g>
   </g>
  </g>
 </g>
 <defs>
  <clipPath id="p15a917d9bc">
   <rect height="155.938356" width="607.163143" x="62.392587" y="36.563515"/>
  </clipPath>
  <clipPath id="pdf5ac6fb0a">
   <rect height="155.938356" width="607.163143" x="62.392587" y="268.403515"/>
  </clipPath>
 </defs>
</svg>
