<?xml version="1.0" encoding="utf-8" standalone="no"?>
<!DOCTYPE svg PUBLIC "-//W3C//DTD SVG 1.1//EN"
  "http://www.w3.org/Graphics/SVG/1.1/DTD/svg11.dtd">
<!-- Created with matplotlib (https://matplotlib.org/) -->
<svg height="345.6pt" version="1.1" viewBox="0 0 460.8 345.6" width="460.8pt" xmlns="http://www.w3.org/2000/svg" xmlns:xlink="http://www.w3.org/1999/xlink">
 <metadata>
  <rdf:RDF xmlns:cc="http://creativecommons.org/ns#" xmlns:dc="http://purl.org/dc/elements/1.1/" xmlns:rdf="http://www.w3.org/1999/02/22-rdf-syntax-ns#">
   <cc:Work>
    <dc:type rdf:resource="http://purl.org/dc/dcmitype/StillImage"/>
    <dc:date>2021-10-12T11:34:58.103488</dc:date>
    <dc:format>image/svg+xml</dc:format>
    <dc:creator>
     <cc:Agent>
      <dc:title>Matplotlib v3.3.4, https://matplotlib.org/</dc:title>
     </cc:Agent>
    </dc:creator>
   </cc:Work>
  </rdf:RDF>
 </metadata>
 <defs>
  <style type="text/css">*{stroke-linecap:butt;stroke-linejoin:round;}</style>
 </defs>
 <g id="figure_1">
  <g id="patch_1">
   <path d="M 0 345.6 
L 460.8 345.6 
L 460.8 0 
L 0 0 
z
" style="fill:#ffffff;"/>
  </g>
  <g id="axes_1">
   <g id="LineCollection_1">
    <path clip-path="url(#pc9960c3595)" d="M 166.869738 102.368079 
L 207.858808 15.709091 
" style="fill:none;stroke:#000000;"/>
    <path clip-path="url(#pc9960c3595)" d="M 166.869738 102.368079 
L 127.203182 287.679556 
" style="fill:none;stroke:#000000;"/>
    <path clip-path="url(#pc9960c3595)" d="M 166.869738 102.368079 
L 67.065543 142.08612 
" style="fill:none;stroke:#000000;"/>
    <path clip-path="url(#pc9960c3595)" d="M 166.869738 102.368079 
L 301.927821 105.681893 
" style="fill:none;stroke:#000000;"/>
    <path clip-path="url(#pc9960c3595)" d="M 207.501895 212.565322 
L 127.203182 287.679556 
" style="fill:none;stroke:#000000;"/>
    <path clip-path="url(#pc9960c3595)" d="M 207.501895 212.565322 
L 334.671252 329.890909 
" style="fill:none;stroke:#000000;"/>
    <path clip-path="url(#pc9960c3595)" d="M 207.501895 212.565322 
L 207.858808 15.709091 
" style="fill:none;stroke:#000000;"/>
    <path clip-path="url(#pc9960c3595)" d="M 207.501895 212.565322 
L 67.065543 142.08612 
" style="fill:none;stroke:#000000;"/>
    <path clip-path="url(#pc9960c3595)" d="M 127.203182 287.679556 
L 252.193982 314.384615 
" style="fill:none;stroke:#000000;"/>
    <path clip-path="url(#pc9960c3595)" d="M 127.203182 287.679556 
L 20.945455 209.669433 
" style="fill:none;stroke:#000000;"/>
    <path clip-path="url(#pc9960c3595)" d="M 334.671252 329.890909 
L 252.193982 314.384615 
" style="fill:none;stroke:#000000;"/>
    <path clip-path="url(#pc9960c3595)" d="M 334.671252 329.890909 
L 377.673013 195.542516 
" style="fill:none;stroke:#000000;"/>
    <path clip-path="url(#pc9960c3595)" d="M 252.193982 314.384615 
L 377.673013 195.542516 
" style="fill:none;stroke:#000000;"/>
    <path clip-path="url(#pc9960c3595)" d="M 252.193982 314.384615 
L 146.500756 186.236136 
" style="fill:none;stroke:#000000;"/>
    <path clip-path="url(#pc9960c3595)" d="M 377.673013 195.542516 
L 439.854545 78.645675 
" style="fill:none;stroke:#000000;"/>
    <path clip-path="url(#pc9960c3595)" d="M 377.673013 195.542516 
L 301.927821 105.681893 
" style="fill:none;stroke:#000000;"/>
    <path clip-path="url(#pc9960c3595)" d="M 377.673013 195.542516 
L 359.546799 23.636498 
" style="fill:none;stroke:#000000;"/>
    <path clip-path="url(#pc9960c3595)" d="M 439.854545 78.645675 
L 301.927821 105.681893 
" style="fill:none;stroke:#000000;"/>
    <path clip-path="url(#pc9960c3595)" d="M 439.854545 78.645675 
L 359.546799 23.636498 
" style="fill:none;stroke:#000000;"/>
    <path clip-path="url(#pc9960c3595)" d="M 301.927821 105.681893 
L 359.546799 23.636498 
" style="fill:none;stroke:#000000;"/>
    <path clip-path="url(#pc9960c3595)" d="M 301.927821 105.681893 
L 146.500756 186.236136 
" style="fill:none;stroke:#000000;"/>
    <path clip-path="url(#pc9960c3595)" d="M 359.546799 23.636498 
L 207.858808 15.709091 
" style="fill:none;stroke:#000000;"/>
    <path clip-path="url(#pc9960c3595)" d="M 146.500756 186.236136 
L 20.945455 209.669433 
" style="fill:none;stroke:#000000;"/>
    <path clip-path="url(#pc9960c3595)" d="M 146.500756 186.236136 
L 64.280785 55.469989 
" style="fill:none;stroke:#000000;"/>
    <path clip-path="url(#pc9960c3595)" d="M 20.945455 209.669433 
L 64.280785 55.469989 
" style="fill:none;stroke:#000000;"/>
    <path clip-path="url(#pc9960c3595)" d="M 20.945455 209.669433 
L 67.065543 142.08612 
" style="fill:none;stroke:#000000;"/>
    <path clip-path="url(#pc9960c3595)" d="M 64.280785 55.469989 
L 67.065543 142.08612 
" style="fill:none;stroke:#000000;"/>
    <path clip-path="url(#pc9960c3595)" d="M 64.280785 55.469989 
L 207.858808 15.709091 
" style="fill:none;stroke:#000000;"/>
   </g>
   <g id="PathCollection_1">
    <defs>
     <path d="M 0 8.660254 
C 2.296726 8.660254 4.499694 7.747755 6.123724 6.123724 
C 7.747755 4.499694 8.660254 2.296726 8.660254 0 
C 8.660254 -2.296726 7.747755 -4.499694 6.123724 -6.123724 
C 4.499694 -7.747755 2.296726 -8.660254 0 -8.660254 
C -2.296726 -8.660254 -4.499694 -7.747755 -6.123724 -6.123724 
C -7.747755 -4.499694 -8.660254 -2.296726 -8.660254 0 
C -8.660254 2.296726 -7.747755 4.499694 -6.123724 6.123724 
C -4.499694 7.747755 -2.296726 8.660254 0 8.660254 
z
" id="mc00aed1c48" style="stroke:#1f78b4;"/>
    </defs>
    <g clip-path="url(#pc9960c3595)">
     <use style="fill:#1f78b4;stroke:#1f78b4;" x="166.869738" xlink:href="#mc00aed1c48" y="102.368079"/>
     <use style="fill:#1f78b4;stroke:#1f78b4;" x="207.501895" xlink:href="#mc00aed1c48" y="212.565322"/>
     <use style="fill:#1f78b4;stroke:#1f78b4;" x="127.203182" xlink:href="#mc00aed1c48" y="287.679556"/>
     <use style="fill:#1f78b4;stroke:#1f78b4;" x="334.671252" xlink:href="#mc00aed1c48" y="329.890909"/>
     <use style="fill:#1f78b4;stroke:#1f78b4;" x="252.193982" xlink:href="#mc00aed1c48" y="314.384615"/>
     <use style="fill:#1f78b4;stroke:#1f78b4;" x="377.673013" xlink:href="#mc00aed1c48" y="195.542516"/>
     <use style="fill:#1f78b4;stroke:#1f78b4;" x="439.854545" xlink:href="#mc00aed1c48" y="78.645675"/>
     <use style="fill:#1f78b4;stroke:#1f78b4;" x="301.927821" xlink:href="#mc00aed1c48" y="105.681893"/>
     <use style="fill:#1f78b4;stroke:#1f78b4;" x="359.546799" xlink:href="#mc00aed1c48" y="23.636498"/>
     <use style="fill:#1f78b4;stroke:#1f78b4;" x="146.500756" xlink:href="#mc00aed1c48" y="186.236136"/>
     <use style="fill:#1f78b4;stroke:#1f78b4;" x="20.945455" xlink:href="#mc00aed1c48" y="209.669433"/>
     <use style="fill:#1f78b4;stroke:#1f78b4;" x="64.280785" xlink:href="#mc00aed1c48" y="55.469989"/>
     <use style="fill:#1f78b4;stroke:#1f78b4;" x="67.065543" xlink:href="#mc00aed1c48" y="142.08612"/>
     <use style="fill:#1f78b4;stroke:#1f78b4;" x="207.858808" xlink:href="#mc00aed1c48" y="15.709091"/>
    </g>
   </g>
  </g>
 </g>
 <defs>
  <clipPath id="pc9960c3595">
   <rect height="345.6" width="460.8" x="0" y="0"/>
  </clipPath>
 </defs>
</svg>
