<?xml version="1.0" encoding="utf-8" standalone="no"?>
<!DOCTYPE svg PUBLIC "-//W3C//DTD SVG 1.1//EN"
  "http://www.w3.org/Graphics/SVG/1.1/DTD/svg11.dtd">
<!-- Created with matplotlib (https://matplotlib.org/) -->
<svg height="478.8pt" version="1.1" viewBox="0 0 931.68 478.8" width="931.68pt" xmlns="http://www.w3.org/2000/svg" xmlns:xlink="http://www.w3.org/1999/xlink">
 <metadata>
  <rdf:RDF xmlns:cc="http://creativecommons.org/ns#" xmlns:dc="http://purl.org/dc/elements/1.1/" xmlns:rdf="http://www.w3.org/1999/02/22-rdf-syntax-ns#">
   <cc:Work>
    <dc:type rdf:resource="http://purl.org/dc/dcmitype/StillImage"/>
    <dc:date>2022-10-26T15:52:38.435766</dc:date>
    <dc:format>image/svg+xml</dc:format>
    <dc:creator>
     <cc:Agent>
      <dc:title>Matplotlib v3.3.4, https://matplotlib.org/</dc:title>
     </cc:Agent>
    </dc:creator>
   </cc:Work>
  </rdf:RDF>
 </metadata>
 <defs>
  <style type="text/css">*{stroke-linecap:butt;stroke-linejoin:round;}</style>
 </defs>
 <g id="figure_1">
  <g id="patch_1">
   <path d="M 0 478.8 
L 931.68 478.8 
L 931.68 0 
L 0 0 
z
" style="fill:#ffffff;"/>
  </g>
  <g id="axes_1">
   <g id="patch_2">
    <path d="M 116.46 225.036 
L 838.512 225.036 
L 838.512 57.456 
L 116.46 57.456 
z
" style="fill:#ffffff;"/>
   </g>
   <g id="matplotlib.axis_1">
    <g id="xtick_1">
     <g id="line2d_1">
      <defs>
       <path d="M 0 0 
L 0 3.5 
" id="mfc444d16fe" style="stroke:#000000;stroke-width:0.8;"/>
      </defs>
      <g>
       <use style="stroke:#000000;stroke-width:0.8;" x="149.280545" xlink:href="#mfc444d16fe" y="225.036"/>
      </g>
     </g>
     <g id="text_1">
      <!-- $\mathdefault{0}$ -->
      <g transform="translate(145.378552 243.105588)scale(0.16 -0.16)">
       <defs>
        <path d="M 42 31.640625 
C 42 37.75 41.90625 48.125 37.703125 56.109375 
C 34 63.109375 28.09375 65.59375 22.90625 65.59375 
C 18.09375 65.59375 12 63.40625 8.203125 56.203125 
C 4.203125 48.71875 3.796875 39.4375 3.796875 31.640625 
C 3.796875 25.953125 3.90625 17.28125 7 9.671875 
C 11.296875 -0.609375 19 -2 22.90625 -2 
C 27.5 -2 34.5 -0.109375 38.59375 9.375 
C 41.59375 16.28125 42 24.359375 42 31.640625 
z
M 22.90625 -0.40625 
C 16.5 -0.40625 12.703125 5.078125 11.296875 12.6875 
C 10.203125 18.5625 10.203125 27.15625 10.203125 32.75 
C 10.203125 40.4375 10.203125 46.828125 11.5 52.921875 
C 13.40625 61.390625 19 64 22.90625 64 
C 27 64 32.296875 61.296875 34.203125 53.125 
C 35.5 47.4375 35.59375 40.734375 35.59375 32.75 
C 35.59375 26.25 35.59375 18.265625 34.40625 12.375 
C 32.296875 1.484375 26.40625 -0.40625 22.90625 -0.40625 
z
" id="CMR17-48"/>
       </defs>
       <use transform="scale(0.996264)" xlink:href="#CMR17-48"/>
      </g>
     </g>
    </g>
    <g id="xtick_2">
     <g id="line2d_2">
      <g>
       <use style="stroke:#000000;stroke-width:0.8;" x="283.241955" xlink:href="#mfc444d16fe" y="225.036"/>
      </g>
     </g>
     <g id="text_2">
      <!-- $\mathdefault{2000}$ -->
      <g transform="translate(267.633981 243.105588)scale(0.16 -0.16)">
       <defs>
        <path d="M 41.703125 15.453125 
L 39.90625 15.453125 
C 38.90625 8.375 38.09375 7.171875 37.703125 6.5625 
C 37.203125 5.765625 30 5.765625 28.59375 5.765625 
L 9.40625 5.765625 
C 13 9.671875 20 16.75 28.5 24.953125 
C 34.59375 30.734375 41.703125 37.53125 41.703125 47.421875 
C 41.703125 59.21875 32.296875 66 21.796875 66 
C 10.796875 66 4.09375 56.3125 4.09375 47.34375 
C 4.09375 43.4375 7 42.9375 8.203125 42.9375 
C 9.203125 42.9375 12.203125 43.546875 12.203125 47.03125 
C 12.203125 50.109375 9.59375 51 8.203125 51 
C 7.59375 51 7 50.90625 6.59375 50.703125 
C 8.5 59.21875 14.296875 63.40625 20.40625 63.40625 
C 29.09375 63.40625 34.796875 56.515625 34.796875 47.421875 
C 34.796875 38.734375 29.703125 31.25 24 24.75 
L 4.09375 2.28125 
L 4.09375 0 
L 39.296875 0 
z
" id="CMR17-50"/>
       </defs>
       <use transform="scale(0.996264)" xlink:href="#CMR17-50"/>
       <use transform="translate(45.690477 0)scale(0.996264)" xlink:href="#CMR17-48"/>
       <use transform="translate(91.380954 0)scale(0.996264)" xlink:href="#CMR17-48"/>
       <use transform="translate(137.071431 0)scale(0.996264)" xlink:href="#CMR17-48"/>
      </g>
     </g>
    </g>
    <g id="xtick_3">
     <g id="line2d_3">
      <g>
       <use style="stroke:#000000;stroke-width:0.8;" x="417.203365" xlink:href="#mfc444d16fe" y="225.036"/>
      </g>
     </g>
     <g id="text_3">
      <!-- $\mathdefault{4000}$ -->
      <g transform="translate(401.595391 243.105588)scale(0.16 -0.16)">
       <defs>
        <path d="M 33.59375 64.40625 
C 33.59375 66.5 33.5 66.5 31.703125 66.5 
L 2 19.59375 
L 2 17 
L 27.796875 17 
L 27.796875 7.140625 
C 27.796875 3.5 27.59375 2.5 20.59375 2.5 
L 18.703125 2.5 
L 18.703125 0 
C 21.90625 0 27.296875 0 30.703125 0 
C 34.09375 0 39.5 0 42.703125 0 
L 42.703125 2.5 
L 40.796875 2.5 
C 33.796875 2.5 33.59375 3.5 33.59375 7.140625 
L 33.59375 17 
L 43.796875 17 
L 43.796875 19.59375 
L 33.59375 19.59375 
z
M 28.09375 57.859375 
L 28.09375 19.59375 
L 4 19.59375 
z
" id="CMR17-52"/>
       </defs>
       <use transform="scale(0.996264)" xlink:href="#CMR17-52"/>
       <use transform="translate(45.690477 0)scale(0.996264)" xlink:href="#CMR17-48"/>
       <use transform="translate(91.380954 0)scale(0.996264)" xlink:href="#CMR17-48"/>
       <use transform="translate(137.071431 0)scale(0.996264)" xlink:href="#CMR17-48"/>
      </g>
     </g>
    </g>
    <g id="xtick_4">
     <g id="line2d_4">
      <g>
       <use style="stroke:#000000;stroke-width:0.8;" x="551.164776" xlink:href="#mfc444d16fe" y="225.036"/>
      </g>
     </g>
     <g id="text_4">
      <!-- $\mathdefault{6000}$ -->
      <g transform="translate(535.556802 243.105588)scale(0.16 -0.16)">
       <defs>
        <path d="M 10.59375 34 
C 10.59375 57.65625 21.796875 63 28.296875 63 
C 30.40625 63 35.5 62.640625 37.5 59 
C 35.90625 59 32.90625 59 32.90625 55.515625 
C 32.90625 52.828125 35.09375 51.921875 36.5 51.921875 
C 37.40625 51.921875 40.09375 52.3125 40.09375 55.625 
C 40.09375 61.78125 35.09375 65.296875 28.203125 65.296875 
C 16.296875 65.296875 3.796875 52.96875 3.796875 31 
C 3.796875 3.953125 15.09375 -2 23.09375 -2 
C 32.796875 -2 42 6.671875 42 20.046875 
C 42 32.515625 33.90625 41.59375 23.703125 41.59375 
C 17.59375 41.59375 13.09375 37.609375 10.59375 30.625 
z
M 23.09375 0.390625 
C 10.796875 0.390625 10.796875 18.75 10.796875 22.4375 
C 10.796875 29.625 14.203125 40 23.5 40 
C 25.203125 40 30.09375 40 33.40625 33.125 
C 35.203125 29.21875 35.203125 25.140625 35.203125 20.140625 
C 35.203125 14.75 35.203125 10.78125 33.09375 6.78125 
C 30.90625 2.671875 27.703125 0.390625 23.09375 0.390625 
z
" id="CMR17-54"/>
       </defs>
       <use transform="scale(0.996264)" xlink:href="#CMR17-54"/>
       <use transform="translate(45.690477 0)scale(0.996264)" xlink:href="#CMR17-48"/>
       <use transform="translate(91.380954 0)scale(0.996264)" xlink:href="#CMR17-48"/>
       <use transform="translate(137.071431 0)scale(0.996264)" xlink:href="#CMR17-48"/>
      </g>
     </g>
    </g>
    <g id="xtick_5">
     <g id="line2d_5">
      <g>
       <use style="stroke:#000000;stroke-width:0.8;" x="685.126186" xlink:href="#mfc444d16fe" y="225.036"/>
      </g>
     </g>
     <g id="text_5">
      <!-- $\mathdefault{8000}$ -->
      <g transform="translate(669.518212 243.105588)scale(0.16 -0.16)">
       <defs>
        <path d="M 27.203125 35.375 
C 33.5 38.546875 39.90625 43.328125 39.90625 50.984375 
C 39.90625 60.015625 31.09375 65.296875 23 65.296875 
C 13.90625 65.296875 5.90625 58.734375 5.90625 49.6875 
C 5.90625 47.203125 6.5 42.921875 10.40625 39.140625 
C 11.40625 38.15625 15.59375 35.171875 18.296875 33.28125 
C 13.796875 30.984375 3.296875 25.53125 3.296875 14.59375 
C 3.296875 4.359375 13.09375 -2 22.796875 -2 
C 33.5 -2 42.5 5.65625 42.5 15.78125 
C 42.5 24.84375 36.40625 29.015625 32.40625 31.703125 
z
M 14.09375 44.09375 
C 13.296875 44.59375 9.296875 47.671875 9.296875 52.359375 
C 9.296875 58.421875 15.59375 63 22.796875 63 
C 30.703125 63 36.5 57.4375 36.5 50.96875 
C 36.5 41.703125 26.09375 36.421875 25.59375 36.421875 
C 25.5 36.421875 25.40625 36.421875 24.59375 37.03125 
z
M 32.5 23.734375 
C 34 22.640625 38.796875 19.375 38.796875 13.296875 
C 38.796875 5.953125 31.40625 0.390625 23 0.390625 
C 13.90625 0.390625 7 6.84375 7 14.6875 
C 7 22.546875 13.09375 29.09375 20 32.1875 
z
" id="CMR17-56"/>
       </defs>
       <use transform="scale(0.996264)" xlink:href="#CMR17-56"/>
       <use transform="translate(45.690477 0)scale(0.996264)" xlink:href="#CMR17-48"/>
       <use transform="translate(91.380954 0)scale(0.996264)" xlink:href="#CMR17-48"/>
       <use transform="translate(137.071431 0)scale(0.996264)" xlink:href="#CMR17-48"/>
      </g>
     </g>
    </g>
    <g id="xtick_6">
     <g id="line2d_6">
      <g>
       <use style="stroke:#000000;stroke-width:0.8;" x="819.087596" xlink:href="#mfc444d16fe" y="225.036"/>
      </g>
     </g>
     <g id="text_6">
      <!-- $\mathdefault{10000}$ -->
      <g transform="translate(799.577628 243.105588)scale(0.16 -0.16)">
       <defs>
        <path d="M 26.59375 63.40625 
C 26.59375 65.5 26.5 65.5 25.09375 65.5 
C 21.203125 61.1875 15.296875 59.796875 9.703125 59.796875 
C 9.40625 59.796875 8.90625 59.796875 8.796875 59.5 
C 8.703125 59.296875 8.703125 59.09375 8.703125 57 
C 11.796875 57 17 57.59375 21 59.984375 
L 21 7.203125 
C 21 3.6875 20.796875 2.5 12.203125 2.5 
L 9.203125 2.5 
L 9.203125 0 
C 14 0 19 0 23.796875 0 
C 28.59375 0 33.59375 0 38.40625 0 
L 38.40625 2.5 
L 35.40625 2.5 
C 26.796875 2.5 26.59375 3.59375 26.59375 7.15625 
z
" id="CMR17-49"/>
       </defs>
       <use transform="scale(0.996264)" xlink:href="#CMR17-49"/>
       <use transform="translate(45.690477 0)scale(0.996264)" xlink:href="#CMR17-48"/>
       <use transform="translate(91.380954 0)scale(0.996264)" xlink:href="#CMR17-48"/>
       <use transform="translate(137.071431 0)scale(0.996264)" xlink:href="#CMR17-48"/>
       <use transform="translate(182.761908 0)scale(0.996264)" xlink:href="#CMR17-48"/>
      </g>
     </g>
    </g>
    <g id="text_7">
     <!-- timestep -->
     <g transform="translate(449.911008 261.274653)scale(0.16 -0.16)">
      <defs>
       <path d="M 16.703125 37 
L 29.703125 37 
L 29.703125 42.765625 
L 16.703125 42.765625 
L 16.703125 55 
L 9.59375 55 
L 9.59375 42.765625 
L 1.703125 42.765625 
L 1.703125 37 
L 9.40625 37 
L 9.40625 11.703125 
C 9.40625 6 10.703125 -1 17.296875 -1 
C 22.296875 -1 26.90625 0.390625 31.296875 2.6875 
L 29.703125 8.5625 
C 27.296875 6.46875 24.40625 5.265625 21.296875 5.265625 
C 16.90625 5.265625 16.703125 10.875 16.703125 13.375 
z
" id="CMSS17-116"/>
       <path d="M 15.296875 65.359375 
L 6.90625 65.359375 
L 6.90625 57 
L 15.296875 57 
z
M 14.796875 42.796875 
L 7.40625 42.796875 
L 7.40625 0 
L 14.796875 0 
z
" id="CMSS17-105"/>
       <path d="M 67 29.328125 
C 67 36.0625 65.296875 44 54.09375 44 
C 46.59375 44 42.09375 39.3125 40.09375 36.421875 
C 38.296875 41.71875 34.09375 44 28.09375 44 
C 21.296875 44 17 40.125 14.703125 37.328125 
L 14.703125 43.09375 
L 7.40625 43.09375 
L 7.40625 0 
L 15 0 
L 15 24.359375 
C 15 30.296875 17.203125 37.9375 24.296875 37.9375 
C 33.40625 37.9375 33.40625 31.5 33.40625 28.578125 
L 33.40625 0 
L 41 0 
L 41 24.359375 
C 41 30.296875 43.203125 37.9375 50.296875 37.9375 
C 59.40625 37.9375 59.40625 31.5 59.40625 28.578125 
L 59.40625 0 
L 67 0 
z
" id="CMSS17-109"/>
       <path d="M 39.09375 21.515625 
C 39.09375 24.84375 38.90625 31.296875 35.703125 36.640625 
C 32.203125 42.390625 26.5 44 22.203125 44 
C 11.796875 44 3 34.1875 3 21.484375 
C 3 9.09375 12.09375 -1 23.59375 -1 
C 28.09375 -1 33.59375 0.296875 38.59375 3.875 
C 38.59375 4.28125 38.40625 6.46875 38.296875 6.5625 
C 38.296875 6.765625 38 9.84375 38 10.25 
C 33.203125 6.359375 27.703125 5.078125 23.703125 5.078125 
C 17.296875 5.078125 10.40625 10.421875 10.09375 21.515625 
z
M 10.90625 27 
C 12.203125 32.5625 16.59375 37.828125 22.203125 37.828125 
C 23.703125 37.828125 30.703125 37.828125 32.5 27 
z
" id="CMSS17-101"/>
       <path d="M 32.203125 41.046875 
C 26.296875 43.859375 21.703125 43.859375 18.703125 43.859375 
C 11.59375 43.859375 3.09375 41.375 3.09375 31.296875 
C 3.09375 21.234375 14.09375 19.03125 17.09375 18.421875 
C 21.703125 17.53125 26.796875 16.53125 26.796875 11.5625 
C 26.796875 5.265625 19.59375 5.265625 18.296875 5.265625 
C 14.296875 5.265625 8.796875 6.359375 3.796875 9.96875 
L 2.59375 3.28125 
C 8.296875 0 13.796875 -1 18.40625 -1 
C 30.703125 -1 33.796875 6.5 33.796875 12.203125 
C 33.796875 17.09375 31 20.390625 29.09375 21.890625 
C 25.796875 24.5 24.59375 24.796875 16.40625 26.5 
C 15 26.703125 10.09375 27.796875 10.09375 32.28125 
C 10.09375 38 16.40625 38 17.796875 38 
C 24.296875 38 28.296875 35.984375 31 34.5 
z
" id="CMSS17-115"/>
       <path d="M 15.09375 5.203125 
C 18.40625 2.015625 22.90625 -0.078125 27.703125 -0.078125 
C 37 -0.078125 45 9.421875 45 22.0625 
C 45 33.734375 39 44 30.40625 44 
C 25.40625 44 19.40625 42.21875 14.90625 38.625 
L 14.90625 43.203125 
L 7.5 43.203125 
L 7.5 -19 
L 15.09375 -19 
z
M 15.09375 32.8125 
C 15.90625 34 19.296875 37.734375 24.796875 37.734375 
C 31.796875 37.734375 37.40625 30.625 37.40625 22.0625 
C 37.40625 12.296875 30.59375 6 23.90625 6 
C 21.90625 6 19.796875 6.484375 17.796875 8.171875 
C 15.09375 10.53125 15.09375 12 15.09375 13.390625 
z
" id="CMSS17-112"/>
      </defs>
      <use transform="scale(0.996264)" xlink:href="#CMSS17-116"/>
      <use transform="translate(33.831567 0)scale(0.996264)" xlink:href="#CMSS17-105"/>
      <use transform="translate(56.01229 0)scale(0.996264)" xlink:href="#CMSS17-109"/>
      <use transform="translate(130.241544 0)scale(0.996264)" xlink:href="#CMSS17-101"/>
      <use transform="translate(171.880366 0)scale(0.996264)" xlink:href="#CMSS17-115"/>
      <use transform="translate(207.793908 0)scale(0.996264)" xlink:href="#CMSS17-116"/>
      <use transform="translate(241.625475 0)scale(0.996264)" xlink:href="#CMSS17-101"/>
      <use transform="translate(283.264297 0)scale(0.996264)" xlink:href="#CMSS17-112"/>
     </g>
    </g>
   </g>
   <g id="matplotlib.axis_2">
    <g id="ytick_1">
     <g id="line2d_7">
      <defs>
       <path d="M 0 0 
L -3.5 0 
" id="mc49ce0b39e" style="stroke:#000000;stroke-width:0.8;"/>
      </defs>
      <g>
       <use style="stroke:#000000;stroke-width:0.8;" x="116.46" xlink:href="#mc49ce0b39e" y="212.3881"/>
      </g>
     </g>
     <g id="text_8">
      <!-- $\mathdefault{2}$ -->
      <g transform="translate(101.656013 217.922895)scale(0.16 -0.16)">
       <use transform="scale(0.996264)" xlink:href="#CMR17-50"/>
      </g>
     </g>
    </g>
    <g id="ytick_2">
     <g id="line2d_8">
      <g>
       <use style="stroke:#000000;stroke-width:0.8;" x="116.46" xlink:href="#mc49ce0b39e" y="169.140205"/>
      </g>
     </g>
     <g id="text_9">
      <!-- $\mathdefault{3}$ -->
      <g transform="translate(101.656013 174.675)scale(0.16 -0.16)">
       <defs>
        <path d="M 22.09375 33.703125 
C 31 33.703125 34.90625 25.96875 34.90625 17.03125 
C 34.90625 5 28.5 0.390625 22.703125 0.390625 
C 17.40625 0.390625 8.796875 3.03125 6.09375 10.828125 
C 6.59375 10.625 7.09375 10.625 7.59375 10.625 
C 10 10.625 11.796875 12.21875 11.796875 14.8125 
C 11.796875 17.703125 9.59375 19 7.59375 19 
C 5.90625 19 3.296875 18.203125 3.296875 14.46875 
C 3.296875 5.234375 12.296875 -2 22.90625 -2 
C 34 -2 42.5 6.71875 42.5 16.953125 
C 42.5 26.671875 34.5 33.703125 25 34.796875 
C 32.59375 36.375 39.90625 43.0625 39.90625 52.015625 
C 39.90625 59.6875 32 65.296875 23 65.296875 
C 13.90625 65.296875 5.90625 59.828125 5.90625 52.015625 
C 5.90625 48.59375 8.5 48 9.796875 48 
C 11.90625 48 13.703125 49.296875 13.703125 51.890625 
C 13.703125 54.46875 11.90625 55.765625 9.796875 55.765625 
C 9.40625 55.765625 8.90625 55.765625 8.5 55.578125 
C 11.40625 61.859375 19.296875 63 22.796875 63 
C 26.296875 63 32.90625 61.328125 32.90625 51.875 
C 32.90625 49.109375 32.5 44.1875 29.09375 39.84375 
C 26.09375 36 22.703125 36 19.40625 35.6875 
C 18.90625 35.6875 16.59375 35.453125 16.203125 35.453125 
C 15.5 35.359375 15.09375 35.265625 15.09375 34.5 
C 15.09375 33.796875 15.203125 33.703125 17.203125 33.703125 
z
" id="CMR17-51"/>
       </defs>
       <use transform="scale(0.996264)" xlink:href="#CMR17-51"/>
      </g>
     </g>
    </g>
    <g id="ytick_3">
     <g id="line2d_9">
      <g>
       <use style="stroke:#000000;stroke-width:0.8;" x="116.46" xlink:href="#mc49ce0b39e" y="125.89231"/>
      </g>
     </g>
     <g id="text_10">
      <!-- $\mathdefault{4}$ -->
      <g transform="translate(101.656013 131.427105)scale(0.16 -0.16)">
       <use transform="scale(0.996264)" xlink:href="#CMR17-52"/>
      </g>
     </g>
    </g>
    <g id="ytick_4">
     <g id="line2d_10">
      <g>
       <use style="stroke:#000000;stroke-width:0.8;" x="116.46" xlink:href="#mc49ce0b39e" y="82.644415"/>
      </g>
     </g>
     <g id="text_11">
      <!-- $\mathdefault{5}$ -->
      <g transform="translate(101.656013 88.179209)scale(0.16 -0.16)">
       <defs>
        <path d="M 11.40625 57.6875 
C 12.40625 57.28125 16.5 56 20.703125 56 
C 30 56 35.09375 61.109375 38 64.0625 
C 38 64.953125 38 65.5 37.40625 65.5 
C 37.296875 65.5 37.09375 65.5 36.296875 65.046875 
C 32.796875 63.40625 28.703125 62.078125 23.703125 62.078125 
C 20.703125 62.078125 16.203125 62.484375 11.296875 64.671875 
C 10.203125 65.171875 10 65.171875 9.90625 65.171875 
C 9.40625 65.171875 9.296875 65.0625 9.296875 63.078125 
L 9.296875 34.421875 
C 9.296875 32.640625 9.296875 32.140625 10.296875 32.140625 
C 10.796875 32.140625 11 32.34375 11.5 33.03125 
C 14.703125 37.515625 19.09375 39.40625 24.09375 39.40625 
C 27.59375 39.40625 35.09375 37.21875 35.09375 20.140625 
C 35.09375 16.953125 35.09375 11.171875 32.09375 6.578125 
C 29.59375 2.484375 25.703125 0.390625 21.40625 0.390625 
C 14.796875 0.390625 8.09375 5 6.296875 12.71875 
C 6.703125 12.609375 7.5 12.421875 7.90625 12.421875 
C 9.203125 12.421875 11.703125 13.125 11.703125 16.21875 
C 11.703125 18.90625 9.796875 20 7.90625 20 
C 5.59375 20 4.09375 18.59375 4.09375 15.796875 
C 4.09375 7.09375 11 -2 21.59375 -2 
C 31.90625 -2 41.703125 6.875 41.703125 19.75 
C 41.703125 31.71875 33.90625 41 24.203125 41 
C 19.09375 41 14.796875 39.109375 11.40625 35.53125 
z
" id="CMR17-53"/>
       </defs>
       <use transform="scale(0.996264)" xlink:href="#CMR17-53"/>
      </g>
     </g>
    </g>
    <g id="text_12">
     <!-- $I_x$ -->
     <g transform="translate(94.556537 147.876516)rotate(-90)scale(0.16 -0.16)">
      <defs>
       <path d="M 36.796875 60.625 
C 37.703125 64.109375 37.90625 65.109375 45.203125 65.109375 
C 47.40625 65.109375 48.203125 65.109375 48.203125 67 
C 48.203125 68 47.09375 68 46.796875 68 
C 45 68 42.796875 68 41 68 
L 28.703125 68 
C 26.703125 68 24.40625 68 22.40625 68 
C 21.59375 68 20.5 68 20.5 66.109375 
C 20.5 65.109375 21.296875 65.109375 23.296875 65.109375 
C 29.5 65.109375 29.5 64.3125 29.5 63.21875 
C 29.5 62.53125 29.296875 61.921875 29.09375 61.03125 
L 15.59375 7.375 
C 14.703125 3.890625 14.5 2.890625 7.203125 2.890625 
C 5 2.890625 4.09375 2.890625 4.09375 1 
C 4.09375 0 5.09375 0 5.59375 0 
C 7.40625 0 9.59375 0 11.40625 0 
L 23.703125 0 
C 25.703125 0 27.90625 0 29.90625 0 
C 30.703125 0 31.90625 0 31.90625 1.796875 
C 31.90625 2.890625 31.296875 2.890625 29.09375 2.890625 
C 22.90625 2.890625 22.90625 3.6875 22.90625 4.875 
C 22.90625 5.078125 22.90625 5.578125 23.296875 7.171875 
z
" id="CMMI12-73"/>
       <path d="M 47.40625 40.71875 
C 44.203125 40.109375 43 37.71875 43 35.828125 
C 43 33.421875 44.90625 32.625 46.296875 32.625 
C 49.296875 32.625 51.40625 35.21875 51.40625 37.921875 
C 51.40625 42.109375 46.59375 44 42.40625 44 
C 36.296875 44 32.90625 38.015625 32 36.125 
C 29.703125 44 23.5 44 21.703125 44 
C 11.5 44 6.09375 30.9375 6.09375 28.734375 
C 6.09375 28.34375 6.5 27.84375 7.203125 27.84375 
C 8 27.84375 8.203125 28.4375 8.40625 28.84375 
C 11.796875 39.921875 18.5 42.015625 21.40625 42.015625 
C 25.90625 42.015625 26.796875 37.8125 26.796875 35.421875 
C 26.796875 33.234375 26.203125 30.9375 25 26.140625 
L 21.59375 12.46875 
C 20.09375 6.484375 17.203125 1 11.90625 1 
C 11.40625 1 8.90625 1 6.796875 2.296875 
C 10.40625 3 11.203125 5.984375 11.203125 7.1875 
C 11.203125 9.1875 9.703125 10.375 7.796875 10.375 
C 5.40625 10.375 2.796875 8.28125 2.796875 5.09375 
C 2.796875 0.890625 7.5 -1 11.796875 -1 
C 16.59375 -1 20 2.796875 22.09375 6.890625 
C 23.703125 1 28.703125 -1 32.40625 -1 
C 42.59375 -1 48 12.078125 48 14.265625 
C 48 14.765625 47.59375 15.171875 47 15.171875 
C 46.09375 15.171875 46 14.671875 45.703125 13.875 
C 43 5.09375 37.203125 1 32.703125 1 
C 29.203125 1 27.296875 3.59375 27.296875 7.6875 
C 27.296875 9.875 27.703125 11.46875 29.296875 18.0625 
L 32.796875 31.625 
C 34.296875 37.625 37.703125 42.015625 42.296875 42.015625 
C 42.5 42.015625 45.296875 42.015625 47.40625 40.71875 
z
" id="CMMI12-120"/>
      </defs>
      <use transform="scale(0.996264)" xlink:href="#CMMI12-73"/>
      <use transform="translate(43.024176 -14.943915)scale(0.697382)" xlink:href="#CMMI12-120"/>
     </g>
    </g>
   </g>
   <g id="line2d_11">
    <path clip-path="url(#pf477bbc297)" d="M 149.280545 192.703572 
L 149.615449 210.419286 
L 149.950353 201.899341 
L 150.285256 195.968192 
L 150.62016 189.298801 
L 150.955063 183.187538 
L 151.289967 184.167247 
L 151.62487 180.582799 
L 151.959774 175.699805 
L 152.294677 176.478618 
L 152.629581 174.655614 
L 152.964484 163.917923 
L 153.299388 159.013154 
L 153.634291 151.109908 
L 153.969195 148.100082 
L 154.304098 150.078902 
L 154.639002 147.074264 
L 154.973905 146.974252 
L 155.308809 142.492122 
L 155.643712 141.740122 
L 155.978616 143.988712 
L 156.313519 139.200277 
L 156.648423 136.218477 
L 156.983327 132.884962 
L 157.31823 132.356696 
L 157.653134 136.572791 
L 157.988037 132.717693 
L 158.322941 133.515005 
L 158.657844 131.7772 
L 158.992748 131.521612 
L 159.327651 133.57662 
L 159.662555 132.556353 
L 159.997458 131.384259 
L 160.332362 128.8165 
L 160.667265 130.04007 
L 161.002169 129.031232 
L 161.337072 127.078989 
L 161.671976 126.578402 
L 162.006879 125.740274 
L 162.341783 127.087813 
L 162.676686 126.407857 
L 176.072827 118.804643 
L 189.468968 124.515892 
L 202.865109 118.431972 
L 216.26125 127.017212 
L 229.657391 126.456244 
L 243.053532 133.529657 
L 256.449673 133.073887 
L 269.845814 130.511988 
L 283.241955 129.386547 
L 296.638096 131.451449 
L 310.034237 127.300212 
L 323.430378 129.435694 
L 336.826519 129.765458 
L 350.22266 128.661907 
L 363.618801 131.105581 
L 377.014942 127.545073 
L 390.411083 128.21622 
L 403.807224 129.436301 
L 417.203365 132.669274 
L 430.599506 131.093497 
L 443.995647 128.620608 
L 457.391788 126.219952 
L 470.787929 127.675967 
L 484.184071 127.50785 
L 497.580212 130.271375 
L 510.976353 123.218828 
L 524.372494 124.168658 
L 537.768635 125.733774 
L 551.164776 126.713122 
L 564.560917 125.316543 
L 577.957058 124.951834 
L 591.353199 125.407998 
L 604.74934 125.537113 
L 618.145481 124.391943 
L 631.541622 124.511819 
L 644.937763 126.539884 
L 658.333904 128.142545 
L 671.730045 126.107729 
L 685.126186 127.018256 
L 698.522327 127.051844 
L 711.918468 126.151904 
L 725.314609 125.193023 
L 738.71075 127.261451 
L 752.106891 126.549226 
L 765.503032 128.835225 
L 778.899173 125.444792 
L 792.295314 128.541303 
L 805.691455 123.157678 
" style="fill:none;stroke:#ff0000;stroke-linecap:square;stroke-width:1.5;"/>
   </g>
   <g id="line2d_12">
    <path clip-path="url(#pf477bbc297)" d="M 149.280545 196.211272 
L 149.615449 197.322925 
L 149.950353 204.244727 
L 150.285256 200.68769 
L 150.62016 194.26863 
L 150.955063 204.049656 
L 151.289967 196.224985 
L 151.62487 193.460001 
L 151.959774 190.395893 
L 152.294677 188.188361 
L 152.629581 195.897432 
L 152.964484 192.477454 
L 153.299388 182.36395 
L 153.634291 179.362977 
L 153.969195 164.329444 
L 154.304098 167.576099 
L 154.639002 163.42922 
L 154.973905 163.826311 
L 155.308809 159.037492 
L 155.643712 156.849963 
L 155.978616 156.622376 
L 156.313519 158.145036 
L 156.648423 160.455372 
L 156.983327 148.550283 
L 157.31823 145.894164 
L 157.653134 148.23975 
L 157.988037 143.64234 
L 158.322941 144.590122 
L 158.657844 139.421134 
L 158.992748 151.446525 
L 159.327651 146.927573 
L 159.662555 150.291387 
L 159.997458 154.406599 
L 160.332362 151.936474 
L 160.667265 144.15513 
L 161.002169 145.383288 
L 161.337072 141.526106 
L 161.671976 147.507997 
L 162.006879 144.439744 
L 162.341783 141.955002 
L 162.676686 141.253819 
L 176.072827 132.723851 
L 189.468968 123.768596 
L 202.865109 119.839364 
L 216.26125 122.435446 
L 229.657391 125.896251 
L 243.053532 126.182542 
L 256.449673 125.223286 
L 269.845814 123.293564 
L 283.241955 126.12956 
L 296.638096 125.055292 
L 310.034237 126.163521 
L 323.430378 123.127737 
L 336.826519 123.894587 
L 350.22266 120.024702 
L 363.618801 128.738513 
L 377.014942 127.566587 
L 390.411083 124.115841 
L 403.807224 123.025681 
L 417.203365 127.012007 
L 430.599506 124.494729 
L 443.995647 124.025586 
L 457.391788 124.012917 
L 470.787929 124.993028 
L 484.184071 124.133754 
L 497.580212 125.622483 
L 510.976353 122.912563 
L 524.372494 129.116524 
L 537.768635 126.960373 
L 551.164776 127.021064 
L 564.560917 124.873394 
L 577.957058 124.700957 
L 591.353199 121.209628 
L 604.74934 127.347361 
L 618.145481 123.389736 
L 631.541622 125.545492 
L 644.937763 124.057001 
L 658.333904 128.105804 
L 671.730045 125.511076 
L 685.126186 122.561541 
L 698.522327 120.384599 
L 711.918468 120.556915 
L 725.314609 123.740075 
L 738.71075 126.756538 
L 752.106891 124.137127 
L 765.503032 122.985 
L 778.899173 124.604715 
L 792.295314 123.53517 
L 805.691455 124.410561 
" style="fill:none;stroke:#ffa500;stroke-linecap:square;stroke-width:1.5;"/>
   </g>
   <g id="line2d_13">
    <path clip-path="url(#pf477bbc297)" d="M 149.280545 195.773341 
L 149.615449 196.588048 
L 149.950353 203.740818 
L 150.285256 200.27431 
L 150.62016 193.487892 
L 150.955063 202.538472 
L 151.289967 194.885819 
L 151.62487 191.871282 
L 151.959774 189.244507 
L 152.294677 186.454725 
L 152.629581 194.43976 
L 152.964484 190.965671 
L 153.299388 179.376656 
L 153.634291 176.348217 
L 153.969195 160.820856 
L 154.304098 164.160421 
L 154.639002 160.526951 
L 154.973905 161.706901 
L 155.308809 154.992345 
L 155.643712 153.052553 
L 155.978616 152.637473 
L 156.313519 153.836834 
L 156.648423 154.699169 
L 156.983327 141.380758 
L 157.31823 138.48858 
L 157.653134 140.386977 
L 157.988037 135.021153 
L 158.322941 134.894459 
L 158.657844 130.307039 
L 158.992748 140.05615 
L 159.327651 135.871552 
L 159.662555 137.88342 
L 159.997458 142.302996 
L 160.332362 140.150651 
L 160.667265 132.960699 
L 161.002169 132.950048 
L 161.337072 129.779043 
L 161.671976 134.160644 
L 162.006879 128.458683 
L 162.341783 127.759869 
L 162.676686 127.388009 
L 176.072827 114.720187 
L 189.468968 98.514139 
L 202.865109 93.78333 
L 216.26125 96.690658 
L 229.657391 99.264722 
L 243.053532 97.99835 
L 256.449673 98.769601 
L 269.845814 97.92381 
L 283.241955 98.144264 
L 296.638096 96.830664 
L 310.034237 99.313951 
L 323.430378 95.88071 
L 336.826519 96.601831 
L 350.22266 93.633845 
L 363.618801 100.189787 
L 377.014942 99.401202 
L 390.411083 97.632387 
L 403.807224 94.972797 
L 417.203365 100.662629 
L 430.599506 95.276577 
L 443.995647 95.493865 
L 457.391788 95.790311 
L 470.787929 98.689859 
L 484.184071 97.187972 
L 497.580212 97.408796 
L 510.976353 95.738084 
L 524.372494 101.755415 
L 537.768635 99.288361 
L 551.164776 98.339955 
L 564.560917 96.984701 
L 577.957058 98.293153 
L 591.353199 94.281898 
L 604.74934 99.642693 
L 618.145481 95.384906 
L 631.541622 98.941121 
L 644.937763 98.072212 
L 658.333904 100.111612 
L 671.730045 97.269436 
L 685.126186 96.99299 
L 698.522327 93.174911 
L 711.918468 96.768951 
L 725.314609 94.232155 
L 738.71075 100.172526 
L 752.106891 95.821524 
L 765.503032 96.449364 
L 778.899173 96.695685 
L 792.295314 95.02304 
L 805.691455 97.657394 
" style="fill:none;stroke:#000000;stroke-linecap:square;stroke-width:1.5;"/>
   </g>
   <g id="line2d_14">
    <path clip-path="url(#pf477bbc297)" d="M 149.280545 200.885893 
L 149.615449 217.418727 
L 149.950353 213.55167 
L 150.285256 208.198958 
L 150.62016 203.620462 
L 150.955063 200.278732 
L 151.289967 199.230494 
L 151.62487 197.591895 
L 151.959774 193.138507 
L 152.294677 194.584823 
L 152.629581 192.43594 
L 152.964484 183.494077 
L 153.299388 179.131682 
L 153.634291 174.388684 
L 153.969195 171.291694 
L 154.304098 171.796529 
L 154.639002 169.290823 
L 154.973905 168.762856 
L 155.308809 164.487434 
L 155.643712 163.711433 
L 155.978616 165.623355 
L 156.313519 161.226331 
L 156.648423 158.699039 
L 156.983327 156.524673 
L 157.31823 155.311324 
L 157.653134 160.026629 
L 157.988037 155.764026 
L 158.322941 156.699198 
L 158.657844 154.60064 
L 158.992748 154.013577 
L 159.327651 156.033334 
L 159.662555 155.702533 
L 159.997458 154.945924 
L 160.332362 152.035757 
L 160.667265 153.347823 
L 161.002169 152.158502 
L 161.337072 150.868945 
L 161.671976 150.583619 
L 162.006879 150.30526 
L 162.341783 151.623986 
L 162.676686 152.421654 
L 176.072827 146.09474 
L 189.468968 152.896719 
L 202.865109 147.263007 
L 216.26125 155.837684 
L 229.657391 156.134293 
L 243.053532 163.396319 
L 256.449673 161.781197 
L 269.845814 159.705879 
L 283.241955 159.623805 
L 296.638096 161.357114 
L 310.034237 157.142296 
L 323.430378 159.562801 
L 336.826519 159.742565 
L 350.22266 158.079867 
L 363.618801 161.597852 
L 377.014942 158.662734 
L 390.411083 158.494339 
L 403.807224 159.005808 
L 417.203365 162.266424 
L 430.599506 161.041071 
L 443.995647 159.464775 
L 457.391788 156.470357 
L 470.787929 158.175585 
L 484.184071 158.118698 
L 497.580212 160.580527 
L 510.976353 153.926908 
L 524.372494 154.784743 
L 537.768635 156.41602 
L 551.164776 157.01187 
L 564.560917 155.07846 
L 577.957058 155.63973 
L 591.353199 156.807188 
L 604.74934 156.354487 
L 618.145481 155.065829 
L 631.541622 155.40629 
L 644.937763 157.777995 
L 658.333904 158.455263 
L 671.730045 156.62932 
L 685.126186 157.932391 
L 698.522327 157.857794 
L 711.918468 156.649895 
L 725.314609 155.692801 
L 738.71075 158.356817 
L 752.106891 157.356716 
L 765.503032 160.251936 
L 778.899173 156.179505 
L 792.295314 159.26752 
L 805.691455 154.102644 
" style="fill:none;stroke:#0000ff;stroke-linecap:square;stroke-width:1.5;"/>
   </g>
   <g id="line2d_15">
    <path clip-path="url(#pf477bbc297)" d="M 149.280545 90.653186 
L 149.615449 90.653186 
L 149.950353 90.653186 
L 150.285256 90.653186 
L 150.62016 90.653186 
L 150.955063 90.653186 
L 151.289967 90.653186 
L 151.62487 90.653186 
L 151.959774 90.653186 
L 152.294677 90.653186 
L 152.629581 90.653186 
L 152.964484 90.653186 
L 153.299388 90.653186 
L 153.634291 90.653186 
L 153.969195 90.653186 
L 154.304098 90.653186 
L 154.639002 90.653186 
L 154.973905 90.653186 
L 155.308809 90.653186 
L 155.643712 90.653186 
L 155.978616 90.653186 
L 156.313519 90.653186 
L 156.648423 90.653186 
L 156.983327 90.653186 
L 157.31823 90.653186 
L 157.653134 90.653186 
L 157.988037 90.653186 
L 158.322941 90.653186 
L 158.657844 90.653186 
L 158.992748 90.653186 
L 159.327651 90.653186 
L 159.662555 90.653186 
L 159.997458 90.653186 
L 160.332362 90.653186 
L 160.667265 90.653186 
L 161.002169 90.653186 
L 161.337072 90.653186 
L 161.671976 90.653186 
L 162.006879 90.653186 
L 162.341783 90.653186 
L 162.676686 90.653186 
L 176.072827 90.653186 
L 189.468968 90.653186 
L 202.865109 90.653186 
L 216.26125 90.653186 
L 229.657391 90.653186 
L 243.053532 90.653186 
L 256.449673 90.653186 
L 269.845814 90.653186 
L 283.241955 90.653186 
L 296.638096 90.653186 
L 310.034237 90.653186 
L 323.430378 90.653186 
L 336.826519 90.653186 
L 350.22266 90.653186 
L 363.618801 90.653186 
L 377.014942 90.653186 
L 390.411083 90.653186 
L 403.807224 90.653186 
L 417.203365 90.653186 
L 430.599506 90.653186 
L 443.995647 90.653186 
L 457.391788 90.653186 
L 470.787929 90.653186 
L 484.184071 90.653186 
L 497.580212 90.653186 
L 510.976353 90.653186 
L 524.372494 90.653186 
L 537.768635 90.653186 
L 551.164776 90.653186 
L 564.560917 90.653186 
L 577.957058 90.653186 
L 591.353199 90.653186 
L 604.74934 90.653186 
L 618.145481 90.653186 
L 631.541622 90.653186 
L 644.937763 90.653186 
L 658.333904 90.653186 
L 671.730045 90.653186 
L 685.126186 90.653186 
L 698.522327 90.653186 
L 711.918468 90.653186 
L 725.314609 90.653186 
L 738.71075 90.653186 
L 752.106891 90.653186 
L 765.503032 90.653186 
L 778.899173 90.653186 
L 792.295314 90.653186 
L 805.691455 90.653186 
" style="fill:none;stroke:#008000;stroke-linecap:square;stroke-width:1.5;"/>
   </g>
   <g id="line2d_16">
    <path clip-path="url(#pf477bbc297)" d="M 149.280545 65.073273 
L 805.691455 65.073273 
" style="fill:none;stroke:#000000;stroke-dasharray:5.55,2.4;stroke-dashoffset:0;stroke-width:1.5;"/>
   </g>
   <g id="line2d_17">
    <path clip-path="url(#pf477bbc297)" d="M 149.280545 93.827025 
L 805.691455 93.827025 
" style="fill:none;stroke:#008000;stroke-dasharray:5.55,2.4;stroke-dashoffset:0;stroke-width:1.5;"/>
   </g>
   <g id="line2d_18">
    <path clip-path="url(#pf477bbc297)" d="M 149.280545 94.62327 
L 805.691455 94.62327 
" style="fill:none;stroke:#008000;stroke-dasharray:5.55,2.4;stroke-dashoffset:0;stroke-width:1.5;"/>
   </g>
   <g id="patch_3">
    <path d="M 116.46 225.036 
L 116.46 57.456 
" style="fill:none;stroke:#000000;stroke-linecap:square;stroke-linejoin:miter;stroke-width:0.8;"/>
   </g>
   <g id="patch_4">
    <path d="M 838.512 225.036 
L 838.512 57.456 
" style="fill:none;stroke:#000000;stroke-linecap:square;stroke-linejoin:miter;stroke-width:0.8;"/>
   </g>
   <g id="patch_5">
    <path d="M 116.46 225.036 
L 838.512 225.036 
" style="fill:none;stroke:#000000;stroke-linecap:square;stroke-linejoin:miter;stroke-width:0.8;"/>
   </g>
   <g id="patch_6">
    <path d="M 116.46 57.456 
L 838.512 57.456 
" style="fill:none;stroke:#000000;stroke-linecap:square;stroke-linejoin:miter;stroke-width:0.8;"/>
   </g>
   <g id="text_13">
    <!-- Map X -->
    <g transform="translate(451.734029 51.456)scale(0.192 -0.192)">
     <defs>
      <path d="M 49.90625 37.046875 
L 45.09375 23.015625 
C 44.296875 20.421875 41.59375 12.359375 41 9.171875 
L 40.90625 9.171875 
C 40.59375 11.171875 40 13.265625 38.40625 18.34375 
C 37.5 21.328125 36.5 24.40625 35.5 27.203125 
L 20.703125 69 
L 9 69 
L 9 0 
L 16.796875 0 
L 16.796875 60.9375 
L 16.90625 60.9375 
C 16.90625 60.84375 17.796875 56.453125 23.90625 39.046875 
L 37.09375 1.5 
L 44.5 1.5 
L 56.40625 34.859375 
C 57.203125 37.15625 59.703125 44.421875 60.796875 47.90625 
C 61.796875 50.890625 64.296875 58.25 64.90625 61.140625 
L 65 61.140625 
L 65 0 
L 72.90625 0 
L 72.90625 69 
L 61.296875 69 
z
" id="CMSS17-77"/>
      <path d="M 37.59375 27.984375 
C 37.59375 37.375 30.90625 43.875 21.90625 43.875 
C 17.5 43.875 12.703125 43.078125 7.203125 39.890625 
L 7.796875 33.359375 
C 10.296875 35.125 14.59375 38 21.796875 38 
C 26.90625 38 30 34.0625 30 27.84375 
L 30 24 
C 14 24 4 19.34375 4 11.34375 
C 4 7.203125 6.5 -1 14.796875 -1 
C 16.296875 -1 24.40625 -1 30.203125 3.390625 
L 30.203125 -0.296875 
L 37.59375 -0.296875 
z
M 30 12.75 
C 30 10.953125 30 8.5625 27 6.78125 
C 24.40625 5.078125 21.09375 5.078125 19.703125 5.078125 
C 14.703125 5.078125 11.296875 7.984375 11.296875 11.625 
C 11.296875 18.921875 26.90625 18.921875 30 18.921875 
z
" id="CMSS17-97"/>
      <path d="M 34.59375 36.390625 
L 57.203125 69 
L 48 69 
L 30.5 43.15625 
L 12.5 69 
L 2.59375 69 
L 26.40625 36.390625 
L 1.296875 0 
L 10.5 0 
L 30.5 30.328125 
L 51.203125 0 
L 61.09375 0 
z
" id="CMSS17-88"/>
     </defs>
     <use transform="scale(0.996264)" xlink:href="#CMSS17-77"/>
     <use transform="translate(81.67603 0)scale(0.996264)" xlink:href="#CMSS17-97"/>
     <use transform="translate(126.597951 0)scale(0.996264)" xlink:href="#CMSS17-112"/>
     <use transform="translate(206.032006 0)scale(0.996264)" xlink:href="#CMSS17-88"/>
    </g>
   </g>
   <g id="legend_1">
    <g id="patch_7">
     <path d="M 572.218459 251.227873 
L 827.312 251.227873 
Q 830.512 251.227873 830.512 248.027873 
L 830.512 68.656 
Q 830.512 65.456 827.312 65.456 
L 572.218459 65.456 
Q 569.018459 65.456 569.018459 68.656 
L 569.018459 248.027873 
Q 569.018459 251.227873 572.218459 251.227873 
z
" style="fill:#ffffff;opacity:0.8;stroke:#cccccc;stroke-linejoin:miter;"/>
    </g>
    <g id="line2d_19">
     <path d="M 575.418459 80.409163 
L 607.418459 80.409163 
" style="fill:none;stroke:#ff0000;stroke-linecap:square;stroke-width:1.5;"/>
    </g>
    <g id="line2d_20"/>
    <g id="text_14">
     <!-- $I_x(U|\Pi^{(1)})$, CxSOM -->
     <g transform="translate(620.218459 86.009163)scale(0.16 -0.16)">
      <defs>
       <path d="M 30.59375 -24.390625 
C 30.59375 -24.296875 30.59375 -24.09375 30.296875 -23.796875 
C 25.703125 -19.125 13.40625 -6.359375 13.40625 24.703125 
C 13.40625 55.765625 25.5 68.421875 30.40625 73.390625 
C 30.40625 73.5 30.59375 73.703125 30.59375 74 
C 30.59375 74.296875 30.296875 74.5 29.90625 74.5 
C 28.796875 74.5 20.296875 67.125 15.40625 56.15625 
C 10.40625 45.109375 9 34.359375 9 24.8125 
C 9 17.625 9.703125 5.484375 15.703125 -7.359375 
C 20.5 -17.734375 28.703125 -25 29.90625 -25 
C 30.40625 -25 30.59375 -24.796875 30.59375 -24.390625 
z
" id="CMR17-40"/>
       <path d="M 50.59375 23.03125 
C 47.09375 9.078125 35.5 0.890625 26.09375 0.890625 
C 18.90625 0.890625 14 5.671875 14 13.921875 
C 14 14.3125 14 17.296875 15.09375 21.671875 
L 24.90625 60.734375 
C 25.796875 64.109375 26 65.109375 33.09375 65.109375 
C 34.90625 65.109375 35.90625 65.109375 35.90625 66.90625 
C 35.90625 68 35 68 34.40625 68 
C 32.59375 68 30.5 68 28.59375 68 
L 16.796875 68 
C 14.90625 68 12.796875 68 10.90625 68 
C 10.203125 68 9 68 9 66.109375 
C 9 65.109375 9.703125 65.109375 11.59375 65.109375 
C 17.59375 65.109375 17.59375 64.3125 17.59375 63.21875 
C 17.59375 62.625 16.90625 59.75 16.40625 58.046875 
L 7.703125 23.25 
C 7.40625 22.15625 6.796875 19.46875 6.796875 16.796875 
C 6.796875 5.84375 14.703125 -2 25.59375 -2 
C 35.703125 -2 46.90625 6 52 18.703125 
C 52.703125 20.390625 53.59375 23.90625 54.203125 26.59375 
C 55.203125 30.203125 57.296875 39 58 41.59375 
L 61.796875 56.609375 
C 63.09375 61.8125 63.90625 65.109375 72.703125 65.109375 
C 73.5 65.203125 73.90625 66 73.90625 66.90625 
C 73.90625 68 73 68 72.59375 68 
C 71.203125 68 69.40625 68 68 68 
L 63.296875 68 
C 57.09375 68 53.90625 68 53.796875 68 
C 53.203125 68 52 68 52 66.109375 
C 52 65.109375 52.796875 65.109375 53.5 65.109375 
C 59.5 65.109375 59.90625 62.8125 59.90625 61.015625 
C 59.90625 60.125 59.90625 59.8125 59.5 58.421875 
z
" id="CMMI12-85"/>
       <path d="M 15.90625 71.40625 
C 15.90625 73.203125 15.90625 75 13.90625 75 
C 11.90625 75 11.90625 73.203125 11.90625 71.40625 
L 11.90625 -21.40625 
C 11.90625 -23.203125 11.90625 -25 13.90625 -25 
C 15.90625 -25 15.90625 -23.203125 15.90625 -21.40625 
z
" id="CMSY10-106"/>
       <path d="M 56.09375 60.90625 
C 56.09375 65.40625 57.203125 65.40625 64.09375 65.40625 
L 64.09375 68 
L 5.09375 68 
L 5.09375 65.40625 
C 12 65.40625 13.09375 65.40625 13.09375 60.90625 
L 13.09375 7 
C 13.09375 2.5 12 2.5 5.09375 2.5 
L 5.09375 0 
C 8 0 13.296875 0 16.40625 0 
C 19.5 0 24.796875 0 27.703125 0 
L 27.703125 2.5 
C 20.796875 2.5 19.703125 2.5 19.703125 7 
L 19.703125 65.40625 
L 49.5 65.40625 
L 49.5 7 
C 49.5 2.5 48.40625 2.5 41.5 2.5 
L 41.5 0 
C 44.40625 0 49.703125 0 52.796875 0 
C 55.90625 0 61.203125 0 64.09375 0 
L 64.09375 2.5 
C 57.203125 2.5 56.09375 2.5 56.09375 7 
z
" id="CMR17-5"/>
       <path d="M 26.296875 24.703125 
C 26.296875 31.875 25.59375 44.015625 19.59375 56.859375 
C 14.796875 67.234375 6.59375 74.5 5.40625 74.5 
C 5.09375 74.5 4.703125 74.390625 4.703125 73.890625 
C 4.703125 73.703125 4.796875 73.59375 4.90625 73.390625 
C 9.703125 68.40625 21.90625 55.75 21.90625 24.75 
C 21.90625 -6.359375 9.796875 -19.015625 4.90625 -24.015625 
C 4.796875 -24.203125 4.703125 -24.3125 4.703125 -24.5 
C 4.703125 -25 5.09375 -25 5.40625 -25 
C 6.5 -25 15 -17.625 19.90625 -6.65625 
C 24.90625 4.390625 26.296875 15.140625 26.296875 24.703125 
z
" id="CMR17-41"/>
       <path d="M 17 0.09375 
L 17 7.96875 
L 9 7.96875 
L 9 0 
L 11.5 0 
L 8.90625 -12.5 
L 12.90625 -12.5 
z
" id="CMSS17-44"/>
       <path d="M 54.703125 11.15625 
C 48 6.671875 44.90625 5.375 36.796875 5.375 
C 22.796875 5.375 14.59375 20.359375 14.59375 34.046875 
C 14.59375 48.625 23 63 37.203125 63 
C 43.59375 63 47.796875 61.21875 52.90625 58.046875 
L 54.296875 65.890625 
C 49.5 68.28125 43.40625 69.375 37.296875 69.375 
C 18.09375 69.375 6.203125 51.8125 6.203125 34.046875 
C 6.203125 14.484375 20.296875 -1 36.296875 -1 
C 44.90625 -1 47.90625 -0.296875 55.296875 4.375 
z
" id="CMSS17-67"/>
       <path d="M 24.796875 22.09375 
L 41.5 42.796875 
L 32.796875 42.796875 
L 21.296875 27.765625 
L 9.40625 42.796875 
L 0.5 42.796875 
L 17.796875 22.09375 
L 0 0 
L 8.796875 0 
L 21.296875 17.515625 
L 34.296875 0 
L 43.09375 0 
z
" id="CMSS17-120"/>
       <path d="M 43.703125 65.140625 
C 39.296875 67.71875 34.5 70 26.40625 70 
C 13.5 70 5.203125 60.609375 5.203125 51.03125 
C 5.203125 47.265625 6.296875 43.015625 10.203125 38.671875 
C 14.09375 34.3125 18.5 33.140625 24.09375 31.765625 
C 26.40625 31.15625 30.296875 30.0625 31 29.78125 
C 36.59375 27.609375 39.296875 22.5625 39.296875 17.8125 
C 39.296875 11.59375 34.40625 4.96875 25.703125 4.96875 
C 22.703125 4.96875 13.90625 4.96875 5.59375 12.796875 
L 4.203125 4.96875 
C 12.40625 -1 21.296875 -2 25.796875 -2 
C 38.09375 -2 46.90625 7.625 46.90625 18.53125 
C 46.90625 22.5 45.703125 27.546875 41.5 32.203125 
C 37.40625 36.671875 33.796875 37.65625 25.59375 39.828125 
C 20.90625 41.03125 17.90625 41.828125 15.40625 44.890625 
C 13.703125 47.078125 12.796875 49.15625 12.796875 51.828125 
C 12.796875 57.390625 17.59375 63.4375 26.40625 63.4375 
C 30.796875 63.4375 36.5 62.53125 42.296875 57.1875 
z
" id="CMSS17-83"/>
       <path d="M 64 34.03125 
C 64 54.734375 50.296875 70.265625 34.59375 70.265625 
C 18.90625 70.265625 5.203125 54.640625 5.203125 34.03125 
C 5.203125 13.234375 19.09375 -2 34.59375 -2 
C 50.09375 -2 64 13.234375 64 34.03125 
z
M 34.59375 4.265625 
C 23.59375 4.265625 13.59375 16.515625 13.59375 35.328125 
C 13.59375 53.640625 24.203125 64 34.59375 64 
C 45 64 55.59375 53.640625 55.59375 35.328125 
C 55.59375 16.421875 45.5 4.265625 34.59375 4.265625 
z
" id="CMSS17-79"/>
      </defs>
      <use transform="scale(0.996264)" xlink:href="#CMMI12-73"/>
      <use transform="translate(43.024176 -14.943915)scale(0.697382)" xlink:href="#CMMI12-120"/>
      <use transform="translate(82.325967 0)scale(0.996264)" xlink:href="#CMR17-40"/>
      <use transform="translate(117.606735 0)scale(0.996264)" xlink:href="#CMMI12-85"/>
      <use transform="translate(194.265508 0)scale(0.996264)" xlink:href="#CMSY10-106"/>
      <use transform="translate(221.939592 0)scale(0.996264)" xlink:href="#CMR17-5"/>
      <use transform="translate(291.012022 36.153639)scale(0.697382)" xlink:href="#CMR17-40"/>
      <use transform="translate(315.708443 36.153639)scale(0.697382)" xlink:href="#CMR17-49"/>
      <use transform="translate(347.691625 36.153639)scale(0.697382)" xlink:href="#CMR17-41"/>
      <use transform="translate(372.886177 0)scale(0.996264)" xlink:href="#CMR17-41"/>
      <use transform="translate(408.166945 0)scale(0.996264)" xlink:href="#CMSS17-44"/>
      <use transform="translate(465.420262 0)scale(0.996264)" xlink:href="#CMSS17-67"/>
      <use transform="translate(525.276034 0)scale(0.996264)" xlink:href="#CMSS17-120"/>
      <use transform="translate(568.276176 0)scale(0.996264)" xlink:href="#CMSS17-83"/>
      <use transform="translate(620.324692 0)scale(0.996264)" xlink:href="#CMSS17-79"/>
      <use transform="translate(689.348947 0)scale(0.996264)" xlink:href="#CMSS17-77"/>
     </g>
    </g>
    <g id="line2d_21">
     <path d="M 575.418459 106.547383 
L 607.418459 106.547383 
" style="fill:none;stroke:#ffa500;stroke-linecap:square;stroke-width:1.5;"/>
    </g>
    <g id="line2d_22"/>
    <g id="text_15">
     <!-- $I_x(U|\Pi^{(1)})$, Carte simple -->
     <g transform="translate(620.218459 112.147383)scale(0.16 -0.16)">
      <defs>
       <path d="M 14.90625 21.296875 
C 14.90625 30.703125 21.796875 37 30.59375 37 
L 30.59375 43.578125 
C 24.203125 43.578125 18.203125 40.390625 14.59375 35.203125 
L 14.59375 43.09375 
L 7.5 43.09375 
L 7.5 0 
L 14.90625 0 
z
" id="CMSS17-114"/>
       <path d="M 14.796875 69 
L 7.40625 69 
L 7.40625 0 
L 14.796875 0 
z
" id="CMSS17-108"/>
      </defs>
      <use transform="scale(0.996264)" xlink:href="#CMMI12-73"/>
      <use transform="translate(43.024176 -14.943915)scale(0.697382)" xlink:href="#CMMI12-120"/>
      <use transform="translate(82.325967 0)scale(0.996264)" xlink:href="#CMR17-40"/>
      <use transform="translate(117.606735 0)scale(0.996264)" xlink:href="#CMMI12-85"/>
      <use transform="translate(194.265508 0)scale(0.996264)" xlink:href="#CMSY10-106"/>
      <use transform="translate(221.939592 0)scale(0.996264)" xlink:href="#CMR17-5"/>
      <use transform="translate(291.012022 36.153639)scale(0.697382)" xlink:href="#CMR17-40"/>
      <use transform="translate(315.708443 36.153639)scale(0.697382)" xlink:href="#CMR17-49"/>
      <use transform="translate(347.691625 36.153639)scale(0.697382)" xlink:href="#CMR17-41"/>
      <use transform="translate(372.886177 0)scale(0.996264)" xlink:href="#CMR17-41"/>
      <use transform="translate(408.166945 0)scale(0.996264)" xlink:href="#CMSS17-44"/>
      <use transform="translate(465.420262 0)scale(0.996264)" xlink:href="#CMSS17-67"/>
      <use transform="translate(525.276034 0)scale(0.996264)" xlink:href="#CMSS17-97"/>
      <use transform="translate(567.595501 0)scale(0.996264)" xlink:href="#CMSS17-114"/>
      <use transform="translate(599.505273 0)scale(0.996264)" xlink:href="#CMSS17-116"/>
      <use transform="translate(633.33684 0)scale(0.996264)" xlink:href="#CMSS17-101"/>
      <use transform="translate(706.204775 0)scale(0.996264)" xlink:href="#CMSS17-115"/>
      <use transform="translate(742.118317 0)scale(0.996264)" xlink:href="#CMSS17-105"/>
      <use transform="translate(764.29904 0)scale(0.996264)" xlink:href="#CMSS17-109"/>
      <use transform="translate(838.528294 0)scale(0.996264)" xlink:href="#CMSS17-112"/>
      <use transform="translate(886.733237 0)scale(0.996264)" xlink:href="#CMSS17-108"/>
      <use transform="translate(908.91396 0)scale(0.996264)" xlink:href="#CMSS17-101"/>
     </g>
    </g>
    <g id="line2d_23">
     <path d="M 575.418459 132.685602 
L 607.418459 132.685602 
" style="fill:none;stroke:#000000;stroke-linecap:square;stroke-width:1.5;"/>
    </g>
    <g id="line2d_24"/>
    <g id="text_16">
     <!-- $I_x(X^{(1)}|\Pi^{(1)})$, Carte simple -->
     <g transform="translate(620.218459 138.285602)scale(0.16 -0.16)">
      <defs>
       <path d="M 47.5 40.5625 
L 38.09375 62.40625 
C 39.40625 64.796875 42.40625 65.1875 43.59375 65.296875 
C 44.203125 65.296875 45.296875 65.296875 45.296875 67.0625 
C 45.296875 68.1875 44.40625 68.1875 43.796875 68.1875 
C 42.09375 68.1875 40.09375 68.1875 38.40625 68.1875 
L 32.59375 68.1875 
C 26.5 68.1875 22.09375 68.1875 22 68.1875 
C 21.203125 68.1875 20.203125 68.1875 20.203125 66.296875 
C 20.203125 65.296875 21.09375 65.296875 22.40625 65.296875 
C 28.203125 65.296875 28.59375 64.296875 29.59375 61.90625 
L 41.5 34.140625 
L 19.796875 10.828125 
C 16.203125 6.90625 11.90625 3.09375 4.5 3.09375 
C 3.296875 3 2.5 3 2.5 1.0625 
C 2.5 0.75 2.59375 0 3.703125 0 
C 5.09375 0 6.59375 0 8 0 
L 12.703125 0 
C 15.90625 0 19.40625 0 22.5 0 
C 23.203125 0 24.40625 0 24.40625 1.796875 
C 24.40625 2.796875 23.703125 2.890625 23.09375 2.890625 
C 21.09375 3.09375 19.796875 4.1875 19.796875 5.78125 
C 19.796875 7.484375 21 8.703125 23.90625 11.6875 
L 32.796875 21.375 
C 35 23.6875 40.296875 29.46875 42.5 31.65625 
L 53 7.078125 
C 53.09375 6.890625 53.5 5.890625 53.5 5.78125 
C 53.5 4.890625 51.296875 3.09375 48.09375 3.09375 
C 47.5 3.09375 46.40625 3.09375 46.40625 1.109375 
C 46.40625 0 47.40625 0 47.90625 0 
C 49.59375 0 51.59375 0 53.296875 0 
L 64.296875 0 
C 66.09375 0 68 0 69.703125 0 
C 70.40625 0 71.5 0 71.5 2.03125 
C 71.5 3.09375 70.5 3.09375 69.59375 3.09375 
C 63.59375 3.09375 63.40625 3.59375 61.703125 7.265625 
L 48.5 38.140625 
L 61.203125 51.8125 
C 62.203125 52.828125 64.5 55.34375 65.40625 56.34375 
C 69.703125 60.875 73.703125 65 81.796875 65 
C 82.796875 65.296875 83.796875 65.296875 83.796875 67.0625 
C 83.796875 68.1875 82.90625 68.1875 82.5 68.1875 
C 81.09375 68.1875 79.59375 68.1875 78.203125 68.1875 
L 73.59375 68.1875 
C 70.40625 68.1875 66.90625 68.1875 63.796875 68.1875 
C 63.09375 68.1875 61.90625 68.1875 61.90625 66.390625 
C 61.90625 65.390625 62.59375 65.296875 63.203125 65.296875 
C 64.796875 65.109375 66.5 64.3125 66.5 62.40625 
L 66.40625 62.21875 
C 66.296875 61.515625 66.09375 60.515625 65 59.328125 
z
" id="CMMI12-88"/>
      </defs>
      <use transform="scale(0.996264)" xlink:href="#CMMI12-73"/>
      <use transform="translate(43.024176 -14.943915)scale(0.697382)" xlink:href="#CMMI12-120"/>
      <use transform="translate(82.325967 0)scale(0.996264)" xlink:href="#CMR17-40"/>
      <use transform="translate(117.606735 0)scale(0.996264)" xlink:href="#CMMI12-88"/>
      <use transform="translate(206.399297 36.153639)scale(0.697382)" xlink:href="#CMR17-40"/>
      <use transform="translate(231.095717 36.153639)scale(0.697382)" xlink:href="#CMR17-49"/>
      <use transform="translate(263.078899 36.153639)scale(0.697382)" xlink:href="#CMR17-41"/>
      <use transform="translate(288.273451 0)scale(0.996264)" xlink:href="#CMSY10-106"/>
      <use transform="translate(315.947536 0)scale(0.996264)" xlink:href="#CMR17-5"/>
      <use transform="translate(385.019966 36.153639)scale(0.697382)" xlink:href="#CMR17-40"/>
      <use transform="translate(409.716386 36.153639)scale(0.697382)" xlink:href="#CMR17-49"/>
      <use transform="translate(441.699568 36.153639)scale(0.697382)" xlink:href="#CMR17-41"/>
      <use transform="translate(466.894121 0)scale(0.996264)" xlink:href="#CMR17-41"/>
      <use transform="translate(502.174889 0)scale(0.996264)" xlink:href="#CMSS17-44"/>
      <use transform="translate(559.428206 0)scale(0.996264)" xlink:href="#CMSS17-67"/>
      <use transform="translate(619.283978 0)scale(0.996264)" xlink:href="#CMSS17-97"/>
      <use transform="translate(661.603444 0)scale(0.996264)" xlink:href="#CMSS17-114"/>
      <use transform="translate(693.513217 0)scale(0.996264)" xlink:href="#CMSS17-116"/>
      <use transform="translate(727.344784 0)scale(0.996264)" xlink:href="#CMSS17-101"/>
      <use transform="translate(800.212719 0)scale(0.996264)" xlink:href="#CMSS17-115"/>
      <use transform="translate(836.126261 0)scale(0.996264)" xlink:href="#CMSS17-105"/>
      <use transform="translate(858.306984 0)scale(0.996264)" xlink:href="#CMSS17-109"/>
      <use transform="translate(932.536238 0)scale(0.996264)" xlink:href="#CMSS17-112"/>
      <use transform="translate(980.741181 0)scale(0.996264)" xlink:href="#CMSS17-108"/>
      <use transform="translate(1002.921904 0)scale(0.996264)" xlink:href="#CMSS17-101"/>
     </g>
    </g>
    <g id="line2d_25">
     <path d="M 575.418459 158.823822 
L 607.418459 158.823822 
" style="fill:none;stroke:#0000ff;stroke-linecap:square;stroke-width:1.5;"/>
    </g>
    <g id="line2d_26"/>
    <g id="text_17">
     <!-- $I_x(X^{(1)}|\Pi^{(1)})$, CxSOM -->
     <g transform="translate(620.218459 164.423822)scale(0.16 -0.16)">
      <use transform="scale(0.996264)" xlink:href="#CMMI12-73"/>
      <use transform="translate(43.024176 -14.943915)scale(0.697382)" xlink:href="#CMMI12-120"/>
      <use transform="translate(82.325967 0)scale(0.996264)" xlink:href="#CMR17-40"/>
      <use transform="translate(117.606735 0)scale(0.996264)" xlink:href="#CMMI12-88"/>
      <use transform="translate(206.399297 36.153639)scale(0.697382)" xlink:href="#CMR17-40"/>
      <use transform="translate(231.095717 36.153639)scale(0.697382)" xlink:href="#CMR17-49"/>
      <use transform="translate(263.078899 36.153639)scale(0.697382)" xlink:href="#CMR17-41"/>
      <use transform="translate(288.273451 0)scale(0.996264)" xlink:href="#CMSY10-106"/>
      <use transform="translate(315.947536 0)scale(0.996264)" xlink:href="#CMR17-5"/>
      <use transform="translate(385.019966 36.153639)scale(0.697382)" xlink:href="#CMR17-40"/>
      <use transform="translate(409.716386 36.153639)scale(0.697382)" xlink:href="#CMR17-49"/>
      <use transform="translate(441.699568 36.153639)scale(0.697382)" xlink:href="#CMR17-41"/>
      <use transform="translate(466.894121 0)scale(0.996264)" xlink:href="#CMR17-41"/>
      <use transform="translate(502.174889 0)scale(0.996264)" xlink:href="#CMSS17-44"/>
      <use transform="translate(559.428206 0)scale(0.996264)" xlink:href="#CMSS17-67"/>
      <use transform="translate(619.283978 0)scale(0.996264)" xlink:href="#CMSS17-120"/>
      <use transform="translate(662.284119 0)scale(0.996264)" xlink:href="#CMSS17-83"/>
      <use transform="translate(714.332636 0)scale(0.996264)" xlink:href="#CMSS17-79"/>
      <use transform="translate(783.356891 0)scale(0.996264)" xlink:href="#CMSS17-77"/>
     </g>
    </g>
    <g id="line2d_27">
     <path d="M 575.418459 184.962041 
L 607.418459 184.962041 
" style="fill:none;stroke:#008000;stroke-linecap:square;stroke-width:1.5;"/>
    </g>
    <g id="line2d_28"/>
    <g id="text_18">
     <!-- $I_x(U|X^{(1)})$ -->
     <g transform="translate(620.218459 190.562041)scale(0.16 -0.16)">
      <use transform="scale(0.996264)" xlink:href="#CMMI12-73"/>
      <use transform="translate(43.024176 -14.943915)scale(0.697382)" xlink:href="#CMMI12-120"/>
      <use transform="translate(82.325967 0)scale(0.996264)" xlink:href="#CMR17-40"/>
      <use transform="translate(117.606735 0)scale(0.996264)" xlink:href="#CMMI12-85"/>
      <use transform="translate(194.265508 0)scale(0.996264)" xlink:href="#CMSY10-106"/>
      <use transform="translate(221.939592 0)scale(0.996264)" xlink:href="#CMMI12-88"/>
      <use transform="translate(310.732154 36.153639)scale(0.697382)" xlink:href="#CMR17-40"/>
      <use transform="translate(335.428575 36.153639)scale(0.697382)" xlink:href="#CMR17-49"/>
      <use transform="translate(367.411757 36.153639)scale(0.697382)" xlink:href="#CMR17-41"/>
      <use transform="translate(392.606309 0)scale(0.996264)" xlink:href="#CMR17-41"/>
     </g>
    </g>
    <g id="line2d_29">
     <path d="M 575.418459 211.100261 
L 607.418459 211.100261 
" style="fill:none;stroke:#000000;stroke-dasharray:5.55,2.4;stroke-dashoffset:0;stroke-width:1.5;"/>
    </g>
    <g id="line2d_30"/>
    <g id="text_19">
     <!-- objectif thorique $I_x(X^{(1)}|\Pi^{(1)})$ -->
     <g transform="translate(620.218459 216.700261)scale(0.16 -0.16)">
      <defs>
       <path d="M 44.203125 21.1875 
C 44.203125 34 34.703125 44 23.5 44 
C 12 44 2.703125 33.703125 2.703125 21.1875 
C 2.703125 8.5 12.296875 -1 23.40625 -1 
C 34.796875 -1 44.203125 8.796875 44.203125 21.1875 
z
M 23.5 5.265625 
C 16.40625 5.265625 10.296875 11.078125 10.296875 22 
C 10.296875 33.609375 17.40625 37.921875 23.40625 37.921875 
C 29.90625 37.921875 36.59375 33.21875 36.59375 22 
C 36.59375 10.671875 30.09375 5.265625 23.5 5.265625 
z
" id="CMSS17-111"/>
       <path d="M 14.90625 69 
L 7.5 69 
L 7.5 -0.203125 
L 15.09375 -0.203125 
L 15.09375 4.28125 
C 18.90625 0.59375 23.5 -1 27.59375 -1 
C 37.203125 -1 45 8.578125 45 21.125 
C 45 32.59375 39 43.0625 30.09375 43.0625 
C 23.796875 43.0625 18.203125 40.484375 14.90625 37.796875 
z
M 15.09375 31.96875 
C 17.296875 34.71875 20.40625 37 24.796875 37 
C 30.703125 37 37.40625 32.765625 37.40625 21.125 
C 37.40625 8.71875 29.40625 5.078125 23.90625 5.078125 
C 21.90625 5.078125 19.796875 5.5625 17.796875 7.25 
C 15.09375 9.609375 15.09375 11.078125 15.09375 12.453125 
z
" id="CMSS17-98"/>
       <path d="M 17.40625 66 
L 9 66 
L 9 57.640625 
L 17.40625 57.640625 
z
M -5.796875 -16.625 
C -2.59375 -18.609375 1.296875 -20 5.5 -20 
C 11.796875 -20 17.40625 -14.609375 17.40625 -5.71875 
L 17.40625 43.234375 
L 10 43.234375 
L 10 -6.640625 
C 10 -12.734375 5.40625 -13.640625 2.796875 -13.640625 
C 0.59375 -13.640625 -2 -12.9375 -4.296875 -10.546875 
z
" id="CMSS17-106"/>
       <path d="M 38.5 39.703125 
C 38.5 40.390625 33.90625 42.40625 32.703125 42.796875 
C 29.40625 44 25.203125 44 24.09375 44 
C 11.09375 44 3.296875 32.703125 3.296875 21.296875 
C 3.296875 9.296875 12 -1 23.703125 -1 
C 30.40625 -1 35.203125 1.1875 39.09375 3.78125 
L 38.5 10.375 
C 34.203125 7.078125 29.203125 5.265625 23.796875 5.265625 
C 16 5.265625 10.90625 12.09375 10.90625 21.390625 
C 10.90625 28.609375 14.203125 37.71875 24.203125 37.71875 
C 29.703125 37.71875 32.796875 36.609375 37.40625 33.515625 
z
" id="CMSS17-99"/>
       <path d="M 16.796875 37 
L 26.90625 37 
L 26.90625 42.765625 
L 16.59375 42.765625 
L 16.59375 55.609375 
C 16.59375 62.71875 22 63.9375 25.09375 63.9375 
C 26.09375 63.9375 28.90625 63.9375 32.5 62.640625 
L 32.5 69.203125 
C 30.203125 69.703125 27.40625 70 25.203125 70 
C 15.90625 70 9.40625 62.390625 9.40625 52.484375 
L 9.40625 42.765625 
L 2.5 42.765625 
L 2.5 37 
L 9.40625 37 
L 9.40625 0 
L 16.796875 0 
z
" id="CMSS17-102"/>
       <path d="M 40.90625 29.546875 
C 40.90625 35.8125 39.40625 44.0625 28.09375 44.0625 
C 21.796875 44.0625 17.703125 40.984375 14.796875 37.609375 
L 14.796875 69.5 
L 7.40625 69.5 
L 7.40625 0.5 
L 15 0.5 
L 15 24.578125 
C 15 30.828125 17.40625 38 24.203125 38 
C 33 38 33.296875 32.125 33.296875 28.734375 
L 33.296875 0.5 
L 40.90625 0.5 
z
" id="CMSS17-104"/>
       <path d="M 39.09375 69.5 
L 31.5 69.5 
L 19.09375 52 
L 25.203125 52 
z
" id="CMSS17-19"/>
       <path d="M 40.796875 44 
L 33.40625 44 
L 33.40625 37.9375 
C 33 38.4375 28.40625 44 20.59375 44 
C 11.5 44 3.296875 34.8125 3.296875 21.859375 
C 3.296875 9.890625 10.203125 -0.078125 19.203125 -0.078125 
C 23.40625 -0.078125 28.703125 1.421875 33.203125 5.703125 
L 33.203125 -19 
L 40.796875 -19 
z
M 33.40625 14.28125 
C 33.40625 13 33.40625 11.21875 30.296875 8.65625 
C 29.5 7.96875 27.296875 6 23.5 6 
C 16.40625 6 10.90625 13.28125 10.90625 21.859375 
C 10.90625 31.421875 17.59375 37.734375 24.40625 37.734375 
C 30.09375 37.734375 33.40625 32.203125 33.40625 28.078125 
z
" id="CMSS17-113"/>
       <path d="M 40.90625 42.796875 
L 33.296875 42.796875 
L 33.296875 15.1875 
C 33.296875 7.78125 27.90625 4.78125 22.203125 4.78125 
C 15.59375 4.78125 15 6.984375 15 11.078125 
L 15 42.796875 
L 7.40625 42.796875 
L 7.40625 10.59375 
C 7.40625 2.796875 10.09375 -1 17 -1 
C 20.40625 -1 28.09375 -0.203125 33.5 4.78125 
L 33.5 0 
L 40.90625 0 
z
" id="CMSS17-117"/>
      </defs>
      <use transform="scale(0.996264)" xlink:href="#CMSS17-111"/>
      <use transform="translate(46.843624 0)scale(0.996264)" xlink:href="#CMSS17-98"/>
      <use transform="translate(95.048567 0)scale(0.996264)" xlink:href="#CMSS17-106"/>
      <use transform="translate(119.831652 0)scale(0.996264)" xlink:href="#CMSS17-101"/>
      <use transform="translate(161.470474 0)scale(0.996264)" xlink:href="#CMSS17-99"/>
      <use transform="translate(203.109297 0)scale(0.996264)" xlink:href="#CMSS17-116"/>
      <use transform="translate(236.940863 0)scale(0.996264)" xlink:href="#CMSS17-105"/>
      <use transform="translate(259.121586 0)scale(0.996264)" xlink:href="#CMSS17-102"/>
      <use transform="translate(318.977358 0)scale(0.996264)" xlink:href="#CMSS17-116"/>
      <use transform="translate(352.808925 0)scale(0.996264)" xlink:href="#CMSS17-104"/>
      <use transform="translate(398.411459 0)scale(0.996264)" xlink:href="#CMSS17-19"/>
      <use transform="translate(401.013868 0)scale(0.996264)" xlink:href="#CMSS17-101"/>
      <use transform="translate(442.65269 0)scale(0.996264)" xlink:href="#CMSS17-111"/>
      <use transform="translate(486.893859 0)scale(0.996264)" xlink:href="#CMSS17-114"/>
      <use transform="translate(518.803632 0)scale(0.996264)" xlink:href="#CMSS17-105"/>
      <use transform="translate(540.984355 0)scale(0.996264)" xlink:href="#CMSS17-113"/>
      <use transform="translate(589.189298 0)scale(0.996264)" xlink:href="#CMSS17-117"/>
      <use transform="translate(637.394241 0)scale(0.996264)" xlink:href="#CMSS17-101"/>
      <use transform="translate(710.262176 0)scale(0.996264)" xlink:href="#CMMI12-73"/>
      <use transform="translate(753.286352 -14.943915)scale(0.697382)" xlink:href="#CMMI12-120"/>
      <use transform="translate(792.588143 0)scale(0.996264)" xlink:href="#CMR17-40"/>
      <use transform="translate(827.868911 0)scale(0.996264)" xlink:href="#CMMI12-88"/>
      <use transform="translate(916.661473 36.153639)scale(0.697382)" xlink:href="#CMR17-40"/>
      <use transform="translate(941.357893 36.153639)scale(0.697382)" xlink:href="#CMR17-49"/>
      <use transform="translate(973.341075 36.153639)scale(0.697382)" xlink:href="#CMR17-41"/>
      <use transform="translate(998.535628 0)scale(0.996264)" xlink:href="#CMSY10-106"/>
      <use transform="translate(1026.209712 0)scale(0.996264)" xlink:href="#CMR17-5"/>
      <use transform="translate(1095.282142 36.153639)scale(0.697382)" xlink:href="#CMR17-40"/>
      <use transform="translate(1119.978562 36.153639)scale(0.697382)" xlink:href="#CMR17-49"/>
      <use transform="translate(1151.961744 36.153639)scale(0.697382)" xlink:href="#CMR17-41"/>
      <use transform="translate(1177.156297 0)scale(0.996264)" xlink:href="#CMR17-41"/>
     </g>
    </g>
    <g id="line2d_31">
     <path d="M 575.418459 235.242817 
L 607.418459 235.242817 
" style="fill:none;stroke:#008000;stroke-dasharray:5.55,2.4;stroke-dashoffset:0;stroke-width:1.5;"/>
    </g>
    <g id="line2d_32"/>
    <g id="text_20">
     <!-- objectif thorique $I_x(U|\Pi)$ -->
     <g transform="translate(620.218459 240.842817)scale(0.16 -0.16)">
      <use transform="scale(0.996264)" xlink:href="#CMSS17-111"/>
      <use transform="translate(46.843624 0)scale(0.996264)" xlink:href="#CMSS17-98"/>
      <use transform="translate(95.048567 0)scale(0.996264)" xlink:href="#CMSS17-106"/>
      <use transform="translate(119.831652 0)scale(0.996264)" xlink:href="#CMSS17-101"/>
      <use transform="translate(161.470474 0)scale(0.996264)" xlink:href="#CMSS17-99"/>
      <use transform="translate(203.109297 0)scale(0.996264)" xlink:href="#CMSS17-116"/>
      <use transform="translate(236.940863 0)scale(0.996264)" xlink:href="#CMSS17-105"/>
      <use transform="translate(259.121586 0)scale(0.996264)" xlink:href="#CMSS17-102"/>
      <use transform="translate(318.977358 0)scale(0.996264)" xlink:href="#CMSS17-116"/>
      <use transform="translate(352.808925 0)scale(0.996264)" xlink:href="#CMSS17-104"/>
      <use transform="translate(398.411459 0)scale(0.996264)" xlink:href="#CMSS17-19"/>
      <use transform="translate(401.013868 0)scale(0.996264)" xlink:href="#CMSS17-101"/>
      <use transform="translate(442.65269 0)scale(0.996264)" xlink:href="#CMSS17-111"/>
      <use transform="translate(486.893859 0)scale(0.996264)" xlink:href="#CMSS17-114"/>
      <use transform="translate(518.803632 0)scale(0.996264)" xlink:href="#CMSS17-105"/>
      <use transform="translate(540.984355 0)scale(0.996264)" xlink:href="#CMSS17-113"/>
      <use transform="translate(589.189298 0)scale(0.996264)" xlink:href="#CMSS17-117"/>
      <use transform="translate(637.394241 0)scale(0.996264)" xlink:href="#CMSS17-101"/>
      <use transform="translate(710.262176 0)scale(0.996264)" xlink:href="#CMMI12-73"/>
      <use transform="translate(753.286352 -14.943915)scale(0.697382)" xlink:href="#CMMI12-120"/>
      <use transform="translate(792.588143 0)scale(0.996264)" xlink:href="#CMR17-40"/>
      <use transform="translate(827.868911 0)scale(0.996264)" xlink:href="#CMMI12-85"/>
      <use transform="translate(904.527684 0)scale(0.996264)" xlink:href="#CMSY10-106"/>
      <use transform="translate(932.201768 0)scale(0.996264)" xlink:href="#CMR17-5"/>
      <use transform="translate(1001.274198 0)scale(0.996264)" xlink:href="#CMR17-41"/>
     </g>
    </g>
   </g>
  </g>
  <g id="axes_2">
   <g id="patch_8">
    <path d="M 116.46 426.132 
L 838.512 426.132 
L 838.512 258.552 
L 116.46 258.552 
z
" style="fill:#ffffff;"/>
   </g>
   <g id="matplotlib.axis_3">
    <g id="xtick_7">
     <g id="line2d_33">
      <g>
       <use style="stroke:#000000;stroke-width:0.8;" x="149.280545" xlink:href="#mfc444d16fe" y="426.132"/>
      </g>
     </g>
     <g id="text_21">
      <!-- $\mathdefault{0}$ -->
      <g transform="translate(145.378552 444.201588)scale(0.16 -0.16)">
       <use transform="scale(0.996264)" xlink:href="#CMR17-48"/>
      </g>
     </g>
    </g>
    <g id="xtick_8">
     <g id="line2d_34">
      <g>
       <use style="stroke:#000000;stroke-width:0.8;" x="283.241955" xlink:href="#mfc444d16fe" y="426.132"/>
      </g>
     </g>
     <g id="text_22">
      <!-- $\mathdefault{2000}$ -->
      <g transform="translate(267.633981 444.201588)scale(0.16 -0.16)">
       <use transform="scale(0.996264)" xlink:href="#CMR17-50"/>
       <use transform="translate(45.690477 0)scale(0.996264)" xlink:href="#CMR17-48"/>
       <use transform="translate(91.380954 0)scale(0.996264)" xlink:href="#CMR17-48"/>
       <use transform="translate(137.071431 0)scale(0.996264)" xlink:href="#CMR17-48"/>
      </g>
     </g>
    </g>
    <g id="xtick_9">
     <g id="line2d_35">
      <g>
       <use style="stroke:#000000;stroke-width:0.8;" x="417.203365" xlink:href="#mfc444d16fe" y="426.132"/>
      </g>
     </g>
     <g id="text_23">
      <!-- $\mathdefault{4000}$ -->
      <g transform="translate(401.595391 444.201588)scale(0.16 -0.16)">
       <use transform="scale(0.996264)" xlink:href="#CMR17-52"/>
       <use transform="translate(45.690477 0)scale(0.996264)" xlink:href="#CMR17-48"/>
       <use transform="translate(91.380954 0)scale(0.996264)" xlink:href="#CMR17-48"/>
       <use transform="translate(137.071431 0)scale(0.996264)" xlink:href="#CMR17-48"/>
      </g>
     </g>
    </g>
    <g id="xtick_10">
     <g id="line2d_36">
      <g>
       <use style="stroke:#000000;stroke-width:0.8;" x="551.164776" xlink:href="#mfc444d16fe" y="426.132"/>
      </g>
     </g>
     <g id="text_24">
      <!-- $\mathdefault{6000}$ -->
      <g transform="translate(535.556802 444.201588)scale(0.16 -0.16)">
       <use transform="scale(0.996264)" xlink:href="#CMR17-54"/>
       <use transform="translate(45.690477 0)scale(0.996264)" xlink:href="#CMR17-48"/>
       <use transform="translate(91.380954 0)scale(0.996264)" xlink:href="#CMR17-48"/>
       <use transform="translate(137.071431 0)scale(0.996264)" xlink:href="#CMR17-48"/>
      </g>
     </g>
    </g>
    <g id="xtick_11">
     <g id="line2d_37">
      <g>
       <use style="stroke:#000000;stroke-width:0.8;" x="685.126186" xlink:href="#mfc444d16fe" y="426.132"/>
      </g>
     </g>
     <g id="text_25">
      <!-- $\mathdefault{8000}$ -->
      <g transform="translate(669.518212 444.201588)scale(0.16 -0.16)">
       <use transform="scale(0.996264)" xlink:href="#CMR17-56"/>
       <use transform="translate(45.690477 0)scale(0.996264)" xlink:href="#CMR17-48"/>
       <use transform="translate(91.380954 0)scale(0.996264)" xlink:href="#CMR17-48"/>
       <use transform="translate(137.071431 0)scale(0.996264)" xlink:href="#CMR17-48"/>
      </g>
     </g>
    </g>
    <g id="xtick_12">
     <g id="line2d_38">
      <g>
       <use style="stroke:#000000;stroke-width:0.8;" x="819.087596" xlink:href="#mfc444d16fe" y="426.132"/>
      </g>
     </g>
     <g id="text_26">
      <!-- $\mathdefault{10000}$ -->
      <g transform="translate(799.577628 444.201588)scale(0.16 -0.16)">
       <use transform="scale(0.996264)" xlink:href="#CMR17-49"/>
       <use transform="translate(45.690477 0)scale(0.996264)" xlink:href="#CMR17-48"/>
       <use transform="translate(91.380954 0)scale(0.996264)" xlink:href="#CMR17-48"/>
       <use transform="translate(137.071431 0)scale(0.996264)" xlink:href="#CMR17-48"/>
       <use transform="translate(182.761908 0)scale(0.996264)" xlink:href="#CMR17-48"/>
      </g>
     </g>
    </g>
    <g id="text_27">
     <!-- timestep -->
     <g transform="translate(449.911008 462.370653)scale(0.16 -0.16)">
      <use transform="scale(0.996264)" xlink:href="#CMSS17-116"/>
      <use transform="translate(33.831567 0)scale(0.996264)" xlink:href="#CMSS17-105"/>
      <use transform="translate(56.01229 0)scale(0.996264)" xlink:href="#CMSS17-109"/>
      <use transform="translate(130.241544 0)scale(0.996264)" xlink:href="#CMSS17-101"/>
      <use transform="translate(171.880366 0)scale(0.996264)" xlink:href="#CMSS17-115"/>
      <use transform="translate(207.793908 0)scale(0.996264)" xlink:href="#CMSS17-116"/>
      <use transform="translate(241.625475 0)scale(0.996264)" xlink:href="#CMSS17-101"/>
      <use transform="translate(283.264297 0)scale(0.996264)" xlink:href="#CMSS17-112"/>
     </g>
    </g>
   </g>
   <g id="matplotlib.axis_4">
    <g id="ytick_5">
     <g id="line2d_39">
      <g>
       <use style="stroke:#000000;stroke-width:0.8;" x="116.46" xlink:href="#mc49ce0b39e" y="379.52648"/>
      </g>
     </g>
     <g id="text_28">
      <!-- $\mathdefault{3}$ -->
      <g transform="translate(101.656013 385.061274)scale(0.16 -0.16)">
       <use transform="scale(0.996264)" xlink:href="#CMR17-51"/>
      </g>
     </g>
    </g>
    <g id="ytick_6">
     <g id="line2d_40">
      <g>
       <use style="stroke:#000000;stroke-width:0.8;" x="116.46" xlink:href="#mc49ce0b39e" y="332.277266"/>
      </g>
     </g>
     <g id="text_29">
      <!-- $\mathdefault{4}$ -->
      <g transform="translate(101.656013 337.81206)scale(0.16 -0.16)">
       <use transform="scale(0.996264)" xlink:href="#CMR17-52"/>
      </g>
     </g>
    </g>
    <g id="ytick_7">
     <g id="line2d_41">
      <g>
       <use style="stroke:#000000;stroke-width:0.8;" x="116.46" xlink:href="#mc49ce0b39e" y="285.028053"/>
      </g>
     </g>
     <g id="text_30">
      <!-- $\mathdefault{5}$ -->
      <g transform="translate(101.656013 290.562847)scale(0.16 -0.16)">
       <use transform="scale(0.996264)" xlink:href="#CMR17-53"/>
      </g>
     </g>
    </g>
    <g id="text_31">
     <!-- $I_x$ -->
     <g transform="translate(94.556537 348.972516)rotate(-90)scale(0.16 -0.16)">
      <use transform="scale(0.996264)" xlink:href="#CMMI12-73"/>
      <use transform="translate(43.024176 -14.943915)scale(0.697382)" xlink:href="#CMMI12-120"/>
     </g>
    </g>
   </g>
   <g id="line2d_42">
    <path clip-path="url(#pb520106bd4)" d="M 149.280545 403.617569 
L 149.615449 405.025822 
L 149.950353 401.086415 
L 150.285256 397.878129 
L 150.62016 404.775206 
L 150.955063 403.204835 
L 151.289967 401.136466 
L 151.62487 394.378542 
L 151.959774 388.01621 
L 152.294677 383.740606 
L 152.629581 379.869454 
L 152.964484 383.239054 
L 153.299388 384.21216 
L 153.634291 380.898382 
L 153.969195 384.910191 
L 154.304098 389.241723 
L 154.639002 385.356708 
L 154.973905 382.289663 
L 155.308809 374.296765 
L 155.643712 371.670729 
L 155.978616 361.880575 
L 156.313519 363.816819 
L 156.648423 362.95506 
L 156.983327 357.023891 
L 157.31823 349.099526 
L 157.653134 348.668373 
L 157.988037 343.86407 
L 158.322941 344.934804 
L 158.657844 340.58421 
L 158.992748 339.873949 
L 159.327651 338.22334 
L 159.662555 335.313327 
L 159.997458 333.24282 
L 160.332362 331.860929 
L 160.667265 332.09995 
L 161.002169 331.344127 
L 161.337072 329.044826 
L 161.671976 328.816129 
L 162.006879 328.871926 
L 162.341783 327.152041 
L 162.676686 324.595401 
L 176.072827 337.269207 
L 189.468968 330.057871 
L 202.865109 336.392784 
L 216.26125 338.890672 
L 229.657391 335.810977 
L 243.053532 334.669179 
L 256.449673 336.171975 
L 269.845814 341.06669 
L 283.241955 338.136606 
L 296.638096 334.128875 
L 310.034237 337.409939 
L 323.430378 343.404898 
L 336.826519 342.075806 
L 350.22266 340.471763 
L 363.618801 344.487701 
L 377.014942 344.581271 
L 390.411083 344.528113 
L 403.807224 345.610227 
L 417.203365 344.714109 
L 430.599506 340.951039 
L 443.995647 342.341254 
L 457.391788 342.50375 
L 470.787929 342.561397 
L 484.184071 339.198996 
L 497.580212 342.840474 
L 510.976353 340.973891 
L 524.372494 338.97165 
L 537.768635 341.894341 
L 551.164776 343.789016 
L 564.560917 337.102059 
L 577.957058 340.246667 
L 591.353199 340.783477 
L 604.74934 339.242531 
L 618.145481 338.787686 
L 631.541622 341.941246 
L 644.937763 339.782277 
L 658.333904 339.126993 
L 671.730045 333.29421 
L 685.126186 337.333045 
L 698.522327 334.897777 
L 711.918468 339.907376 
L 725.314609 336.405152 
L 738.71075 337.479513 
L 752.106891 335.137541 
L 765.503032 331.613573 
L 778.899173 329.267272 
L 792.295314 332.371975 
L 805.691455 329.524882 
" style="fill:none;stroke:#ff0000;stroke-linecap:square;stroke-width:1.5;"/>
   </g>
   <g id="line2d_43">
    <path clip-path="url(#pb520106bd4)" d="M 149.280545 407.007694 
L 149.615449 414.346297 
L 149.950353 407.559734 
L 150.285256 403.406962 
L 150.62016 407.040857 
L 150.955063 407.037513 
L 151.289967 406.035089 
L 151.62487 407.437666 
L 151.959774 406.756339 
L 152.294677 404.186517 
L 152.629581 393.402216 
L 152.964484 386.571757 
L 153.299388 392.31099 
L 153.634291 390.09071 
L 153.969195 395.781476 
L 154.304098 397.895757 
L 154.639002 393.836713 
L 154.973905 379.441121 
L 155.308809 378.37183 
L 155.643712 374.119562 
L 155.978616 368.423116 
L 156.313519 370.603337 
L 156.648423 370.151023 
L 156.983327 372.044447 
L 157.31823 369.021814 
L 157.653134 369.241955 
L 157.988037 369.030597 
L 158.322941 363.409335 
L 158.657844 347.427208 
L 158.992748 355.309528 
L 159.327651 352.627585 
L 159.662555 349.14827 
L 159.997458 349.004641 
L 160.332362 355.39264 
L 160.667265 349.939042 
L 161.002169 346.275488 
L 161.337072 345.14137 
L 161.671976 346.570971 
L 162.006879 347.320441 
L 162.341783 346.743483 
L 162.676686 344.51652 
L 176.072827 331.694445 
L 189.468968 336.104898 
L 202.865109 327.602982 
L 216.26125 330.627242 
L 229.657391 329.178317 
L 243.053532 336.613306 
L 256.449673 333.055368 
L 269.845814 328.714855 
L 283.241955 334.696585 
L 296.638096 334.841059 
L 310.034237 335.663781 
L 323.430378 333.823458 
L 336.826519 333.17196 
L 350.22266 335.829867 
L 363.618801 330.732562 
L 377.014942 337.656272 
L 390.411083 330.774542 
L 403.807224 335.899485 
L 417.203365 334.527478 
L 430.599506 335.047858 
L 443.995647 333.787819 
L 457.391788 334.497007 
L 470.787929 327.672008 
L 484.184071 333.200274 
L 497.580212 334.854444 
L 510.976353 334.401695 
L 524.372494 329.813065 
L 537.768635 330.955393 
L 551.164776 332.446435 
L 564.560917 332.652506 
L 577.957058 329.814405 
L 591.353199 330.444433 
L 604.74934 334.897835 
L 618.145481 337.631048 
L 631.541622 334.27698 
L 644.937763 335.780338 
L 658.333904 336.243182 
L 671.730045 336.96925 
L 685.126186 333.979724 
L 698.522327 331.371929 
L 711.918468 333.720691 
L 725.314609 333.257293 
L 738.71075 336.321364 
L 752.106891 335.225798 
L 765.503032 336.764728 
L 778.899173 331.88605 
L 792.295314 333.456208 
L 805.691455 330.399078 
" style="fill:none;stroke:#ffa500;stroke-linecap:square;stroke-width:1.5;"/>
   </g>
   <g id="line2d_44">
    <path clip-path="url(#pb520106bd4)" d="M 149.280545 406.342484 
L 149.615449 412.632686 
L 149.950353 407.071375 
L 150.285256 402.468291 
L 150.62016 405.421153 
L 150.955063 406.258366 
L 151.289967 405.232111 
L 151.62487 406.14311 
L 151.959774 404.989635 
L 152.294677 401.737188 
L 152.629581 390.783589 
L 152.964484 383.651905 
L 153.299388 387.9184 
L 153.634291 383.932292 
L 153.969195 388.307896 
L 154.304098 387.121457 
L 154.639002 381.634638 
L 154.973905 367.679603 
L 155.308809 366.864472 
L 155.643712 362.270558 
L 155.978616 356.227352 
L 156.313519 357.968995 
L 156.648423 359.100602 
L 156.983327 359.510478 
L 157.31823 356.440517 
L 157.653134 354.949249 
L 157.988037 356.117576 
L 158.322941 349.490101 
L 158.657844 334.805364 
L 158.992748 341.72925 
L 159.327651 338.164269 
L 159.662555 335.518655 
L 159.997458 336.494475 
L 160.332362 341.278777 
L 160.667265 335.250418 
L 161.002169 331.938221 
L 161.337072 331.47718 
L 161.671976 332.155569 
L 162.006879 332.885294 
L 162.341783 330.885125 
L 162.676686 330.241369 
L 176.072827 309.004077 
L 189.468968 309.532474 
L 202.865109 297.89641 
L 216.26125 302.155618 
L 229.657391 299.24248 
L 243.053532 307.941249 
L 256.449673 301.57152 
L 269.845814 300.216329 
L 283.241955 304.942648 
L 296.638096 304.939643 
L 310.034237 304.669219 
L 323.430378 306.158039 
L 336.826519 302.65989 
L 350.22266 307.090681 
L 363.618801 302.185164 
L 377.014942 309.085691 
L 390.411083 301.6973 
L 403.807224 304.797874 
L 417.203365 304.920844 
L 430.599506 305.218324 
L 443.995647 303.495872 
L 457.391788 305.285434 
L 470.787929 298.063646 
L 484.184071 304.587865 
L 497.580212 303.876259 
L 510.976353 305.13704 
L 524.372494 299.511394 
L 537.768635 303.026786 
L 551.164776 301.310446 
L 564.560917 305.12743 
L 577.957058 300.348238 
L 591.353199 303.038604 
L 604.74934 304.729149 
L 618.145481 308.261747 
L 631.541622 305.964295 
L 644.937763 305.794051 
L 658.333904 304.641594 
L 671.730045 306.855615 
L 685.126186 304.084555 
L 698.522327 302.708793 
L 711.918468 305.871997 
L 725.314609 302.563437 
L 738.71075 304.575472 
L 752.106891 305.519851 
L 765.503032 308.536562 
L 778.899173 302.311437 
L 792.295314 304.696657 
L 805.691455 299.668616 
" style="fill:none;stroke:#000000;stroke-linecap:square;stroke-width:1.5;"/>
   </g>
   <g id="line2d_45">
    <path clip-path="url(#pb520106bd4)" d="M 149.280545 414.081612 
L 149.615449 418.173775 
L 149.950353 414.220949 
L 150.285256 411.426858 
L 150.62016 418.514727 
L 150.955063 416.557745 
L 151.289967 415.303905 
L 151.62487 408.661149 
L 151.959774 404.909248 
L 152.294677 403.317312 
L 152.629581 399.31505 
L 152.964484 401.525071 
L 153.299388 401.760987 
L 153.634291 398.455302 
L 153.969195 401.232065 
L 154.304098 405.283407 
L 154.639002 404.160705 
L 154.973905 401.09661 
L 155.308809 394.371391 
L 155.643712 392.610217 
L 155.978616 385.764895 
L 156.313519 386.567823 
L 156.648423 384.98185 
L 156.983327 382.879716 
L 157.31823 376.101467 
L 157.653134 376.959828 
L 157.988037 371.778577 
L 158.322941 370.414899 
L 158.657844 367.318025 
L 158.992748 366.822868 
L 159.327651 365.052571 
L 159.662555 360.695339 
L 159.997458 357.453308 
L 160.332362 357.996899 
L 160.667265 358.46333 
L 161.002169 358.642125 
L 161.337072 356.243435 
L 161.671976 356.047801 
L 162.006879 356.35359 
L 162.341783 355.651799 
L 162.676686 351.747129 
L 176.072827 360.157122 
L 189.468968 350.559144 
L 202.865109 355.815929 
L 216.26125 355.941923 
L 229.657391 357.205783 
L 243.053532 358.670305 
L 256.449673 363.977405 
L 269.845814 367.886619 
L 283.241955 366.163921 
L 296.638096 365.98115 
L 310.034237 369.621108 
L 323.430378 374.451323 
L 336.826519 372.601995 
L 350.22266 367.661139 
L 363.618801 372.234222 
L 377.014942 375.224387 
L 390.411083 374.812373 
L 403.807224 377.214322 
L 417.203365 376.224968 
L 430.599506 372.241368 
L 443.995647 374.326949 
L 457.391788 374.073182 
L 470.787929 374.188387 
L 484.184071 371.363894 
L 497.580212 375.487067 
L 510.976353 374.067398 
L 524.372494 371.851908 
L 537.768635 374.475057 
L 551.164776 375.101142 
L 564.560917 368.812101 
L 577.957058 371.892332 
L 591.353199 372.100428 
L 604.74934 371.609803 
L 618.145481 370.068846 
L 631.541622 373.299989 
L 644.937763 372.037304 
L 658.333904 371.999407 
L 671.730045 365.898951 
L 685.126186 368.940634 
L 698.522327 367.44442 
L 711.918468 371.265043 
L 725.314609 368.772172 
L 738.71075 369.432244 
L 752.106891 366.985725 
L 765.503032 363.937411 
L 778.899173 363.435209 
L 792.295314 367.008096 
L 805.691455 363.968599 
" style="fill:none;stroke:#0000ff;stroke-linecap:square;stroke-width:1.5;"/>
   </g>
   <g id="line2d_46">
    <path clip-path="url(#pb520106bd4)" d="M 149.280545 293.876276 
L 149.615449 293.876276 
L 149.950353 293.876075 
L 150.285256 293.876276 
L 150.62016 293.876276 
L 150.955063 293.876276 
L 151.289967 293.876075 
L 151.62487 293.876075 
L 151.959774 293.876276 
L 152.294677 293.876276 
L 152.629581 293.876276 
L 152.964484 293.876276 
L 153.299388 293.876276 
L 153.634291 293.876276 
L 153.969195 293.876276 
L 154.304098 293.876075 
L 154.639002 293.876276 
L 154.973905 293.876276 
L 155.308809 293.876276 
L 155.643712 293.876276 
L 155.978616 293.876276 
L 156.313519 293.876276 
L 156.648423 293.876276 
L 156.983327 293.876276 
L 157.31823 293.876075 
L 157.653134 293.876276 
L 157.988037 293.876075 
L 158.322941 293.876276 
L 158.657844 293.876075 
L 158.992748 293.876276 
L 159.327651 293.876276 
L 159.662555 293.876276 
L 159.997458 293.876276 
L 160.332362 293.876075 
L 160.667265 293.876075 
L 161.002169 293.876276 
L 161.337072 293.876075 
L 161.671976 293.876276 
L 162.006879 293.876276 
L 162.341783 293.876276 
L 162.676686 293.876276 
L 176.072827 293.876276 
L 189.468968 293.876276 
L 202.865109 293.876276 
L 216.26125 293.876075 
L 229.657391 293.876075 
L 243.053532 293.876276 
L 256.449673 293.876075 
L 269.845814 293.876075 
L 283.241955 293.876075 
L 296.638096 293.876075 
L 310.034237 293.876276 
L 323.430378 293.876075 
L 336.826519 293.876276 
L 350.22266 293.876276 
L 363.618801 293.876276 
L 377.014942 293.876276 
L 390.411083 293.876276 
L 403.807224 293.876276 
L 417.203365 293.876276 
L 430.599506 293.876075 
L 443.995647 293.876276 
L 457.391788 293.876276 
L 470.787929 293.876276 
L 484.184071 293.876276 
L 497.580212 293.876276 
L 510.976353 293.876075 
L 524.372494 293.876276 
L 537.768635 293.876075 
L 551.164776 293.876075 
L 564.560917 293.876276 
L 577.957058 293.876276 
L 591.353199 293.876276 
L 604.74934 293.876276 
L 618.145481 293.876276 
L 631.541622 293.876276 
L 644.937763 293.876276 
L 658.333904 293.876075 
L 671.730045 293.876075 
L 685.126186 293.876075 
L 698.522327 293.876276 
L 711.918468 293.876276 
L 725.314609 293.876276 
L 738.71075 293.876276 
L 752.106891 293.876276 
L 765.503032 293.876075 
L 778.899173 293.876276 
L 792.295314 293.876075 
L 805.691455 293.876276 
" style="fill:none;stroke:#008000;stroke-linecap:square;stroke-width:1.5;"/>
   </g>
   <g id="line2d_47">
    <path clip-path="url(#pb520106bd4)" d="M 149.280545 266.169273 
L 805.691455 266.169273 
" style="fill:none;stroke:#000000;stroke-dasharray:5.55,2.4;stroke-dashoffset:0;stroke-width:1.5;"/>
   </g>
   <g id="patch_9">
    <path d="M 116.46 426.132 
L 116.46 258.552 
" style="fill:none;stroke:#000000;stroke-linecap:square;stroke-linejoin:miter;stroke-width:0.8;"/>
   </g>
   <g id="patch_10">
    <path d="M 838.512 426.132 
L 838.512 258.552 
" style="fill:none;stroke:#000000;stroke-linecap:square;stroke-linejoin:miter;stroke-width:0.8;"/>
   </g>
   <g id="patch_11">
    <path d="M 116.46 426.132 
L 838.512 426.132 
" style="fill:none;stroke:#000000;stroke-linecap:square;stroke-linejoin:miter;stroke-width:0.8;"/>
   </g>
   <g id="patch_12">
    <path d="M 116.46 258.552 
L 838.512 258.552 
" style="fill:none;stroke:#000000;stroke-linecap:square;stroke-linejoin:miter;stroke-width:0.8;"/>
   </g>
   <g id="text_32">
    <!-- Map Y -->
    <g transform="translate(451.734029 252.552)scale(0.192 -0.192)">
     <defs>
      <path d="M 62.09375 69 
L 53.5 69 
L 38 44.953125 
C 36.796875 43.046875 33.40625 37.890625 31.796875 35 
L 26.90625 42.859375 
L 10.09375 69 
L 0.296875 69 
L 27.09375 27.640625 
L 27.09375 0 
L 35.296875 0 
L 35.296875 27.546875 
z
" id="CMSS17-89"/>
     </defs>
     <use transform="scale(0.996264)" xlink:href="#CMSS17-77"/>
     <use transform="translate(81.67603 0)scale(0.996264)" xlink:href="#CMSS17-97"/>
     <use transform="translate(126.597951 0)scale(0.996264)" xlink:href="#CMSS17-112"/>
     <use transform="translate(206.032006 0)scale(0.996264)" xlink:href="#CMSS17-89"/>
    </g>
   </g>
   <g id="legend_2">
    <g id="patch_13">
     <path d="M 572.218459 428.181317 
L 827.312 428.181317 
Q 830.512 428.181317 830.512 424.981317 
L 830.512 269.752 
Q 830.512 266.552 827.312 266.552 
L 572.218459 266.552 
Q 569.018459 266.552 569.018459 269.752 
L 569.018459 424.981317 
Q 569.018459 428.181317 572.218459 428.181317 
z
" style="fill:#ffffff;opacity:0.8;stroke:#cccccc;stroke-linejoin:miter;"/>
    </g>
    <g id="line2d_48">
     <path d="M 575.418459 281.505163 
L 607.418459 281.505163 
" style="fill:none;stroke:#ff0000;stroke-linecap:square;stroke-width:1.5;"/>
    </g>
    <g id="line2d_49"/>
    <g id="text_33">
     <!-- $I_x(U|\Pi^{(2)})$, CxSOM -->
     <g transform="translate(620.218459 287.105163)scale(0.16 -0.16)">
      <use transform="scale(0.996264)" xlink:href="#CMMI12-73"/>
      <use transform="translate(43.024176 -14.943915)scale(0.697382)" xlink:href="#CMMI12-120"/>
      <use transform="translate(82.325967 0)scale(0.996264)" xlink:href="#CMR17-40"/>
      <use transform="translate(117.606735 0)scale(0.996264)" xlink:href="#CMMI12-85"/>
      <use transform="translate(194.265508 0)scale(0.996264)" xlink:href="#CMSY10-106"/>
      <use transform="translate(221.939592 0)scale(0.996264)" xlink:href="#CMR17-5"/>
      <use transform="translate(291.012022 36.153639)scale(0.697382)" xlink:href="#CMR17-40"/>
      <use transform="translate(315.708443 36.153639)scale(0.697382)" xlink:href="#CMR17-50"/>
      <use transform="translate(347.691625 36.153639)scale(0.697382)" xlink:href="#CMR17-41"/>
      <use transform="translate(372.886177 0)scale(0.996264)" xlink:href="#CMR17-41"/>
      <use transform="translate(408.166945 0)scale(0.996264)" xlink:href="#CMSS17-44"/>
      <use transform="translate(465.420262 0)scale(0.996264)" xlink:href="#CMSS17-67"/>
      <use transform="translate(525.276034 0)scale(0.996264)" xlink:href="#CMSS17-120"/>
      <use transform="translate(568.276176 0)scale(0.996264)" xlink:href="#CMSS17-83"/>
      <use transform="translate(620.324692 0)scale(0.996264)" xlink:href="#CMSS17-79"/>
      <use transform="translate(689.348947 0)scale(0.996264)" xlink:href="#CMSS17-77"/>
     </g>
    </g>
    <g id="line2d_50">
     <path d="M 575.418459 307.643383 
L 607.418459 307.643383 
" style="fill:none;stroke:#ffa500;stroke-linecap:square;stroke-width:1.5;"/>
    </g>
    <g id="line2d_51"/>
    <g id="text_34">
     <!-- $I_x(U|\Pi^{(2)})$, Carte simple -->
     <g transform="translate(620.218459 313.243383)scale(0.16 -0.16)">
      <use transform="scale(0.996264)" xlink:href="#CMMI12-73"/>
      <use transform="translate(43.024176 -14.943915)scale(0.697382)" xlink:href="#CMMI12-120"/>
      <use transform="translate(82.325967 0)scale(0.996264)" xlink:href="#CMR17-40"/>
      <use transform="translate(117.606735 0)scale(0.996264)" xlink:href="#CMMI12-85"/>
      <use transform="translate(194.265508 0)scale(0.996264)" xlink:href="#CMSY10-106"/>
      <use transform="translate(221.939592 0)scale(0.996264)" xlink:href="#CMR17-5"/>
      <use transform="translate(291.012022 36.153639)scale(0.697382)" xlink:href="#CMR17-40"/>
      <use transform="translate(315.708443 36.153639)scale(0.697382)" xlink:href="#CMR17-50"/>
      <use transform="translate(347.691625 36.153639)scale(0.697382)" xlink:href="#CMR17-41"/>
      <use transform="translate(372.886177 0)scale(0.996264)" xlink:href="#CMR17-41"/>
      <use transform="translate(408.166945 0)scale(0.996264)" xlink:href="#CMSS17-44"/>
      <use transform="translate(465.420262 0)scale(0.996264)" xlink:href="#CMSS17-67"/>
      <use transform="translate(525.276034 0)scale(0.996264)" xlink:href="#CMSS17-97"/>
      <use transform="translate(567.595501 0)scale(0.996264)" xlink:href="#CMSS17-114"/>
      <use transform="translate(599.505273 0)scale(0.996264)" xlink:href="#CMSS17-116"/>
      <use transform="translate(633.33684 0)scale(0.996264)" xlink:href="#CMSS17-101"/>
      <use transform="translate(706.204775 0)scale(0.996264)" xlink:href="#CMSS17-115"/>
      <use transform="translate(742.118317 0)scale(0.996264)" xlink:href="#CMSS17-105"/>
      <use transform="translate(764.29904 0)scale(0.996264)" xlink:href="#CMSS17-109"/>
      <use transform="translate(838.528294 0)scale(0.996264)" xlink:href="#CMSS17-112"/>
      <use transform="translate(886.733237 0)scale(0.996264)" xlink:href="#CMSS17-108"/>
      <use transform="translate(908.91396 0)scale(0.996264)" xlink:href="#CMSS17-101"/>
     </g>
    </g>
    <g id="line2d_52">
     <path d="M 575.418459 333.781602 
L 607.418459 333.781602 
" style="fill:none;stroke:#000000;stroke-linecap:square;stroke-width:1.5;"/>
    </g>
    <g id="line2d_53"/>
    <g id="text_35">
     <!-- $I_x(X^{(2)}|\Pi^{(1)})$, Carte simple -->
     <g transform="translate(620.218459 339.381602)scale(0.16 -0.16)">
      <use transform="scale(0.996264)" xlink:href="#CMMI12-73"/>
      <use transform="translate(43.024176 -14.943915)scale(0.697382)" xlink:href="#CMMI12-120"/>
      <use transform="translate(82.325967 0)scale(0.996264)" xlink:href="#CMR17-40"/>
      <use transform="translate(117.606735 0)scale(0.996264)" xlink:href="#CMMI12-88"/>
      <use transform="translate(206.399297 36.153639)scale(0.697382)" xlink:href="#CMR17-40"/>
      <use transform="translate(231.095717 36.153639)scale(0.697382)" xlink:href="#CMR17-50"/>
      <use transform="translate(263.078899 36.153639)scale(0.697382)" xlink:href="#CMR17-41"/>
      <use transform="translate(288.273451 0)scale(0.996264)" xlink:href="#CMSY10-106"/>
      <use transform="translate(315.947536 0)scale(0.996264)" xlink:href="#CMR17-5"/>
      <use transform="translate(385.019966 36.153639)scale(0.697382)" xlink:href="#CMR17-40"/>
      <use transform="translate(409.716386 36.153639)scale(0.697382)" xlink:href="#CMR17-49"/>
      <use transform="translate(441.699568 36.153639)scale(0.697382)" xlink:href="#CMR17-41"/>
      <use transform="translate(466.894121 0)scale(0.996264)" xlink:href="#CMR17-41"/>
      <use transform="translate(502.174889 0)scale(0.996264)" xlink:href="#CMSS17-44"/>
      <use transform="translate(559.428206 0)scale(0.996264)" xlink:href="#CMSS17-67"/>
      <use transform="translate(619.283978 0)scale(0.996264)" xlink:href="#CMSS17-97"/>
      <use transform="translate(661.603444 0)scale(0.996264)" xlink:href="#CMSS17-114"/>
      <use transform="translate(693.513217 0)scale(0.996264)" xlink:href="#CMSS17-116"/>
      <use transform="translate(727.344784 0)scale(0.996264)" xlink:href="#CMSS17-101"/>
      <use transform="translate(800.212719 0)scale(0.996264)" xlink:href="#CMSS17-115"/>
      <use transform="translate(836.126261 0)scale(0.996264)" xlink:href="#CMSS17-105"/>
      <use transform="translate(858.306984 0)scale(0.996264)" xlink:href="#CMSS17-109"/>
      <use transform="translate(932.536238 0)scale(0.996264)" xlink:href="#CMSS17-112"/>
      <use transform="translate(980.741181 0)scale(0.996264)" xlink:href="#CMSS17-108"/>
      <use transform="translate(1002.921904 0)scale(0.996264)" xlink:href="#CMSS17-101"/>
     </g>
    </g>
    <g id="line2d_54">
     <path d="M 575.418459 359.919822 
L 607.418459 359.919822 
" style="fill:none;stroke:#0000ff;stroke-linecap:square;stroke-width:1.5;"/>
    </g>
    <g id="line2d_55"/>
    <g id="text_36">
     <!-- $I_x(X^{(2)}|\Pi^{(2)})$, CxSOM -->
     <g transform="translate(620.218459 365.519822)scale(0.16 -0.16)">
      <use transform="scale(0.996264)" xlink:href="#CMMI12-73"/>
      <use transform="translate(43.024176 -14.943915)scale(0.697382)" xlink:href="#CMMI12-120"/>
      <use transform="translate(82.325967 0)scale(0.996264)" xlink:href="#CMR17-40"/>
      <use transform="translate(117.606735 0)scale(0.996264)" xlink:href="#CMMI12-88"/>
      <use transform="translate(206.399297 36.153639)scale(0.697382)" xlink:href="#CMR17-40"/>
      <use transform="translate(231.095717 36.153639)scale(0.697382)" xlink:href="#CMR17-50"/>
      <use transform="translate(263.078899 36.153639)scale(0.697382)" xlink:href="#CMR17-41"/>
      <use transform="translate(288.273451 0)scale(0.996264)" xlink:href="#CMSY10-106"/>
      <use transform="translate(315.947536 0)scale(0.996264)" xlink:href="#CMR17-5"/>
      <use transform="translate(385.019966 36.153639)scale(0.697382)" xlink:href="#CMR17-40"/>
      <use transform="translate(409.716386 36.153639)scale(0.697382)" xlink:href="#CMR17-50"/>
      <use transform="translate(441.699568 36.153639)scale(0.697382)" xlink:href="#CMR17-41"/>
      <use transform="translate(466.894121 0)scale(0.996264)" xlink:href="#CMR17-41"/>
      <use transform="translate(502.174889 0)scale(0.996264)" xlink:href="#CMSS17-44"/>
      <use transform="translate(559.428206 0)scale(0.996264)" xlink:href="#CMSS17-67"/>
      <use transform="translate(619.283978 0)scale(0.996264)" xlink:href="#CMSS17-120"/>
      <use transform="translate(662.284119 0)scale(0.996264)" xlink:href="#CMSS17-83"/>
      <use transform="translate(714.332636 0)scale(0.996264)" xlink:href="#CMSS17-79"/>
      <use transform="translate(783.356891 0)scale(0.996264)" xlink:href="#CMSS17-77"/>
     </g>
    </g>
    <g id="line2d_56">
     <path d="M 575.418459 386.058041 
L 607.418459 386.058041 
" style="fill:none;stroke:#008000;stroke-linecap:square;stroke-width:1.5;"/>
    </g>
    <g id="line2d_57"/>
    <g id="text_37">
     <!-- $I_x(U|X^{(2)})$ -->
     <g transform="translate(620.218459 391.658041)scale(0.16 -0.16)">
      <use transform="scale(0.996264)" xlink:href="#CMMI12-73"/>
      <use transform="translate(43.024176 -14.943915)scale(0.697382)" xlink:href="#CMMI12-120"/>
      <use transform="translate(82.325967 0)scale(0.996264)" xlink:href="#CMR17-40"/>
      <use transform="translate(117.606735 0)scale(0.996264)" xlink:href="#CMMI12-85"/>
      <use transform="translate(194.265508 0)scale(0.996264)" xlink:href="#CMSY10-106"/>
      <use transform="translate(221.939592 0)scale(0.996264)" xlink:href="#CMMI12-88"/>
      <use transform="translate(310.732154 36.153639)scale(0.697382)" xlink:href="#CMR17-40"/>
      <use transform="translate(335.428575 36.153639)scale(0.697382)" xlink:href="#CMR17-50"/>
      <use transform="translate(367.411757 36.153639)scale(0.697382)" xlink:href="#CMR17-41"/>
      <use transform="translate(392.606309 0)scale(0.996264)" xlink:href="#CMR17-41"/>
     </g>
    </g>
    <g id="line2d_58">
     <path d="M 575.418459 412.196261 
L 607.418459 412.196261 
" style="fill:none;stroke:#000000;stroke-dasharray:5.55,2.4;stroke-dashoffset:0;stroke-width:1.5;"/>
    </g>
    <g id="line2d_59"/>
    <g id="text_38">
     <!-- objectif thorique $I_x(X^{(2)}|\Pi^{(2)})$ -->
     <g transform="translate(620.218459 417.796261)scale(0.16 -0.16)">
      <use transform="scale(0.996264)" xlink:href="#CMSS17-111"/>
      <use transform="translate(46.843624 0)scale(0.996264)" xlink:href="#CMSS17-98"/>
      <use transform="translate(95.048567 0)scale(0.996264)" xlink:href="#CMSS17-106"/>
      <use transform="translate(119.831652 0)scale(0.996264)" xlink:href="#CMSS17-101"/>
      <use transform="translate(161.470474 0)scale(0.996264)" xlink:href="#CMSS17-99"/>
      <use transform="translate(203.109297 0)scale(0.996264)" xlink:href="#CMSS17-116"/>
      <use transform="translate(236.940863 0)scale(0.996264)" xlink:href="#CMSS17-105"/>
      <use transform="translate(259.121586 0)scale(0.996264)" xlink:href="#CMSS17-102"/>
      <use transform="translate(318.977358 0)scale(0.996264)" xlink:href="#CMSS17-116"/>
      <use transform="translate(352.808925 0)scale(0.996264)" xlink:href="#CMSS17-104"/>
      <use transform="translate(398.411459 0)scale(0.996264)" xlink:href="#CMSS17-19"/>
      <use transform="translate(401.013868 0)scale(0.996264)" xlink:href="#CMSS17-101"/>
      <use transform="translate(442.65269 0)scale(0.996264)" xlink:href="#CMSS17-111"/>
      <use transform="translate(486.893859 0)scale(0.996264)" xlink:href="#CMSS17-114"/>
      <use transform="translate(518.803632 0)scale(0.996264)" xlink:href="#CMSS17-105"/>
      <use transform="translate(540.984355 0)scale(0.996264)" xlink:href="#CMSS17-113"/>
      <use transform="translate(589.189298 0)scale(0.996264)" xlink:href="#CMSS17-117"/>
      <use transform="translate(637.394241 0)scale(0.996264)" xlink:href="#CMSS17-101"/>
      <use transform="translate(710.262176 0)scale(0.996264)" xlink:href="#CMMI12-73"/>
      <use transform="translate(753.286352 -14.943915)scale(0.697382)" xlink:href="#CMMI12-120"/>
      <use transform="translate(792.588143 0)scale(0.996264)" xlink:href="#CMR17-40"/>
      <use transform="translate(827.868911 0)scale(0.996264)" xlink:href="#CMMI12-88"/>
      <use transform="translate(916.661473 36.153639)scale(0.697382)" xlink:href="#CMR17-40"/>
      <use transform="translate(941.357893 36.153639)scale(0.697382)" xlink:href="#CMR17-50"/>
      <use transform="translate(973.341075 36.153639)scale(0.697382)" xlink:href="#CMR17-41"/>
      <use transform="translate(998.535628 0)scale(0.996264)" xlink:href="#CMSY10-106"/>
      <use transform="translate(1026.209712 0)scale(0.996264)" xlink:href="#CMR17-5"/>
      <use transform="translate(1095.282142 36.153639)scale(0.697382)" xlink:href="#CMR17-40"/>
      <use transform="translate(1119.978562 36.153639)scale(0.697382)" xlink:href="#CMR17-50"/>
      <use transform="translate(1151.961744 36.153639)scale(0.697382)" xlink:href="#CMR17-41"/>
      <use transform="translate(1177.156297 0)scale(0.996264)" xlink:href="#CMR17-41"/>
     </g>
    </g>
   </g>
  </g>
 </g>
 <defs>
  <clipPath id="pf477bbc297">
   <rect height="167.58" width="722.052" x="116.46" y="57.456"/>
  </clipPath>
  <clipPath id="pb520106bd4">
   <rect height="167.58" width="722.052" x="116.46" y="258.552"/>
  </clipPath>
 </defs>
</svg>
