<?xml version="1.0" encoding="UTF-8" standalone="no"?>
<!-- Created with Inkscape (http://www.inkscape.org/) -->

<svg
   xmlns:dc="http://purl.org/dc/elements/1.1/"
   xmlns:cc="http://creativecommons.org/ns#"
   xmlns:rdf="http://www.w3.org/1999/02/22-rdf-syntax-ns#"
   xmlns:svg="http://www.w3.org/2000/svg"
   xmlns="http://www.w3.org/2000/svg"
   xmlns:sodipodi="http://sodipodi.sourceforge.net/DTD/sodipodi-0.dtd"
   xmlns:inkscape="http://www.inkscape.org/namespaces/inkscape"
   version="1.1"
   id="svg2"
   xml:space="preserve"
   width="836.15997"
   height="586.56"
   viewBox="0 0 836.15997 586.56"
   sodipodi:docname="evolution_MI_binning.svg"
   inkscape:version="0.92.5 (2060ec1f9f, 2020-04-08)"><metadata
     id="metadata8"><rdf:RDF><cc:Work
         rdf:about=""><dc:format>image/svg+xml</dc:format><dc:type
           rdf:resource="http://purl.org/dc/dcmitype/StillImage" /><dc:title></dc:title></cc:Work></rdf:RDF></metadata><defs
     id="defs6"><clipPath
       clipPathUnits="userSpaceOnUse"
       id="clipPath22"><path
         d="m 78.39,233.1576 h 486.018 v 153.972 H 78.39 Z"
         id="path20"
         inkscape:connector-curvature="0" /></clipPath><clipPath
       clipPathUnits="userSpaceOnUse"
       id="clipPath32"><path
         d="m 78.39,233.1576 h 486.018 v 153.972 H 78.39 Z"
         id="path30"
         inkscape:connector-curvature="0" /></clipPath><clipPath
       clipPathUnits="userSpaceOnUse"
       id="clipPath42"><path
         d="m 78.39,233.1576 h 486.018 v 153.972 H 78.39 Z"
         id="path40"
         inkscape:connector-curvature="0" /></clipPath><clipPath
       clipPathUnits="userSpaceOnUse"
       id="clipPath52"><path
         d="m 78.39,233.1576 h 486.018 v 153.972 H 78.39 Z"
         id="path50"
         inkscape:connector-curvature="0" /></clipPath><clipPath
       clipPathUnits="userSpaceOnUse"
       id="clipPath152"><path
         d="m 78.39,233.1576 h 486.018 v 153.972 H 78.39 Z"
         id="path150"
         inkscape:connector-curvature="0" /></clipPath><clipPath
       clipPathUnits="userSpaceOnUse"
       id="clipPath162"><path
         d="m 78.39,233.1576 h 486.018 v 153.972 H 78.39 Z"
         id="path160"
         inkscape:connector-curvature="0" /></clipPath><clipPath
       clipPathUnits="userSpaceOnUse"
       id="clipPath172"><path
         d="m 78.39,233.1576 h 486.018 v 153.972 H 78.39 Z"
         id="path170"
         inkscape:connector-curvature="0" /></clipPath><clipPath
       clipPathUnits="userSpaceOnUse"
       id="clipPath182"><path
         d="m 78.39,233.1576 h 486.018 v 153.972 H 78.39 Z"
         id="path180"
         inkscape:connector-curvature="0" /></clipPath><clipPath
       clipPathUnits="userSpaceOnUse"
       id="clipPath234"><path
         d="m 78.39,48.3912 h 486.018 v 153.972 H 78.39 Z"
         id="path232"
         inkscape:connector-curvature="0" /></clipPath><clipPath
       clipPathUnits="userSpaceOnUse"
       id="clipPath244"><path
         d="m 78.39,48.3912 h 486.018 v 153.972 H 78.39 Z"
         id="path242"
         inkscape:connector-curvature="0" /></clipPath><clipPath
       clipPathUnits="userSpaceOnUse"
       id="clipPath254"><path
         d="m 78.39,48.3912 h 486.018 v 153.972 H 78.39 Z"
         id="path252"
         inkscape:connector-curvature="0" /></clipPath><clipPath
       clipPathUnits="userSpaceOnUse"
       id="clipPath264"><path
         d="m 78.39,48.3912 h 486.018 v 153.972 H 78.39 Z"
         id="path262"
         inkscape:connector-curvature="0" /></clipPath><clipPath
       clipPathUnits="userSpaceOnUse"
       id="clipPath364"><path
         d="m 78.39,48.3912 h 486.018 v 153.972 H 78.39 Z"
         id="path362"
         inkscape:connector-curvature="0" /></clipPath><clipPath
       clipPathUnits="userSpaceOnUse"
       id="clipPath374"><path
         d="m 78.39,48.3912 h 486.018 v 153.972 H 78.39 Z"
         id="path372"
         inkscape:connector-curvature="0" /></clipPath><clipPath
       clipPathUnits="userSpaceOnUse"
       id="clipPath384"><path
         d="m 78.39,48.3912 h 486.018 v 153.972 H 78.39 Z"
         id="path382"
         inkscape:connector-curvature="0" /></clipPath><clipPath
       clipPathUnits="userSpaceOnUse"
       id="clipPath394"><path
         d="m 78.39,48.3912 h 486.018 v 153.972 H 78.39 Z"
         id="path392"
         inkscape:connector-curvature="0" /></clipPath></defs><sodipodi:namedview
     pagecolor="#ffffff"
     bordercolor="#666666"
     borderopacity="1"
     objecttolerance="10"
     gridtolerance="10"
     guidetolerance="10"
     inkscape:pageopacity="0"
     inkscape:pageshadow="2"
     inkscape:window-width="1848"
     inkscape:window-height="1016"
     id="namedview4"
     showgrid="false"
     inkscape:zoom="3.2187671"
     inkscape:cx="592.28595"
     inkscape:cy="389.83333"
     inkscape:window-x="72"
     inkscape:window-y="27"
     inkscape:window-maximized="1"
     inkscape:current-layer="g10" /><g
     id="g10"
     inkscape:groupmode="layer"
     inkscape:label="evolution_MI"
     transform="matrix(1.3333333,0,0,-1.3333333,0,586.56)"><g
   id="g16"
   transform="translate(0,9)"><g
     id="g18"
     clip-path="url(#clipPath22)"><path
       d="m 100.48173,318.49632 v -30.66558 l 2.76146,-3.24442 2.76147,1.35055 2.76147,2.62218 2.76146,0.35452 2.76147,-5.93062 2.76146,-4.06815 2.76147,6.33687 2.76146,2.91501 2.76147,2.43877 2.76147,7.9006 2.76146,5.3036 2.76147,4.06816 2.76146,2.46735 2.76147,4.09575 2.76147,0.91796 2.76146,4.14858 2.76147,3.483 2.76146,2.01569 2.76147,2.07945 2.76146,4.68212 2.76147,4.10311 2.76147,3.07567 2.76146,-0.38496 2.76147,2.7105 2.76146,1.60409 2.76147,-0.10849 2.76147,1.08971 2.76146,0.19468 2.76147,2.6033 2.76146,-0.5931 2.76147,2.39422 2.76147,-4.41799 2.76146,5.92085 2.76147,0.42307 2.76146,-0.36472 2.76147,0.14745 2.76147,2.52656 2.76146,1.58046 2.76147,0.0268 2.76146,0.90724 110.45864,6.74377 110.45864,8.09714 110.45863,-2.89918 v 10.99871 0 l -110.45863,-1.2341 -110.45864,3.21836 -110.45864,-10.41469 -2.76146,-2.12818 -2.76147,1.25941 -2.76146,-0.70783 -2.76147,-0.0428 -2.76147,0.20875 -2.76146,-1.9227 -2.76147,-1.77873 -2.76146,0.1222 -2.76147,0.23968 -2.76147,-1.67462 -2.76146,-0.47189 -2.76147,-1.01481 -2.76146,1.06307 -2.76147,0.70153 -2.76147,-0.94798 -2.76146,-2.97453 -2.76147,0.82942 -2.76146,-3.91866 -2.76147,0.99907 -2.76147,-1.74547 -2.76146,-5.9342 -2.76147,-3.09721 -2.76146,-2.02616 -2.76147,-3.31845 -2.76146,-1.28878 -2.76147,-2.09354 -2.76147,-4.12322 -2.76146,-7.86973 -2.76147,-3.93752 -2.76146,-5.19321 -2.76147,-3.69363 -2.76147,-2.24383 -2.76146,-4.11722 -2.76147,0.0673 -2.76146,3.40413 -2.76147,-1.08895 -2.76146,6.74273 -2.76147,-6.37623 -2.76147,5.46866 -2.76146,3.40426 z"
       style="fill:#0000ff;fill-opacity:0.5;fill-rule:nonzero;stroke:#0000ff;stroke-width:1;stroke-linecap:butt;stroke-linejoin:round;stroke-miterlimit:10;stroke-dasharray:none;stroke-opacity:0.5"
       id="path24"
       inkscape:connector-curvature="0" /></g></g><g
   id="g36"
   transform="translate(0,9)"><g
     id="g38"
     clip-path="url(#clipPath42)"><path
       d="m 100.48173,302.90788 v -23.2528 l 2.76146,-3.50948 2.76147,-0.4176 2.76147,2.9143 2.76146,-2.22901 2.76147,1.67491 2.76146,2.39409 2.76147,1.83902 2.76146,2.84377 2.76147,-4.47282 2.76147,2.25914 2.76146,2.62076 2.76147,4.17687 2.76146,2.24842 2.76147,-1.31144 2.76147,4.76094 2.76146,2.16236 2.76147,3.40495 2.76146,2.20245 2.76147,0.20683 2.76146,6.29652 2.76147,2.10312 2.76147,-0.22012 2.76146,5.15616 2.76147,-2.02556 2.76146,1.89879 2.76147,4.36177 2.76147,-0.37917 2.76146,-1.9254 2.76147,3.21625 2.76146,1.20998 2.76147,0.2434 2.76147,1.6794 2.76146,-0.52698 2.76147,0.95888 2.76146,1.03279 2.76147,-0.58741 2.76147,0.20178 2.76146,-0.75348 2.76147,0.28418 2.76146,-0.20262 110.45864,14.00924 110.45864,2.03901 110.45863,4.76963 v 11.07966 0 L 431.85764,356.09234 321.399,348.993 l -110.45864,-7.43945 -2.76146,-2.9782 -2.76147,-0.46619 -2.76146,-0.63844 -2.76147,0.59812 -2.76147,-1.18139 -2.76146,-2.90883 -2.76147,-1.10049 -2.76146,-0.0914 -2.76147,-1.81139 -2.76147,-1.19562 -2.76146,0.83419 -2.76147,1.01975 -2.76146,-3.93643 -2.76147,-0.33249 -2.76147,-1.80167 -2.76146,4.46415 -2.76147,-0.61303 -2.76146,-3.94744 -2.76147,-1.48693 -2.76147,1.42778 -2.76146,-3.94829 -2.76147,-2.2042 -2.76146,-1.39915 -2.76147,0.26254 -2.76146,-6.12206 -2.76147,-0.54962 -2.76147,-2.65417 -2.76146,0.59746 -2.76147,0.914 -2.76146,-8.3178 -2.76147,-2.21982 -2.76147,3.53271 -2.76146,-0.66884 -2.76147,-3.28281 -2.76146,0.33751 -2.76147,-1.24735 -2.76146,-2.63122 -2.76147,-7.40623 -2.76147,6.2277 -2.76146,8.27991 z"
       style="fill:#008000;fill-opacity:0.5;fill-rule:nonzero;stroke:#008000;stroke-width:1;stroke-linecap:butt;stroke-linejoin:round;stroke-miterlimit:10;stroke-dasharray:none;stroke-opacity:0.5"
       id="path44"
       inkscape:connector-curvature="0" /></g></g><g
   id="g56"
   transform="translate(0,9)"><path
   d="m 100.48173,233.1576 v -3.5"
   style="fill:#000000;fill-opacity:1;fill-rule:nonzero;stroke:#000000;stroke-width:0.80000001;stroke-linecap:butt;stroke-linejoin:round;stroke-miterlimit:10;stroke-dasharray:none;stroke-opacity:1"
   id="path58"
   inkscape:connector-curvature="0" /><text
   transform="matrix(1,0,0,-1,97.30204,218.56385)"
   style="font-variant:normal;font-weight:normal;font-size:10px;font-family:'DejaVu Sans';-inkscape-font-specification:DejaVuSans;writing-mode:lr-tb;fill:#000000;fill-opacity:1;fill-rule:nonzero;stroke:none"
   id="text62"><tspan
     x="0"
     y="0"
     id="tspan60">0</tspan></text>


<path
   d="m 155.71104,233.1576 v -3.5"
   style="fill:#000000;fill-opacity:1;fill-rule:nonzero;stroke:#000000;stroke-width:0.80000001;stroke-linecap:butt;stroke-linejoin:round;stroke-miterlimit:10;stroke-dasharray:none;stroke-opacity:1"
   id="path64"
   inkscape:connector-curvature="0" /><text
   transform="matrix(1,0,0,-1,146.17198,218.56385)"
   style="font-variant:normal;font-weight:normal;font-size:10px;font-family:'DejaVu Sans';-inkscape-font-specification:DejaVuSans;writing-mode:lr-tb;fill:#000000;fill-opacity:1;fill-rule:nonzero;stroke:none"
   id="text68"><tspan
     x="0 6.3600001 12.72"
     y="0"
     sodipodi:role="line"
     id="tspan66">100</tspan></text>


<path
   d="m 210.94036,233.1576 v -3.5"
   style="fill:#000000;fill-opacity:1;fill-rule:nonzero;stroke:#000000;stroke-width:0.80000001;stroke-linecap:butt;stroke-linejoin:round;stroke-miterlimit:10;stroke-dasharray:none;stroke-opacity:1"
   id="path70"
   inkscape:connector-curvature="0" /><text
   transform="matrix(1,0,0,-1,201.4013,218.56385)"
   style="font-variant:normal;font-weight:normal;font-size:10px;font-family:'DejaVu Sans';-inkscape-font-specification:DejaVuSans;writing-mode:lr-tb;fill:#000000;fill-opacity:1;fill-rule:nonzero;stroke:none"
   id="text74"><tspan
     x="0 6.3600001 12.72"
     y="0"
     sodipodi:role="line"
     id="tspan72">200</tspan></text>


<path
   d="m 266.16968,233.1576 v -3.5"
   style="fill:#000000;fill-opacity:1;fill-rule:nonzero;stroke:#000000;stroke-width:0.80000001;stroke-linecap:butt;stroke-linejoin:round;stroke-miterlimit:10;stroke-dasharray:none;stroke-opacity:1"
   id="path76"
   inkscape:connector-curvature="0" /><text
   transform="matrix(1,0,0,-1,256.63062,218.56385)"
   style="font-variant:normal;font-weight:normal;font-size:10px;font-family:'DejaVu Sans';-inkscape-font-specification:DejaVuSans;writing-mode:lr-tb;fill:#000000;fill-opacity:1;fill-rule:nonzero;stroke:none"
   id="text80"><tspan
     x="0 6.3600001 12.72"
     y="0"
     sodipodi:role="line"
     id="tspan78">300</tspan></text>


<path
   d="m 321.399,233.1576 v -3.5"
   style="fill:#000000;fill-opacity:1;fill-rule:nonzero;stroke:#000000;stroke-width:0.80000001;stroke-linecap:butt;stroke-linejoin:round;stroke-miterlimit:10;stroke-dasharray:none;stroke-opacity:1"
   id="path82"
   inkscape:connector-curvature="0" /><text
   transform="matrix(1,0,0,-1,311.85994,218.56385)"
   style="font-variant:normal;font-weight:normal;font-size:10px;font-family:'DejaVu Sans';-inkscape-font-specification:DejaVuSans;writing-mode:lr-tb;fill:#000000;fill-opacity:1;fill-rule:nonzero;stroke:none"
   id="text86"><tspan
     x="0 6.3600001 12.72"
     y="0"
     sodipodi:role="line"
     id="tspan84">400</tspan></text>


<path
   d="m 376.62832,233.1576 v -3.5"
   style="fill:#000000;fill-opacity:1;fill-rule:nonzero;stroke:#000000;stroke-width:0.80000001;stroke-linecap:butt;stroke-linejoin:round;stroke-miterlimit:10;stroke-dasharray:none;stroke-opacity:1"
   id="path88"
   inkscape:connector-curvature="0" /><text
   transform="matrix(1,0,0,-1,367.08926,218.56385)"
   style="font-variant:normal;font-weight:normal;font-size:10px;font-family:'DejaVu Sans';-inkscape-font-specification:DejaVuSans;writing-mode:lr-tb;fill:#000000;fill-opacity:1;fill-rule:nonzero;stroke:none"
   id="text92"><tspan
     x="0 6.3600001 12.72"
     y="0"
     sodipodi:role="line"
     id="tspan90">500</tspan></text>


<path
   d="m 431.85764,233.1576 v -3.5"
   style="fill:#000000;fill-opacity:1;fill-rule:nonzero;stroke:#000000;stroke-width:0.80000001;stroke-linecap:butt;stroke-linejoin:round;stroke-miterlimit:10;stroke-dasharray:none;stroke-opacity:1"
   id="path94"
   inkscape:connector-curvature="0" /><text
   transform="matrix(1,0,0,-1,422.31857,218.56385)"
   style="font-variant:normal;font-weight:normal;font-size:10px;font-family:'DejaVu Sans';-inkscape-font-specification:DejaVuSans;writing-mode:lr-tb;fill:#000000;fill-opacity:1;fill-rule:nonzero;stroke:none"
   id="text98"><tspan
     x="0 6.3600001 12.72"
     y="0"
     sodipodi:role="line"
     id="tspan96">600</tspan></text>


<path
   d="m 487.08695,233.1576 v -3.5"
   style="fill:#000000;fill-opacity:1;fill-rule:nonzero;stroke:#000000;stroke-width:0.80000001;stroke-linecap:butt;stroke-linejoin:round;stroke-miterlimit:10;stroke-dasharray:none;stroke-opacity:1"
   id="path100"
   inkscape:connector-curvature="0" /><text
   transform="matrix(1,0,0,-1,477.54789,218.56385)"
   style="font-variant:normal;font-weight:normal;font-size:10px;font-family:'DejaVu Sans';-inkscape-font-specification:DejaVuSans;writing-mode:lr-tb;fill:#000000;fill-opacity:1;fill-rule:nonzero;stroke:none"
   id="text104"><tspan
     x="0 6.3600001 12.72"
     y="0"
     sodipodi:role="line"
     id="tspan102">700</tspan></text>


<path
   d="m 542.31627,233.1576 v -3.5"
   style="fill:#000000;fill-opacity:1;fill-rule:nonzero;stroke:#000000;stroke-width:0.80000001;stroke-linecap:butt;stroke-linejoin:round;stroke-miterlimit:10;stroke-dasharray:none;stroke-opacity:1"
   id="path106"
   inkscape:connector-curvature="0" /><text
   transform="matrix(1,0,0,-1,532.77721,218.56385)"
   style="font-variant:normal;font-weight:normal;font-size:10px;font-family:'DejaVu Sans';-inkscape-font-specification:DejaVuSans;writing-mode:lr-tb;fill:#000000;fill-opacity:1;fill-rule:nonzero;stroke:none"
   id="text110"><tspan
     x="0 6.3600001 12.72"
     y="0"
     sodipodi:role="line"
     id="tspan108">800</tspan></text>


<text
   transform="matrix(1,0,0,-1,299.274,204.89197)"
   style="font-variant:normal;font-weight:normal;font-size:10px;font-family:'DejaVu Sans';-inkscape-font-specification:DejaVuSans;writing-mode:lr-tb;fill:#000000;fill-opacity:1;fill-rule:nonzero;stroke:none"
   id="text114"><tspan
     x="0 3.9200001 6.6999998 16.440001 22.59 27.799999 31.719999 37.869999"
     y="0"
     sodipodi:role="line"
     id="tspan112">timestep</tspan></text>


<path
   d="m 78.39,258.6785 h -3.5"
   style="fill:#000000;fill-opacity:1;fill-rule:nonzero;stroke:#000000;stroke-width:0.80000001;stroke-linecap:butt;stroke-linejoin:round;stroke-miterlimit:10;stroke-dasharray:none;stroke-opacity:1"
   id="path116"
   inkscape:connector-curvature="0" /><text
   transform="matrix(1,0,0,-1,55.48375,254.88163)"
   style="font-variant:normal;font-weight:normal;font-size:10px;font-family:'DejaVu Sans';-inkscape-font-specification:DejaVuSans;writing-mode:lr-tb;fill:#000000;fill-opacity:1;fill-rule:nonzero;stroke:none"
   id="text120"><tspan
     x="0 6.3600001 9.54"
     y="0"
     sodipodi:role="line"
     id="tspan118">0.4</tspan></text>


<path
   d="m 78.39,288.23373 h -3.5"
   style="fill:#000000;fill-opacity:1;fill-rule:nonzero;stroke:#000000;stroke-width:0.80000001;stroke-linecap:butt;stroke-linejoin:round;stroke-miterlimit:10;stroke-dasharray:none;stroke-opacity:1"
   id="path122"
   inkscape:connector-curvature="0" /><text
   transform="matrix(1,0,0,-1,55.48375,284.43685)"
   style="font-variant:normal;font-weight:normal;font-size:10px;font-family:'DejaVu Sans';-inkscape-font-specification:DejaVuSans;writing-mode:lr-tb;fill:#000000;fill-opacity:1;fill-rule:nonzero;stroke:none"
   id="text126"><tspan
     x="0 6.3600001 9.54"
     y="0"
     sodipodi:role="line"
     id="tspan124">0.5</tspan></text>


<path
   d="m 78.39,317.78895 h -3.5"
   style="fill:#000000;fill-opacity:1;fill-rule:nonzero;stroke:#000000;stroke-width:0.80000001;stroke-linecap:butt;stroke-linejoin:round;stroke-miterlimit:10;stroke-dasharray:none;stroke-opacity:1"
   id="path128"
   inkscape:connector-curvature="0" /><text
   transform="matrix(1,0,0,-1,55.48375,313.99208)"
   style="font-variant:normal;font-weight:normal;font-size:10px;font-family:'DejaVu Sans';-inkscape-font-specification:DejaVuSans;writing-mode:lr-tb;fill:#000000;fill-opacity:1;fill-rule:nonzero;stroke:none"
   id="text132"><tspan
     x="0 6.3600001 9.54"
     y="0"
     sodipodi:role="line"
     id="tspan130">0.6</tspan></text>


<path
   d="m 78.39,347.34418 h -3.5"
   style="fill:#000000;fill-opacity:1;fill-rule:nonzero;stroke:#000000;stroke-width:0.80000001;stroke-linecap:butt;stroke-linejoin:round;stroke-miterlimit:10;stroke-dasharray:none;stroke-opacity:1"
   id="path134"
   inkscape:connector-curvature="0" /><text
   transform="matrix(1,0,0,-1,55.48375,343.5473)"
   style="font-variant:normal;font-weight:normal;font-size:10px;font-family:'DejaVu Sans';-inkscape-font-specification:DejaVuSans;writing-mode:lr-tb;fill:#000000;fill-opacity:1;fill-rule:nonzero;stroke:none"
   id="text138"><tspan
     x="0 6.3600001 9.54"
     y="0"
     sodipodi:role="line"
     id="tspan136">0.7</tspan></text>


<path
   d="m 78.39,376.8994 h -3.5"
   style="fill:#000000;fill-opacity:1;fill-rule:nonzero;stroke:#000000;stroke-width:0.80000001;stroke-linecap:butt;stroke-linejoin:round;stroke-miterlimit:10;stroke-dasharray:none;stroke-opacity:1"
   id="path140"
   inkscape:connector-curvature="0" /><text
   transform="matrix(1,0,0,-1,55.48375,373.10253)"
   style="font-variant:normal;font-weight:normal;font-size:10px;font-family:'DejaVu Sans';-inkscape-font-specification:DejaVuSans;writing-mode:lr-tb;fill:#000000;fill-opacity:1;fill-rule:nonzero;stroke:none"
   id="text144"><tspan
     x="0 6.3600001 9.54"
     y="0"
     sodipodi:role="line"
     id="tspan142">0.8</tspan></text>


</g><g
   id="g146"
   transform="translate(0,9)"><g
     id="g148"
     clip-path="url(#clipPath152)"><path
       d="m 100.48173,303.16353 2.76146,-3.32434 2.76147,-2.05906 2.76147,4.49921 2.76146,-3.19411 2.76147,-2.42083 2.76146,-3.73614 2.76147,3.13476 2.76146,3.51612 2.76147,2.3413 2.76147,5.79711 2.76146,5.2484 2.76147,4.00284 2.76146,5.16854 2.76147,4.10949 2.76147,1.50574 2.76146,2.71869 2.76147,3.40072 2.76146,2.02093 2.76147,2.58833 2.76146,5.30816 2.76147,2.92429 2.76147,1.0383 2.76146,1.76685 2.76147,0.94054 2.76146,2.28931 2.76147,0.41975 2.76147,0.19409 2.76146,-0.4342 2.76147,1.80905 2.76146,-0.0606 2.76147,2.03442 2.76147,-2.32883 2.76146,2.89932 2.76147,1.1009 2.76146,0.77899 2.76147,-0.0306 2.76147,1.2847 2.76146,1.14414 2.76147,-0.6163 2.76146,1.51771 110.45864,8.57924 110.45864,2.43939 110.45863,-0.83254"
       style="fill:none;stroke:#0000ff;stroke-width:1.5;stroke-linecap:square;stroke-linejoin:round;stroke-miterlimit:10;stroke-dasharray:none;stroke-opacity:1"
       id="path154"
       inkscape:connector-curvature="0" /></g></g><g
   id="g166"
   transform="translate(0,9)"><g
     id="g168"
     clip-path="url(#clipPath172)"><path
       d="m 100.48173,291.28148 2.76146,-5.89469 2.76147,-3.32265 2.76147,5.16026 2.76146,0.20111 2.76147,1.46113 2.76146,1.02828 2.76147,2.56092 2.76146,1.7563 2.76147,-4.00276 2.76147,2.23948 2.76146,5.46928 2.76147,1.63143 2.76146,0.82548 2.76147,0.67137 2.76147,2.65528 2.76146,4.14221 2.76147,1.5712 2.76146,1.8008 2.76147,1.20552 2.76146,5.1224 2.76147,0.33768 2.76147,0.6334 2.76146,4.5518 2.76147,-0.70627 2.76146,-1.28268 2.76147,3.08173 2.76147,-0.0233 2.76146,1.00552 2.76147,1.09825 2.76146,0.1879 2.76147,0.7195 2.76147,1.7454 2.76146,-0.2178 2.76147,1.02969 2.76146,1.97081 2.76147,0.29699 2.76147,-0.19817 2.76146,-0.0575 2.76147,0.37518 2.76146,1.38779 110.45864,10.72435 110.45864,4.56918 110.45863,3.01032"
       style="fill:none;stroke:#008000;stroke-width:1.5;stroke-linecap:square;stroke-linejoin:round;stroke-miterlimit:10;stroke-dasharray:none;stroke-opacity:1"
       id="path174"
       inkscape:connector-curvature="0" /></g></g><path
   inkscape:connector-curvature="0"
   id="path188"
   style="fill:none;stroke:#000000;stroke-width:0.80000001;stroke-linecap:square;stroke-linejoin:miter;stroke-miterlimit:10;stroke-dasharray:none;stroke-opacity:1"
   d="m 78.39,242.1576 v 153.972" /><path
   inkscape:connector-curvature="0"
   id="path190"
   style="fill:none;stroke:#000000;stroke-width:0.80000001;stroke-linecap:square;stroke-linejoin:miter;stroke-miterlimit:10;stroke-dasharray:none;stroke-opacity:1"
   d="m 564.408,242.1576 v 153.972" /><path
   inkscape:connector-curvature="0"
   id="path192"
   style="fill:none;stroke:#000000;stroke-width:0.80000001;stroke-linecap:square;stroke-linejoin:miter;stroke-miterlimit:10;stroke-dasharray:none;stroke-opacity:1"
   d="M 78.39,242.1576 H 564.408" /><path
   inkscape:connector-curvature="0"
   id="path194"
   style="fill:none;stroke:#000000;stroke-width:0.80000001;stroke-linecap:square;stroke-linejoin:miter;stroke-miterlimit:10;stroke-dasharray:none;stroke-opacity:1"
   d="M 78.39,396.1296 H 564.408" /><path
   inkscape:connector-curvature="0"
   id="path200"
   style="fill:#ffffff;fill-opacity:0.8;fill-rule:nonzero;stroke:#cccccc;stroke-width:1;stroke-linecap:butt;stroke-linejoin:miter;stroke-miterlimit:10;stroke-dasharray:none;stroke-opacity:0.8"
   d="m 395.4664,247.39061 h 162.64063 c 1.33333,0 2,0.66667 2,2 v 58.09375 c 0,1.33333 -0.66667,2 -2,2 H 395.4664 c -1.33333,0 -2,-0.66667 -2,-2 v -58.09375 c 0,-1.33333 0.66667,-2 2,-2 z" /><path
   inkscape:connector-curvature="0"
   id="path202"
   style="fill:none;stroke:#0000ff;stroke-width:1.5;stroke-linecap:square;stroke-linejoin:round;stroke-miterlimit:10;stroke-dasharray:none;stroke-opacity:1"
   d="m 396.76737,292.1576 h 20" /><text
   id="text206"
   style="font-variant:normal;font-weight:normal;font-size:10px;font-family:'DejaVu Sans';-inkscape-font-specification:DejaVuSans;writing-mode:lr-tb;fill:#000000;fill-opacity:1;fill-rule:nonzero;stroke:none"
   transform="scale(1,-1)"
   x="426.26736"
   y="-290.15759"><tspan
     id="tspan204"
     sodipodi:role="line"
     y="-290.15759"
     x="426.26736 433.58737 440.56738 443.74738 446.92737 453.27737 456.05737 462.39737 468.73737 471.51736 477.85736">UC, binning</tspan></text>




<path
   inkscape:connector-curvature="0"
   id="path214"
   style="fill:none;stroke:#008000;stroke-width:1.5;stroke-linecap:square;stroke-linejoin:round;stroke-miterlimit:10;stroke-dasharray:none;stroke-opacity:1"
   d="m 396.76737,260.9076 h 20" /><text
   id="text218"
   style="font-variant:normal;font-weight:normal;font-size:10px;font-family:'DejaVu Sans';-inkscape-font-specification:DejaVuSans;writing-mode:lr-tb;fill:#000000;fill-opacity:1;fill-rule:nonzero;stroke:none"
   transform="scale(1,-1)"
   x="424.76736"
   y="-258.90759"><tspan
     id="tspan216"
     sodipodi:role="line"
     y="-258.90759"
     x="424.76736 432.08737 439.06738 442.24738 448.58737 454.70737 461.04736 464.22736 469.72736 475.84738 482.18738 488.52737 494.67737 500.17737 504.09738 510.24738 513.42737 516.60736 522.9574 525.73737 532.07739 538.41736 541.19739 547.53735">UC non connecté, binning</tspan></text>




<path
   inkscape:connector-curvature="0"
   id="path226"
   style="fill:#ffffff;fill-opacity:1;fill-rule:nonzero;stroke:none"
   d="m 78.39,48.3912 h 486.018 v 153.972 H 78.39 Z" /><g
   id="g228"
   transform="translate(0,-16.5)"><g
     id="g230"
     clip-path="url(#clipPath234)"><path
       d="m 100.48173,133.4944 v -23.91736 l 2.76146,-2.83694 2.76147,-3.45035 2.76147,-2.6974 2.76146,0.11958 2.76147,-1.003704 2.76146,2.101144 2.76147,0.44448 2.76146,1.99785 2.76147,6.53285 2.76147,3.06614 2.76146,4.27785 2.76147,4.24424 2.76146,5.31032 2.76147,2.99264 2.76147,1.67057 2.76146,2.67061 2.76147,1.45651 2.76146,5.61886 2.76147,5.7683 2.76146,-0.53592 2.76147,4.11481 2.76147,-1.09048 2.76146,4.66616 2.76147,2.15947 2.76146,0.63758 2.76147,3.68561 2.76147,-0.11221 2.76146,2.3853 2.76147,-1.64806 2.76146,-0.65667 2.76147,2.55494 2.76147,-1.86867 2.76146,2.12721 2.76147,0.7341 2.76146,1.51384 2.76147,1.48031 2.76147,1.52855 2.76146,1.17571 2.76147,0.37936 2.76146,0.20774 110.45864,8.22195 110.45864,3.37745 110.45863,0.39985 v 9.49817 0 l -110.45863,2.56778 -110.45864,-3.2263 -110.45864,-5.26121 -2.76146,-0.8816 -2.76147,-0.7332 -2.76146,1.16248 -2.76147,-0.70077 -2.76147,-3.30854 -2.76146,-1.01927 -2.76147,0.71364 -2.76146,-1.01988 -2.76147,-0.41723 -2.76147,0.28394 -2.76146,-3.45516 -2.76147,-0.41901 -2.76146,-2.14038 -2.76147,-1.49156 -2.76147,-4.84036 -2.76146,1.0901 -2.76147,-1.52391 -2.76146,-1.9161 -2.76147,0.23113 -2.76147,-2.73819 -2.76146,1.02058 -2.76147,-3.54809 -2.76146,-3.34465 -2.76147,-1.69502 -2.76146,-1.42398 -2.76147,-7.27614 -2.76147,-5.60173 -2.76146,-2.94383 -2.76147,-4.18472 -2.76146,-2.68657 -2.76147,1.05299 -2.76147,-4.77517 -2.76146,-1.7908 -2.76147,-1.793 -2.76146,-3.61526 -2.76147,-2.90513 -2.76146,3.88543 -2.76147,1.10997 -2.76147,1.18376 z"
       style="fill:#0000ff;fill-opacity:0.5;fill-rule:nonzero;stroke:#0000ff;stroke-width:1;stroke-linecap:butt;stroke-linejoin:round;stroke-miterlimit:10;stroke-dasharray:none;stroke-opacity:0.5"
       id="path236"
       inkscape:connector-curvature="0" /></g></g><g
   id="g248"
   transform="translate(0,-16.5)"><g
     id="g250"
     clip-path="url(#clipPath254)"><path
       d="M 100.48173,111.63371 V 93.537861 l 2.76146,-5.360677 2.76147,-0.854953 2.76147,0.635888 2.76146,-0.437972 2.76147,-0.54392 2.76146,1.94333 2.76147,3.256744 2.76146,3.358408 2.76147,6.310241 2.76147,1.39233 2.76146,5.45011 2.76147,-1.44985 2.76146,0.1767 2.76147,4.8363 2.76147,2.96017 2.76146,1.51002 2.76147,3.83307 2.76146,3.90001 2.76147,0.91831 2.76146,1.87398 2.76147,-1.13069 2.76147,5.31254 2.76146,0.27585 2.76147,3.49053 2.76146,-0.11657 2.76147,1.32069 2.76147,0.85681 2.76146,1.37417 2.76147,0.24846 2.76146,2.86559 2.76147,1.09894 2.76147,-1.0472 2.76146,1.9403 2.76147,0.59045 2.76146,-1.74146 2.76147,1.2982 2.76147,3.32684 2.76146,2.40069 2.76147,1.08359 2.76146,-0.0691 110.45864,5.4049 110.45864,4.91105 110.45863,4.56525 v 11.80903 0 l -110.45863,-4.24335 -110.45864,-2.07126 -110.45864,-9.79067 -2.76146,0.46313 -2.76147,-0.13162 -2.76146,-1.64626 -2.76147,0.62373 -2.76147,-2.75804 -2.76146,-0.22583 -2.76147,-0.97117 -2.76146,0.47417 -2.76147,-2.35798 -2.76147,-1.32391 -2.76146,-1.7122 -2.76147,0.48338 -2.76146,-3.69989 -2.76147,-3.40474 -2.76147,1.22793 -2.76146,0.61333 -2.76147,-1.64753 -2.76146,-1.60139 -2.76147,1.77537 -2.76147,-1.75946 -2.76146,-4.15415 -2.76147,2.12414 -2.76146,-0.91898 -2.76147,-6.7796 -2.76146,-0.023 -2.76147,-0.13924 -2.76147,-1.25053 -2.76146,-4.82859 -2.76147,0.69192 -2.76146,-3.98659 -2.76147,-5.23076 -2.76147,-1.6708 -2.76146,-0.17471 -2.76147,1.84855 -2.76146,-12.76336 -2.76147,1.03174 -2.76146,2.08166 -2.76147,-2.54692 -2.76147,1.13796 -2.76146,3.5543 z"
       style="fill:#008000;fill-opacity:0.5;fill-rule:nonzero;stroke:#008000;stroke-width:1;stroke-linecap:butt;stroke-linejoin:round;stroke-miterlimit:10;stroke-dasharray:none;stroke-opacity:0.5"
       id="path256"
       inkscape:connector-curvature="0" /></g></g><g
   id="g268"
   transform="translate(0,-16.5)"><path
   d="m 100.48173,48.3912 v -3.5"
   style="fill:#000000;fill-opacity:1;fill-rule:nonzero;stroke:#000000;stroke-width:0.80000001;stroke-linecap:butt;stroke-linejoin:round;stroke-miterlimit:10;stroke-dasharray:none;stroke-opacity:1"
   id="path270"
   inkscape:connector-curvature="0" /><text
   transform="matrix(1,0,0,-1,97.30204,33.79745)"
   style="font-variant:normal;font-weight:normal;font-size:10px;font-family:'DejaVu Sans';-inkscape-font-specification:DejaVuSans;writing-mode:lr-tb;fill:#000000;fill-opacity:1;fill-rule:nonzero;stroke:none"
   id="text274"><tspan
     x="0"
     y="0"
     id="tspan272">0</tspan></text>


<path
   d="m 155.71104,48.3912 v -3.5"
   style="fill:#000000;fill-opacity:1;fill-rule:nonzero;stroke:#000000;stroke-width:0.80000001;stroke-linecap:butt;stroke-linejoin:round;stroke-miterlimit:10;stroke-dasharray:none;stroke-opacity:1"
   id="path276"
   inkscape:connector-curvature="0" /><text
   transform="matrix(1,0,0,-1,146.17198,33.79745)"
   style="font-variant:normal;font-weight:normal;font-size:10px;font-family:'DejaVu Sans';-inkscape-font-specification:DejaVuSans;writing-mode:lr-tb;fill:#000000;fill-opacity:1;fill-rule:nonzero;stroke:none"
   id="text280"><tspan
     x="0 6.3600001 12.72"
     y="0"
     sodipodi:role="line"
     id="tspan278">100</tspan></text>


<path
   d="m 210.94036,48.3912 v -3.5"
   style="fill:#000000;fill-opacity:1;fill-rule:nonzero;stroke:#000000;stroke-width:0.80000001;stroke-linecap:butt;stroke-linejoin:round;stroke-miterlimit:10;stroke-dasharray:none;stroke-opacity:1"
   id="path282"
   inkscape:connector-curvature="0" /><text
   transform="matrix(1,0,0,-1,201.4013,33.79745)"
   style="font-variant:normal;font-weight:normal;font-size:10px;font-family:'DejaVu Sans';-inkscape-font-specification:DejaVuSans;writing-mode:lr-tb;fill:#000000;fill-opacity:1;fill-rule:nonzero;stroke:none"
   id="text286"><tspan
     x="0 6.3600001 12.72"
     y="0"
     sodipodi:role="line"
     id="tspan284">200</tspan></text>


<path
   d="m 266.16968,48.3912 v -3.5"
   style="fill:#000000;fill-opacity:1;fill-rule:nonzero;stroke:#000000;stroke-width:0.80000001;stroke-linecap:butt;stroke-linejoin:round;stroke-miterlimit:10;stroke-dasharray:none;stroke-opacity:1"
   id="path288"
   inkscape:connector-curvature="0" /><text
   transform="matrix(1,0,0,-1,256.63062,33.79745)"
   style="font-variant:normal;font-weight:normal;font-size:10px;font-family:'DejaVu Sans';-inkscape-font-specification:DejaVuSans;writing-mode:lr-tb;fill:#000000;fill-opacity:1;fill-rule:nonzero;stroke:none"
   id="text292"><tspan
     x="0 6.3600001 12.72"
     y="0"
     sodipodi:role="line"
     id="tspan290">300</tspan></text>


<path
   d="m 321.399,48.3912 v -3.5"
   style="fill:#000000;fill-opacity:1;fill-rule:nonzero;stroke:#000000;stroke-width:0.80000001;stroke-linecap:butt;stroke-linejoin:round;stroke-miterlimit:10;stroke-dasharray:none;stroke-opacity:1"
   id="path294"
   inkscape:connector-curvature="0" /><text
   transform="matrix(1,0,0,-1,311.85994,33.79745)"
   style="font-variant:normal;font-weight:normal;font-size:10px;font-family:'DejaVu Sans';-inkscape-font-specification:DejaVuSans;writing-mode:lr-tb;fill:#000000;fill-opacity:1;fill-rule:nonzero;stroke:none"
   id="text298"><tspan
     x="0 6.3600001 12.72"
     y="0"
     sodipodi:role="line"
     id="tspan296">400</tspan></text>


<path
   d="m 376.62832,48.3912 v -3.5"
   style="fill:#000000;fill-opacity:1;fill-rule:nonzero;stroke:#000000;stroke-width:0.80000001;stroke-linecap:butt;stroke-linejoin:round;stroke-miterlimit:10;stroke-dasharray:none;stroke-opacity:1"
   id="path300"
   inkscape:connector-curvature="0" /><text
   transform="matrix(1,0,0,-1,367.08926,33.79745)"
   style="font-variant:normal;font-weight:normal;font-size:10px;font-family:'DejaVu Sans';-inkscape-font-specification:DejaVuSans;writing-mode:lr-tb;fill:#000000;fill-opacity:1;fill-rule:nonzero;stroke:none"
   id="text304"><tspan
     x="0 6.3600001 12.72"
     y="0"
     sodipodi:role="line"
     id="tspan302">500</tspan></text>


<path
   d="m 431.85764,48.3912 v -3.5"
   style="fill:#000000;fill-opacity:1;fill-rule:nonzero;stroke:#000000;stroke-width:0.80000001;stroke-linecap:butt;stroke-linejoin:round;stroke-miterlimit:10;stroke-dasharray:none;stroke-opacity:1"
   id="path306"
   inkscape:connector-curvature="0" /><text
   transform="matrix(1,0,0,-1,422.31857,33.79745)"
   style="font-variant:normal;font-weight:normal;font-size:10px;font-family:'DejaVu Sans';-inkscape-font-specification:DejaVuSans;writing-mode:lr-tb;fill:#000000;fill-opacity:1;fill-rule:nonzero;stroke:none"
   id="text310"><tspan
     x="0 6.3600001 12.72"
     y="0"
     sodipodi:role="line"
     id="tspan308">600</tspan></text>


<path
   d="m 487.08695,48.3912 v -3.5"
   style="fill:#000000;fill-opacity:1;fill-rule:nonzero;stroke:#000000;stroke-width:0.80000001;stroke-linecap:butt;stroke-linejoin:round;stroke-miterlimit:10;stroke-dasharray:none;stroke-opacity:1"
   id="path312"
   inkscape:connector-curvature="0" /><text
   transform="matrix(1,0,0,-1,477.54789,33.79745)"
   style="font-variant:normal;font-weight:normal;font-size:10px;font-family:'DejaVu Sans';-inkscape-font-specification:DejaVuSans;writing-mode:lr-tb;fill:#000000;fill-opacity:1;fill-rule:nonzero;stroke:none"
   id="text316"><tspan
     x="0 6.3600001 12.72"
     y="0"
     sodipodi:role="line"
     id="tspan314">700</tspan></text>


<path
   d="m 542.31627,48.3912 v -3.5"
   style="fill:#000000;fill-opacity:1;fill-rule:nonzero;stroke:#000000;stroke-width:0.80000001;stroke-linecap:butt;stroke-linejoin:round;stroke-miterlimit:10;stroke-dasharray:none;stroke-opacity:1"
   id="path318"
   inkscape:connector-curvature="0" /><text
   transform="matrix(1,0,0,-1,532.77721,33.79745)"
   style="font-variant:normal;font-weight:normal;font-size:10px;font-family:'DejaVu Sans';-inkscape-font-specification:DejaVuSans;writing-mode:lr-tb;fill:#000000;fill-opacity:1;fill-rule:nonzero;stroke:none"
   id="text322"><tspan
     x="0 6.3600001 12.72"
     y="0"
     sodipodi:role="line"
     id="tspan320">800</tspan></text>


<text
   transform="matrix(1,0,0,-1,299.274,20.125575)"
   style="font-variant:normal;font-weight:normal;font-size:10px;font-family:'DejaVu Sans';-inkscape-font-specification:DejaVuSans;writing-mode:lr-tb;fill:#000000;fill-opacity:1;fill-rule:nonzero;stroke:none"
   id="text326"><tspan
     x="0 3.9200001 6.6999998 16.440001 22.59 27.799999 31.719999 37.869999"
     y="0"
     sodipodi:role="line"
     id="tspan324">timestep</tspan></text>


<path
   d="m 78.39,72.839187 h -3.5"
   style="fill:#000000;fill-opacity:1;fill-rule:nonzero;stroke:#000000;stroke-width:0.80000001;stroke-linecap:butt;stroke-linejoin:round;stroke-miterlimit:10;stroke-dasharray:none;stroke-opacity:1"
   id="path328"
   inkscape:connector-curvature="0" /><text
   transform="matrix(1,0,0,-1,55.48375,69.042312)"
   style="font-variant:normal;font-weight:normal;font-size:10px;font-family:'DejaVu Sans';-inkscape-font-specification:DejaVuSans;writing-mode:lr-tb;fill:#000000;fill-opacity:1;fill-rule:nonzero;stroke:none"
   id="text332"><tspan
     x="0 6.3600001 9.54"
     y="0"
     sodipodi:role="line"
     id="tspan330">0.4</tspan></text>


<path
   d="m 78.39,103.5548 h -3.5"
   style="fill:#000000;fill-opacity:1;fill-rule:nonzero;stroke:#000000;stroke-width:0.80000001;stroke-linecap:butt;stroke-linejoin:round;stroke-miterlimit:10;stroke-dasharray:none;stroke-opacity:1"
   id="path334"
   inkscape:connector-curvature="0" /><text
   transform="matrix(1,0,0,-1,55.48375,99.757923)"
   style="font-variant:normal;font-weight:normal;font-size:10px;font-family:'DejaVu Sans';-inkscape-font-specification:DejaVuSans;writing-mode:lr-tb;fill:#000000;fill-opacity:1;fill-rule:nonzero;stroke:none"
   id="text338"><tspan
     x="0 6.3600001 9.54"
     y="0"
     sodipodi:role="line"
     id="tspan336">0.5</tspan></text>


<path
   d="m 78.39,134.27041 h -3.5"
   style="fill:#000000;fill-opacity:1;fill-rule:nonzero;stroke:#000000;stroke-width:0.80000001;stroke-linecap:butt;stroke-linejoin:round;stroke-miterlimit:10;stroke-dasharray:none;stroke-opacity:1"
   id="path340"
   inkscape:connector-curvature="0" /><text
   transform="matrix(1,0,0,-1,55.48375,130.47353)"
   style="font-variant:normal;font-weight:normal;font-size:10px;font-family:'DejaVu Sans';-inkscape-font-specification:DejaVuSans;writing-mode:lr-tb;fill:#000000;fill-opacity:1;fill-rule:nonzero;stroke:none"
   id="text344"><tspan
     x="0 6.3600001 9.54"
     y="0"
     sodipodi:role="line"
     id="tspan342">0.6</tspan></text>


<path
   d="m 78.39,164.98602 h -3.5"
   style="fill:#000000;fill-opacity:1;fill-rule:nonzero;stroke:#000000;stroke-width:0.80000001;stroke-linecap:butt;stroke-linejoin:round;stroke-miterlimit:10;stroke-dasharray:none;stroke-opacity:1"
   id="path346"
   inkscape:connector-curvature="0" /><text
   transform="matrix(1,0,0,-1,55.48375,161.18914)"
   style="font-variant:normal;font-weight:normal;font-size:10px;font-family:'DejaVu Sans';-inkscape-font-specification:DejaVuSans;writing-mode:lr-tb;fill:#000000;fill-opacity:1;fill-rule:nonzero;stroke:none"
   id="text350"><tspan
     x="0 6.3600001 9.54"
     y="0"
     sodipodi:role="line"
     id="tspan348">0.7</tspan></text>


<path
   d="m 78.39,195.70163 h -3.5"
   style="fill:#000000;fill-opacity:1;fill-rule:nonzero;stroke:#000000;stroke-width:0.80000001;stroke-linecap:butt;stroke-linejoin:round;stroke-miterlimit:10;stroke-dasharray:none;stroke-opacity:1"
   id="path352"
   inkscape:connector-curvature="0" /><text
   transform="matrix(1,0,0,-1,55.48375,191.90476)"
   style="font-variant:normal;font-weight:normal;font-size:10px;font-family:'DejaVu Sans';-inkscape-font-specification:DejaVuSans;writing-mode:lr-tb;fill:#000000;fill-opacity:1;fill-rule:nonzero;stroke:none"
   id="text356"><tspan
     x="0 6.3600001 9.54"
     y="0"
     sodipodi:role="line"
     id="tspan354">0.8</tspan></text>


</g><g
   id="g358"
   transform="translate(0,-16.5)"><g
     id="g360"
     clip-path="url(#clipPath364)"><path
       d="m 100.48173,122.50573 2.76146,-6.51454 2.76147,-0.67446 2.76147,-1.60839 2.76146,-2.99912 2.76147,0.82393 2.76146,2.3834 2.76147,1.86785 2.76146,2.61626 2.76147,5.09211 2.76147,0.0775 2.76146,3.10321 2.76147,4.9787 2.76146,4.4462 2.76147,3.42673 2.76147,4.55485 2.76146,2.60239 2.76147,1.44342 2.76146,4.20877 2.76147,3.81748 2.76146,0.78173 2.76147,2.90369 2.76147,-0.64865 2.76146,3.15057 2.76147,2.34599 2.76146,-0.008 2.76147,3.516 2.76147,0.6599 2.76146,2.63844 2.76147,-0.52494 2.76146,1.55956 2.76147,0.95005 2.76147,-0.61213 2.76146,0.92189 2.76147,-0.55404 2.76146,1.17649 2.76147,2.27983 2.76147,1.29827 2.76146,0.44287 2.76147,0.89952 2.76146,0.54969 110.45864,5.69674 110.45864,3.13877 110.45863,0.44679"
       style="fill:none;stroke:#0000ff;stroke-width:1.5;stroke-linecap:square;stroke-linejoin:round;stroke-miterlimit:10;stroke-dasharray:none;stroke-opacity:1"
       id="path366"
       inkscape:connector-curvature="0" /></g></g><g
   id="g378"
   transform="translate(0,-16.5)"><g
     id="g380"
     clip-path="url(#clipPath384)"><path
       d="m 100.48173,102.58578 2.76146,-4.457481 2.76147,-0.996459 2.76147,1.591405 2.76146,-1.259818 2.76147,-0.787827 2.76146,7.35334 2.76147,0.7041 2.76146,1.76656 2.76147,3.99052 2.76147,3.31154 2.76146,4.71835 2.76147,-1.07088 2.76146,2.50265 2.76147,3.04341 2.76147,1.5497 2.76146,0.76651 2.76147,5.30633 2.76146,2.40949 2.76147,-0.60291 2.76146,3.01407 2.76147,0.31438 2.76147,1.76859 2.76146,0.93862 2.76147,2.56902 2.76146,-0.36495 2.76147,0.0464 2.76147,2.13078 2.76146,2.53703 2.76147,-0.11746 2.76146,2.28889 2.76147,1.21143 2.76147,0.65539 2.76146,0.73307 2.76147,0.7808 2.76146,-0.75781 2.76147,2.02812 2.76147,1.35156 2.76146,2.02347 2.76147,0.6076 2.76146,-0.26613 110.45864,7.59778 110.45864,3.49115 110.45863,4.4043"
       style="fill:none;stroke:#008000;stroke-width:1.5;stroke-linecap:square;stroke-linejoin:round;stroke-miterlimit:10;stroke-dasharray:none;stroke-opacity:1"
       id="path386"
       inkscape:connector-curvature="0" /></g></g><path
   inkscape:connector-curvature="0"
   id="path400"
   style="fill:none;stroke:#000000;stroke-width:0.80000001;stroke-linecap:square;stroke-linejoin:miter;stroke-miterlimit:10;stroke-dasharray:none;stroke-opacity:1"
   d="m 78.39,31.8912 v 153.972" /><path
   inkscape:connector-curvature="0"
   id="path402"
   style="fill:none;stroke:#000000;stroke-width:0.80000001;stroke-linecap:square;stroke-linejoin:miter;stroke-miterlimit:10;stroke-dasharray:none;stroke-opacity:1"
   d="m 564.408,31.8912 v 153.972" /><path
   inkscape:connector-curvature="0"
   id="path404"
   style="fill:none;stroke:#000000;stroke-width:0.80000001;stroke-linecap:square;stroke-linejoin:miter;stroke-miterlimit:10;stroke-dasharray:none;stroke-opacity:1"
   d="M 78.39,31.8912 H 564.408" /><path
   inkscape:connector-curvature="0"
   id="path406"
   style="fill:none;stroke:#000000;stroke-width:0.80000001;stroke-linecap:square;stroke-linejoin:miter;stroke-miterlimit:10;stroke-dasharray:none;stroke-opacity:1"
   d="M 78.39,185.8632 H 564.408" /><g
   id="g1470"
   transform="matrix(0.42616153,0,0,-0.42616153,176.77393,531.47651)"><g
     word-spacing="normal"
     letter-spacing="normal"
     font-size-adjust="none"
     font-stretch="normal"
     font-weight="normal"
     font-variant="normal"
     font-style="normal"
     stroke-miterlimit="10.433"
     xml:space="preserve"
     transform="matrix(0.83794286,0,0,-0.83794286,-146.64,627.11998)"
     id="content"
     style="font-style:normal;font-variant:normal;font-weight:normal;font-stretch:normal;letter-spacing:normal;word-spacing:normal;text-anchor:start;fill:none;fill-opacity:1;fill-rule:evenodd;stroke:#000000;stroke-linecap:butt;stroke-linejoin:miter;stroke-miterlimit:10.43299961;stroke-dasharray:none;stroke-dashoffset:0;stroke-opacity:1"><path
       id="path1451"
       d="m 458.32,423.23 0.02,-0.96 0.07,-0.94 0.11,-0.93 0.16,-0.91 0.2,-0.89 0.24,-0.87 0.28,-0.85 0.32,-0.83 0.36,-0.81 0.39,-0.78 0.43,-0.76 0.46,-0.74 0.49,-0.7 0.52,-0.68 0.55,-0.66 0.59,-0.62 0.6,-0.59 0.64,-0.56 0.66,-0.53 0.68,-0.5 0.7,-0.46 0.73,-0.43 0.74,-0.39 0.77,-0.35 0.78,-0.32 0.79,-0.28 0.82,-0.23 0.82,-0.2 0.84,-0.15 0.84,-0.11 0.86,-0.07 0.86,-0.02 c 8.13,0 13,6.92 13,12.7 0,0.5 0,0.84 -0.64,0.84 -0.54,0 -0.54,-0.29 -0.59,-0.79 -0.41,-7.13 -5.73,-11.21 -11.17,-11.21 -3.03,0 -12.8,1.69 -12.8,16.53 0,14.91 9.72,16.6 12.75,16.6 5.44,0 9.88,-4.53 10.86,-11.82 0.11,-0.68 0.11,-0.84 0.8,-0.84 0.79,0 0.79,0.16 0.79,1.2 v 11.8 c 0,0.86 0,1.2 -0.54,1.2 -0.19,0 -0.39,0 -0.8,-0.59 l -2.48,-3.69 c -1.85,1.8 -4.39,4.28 -9.18,4.28 -9.31,0 -17.32,-7.92 -17.32,-18.09 z"
       inkscape:connector-curvature="0"
       style="fill:#000000;stroke-width:0" /><path
       id="path1453"
       d="m 508.11,409.98 0.03,-0.19 0.02,-0.18 0.04,-0.19 0.04,-0.18 0.05,-0.19 0.06,-0.18 0.06,-0.18 0.07,-0.18 0.07,-0.18 0.08,-0.17 0.09,-0.18 0.1,-0.16 0.1,-0.16 0.1,-0.16 0.12,-0.16 0.12,-0.14 0.12,-0.14 0.13,-0.14 0.14,-0.13 0.15,-0.12 0.15,-0.12 0.15,-0.1 0.17,-0.1 0.17,-0.09 0.17,-0.08 0.18,-0.07 0.19,-0.06 0.19,-0.05 0.2,-0.04 0.21,-0.03 0.21,-0.02 0.21,-0.01 c 1.03,0 4.08,0.71 4.08,4.74 v 2.78 h -1.25 v -2.78 c 0,-2.89 -1.23,-3.19 -1.8,-3.19 -1.64,0 -1.84,2.23 -1.84,2.48 v 9.97 c 0,2.1 0,4.03 -1.78,5.88 -1.95,1.93 -4.44,2.73 -6.83,2.73 -4.09,0 -7.53,-2.33 -7.53,-5.62 0,-1.49 1,-2.35 2.3,-2.35 1.39,0 2.29,1 2.29,2.3 0,0.59 -0.25,2.23 -2.54,2.3 1.34,1.73 3.78,2.28 5.37,2.28 2.46,0 5.28,-1.94 5.28,-6.38 v -1.84 -1.05 -4.98 c 0,-4.74 -3.57,-6.42 -5.82,-6.42 -2.44,0 -4.49,1.75 -4.49,4.23 0,2.73 2.1,6.88 10.31,7.17 v 0 1.05 c -2.53,-0.14 -6.01,-0.3 -9.15,-1.8 -3.74,-1.69 -4.99,-4.28 -4.99,-6.47 0,-4.03 4.83,-5.28 7.97,-5.28 3.3,0 5.58,1.99 6.53,4.33 z"
       inkscape:connector-curvature="0"
       style="fill:#000000;stroke-width:0" /><path
       id="path1455"
       d="m 524.79,422.75 v 5.46 l -6.92,-0.54 v -1.55 c 3.48,0 3.89,-0.34 3.89,-2.78 v -13.36 c 0,-2.23 -0.55,-2.23 -3.89,-2.23 v -1.55 c 1.95,0.05 4.28,0.16 5.68,0.16 1.99,0 4.33,0 6.33,-0.16 v 1.55 h -1.04 c -3.69,0 -3.8,0.54 -3.8,2.34 v 7.67 c 0,4.92 2.09,9.36 5.89,9.36 0.34,0 0.44,0 0.55,-0.05 -0.16,-0.04 -1.16,-0.64 -1.16,-1.93 0,-1.41 1.05,-2.14 2.16,-2.14 0.89,0 2.14,0.59 2.14,2.18 0,1.6 -1.55,3.03 -3.69,3.03 -3.64,0 -5.44,-3.32 -6.14,-5.46 z"
       inkscape:connector-curvature="0"
       style="fill:#000000;stroke-width:0" /><path
       id="path1457"
       d="m 544.66,426.12 h 7.12 v 1.55 h -7.12 v 9.17 h -1.25 c -0.05,-4.08 -1.55,-9.42 -6.42,-9.61 v -1.11 h 4.23 v -13.75 c 0,-6.12 4.63,-6.72 6.43,-6.72 3.53,0 4.93,3.53 4.93,6.72 v 2.84 h -1.25 v -2.73 c 0,-3.69 -1.5,-5.58 -3.34,-5.58 -3.33,0 -3.33,4.53 -3.33,5.38 z"
       inkscape:connector-curvature="0"
       style="fill:#000000;stroke-width:0" /><path
       id="path1459"
       d="m 560.88,417.71 0.05,1.05 c 0.3,7.42 4.48,8.66 6.19,8.66 5.12,0 5.62,-6.72 5.62,-8.66 h -11.81 l -0.05,-1.05 h 13.91 c 1.09,0 1.23,0 1.23,1.05 0,4.92 -2.68,9.75 -8.9,9.75 -5.78,0 -10.38,-5.12 -10.38,-11.36 0,-6.67 5.24,-11.5 10.97,-11.5 6.08,0 8.31,5.53 8.31,6.47 0,0.5 -0.39,0.61 -0.64,0.61 -0.45,0 -0.54,-0.3 -0.65,-0.7 -1.74,-5.13 -6.22,-5.13 -6.72,-5.13 -2.5,0 -4.49,1.49 -5.63,3.33 -1.5,2.39 -1.5,5.69 -1.5,7.48 z"
       inkscape:connector-curvature="0"
       style="fill:#000000;stroke-width:0" /><path
       id="path1461"
       d="m 640.25,436.39 0.04,0.16 0.04,0.16 0.04,0.15 0.04,0.14 0.04,0.14 0.04,0.13 0.04,0.12 0.05,0.11 0.05,0.11 0.05,0.11 0.07,0.09 0.06,0.09 0.08,0.09 0.08,0.08 0.09,0.07 0.09,0.07 0.11,0.06 0.12,0.06 0.13,0.05 0.14,0.05 0.15,0.04 0.09,0.02 0.08,0.02 0.09,0.02 0.09,0.02 0.1,0.01 0.1,0.02 0.1,0.01 0.11,0.01 0.11,0.02 0.12,0.01 0.12,0.01 h 0.12 l 0.13,0.01 0.13,0.01 0.14,0.01 h 0.14 0.15 l 0.15,0.01 h 0.16 0.16 0.17 0.17 c 1.14,0 1.59,0 1.59,1 0,0.55 -0.5,0.55 -1.34,0.55 h -6.58 c -1.29,0 -1.34,0 -1.93,-0.95 l -18.19,-28.39 -3.89,28.18 c -0.16,1.16 -0.25,1.16 -1.55,1.16 h -6.83 c -0.93,0 -1.48,0 -1.48,-0.95 0,-0.6 0.44,-0.6 1.44,-0.6 0.65,0 1.54,-0.04 2.14,-0.09 0.79,-0.11 1.09,-0.25 1.09,-0.8 0,-0.2 -0.05,-0.36 -0.19,-0.95 l -6.33,-25.36 c -0.5,-2 -1.34,-3.59 -5.39,-3.73 -0.25,0 -0.89,-0.05 -0.89,-0.96 0,-0.43 0.3,-0.59 0.71,-0.59 1.59,0 3.32,0.16 4.97,0.16 1.7,0 3.5,-0.16 5.14,-0.16 0.25,0 0.89,0 0.89,1 0,0.55 -0.55,0.55 -0.89,0.55 -2.85,0.04 -3.4,1.04 -3.4,2.18 0,0.35 0.05,0.6 0.21,1.14 l 6.76,27.16 h 0.07 l 4.28,-30.89 c 0.09,-0.59 0.14,-1.14 0.75,-1.14 0.54,0 0.84,0.55 1.09,0.89 l 20.13,31.55 h 0.04 l -7.12,-28.55 c -0.5,-1.95 -0.6,-2.34 -4.53,-2.34 -0.85,0 -1.39,0 -1.39,-0.96 0,-0.59 0.59,-0.59 0.75,-0.59 1.39,0 4.78,0.16 6.17,0.16 2.05,0 4.19,-0.16 6.23,-0.16 0.3,0 0.94,0 0.94,1 0,0.55 -0.45,0.55 -1.39,0.55 -1.84,0 -3.23,0 -3.23,0.89 0,0.2 0,0.29 0.24,1.2 z"
       inkscape:connector-curvature="0"
       style="fill:#000000;stroke-width:0" /><path
       id="path1463"
       d="m 660.25,450.34 -0.6,-0.45 -0.58,-0.46 -0.55,-0.47 -0.53,-0.49 -0.5,-0.5 -0.47,-0.51 -0.45,-0.53 -0.42,-0.53 -0.4,-0.54 -0.37,-0.55 -0.36,-0.56 -0.33,-0.56 -0.31,-0.57 -0.28,-0.57 -0.27,-0.58 -0.25,-0.58 -0.23,-0.58 -0.2,-0.58 -0.19,-0.59 -0.18,-0.58 -0.15,-0.58 -0.14,-0.58 -0.13,-0.57 -0.1,-0.57 -0.1,-0.57 -0.08,-0.56 -0.06,-0.55 -0.05,-0.55 -0.04,-0.53 -0.03,-0.53 -0.02,-0.52 v -0.5 c 0,-4.92 1.47,-12.55 8.37,-17.42 0.28,0 0.69,0 0.69,0.4 0,0.22 -0.09,0.28 -0.34,0.53 -4.64,4.19 -6.35,10.11 -6.35,16.46 0,9.4 3.6,14 6.46,16.58 0.14,0.14 0.23,0.25 0.23,0.42 0,0.42 -0.41,0.42 -0.69,0.42 z"
       inkscape:connector-curvature="0"
       style="fill:#000000;stroke-width:0" /><path
       id="path1465"
       d="m 675.15,446.36 v 0.04 0.04 0.04 0.04 0.04 0.04 l -0.01,0.04 v 0.03 0.04 0.03 0.03 0.03 l -0.01,0.03 v 0.03 0.03 l -0.01,0.02 v 0.03 l -0.01,0.02 v 0.02 l -0.01,0.03 -0.01,0.04 -0.01,0.04 -0.02,0.03 -0.02,0.03 -0.02,0.03 -0.03,0.03 -0.02,0.02 -0.03,0.02 -0.04,0.01 -0.03,0.02 -0.05,0.01 -0.04,0.01 -0.02,0.01 h -0.03 l -0.02,0.01 h -0.03 -0.03 l -0.03,0.01 h -0.03 -0.03 -0.03 -0.03 l -0.04,0.01 h -0.03 -0.04 -0.03 -0.04 -0.04 -0.05 -0.04 -0.04 -0.05 c -2.23,-2.2 -5.39,-2.23 -6.83,-2.23 v -1.25 c 0.85,0 3.14,0 5.05,0.96 v -17.76 c 0,-1.16 0,-1.61 -3.48,-1.61 h -1.32 v -1.25 c 0.63,0.03 4.91,0.14 6.21,0.14 1.07,0 5.47,-0.11 6.23,-0.14 v 1.25 h -1.33 c -3.48,0 -3.48,0.45 -3.48,1.61 z"
       inkscape:connector-curvature="0"
       style="fill:#000000;stroke-width:0" /><path
       id="path1467"
       d="m 686.41,450.34 h -0.02 -0.02 -0.03 -0.03 -0.02 -0.03 -0.03 l -0.03,-0.01 h -0.02 -0.03 l -0.03,-0.01 h -0.03 l -0.03,-0.01 -0.02,-0.01 h -0.03 l -0.03,-0.01 -0.02,-0.01 -0.03,-0.02 -0.02,-0.01 -0.02,-0.01 -0.02,-0.02 -0.02,-0.02 -0.02,-0.02 -0.01,-0.01 -0.01,-0.01 -0.01,-0.01 v -0.01 l -0.01,-0.01 -0.01,-0.02 v -0.01 l -0.01,-0.01 v -0.02 l -0.01,-0.01 v -0.02 l -0.01,-0.01 v -0.02 -0.02 l -0.01,-0.02 v -0.01 -0.02 -0.02 c 0,-0.17 0.11,-0.28 0.31,-0.53 3,-2.75 6.35,-7.46 6.35,-16.44 0,-7.28 -2.27,-12.8 -6.03,-16.2 -0.58,-0.6 -0.63,-0.63 -0.63,-0.82 0,-0.17 0.11,-0.4 0.46,-0.4 0.42,0 3.73,2.29 6.03,6.65 1.53,2.89 2.54,6.66 2.54,10.74 0,4.9 -1.47,12.53 -8.36,17.42 z"
       inkscape:connector-curvature="0"
       style="fill:#000000;stroke-width:0" /></g></g><g
   id="g1687"
   transform="matrix(0.44355058,0,0,-0.44355058,173.81368,318.33393)"><g
     word-spacing="normal"
     letter-spacing="normal"
     font-size-adjust="none"
     font-stretch="normal"
     font-weight="normal"
     font-variant="normal"
     font-style="normal"
     stroke-miterlimit="10.433"
     xml:space="preserve"
     transform="matrix(0.83794286,0,0,-0.83794286,-146.64,627.11998)"
     id="g1685"
     style="font-style:normal;font-variant:normal;font-weight:normal;font-stretch:normal;letter-spacing:normal;word-spacing:normal;text-anchor:start;fill:none;fill-opacity:1;fill-rule:evenodd;stroke:#000000;stroke-linecap:butt;stroke-linejoin:miter;stroke-miterlimit:10.43299961;stroke-dasharray:none;stroke-dashoffset:0;stroke-opacity:1"><path
       id="path1667"
       d="m 458.32,423.23 0.02,-0.96 0.07,-0.94 0.11,-0.93 0.16,-0.91 0.2,-0.89 0.24,-0.87 0.28,-0.85 0.32,-0.83 0.36,-0.81 0.39,-0.78 0.43,-0.76 0.46,-0.74 0.49,-0.7 0.52,-0.68 0.55,-0.66 0.59,-0.62 0.6,-0.59 0.64,-0.56 0.66,-0.53 0.68,-0.5 0.7,-0.46 0.73,-0.43 0.74,-0.39 0.77,-0.35 0.78,-0.32 0.79,-0.28 0.82,-0.23 0.82,-0.2 0.84,-0.15 0.84,-0.11 0.86,-0.07 0.86,-0.02 c 8.13,0 13,6.92 13,12.7 0,0.5 0,0.84 -0.64,0.84 -0.54,0 -0.54,-0.29 -0.59,-0.79 -0.41,-7.13 -5.73,-11.21 -11.17,-11.21 -3.03,0 -12.8,1.69 -12.8,16.53 0,14.91 9.72,16.6 12.75,16.6 5.44,0 9.88,-4.53 10.86,-11.82 0.11,-0.68 0.11,-0.84 0.8,-0.84 0.79,0 0.79,0.16 0.79,1.2 v 11.8 c 0,0.86 0,1.2 -0.54,1.2 -0.19,0 -0.39,0 -0.8,-0.59 l -2.48,-3.69 c -1.85,1.8 -4.39,4.28 -9.18,4.28 -9.31,0 -17.32,-7.92 -17.32,-18.09 z"
       inkscape:connector-curvature="0"
       style="fill:#000000;stroke-width:0" /><path
       id="path1669"
       d="m 508.11,409.98 0.03,-0.19 0.02,-0.18 0.04,-0.19 0.04,-0.18 0.05,-0.19 0.06,-0.18 0.06,-0.18 0.07,-0.18 0.07,-0.18 0.08,-0.17 0.09,-0.18 0.1,-0.16 0.1,-0.16 0.1,-0.16 0.12,-0.16 0.12,-0.14 0.12,-0.14 0.13,-0.14 0.14,-0.13 0.15,-0.12 0.15,-0.12 0.15,-0.1 0.17,-0.1 0.17,-0.09 0.17,-0.08 0.18,-0.07 0.19,-0.06 0.19,-0.05 0.2,-0.04 0.21,-0.03 0.21,-0.02 0.21,-0.01 c 1.03,0 4.08,0.71 4.08,4.74 v 2.78 h -1.25 v -2.78 c 0,-2.89 -1.23,-3.19 -1.8,-3.19 -1.64,0 -1.84,2.23 -1.84,2.48 v 9.97 c 0,2.1 0,4.03 -1.78,5.88 -1.95,1.93 -4.44,2.73 -6.83,2.73 -4.09,0 -7.53,-2.33 -7.53,-5.62 0,-1.49 1,-2.35 2.3,-2.35 1.39,0 2.29,1 2.29,2.3 0,0.59 -0.25,2.23 -2.54,2.3 1.34,1.73 3.78,2.28 5.37,2.28 2.46,0 5.28,-1.94 5.28,-6.38 v -1.84 -1.05 -4.98 c 0,-4.74 -3.57,-6.42 -5.82,-6.42 -2.44,0 -4.49,1.75 -4.49,4.23 0,2.73 2.1,6.88 10.31,7.17 v 0 1.05 c -2.53,-0.14 -6.01,-0.3 -9.15,-1.8 -3.74,-1.69 -4.99,-4.28 -4.99,-6.47 0,-4.03 4.83,-5.28 7.97,-5.28 3.3,0 5.58,1.99 6.53,4.33 z"
       inkscape:connector-curvature="0"
       style="fill:#000000;stroke-width:0" /><path
       id="path1671"
       d="m 524.79,422.75 v 5.46 l -6.92,-0.54 v -1.55 c 3.48,0 3.89,-0.34 3.89,-2.78 v -13.36 c 0,-2.23 -0.55,-2.23 -3.89,-2.23 v -1.55 c 1.95,0.05 4.28,0.16 5.68,0.16 1.99,0 4.33,0 6.33,-0.16 v 1.55 h -1.04 c -3.69,0 -3.8,0.54 -3.8,2.34 v 7.67 c 0,4.92 2.09,9.36 5.89,9.36 0.34,0 0.44,0 0.55,-0.05 -0.16,-0.04 -1.16,-0.64 -1.16,-1.93 0,-1.41 1.05,-2.14 2.16,-2.14 0.89,0 2.14,0.59 2.14,2.18 0,1.6 -1.55,3.03 -3.69,3.03 -3.64,0 -5.44,-3.32 -6.14,-5.46 z"
       inkscape:connector-curvature="0"
       style="fill:#000000;stroke-width:0" /><path
       id="path1673"
       d="m 544.66,426.12 h 7.12 v 1.55 h -7.12 v 9.17 h -1.25 c -0.05,-4.08 -1.55,-9.42 -6.42,-9.61 v -1.11 h 4.23 v -13.75 c 0,-6.12 4.63,-6.72 6.43,-6.72 3.53,0 4.93,3.53 4.93,6.72 v 2.84 h -1.25 v -2.73 c 0,-3.69 -1.5,-5.58 -3.34,-5.58 -3.33,0 -3.33,4.53 -3.33,5.38 z"
       inkscape:connector-curvature="0"
       style="fill:#000000;stroke-width:0" /><path
       id="path1675"
       d="m 560.88,417.71 0.05,1.05 c 0.3,7.42 4.48,8.66 6.19,8.66 5.12,0 5.62,-6.72 5.62,-8.66 h -11.81 l -0.05,-1.05 h 13.91 c 1.09,0 1.23,0 1.23,1.05 0,4.92 -2.68,9.75 -8.9,9.75 -5.78,0 -10.38,-5.12 -10.38,-11.36 0,-6.67 5.24,-11.5 10.97,-11.5 6.08,0 8.31,5.53 8.31,6.47 0,0.5 -0.39,0.61 -0.64,0.61 -0.45,0 -0.54,-0.3 -0.65,-0.7 -1.74,-5.13 -6.22,-5.13 -6.72,-5.13 -2.5,0 -4.49,1.49 -5.63,3.33 -1.5,2.39 -1.5,5.69 -1.5,7.48 z"
       inkscape:connector-curvature="0"
       style="fill:#000000;stroke-width:0" /><path
       id="path1677"
       d="m 640.25,436.39 0.04,0.16 0.04,0.16 0.04,0.15 0.04,0.14 0.04,0.14 0.04,0.13 0.04,0.12 0.05,0.11 0.05,0.11 0.05,0.11 0.07,0.09 0.06,0.09 0.08,0.09 0.08,0.08 0.09,0.07 0.09,0.07 0.11,0.06 0.12,0.06 0.13,0.05 0.14,0.05 0.15,0.04 0.09,0.02 0.08,0.02 0.09,0.02 0.09,0.02 0.1,0.01 0.1,0.02 0.1,0.01 0.11,0.01 0.11,0.02 0.12,0.01 0.12,0.01 h 0.12 l 0.13,0.01 0.13,0.01 0.14,0.01 h 0.14 0.15 l 0.15,0.01 h 0.16 0.16 0.17 0.17 c 1.14,0 1.59,0 1.59,1 0,0.55 -0.5,0.55 -1.34,0.55 h -6.58 c -1.29,0 -1.34,0 -1.93,-0.95 l -18.19,-28.39 -3.89,28.18 c -0.16,1.16 -0.25,1.16 -1.55,1.16 h -6.83 c -0.93,0 -1.48,0 -1.48,-0.95 0,-0.6 0.44,-0.6 1.44,-0.6 0.65,0 1.54,-0.04 2.14,-0.09 0.79,-0.11 1.09,-0.25 1.09,-0.8 0,-0.2 -0.05,-0.36 -0.19,-0.95 l -6.33,-25.36 c -0.5,-2 -1.34,-3.59 -5.39,-3.73 -0.25,0 -0.89,-0.05 -0.89,-0.96 0,-0.43 0.3,-0.59 0.71,-0.59 1.59,0 3.32,0.16 4.97,0.16 1.7,0 3.5,-0.16 5.14,-0.16 0.25,0 0.89,0 0.89,1 0,0.55 -0.55,0.55 -0.89,0.55 -2.85,0.04 -3.4,1.04 -3.4,2.18 0,0.35 0.05,0.6 0.21,1.14 l 6.76,27.16 h 0.07 l 4.28,-30.89 c 0.09,-0.59 0.14,-1.14 0.75,-1.14 0.54,0 0.84,0.55 1.09,0.89 l 20.13,31.55 h 0.04 l -7.12,-28.55 c -0.5,-1.95 -0.6,-2.34 -4.53,-2.34 -0.85,0 -1.39,0 -1.39,-0.96 0,-0.59 0.59,-0.59 0.75,-0.59 1.39,0 4.78,0.16 6.17,0.16 2.05,0 4.19,-0.16 6.23,-0.16 0.3,0 0.94,0 0.94,1 0,0.55 -0.45,0.55 -1.39,0.55 -1.84,0 -3.23,0 -3.23,0.89 0,0.2 0,0.29 0.24,1.2 z"
       inkscape:connector-curvature="0"
       style="fill:#000000;stroke-width:0" /><path
       id="path1679"
       d="m 660.25,450.34 -0.6,-0.45 -0.58,-0.46 -0.55,-0.47 -0.53,-0.49 -0.5,-0.5 -0.47,-0.51 -0.45,-0.53 -0.42,-0.53 -0.4,-0.54 -0.37,-0.55 -0.36,-0.56 -0.33,-0.56 -0.31,-0.57 -0.28,-0.57 -0.27,-0.58 -0.25,-0.58 -0.23,-0.58 -0.2,-0.58 -0.19,-0.59 -0.18,-0.58 -0.15,-0.58 -0.14,-0.58 -0.13,-0.57 -0.1,-0.57 -0.1,-0.57 -0.08,-0.56 -0.06,-0.55 -0.05,-0.55 -0.04,-0.53 -0.03,-0.53 -0.02,-0.52 v -0.5 c 0,-4.92 1.47,-12.55 8.37,-17.42 0.28,0 0.69,0 0.69,0.4 0,0.22 -0.09,0.28 -0.34,0.53 -4.64,4.19 -6.35,10.11 -6.35,16.46 0,9.4 3.6,14 6.46,16.58 0.14,0.14 0.23,0.25 0.23,0.42 0,0.42 -0.41,0.42 -0.69,0.42 z"
       inkscape:connector-curvature="0"
       style="fill:#000000;stroke-width:0" /><path
       id="path1681"
       d="m 681.07,430.54 h -1.19 c -0.09,-0.76 -0.45,-2.83 -0.9,-3.17 -0.27,-0.2 -2.96,-0.2 -3.44,-0.2 h -6.42 c 3.65,3.23 4.87,4.2 6.97,5.84 2.57,2.06 4.98,4.22 4.98,7.53 0,4.22 -3.69,6.8 -8.16,6.8 -4.31,0 -7.25,-3.03 -7.25,-6.23 0,-1.79 1.5,-1.96 1.86,-1.96 0.83,0 1.85,0.6 1.85,1.85 0,0.62 -0.25,1.84 -2.07,1.84 1.08,2.47 3.46,3.23 5.1,3.23 3.48,0 5.3,-2.7 5.3,-5.53 0,-3.03 -2.16,-5.43 -3.29,-6.68 l -8.39,-8.3 c -0.36,-0.31 -0.36,-0.39 -0.36,-1.36 h 14.36 z"
       inkscape:connector-curvature="0"
       style="fill:#000000;stroke-width:0" /><path
       id="path1683"
       d="m 686.41,450.34 h -0.02 -0.02 -0.03 -0.03 -0.02 -0.03 -0.03 l -0.03,-0.01 h -0.02 -0.03 l -0.03,-0.01 h -0.03 l -0.03,-0.01 -0.02,-0.01 h -0.03 l -0.03,-0.01 -0.02,-0.01 -0.03,-0.02 -0.02,-0.01 -0.02,-0.01 -0.02,-0.02 -0.02,-0.02 -0.02,-0.02 -0.01,-0.01 -0.01,-0.01 -0.01,-0.01 v -0.01 l -0.01,-0.01 -0.01,-0.02 v -0.01 l -0.01,-0.01 v -0.02 l -0.01,-0.01 v -0.02 l -0.01,-0.01 v -0.02 -0.02 l -0.01,-0.02 v -0.01 -0.02 -0.02 c 0,-0.17 0.11,-0.28 0.31,-0.53 3,-2.75 6.35,-7.46 6.35,-16.44 0,-7.28 -2.27,-12.8 -6.03,-16.2 -0.58,-0.6 -0.63,-0.63 -0.63,-0.82 0,-0.17 0.11,-0.4 0.46,-0.4 0.42,0 3.73,2.29 6.03,6.65 1.53,2.89 2.54,6.66 2.54,10.74 0,4.9 -1.47,12.53 -8.36,17.42 z"
       inkscape:connector-curvature="0"
       style="fill:#000000;stroke-width:0" /></g></g></g></svg>