<?xml version="1.0" encoding="utf-8" standalone="no"?>
<!DOCTYPE svg PUBLIC "-//W3C//DTD SVG 1.1//EN"
  "http://www.w3.org/Graphics/SVG/1.1/DTD/svg11.dtd">
<!-- Created with matplotlib (https://matplotlib.org/) -->
<svg height="478.8pt" version="1.1" viewBox="0 0 931.68 478.8" width="931.68pt" xmlns="http://www.w3.org/2000/svg" xmlns:xlink="http://www.w3.org/1999/xlink">
 <metadata>
  <rdf:RDF xmlns:cc="http://creativecommons.org/ns#" xmlns:dc="http://purl.org/dc/elements/1.1/" xmlns:rdf="http://www.w3.org/1999/02/22-rdf-syntax-ns#">
   <cc:Work>
    <dc:type rdf:resource="http://purl.org/dc/dcmitype/StillImage"/>
    <dc:date>2022-06-15T16:16:11.626194</dc:date>
    <dc:format>image/svg+xml</dc:format>
    <dc:creator>
     <cc:Agent>
      <dc:title>Matplotlib v3.3.4, https://matplotlib.org/</dc:title>
     </cc:Agent>
    </dc:creator>
   </cc:Work>
  </rdf:RDF>
 </metadata>
 <defs>
  <style type="text/css">*{stroke-linecap:butt;stroke-linejoin:round;}</style>
 </defs>
 <g id="figure_1">
  <g id="patch_1">
   <path d="M 0 478.8 
L 931.68 478.8 
L 931.68 0 
L 0 0 
z
" style="fill:#ffffff;"/>
  </g>
  <g id="axes_1">
   <g id="patch_2">
    <path d="M 47.72 202.84 
L 920.88 202.84 
L 920.88 27.24 
L 47.72 27.24 
z
" style="fill:#ffffff;"/>
   </g>
   <g id="matplotlib.axis_1">
    <g id="xtick_1">
     <g id="line2d_1">
      <defs>
       <path d="M 0 0 
L 0 3.5 
" id="mb9d63d3a2d" style="stroke:#000000;stroke-width:0.8;"/>
      </defs>
      <g>
       <use style="stroke:#000000;stroke-width:0.8;" x="83.420238" xlink:href="#mb9d63d3a2d" y="202.84"/>
      </g>
     </g>
     <g id="text_1">
      <!-- 0 -->
      <g transform="translate(80.238988 217.438438)scale(0.1 -0.1)">
       <defs>
        <path d="M 31.78125 66.40625 
Q 24.171875 66.40625 20.328125 58.90625 
Q 16.5 51.421875 16.5 36.375 
Q 16.5 21.390625 20.328125 13.890625 
Q 24.171875 6.390625 31.78125 6.390625 
Q 39.453125 6.390625 43.28125 13.890625 
Q 47.125 21.390625 47.125 36.375 
Q 47.125 51.421875 43.28125 58.90625 
Q 39.453125 66.40625 31.78125 66.40625 
z
M 31.78125 74.21875 
Q 44.046875 74.21875 50.515625 64.515625 
Q 56.984375 54.828125 56.984375 36.375 
Q 56.984375 17.96875 50.515625 8.265625 
Q 44.046875 -1.421875 31.78125 -1.421875 
Q 19.53125 -1.421875 13.0625 8.265625 
Q 6.59375 17.96875 6.59375 36.375 
Q 6.59375 54.828125 13.0625 64.515625 
Q 19.53125 74.21875 31.78125 74.21875 
z
" id="DejaVuSans-48"/>
       </defs>
       <use xlink:href="#DejaVuSans-48"/>
      </g>
     </g>
    </g>
    <g id="xtick_2">
     <g id="line2d_2">
      <g>
       <use style="stroke:#000000;stroke-width:0.8;" x="183.141571" xlink:href="#mb9d63d3a2d" y="202.84"/>
      </g>
     </g>
     <g id="text_2">
      <!-- 250 -->
      <g transform="translate(173.597821 217.438438)scale(0.1 -0.1)">
       <defs>
        <path d="M 19.1875 8.296875 
L 53.609375 8.296875 
L 53.609375 0 
L 7.328125 0 
L 7.328125 8.296875 
Q 12.9375 14.109375 22.625 23.890625 
Q 32.328125 33.6875 34.8125 36.53125 
Q 39.546875 41.84375 41.421875 45.53125 
Q 43.3125 49.21875 43.3125 52.78125 
Q 43.3125 58.59375 39.234375 62.25 
Q 35.15625 65.921875 28.609375 65.921875 
Q 23.96875 65.921875 18.8125 64.3125 
Q 13.671875 62.703125 7.8125 59.421875 
L 7.8125 69.390625 
Q 13.765625 71.78125 18.9375 73 
Q 24.125 74.21875 28.421875 74.21875 
Q 39.75 74.21875 46.484375 68.546875 
Q 53.21875 62.890625 53.21875 53.421875 
Q 53.21875 48.921875 51.53125 44.890625 
Q 49.859375 40.875 45.40625 35.40625 
Q 44.1875 33.984375 37.640625 27.21875 
Q 31.109375 20.453125 19.1875 8.296875 
z
" id="DejaVuSans-50"/>
        <path d="M 10.796875 72.90625 
L 49.515625 72.90625 
L 49.515625 64.59375 
L 19.828125 64.59375 
L 19.828125 46.734375 
Q 21.96875 47.46875 24.109375 47.828125 
Q 26.265625 48.1875 28.421875 48.1875 
Q 40.625 48.1875 47.75 41.5 
Q 54.890625 34.8125 54.890625 23.390625 
Q 54.890625 11.625 47.5625 5.09375 
Q 40.234375 -1.421875 26.90625 -1.421875 
Q 22.3125 -1.421875 17.546875 -0.640625 
Q 12.796875 0.140625 7.71875 1.703125 
L 7.71875 11.625 
Q 12.109375 9.234375 16.796875 8.0625 
Q 21.484375 6.890625 26.703125 6.890625 
Q 35.15625 6.890625 40.078125 11.328125 
Q 45.015625 15.765625 45.015625 23.390625 
Q 45.015625 31 40.078125 35.4375 
Q 35.15625 39.890625 26.703125 39.890625 
Q 22.75 39.890625 18.8125 39.015625 
Q 14.890625 38.140625 10.796875 36.28125 
z
" id="DejaVuSans-53"/>
       </defs>
       <use xlink:href="#DejaVuSans-50"/>
       <use x="63.623047" xlink:href="#DejaVuSans-53"/>
       <use x="127.246094" xlink:href="#DejaVuSans-48"/>
      </g>
     </g>
    </g>
    <g id="xtick_3">
     <g id="line2d_3">
      <g>
       <use style="stroke:#000000;stroke-width:0.8;" x="282.862905" xlink:href="#mb9d63d3a2d" y="202.84"/>
      </g>
     </g>
     <g id="text_3">
      <!-- 500 -->
      <g transform="translate(273.319155 217.438438)scale(0.1 -0.1)">
       <use xlink:href="#DejaVuSans-53"/>
       <use x="63.623047" xlink:href="#DejaVuSans-48"/>
       <use x="127.246094" xlink:href="#DejaVuSans-48"/>
      </g>
     </g>
    </g>
    <g id="xtick_4">
     <g id="line2d_4">
      <g>
       <use style="stroke:#000000;stroke-width:0.8;" x="382.584239" xlink:href="#mb9d63d3a2d" y="202.84"/>
      </g>
     </g>
     <g id="text_4">
      <!-- 750 -->
      <g transform="translate(373.040489 217.438438)scale(0.1 -0.1)">
       <defs>
        <path d="M 8.203125 72.90625 
L 55.078125 72.90625 
L 55.078125 68.703125 
L 28.609375 0 
L 18.3125 0 
L 43.21875 64.59375 
L 8.203125 64.59375 
z
" id="DejaVuSans-55"/>
       </defs>
       <use xlink:href="#DejaVuSans-55"/>
       <use x="63.623047" xlink:href="#DejaVuSans-53"/>
       <use x="127.246094" xlink:href="#DejaVuSans-48"/>
      </g>
     </g>
    </g>
    <g id="xtick_5">
     <g id="line2d_5">
      <g>
       <use style="stroke:#000000;stroke-width:0.8;" x="482.305573" xlink:href="#mb9d63d3a2d" y="202.84"/>
      </g>
     </g>
     <g id="text_5">
      <!-- 1000 -->
      <g transform="translate(469.580573 217.438438)scale(0.1 -0.1)">
       <defs>
        <path d="M 12.40625 8.296875 
L 28.515625 8.296875 
L 28.515625 63.921875 
L 10.984375 60.40625 
L 10.984375 69.390625 
L 28.421875 72.90625 
L 38.28125 72.90625 
L 38.28125 8.296875 
L 54.390625 8.296875 
L 54.390625 0 
L 12.40625 0 
z
" id="DejaVuSans-49"/>
       </defs>
       <use xlink:href="#DejaVuSans-49"/>
       <use x="63.623047" xlink:href="#DejaVuSans-48"/>
       <use x="127.246094" xlink:href="#DejaVuSans-48"/>
       <use x="190.869141" xlink:href="#DejaVuSans-48"/>
      </g>
     </g>
    </g>
    <g id="xtick_6">
     <g id="line2d_6">
      <g>
       <use style="stroke:#000000;stroke-width:0.8;" x="582.026907" xlink:href="#mb9d63d3a2d" y="202.84"/>
      </g>
     </g>
     <g id="text_6">
      <!-- 1250 -->
      <g transform="translate(569.301907 217.438438)scale(0.1 -0.1)">
       <use xlink:href="#DejaVuSans-49"/>
       <use x="63.623047" xlink:href="#DejaVuSans-50"/>
       <use x="127.246094" xlink:href="#DejaVuSans-53"/>
       <use x="190.869141" xlink:href="#DejaVuSans-48"/>
      </g>
     </g>
    </g>
    <g id="xtick_7">
     <g id="line2d_7">
      <g>
       <use style="stroke:#000000;stroke-width:0.8;" x="681.748241" xlink:href="#mb9d63d3a2d" y="202.84"/>
      </g>
     </g>
     <g id="text_7">
      <!-- 1500 -->
      <g transform="translate(669.023241 217.438438)scale(0.1 -0.1)">
       <use xlink:href="#DejaVuSans-49"/>
       <use x="63.623047" xlink:href="#DejaVuSans-53"/>
       <use x="127.246094" xlink:href="#DejaVuSans-48"/>
       <use x="190.869141" xlink:href="#DejaVuSans-48"/>
      </g>
     </g>
    </g>
    <g id="xtick_8">
     <g id="line2d_8">
      <g>
       <use style="stroke:#000000;stroke-width:0.8;" x="781.469575" xlink:href="#mb9d63d3a2d" y="202.84"/>
      </g>
     </g>
     <g id="text_8">
      <!-- 1750 -->
      <g transform="translate(768.744575 217.438438)scale(0.1 -0.1)">
       <use xlink:href="#DejaVuSans-49"/>
       <use x="63.623047" xlink:href="#DejaVuSans-55"/>
       <use x="127.246094" xlink:href="#DejaVuSans-53"/>
       <use x="190.869141" xlink:href="#DejaVuSans-48"/>
      </g>
     </g>
    </g>
    <g id="xtick_9">
     <g id="line2d_9">
      <g>
       <use style="stroke:#000000;stroke-width:0.8;" x="881.190909" xlink:href="#mb9d63d3a2d" y="202.84"/>
      </g>
     </g>
     <g id="text_9">
      <!-- 2000 -->
      <g transform="translate(868.465909 217.438438)scale(0.1 -0.1)">
       <use xlink:href="#DejaVuSans-50"/>
       <use x="63.623047" xlink:href="#DejaVuSans-48"/>
       <use x="127.246094" xlink:href="#DejaVuSans-48"/>
       <use x="190.869141" xlink:href="#DejaVuSans-48"/>
      </g>
     </g>
    </g>
    <g id="text_10">
     <!-- Nombre de boites pour U -->
     <g transform="translate(421.447656 231.116563)scale(0.1 -0.1)">
      <defs>
       <path d="M 9.8125 72.90625 
L 23.09375 72.90625 
L 55.421875 11.921875 
L 55.421875 72.90625 
L 64.984375 72.90625 
L 64.984375 0 
L 51.703125 0 
L 19.390625 60.984375 
L 19.390625 0 
L 9.8125 0 
z
" id="DejaVuSans-78"/>
       <path d="M 30.609375 48.390625 
Q 23.390625 48.390625 19.1875 42.75 
Q 14.984375 37.109375 14.984375 27.296875 
Q 14.984375 17.484375 19.15625 11.84375 
Q 23.34375 6.203125 30.609375 6.203125 
Q 37.796875 6.203125 41.984375 11.859375 
Q 46.1875 17.53125 46.1875 27.296875 
Q 46.1875 37.015625 41.984375 42.703125 
Q 37.796875 48.390625 30.609375 48.390625 
z
M 30.609375 56 
Q 42.328125 56 49.015625 48.375 
Q 55.71875 40.765625 55.71875 27.296875 
Q 55.71875 13.875 49.015625 6.21875 
Q 42.328125 -1.421875 30.609375 -1.421875 
Q 18.84375 -1.421875 12.171875 6.21875 
Q 5.515625 13.875 5.515625 27.296875 
Q 5.515625 40.765625 12.171875 48.375 
Q 18.84375 56 30.609375 56 
z
" id="DejaVuSans-111"/>
       <path d="M 52 44.1875 
Q 55.375 50.25 60.0625 53.125 
Q 64.75 56 71.09375 56 
Q 79.640625 56 84.28125 50.015625 
Q 88.921875 44.046875 88.921875 33.015625 
L 88.921875 0 
L 79.890625 0 
L 79.890625 32.71875 
Q 79.890625 40.578125 77.09375 44.375 
Q 74.3125 48.1875 68.609375 48.1875 
Q 61.625 48.1875 57.5625 43.546875 
Q 53.515625 38.921875 53.515625 30.90625 
L 53.515625 0 
L 44.484375 0 
L 44.484375 32.71875 
Q 44.484375 40.625 41.703125 44.40625 
Q 38.921875 48.1875 33.109375 48.1875 
Q 26.21875 48.1875 22.15625 43.53125 
Q 18.109375 38.875 18.109375 30.90625 
L 18.109375 0 
L 9.078125 0 
L 9.078125 54.6875 
L 18.109375 54.6875 
L 18.109375 46.1875 
Q 21.1875 51.21875 25.484375 53.609375 
Q 29.78125 56 35.6875 56 
Q 41.65625 56 45.828125 52.96875 
Q 50 49.953125 52 44.1875 
z
" id="DejaVuSans-109"/>
       <path d="M 48.6875 27.296875 
Q 48.6875 37.203125 44.609375 42.84375 
Q 40.53125 48.484375 33.40625 48.484375 
Q 26.265625 48.484375 22.1875 42.84375 
Q 18.109375 37.203125 18.109375 27.296875 
Q 18.109375 17.390625 22.1875 11.75 
Q 26.265625 6.109375 33.40625 6.109375 
Q 40.53125 6.109375 44.609375 11.75 
Q 48.6875 17.390625 48.6875 27.296875 
z
M 18.109375 46.390625 
Q 20.953125 51.265625 25.265625 53.625 
Q 29.59375 56 35.59375 56 
Q 45.5625 56 51.78125 48.09375 
Q 58.015625 40.1875 58.015625 27.296875 
Q 58.015625 14.40625 51.78125 6.484375 
Q 45.5625 -1.421875 35.59375 -1.421875 
Q 29.59375 -1.421875 25.265625 0.953125 
Q 20.953125 3.328125 18.109375 8.203125 
L 18.109375 0 
L 9.078125 0 
L 9.078125 75.984375 
L 18.109375 75.984375 
z
" id="DejaVuSans-98"/>
       <path d="M 41.109375 46.296875 
Q 39.59375 47.171875 37.8125 47.578125 
Q 36.03125 48 33.890625 48 
Q 26.265625 48 22.1875 43.046875 
Q 18.109375 38.09375 18.109375 28.8125 
L 18.109375 0 
L 9.078125 0 
L 9.078125 54.6875 
L 18.109375 54.6875 
L 18.109375 46.1875 
Q 20.953125 51.171875 25.484375 53.578125 
Q 30.03125 56 36.53125 56 
Q 37.453125 56 38.578125 55.875 
Q 39.703125 55.765625 41.0625 55.515625 
z
" id="DejaVuSans-114"/>
       <path d="M 56.203125 29.59375 
L 56.203125 25.203125 
L 14.890625 25.203125 
Q 15.484375 15.921875 20.484375 11.0625 
Q 25.484375 6.203125 34.421875 6.203125 
Q 39.59375 6.203125 44.453125 7.46875 
Q 49.3125 8.734375 54.109375 11.28125 
L 54.109375 2.78125 
Q 49.265625 0.734375 44.1875 -0.34375 
Q 39.109375 -1.421875 33.890625 -1.421875 
Q 20.796875 -1.421875 13.15625 6.1875 
Q 5.515625 13.8125 5.515625 26.8125 
Q 5.515625 40.234375 12.765625 48.109375 
Q 20.015625 56 32.328125 56 
Q 43.359375 56 49.78125 48.890625 
Q 56.203125 41.796875 56.203125 29.59375 
z
M 47.21875 32.234375 
Q 47.125 39.59375 43.09375 43.984375 
Q 39.0625 48.390625 32.421875 48.390625 
Q 24.90625 48.390625 20.390625 44.140625 
Q 15.875 39.890625 15.1875 32.171875 
z
" id="DejaVuSans-101"/>
       <path id="DejaVuSans-32"/>
       <path d="M 45.40625 46.390625 
L 45.40625 75.984375 
L 54.390625 75.984375 
L 54.390625 0 
L 45.40625 0 
L 45.40625 8.203125 
Q 42.578125 3.328125 38.25 0.953125 
Q 33.9375 -1.421875 27.875 -1.421875 
Q 17.96875 -1.421875 11.734375 6.484375 
Q 5.515625 14.40625 5.515625 27.296875 
Q 5.515625 40.1875 11.734375 48.09375 
Q 17.96875 56 27.875 56 
Q 33.9375 56 38.25 53.625 
Q 42.578125 51.265625 45.40625 46.390625 
z
M 14.796875 27.296875 
Q 14.796875 17.390625 18.875 11.75 
Q 22.953125 6.109375 30.078125 6.109375 
Q 37.203125 6.109375 41.296875 11.75 
Q 45.40625 17.390625 45.40625 27.296875 
Q 45.40625 37.203125 41.296875 42.84375 
Q 37.203125 48.484375 30.078125 48.484375 
Q 22.953125 48.484375 18.875 42.84375 
Q 14.796875 37.203125 14.796875 27.296875 
z
" id="DejaVuSans-100"/>
       <path d="M 9.421875 54.6875 
L 18.40625 54.6875 
L 18.40625 0 
L 9.421875 0 
z
M 9.421875 75.984375 
L 18.40625 75.984375 
L 18.40625 64.59375 
L 9.421875 64.59375 
z
" id="DejaVuSans-105"/>
       <path d="M 18.3125 70.21875 
L 18.3125 54.6875 
L 36.8125 54.6875 
L 36.8125 47.703125 
L 18.3125 47.703125 
L 18.3125 18.015625 
Q 18.3125 11.328125 20.140625 9.421875 
Q 21.96875 7.515625 27.59375 7.515625 
L 36.8125 7.515625 
L 36.8125 0 
L 27.59375 0 
Q 17.1875 0 13.234375 3.875 
Q 9.28125 7.765625 9.28125 18.015625 
L 9.28125 47.703125 
L 2.6875 47.703125 
L 2.6875 54.6875 
L 9.28125 54.6875 
L 9.28125 70.21875 
z
" id="DejaVuSans-116"/>
       <path d="M 44.28125 53.078125 
L 44.28125 44.578125 
Q 40.484375 46.53125 36.375 47.5 
Q 32.28125 48.484375 27.875 48.484375 
Q 21.1875 48.484375 17.84375 46.4375 
Q 14.5 44.390625 14.5 40.28125 
Q 14.5 37.15625 16.890625 35.375 
Q 19.28125 33.59375 26.515625 31.984375 
L 29.59375 31.296875 
Q 39.15625 29.25 43.1875 25.515625 
Q 47.21875 21.78125 47.21875 15.09375 
Q 47.21875 7.46875 41.1875 3.015625 
Q 35.15625 -1.421875 24.609375 -1.421875 
Q 20.21875 -1.421875 15.453125 -0.5625 
Q 10.6875 0.296875 5.421875 2 
L 5.421875 11.28125 
Q 10.40625 8.6875 15.234375 7.390625 
Q 20.0625 6.109375 24.8125 6.109375 
Q 31.15625 6.109375 34.5625 8.28125 
Q 37.984375 10.453125 37.984375 14.40625 
Q 37.984375 18.0625 35.515625 20.015625 
Q 33.0625 21.96875 24.703125 23.78125 
L 21.578125 24.515625 
Q 13.234375 26.265625 9.515625 29.90625 
Q 5.8125 33.546875 5.8125 39.890625 
Q 5.8125 47.609375 11.28125 51.796875 
Q 16.75 56 26.8125 56 
Q 31.78125 56 36.171875 55.265625 
Q 40.578125 54.546875 44.28125 53.078125 
z
" id="DejaVuSans-115"/>
       <path d="M 18.109375 8.203125 
L 18.109375 -20.796875 
L 9.078125 -20.796875 
L 9.078125 54.6875 
L 18.109375 54.6875 
L 18.109375 46.390625 
Q 20.953125 51.265625 25.265625 53.625 
Q 29.59375 56 35.59375 56 
Q 45.5625 56 51.78125 48.09375 
Q 58.015625 40.1875 58.015625 27.296875 
Q 58.015625 14.40625 51.78125 6.484375 
Q 45.5625 -1.421875 35.59375 -1.421875 
Q 29.59375 -1.421875 25.265625 0.953125 
Q 20.953125 3.328125 18.109375 8.203125 
z
M 48.6875 27.296875 
Q 48.6875 37.203125 44.609375 42.84375 
Q 40.53125 48.484375 33.40625 48.484375 
Q 26.265625 48.484375 22.1875 42.84375 
Q 18.109375 37.203125 18.109375 27.296875 
Q 18.109375 17.390625 22.1875 11.75 
Q 26.265625 6.109375 33.40625 6.109375 
Q 40.53125 6.109375 44.609375 11.75 
Q 48.6875 17.390625 48.6875 27.296875 
z
" id="DejaVuSans-112"/>
       <path d="M 8.5 21.578125 
L 8.5 54.6875 
L 17.484375 54.6875 
L 17.484375 21.921875 
Q 17.484375 14.15625 20.5 10.265625 
Q 23.53125 6.390625 29.59375 6.390625 
Q 36.859375 6.390625 41.078125 11.03125 
Q 45.3125 15.671875 45.3125 23.6875 
L 45.3125 54.6875 
L 54.296875 54.6875 
L 54.296875 0 
L 45.3125 0 
L 45.3125 8.40625 
Q 42.046875 3.421875 37.71875 1 
Q 33.40625 -1.421875 27.6875 -1.421875 
Q 18.265625 -1.421875 13.375 4.4375 
Q 8.5 10.296875 8.5 21.578125 
z
M 31.109375 56 
z
" id="DejaVuSans-117"/>
       <path d="M 8.6875 72.90625 
L 18.609375 72.90625 
L 18.609375 28.609375 
Q 18.609375 16.890625 22.84375 11.734375 
Q 27.09375 6.59375 36.625 6.59375 
Q 46.09375 6.59375 50.34375 11.734375 
Q 54.59375 16.890625 54.59375 28.609375 
L 54.59375 72.90625 
L 64.5 72.90625 
L 64.5 27.390625 
Q 64.5 13.140625 57.4375 5.859375 
Q 50.390625 -1.421875 36.625 -1.421875 
Q 22.796875 -1.421875 15.734375 5.859375 
Q 8.6875 13.140625 8.6875 27.390625 
z
" id="DejaVuSans-85"/>
      </defs>
      <use xlink:href="#DejaVuSans-78"/>
      <use x="74.804688" xlink:href="#DejaVuSans-111"/>
      <use x="135.986328" xlink:href="#DejaVuSans-109"/>
      <use x="233.398438" xlink:href="#DejaVuSans-98"/>
      <use x="296.875" xlink:href="#DejaVuSans-114"/>
      <use x="335.738281" xlink:href="#DejaVuSans-101"/>
      <use x="397.261719" xlink:href="#DejaVuSans-32"/>
      <use x="429.048828" xlink:href="#DejaVuSans-100"/>
      <use x="492.525391" xlink:href="#DejaVuSans-101"/>
      <use x="554.048828" xlink:href="#DejaVuSans-32"/>
      <use x="585.835938" xlink:href="#DejaVuSans-98"/>
      <use x="649.3125" xlink:href="#DejaVuSans-111"/>
      <use x="710.494141" xlink:href="#DejaVuSans-105"/>
      <use x="738.277344" xlink:href="#DejaVuSans-116"/>
      <use x="777.486328" xlink:href="#DejaVuSans-101"/>
      <use x="839.009766" xlink:href="#DejaVuSans-115"/>
      <use x="891.109375" xlink:href="#DejaVuSans-32"/>
      <use x="922.896484" xlink:href="#DejaVuSans-112"/>
      <use x="986.373047" xlink:href="#DejaVuSans-111"/>
      <use x="1047.554688" xlink:href="#DejaVuSans-117"/>
      <use x="1110.933594" xlink:href="#DejaVuSans-114"/>
      <use x="1152.046875" xlink:href="#DejaVuSans-32"/>
      <use x="1183.833984" xlink:href="#DejaVuSans-85"/>
     </g>
    </g>
   </g>
   <g id="matplotlib.axis_2">
    <g id="ytick_1">
     <g id="line2d_10">
      <defs>
       <path d="M 0 0 
L -3.5 0 
" id="m8158cf366b" style="stroke:#000000;stroke-width:0.8;"/>
      </defs>
      <g>
       <use style="stroke:#000000;stroke-width:0.8;" x="47.72" xlink:href="#m8158cf366b" y="169.870744"/>
      </g>
     </g>
     <g id="text_11">
      <!-- 0.6 -->
      <g transform="translate(24.816875 173.669963)scale(0.1 -0.1)">
       <defs>
        <path d="M 10.6875 12.40625 
L 21 12.40625 
L 21 0 
L 10.6875 0 
z
" id="DejaVuSans-46"/>
        <path d="M 33.015625 40.375 
Q 26.375 40.375 22.484375 35.828125 
Q 18.609375 31.296875 18.609375 23.390625 
Q 18.609375 15.53125 22.484375 10.953125 
Q 26.375 6.390625 33.015625 6.390625 
Q 39.65625 6.390625 43.53125 10.953125 
Q 47.40625 15.53125 47.40625 23.390625 
Q 47.40625 31.296875 43.53125 35.828125 
Q 39.65625 40.375 33.015625 40.375 
z
M 52.59375 71.296875 
L 52.59375 62.3125 
Q 48.875 64.0625 45.09375 64.984375 
Q 41.3125 65.921875 37.59375 65.921875 
Q 27.828125 65.921875 22.671875 59.328125 
Q 17.53125 52.734375 16.796875 39.40625 
Q 19.671875 43.65625 24.015625 45.921875 
Q 28.375 48.1875 33.59375 48.1875 
Q 44.578125 48.1875 50.953125 41.515625 
Q 57.328125 34.859375 57.328125 23.390625 
Q 57.328125 12.15625 50.6875 5.359375 
Q 44.046875 -1.421875 33.015625 -1.421875 
Q 20.359375 -1.421875 13.671875 8.265625 
Q 6.984375 17.96875 6.984375 36.375 
Q 6.984375 53.65625 15.1875 63.9375 
Q 23.390625 74.21875 37.203125 74.21875 
Q 40.921875 74.21875 44.703125 73.484375 
Q 48.484375 72.75 52.59375 71.296875 
z
" id="DejaVuSans-54"/>
       </defs>
       <use xlink:href="#DejaVuSans-48"/>
       <use x="63.623047" xlink:href="#DejaVuSans-46"/>
       <use x="95.410156" xlink:href="#DejaVuSans-54"/>
      </g>
     </g>
    </g>
    <g id="ytick_2">
     <g id="line2d_11">
      <g>
       <use style="stroke:#000000;stroke-width:0.8;" x="47.72" xlink:href="#m8158cf366b" y="133.080563"/>
      </g>
     </g>
     <g id="text_12">
      <!-- 0.7 -->
      <g transform="translate(24.816875 136.879782)scale(0.1 -0.1)">
       <use xlink:href="#DejaVuSans-48"/>
       <use x="63.623047" xlink:href="#DejaVuSans-46"/>
       <use x="95.410156" xlink:href="#DejaVuSans-55"/>
      </g>
     </g>
    </g>
    <g id="ytick_3">
     <g id="line2d_12">
      <g>
       <use style="stroke:#000000;stroke-width:0.8;" x="47.72" xlink:href="#m8158cf366b" y="96.290382"/>
      </g>
     </g>
     <g id="text_13">
      <!-- 0.8 -->
      <g transform="translate(24.816875 100.089601)scale(0.1 -0.1)">
       <defs>
        <path d="M 31.78125 34.625 
Q 24.75 34.625 20.71875 30.859375 
Q 16.703125 27.09375 16.703125 20.515625 
Q 16.703125 13.921875 20.71875 10.15625 
Q 24.75 6.390625 31.78125 6.390625 
Q 38.8125 6.390625 42.859375 10.171875 
Q 46.921875 13.96875 46.921875 20.515625 
Q 46.921875 27.09375 42.890625 30.859375 
Q 38.875 34.625 31.78125 34.625 
z
M 21.921875 38.8125 
Q 15.578125 40.375 12.03125 44.71875 
Q 8.5 49.078125 8.5 55.328125 
Q 8.5 64.0625 14.71875 69.140625 
Q 20.953125 74.21875 31.78125 74.21875 
Q 42.671875 74.21875 48.875 69.140625 
Q 55.078125 64.0625 55.078125 55.328125 
Q 55.078125 49.078125 51.53125 44.71875 
Q 48 40.375 41.703125 38.8125 
Q 48.828125 37.15625 52.796875 32.3125 
Q 56.78125 27.484375 56.78125 20.515625 
Q 56.78125 9.90625 50.3125 4.234375 
Q 43.84375 -1.421875 31.78125 -1.421875 
Q 19.734375 -1.421875 13.25 4.234375 
Q 6.78125 9.90625 6.78125 20.515625 
Q 6.78125 27.484375 10.78125 32.3125 
Q 14.796875 37.15625 21.921875 38.8125 
z
M 18.3125 54.390625 
Q 18.3125 48.734375 21.84375 45.5625 
Q 25.390625 42.390625 31.78125 42.390625 
Q 38.140625 42.390625 41.71875 45.5625 
Q 45.3125 48.734375 45.3125 54.390625 
Q 45.3125 60.0625 41.71875 63.234375 
Q 38.140625 66.40625 31.78125 66.40625 
Q 25.390625 66.40625 21.84375 63.234375 
Q 18.3125 60.0625 18.3125 54.390625 
z
" id="DejaVuSans-56"/>
       </defs>
       <use xlink:href="#DejaVuSans-48"/>
       <use x="63.623047" xlink:href="#DejaVuSans-46"/>
       <use x="95.410156" xlink:href="#DejaVuSans-56"/>
      </g>
     </g>
    </g>
    <g id="ytick_4">
     <g id="line2d_13">
      <g>
       <use style="stroke:#000000;stroke-width:0.8;" x="47.72" xlink:href="#m8158cf366b" y="59.500202"/>
      </g>
     </g>
     <g id="text_14">
      <!-- 0.9 -->
      <g transform="translate(24.816875 63.29942)scale(0.1 -0.1)">
       <defs>
        <path d="M 10.984375 1.515625 
L 10.984375 10.5 
Q 14.703125 8.734375 18.5 7.8125 
Q 22.3125 6.890625 25.984375 6.890625 
Q 35.75 6.890625 40.890625 13.453125 
Q 46.046875 20.015625 46.78125 33.40625 
Q 43.953125 29.203125 39.59375 26.953125 
Q 35.25 24.703125 29.984375 24.703125 
Q 19.046875 24.703125 12.671875 31.3125 
Q 6.296875 37.9375 6.296875 49.421875 
Q 6.296875 60.640625 12.9375 67.421875 
Q 19.578125 74.21875 30.609375 74.21875 
Q 43.265625 74.21875 49.921875 64.515625 
Q 56.59375 54.828125 56.59375 36.375 
Q 56.59375 19.140625 48.40625 8.859375 
Q 40.234375 -1.421875 26.421875 -1.421875 
Q 22.703125 -1.421875 18.890625 -0.6875 
Q 15.09375 0.046875 10.984375 1.515625 
z
M 30.609375 32.421875 
Q 37.25 32.421875 41.125 36.953125 
Q 45.015625 41.5 45.015625 49.421875 
Q 45.015625 57.28125 41.125 61.84375 
Q 37.25 66.40625 30.609375 66.40625 
Q 23.96875 66.40625 20.09375 61.84375 
Q 16.21875 57.28125 16.21875 49.421875 
Q 16.21875 41.5 20.09375 36.953125 
Q 23.96875 32.421875 30.609375 32.421875 
z
" id="DejaVuSans-57"/>
       </defs>
       <use xlink:href="#DejaVuSans-48"/>
       <use x="63.623047" xlink:href="#DejaVuSans-46"/>
       <use x="95.410156" xlink:href="#DejaVuSans-57"/>
      </g>
     </g>
    </g>
    <g id="text_15">
     <!-- Valeur de l'information mutuelle normalisée -->
     <g transform="translate(18.737188 224.819688)rotate(-90)scale(0.1 -0.1)">
      <defs>
       <path d="M 28.609375 0 
L 0.78125 72.90625 
L 11.078125 72.90625 
L 34.1875 11.53125 
L 57.328125 72.90625 
L 67.578125 72.90625 
L 39.796875 0 
z
" id="DejaVuSans-86"/>
       <path d="M 34.28125 27.484375 
Q 23.390625 27.484375 19.1875 25 
Q 14.984375 22.515625 14.984375 16.5 
Q 14.984375 11.71875 18.140625 8.90625 
Q 21.296875 6.109375 26.703125 6.109375 
Q 34.1875 6.109375 38.703125 11.40625 
Q 43.21875 16.703125 43.21875 25.484375 
L 43.21875 27.484375 
z
M 52.203125 31.203125 
L 52.203125 0 
L 43.21875 0 
L 43.21875 8.296875 
Q 40.140625 3.328125 35.546875 0.953125 
Q 30.953125 -1.421875 24.3125 -1.421875 
Q 15.921875 -1.421875 10.953125 3.296875 
Q 6 8.015625 6 15.921875 
Q 6 25.140625 12.171875 29.828125 
Q 18.359375 34.515625 30.609375 34.515625 
L 43.21875 34.515625 
L 43.21875 35.40625 
Q 43.21875 41.609375 39.140625 45 
Q 35.0625 48.390625 27.6875 48.390625 
Q 23 48.390625 18.546875 47.265625 
Q 14.109375 46.140625 10.015625 43.890625 
L 10.015625 52.203125 
Q 14.9375 54.109375 19.578125 55.046875 
Q 24.21875 56 28.609375 56 
Q 40.484375 56 46.34375 49.84375 
Q 52.203125 43.703125 52.203125 31.203125 
z
" id="DejaVuSans-97"/>
       <path d="M 9.421875 75.984375 
L 18.40625 75.984375 
L 18.40625 0 
L 9.421875 0 
z
" id="DejaVuSans-108"/>
       <path d="M 17.921875 72.90625 
L 17.921875 45.796875 
L 9.625 45.796875 
L 9.625 72.90625 
z
" id="DejaVuSans-39"/>
       <path d="M 54.890625 33.015625 
L 54.890625 0 
L 45.90625 0 
L 45.90625 32.71875 
Q 45.90625 40.484375 42.875 44.328125 
Q 39.84375 48.1875 33.796875 48.1875 
Q 26.515625 48.1875 22.3125 43.546875 
Q 18.109375 38.921875 18.109375 30.90625 
L 18.109375 0 
L 9.078125 0 
L 9.078125 54.6875 
L 18.109375 54.6875 
L 18.109375 46.1875 
Q 21.34375 51.125 25.703125 53.5625 
Q 30.078125 56 35.796875 56 
Q 45.21875 56 50.046875 50.171875 
Q 54.890625 44.34375 54.890625 33.015625 
z
" id="DejaVuSans-110"/>
       <path d="M 37.109375 75.984375 
L 37.109375 68.5 
L 28.515625 68.5 
Q 23.6875 68.5 21.796875 66.546875 
Q 19.921875 64.59375 19.921875 59.515625 
L 19.921875 54.6875 
L 34.71875 54.6875 
L 34.71875 47.703125 
L 19.921875 47.703125 
L 19.921875 0 
L 10.890625 0 
L 10.890625 47.703125 
L 2.296875 47.703125 
L 2.296875 54.6875 
L 10.890625 54.6875 
L 10.890625 58.5 
Q 10.890625 67.625 15.140625 71.796875 
Q 19.390625 75.984375 28.609375 75.984375 
z
" id="DejaVuSans-102"/>
       <path d="M 56.203125 29.59375 
L 56.203125 25.203125 
L 14.890625 25.203125 
Q 15.484375 15.921875 20.484375 11.0625 
Q 25.484375 6.203125 34.421875 6.203125 
Q 39.59375 6.203125 44.453125 7.46875 
Q 49.3125 8.734375 54.109375 11.28125 
L 54.109375 2.78125 
Q 49.265625 0.734375 44.1875 -0.34375 
Q 39.109375 -1.421875 33.890625 -1.421875 
Q 20.796875 -1.421875 13.15625 6.1875 
Q 5.515625 13.8125 5.515625 26.8125 
Q 5.515625 40.234375 12.765625 48.109375 
Q 20.015625 56 32.328125 56 
Q 43.359375 56 49.78125 48.890625 
Q 56.203125 41.796875 56.203125 29.59375 
z
M 47.21875 32.234375 
Q 47.125 39.59375 43.09375 43.984375 
Q 39.0625 48.390625 32.421875 48.390625 
Q 24.90625 48.390625 20.390625 44.140625 
Q 15.875 39.890625 15.1875 32.171875 
z
M 38.53125 79.984375 
L 48.25 79.984375 
L 32.34375 61.625 
L 24.859375 61.625 
z
" id="DejaVuSans-233"/>
      </defs>
      <use xlink:href="#DejaVuSans-86"/>
      <use x="60.658203" xlink:href="#DejaVuSans-97"/>
      <use x="121.9375" xlink:href="#DejaVuSans-108"/>
      <use x="149.720703" xlink:href="#DejaVuSans-101"/>
      <use x="211.244141" xlink:href="#DejaVuSans-117"/>
      <use x="274.623047" xlink:href="#DejaVuSans-114"/>
      <use x="315.736328" xlink:href="#DejaVuSans-32"/>
      <use x="347.523438" xlink:href="#DejaVuSans-100"/>
      <use x="411" xlink:href="#DejaVuSans-101"/>
      <use x="472.523438" xlink:href="#DejaVuSans-32"/>
      <use x="504.310547" xlink:href="#DejaVuSans-108"/>
      <use x="532.09375" xlink:href="#DejaVuSans-39"/>
      <use x="559.583984" xlink:href="#DejaVuSans-105"/>
      <use x="587.367188" xlink:href="#DejaVuSans-110"/>
      <use x="650.746094" xlink:href="#DejaVuSans-102"/>
      <use x="685.951172" xlink:href="#DejaVuSans-111"/>
      <use x="747.132812" xlink:href="#DejaVuSans-114"/>
      <use x="786.496094" xlink:href="#DejaVuSans-109"/>
      <use x="883.908203" xlink:href="#DejaVuSans-97"/>
      <use x="945.1875" xlink:href="#DejaVuSans-116"/>
      <use x="984.396484" xlink:href="#DejaVuSans-105"/>
      <use x="1012.179688" xlink:href="#DejaVuSans-111"/>
      <use x="1073.361328" xlink:href="#DejaVuSans-110"/>
      <use x="1136.740234" xlink:href="#DejaVuSans-32"/>
      <use x="1168.527344" xlink:href="#DejaVuSans-109"/>
      <use x="1265.939453" xlink:href="#DejaVuSans-117"/>
      <use x="1329.318359" xlink:href="#DejaVuSans-116"/>
      <use x="1368.527344" xlink:href="#DejaVuSans-117"/>
      <use x="1431.90625" xlink:href="#DejaVuSans-101"/>
      <use x="1493.429688" xlink:href="#DejaVuSans-108"/>
      <use x="1521.212891" xlink:href="#DejaVuSans-108"/>
      <use x="1548.996094" xlink:href="#DejaVuSans-101"/>
      <use x="1610.519531" xlink:href="#DejaVuSans-32"/>
      <use x="1642.306641" xlink:href="#DejaVuSans-110"/>
      <use x="1705.685547" xlink:href="#DejaVuSans-111"/>
      <use x="1766.867188" xlink:href="#DejaVuSans-114"/>
      <use x="1806.230469" xlink:href="#DejaVuSans-109"/>
      <use x="1903.642578" xlink:href="#DejaVuSans-97"/>
      <use x="1964.921875" xlink:href="#DejaVuSans-108"/>
      <use x="1992.705078" xlink:href="#DejaVuSans-105"/>
      <use x="2020.488281" xlink:href="#DejaVuSans-115"/>
      <use x="2072.587891" xlink:href="#DejaVuSans-233"/>
      <use x="2134.111328" xlink:href="#DejaVuSans-101"/>
     </g>
    </g>
   </g>
   <g id="LineCollection_1">
    <path clip-path="url(#p26e1398f08)" d="M 87.409091 46.06689 
L 87.409091 35.221818 
" style="fill:none;stroke:#1f77b4;stroke-width:1.5;"/>
    <path clip-path="url(#p26e1398f08)" d="M 91.397944 57.437679 
L 91.397944 44.970977 
" style="fill:none;stroke:#1f77b4;stroke-width:1.5;"/>
    <path clip-path="url(#p26e1398f08)" d="M 103.364504 78.198799 
L 103.364504 66.572984 
" style="fill:none;stroke:#1f77b4;stroke-width:1.5;"/>
    <path clip-path="url(#p26e1398f08)" d="M 123.308771 102.494753 
L 123.308771 88.773153 
" style="fill:none;stroke:#1f77b4;stroke-width:1.5;"/>
    <path clip-path="url(#p26e1398f08)" d="M 163.197305 128.0934 
L 163.197305 114.957005 
" style="fill:none;stroke:#1f77b4;stroke-width:1.5;"/>
    <path clip-path="url(#p26e1398f08)" d="M 282.862905 159.44927 
L 282.862905 147.385094 
" style="fill:none;stroke:#1f77b4;stroke-width:1.5;"/>
    <path clip-path="url(#p26e1398f08)" d="M 482.305573 179.35153 
L 482.305573 167.989956 
" style="fill:none;stroke:#1f77b4;stroke-width:1.5;"/>
    <path clip-path="url(#p26e1398f08)" d="M 562.08264 183.737799 
L 562.08264 172.835309 
" style="fill:none;stroke:#1f77b4;stroke-width:1.5;"/>
    <path clip-path="url(#p26e1398f08)" d="M 681.748241 188.92039 
L 681.748241 178.091434 
" style="fill:none;stroke:#1f77b4;stroke-width:1.5;"/>
    <path clip-path="url(#p26e1398f08)" d="M 881.190909 194.858182 
L 881.190909 184.45322 
" style="fill:none;stroke:#1f77b4;stroke-width:1.5;"/>
   </g>
   <g id="LineCollection_2">
    <path clip-path="url(#p26e1398f08)" d="M 87.409091 130.545433 
L 87.409091 129.299595 
" style="fill:none;stroke:#ff7f0e;stroke-width:1.5;"/>
    <path clip-path="url(#p26e1398f08)" d="M 91.397944 120.628755 
L 91.397944 113.581308 
" style="fill:none;stroke:#ff7f0e;stroke-width:1.5;"/>
    <path clip-path="url(#p26e1398f08)" d="M 103.364504 116.359623 
L 103.364504 110.226799 
" style="fill:none;stroke:#ff7f0e;stroke-width:1.5;"/>
    <path clip-path="url(#p26e1398f08)" d="M 123.308771 117.531168 
L 123.308771 111.022972 
" style="fill:none;stroke:#ff7f0e;stroke-width:1.5;"/>
    <path clip-path="url(#p26e1398f08)" d="M 163.197305 120.323663 
L 163.197305 113.497266 
" style="fill:none;stroke:#ff7f0e;stroke-width:1.5;"/>
    <path clip-path="url(#p26e1398f08)" d="M 282.862905 128.498086 
L 282.862905 122.185682 
" style="fill:none;stroke:#ff7f0e;stroke-width:1.5;"/>
    <path clip-path="url(#p26e1398f08)" d="M 482.305573 139.879661 
L 482.305573 134.056605 
" style="fill:none;stroke:#ff7f0e;stroke-width:1.5;"/>
    <path clip-path="url(#p26e1398f08)" d="M 562.08264 143.502684 
L 562.08264 138.050255 
" style="fill:none;stroke:#ff7f0e;stroke-width:1.5;"/>
    <path clip-path="url(#p26e1398f08)" d="M 681.748241 148.015565 
L 681.748241 142.508287 
" style="fill:none;stroke:#ff7f0e;stroke-width:1.5;"/>
    <path clip-path="url(#p26e1398f08)" d="M 881.190909 153.536463 
L 881.190909 148.118685 
" style="fill:none;stroke:#ff7f0e;stroke-width:1.5;"/>
   </g>
   <g id="line2d_14">
    <path clip-path="url(#p26e1398f08)" d="M 87.409091 40.644354 
L 91.397944 51.204328 
L 103.364504 72.385891 
L 123.308771 95.633953 
L 163.197305 121.525203 
L 282.862905 153.417182 
L 482.305573 173.670743 
L 562.08264 178.286554 
L 681.748241 183.505912 
L 881.190909 189.655701 
" style="fill:none;stroke:#1f77b4;stroke-linecap:square;stroke-width:1.5;"/>
    <defs>
     <path d="M 0 3 
C 0.795609 3 1.55874 2.683901 2.12132 2.12132 
C 2.683901 1.55874 3 0.795609 3 0 
C 3 -0.795609 2.683901 -1.55874 2.12132 -2.12132 
C 1.55874 -2.683901 0.795609 -3 0 -3 
C -0.795609 -3 -1.55874 -2.683901 -2.12132 -2.12132 
C -2.683901 -1.55874 -3 -0.795609 -3 0 
C -3 0.795609 -2.683901 1.55874 -2.12132 2.12132 
C -1.55874 2.683901 -0.795609 3 0 3 
z
" id="m04a3787882" style="stroke:#1f77b4;"/>
    </defs>
    <g clip-path="url(#p26e1398f08)">
     <use style="fill:#1f77b4;stroke:#1f77b4;" x="87.409091" xlink:href="#m04a3787882" y="40.644354"/>
     <use style="fill:#1f77b4;stroke:#1f77b4;" x="91.397944" xlink:href="#m04a3787882" y="51.204328"/>
     <use style="fill:#1f77b4;stroke:#1f77b4;" x="103.364504" xlink:href="#m04a3787882" y="72.385891"/>
     <use style="fill:#1f77b4;stroke:#1f77b4;" x="123.308771" xlink:href="#m04a3787882" y="95.633953"/>
     <use style="fill:#1f77b4;stroke:#1f77b4;" x="163.197305" xlink:href="#m04a3787882" y="121.525203"/>
     <use style="fill:#1f77b4;stroke:#1f77b4;" x="282.862905" xlink:href="#m04a3787882" y="153.417182"/>
     <use style="fill:#1f77b4;stroke:#1f77b4;" x="482.305573" xlink:href="#m04a3787882" y="173.670743"/>
     <use style="fill:#1f77b4;stroke:#1f77b4;" x="562.08264" xlink:href="#m04a3787882" y="178.286554"/>
     <use style="fill:#1f77b4;stroke:#1f77b4;" x="681.748241" xlink:href="#m04a3787882" y="183.505912"/>
     <use style="fill:#1f77b4;stroke:#1f77b4;" x="881.190909" xlink:href="#m04a3787882" y="189.655701"/>
    </g>
   </g>
   <g id="line2d_15">
    <path clip-path="url(#p26e1398f08)" d="M 87.409091 129.922514 
L 91.397944 117.105031 
L 103.364504 113.293211 
L 123.308771 114.27707 
L 163.197305 116.910464 
L 282.862905 125.341884 
L 482.305573 136.968133 
L 562.08264 140.77647 
L 681.748241 145.261926 
L 881.190909 150.827574 
" style="fill:none;stroke:#ff7f0e;stroke-linecap:square;stroke-width:1.5;"/>
    <defs>
     <path d="M 0 3 
C 0.795609 3 1.55874 2.683901 2.12132 2.12132 
C 2.683901 1.55874 3 0.795609 3 0 
C 3 -0.795609 2.683901 -1.55874 2.12132 -2.12132 
C 1.55874 -2.683901 0.795609 -3 0 -3 
C -0.795609 -3 -1.55874 -2.683901 -2.12132 -2.12132 
C -2.683901 -1.55874 -3 -0.795609 -3 0 
C -3 0.795609 -2.683901 1.55874 -2.12132 2.12132 
C -1.55874 2.683901 -0.795609 3 0 3 
z
" id="mfc34db49af" style="stroke:#ff7f0e;"/>
    </defs>
    <g clip-path="url(#p26e1398f08)">
     <use style="fill:#ff7f0e;stroke:#ff7f0e;" x="87.409091" xlink:href="#mfc34db49af" y="129.922514"/>
     <use style="fill:#ff7f0e;stroke:#ff7f0e;" x="91.397944" xlink:href="#mfc34db49af" y="117.105031"/>
     <use style="fill:#ff7f0e;stroke:#ff7f0e;" x="103.364504" xlink:href="#mfc34db49af" y="113.293211"/>
     <use style="fill:#ff7f0e;stroke:#ff7f0e;" x="123.308771" xlink:href="#mfc34db49af" y="114.27707"/>
     <use style="fill:#ff7f0e;stroke:#ff7f0e;" x="163.197305" xlink:href="#mfc34db49af" y="116.910464"/>
     <use style="fill:#ff7f0e;stroke:#ff7f0e;" x="282.862905" xlink:href="#mfc34db49af" y="125.341884"/>
     <use style="fill:#ff7f0e;stroke:#ff7f0e;" x="482.305573" xlink:href="#mfc34db49af" y="136.968133"/>
     <use style="fill:#ff7f0e;stroke:#ff7f0e;" x="562.08264" xlink:href="#mfc34db49af" y="140.77647"/>
     <use style="fill:#ff7f0e;stroke:#ff7f0e;" x="681.748241" xlink:href="#mfc34db49af" y="145.261926"/>
     <use style="fill:#ff7f0e;stroke:#ff7f0e;" x="881.190909" xlink:href="#mfc34db49af" y="150.827574"/>
    </g>
   </g>
   <g id="patch_3">
    <path d="M 47.72 202.84 
L 47.72 27.24 
" style="fill:none;stroke:#000000;stroke-linecap:square;stroke-linejoin:miter;stroke-width:0.8;"/>
   </g>
   <g id="patch_4">
    <path d="M 920.88 202.84 
L 920.88 27.24 
" style="fill:none;stroke:#000000;stroke-linecap:square;stroke-linejoin:miter;stroke-width:0.8;"/>
   </g>
   <g id="patch_5">
    <path d="M 47.72 202.84 
L 920.88 202.84 
" style="fill:none;stroke:#000000;stroke-linecap:square;stroke-linejoin:miter;stroke-width:0.8;"/>
   </g>
   <g id="patch_6">
    <path d="M 47.72 27.24 
L 920.88 27.24 
" style="fill:none;stroke:#000000;stroke-linecap:square;stroke-linejoin:miter;stroke-width:0.8;"/>
   </g>
   <g id="text_16">
    <!-- Valeur de I(U,BMU) après apprentissage, estimation histogramme en fonction des paramètres -->
    <g transform="translate(202.272812 21.24)scale(0.12 -0.12)">
     <defs>
      <path d="M 9.8125 72.90625 
L 19.671875 72.90625 
L 19.671875 0 
L 9.8125 0 
z
" id="DejaVuSans-73"/>
      <path d="M 31 75.875 
Q 24.46875 64.65625 21.28125 53.65625 
Q 18.109375 42.671875 18.109375 31.390625 
Q 18.109375 20.125 21.3125 9.0625 
Q 24.515625 -2 31 -13.1875 
L 23.1875 -13.1875 
Q 15.875 -1.703125 12.234375 9.375 
Q 8.59375 20.453125 8.59375 31.390625 
Q 8.59375 42.28125 12.203125 53.3125 
Q 15.828125 64.359375 23.1875 75.875 
z
" id="DejaVuSans-40"/>
      <path d="M 11.71875 12.40625 
L 22.015625 12.40625 
L 22.015625 4 
L 14.015625 -11.625 
L 7.71875 -11.625 
L 11.71875 4 
z
" id="DejaVuSans-44"/>
      <path d="M 19.671875 34.8125 
L 19.671875 8.109375 
L 35.5 8.109375 
Q 43.453125 8.109375 47.28125 11.40625 
Q 51.125 14.703125 51.125 21.484375 
Q 51.125 28.328125 47.28125 31.5625 
Q 43.453125 34.8125 35.5 34.8125 
z
M 19.671875 64.796875 
L 19.671875 42.828125 
L 34.28125 42.828125 
Q 41.5 42.828125 45.03125 45.53125 
Q 48.578125 48.25 48.578125 53.8125 
Q 48.578125 59.328125 45.03125 62.0625 
Q 41.5 64.796875 34.28125 64.796875 
z
M 9.8125 72.90625 
L 35.015625 72.90625 
Q 46.296875 72.90625 52.390625 68.21875 
Q 58.5 63.53125 58.5 54.890625 
Q 58.5 48.1875 55.375 44.234375 
Q 52.25 40.28125 46.1875 39.3125 
Q 53.46875 37.75 57.5 32.78125 
Q 61.53125 27.828125 61.53125 20.40625 
Q 61.53125 10.640625 54.890625 5.3125 
Q 48.25 0 35.984375 0 
L 9.8125 0 
z
" id="DejaVuSans-66"/>
      <path d="M 9.8125 72.90625 
L 24.515625 72.90625 
L 43.109375 23.296875 
L 61.8125 72.90625 
L 76.515625 72.90625 
L 76.515625 0 
L 66.890625 0 
L 66.890625 64.015625 
L 48.09375 14.015625 
L 38.1875 14.015625 
L 19.390625 64.015625 
L 19.390625 0 
L 9.8125 0 
z
" id="DejaVuSans-77"/>
      <path d="M 8.015625 75.875 
L 15.828125 75.875 
Q 23.140625 64.359375 26.78125 53.3125 
Q 30.421875 42.28125 30.421875 31.390625 
Q 30.421875 20.453125 26.78125 9.375 
Q 23.140625 -1.703125 15.828125 -13.1875 
L 8.015625 -13.1875 
Q 14.5 -2 17.703125 9.0625 
Q 20.90625 20.125 20.90625 31.390625 
Q 20.90625 42.671875 17.703125 53.65625 
Q 14.5 64.65625 8.015625 75.875 
z
" id="DejaVuSans-41"/>
      <path d="M 56.203125 29.59375 
L 56.203125 25.203125 
L 14.890625 25.203125 
Q 15.484375 15.921875 20.484375 11.0625 
Q 25.484375 6.203125 34.421875 6.203125 
Q 39.59375 6.203125 44.453125 7.46875 
Q 49.3125 8.734375 54.109375 11.28125 
L 54.109375 2.78125 
Q 49.265625 0.734375 44.1875 -0.34375 
Q 39.109375 -1.421875 33.890625 -1.421875 
Q 20.796875 -1.421875 13.15625 6.1875 
Q 5.515625 13.8125 5.515625 26.8125 
Q 5.515625 40.234375 12.765625 48.109375 
Q 20.015625 56 32.328125 56 
Q 43.359375 56 49.78125 48.890625 
Q 56.203125 41.796875 56.203125 29.59375 
z
M 47.21875 32.234375 
Q 47.125 39.59375 43.09375 43.984375 
Q 39.0625 48.390625 32.421875 48.390625 
Q 24.90625 48.390625 20.390625 44.140625 
Q 15.875 39.890625 15.1875 32.171875 
z
M 24.671875 79.984375 
L 38.4375 61.71875 
L 30.96875 61.71875 
L 15.046875 79.984375 
z
" id="DejaVuSans-232"/>
      <path d="M 45.40625 27.984375 
Q 45.40625 37.75 41.375 43.109375 
Q 37.359375 48.484375 30.078125 48.484375 
Q 22.859375 48.484375 18.828125 43.109375 
Q 14.796875 37.75 14.796875 27.984375 
Q 14.796875 18.265625 18.828125 12.890625 
Q 22.859375 7.515625 30.078125 7.515625 
Q 37.359375 7.515625 41.375 12.890625 
Q 45.40625 18.265625 45.40625 27.984375 
z
M 54.390625 6.78125 
Q 54.390625 -7.171875 48.1875 -13.984375 
Q 42 -20.796875 29.203125 -20.796875 
Q 24.46875 -20.796875 20.265625 -20.09375 
Q 16.0625 -19.390625 12.109375 -17.921875 
L 12.109375 -9.1875 
Q 16.0625 -11.328125 19.921875 -12.34375 
Q 23.78125 -13.375 27.78125 -13.375 
Q 36.625 -13.375 41.015625 -8.765625 
Q 45.40625 -4.15625 45.40625 5.171875 
L 45.40625 9.625 
Q 42.625 4.78125 38.28125 2.390625 
Q 33.9375 0 27.875 0 
Q 17.828125 0 11.671875 7.65625 
Q 5.515625 15.328125 5.515625 27.984375 
Q 5.515625 40.671875 11.671875 48.328125 
Q 17.828125 56 27.875 56 
Q 33.9375 56 38.28125 53.609375 
Q 42.625 51.21875 45.40625 46.390625 
L 45.40625 54.6875 
L 54.390625 54.6875 
z
" id="DejaVuSans-103"/>
      <path d="M 54.890625 33.015625 
L 54.890625 0 
L 45.90625 0 
L 45.90625 32.71875 
Q 45.90625 40.484375 42.875 44.328125 
Q 39.84375 48.1875 33.796875 48.1875 
Q 26.515625 48.1875 22.3125 43.546875 
Q 18.109375 38.921875 18.109375 30.90625 
L 18.109375 0 
L 9.078125 0 
L 9.078125 75.984375 
L 18.109375 75.984375 
L 18.109375 46.1875 
Q 21.34375 51.125 25.703125 53.5625 
Q 30.078125 56 35.796875 56 
Q 45.21875 56 50.046875 50.171875 
Q 54.890625 44.34375 54.890625 33.015625 
z
" id="DejaVuSans-104"/>
      <path d="M 48.78125 52.59375 
L 48.78125 44.1875 
Q 44.96875 46.296875 41.140625 47.34375 
Q 37.3125 48.390625 33.40625 48.390625 
Q 24.65625 48.390625 19.8125 42.84375 
Q 14.984375 37.3125 14.984375 27.296875 
Q 14.984375 17.28125 19.8125 11.734375 
Q 24.65625 6.203125 33.40625 6.203125 
Q 37.3125 6.203125 41.140625 7.25 
Q 44.96875 8.296875 48.78125 10.40625 
L 48.78125 2.09375 
Q 45.015625 0.34375 40.984375 -0.53125 
Q 36.96875 -1.421875 32.421875 -1.421875 
Q 20.0625 -1.421875 12.78125 6.34375 
Q 5.515625 14.109375 5.515625 27.296875 
Q 5.515625 40.671875 12.859375 48.328125 
Q 20.21875 56 33.015625 56 
Q 37.15625 56 41.109375 55.140625 
Q 45.0625 54.296875 48.78125 52.59375 
z
" id="DejaVuSans-99"/>
     </defs>
     <use xlink:href="#DejaVuSans-86"/>
     <use x="60.658203" xlink:href="#DejaVuSans-97"/>
     <use x="121.9375" xlink:href="#DejaVuSans-108"/>
     <use x="149.720703" xlink:href="#DejaVuSans-101"/>
     <use x="211.244141" xlink:href="#DejaVuSans-117"/>
     <use x="274.623047" xlink:href="#DejaVuSans-114"/>
     <use x="315.736328" xlink:href="#DejaVuSans-32"/>
     <use x="347.523438" xlink:href="#DejaVuSans-100"/>
     <use x="411" xlink:href="#DejaVuSans-101"/>
     <use x="472.523438" xlink:href="#DejaVuSans-32"/>
     <use x="504.310547" xlink:href="#DejaVuSans-73"/>
     <use x="533.802734" xlink:href="#DejaVuSans-40"/>
     <use x="572.816406" xlink:href="#DejaVuSans-85"/>
     <use x="646.009766" xlink:href="#DejaVuSans-44"/>
     <use x="677.796875" xlink:href="#DejaVuSans-66"/>
     <use x="746.400391" xlink:href="#DejaVuSans-77"/>
     <use x="832.679688" xlink:href="#DejaVuSans-85"/>
     <use x="905.873047" xlink:href="#DejaVuSans-41"/>
     <use x="944.886719" xlink:href="#DejaVuSans-32"/>
     <use x="976.673828" xlink:href="#DejaVuSans-97"/>
     <use x="1037.953125" xlink:href="#DejaVuSans-112"/>
     <use x="1101.429688" xlink:href="#DejaVuSans-114"/>
     <use x="1140.292969" xlink:href="#DejaVuSans-232"/>
     <use x="1201.816406" xlink:href="#DejaVuSans-115"/>
     <use x="1253.916016" xlink:href="#DejaVuSans-32"/>
     <use x="1285.703125" xlink:href="#DejaVuSans-97"/>
     <use x="1346.982422" xlink:href="#DejaVuSans-112"/>
     <use x="1410.458984" xlink:href="#DejaVuSans-112"/>
     <use x="1473.935547" xlink:href="#DejaVuSans-114"/>
     <use x="1512.798828" xlink:href="#DejaVuSans-101"/>
     <use x="1574.322266" xlink:href="#DejaVuSans-110"/>
     <use x="1637.701172" xlink:href="#DejaVuSans-116"/>
     <use x="1676.910156" xlink:href="#DejaVuSans-105"/>
     <use x="1704.693359" xlink:href="#DejaVuSans-115"/>
     <use x="1756.792969" xlink:href="#DejaVuSans-115"/>
     <use x="1808.892578" xlink:href="#DejaVuSans-97"/>
     <use x="1870.171875" xlink:href="#DejaVuSans-103"/>
     <use x="1933.648438" xlink:href="#DejaVuSans-101"/>
     <use x="1995.171875" xlink:href="#DejaVuSans-44"/>
     <use x="2026.958984" xlink:href="#DejaVuSans-32"/>
     <use x="2058.746094" xlink:href="#DejaVuSans-101"/>
     <use x="2120.269531" xlink:href="#DejaVuSans-115"/>
     <use x="2172.369141" xlink:href="#DejaVuSans-116"/>
     <use x="2211.578125" xlink:href="#DejaVuSans-105"/>
     <use x="2239.361328" xlink:href="#DejaVuSans-109"/>
     <use x="2336.773438" xlink:href="#DejaVuSans-97"/>
     <use x="2398.052734" xlink:href="#DejaVuSans-116"/>
     <use x="2437.261719" xlink:href="#DejaVuSans-105"/>
     <use x="2465.044922" xlink:href="#DejaVuSans-111"/>
     <use x="2526.226562" xlink:href="#DejaVuSans-110"/>
     <use x="2589.605469" xlink:href="#DejaVuSans-32"/>
     <use x="2621.392578" xlink:href="#DejaVuSans-104"/>
     <use x="2684.771484" xlink:href="#DejaVuSans-105"/>
     <use x="2712.554688" xlink:href="#DejaVuSans-115"/>
     <use x="2764.654297" xlink:href="#DejaVuSans-116"/>
     <use x="2803.863281" xlink:href="#DejaVuSans-111"/>
     <use x="2865.044922" xlink:href="#DejaVuSans-103"/>
     <use x="2928.521484" xlink:href="#DejaVuSans-114"/>
     <use x="2969.634766" xlink:href="#DejaVuSans-97"/>
     <use x="3030.914062" xlink:href="#DejaVuSans-109"/>
     <use x="3128.326172" xlink:href="#DejaVuSans-109"/>
     <use x="3225.738281" xlink:href="#DejaVuSans-101"/>
     <use x="3287.261719" xlink:href="#DejaVuSans-32"/>
     <use x="3319.048828" xlink:href="#DejaVuSans-101"/>
     <use x="3380.572266" xlink:href="#DejaVuSans-110"/>
     <use x="3443.951172" xlink:href="#DejaVuSans-32"/>
     <use x="3475.738281" xlink:href="#DejaVuSans-102"/>
     <use x="3510.943359" xlink:href="#DejaVuSans-111"/>
     <use x="3572.125" xlink:href="#DejaVuSans-110"/>
     <use x="3635.503906" xlink:href="#DejaVuSans-99"/>
     <use x="3690.484375" xlink:href="#DejaVuSans-116"/>
     <use x="3729.693359" xlink:href="#DejaVuSans-105"/>
     <use x="3757.476562" xlink:href="#DejaVuSans-111"/>
     <use x="3818.658203" xlink:href="#DejaVuSans-110"/>
     <use x="3882.037109" xlink:href="#DejaVuSans-32"/>
     <use x="3913.824219" xlink:href="#DejaVuSans-100"/>
     <use x="3977.300781" xlink:href="#DejaVuSans-101"/>
     <use x="4038.824219" xlink:href="#DejaVuSans-115"/>
     <use x="4090.923828" xlink:href="#DejaVuSans-32"/>
     <use x="4122.710938" xlink:href="#DejaVuSans-112"/>
     <use x="4186.1875" xlink:href="#DejaVuSans-97"/>
     <use x="4247.466797" xlink:href="#DejaVuSans-114"/>
     <use x="4288.580078" xlink:href="#DejaVuSans-97"/>
     <use x="4349.859375" xlink:href="#DejaVuSans-109"/>
     <use x="4447.271484" xlink:href="#DejaVuSans-232"/>
     <use x="4508.794922" xlink:href="#DejaVuSans-116"/>
     <use x="4548.003906" xlink:href="#DejaVuSans-114"/>
     <use x="4586.867188" xlink:href="#DejaVuSans-101"/>
     <use x="4648.390625" xlink:href="#DejaVuSans-115"/>
    </g>
   </g>
  </g>
  <g id="axes_2">
   <g id="patch_7">
    <path d="M 47.72 436.84 
L 920.88 436.84 
L 920.88 261.24 
L 47.72 261.24 
z
" style="fill:#ffffff;"/>
   </g>
   <g id="matplotlib.axis_3">
    <g id="xtick_10">
     <g id="line2d_16">
      <g>
       <use style="stroke:#000000;stroke-width:0.8;" x="175.607071" xlink:href="#mb9d63d3a2d" y="436.84"/>
      </g>
     </g>
     <g id="text_17">
      <!-- 4 -->
      <g transform="translate(172.425821 451.438438)scale(0.1 -0.1)">
       <defs>
        <path d="M 37.796875 64.3125 
L 12.890625 25.390625 
L 37.796875 25.390625 
z
M 35.203125 72.90625 
L 47.609375 72.90625 
L 47.609375 25.390625 
L 58.015625 25.390625 
L 58.015625 17.1875 
L 47.609375 17.1875 
L 47.609375 0 
L 37.796875 0 
L 37.796875 17.1875 
L 4.890625 17.1875 
L 4.890625 26.703125 
z
" id="DejaVuSans-52"/>
       </defs>
       <use xlink:href="#DejaVuSans-52"/>
      </g>
     </g>
    </g>
    <g id="xtick_11">
     <g id="line2d_17">
      <g>
       <use style="stroke:#000000;stroke-width:0.8;" x="352.00303" xlink:href="#mb9d63d3a2d" y="436.84"/>
      </g>
     </g>
     <g id="text_18">
      <!-- 6 -->
      <g transform="translate(348.82178 451.438438)scale(0.1 -0.1)">
       <use xlink:href="#DejaVuSans-54"/>
      </g>
     </g>
    </g>
    <g id="xtick_12">
     <g id="line2d_18">
      <g>
       <use style="stroke:#000000;stroke-width:0.8;" x="528.39899" xlink:href="#mb9d63d3a2d" y="436.84"/>
      </g>
     </g>
     <g id="text_19">
      <!-- 8 -->
      <g transform="translate(525.21774 451.438438)scale(0.1 -0.1)">
       <use xlink:href="#DejaVuSans-56"/>
      </g>
     </g>
    </g>
    <g id="xtick_13">
     <g id="line2d_19">
      <g>
       <use style="stroke:#000000;stroke-width:0.8;" x="704.794949" xlink:href="#mb9d63d3a2d" y="436.84"/>
      </g>
     </g>
     <g id="text_20">
      <!-- 10 -->
      <g transform="translate(698.432449 451.438438)scale(0.1 -0.1)">
       <use xlink:href="#DejaVuSans-49"/>
       <use x="63.623047" xlink:href="#DejaVuSans-48"/>
      </g>
     </g>
    </g>
    <g id="xtick_14">
     <g id="line2d_20">
      <g>
       <use style="stroke:#000000;stroke-width:0.8;" x="881.190909" xlink:href="#mb9d63d3a2d" y="436.84"/>
      </g>
     </g>
     <g id="text_21">
      <!-- 12 -->
      <g transform="translate(874.828409 451.438438)scale(0.1 -0.1)">
       <use xlink:href="#DejaVuSans-49"/>
       <use x="63.623047" xlink:href="#DejaVuSans-50"/>
      </g>
     </g>
    </g>
    <g id="text_22">
     <!-- Nombre de voisins pour kraskov -->
     <g transform="translate(403.84375 465.116563)scale(0.1 -0.1)">
      <defs>
       <path d="M 2.984375 54.6875 
L 12.5 54.6875 
L 29.59375 8.796875 
L 46.6875 54.6875 
L 56.203125 54.6875 
L 35.6875 0 
L 23.484375 0 
z
" id="DejaVuSans-118"/>
       <path d="M 9.078125 75.984375 
L 18.109375 75.984375 
L 18.109375 31.109375 
L 44.921875 54.6875 
L 56.390625 54.6875 
L 27.390625 29.109375 
L 57.625 0 
L 45.90625 0 
L 18.109375 26.703125 
L 18.109375 0 
L 9.078125 0 
z
" id="DejaVuSans-107"/>
      </defs>
      <use xlink:href="#DejaVuSans-78"/>
      <use x="74.804688" xlink:href="#DejaVuSans-111"/>
      <use x="135.986328" xlink:href="#DejaVuSans-109"/>
      <use x="233.398438" xlink:href="#DejaVuSans-98"/>
      <use x="296.875" xlink:href="#DejaVuSans-114"/>
      <use x="335.738281" xlink:href="#DejaVuSans-101"/>
      <use x="397.261719" xlink:href="#DejaVuSans-32"/>
      <use x="429.048828" xlink:href="#DejaVuSans-100"/>
      <use x="492.525391" xlink:href="#DejaVuSans-101"/>
      <use x="554.048828" xlink:href="#DejaVuSans-32"/>
      <use x="585.835938" xlink:href="#DejaVuSans-118"/>
      <use x="645.015625" xlink:href="#DejaVuSans-111"/>
      <use x="706.197266" xlink:href="#DejaVuSans-105"/>
      <use x="733.980469" xlink:href="#DejaVuSans-115"/>
      <use x="786.080078" xlink:href="#DejaVuSans-105"/>
      <use x="813.863281" xlink:href="#DejaVuSans-110"/>
      <use x="877.242188" xlink:href="#DejaVuSans-115"/>
      <use x="929.341797" xlink:href="#DejaVuSans-32"/>
      <use x="961.128906" xlink:href="#DejaVuSans-112"/>
      <use x="1024.605469" xlink:href="#DejaVuSans-111"/>
      <use x="1085.787109" xlink:href="#DejaVuSans-117"/>
      <use x="1149.166016" xlink:href="#DejaVuSans-114"/>
      <use x="1190.279297" xlink:href="#DejaVuSans-32"/>
      <use x="1222.066406" xlink:href="#DejaVuSans-107"/>
      <use x="1279.976562" xlink:href="#DejaVuSans-114"/>
      <use x="1321.089844" xlink:href="#DejaVuSans-97"/>
      <use x="1382.369141" xlink:href="#DejaVuSans-115"/>
      <use x="1434.46875" xlink:href="#DejaVuSans-107"/>
      <use x="1488.753906" xlink:href="#DejaVuSans-111"/>
      <use x="1549.935547" xlink:href="#DejaVuSans-118"/>
     </g>
    </g>
   </g>
   <g id="matplotlib.axis_4">
    <g id="ytick_5">
     <g id="line2d_21">
      <g>
       <use style="stroke:#000000;stroke-width:0.8;" x="47.72" xlink:href="#m8158cf366b" y="403.870744"/>
      </g>
     </g>
     <g id="text_23">
      <!-- 0.6 -->
      <g transform="translate(24.816875 407.669963)scale(0.1 -0.1)">
       <use xlink:href="#DejaVuSans-48"/>
       <use x="63.623047" xlink:href="#DejaVuSans-46"/>
       <use x="95.410156" xlink:href="#DejaVuSans-54"/>
      </g>
     </g>
    </g>
    <g id="ytick_6">
     <g id="line2d_22">
      <g>
       <use style="stroke:#000000;stroke-width:0.8;" x="47.72" xlink:href="#m8158cf366b" y="367.080563"/>
      </g>
     </g>
     <g id="text_24">
      <!-- 0.7 -->
      <g transform="translate(24.816875 370.879782)scale(0.1 -0.1)">
       <use xlink:href="#DejaVuSans-48"/>
       <use x="63.623047" xlink:href="#DejaVuSans-46"/>
       <use x="95.410156" xlink:href="#DejaVuSans-55"/>
      </g>
     </g>
    </g>
    <g id="ytick_7">
     <g id="line2d_23">
      <g>
       <use style="stroke:#000000;stroke-width:0.8;" x="47.72" xlink:href="#m8158cf366b" y="330.290382"/>
      </g>
     </g>
     <g id="text_25">
      <!-- 0.8 -->
      <g transform="translate(24.816875 334.089601)scale(0.1 -0.1)">
       <use xlink:href="#DejaVuSans-48"/>
       <use x="63.623047" xlink:href="#DejaVuSans-46"/>
       <use x="95.410156" xlink:href="#DejaVuSans-56"/>
      </g>
     </g>
    </g>
    <g id="ytick_8">
     <g id="line2d_24">
      <g>
       <use style="stroke:#000000;stroke-width:0.8;" x="47.72" xlink:href="#m8158cf366b" y="293.500202"/>
      </g>
     </g>
     <g id="text_26">
      <!-- 0.9 -->
      <g transform="translate(24.816875 297.29942)scale(0.1 -0.1)">
       <use xlink:href="#DejaVuSans-48"/>
       <use x="63.623047" xlink:href="#DejaVuSans-46"/>
       <use x="95.410156" xlink:href="#DejaVuSans-57"/>
      </g>
     </g>
    </g>
    <g id="text_27">
     <!-- Valeur de l'information mutuelle normalisée -->
     <g transform="translate(18.737188 458.819688)rotate(-90)scale(0.1 -0.1)">
      <use xlink:href="#DejaVuSans-86"/>
      <use x="60.658203" xlink:href="#DejaVuSans-97"/>
      <use x="121.9375" xlink:href="#DejaVuSans-108"/>
      <use x="149.720703" xlink:href="#DejaVuSans-101"/>
      <use x="211.244141" xlink:href="#DejaVuSans-117"/>
      <use x="274.623047" xlink:href="#DejaVuSans-114"/>
      <use x="315.736328" xlink:href="#DejaVuSans-32"/>
      <use x="347.523438" xlink:href="#DejaVuSans-100"/>
      <use x="411" xlink:href="#DejaVuSans-101"/>
      <use x="472.523438" xlink:href="#DejaVuSans-32"/>
      <use x="504.310547" xlink:href="#DejaVuSans-108"/>
      <use x="532.09375" xlink:href="#DejaVuSans-39"/>
      <use x="559.583984" xlink:href="#DejaVuSans-105"/>
      <use x="587.367188" xlink:href="#DejaVuSans-110"/>
      <use x="650.746094" xlink:href="#DejaVuSans-102"/>
      <use x="685.951172" xlink:href="#DejaVuSans-111"/>
      <use x="747.132812" xlink:href="#DejaVuSans-114"/>
      <use x="786.496094" xlink:href="#DejaVuSans-109"/>
      <use x="883.908203" xlink:href="#DejaVuSans-97"/>
      <use x="945.1875" xlink:href="#DejaVuSans-116"/>
      <use x="984.396484" xlink:href="#DejaVuSans-105"/>
      <use x="1012.179688" xlink:href="#DejaVuSans-111"/>
      <use x="1073.361328" xlink:href="#DejaVuSans-110"/>
      <use x="1136.740234" xlink:href="#DejaVuSans-32"/>
      <use x="1168.527344" xlink:href="#DejaVuSans-109"/>
      <use x="1265.939453" xlink:href="#DejaVuSans-117"/>
      <use x="1329.318359" xlink:href="#DejaVuSans-116"/>
      <use x="1368.527344" xlink:href="#DejaVuSans-117"/>
      <use x="1431.90625" xlink:href="#DejaVuSans-101"/>
      <use x="1493.429688" xlink:href="#DejaVuSans-108"/>
      <use x="1521.212891" xlink:href="#DejaVuSans-108"/>
      <use x="1548.996094" xlink:href="#DejaVuSans-101"/>
      <use x="1610.519531" xlink:href="#DejaVuSans-32"/>
      <use x="1642.306641" xlink:href="#DejaVuSans-110"/>
      <use x="1705.685547" xlink:href="#DejaVuSans-111"/>
      <use x="1766.867188" xlink:href="#DejaVuSans-114"/>
      <use x="1806.230469" xlink:href="#DejaVuSans-109"/>
      <use x="1903.642578" xlink:href="#DejaVuSans-97"/>
      <use x="1964.921875" xlink:href="#DejaVuSans-108"/>
      <use x="1992.705078" xlink:href="#DejaVuSans-105"/>
      <use x="2020.488281" xlink:href="#DejaVuSans-115"/>
      <use x="2072.587891" xlink:href="#DejaVuSans-233"/>
      <use x="2134.111328" xlink:href="#DejaVuSans-101"/>
     </g>
    </g>
   </g>
   <g id="LineCollection_3">
    <path clip-path="url(#pd2db6824d2)" d="M 87.409091 280.06689 
L 87.409091 269.221818 
" style="fill:none;stroke:#1f77b4;stroke-width:1.5;"/>
    <path clip-path="url(#pd2db6824d2)" d="M 175.607071 291.437679 
L 175.607071 278.970977 
" style="fill:none;stroke:#1f77b4;stroke-width:1.5;"/>
    <path clip-path="url(#pd2db6824d2)" d="M 263.805051 312.198799 
L 263.805051 300.572984 
" style="fill:none;stroke:#1f77b4;stroke-width:1.5;"/>
    <path clip-path="url(#pd2db6824d2)" d="M 352.00303 336.494753 
L 352.00303 322.773153 
" style="fill:none;stroke:#1f77b4;stroke-width:1.5;"/>
    <path clip-path="url(#pd2db6824d2)" d="M 440.20101 362.0934 
L 440.20101 348.957005 
" style="fill:none;stroke:#1f77b4;stroke-width:1.5;"/>
    <path clip-path="url(#pd2db6824d2)" d="M 528.39899 393.44927 
L 528.39899 381.385094 
" style="fill:none;stroke:#1f77b4;stroke-width:1.5;"/>
    <path clip-path="url(#pd2db6824d2)" d="M 616.59697 413.35153 
L 616.59697 401.989956 
" style="fill:none;stroke:#1f77b4;stroke-width:1.5;"/>
    <path clip-path="url(#pd2db6824d2)" d="M 704.794949 417.737799 
L 704.794949 406.835309 
" style="fill:none;stroke:#1f77b4;stroke-width:1.5;"/>
    <path clip-path="url(#pd2db6824d2)" d="M 792.992929 422.92039 
L 792.992929 412.091434 
" style="fill:none;stroke:#1f77b4;stroke-width:1.5;"/>
    <path clip-path="url(#pd2db6824d2)" d="M 881.190909 428.858182 
L 881.190909 418.45322 
" style="fill:none;stroke:#1f77b4;stroke-width:1.5;"/>
   </g>
   <g id="LineCollection_4">
    <path clip-path="url(#pd2db6824d2)" d="M 87.409091 364.545433 
L 87.409091 363.299595 
" style="fill:none;stroke:#ff7f0e;stroke-width:1.5;"/>
    <path clip-path="url(#pd2db6824d2)" d="M 175.607071 354.628755 
L 175.607071 347.581308 
" style="fill:none;stroke:#ff7f0e;stroke-width:1.5;"/>
    <path clip-path="url(#pd2db6824d2)" d="M 263.805051 350.359623 
L 263.805051 344.226799 
" style="fill:none;stroke:#ff7f0e;stroke-width:1.5;"/>
    <path clip-path="url(#pd2db6824d2)" d="M 352.00303 351.531168 
L 352.00303 345.022972 
" style="fill:none;stroke:#ff7f0e;stroke-width:1.5;"/>
    <path clip-path="url(#pd2db6824d2)" d="M 440.20101 354.323663 
L 440.20101 347.497266 
" style="fill:none;stroke:#ff7f0e;stroke-width:1.5;"/>
    <path clip-path="url(#pd2db6824d2)" d="M 528.39899 362.498086 
L 528.39899 356.185682 
" style="fill:none;stroke:#ff7f0e;stroke-width:1.5;"/>
    <path clip-path="url(#pd2db6824d2)" d="M 616.59697 373.879661 
L 616.59697 368.056605 
" style="fill:none;stroke:#ff7f0e;stroke-width:1.5;"/>
    <path clip-path="url(#pd2db6824d2)" d="M 704.794949 377.502684 
L 704.794949 372.050255 
" style="fill:none;stroke:#ff7f0e;stroke-width:1.5;"/>
    <path clip-path="url(#pd2db6824d2)" d="M 792.992929 382.015565 
L 792.992929 376.508287 
" style="fill:none;stroke:#ff7f0e;stroke-width:1.5;"/>
    <path clip-path="url(#pd2db6824d2)" d="M 881.190909 387.536463 
L 881.190909 382.118685 
" style="fill:none;stroke:#ff7f0e;stroke-width:1.5;"/>
   </g>
   <g id="line2d_25">
    <path clip-path="url(#pd2db6824d2)" d="M 87.409091 274.644354 
L 175.607071 285.204328 
L 263.805051 306.385891 
L 352.00303 329.633953 
L 440.20101 355.525203 
L 528.39899 387.417182 
L 616.59697 407.670743 
L 704.794949 412.286554 
L 792.992929 417.505912 
L 881.190909 423.655701 
" style="fill:none;stroke:#1f77b4;stroke-linecap:square;stroke-width:1.5;"/>
    <g clip-path="url(#pd2db6824d2)">
     <use style="fill:#1f77b4;stroke:#1f77b4;" x="87.409091" xlink:href="#m04a3787882" y="274.644354"/>
     <use style="fill:#1f77b4;stroke:#1f77b4;" x="175.607071" xlink:href="#m04a3787882" y="285.204328"/>
     <use style="fill:#1f77b4;stroke:#1f77b4;" x="263.805051" xlink:href="#m04a3787882" y="306.385891"/>
     <use style="fill:#1f77b4;stroke:#1f77b4;" x="352.00303" xlink:href="#m04a3787882" y="329.633953"/>
     <use style="fill:#1f77b4;stroke:#1f77b4;" x="440.20101" xlink:href="#m04a3787882" y="355.525203"/>
     <use style="fill:#1f77b4;stroke:#1f77b4;" x="528.39899" xlink:href="#m04a3787882" y="387.417182"/>
     <use style="fill:#1f77b4;stroke:#1f77b4;" x="616.59697" xlink:href="#m04a3787882" y="407.670743"/>
     <use style="fill:#1f77b4;stroke:#1f77b4;" x="704.794949" xlink:href="#m04a3787882" y="412.286554"/>
     <use style="fill:#1f77b4;stroke:#1f77b4;" x="792.992929" xlink:href="#m04a3787882" y="417.505912"/>
     <use style="fill:#1f77b4;stroke:#1f77b4;" x="881.190909" xlink:href="#m04a3787882" y="423.655701"/>
    </g>
   </g>
   <g id="line2d_26">
    <path clip-path="url(#pd2db6824d2)" d="M 87.409091 363.922514 
L 175.607071 351.105031 
L 263.805051 347.293211 
L 352.00303 348.27707 
L 440.20101 350.910464 
L 528.39899 359.341884 
L 616.59697 370.968133 
L 704.794949 374.77647 
L 792.992929 379.261926 
L 881.190909 384.827574 
" style="fill:none;stroke:#ff7f0e;stroke-linecap:square;stroke-width:1.5;"/>
    <g clip-path="url(#pd2db6824d2)">
     <use style="fill:#ff7f0e;stroke:#ff7f0e;" x="87.409091" xlink:href="#mfc34db49af" y="363.922514"/>
     <use style="fill:#ff7f0e;stroke:#ff7f0e;" x="175.607071" xlink:href="#mfc34db49af" y="351.105031"/>
     <use style="fill:#ff7f0e;stroke:#ff7f0e;" x="263.805051" xlink:href="#mfc34db49af" y="347.293211"/>
     <use style="fill:#ff7f0e;stroke:#ff7f0e;" x="352.00303" xlink:href="#mfc34db49af" y="348.27707"/>
     <use style="fill:#ff7f0e;stroke:#ff7f0e;" x="440.20101" xlink:href="#mfc34db49af" y="350.910464"/>
     <use style="fill:#ff7f0e;stroke:#ff7f0e;" x="528.39899" xlink:href="#mfc34db49af" y="359.341884"/>
     <use style="fill:#ff7f0e;stroke:#ff7f0e;" x="616.59697" xlink:href="#mfc34db49af" y="370.968133"/>
     <use style="fill:#ff7f0e;stroke:#ff7f0e;" x="704.794949" xlink:href="#mfc34db49af" y="374.77647"/>
     <use style="fill:#ff7f0e;stroke:#ff7f0e;" x="792.992929" xlink:href="#mfc34db49af" y="379.261926"/>
     <use style="fill:#ff7f0e;stroke:#ff7f0e;" x="881.190909" xlink:href="#mfc34db49af" y="384.827574"/>
    </g>
   </g>
   <g id="patch_8">
    <path d="M 47.72 436.84 
L 47.72 261.24 
" style="fill:none;stroke:#000000;stroke-linecap:square;stroke-linejoin:miter;stroke-width:0.8;"/>
   </g>
   <g id="patch_9">
    <path d="M 920.88 436.84 
L 920.88 261.24 
" style="fill:none;stroke:#000000;stroke-linecap:square;stroke-linejoin:miter;stroke-width:0.8;"/>
   </g>
   <g id="patch_10">
    <path d="M 47.72 436.84 
L 920.88 436.84 
" style="fill:none;stroke:#000000;stroke-linecap:square;stroke-linejoin:miter;stroke-width:0.8;"/>
   </g>
   <g id="patch_11">
    <path d="M 47.72 261.24 
L 920.88 261.24 
" style="fill:none;stroke:#000000;stroke-linecap:square;stroke-linejoin:miter;stroke-width:0.8;"/>
   </g>
   <g id="text_28">
    <!-- Valeur de I(U,BMU) après apprentissage, estimation Kraskov, en fonction des paramètres -->
    <g transform="translate(216.634375 255.24)scale(0.12 -0.12)">
     <defs>
      <path d="M 9.8125 72.90625 
L 19.671875 72.90625 
L 19.671875 42.09375 
L 52.390625 72.90625 
L 65.09375 72.90625 
L 28.90625 38.921875 
L 67.671875 0 
L 54.6875 0 
L 19.671875 35.109375 
L 19.671875 0 
L 9.8125 0 
z
" id="DejaVuSans-75"/>
     </defs>
     <use xlink:href="#DejaVuSans-86"/>
     <use x="60.658203" xlink:href="#DejaVuSans-97"/>
     <use x="121.9375" xlink:href="#DejaVuSans-108"/>
     <use x="149.720703" xlink:href="#DejaVuSans-101"/>
     <use x="211.244141" xlink:href="#DejaVuSans-117"/>
     <use x="274.623047" xlink:href="#DejaVuSans-114"/>
     <use x="315.736328" xlink:href="#DejaVuSans-32"/>
     <use x="347.523438" xlink:href="#DejaVuSans-100"/>
     <use x="411" xlink:href="#DejaVuSans-101"/>
     <use x="472.523438" xlink:href="#DejaVuSans-32"/>
     <use x="504.310547" xlink:href="#DejaVuSans-73"/>
     <use x="533.802734" xlink:href="#DejaVuSans-40"/>
     <use x="572.816406" xlink:href="#DejaVuSans-85"/>
     <use x="646.009766" xlink:href="#DejaVuSans-44"/>
     <use x="677.796875" xlink:href="#DejaVuSans-66"/>
     <use x="746.400391" xlink:href="#DejaVuSans-77"/>
     <use x="832.679688" xlink:href="#DejaVuSans-85"/>
     <use x="905.873047" xlink:href="#DejaVuSans-41"/>
     <use x="944.886719" xlink:href="#DejaVuSans-32"/>
     <use x="976.673828" xlink:href="#DejaVuSans-97"/>
     <use x="1037.953125" xlink:href="#DejaVuSans-112"/>
     <use x="1101.429688" xlink:href="#DejaVuSans-114"/>
     <use x="1140.292969" xlink:href="#DejaVuSans-232"/>
     <use x="1201.816406" xlink:href="#DejaVuSans-115"/>
     <use x="1253.916016" xlink:href="#DejaVuSans-32"/>
     <use x="1285.703125" xlink:href="#DejaVuSans-97"/>
     <use x="1346.982422" xlink:href="#DejaVuSans-112"/>
     <use x="1410.458984" xlink:href="#DejaVuSans-112"/>
     <use x="1473.935547" xlink:href="#DejaVuSans-114"/>
     <use x="1512.798828" xlink:href="#DejaVuSans-101"/>
     <use x="1574.322266" xlink:href="#DejaVuSans-110"/>
     <use x="1637.701172" xlink:href="#DejaVuSans-116"/>
     <use x="1676.910156" xlink:href="#DejaVuSans-105"/>
     <use x="1704.693359" xlink:href="#DejaVuSans-115"/>
     <use x="1756.792969" xlink:href="#DejaVuSans-115"/>
     <use x="1808.892578" xlink:href="#DejaVuSans-97"/>
     <use x="1870.171875" xlink:href="#DejaVuSans-103"/>
     <use x="1933.648438" xlink:href="#DejaVuSans-101"/>
     <use x="1995.171875" xlink:href="#DejaVuSans-44"/>
     <use x="2026.958984" xlink:href="#DejaVuSans-32"/>
     <use x="2058.746094" xlink:href="#DejaVuSans-101"/>
     <use x="2120.269531" xlink:href="#DejaVuSans-115"/>
     <use x="2172.369141" xlink:href="#DejaVuSans-116"/>
     <use x="2211.578125" xlink:href="#DejaVuSans-105"/>
     <use x="2239.361328" xlink:href="#DejaVuSans-109"/>
     <use x="2336.773438" xlink:href="#DejaVuSans-97"/>
     <use x="2398.052734" xlink:href="#DejaVuSans-116"/>
     <use x="2437.261719" xlink:href="#DejaVuSans-105"/>
     <use x="2465.044922" xlink:href="#DejaVuSans-111"/>
     <use x="2526.226562" xlink:href="#DejaVuSans-110"/>
     <use x="2589.605469" xlink:href="#DejaVuSans-32"/>
     <use x="2621.392578" xlink:href="#DejaVuSans-75"/>
     <use x="2686.96875" xlink:href="#DejaVuSans-114"/>
     <use x="2728.082031" xlink:href="#DejaVuSans-97"/>
     <use x="2789.361328" xlink:href="#DejaVuSans-115"/>
     <use x="2841.460938" xlink:href="#DejaVuSans-107"/>
     <use x="2895.746094" xlink:href="#DejaVuSans-111"/>
     <use x="2956.927734" xlink:href="#DejaVuSans-118"/>
     <use x="3016.107422" xlink:href="#DejaVuSans-44"/>
     <use x="3047.894531" xlink:href="#DejaVuSans-32"/>
     <use x="3079.681641" xlink:href="#DejaVuSans-101"/>
     <use x="3141.205078" xlink:href="#DejaVuSans-110"/>
     <use x="3204.583984" xlink:href="#DejaVuSans-32"/>
     <use x="3236.371094" xlink:href="#DejaVuSans-102"/>
     <use x="3271.576172" xlink:href="#DejaVuSans-111"/>
     <use x="3332.757812" xlink:href="#DejaVuSans-110"/>
     <use x="3396.136719" xlink:href="#DejaVuSans-99"/>
     <use x="3451.117188" xlink:href="#DejaVuSans-116"/>
     <use x="3490.326172" xlink:href="#DejaVuSans-105"/>
     <use x="3518.109375" xlink:href="#DejaVuSans-111"/>
     <use x="3579.291016" xlink:href="#DejaVuSans-110"/>
     <use x="3642.669922" xlink:href="#DejaVuSans-32"/>
     <use x="3674.457031" xlink:href="#DejaVuSans-100"/>
     <use x="3737.933594" xlink:href="#DejaVuSans-101"/>
     <use x="3799.457031" xlink:href="#DejaVuSans-115"/>
     <use x="3851.556641" xlink:href="#DejaVuSans-32"/>
     <use x="3883.34375" xlink:href="#DejaVuSans-112"/>
     <use x="3946.820312" xlink:href="#DejaVuSans-97"/>
     <use x="4008.099609" xlink:href="#DejaVuSans-114"/>
     <use x="4049.212891" xlink:href="#DejaVuSans-97"/>
     <use x="4110.492188" xlink:href="#DejaVuSans-109"/>
     <use x="4207.904297" xlink:href="#DejaVuSans-232"/>
     <use x="4269.427734" xlink:href="#DejaVuSans-116"/>
     <use x="4308.636719" xlink:href="#DejaVuSans-114"/>
     <use x="4347.5" xlink:href="#DejaVuSans-101"/>
     <use x="4409.023438" xlink:href="#DejaVuSans-115"/>
    </g>
   </g>
   <g id="legend_1">
    <g id="patch_12">
     <path d="M 845.19875 298.59625 
L 913.88 298.59625 
Q 915.88 298.59625 915.88 296.59625 
L 915.88 268.24 
Q 915.88 266.24 913.88 266.24 
L 845.19875 266.24 
Q 843.19875 266.24 843.19875 268.24 
L 843.19875 296.59625 
Q 843.19875 298.59625 845.19875 298.59625 
z
" style="fill:#ffffff;opacity:0.8;stroke:#cccccc;stroke-linejoin:miter;"/>
    </g>
    <g id="LineCollection_5">
     <path d="M 857.19875 279.338438 
L 857.19875 269.338438 
" style="fill:none;stroke:#1f77b4;stroke-width:1.5;"/>
    </g>
    <g id="line2d_27">
     <path d="M 847.19875 274.338438 
L 867.19875 274.338438 
" style="fill:none;stroke:#1f77b4;stroke-linecap:square;stroke-width:1.5;"/>
    </g>
    <g id="line2d_28">
     <g>
      <use style="fill:#1f77b4;stroke:#1f77b4;" x="857.19875" xlink:href="#m04a3787882" y="274.338438"/>
     </g>
    </g>
    <g id="text_29">
     <!-- CXSOM -->
     <g transform="translate(875.19875 277.838438)scale(0.1 -0.1)">
      <defs>
       <path d="M 64.40625 67.28125 
L 64.40625 56.890625 
Q 59.421875 61.53125 53.78125 63.8125 
Q 48.140625 66.109375 41.796875 66.109375 
Q 29.296875 66.109375 22.65625 58.46875 
Q 16.015625 50.828125 16.015625 36.375 
Q 16.015625 21.96875 22.65625 14.328125 
Q 29.296875 6.6875 41.796875 6.6875 
Q 48.140625 6.6875 53.78125 8.984375 
Q 59.421875 11.28125 64.40625 15.921875 
L 64.40625 5.609375 
Q 59.234375 2.09375 53.4375 0.328125 
Q 47.65625 -1.421875 41.21875 -1.421875 
Q 24.65625 -1.421875 15.125 8.703125 
Q 5.609375 18.84375 5.609375 36.375 
Q 5.609375 53.953125 15.125 64.078125 
Q 24.65625 74.21875 41.21875 74.21875 
Q 47.75 74.21875 53.53125 72.484375 
Q 59.328125 70.75 64.40625 67.28125 
z
" id="DejaVuSans-67"/>
       <path d="M 6.296875 72.90625 
L 16.890625 72.90625 
L 35.015625 45.796875 
L 53.21875 72.90625 
L 63.8125 72.90625 
L 40.375 37.890625 
L 65.375 0 
L 54.78125 0 
L 34.28125 31 
L 13.625 0 
L 2.984375 0 
L 29 38.921875 
z
" id="DejaVuSans-88"/>
       <path d="M 53.515625 70.515625 
L 53.515625 60.890625 
Q 47.90625 63.578125 42.921875 64.890625 
Q 37.9375 66.21875 33.296875 66.21875 
Q 25.25 66.21875 20.875 63.09375 
Q 16.5 59.96875 16.5 54.203125 
Q 16.5 49.359375 19.40625 46.890625 
Q 22.3125 44.4375 30.421875 42.921875 
L 36.375 41.703125 
Q 47.40625 39.59375 52.65625 34.296875 
Q 57.90625 29 57.90625 20.125 
Q 57.90625 9.515625 50.796875 4.046875 
Q 43.703125 -1.421875 29.984375 -1.421875 
Q 24.8125 -1.421875 18.96875 -0.25 
Q 13.140625 0.921875 6.890625 3.21875 
L 6.890625 13.375 
Q 12.890625 10.015625 18.65625 8.296875 
Q 24.421875 6.59375 29.984375 6.59375 
Q 38.421875 6.59375 43.015625 9.90625 
Q 47.609375 13.234375 47.609375 19.390625 
Q 47.609375 24.75 44.3125 27.78125 
Q 41.015625 30.8125 33.5 32.328125 
L 27.484375 33.5 
Q 16.453125 35.6875 11.515625 40.375 
Q 6.59375 45.0625 6.59375 53.421875 
Q 6.59375 63.09375 13.40625 68.65625 
Q 20.21875 74.21875 32.171875 74.21875 
Q 37.3125 74.21875 42.625 73.28125 
Q 47.953125 72.359375 53.515625 70.515625 
z
" id="DejaVuSans-83"/>
       <path d="M 39.40625 66.21875 
Q 28.65625 66.21875 22.328125 58.203125 
Q 16.015625 50.203125 16.015625 36.375 
Q 16.015625 22.609375 22.328125 14.59375 
Q 28.65625 6.59375 39.40625 6.59375 
Q 50.140625 6.59375 56.421875 14.59375 
Q 62.703125 22.609375 62.703125 36.375 
Q 62.703125 50.203125 56.421875 58.203125 
Q 50.140625 66.21875 39.40625 66.21875 
z
M 39.40625 74.21875 
Q 54.734375 74.21875 63.90625 63.9375 
Q 73.09375 53.65625 73.09375 36.375 
Q 73.09375 19.140625 63.90625 8.859375 
Q 54.734375 -1.421875 39.40625 -1.421875 
Q 24.03125 -1.421875 14.8125 8.828125 
Q 5.609375 19.09375 5.609375 36.375 
Q 5.609375 53.65625 14.8125 63.9375 
Q 24.03125 74.21875 39.40625 74.21875 
z
" id="DejaVuSans-79"/>
      </defs>
      <use xlink:href="#DejaVuSans-67"/>
      <use x="69.824219" xlink:href="#DejaVuSans-88"/>
      <use x="138.330078" xlink:href="#DejaVuSans-83"/>
      <use x="201.806641" xlink:href="#DejaVuSans-79"/>
      <use x="280.517578" xlink:href="#DejaVuSans-77"/>
     </g>
    </g>
    <g id="LineCollection_6">
     <path d="M 857.19875 294.016563 
L 857.19875 284.016563 
" style="fill:none;stroke:#ff7f0e;stroke-width:1.5;"/>
    </g>
    <g id="line2d_29">
     <path d="M 847.19875 289.016563 
L 867.19875 289.016563 
" style="fill:none;stroke:#ff7f0e;stroke-linecap:square;stroke-width:1.5;"/>
    </g>
    <g id="line2d_30">
     <g>
      <use style="fill:#ff7f0e;stroke:#ff7f0e;" x="857.19875" xlink:href="#mfc34db49af" y="289.016563"/>
     </g>
    </g>
    <g id="text_30">
     <!-- Simple -->
     <g transform="translate(875.19875 292.516563)scale(0.1 -0.1)">
      <use xlink:href="#DejaVuSans-83"/>
      <use x="63.476562" xlink:href="#DejaVuSans-105"/>
      <use x="91.259766" xlink:href="#DejaVuSans-109"/>
      <use x="188.671875" xlink:href="#DejaVuSans-112"/>
      <use x="252.148438" xlink:href="#DejaVuSans-108"/>
      <use x="279.931641" xlink:href="#DejaVuSans-101"/>
     </g>
    </g>
   </g>
  </g>
 </g>
 <defs>
  <clipPath id="p26e1398f08">
   <rect height="175.6" width="873.16" x="47.72" y="27.24"/>
  </clipPath>
  <clipPath id="pd2db6824d2">
   <rect height="175.6" width="873.16" x="47.72" y="261.24"/>
  </clipPath>
 </defs>
</svg>
