<?xml version="1.0" encoding="utf-8" standalone="no"?>
<!DOCTYPE svg PUBLIC "-//W3C//DTD SVG 1.1//EN"
  "http://www.w3.org/Graphics/SVG/1.1/DTD/svg11.dtd">
<!-- Created with matplotlib (https://matplotlib.org/) -->
<svg height="577.44pt" version="1.1" viewBox="0 0 894.24 577.44" width="894.24pt" xmlns="http://www.w3.org/2000/svg" xmlns:xlink="http://www.w3.org/1999/xlink">
 <metadata>
  <rdf:RDF xmlns:cc="http://creativecommons.org/ns#" xmlns:dc="http://purl.org/dc/elements/1.1/" xmlns:rdf="http://www.w3.org/1999/02/22-rdf-syntax-ns#">
   <cc:Work>
    <dc:type rdf:resource="http://purl.org/dc/dcmitype/StillImage"/>
    <dc:date>2022-10-25T16:02:10.315788</dc:date>
    <dc:format>image/svg+xml</dc:format>
    <dc:creator>
     <cc:Agent>
      <dc:title>Matplotlib v3.3.4, https://matplotlib.org/</dc:title>
     </cc:Agent>
    </dc:creator>
   </cc:Work>
  </rdf:RDF>
 </metadata>
 <defs>
  <style type="text/css">*{stroke-linecap:butt;stroke-linejoin:round;}</style>
 </defs>
 <g id="figure_1">
  <g id="patch_1">
   <path d="M 0 577.44 
L 894.24 577.44 
L 894.24 0 
L 0 0 
z
" style="fill:#ffffff;"/>
  </g>
  <g id="axes_1">
   <g id="patch_2">
    <path d="M 44.223522 258.910936 
L 876.96 258.910936 
L 876.96 17.28 
L 44.223522 17.28 
z
" style="fill:#ffffff;"/>
   </g>
   <g id="PolyCollection_1">
    <defs>
     <path d="M 82.07518 -537.270348 
L 82.07518 -505.799388 
L 101.486287 -486.101859 
L 120.897394 -495.405484 
L 140.308501 -492.840881 
L 159.719607 -474.623446 
L 179.130714 -468.645149 
L 198.541821 -475.322873 
L 217.952927 -466.406969 
L 237.364034 -462.05448 
L 256.775141 -473.912201 
L 276.186247 -480.637552 
L 295.597354 -480.876268 
L 315.008461 -475.093081 
L 334.419568 -476.612567 
L 353.830674 -482.200952 
L 373.241781 -483.903494 
L 392.652888 -485.187048 
L 412.063994 -484.712945 
L 431.475101 -482.046303 
L 450.886208 -481.894537 
L 470.297315 -483.255115 
L 489.708421 -486.561629 
L 509.119528 -484.149905 
L 528.530635 -490.134675 
L 547.941741 -487.157994 
L 567.352848 -491.390938 
L 586.763955 -491.574781 
L 606.175061 -488.163569 
L 625.586168 -492.799537 
L 644.997275 -488.70587 
L 664.408382 -491.54065 
L 683.819488 -486.189166 
L 703.230595 -488.143927 
L 722.641702 -488.703192 
L 742.052808 -488.28467 
L 761.463915 -489.063221 
L 780.875022 -490.951409 
L 800.286129 -495.483375 
L 819.697235 -493.452199 
L 839.108342 -493.807434 
L 839.108342 -523.314778 
L 839.108342 -523.314778 
L 819.697235 -521.923454 
L 800.286129 -524.70328 
L 780.875022 -523.490014 
L 761.463915 -522.985359 
L 742.052808 -522.175022 
L 722.641702 -521.093915 
L 703.230595 -519.559151 
L 683.819488 -521.619768 
L 664.408382 -518.87552 
L 644.997275 -516.799704 
L 625.586168 -518.256542 
L 606.175061 -519.443076 
L 586.763955 -522.533086 
L 567.352848 -519.196708 
L 547.941741 -519.28303 
L 528.530635 -516.081985 
L 509.119528 -517.203884 
L 489.708421 -514.417237 
L 470.297315 -512.204483 
L 450.886208 -509.945874 
L 431.475101 -512.65306 
L 412.063994 -512.483281 
L 392.652888 -515.763663 
L 373.241781 -513.850634 
L 353.830674 -514.515312 
L 334.419568 -511.233704 
L 315.008461 -509.423669 
L 295.597354 -508.220624 
L 276.186247 -503.745909 
L 256.775141 -501.707957 
L 237.364034 -495.873861 
L 217.952927 -495.411193 
L 198.541821 -500.822526 
L 179.130714 -507.799988 
L 159.719607 -523.255699 
L 140.308501 -541.594009 
L 120.897394 -549.176776 
L 101.486287 -542.567574 
L 82.07518 -537.270348 
z
" id="m6e6cb3e181" style="stroke:#0000ff;stroke-opacity:0.5;"/>
    </defs>
    <g clip-path="url(#p4cf8531660)">
     <use style="fill:#0000ff;fill-opacity:0.5;stroke:#0000ff;stroke-opacity:0.5;" x="0" xlink:href="#m6e6cb3e181" y="577.44"/>
    </g>
   </g>
   <g id="PolyCollection_2">
    <defs>
     <path d="M 82.07518 -353.799434 
L 82.07518 -329.512289 
L 101.486287 -332.961416 
L 120.897394 -337.428594 
L 140.308501 -335.01313 
L 159.719607 -339.745782 
L 179.130714 -342.982602 
L 198.541821 -343.78854 
L 217.952927 -339.042386 
L 237.364034 -344.768629 
L 256.775141 -345.720333 
L 276.186247 -348.454846 
L 295.597354 -351.243516 
L 315.008461 -353.493402 
L 334.419568 -350.665542 
L 353.830674 -354.26744 
L 373.241781 -355.081045 
L 392.652888 -354.397202 
L 412.063994 -355.681088 
L 431.475101 -357.350869 
L 450.886208 -359.873668 
L 470.297315 -358.609091 
L 489.708421 -357.822864 
L 509.119528 -360.278185 
L 528.530635 -363.389546 
L 547.941741 -361.293197 
L 567.352848 -362.090741 
L 586.763955 -360.50274 
L 606.175061 -363.084154 
L 625.586168 -364.482618 
L 644.997275 -364.470205 
L 664.408382 -365.084084 
L 683.819488 -365.975205 
L 703.230595 -367.700652 
L 722.641702 -366.968768 
L 742.052808 -365.48817 
L 761.463915 -366.543075 
L 780.875022 -366.994184 
L 800.286129 -368.239018 
L 819.697235 -365.003403 
L 839.108342 -368.400484 
L 839.108342 -378.820965 
L 839.108342 -378.820965 
L 819.697235 -375.113227 
L 800.286129 -380.574906 
L 780.875022 -377.730277 
L 761.463915 -378.160131 
L 742.052808 -377.446612 
L 722.641702 -378.808713 
L 703.230595 -381.687093 
L 683.819488 -382.316217 
L 664.408382 -379.042068 
L 644.997275 -376.910484 
L 625.586168 -373.47432 
L 606.175061 -376.21827 
L 586.763955 -376.954496 
L 567.352848 -379.621493 
L 547.941741 -379.956001 
L 528.530635 -381.999143 
L 509.119528 -377.794262 
L 489.708421 -374.590035 
L 470.297315 -372.138301 
L 450.886208 -378.95181 
L 431.475101 -375.927798 
L 412.063994 -378.488248 
L 392.652888 -379.328019 
L 373.241781 -383.335621 
L 353.830674 -380.393843 
L 334.419568 -375.686912 
L 315.008461 -375.957683 
L 295.597354 -371.767053 
L 276.186247 -369.292785 
L 256.775141 -363.105105 
L 237.364034 -357.827065 
L 217.952927 -362.165696 
L 198.541821 -357.186188 
L 179.130714 -352.68948 
L 159.719607 -359.126924 
L 140.308501 -363.324271 
L 120.897394 -352.161908 
L 101.486287 -362.926191 
L 82.07518 -353.799434 
z
" id="m67e2002e31" style="stroke:#008000;stroke-opacity:0.5;"/>
    </defs>
    <g clip-path="url(#p4cf8531660)">
     <use style="fill:#008000;fill-opacity:0.5;stroke:#008000;stroke-opacity:0.5;" x="0" xlink:href="#m67e2002e31" y="577.44"/>
    </g>
   </g>
   <g id="matplotlib.axis_1">
    <g id="xtick_1">
     <g id="line2d_1">
      <defs>
       <path d="M 0 0 
L 0 3.5 
" id="mff9190cdae" style="stroke:#000000;stroke-width:0.8;"/>
      </defs>
      <g>
       <use style="stroke:#000000;stroke-width:0.8;" x="82.07518" xlink:href="#mff9190cdae" y="258.910936"/>
      </g>
     </g>
     <g id="text_1">
      <!-- $\mathdefault{0}$ -->
      <g transform="translate(78.173187 276.980524)scale(0.16 -0.16)">
       <defs>
        <path d="M 42 31.640625 
C 42 37.75 41.90625 48.125 37.703125 56.109375 
C 34 63.109375 28.09375 65.59375 22.90625 65.59375 
C 18.09375 65.59375 12 63.40625 8.203125 56.203125 
C 4.203125 48.71875 3.796875 39.4375 3.796875 31.640625 
C 3.796875 25.953125 3.90625 17.28125 7 9.671875 
C 11.296875 -0.609375 19 -2 22.90625 -2 
C 27.5 -2 34.5 -0.109375 38.59375 9.375 
C 41.59375 16.28125 42 24.359375 42 31.640625 
z
M 22.90625 -0.40625 
C 16.5 -0.40625 12.703125 5.078125 11.296875 12.6875 
C 10.203125 18.5625 10.203125 27.15625 10.203125 32.75 
C 10.203125 40.4375 10.203125 46.828125 11.5 52.921875 
C 13.40625 61.390625 19 64 22.90625 64 
C 27 64 32.296875 61.296875 34.203125 53.125 
C 35.5 47.4375 35.59375 40.734375 35.59375 32.75 
C 35.59375 26.25 35.59375 18.265625 34.40625 12.375 
C 32.296875 1.484375 26.40625 -0.40625 22.90625 -0.40625 
z
" id="CMR17-48"/>
       </defs>
       <use transform="scale(0.996264)" xlink:href="#CMR17-48"/>
      </g>
     </g>
    </g>
    <g id="xtick_2">
     <g id="line2d_2">
      <g>
       <use style="stroke:#000000;stroke-width:0.8;" x="179.130714" xlink:href="#mff9190cdae" y="258.910936"/>
      </g>
     </g>
     <g id="text_2">
      <!-- $\mathdefault{25}$ -->
      <g transform="translate(171.326727 276.980524)scale(0.16 -0.16)">
       <defs>
        <path d="M 41.703125 15.453125 
L 39.90625 15.453125 
C 38.90625 8.375 38.09375 7.171875 37.703125 6.5625 
C 37.203125 5.765625 30 5.765625 28.59375 5.765625 
L 9.40625 5.765625 
C 13 9.671875 20 16.75 28.5 24.953125 
C 34.59375 30.734375 41.703125 37.53125 41.703125 47.421875 
C 41.703125 59.21875 32.296875 66 21.796875 66 
C 10.796875 66 4.09375 56.3125 4.09375 47.34375 
C 4.09375 43.4375 7 42.9375 8.203125 42.9375 
C 9.203125 42.9375 12.203125 43.546875 12.203125 47.03125 
C 12.203125 50.109375 9.59375 51 8.203125 51 
C 7.59375 51 7 50.90625 6.59375 50.703125 
C 8.5 59.21875 14.296875 63.40625 20.40625 63.40625 
C 29.09375 63.40625 34.796875 56.515625 34.796875 47.421875 
C 34.796875 38.734375 29.703125 31.25 24 24.75 
L 4.09375 2.28125 
L 4.09375 0 
L 39.296875 0 
z
" id="CMR17-50"/>
        <path d="M 11.40625 57.6875 
C 12.40625 57.28125 16.5 56 20.703125 56 
C 30 56 35.09375 61.109375 38 64.0625 
C 38 64.953125 38 65.5 37.40625 65.5 
C 37.296875 65.5 37.09375 65.5 36.296875 65.046875 
C 32.796875 63.40625 28.703125 62.078125 23.703125 62.078125 
C 20.703125 62.078125 16.203125 62.484375 11.296875 64.671875 
C 10.203125 65.171875 10 65.171875 9.90625 65.171875 
C 9.40625 65.171875 9.296875 65.0625 9.296875 63.078125 
L 9.296875 34.421875 
C 9.296875 32.640625 9.296875 32.140625 10.296875 32.140625 
C 10.796875 32.140625 11 32.34375 11.5 33.03125 
C 14.703125 37.515625 19.09375 39.40625 24.09375 39.40625 
C 27.59375 39.40625 35.09375 37.21875 35.09375 20.140625 
C 35.09375 16.953125 35.09375 11.171875 32.09375 6.578125 
C 29.59375 2.484375 25.703125 0.390625 21.40625 0.390625 
C 14.796875 0.390625 8.09375 5 6.296875 12.71875 
C 6.703125 12.609375 7.5 12.421875 7.90625 12.421875 
C 9.203125 12.421875 11.703125 13.125 11.703125 16.21875 
C 11.703125 18.90625 9.796875 20 7.90625 20 
C 5.59375 20 4.09375 18.59375 4.09375 15.796875 
C 4.09375 7.09375 11 -2 21.59375 -2 
C 31.90625 -2 41.703125 6.875 41.703125 19.75 
C 41.703125 31.71875 33.90625 41 24.203125 41 
C 19.09375 41 14.796875 39.109375 11.40625 35.53125 
z
" id="CMR17-53"/>
       </defs>
       <use transform="scale(0.996264)" xlink:href="#CMR17-50"/>
       <use transform="translate(45.690477 0)scale(0.996264)" xlink:href="#CMR17-53"/>
      </g>
     </g>
    </g>
    <g id="xtick_3">
     <g id="line2d_3">
      <g>
       <use style="stroke:#000000;stroke-width:0.8;" x="276.186247" xlink:href="#mff9190cdae" y="258.910936"/>
      </g>
     </g>
     <g id="text_3">
      <!-- $\mathdefault{50}$ -->
      <g transform="translate(268.38226 276.980524)scale(0.16 -0.16)">
       <use transform="scale(0.996264)" xlink:href="#CMR17-53"/>
       <use transform="translate(45.690477 0)scale(0.996264)" xlink:href="#CMR17-48"/>
      </g>
     </g>
    </g>
    <g id="xtick_4">
     <g id="line2d_4">
      <g>
       <use style="stroke:#000000;stroke-width:0.8;" x="373.241781" xlink:href="#mff9190cdae" y="258.910936"/>
      </g>
     </g>
     <g id="text_4">
      <!-- $\mathdefault{75}$ -->
      <g transform="translate(365.437794 276.980524)scale(0.16 -0.16)">
       <defs>
        <path d="M 45.09375 61.578125 
L 45.09375 63.765625 
L 21.59375 63.765625 
C 9.90625 63.765625 9.703125 65.078125 9.296875 67 
L 7.5 67 
L 4.59375 48.34375 
L 6.40625 48.34375 
C 6.703125 50.234375 7.40625 55.3125 8.59375 57.203125 
C 9.203125 58 16.59375 58 18.296875 58 
L 40.296875 58 
L 29.203125 41.578125 
C 21.796875 30.53125 16.703125 15.609375 16.703125 2.578125 
C 16.703125 1.390625 16.703125 -2 20.296875 -2 
C 23.90625 -2 23.90625 1.390625 23.90625 2.671875 
L 23.90625 7.265625 
C 23.90625 23.5625 26.703125 34.3125 31.296875 41.1875 
z
" id="CMR17-55"/>
       </defs>
       <use transform="scale(0.996264)" xlink:href="#CMR17-55"/>
       <use transform="translate(45.690477 0)scale(0.996264)" xlink:href="#CMR17-53"/>
      </g>
     </g>
    </g>
    <g id="xtick_5">
     <g id="line2d_5">
      <g>
       <use style="stroke:#000000;stroke-width:0.8;" x="470.297315" xlink:href="#mff9190cdae" y="258.910936"/>
      </g>
     </g>
     <g id="text_5">
      <!-- $\mathdefault{100}$ -->
      <g transform="translate(458.591334 276.980524)scale(0.16 -0.16)">
       <defs>
        <path d="M 26.59375 63.40625 
C 26.59375 65.5 26.5 65.5 25.09375 65.5 
C 21.203125 61.1875 15.296875 59.796875 9.703125 59.796875 
C 9.40625 59.796875 8.90625 59.796875 8.796875 59.5 
C 8.703125 59.296875 8.703125 59.09375 8.703125 57 
C 11.796875 57 17 57.59375 21 59.984375 
L 21 7.203125 
C 21 3.6875 20.796875 2.5 12.203125 2.5 
L 9.203125 2.5 
L 9.203125 0 
C 14 0 19 0 23.796875 0 
C 28.59375 0 33.59375 0 38.40625 0 
L 38.40625 2.5 
L 35.40625 2.5 
C 26.796875 2.5 26.59375 3.59375 26.59375 7.15625 
z
" id="CMR17-49"/>
       </defs>
       <use transform="scale(0.996264)" xlink:href="#CMR17-49"/>
       <use transform="translate(45.690477 0)scale(0.996264)" xlink:href="#CMR17-48"/>
       <use transform="translate(91.380954 0)scale(0.996264)" xlink:href="#CMR17-48"/>
      </g>
     </g>
    </g>
    <g id="xtick_6">
     <g id="line2d_6">
      <g>
       <use style="stroke:#000000;stroke-width:0.8;" x="567.352848" xlink:href="#mff9190cdae" y="258.910936"/>
      </g>
     </g>
     <g id="text_6">
      <!-- $\mathdefault{125}$ -->
      <g transform="translate(555.646868 276.980524)scale(0.16 -0.16)">
       <use transform="scale(0.996264)" xlink:href="#CMR17-49"/>
       <use transform="translate(45.690477 0)scale(0.996264)" xlink:href="#CMR17-50"/>
       <use transform="translate(91.380954 0)scale(0.996264)" xlink:href="#CMR17-53"/>
      </g>
     </g>
    </g>
    <g id="xtick_7">
     <g id="line2d_7">
      <g>
       <use style="stroke:#000000;stroke-width:0.8;" x="664.408382" xlink:href="#mff9190cdae" y="258.910936"/>
      </g>
     </g>
     <g id="text_7">
      <!-- $\mathdefault{150}$ -->
      <g transform="translate(652.702401 276.980524)scale(0.16 -0.16)">
       <use transform="scale(0.996264)" xlink:href="#CMR17-49"/>
       <use transform="translate(45.690477 0)scale(0.996264)" xlink:href="#CMR17-53"/>
       <use transform="translate(91.380954 0)scale(0.996264)" xlink:href="#CMR17-48"/>
      </g>
     </g>
    </g>
    <g id="xtick_8">
     <g id="line2d_8">
      <g>
       <use style="stroke:#000000;stroke-width:0.8;" x="761.463915" xlink:href="#mff9190cdae" y="258.910936"/>
      </g>
     </g>
     <g id="text_8">
      <!-- $\mathdefault{175}$ -->
      <g transform="translate(749.757935 276.980524)scale(0.16 -0.16)">
       <use transform="scale(0.996264)" xlink:href="#CMR17-49"/>
       <use transform="translate(45.690477 0)scale(0.996264)" xlink:href="#CMR17-55"/>
       <use transform="translate(91.380954 0)scale(0.996264)" xlink:href="#CMR17-53"/>
      </g>
     </g>
    </g>
    <g id="xtick_9">
     <g id="line2d_9">
      <g>
       <use style="stroke:#000000;stroke-width:0.8;" x="858.519449" xlink:href="#mff9190cdae" y="258.910936"/>
      </g>
     </g>
     <g id="text_9">
      <!-- $\mathdefault{200}$ -->
      <g transform="translate(846.813468 276.980524)scale(0.16 -0.16)">
       <use transform="scale(0.996264)" xlink:href="#CMR17-50"/>
       <use transform="translate(45.690477 0)scale(0.996264)" xlink:href="#CMR17-48"/>
       <use transform="translate(91.380954 0)scale(0.996264)" xlink:href="#CMR17-48"/>
      </g>
     </g>
    </g>
   </g>
   <g id="matplotlib.axis_2">
    <g id="ytick_1">
     <g id="line2d_10">
      <defs>
       <path d="M 0 0 
L -3.5 0 
" id="mdc68524e3d" style="stroke:#000000;stroke-width:0.8;"/>
      </defs>
      <g>
       <use style="stroke:#000000;stroke-width:0.8;" x="44.223522" xlink:href="#mdc68524e3d" y="256.158248"/>
      </g>
     </g>
     <g id="text_10">
      <!-- $\mathdefault{0.0}$ -->
      <g transform="translate(17.28 261.693042)scale(0.16 -0.16)">
       <defs>
        <path d="M 18.40625 4.796875 
C 18.40625 7.6875 16 9.671875 13.59375 9.671875 
C 10.703125 9.671875 8.703125 7.28125 8.703125 4.890625 
C 8.703125 2 11.09375 0 13.5 0 
C 16.40625 0 18.40625 2.390625 18.40625 4.796875 
z
" id="CMMI12-58"/>
       </defs>
       <use transform="scale(0.996264)" xlink:href="#CMR17-48"/>
       <use transform="translate(45.690477 0)scale(0.996264)" xlink:href="#CMMI12-58"/>
       <use transform="translate(72.787654 0)scale(0.996264)" xlink:href="#CMR17-48"/>
      </g>
     </g>
    </g>
    <g id="ytick_2">
     <g id="line2d_11">
      <g>
       <use style="stroke:#000000;stroke-width:0.8;" x="44.223522" xlink:href="#mdc68524e3d" y="211.493995"/>
      </g>
     </g>
     <g id="text_11">
      <!-- $\mathdefault{0.2}$ -->
      <g transform="translate(17.28 217.028789)scale(0.16 -0.16)">
       <use transform="scale(0.996264)" xlink:href="#CMR17-48"/>
       <use transform="translate(45.690477 0)scale(0.996264)" xlink:href="#CMMI12-58"/>
       <use transform="translate(72.787654 0)scale(0.996264)" xlink:href="#CMR17-50"/>
      </g>
     </g>
    </g>
    <g id="ytick_3">
     <g id="line2d_12">
      <g>
       <use style="stroke:#000000;stroke-width:0.8;" x="44.223522" xlink:href="#mdc68524e3d" y="166.829743"/>
      </g>
     </g>
     <g id="text_12">
      <!-- $\mathdefault{0.4}$ -->
      <g transform="translate(17.28 172.364537)scale(0.16 -0.16)">
       <defs>
        <path d="M 33.59375 64.40625 
C 33.59375 66.5 33.5 66.5 31.703125 66.5 
L 2 19.59375 
L 2 17 
L 27.796875 17 
L 27.796875 7.140625 
C 27.796875 3.5 27.59375 2.5 20.59375 2.5 
L 18.703125 2.5 
L 18.703125 0 
C 21.90625 0 27.296875 0 30.703125 0 
C 34.09375 0 39.5 0 42.703125 0 
L 42.703125 2.5 
L 40.796875 2.5 
C 33.796875 2.5 33.59375 3.5 33.59375 7.140625 
L 33.59375 17 
L 43.796875 17 
L 43.796875 19.59375 
L 33.59375 19.59375 
z
M 28.09375 57.859375 
L 28.09375 19.59375 
L 4 19.59375 
z
" id="CMR17-52"/>
       </defs>
       <use transform="scale(0.996264)" xlink:href="#CMR17-48"/>
       <use transform="translate(45.690477 0)scale(0.996264)" xlink:href="#CMMI12-58"/>
       <use transform="translate(72.787654 0)scale(0.996264)" xlink:href="#CMR17-52"/>
      </g>
     </g>
    </g>
    <g id="ytick_4">
     <g id="line2d_13">
      <g>
       <use style="stroke:#000000;stroke-width:0.8;" x="44.223522" xlink:href="#mdc68524e3d" y="122.165491"/>
      </g>
     </g>
     <g id="text_13">
      <!-- $\mathdefault{0.6}$ -->
      <g transform="translate(17.28 127.700285)scale(0.16 -0.16)">
       <defs>
        <path d="M 10.59375 34 
C 10.59375 57.65625 21.796875 63 28.296875 63 
C 30.40625 63 35.5 62.640625 37.5 59 
C 35.90625 59 32.90625 59 32.90625 55.515625 
C 32.90625 52.828125 35.09375 51.921875 36.5 51.921875 
C 37.40625 51.921875 40.09375 52.3125 40.09375 55.625 
C 40.09375 61.78125 35.09375 65.296875 28.203125 65.296875 
C 16.296875 65.296875 3.796875 52.96875 3.796875 31 
C 3.796875 3.953125 15.09375 -2 23.09375 -2 
C 32.796875 -2 42 6.671875 42 20.046875 
C 42 32.515625 33.90625 41.59375 23.703125 41.59375 
C 17.59375 41.59375 13.09375 37.609375 10.59375 30.625 
z
M 23.09375 0.390625 
C 10.796875 0.390625 10.796875 18.75 10.796875 22.4375 
C 10.796875 29.625 14.203125 40 23.5 40 
C 25.203125 40 30.09375 40 33.40625 33.125 
C 35.203125 29.21875 35.203125 25.140625 35.203125 20.140625 
C 35.203125 14.75 35.203125 10.78125 33.09375 6.78125 
C 30.90625 2.671875 27.703125 0.390625 23.09375 0.390625 
z
" id="CMR17-54"/>
       </defs>
       <use transform="scale(0.996264)" xlink:href="#CMR17-48"/>
       <use transform="translate(45.690477 0)scale(0.996264)" xlink:href="#CMMI12-58"/>
       <use transform="translate(72.787654 0)scale(0.996264)" xlink:href="#CMR17-54"/>
      </g>
     </g>
    </g>
    <g id="ytick_5">
     <g id="line2d_14">
      <g>
       <use style="stroke:#000000;stroke-width:0.8;" x="44.223522" xlink:href="#mdc68524e3d" y="77.501238"/>
      </g>
     </g>
     <g id="text_14">
      <!-- $\mathdefault{0.8}$ -->
      <g transform="translate(17.28 83.036033)scale(0.16 -0.16)">
       <defs>
        <path d="M 27.203125 35.375 
C 33.5 38.546875 39.90625 43.328125 39.90625 50.984375 
C 39.90625 60.015625 31.09375 65.296875 23 65.296875 
C 13.90625 65.296875 5.90625 58.734375 5.90625 49.6875 
C 5.90625 47.203125 6.5 42.921875 10.40625 39.140625 
C 11.40625 38.15625 15.59375 35.171875 18.296875 33.28125 
C 13.796875 30.984375 3.296875 25.53125 3.296875 14.59375 
C 3.296875 4.359375 13.09375 -2 22.796875 -2 
C 33.5 -2 42.5 5.65625 42.5 15.78125 
C 42.5 24.84375 36.40625 29.015625 32.40625 31.703125 
z
M 14.09375 44.09375 
C 13.296875 44.59375 9.296875 47.671875 9.296875 52.359375 
C 9.296875 58.421875 15.59375 63 22.796875 63 
C 30.703125 63 36.5 57.4375 36.5 50.96875 
C 36.5 41.703125 26.09375 36.421875 25.59375 36.421875 
C 25.5 36.421875 25.40625 36.421875 24.59375 37.03125 
z
M 32.5 23.734375 
C 34 22.640625 38.796875 19.375 38.796875 13.296875 
C 38.796875 5.953125 31.40625 0.390625 23 0.390625 
C 13.90625 0.390625 7 6.84375 7 14.6875 
C 7 22.546875 13.09375 29.09375 20 32.1875 
z
" id="CMR17-56"/>
       </defs>
       <use transform="scale(0.996264)" xlink:href="#CMR17-48"/>
       <use transform="translate(45.690477 0)scale(0.996264)" xlink:href="#CMMI12-58"/>
       <use transform="translate(72.787654 0)scale(0.996264)" xlink:href="#CMR17-56"/>
      </g>
     </g>
    </g>
    <g id="ytick_6">
     <g id="line2d_15">
      <g>
       <use style="stroke:#000000;stroke-width:0.8;" x="44.223522" xlink:href="#mdc68524e3d" y="32.836986"/>
      </g>
     </g>
     <g id="text_15">
      <!-- $\mathdefault{1.0}$ -->
      <g transform="translate(17.28 38.37178)scale(0.16 -0.16)">
       <use transform="scale(0.996264)" xlink:href="#CMR17-49"/>
       <use transform="translate(45.690477 0)scale(0.996264)" xlink:href="#CMMI12-58"/>
       <use transform="translate(72.787654 0)scale(0.996264)" xlink:href="#CMR17-48"/>
      </g>
     </g>
    </g>
   </g>
   <g id="line2d_16">
    <path clip-path="url(#p4cf8531660)" d="M 82.07518 55.905132 
L 101.486287 63.105283 
L 120.897394 55.14887 
L 140.308501 60.222555 
L 159.719607 78.500428 
L 179.130714 89.217432 
L 198.541821 89.367301 
L 217.952927 96.530919 
L 237.364034 98.475829 
L 256.775141 89.629921 
L 276.186247 85.248269 
L 295.597354 82.891554 
L 315.008461 85.181625 
L 334.419568 83.516864 
L 353.830674 79.081868 
L 373.241781 78.562936 
L 392.652888 76.964644 
L 412.063994 78.841887 
L 431.475101 80.090318 
L 450.886208 81.519794 
L 470.297315 79.710201 
L 489.708421 76.950567 
L 509.119528 76.763105 
L 528.530635 74.33167 
L 547.941741 74.219488 
L 567.352848 72.146177 
L 586.763955 70.386067 
L 606.175061 73.636677 
L 625.586168 71.91196 
L 644.997275 74.687213 
L 664.408382 72.231915 
L 683.819488 73.535533 
L 703.230595 73.588461 
L 722.641702 72.541446 
L 742.052808 72.210154 
L 761.463915 71.41571 
L 780.875022 70.219288 
L 800.286129 67.346673 
L 819.697235 69.752174 
L 839.108342 68.878894 
" style="fill:none;stroke:#0000ff;stroke-linecap:square;stroke-width:1.5;"/>
   </g>
   <g id="line2d_17">
    <path clip-path="url(#p4cf8531660)" d="M 82.07518 235.784139 
L 101.486287 229.496197 
L 120.897394 232.644749 
L 140.308501 228.271299 
L 159.719607 228.003647 
L 179.130714 229.603959 
L 198.541821 226.952636 
L 217.952927 226.835959 
L 237.364034 226.142153 
L 256.775141 223.027281 
L 276.186247 218.566184 
L 295.597354 215.934716 
L 315.008461 212.714457 
L 334.419568 214.263773 
L 353.830674 210.109359 
L 373.241781 208.231667 
L 392.652888 210.577389 
L 412.063994 210.355332 
L 431.475101 210.800666 
L 450.886208 208.027261 
L 470.297315 212.066304 
L 489.708421 211.23355 
L 509.119528 208.403777 
L 528.530635 204.745655 
L 547.941741 206.815401 
L 567.352848 206.583883 
L 586.763955 208.711382 
L 606.175061 207.788788 
L 625.586168 208.461531 
L 644.997275 206.749656 
L 664.408382 205.376924 
L 683.819488 203.294289 
L 703.230595 202.746127 
L 722.641702 204.55126 
L 742.052808 205.972609 
L 761.463915 205.088397 
L 780.875022 205.077769 
L 800.286129 203.033038 
L 819.697235 207.381685 
L 839.108342 203.829275 
" style="fill:none;stroke:#008000;stroke-linecap:square;stroke-width:1.5;"/>
   </g>
   <g id="patch_3">
    <path d="M 44.223522 258.910936 
L 44.223522 17.28 
" style="fill:none;stroke:#000000;stroke-linecap:square;stroke-linejoin:miter;stroke-width:0.8;"/>
   </g>
   <g id="patch_4">
    <path d="M 876.96 258.910936 
L 876.96 17.28 
" style="fill:none;stroke:#000000;stroke-linecap:square;stroke-linejoin:miter;stroke-width:0.8;"/>
   </g>
   <g id="patch_5">
    <path d="M 44.223522 258.910936 
L 876.96 258.910936 
" style="fill:none;stroke:#000000;stroke-linecap:square;stroke-linejoin:miter;stroke-width:0.8;"/>
   </g>
   <g id="patch_6">
    <path d="M 44.223522 17.28 
L 876.96 17.28 
" style="fill:none;stroke:#000000;stroke-linecap:square;stroke-linejoin:miter;stroke-width:0.8;"/>
   </g>
   <g id="legend_1">
    <g id="patch_7">
     <path d="M 668.995682 166.633687 
L 865.76 166.633687 
Q 868.96 166.633687 868.96 163.433687 
L 868.96 112.757248 
Q 868.96 109.557248 865.76 109.557248 
L 668.995682 109.557248 
Q 665.795682 109.557248 665.795682 112.757248 
L 665.795682 163.433687 
Q 665.795682 166.633687 668.995682 166.633687 
z
" style="fill:#ffffff;opacity:0.8;stroke:#cccccc;stroke-linejoin:miter;"/>
    </g>
    <g id="line2d_18">
     <path d="M 672.195682 124.510412 
L 704.195682 124.510412 
" style="fill:none;stroke:#0000ff;stroke-linecap:square;stroke-width:1.5;"/>
    </g>
    <g id="line2d_19"/>
    <g id="text_16">
     <!-- $\eta(U|\Pi^{(1)})$,CxSOM -->
     <g transform="translate(716.995682 130.110412)scale(0.16 -0.16)">
      <defs>
       <path d="M 47.5 27.625 
C 48 29.609375 48.296875 30.828125 48.296875 33.515625 
C 48.296875 39.5 44.796875 43.984375 37.203125 43.984375 
C 28.296875 43.984375 23.59375 37.703125 21.796875 35.21875 
C 21.5 40.90625 17.40625 43.984375 13 43.984375 
C 10.09375 43.984375 7.796875 42.59375 5.90625 38.796875 
C 4.09375 35.21875 2.703125 29.125 2.703125 28.734375 
C 2.703125 28.328125 3.09375 27.828125 3.796875 27.828125 
C 4.59375 27.828125 4.703125 27.9375 5.296875 30.21875 
C 6.796875 36.109375 8.703125 42 12.703125 42 
C 15 42 15.796875 40.40625 15.796875 37.40625 
C 15.796875 35.21875 14.796875 31.328125 14.09375 28.234375 
L 11.296875 17.46875 
C 10.90625 15.5625 9.796875 11.078125 9.296875 9.265625 
C 8.59375 6.6875 7.5 1.984375 7.5 1.5 
C 7.5 0.09375 8.59375 -1 10.09375 -1 
C 11.296875 -1 12.703125 -0.390625 13.5 1.09375 
C 13.703125 1.59375 14.59375 5.09375 15.09375 7.078125 
L 17.296875 16.0625 
L 20.59375 29.234375 
C 20.796875 29.828125 23.296875 34.8125 27 38 
C 29.59375 40.40625 33 42 36.90625 42 
C 40.90625 42 42.296875 39 42.296875 35.015625 
C 42.296875 32.109375 41.90625 30.515625 41.40625 28.609375 
L 29.796875 -17.296875 
C 29.703125 -17.796875 29.5 -18.390625 29.5 -19 
C 29.5 -20.5 30.703125 -21.5 32.203125 -21.5 
C 33.09375 -21.5 35.203125 -21.09375 36 -18.09375 
z
" id="CMMI12-17"/>
       <path d="M 30.59375 -24.390625 
C 30.59375 -24.296875 30.59375 -24.09375 30.296875 -23.796875 
C 25.703125 -19.125 13.40625 -6.359375 13.40625 24.703125 
C 13.40625 55.765625 25.5 68.421875 30.40625 73.390625 
C 30.40625 73.5 30.59375 73.703125 30.59375 74 
C 30.59375 74.296875 30.296875 74.5 29.90625 74.5 
C 28.796875 74.5 20.296875 67.125 15.40625 56.15625 
C 10.40625 45.109375 9 34.359375 9 24.8125 
C 9 17.625 9.703125 5.484375 15.703125 -7.359375 
C 20.5 -17.734375 28.703125 -25 29.90625 -25 
C 30.40625 -25 30.59375 -24.796875 30.59375 -24.390625 
z
" id="CMR17-40"/>
       <path d="M 50.59375 23.03125 
C 47.09375 9.078125 35.5 0.890625 26.09375 0.890625 
C 18.90625 0.890625 14 5.671875 14 13.921875 
C 14 14.3125 14 17.296875 15.09375 21.671875 
L 24.90625 60.734375 
C 25.796875 64.109375 26 65.109375 33.09375 65.109375 
C 34.90625 65.109375 35.90625 65.109375 35.90625 66.90625 
C 35.90625 68 35 68 34.40625 68 
C 32.59375 68 30.5 68 28.59375 68 
L 16.796875 68 
C 14.90625 68 12.796875 68 10.90625 68 
C 10.203125 68 9 68 9 66.109375 
C 9 65.109375 9.703125 65.109375 11.59375 65.109375 
C 17.59375 65.109375 17.59375 64.3125 17.59375 63.21875 
C 17.59375 62.625 16.90625 59.75 16.40625 58.046875 
L 7.703125 23.25 
C 7.40625 22.15625 6.796875 19.46875 6.796875 16.796875 
C 6.796875 5.84375 14.703125 -2 25.59375 -2 
C 35.703125 -2 46.90625 6 52 18.703125 
C 52.703125 20.390625 53.59375 23.90625 54.203125 26.59375 
C 55.203125 30.203125 57.296875 39 58 41.59375 
L 61.796875 56.609375 
C 63.09375 61.8125 63.90625 65.109375 72.703125 65.109375 
C 73.5 65.203125 73.90625 66 73.90625 66.90625 
C 73.90625 68 73 68 72.59375 68 
C 71.203125 68 69.40625 68 68 68 
L 63.296875 68 
C 57.09375 68 53.90625 68 53.796875 68 
C 53.203125 68 52 68 52 66.109375 
C 52 65.109375 52.796875 65.109375 53.5 65.109375 
C 59.5 65.109375 59.90625 62.8125 59.90625 61.015625 
C 59.90625 60.125 59.90625 59.8125 59.5 58.421875 
z
" id="CMMI12-85"/>
       <path d="M 15.90625 71.40625 
C 15.90625 73.203125 15.90625 75 13.90625 75 
C 11.90625 75 11.90625 73.203125 11.90625 71.40625 
L 11.90625 -21.40625 
C 11.90625 -23.203125 11.90625 -25 13.90625 -25 
C 15.90625 -25 15.90625 -23.203125 15.90625 -21.40625 
z
" id="CMSY10-106"/>
       <path d="M 56.09375 60.90625 
C 56.09375 65.40625 57.203125 65.40625 64.09375 65.40625 
L 64.09375 68 
L 5.09375 68 
L 5.09375 65.40625 
C 12 65.40625 13.09375 65.40625 13.09375 60.90625 
L 13.09375 7 
C 13.09375 2.5 12 2.5 5.09375 2.5 
L 5.09375 0 
C 8 0 13.296875 0 16.40625 0 
C 19.5 0 24.796875 0 27.703125 0 
L 27.703125 2.5 
C 20.796875 2.5 19.703125 2.5 19.703125 7 
L 19.703125 65.40625 
L 49.5 65.40625 
L 49.5 7 
C 49.5 2.5 48.40625 2.5 41.5 2.5 
L 41.5 0 
C 44.40625 0 49.703125 0 52.796875 0 
C 55.90625 0 61.203125 0 64.09375 0 
L 64.09375 2.5 
C 57.203125 2.5 56.09375 2.5 56.09375 7 
z
" id="CMR17-5"/>
       <path d="M 26.296875 24.703125 
C 26.296875 31.875 25.59375 44.015625 19.59375 56.859375 
C 14.796875 67.234375 6.59375 74.5 5.40625 74.5 
C 5.09375 74.5 4.703125 74.390625 4.703125 73.890625 
C 4.703125 73.703125 4.796875 73.59375 4.90625 73.390625 
C 9.703125 68.40625 21.90625 55.75 21.90625 24.75 
C 21.90625 -6.359375 9.796875 -19.015625 4.90625 -24.015625 
C 4.796875 -24.203125 4.703125 -24.3125 4.703125 -24.5 
C 4.703125 -25 5.09375 -25 5.40625 -25 
C 6.5 -25 15 -17.625 19.90625 -6.65625 
C 24.90625 4.390625 26.296875 15.140625 26.296875 24.703125 
z
" id="CMR17-41"/>
       <path d="M 17 0.09375 
L 17 7.96875 
L 9 7.96875 
L 9 0 
L 11.5 0 
L 8.90625 -12.5 
L 12.90625 -12.5 
z
" id="CMSS17-44"/>
       <path d="M 54.703125 11.15625 
C 48 6.671875 44.90625 5.375 36.796875 5.375 
C 22.796875 5.375 14.59375 20.359375 14.59375 34.046875 
C 14.59375 48.625 23 63 37.203125 63 
C 43.59375 63 47.796875 61.21875 52.90625 58.046875 
L 54.296875 65.890625 
C 49.5 68.28125 43.40625 69.375 37.296875 69.375 
C 18.09375 69.375 6.203125 51.8125 6.203125 34.046875 
C 6.203125 14.484375 20.296875 -1 36.296875 -1 
C 44.90625 -1 47.90625 -0.296875 55.296875 4.375 
z
" id="CMSS17-67"/>
       <path d="M 24.796875 22.09375 
L 41.5 42.796875 
L 32.796875 42.796875 
L 21.296875 27.765625 
L 9.40625 42.796875 
L 0.5 42.796875 
L 17.796875 22.09375 
L 0 0 
L 8.796875 0 
L 21.296875 17.515625 
L 34.296875 0 
L 43.09375 0 
z
" id="CMSS17-120"/>
       <path d="M 43.703125 65.140625 
C 39.296875 67.71875 34.5 70 26.40625 70 
C 13.5 70 5.203125 60.609375 5.203125 51.03125 
C 5.203125 47.265625 6.296875 43.015625 10.203125 38.671875 
C 14.09375 34.3125 18.5 33.140625 24.09375 31.765625 
C 26.40625 31.15625 30.296875 30.0625 31 29.78125 
C 36.59375 27.609375 39.296875 22.5625 39.296875 17.8125 
C 39.296875 11.59375 34.40625 4.96875 25.703125 4.96875 
C 22.703125 4.96875 13.90625 4.96875 5.59375 12.796875 
L 4.203125 4.96875 
C 12.40625 -1 21.296875 -2 25.796875 -2 
C 38.09375 -2 46.90625 7.625 46.90625 18.53125 
C 46.90625 22.5 45.703125 27.546875 41.5 32.203125 
C 37.40625 36.671875 33.796875 37.65625 25.59375 39.828125 
C 20.90625 41.03125 17.90625 41.828125 15.40625 44.890625 
C 13.703125 47.078125 12.796875 49.15625 12.796875 51.828125 
C 12.796875 57.390625 17.59375 63.4375 26.40625 63.4375 
C 30.796875 63.4375 36.5 62.53125 42.296875 57.1875 
z
" id="CMSS17-83"/>
       <path d="M 64 34.03125 
C 64 54.734375 50.296875 70.265625 34.59375 70.265625 
C 18.90625 70.265625 5.203125 54.640625 5.203125 34.03125 
C 5.203125 13.234375 19.09375 -2 34.59375 -2 
C 50.09375 -2 64 13.234375 64 34.03125 
z
M 34.59375 4.265625 
C 23.59375 4.265625 13.59375 16.515625 13.59375 35.328125 
C 13.59375 53.640625 24.203125 64 34.59375 64 
C 45 64 55.59375 53.640625 55.59375 35.328125 
C 55.59375 16.421875 45.5 4.265625 34.59375 4.265625 
z
" id="CMSS17-79"/>
       <path d="M 49.90625 37.046875 
L 45.09375 23.015625 
C 44.296875 20.421875 41.59375 12.359375 41 9.171875 
L 40.90625 9.171875 
C 40.59375 11.171875 40 13.265625 38.40625 18.34375 
C 37.5 21.328125 36.5 24.40625 35.5 27.203125 
L 20.703125 69 
L 9 69 
L 9 0 
L 16.796875 0 
L 16.796875 60.9375 
L 16.90625 60.9375 
C 16.90625 60.84375 17.796875 56.453125 23.90625 39.046875 
L 37.09375 1.5 
L 44.5 1.5 
L 56.40625 34.859375 
C 57.203125 37.15625 59.703125 44.421875 60.796875 47.90625 
C 61.796875 50.890625 64.296875 58.25 64.90625 61.140625 
L 65 61.140625 
L 65 0 
L 72.90625 0 
L 72.90625 69 
L 61.296875 69 
z
" id="CMSS17-77"/>
      </defs>
      <use transform="scale(0.996264)" xlink:href="#CMMI12-17"/>
      <use transform="translate(51.703816 0)scale(0.996264)" xlink:href="#CMR17-40"/>
      <use transform="translate(86.984584 0)scale(0.996264)" xlink:href="#CMMI12-85"/>
      <use transform="translate(163.643356 0)scale(0.996264)" xlink:href="#CMSY10-106"/>
      <use transform="translate(191.317441 0)scale(0.996264)" xlink:href="#CMR17-5"/>
      <use transform="translate(260.389871 36.153639)scale(0.697382)" xlink:href="#CMR17-40"/>
      <use transform="translate(285.086291 36.153639)scale(0.697382)" xlink:href="#CMR17-49"/>
      <use transform="translate(317.069473 36.153639)scale(0.697382)" xlink:href="#CMR17-41"/>
      <use transform="translate(342.264026 0)scale(0.996264)" xlink:href="#CMR17-41"/>
      <use transform="translate(377.544794 0)scale(0.996264)" xlink:href="#CMSS17-44"/>
      <use transform="translate(403.568998 0)scale(0.996264)" xlink:href="#CMSS17-67"/>
      <use transform="translate(463.42477 0)scale(0.996264)" xlink:href="#CMSS17-120"/>
      <use transform="translate(506.424912 0)scale(0.996264)" xlink:href="#CMSS17-83"/>
      <use transform="translate(558.473428 0)scale(0.996264)" xlink:href="#CMSS17-79"/>
      <use transform="translate(627.497683 0)scale(0.996264)" xlink:href="#CMSS17-77"/>
     </g>
    </g>
    <g id="line2d_20">
     <path d="M 672.195682 150.648631 
L 704.195682 150.648631 
" style="fill:none;stroke:#008000;stroke-linecap:square;stroke-width:1.5;"/>
    </g>
    <g id="line2d_21"/>
    <g id="text_17">
     <!-- $\eta(U|\Pi^{(1)})$,carte simple -->
     <g transform="translate(716.995682 156.248631)scale(0.16 -0.16)">
      <defs>
       <path d="M 38.5 39.703125 
C 38.5 40.390625 33.90625 42.40625 32.703125 42.796875 
C 29.40625 44 25.203125 44 24.09375 44 
C 11.09375 44 3.296875 32.703125 3.296875 21.296875 
C 3.296875 9.296875 12 -1 23.703125 -1 
C 30.40625 -1 35.203125 1.1875 39.09375 3.78125 
L 38.5 10.375 
C 34.203125 7.078125 29.203125 5.265625 23.796875 5.265625 
C 16 5.265625 10.90625 12.09375 10.90625 21.390625 
C 10.90625 28.609375 14.203125 37.71875 24.203125 37.71875 
C 29.703125 37.71875 32.796875 36.609375 37.40625 33.515625 
z
" id="CMSS17-99"/>
       <path d="M 37.59375 27.984375 
C 37.59375 37.375 30.90625 43.875 21.90625 43.875 
C 17.5 43.875 12.703125 43.078125 7.203125 39.890625 
L 7.796875 33.359375 
C 10.296875 35.125 14.59375 38 21.796875 38 
C 26.90625 38 30 34.0625 30 27.84375 
L 30 24 
C 14 24 4 19.34375 4 11.34375 
C 4 7.203125 6.5 -1 14.796875 -1 
C 16.296875 -1 24.40625 -1 30.203125 3.390625 
L 30.203125 -0.296875 
L 37.59375 -0.296875 
z
M 30 12.75 
C 30 10.953125 30 8.5625 27 6.78125 
C 24.40625 5.078125 21.09375 5.078125 19.703125 5.078125 
C 14.703125 5.078125 11.296875 7.984375 11.296875 11.625 
C 11.296875 18.921875 26.90625 18.921875 30 18.921875 
z
" id="CMSS17-97"/>
       <path d="M 14.90625 21.296875 
C 14.90625 30.703125 21.796875 37 30.59375 37 
L 30.59375 43.578125 
C 24.203125 43.578125 18.203125 40.390625 14.59375 35.203125 
L 14.59375 43.09375 
L 7.5 43.09375 
L 7.5 0 
L 14.90625 0 
z
" id="CMSS17-114"/>
       <path d="M 16.703125 37 
L 29.703125 37 
L 29.703125 42.765625 
L 16.703125 42.765625 
L 16.703125 55 
L 9.59375 55 
L 9.59375 42.765625 
L 1.703125 42.765625 
L 1.703125 37 
L 9.40625 37 
L 9.40625 11.703125 
C 9.40625 6 10.703125 -1 17.296875 -1 
C 22.296875 -1 26.90625 0.390625 31.296875 2.6875 
L 29.703125 8.5625 
C 27.296875 6.46875 24.40625 5.265625 21.296875 5.265625 
C 16.90625 5.265625 16.703125 10.875 16.703125 13.375 
z
" id="CMSS17-116"/>
       <path d="M 39.09375 21.515625 
C 39.09375 24.84375 38.90625 31.296875 35.703125 36.640625 
C 32.203125 42.390625 26.5 44 22.203125 44 
C 11.796875 44 3 34.1875 3 21.484375 
C 3 9.09375 12.09375 -1 23.59375 -1 
C 28.09375 -1 33.59375 0.296875 38.59375 3.875 
C 38.59375 4.28125 38.40625 6.46875 38.296875 6.5625 
C 38.296875 6.765625 38 9.84375 38 10.25 
C 33.203125 6.359375 27.703125 5.078125 23.703125 5.078125 
C 17.296875 5.078125 10.40625 10.421875 10.09375 21.515625 
z
M 10.90625 27 
C 12.203125 32.5625 16.59375 37.828125 22.203125 37.828125 
C 23.703125 37.828125 30.703125 37.828125 32.5 27 
z
" id="CMSS17-101"/>
       <path d="M 32.203125 41.046875 
C 26.296875 43.859375 21.703125 43.859375 18.703125 43.859375 
C 11.59375 43.859375 3.09375 41.375 3.09375 31.296875 
C 3.09375 21.234375 14.09375 19.03125 17.09375 18.421875 
C 21.703125 17.53125 26.796875 16.53125 26.796875 11.5625 
C 26.796875 5.265625 19.59375 5.265625 18.296875 5.265625 
C 14.296875 5.265625 8.796875 6.359375 3.796875 9.96875 
L 2.59375 3.28125 
C 8.296875 0 13.796875 -1 18.40625 -1 
C 30.703125 -1 33.796875 6.5 33.796875 12.203125 
C 33.796875 17.09375 31 20.390625 29.09375 21.890625 
C 25.796875 24.5 24.59375 24.796875 16.40625 26.5 
C 15 26.703125 10.09375 27.796875 10.09375 32.28125 
C 10.09375 38 16.40625 38 17.796875 38 
C 24.296875 38 28.296875 35.984375 31 34.5 
z
" id="CMSS17-115"/>
       <path d="M 15.296875 65.359375 
L 6.90625 65.359375 
L 6.90625 57 
L 15.296875 57 
z
M 14.796875 42.796875 
L 7.40625 42.796875 
L 7.40625 0 
L 14.796875 0 
z
" id="CMSS17-105"/>
       <path d="M 67 29.328125 
C 67 36.0625 65.296875 44 54.09375 44 
C 46.59375 44 42.09375 39.3125 40.09375 36.421875 
C 38.296875 41.71875 34.09375 44 28.09375 44 
C 21.296875 44 17 40.125 14.703125 37.328125 
L 14.703125 43.09375 
L 7.40625 43.09375 
L 7.40625 0 
L 15 0 
L 15 24.359375 
C 15 30.296875 17.203125 37.9375 24.296875 37.9375 
C 33.40625 37.9375 33.40625 31.5 33.40625 28.578125 
L 33.40625 0 
L 41 0 
L 41 24.359375 
C 41 30.296875 43.203125 37.9375 50.296875 37.9375 
C 59.40625 37.9375 59.40625 31.5 59.40625 28.578125 
L 59.40625 0 
L 67 0 
z
" id="CMSS17-109"/>
       <path d="M 15.09375 5.203125 
C 18.40625 2.015625 22.90625 -0.078125 27.703125 -0.078125 
C 37 -0.078125 45 9.421875 45 22.0625 
C 45 33.734375 39 44 30.40625 44 
C 25.40625 44 19.40625 42.21875 14.90625 38.625 
L 14.90625 43.203125 
L 7.5 43.203125 
L 7.5 -19 
L 15.09375 -19 
z
M 15.09375 32.8125 
C 15.90625 34 19.296875 37.734375 24.796875 37.734375 
C 31.796875 37.734375 37.40625 30.625 37.40625 22.0625 
C 37.40625 12.296875 30.59375 6 23.90625 6 
C 21.90625 6 19.796875 6.484375 17.796875 8.171875 
C 15.09375 10.53125 15.09375 12 15.09375 13.390625 
z
" id="CMSS17-112"/>
       <path d="M 14.796875 69 
L 7.40625 69 
L 7.40625 0 
L 14.796875 0 
z
" id="CMSS17-108"/>
      </defs>
      <use transform="scale(0.996264)" xlink:href="#CMMI12-17"/>
      <use transform="translate(51.703816 0)scale(0.996264)" xlink:href="#CMR17-40"/>
      <use transform="translate(86.984584 0)scale(0.996264)" xlink:href="#CMMI12-85"/>
      <use transform="translate(163.643356 0)scale(0.996264)" xlink:href="#CMSY10-106"/>
      <use transform="translate(191.317441 0)scale(0.996264)" xlink:href="#CMR17-5"/>
      <use transform="translate(260.389871 36.153639)scale(0.697382)" xlink:href="#CMR17-40"/>
      <use transform="translate(285.086291 36.153639)scale(0.697382)" xlink:href="#CMR17-49"/>
      <use transform="translate(317.069473 36.153639)scale(0.697382)" xlink:href="#CMR17-41"/>
      <use transform="translate(342.264026 0)scale(0.996264)" xlink:href="#CMR17-41"/>
      <use transform="translate(377.544794 0)scale(0.996264)" xlink:href="#CMSS17-44"/>
      <use transform="translate(403.568998 0)scale(0.996264)" xlink:href="#CMSS17-99"/>
      <use transform="translate(445.207821 0)scale(0.996264)" xlink:href="#CMSS17-97"/>
      <use transform="translate(487.527287 0)scale(0.996264)" xlink:href="#CMSS17-114"/>
      <use transform="translate(519.43706 0)scale(0.996264)" xlink:href="#CMSS17-116"/>
      <use transform="translate(553.268626 0)scale(0.996264)" xlink:href="#CMSS17-101"/>
      <use transform="translate(626.136561 0)scale(0.996264)" xlink:href="#CMSS17-115"/>
      <use transform="translate(662.050103 0)scale(0.996264)" xlink:href="#CMSS17-105"/>
      <use transform="translate(684.230826 0)scale(0.996264)" xlink:href="#CMSS17-109"/>
      <use transform="translate(758.460081 0)scale(0.996264)" xlink:href="#CMSS17-112"/>
      <use transform="translate(806.665024 0)scale(0.996264)" xlink:href="#CMSS17-108"/>
      <use transform="translate(828.845747 0)scale(0.996264)" xlink:href="#CMSS17-101"/>
     </g>
    </g>
   </g>
  </g>
  <g id="axes_2">
   <g id="patch_8">
    <path d="M 44.223522 538.990936 
L 876.96 538.990936 
L 876.96 297.36 
L 44.223522 297.36 
z
" style="fill:#ffffff;"/>
   </g>
   <g id="PolyCollection_3">
    <defs>
     <path d="M 82.07518 -235.273043 
L 82.07518 -124.035671 
L 101.486287 -96.309069 
L 120.897394 -132.361378 
L 140.308501 -133.315813 
L 159.719607 -95.200375 
L 179.130714 -141.684047 
L 198.541821 -134.406742 
L 217.952927 -118.863869 
L 237.364034 -129.173802 
L 256.775141 -105.626207 
L 276.186247 -104.294811 
L 295.597354 -106.297966 
L 315.008461 -90.117255 
L 334.419568 -100.441051 
L 353.830674 -98.816182 
L 373.241781 -98.43108 
L 392.652888 -111.527499 
L 412.063994 -106.385767 
L 431.475101 -103.804495 
L 450.886208 -107.480025 
L 470.297315 -126.9239 
L 489.708421 -118.191218 
L 509.119528 -123.136425 
L 528.530635 -124.693257 
L 547.941741 -134.073974 
L 567.352848 -123.721498 
L 586.763955 -128.043551 
L 606.175061 -135.248766 
L 625.586168 -127.000863 
L 644.997275 -134.080972 
L 664.408382 -134.399981 
L 683.819488 -143.315412 
L 703.230595 -126.137111 
L 722.641702 -126.314659 
L 742.052808 -135.543994 
L 761.463915 -137.712156 
L 780.875022 -135.569165 
L 800.286129 -133.599306 
L 819.697235 -138.113136 
L 839.108342 -139.59765 
L 839.108342 -204.547684 
L 839.108342 -204.547684 
L 819.697235 -204.382405 
L 800.286129 -207.773049 
L 780.875022 -207.991467 
L 761.463915 -209.909044 
L 742.052808 -208.231329 
L 722.641702 -214.499309 
L 703.230595 -206.940286 
L 683.819488 -196.370886 
L 664.408382 -200.08256 
L 644.997275 -209.516585 
L 625.586168 -206.642407 
L 606.175061 -220.211266 
L 586.763955 -213.687399 
L 567.352848 -212.163521 
L 547.941741 -203.113868 
L 528.530635 -194.840476 
L 509.119528 -190.520968 
L 489.708421 -191.962879 
L 470.297315 -195.608007 
L 450.886208 -192.020686 
L 431.475101 -203.930999 
L 412.063994 -202.205657 
L 392.652888 -181.896962 
L 373.241781 -205.737742 
L 353.830674 -201.241091 
L 334.419568 -217.347163 
L 315.008461 -221.461751 
L 295.597354 -203.27875 
L 276.186247 -213.009273 
L 256.775141 -208.602652 
L 237.364034 -208.645484 
L 217.952927 -208.050342 
L 198.541821 -224.626894 
L 179.130714 -201.858675 
L 159.719607 -224.887886 
L 140.308501 -232.708156 
L 120.897394 -269.096776 
L 101.486287 -245.624635 
L 82.07518 -235.273043 
z
" id="m6b11691866" style="stroke:#ff0000;stroke-opacity:0.5;"/>
    </defs>
    <g clip-path="url(#pe6a0f9c1a9)">
     <use style="fill:#ff0000;fill-opacity:0.5;stroke:#ff0000;stroke-opacity:0.5;" x="0" xlink:href="#m6b11691866" y="577.44"/>
    </g>
   </g>
   <g id="PolyCollection_4">
    <defs>
     <path d="M 82.07518 -100.220712 
L 82.07518 -73.470286 
L 101.486287 -71.834342 
L 120.897394 -70.325464 
L 140.308501 -68.059305 
L 159.719607 -53.562139 
L 179.130714 -50.099786 
L 198.541821 -78.326047 
L 217.952927 -78.612278 
L 237.364034 -67.87263 
L 256.775141 -73.836058 
L 276.186247 -75.23317 
L 295.597354 -72.140639 
L 315.008461 -51.933969 
L 334.419568 -62.458393 
L 353.830674 -59.66339 
L 373.241781 -54.756328 
L 392.652888 -51.595584 
L 412.063994 -49.432289 
L 431.475101 -57.167311 
L 450.886208 -78.082227 
L 470.297315 -77.185611 
L 489.708421 -73.047072 
L 509.119528 -83.653189 
L 528.530635 -82.803166 
L 547.941741 -83.033843 
L 567.352848 -86.112139 
L 586.763955 -92.782748 
L 606.175061 -98.655506 
L 625.586168 -98.929767 
L 644.997275 -95.340871 
L 664.408382 -99.627462 
L 683.819488 -100.841619 
L 703.230595 -101.322967 
L 722.641702 -101.613066 
L 742.052808 -101.378961 
L 761.463915 -102.703331 
L 780.875022 -97.584569 
L 800.286129 -99.042554 
L 819.697235 -98.924922 
L 839.108342 -98.109201 
L 839.108342 -112.200576 
L 839.108342 -112.200576 
L 819.697235 -114.059862 
L 800.286129 -112.67259 
L 780.875022 -114.060736 
L 761.463915 -113.488593 
L 742.052808 -111.424915 
L 722.641702 -112.870986 
L 703.230595 -112.111971 
L 683.819488 -111.333263 
L 664.408382 -111.600932 
L 644.997275 -109.215988 
L 625.586168 -110.054222 
L 606.175061 -109.601161 
L 586.763955 -109.012905 
L 567.352848 -111.514068 
L 547.941741 -112.431896 
L 528.530635 -115.528342 
L 509.119528 -114.313043 
L 489.708421 -118.580137 
L 470.297315 -111.001967 
L 450.886208 -109.627248 
L 431.475101 -109.986185 
L 412.063994 -111.481266 
L 392.652888 -109.034952 
L 373.241781 -108.96532 
L 353.830674 -103.674015 
L 334.419568 -106.712127 
L 315.008461 -109.966745 
L 295.597354 -121.665025 
L 276.186247 -112.452815 
L 256.775141 -108.781399 
L 237.364034 -110.145205 
L 217.952927 -112.380171 
L 198.541821 -105.800219 
L 179.130714 -93.275501 
L 159.719607 -93.550249 
L 140.308501 -98.956304 
L 120.897394 -101.772721 
L 101.486287 -97.743058 
L 82.07518 -100.220712 
z
" id="mc1ba1df6be" style="stroke:#000000;stroke-opacity:0.5;"/>
    </defs>
    <g clip-path="url(#pe6a0f9c1a9)">
     <use style="fill-opacity:0.5;stroke:#000000;stroke-opacity:0.5;" x="0" xlink:href="#mc1ba1df6be" y="577.44"/>
    </g>
   </g>
   <g id="matplotlib.axis_3">
    <g id="xtick_10">
     <g id="line2d_22">
      <g>
       <use style="stroke:#000000;stroke-width:0.8;" x="82.07518" xlink:href="#mff9190cdae" y="538.990936"/>
      </g>
     </g>
     <g id="text_18">
      <!-- $\mathdefault{0}$ -->
      <g transform="translate(78.173187 557.060524)scale(0.16 -0.16)">
       <use transform="scale(0.996264)" xlink:href="#CMR17-48"/>
      </g>
     </g>
    </g>
    <g id="xtick_11">
     <g id="line2d_23">
      <g>
       <use style="stroke:#000000;stroke-width:0.8;" x="179.130714" xlink:href="#mff9190cdae" y="538.990936"/>
      </g>
     </g>
     <g id="text_19">
      <!-- $\mathdefault{25}$ -->
      <g transform="translate(171.326727 557.060524)scale(0.16 -0.16)">
       <use transform="scale(0.996264)" xlink:href="#CMR17-50"/>
       <use transform="translate(45.690477 0)scale(0.996264)" xlink:href="#CMR17-53"/>
      </g>
     </g>
    </g>
    <g id="xtick_12">
     <g id="line2d_24">
      <g>
       <use style="stroke:#000000;stroke-width:0.8;" x="276.186247" xlink:href="#mff9190cdae" y="538.990936"/>
      </g>
     </g>
     <g id="text_20">
      <!-- $\mathdefault{50}$ -->
      <g transform="translate(268.38226 557.060524)scale(0.16 -0.16)">
       <use transform="scale(0.996264)" xlink:href="#CMR17-53"/>
       <use transform="translate(45.690477 0)scale(0.996264)" xlink:href="#CMR17-48"/>
      </g>
     </g>
    </g>
    <g id="xtick_13">
     <g id="line2d_25">
      <g>
       <use style="stroke:#000000;stroke-width:0.8;" x="373.241781" xlink:href="#mff9190cdae" y="538.990936"/>
      </g>
     </g>
     <g id="text_21">
      <!-- $\mathdefault{75}$ -->
      <g transform="translate(365.437794 557.060524)scale(0.16 -0.16)">
       <use transform="scale(0.996264)" xlink:href="#CMR17-55"/>
       <use transform="translate(45.690477 0)scale(0.996264)" xlink:href="#CMR17-53"/>
      </g>
     </g>
    </g>
    <g id="xtick_14">
     <g id="line2d_26">
      <g>
       <use style="stroke:#000000;stroke-width:0.8;" x="470.297315" xlink:href="#mff9190cdae" y="538.990936"/>
      </g>
     </g>
     <g id="text_22">
      <!-- $\mathdefault{100}$ -->
      <g transform="translate(458.591334 557.060524)scale(0.16 -0.16)">
       <use transform="scale(0.996264)" xlink:href="#CMR17-49"/>
       <use transform="translate(45.690477 0)scale(0.996264)" xlink:href="#CMR17-48"/>
       <use transform="translate(91.380954 0)scale(0.996264)" xlink:href="#CMR17-48"/>
      </g>
     </g>
    </g>
    <g id="xtick_15">
     <g id="line2d_27">
      <g>
       <use style="stroke:#000000;stroke-width:0.8;" x="567.352848" xlink:href="#mff9190cdae" y="538.990936"/>
      </g>
     </g>
     <g id="text_23">
      <!-- $\mathdefault{125}$ -->
      <g transform="translate(555.646868 557.060524)scale(0.16 -0.16)">
       <use transform="scale(0.996264)" xlink:href="#CMR17-49"/>
       <use transform="translate(45.690477 0)scale(0.996264)" xlink:href="#CMR17-50"/>
       <use transform="translate(91.380954 0)scale(0.996264)" xlink:href="#CMR17-53"/>
      </g>
     </g>
    </g>
    <g id="xtick_16">
     <g id="line2d_28">
      <g>
       <use style="stroke:#000000;stroke-width:0.8;" x="664.408382" xlink:href="#mff9190cdae" y="538.990936"/>
      </g>
     </g>
     <g id="text_24">
      <!-- $\mathdefault{150}$ -->
      <g transform="translate(652.702401 557.060524)scale(0.16 -0.16)">
       <use transform="scale(0.996264)" xlink:href="#CMR17-49"/>
       <use transform="translate(45.690477 0)scale(0.996264)" xlink:href="#CMR17-53"/>
       <use transform="translate(91.380954 0)scale(0.996264)" xlink:href="#CMR17-48"/>
      </g>
     </g>
    </g>
    <g id="xtick_17">
     <g id="line2d_29">
      <g>
       <use style="stroke:#000000;stroke-width:0.8;" x="761.463915" xlink:href="#mff9190cdae" y="538.990936"/>
      </g>
     </g>
     <g id="text_25">
      <!-- $\mathdefault{175}$ -->
      <g transform="translate(749.757935 557.060524)scale(0.16 -0.16)">
       <use transform="scale(0.996264)" xlink:href="#CMR17-49"/>
       <use transform="translate(45.690477 0)scale(0.996264)" xlink:href="#CMR17-55"/>
       <use transform="translate(91.380954 0)scale(0.996264)" xlink:href="#CMR17-53"/>
      </g>
     </g>
    </g>
    <g id="xtick_18">
     <g id="line2d_30">
      <g>
       <use style="stroke:#000000;stroke-width:0.8;" x="858.519449" xlink:href="#mff9190cdae" y="538.990936"/>
      </g>
     </g>
     <g id="text_26">
      <!-- $\mathdefault{200}$ -->
      <g transform="translate(846.813468 557.060524)scale(0.16 -0.16)">
       <use transform="scale(0.996264)" xlink:href="#CMR17-50"/>
       <use transform="translate(45.690477 0)scale(0.996264)" xlink:href="#CMR17-48"/>
       <use transform="translate(91.380954 0)scale(0.996264)" xlink:href="#CMR17-48"/>
      </g>
     </g>
    </g>
   </g>
   <g id="matplotlib.axis_4">
    <g id="ytick_7">
     <g id="line2d_31">
      <g>
       <use style="stroke:#000000;stroke-width:0.8;" x="44.223522" xlink:href="#mdc68524e3d" y="513.444335"/>
      </g>
     </g>
     <g id="text_27">
      <!-- $\mathdefault{0.8}$ -->
      <g transform="translate(17.28 518.979129)scale(0.16 -0.16)">
       <use transform="scale(0.996264)" xlink:href="#CMR17-48"/>
       <use transform="translate(45.690477 0)scale(0.996264)" xlink:href="#CMMI12-58"/>
       <use transform="translate(72.787654 0)scale(0.996264)" xlink:href="#CMR17-56"/>
      </g>
     </g>
    </g>
    <g id="ytick_8">
     <g id="line2d_32">
      <g>
       <use style="stroke:#000000;stroke-width:0.8;" x="44.223522" xlink:href="#mdc68524e3d" y="454.171198"/>
      </g>
     </g>
     <g id="text_28">
      <!-- $\mathdefault{0.9}$ -->
      <g transform="translate(17.28 459.705992)scale(0.16 -0.16)">
       <defs>
        <path d="M 35.203125 29.125 
C 35.203125 7.25 26.09375 0.484375 18.59375 0.484375 
C 16.296875 0.484375 10.703125 0.484375 8.40625 4.59375 
C 11 4.1875 12.90625 5.578125 12.90625 8.09375 
C 12.90625 10.8125 10.703125 11.703125 9.296875 11.703125 
C 8.40625 11.703125 5.703125 11.296875 5.703125 7.90625 
C 5.703125 1.109375 11.59375 -2 18.796875 -2 
C 30.296875 -2 42 10.53125 42 32.390625 
C 42 59.640625 30.796875 65.296875 23.203125 65.296875 
C 13.296875 65.296875 3.796875 56.6875 3.796875 43.40625 
C 3.796875 31.109375 11.90625 22 22.09375 22 
C 30.5 22 34.203125 29.734375 35.203125 33 
z
M 22.296875 23.59375 
C 19.59375 23.59375 15.796875 24.09375 12.703125 30.03125 
C 10.59375 33.890625 10.59375 38.453125 10.59375 43.296875 
C 10.59375 49.15625 10.59375 53.203125 13.40625 57.5625 
C 14.796875 59.640625 17.40625 63 23.203125 63 
C 35 63 35 45.078125 35 41.125 
C 35 34.09375 31.796875 23.59375 22.296875 23.59375 
z
" id="CMR17-57"/>
       </defs>
       <use transform="scale(0.996264)" xlink:href="#CMR17-48"/>
       <use transform="translate(45.690477 0)scale(0.996264)" xlink:href="#CMMI12-58"/>
       <use transform="translate(72.787654 0)scale(0.996264)" xlink:href="#CMR17-57"/>
      </g>
     </g>
    </g>
    <g id="ytick_9">
     <g id="line2d_33">
      <g>
       <use style="stroke:#000000;stroke-width:0.8;" x="44.223522" xlink:href="#mdc68524e3d" y="394.898062"/>
      </g>
     </g>
     <g id="text_29">
      <!-- $\mathdefault{1.0}$ -->
      <g transform="translate(17.28 400.432856)scale(0.16 -0.16)">
       <use transform="scale(0.996264)" xlink:href="#CMR17-49"/>
       <use transform="translate(45.690477 0)scale(0.996264)" xlink:href="#CMMI12-58"/>
       <use transform="translate(72.787654 0)scale(0.996264)" xlink:href="#CMR17-48"/>
      </g>
     </g>
    </g>
    <g id="ytick_10">
     <g id="line2d_34">
      <g>
       <use style="stroke:#000000;stroke-width:0.8;" x="44.223522" xlink:href="#mdc68524e3d" y="335.624925"/>
      </g>
     </g>
     <g id="text_30">
      <!-- $\mathdefault{1.1}$ -->
      <g transform="translate(17.28 341.159719)scale(0.16 -0.16)">
       <use transform="scale(0.996264)" xlink:href="#CMR17-49"/>
       <use transform="translate(45.690477 0)scale(0.996264)" xlink:href="#CMMI12-58"/>
       <use transform="translate(72.787654 0)scale(0.996264)" xlink:href="#CMR17-49"/>
      </g>
     </g>
    </g>
   </g>
   <g id="line2d_35">
    <path clip-path="url(#pe6a0f9c1a9)" d="M 82.07518 397.785643 
L 101.486287 406.473148 
L 120.897394 376.710923 
L 140.308501 394.428015 
L 159.719607 417.39587 
L 179.130714 405.668639 
L 198.541821 397.923182 
L 217.952927 413.982894 
L 237.364034 408.530357 
L 256.775141 420.32557 
L 276.186247 418.787958 
L 295.597354 422.651642 
L 315.008461 421.650497 
L 334.419568 418.545893 
L 353.830674 427.411364 
L 373.241781 425.355589 
L 392.652888 430.72777 
L 412.063994 423.144288 
L 431.475101 423.572253 
L 450.886208 427.689645 
L 470.297315 416.174046 
L 489.708421 422.362951 
L 509.119528 420.611303 
L 528.530635 417.673134 
L 547.941741 408.846079 
L 567.352848 409.49749 
L 586.763955 406.574525 
L 606.175061 399.709984 
L 625.586168 410.618365 
L 644.997275 405.641222 
L 664.408382 410.198729 
L 683.819488 407.596851 
L 703.230595 410.901302 
L 722.641702 407.033016 
L 742.052808 405.552338 
L 761.463915 403.6294 
L 780.875022 405.659684 
L 800.286129 406.753823 
L 819.697235 406.19223 
L 839.108342 405.367333 
" style="fill:none;stroke:#ff0000;stroke-linecap:square;stroke-width:1.5;"/>
   </g>
   <g id="line2d_36">
    <path clip-path="url(#pe6a0f9c1a9)" d="M 82.07518 490.594501 
L 101.486287 492.6513 
L 120.897394 491.390907 
L 140.308501 493.932196 
L 159.719607 503.883806 
L 179.130714 505.752357 
L 198.541821 485.376867 
L 217.952927 481.943776 
L 237.364034 488.431082 
L 256.775141 486.131271 
L 276.186247 483.597008 
L 295.597354 480.537168 
L 315.008461 496.489643 
L 334.419568 492.85474 
L 353.830674 495.771297 
L 373.241781 495.579176 
L 392.652888 497.124732 
L 412.063994 496.983222 
L 431.475101 493.863252 
L 450.886208 483.585262 
L 470.297315 483.346211 
L 489.708421 481.626396 
L 509.119528 478.456884 
L 528.530635 478.274246 
L 547.941741 479.707131 
L 567.352848 478.626896 
L 586.763955 476.542173 
L 606.175061 473.311667 
L 625.586168 472.948005 
L 644.997275 475.16157 
L 664.408382 471.825803 
L 683.819488 471.352559 
L 703.230595 470.722531 
L 722.641702 470.197974 
L 742.052808 471.038062 
L 761.463915 469.344038 
L 780.875022 471.617348 
L 800.286129 471.582428 
L 819.697235 470.947608 
L 839.108342 472.285111 
" style="fill:none;stroke:#000000;stroke-linecap:square;stroke-width:1.5;"/>
   </g>
   <g id="patch_9">
    <path d="M 44.223522 538.990936 
L 44.223522 297.36 
" style="fill:none;stroke:#000000;stroke-linecap:square;stroke-linejoin:miter;stroke-width:0.8;"/>
   </g>
   <g id="patch_10">
    <path d="M 876.96 538.990936 
L 876.96 297.36 
" style="fill:none;stroke:#000000;stroke-linecap:square;stroke-linejoin:miter;stroke-width:0.8;"/>
   </g>
   <g id="patch_11">
    <path d="M 44.223522 538.990936 
L 876.96 538.990936 
" style="fill:none;stroke:#000000;stroke-linecap:square;stroke-linejoin:miter;stroke-width:0.8;"/>
   </g>
   <g id="patch_12">
    <path d="M 44.223522 297.36 
L 876.96 297.36 
" style="fill:none;stroke:#000000;stroke-linecap:square;stroke-linejoin:miter;stroke-width:0.8;"/>
   </g>
   <g id="legend_2">
    <g id="patch_13">
     <path d="M 668.995682 362.436439 
L 865.76 362.436439 
Q 868.96 362.436439 868.96 359.236439 
L 868.96 308.56 
Q 868.96 305.36 865.76 305.36 
L 668.995682 305.36 
Q 665.795682 305.36 665.795682 308.56 
L 665.795682 359.236439 
Q 665.795682 362.436439 668.995682 362.436439 
z
" style="fill:#ffffff;opacity:0.8;stroke:#cccccc;stroke-linejoin:miter;"/>
    </g>
    <g id="line2d_37">
     <path d="M 672.195682 320.313163 
L 704.195682 320.313163 
" style="fill:none;stroke:#ff0000;stroke-linecap:square;stroke-width:1.5;"/>
    </g>
    <g id="line2d_38"/>
    <g id="text_31">
     <!-- $\eta(U|\Pi^{(2)})$,CxSOM -->
     <g transform="translate(716.995682 325.913163)scale(0.16 -0.16)">
      <use transform="scale(0.996264)" xlink:href="#CMMI12-17"/>
      <use transform="translate(51.703816 0)scale(0.996264)" xlink:href="#CMR17-40"/>
      <use transform="translate(86.984584 0)scale(0.996264)" xlink:href="#CMMI12-85"/>
      <use transform="translate(163.643356 0)scale(0.996264)" xlink:href="#CMSY10-106"/>
      <use transform="translate(191.317441 0)scale(0.996264)" xlink:href="#CMR17-5"/>
      <use transform="translate(260.389871 36.153639)scale(0.697382)" xlink:href="#CMR17-40"/>
      <use transform="translate(285.086291 36.153639)scale(0.697382)" xlink:href="#CMR17-50"/>
      <use transform="translate(317.069473 36.153639)scale(0.697382)" xlink:href="#CMR17-41"/>
      <use transform="translate(342.264026 0)scale(0.996264)" xlink:href="#CMR17-41"/>
      <use transform="translate(377.544794 0)scale(0.996264)" xlink:href="#CMSS17-44"/>
      <use transform="translate(403.568998 0)scale(0.996264)" xlink:href="#CMSS17-67"/>
      <use transform="translate(463.42477 0)scale(0.996264)" xlink:href="#CMSS17-120"/>
      <use transform="translate(506.424912 0)scale(0.996264)" xlink:href="#CMSS17-83"/>
      <use transform="translate(558.473428 0)scale(0.996264)" xlink:href="#CMSS17-79"/>
      <use transform="translate(627.497683 0)scale(0.996264)" xlink:href="#CMSS17-77"/>
     </g>
    </g>
    <g id="line2d_39">
     <path d="M 672.195682 346.451383 
L 704.195682 346.451383 
" style="fill:none;stroke:#000000;stroke-linecap:square;stroke-width:1.5;"/>
    </g>
    <g id="line2d_40"/>
    <g id="text_32">
     <!-- $\eta(U|\Pi^{(2)})$,carte simple -->
     <g transform="translate(716.995682 352.051383)scale(0.16 -0.16)">
      <use transform="scale(0.996264)" xlink:href="#CMMI12-17"/>
      <use transform="translate(51.703816 0)scale(0.996264)" xlink:href="#CMR17-40"/>
      <use transform="translate(86.984584 0)scale(0.996264)" xlink:href="#CMMI12-85"/>
      <use transform="translate(163.643356 0)scale(0.996264)" xlink:href="#CMSY10-106"/>
      <use transform="translate(191.317441 0)scale(0.996264)" xlink:href="#CMR17-5"/>
      <use transform="translate(260.389871 36.153639)scale(0.697382)" xlink:href="#CMR17-40"/>
      <use transform="translate(285.086291 36.153639)scale(0.697382)" xlink:href="#CMR17-50"/>
      <use transform="translate(317.069473 36.153639)scale(0.697382)" xlink:href="#CMR17-41"/>
      <use transform="translate(342.264026 0)scale(0.996264)" xlink:href="#CMR17-41"/>
      <use transform="translate(377.544794 0)scale(0.996264)" xlink:href="#CMSS17-44"/>
      <use transform="translate(403.568998 0)scale(0.996264)" xlink:href="#CMSS17-99"/>
      <use transform="translate(445.207821 0)scale(0.996264)" xlink:href="#CMSS17-97"/>
      <use transform="translate(487.527287 0)scale(0.996264)" xlink:href="#CMSS17-114"/>
      <use transform="translate(519.43706 0)scale(0.996264)" xlink:href="#CMSS17-116"/>
      <use transform="translate(553.268626 0)scale(0.996264)" xlink:href="#CMSS17-101"/>
      <use transform="translate(626.136561 0)scale(0.996264)" xlink:href="#CMSS17-115"/>
      <use transform="translate(662.050103 0)scale(0.996264)" xlink:href="#CMSS17-105"/>
      <use transform="translate(684.230826 0)scale(0.996264)" xlink:href="#CMSS17-109"/>
      <use transform="translate(758.460081 0)scale(0.996264)" xlink:href="#CMSS17-112"/>
      <use transform="translate(806.665024 0)scale(0.996264)" xlink:href="#CMSS17-108"/>
      <use transform="translate(828.845747 0)scale(0.996264)" xlink:href="#CMSS17-101"/>
     </g>
    </g>
   </g>
  </g>
 </g>
 <defs>
  <clipPath id="p4cf8531660">
   <rect height="241.630936" width="832.736478" x="44.223522" y="17.28"/>
  </clipPath>
  <clipPath id="pe6a0f9c1a9">
   <rect height="241.630936" width="832.736478" x="44.223522" y="297.36"/>
  </clipPath>
 </defs>
</svg>
