<?xml version="1.0" encoding="UTF-8" standalone="no"?>
<svg
   width="663.47693pt"
   height="302.39999pt"
   viewBox="0 0 663.47692 302.4"
   version="1.1"
   id="svg617"
   sodipodi:docname="cr_evol.svg"
   inkscape:version="1.1.2 (0a00cf5339, 2022-02-04)"
   xmlns:inkscape="http://www.inkscape.org/namespaces/inkscape"
   xmlns:sodipodi="http://sodipodi.sourceforge.net/DTD/sodipodi-0.dtd"
   xmlns:xlink="http://www.w3.org/1999/xlink"
   xmlns="http://www.w3.org/2000/svg"
   xmlns:svg="http://www.w3.org/2000/svg"
   xmlns:rdf="http://www.w3.org/1999/02/22-rdf-syntax-ns#"
   xmlns:cc="http://creativecommons.org/ns#"
   xmlns:dc="http://purl.org/dc/elements/1.1/">
  <sodipodi:namedview
     id="namedview619"
     pagecolor="#ffffff"
     bordercolor="#666666"
     borderopacity="1.0"
     inkscape:pageshadow="2"
     inkscape:pageopacity="0.0"
     inkscape:pagecheckerboard="0"
     inkscape:document-units="pt"
     showgrid="false"
     inkscape:zoom="0.79619664"
     inkscape:cx="828.31297"
     inkscape:cy="-0.62798557"
     inkscape:window-width="1846"
     inkscape:window-height="1016"
     inkscape:window-x="0"
     inkscape:window-y="0"
     inkscape:window-maximized="1"
     inkscape:current-layer="svg617"
     fit-margin-top="0"
     fit-margin-left="0"
     fit-margin-right="0"
     fit-margin-bottom="0" />
  <metadata
     id="metadata2">
    <rdf:RDF>
      <cc:Work>
        <dc:type
           rdf:resource="http://purl.org/dc/dcmitype/StillImage" />
        <dc:date>2023-04-07T13:04:40.074169</dc:date>
        <dc:format>image/svg+xml</dc:format>
        <dc:creator>
          <cc:Agent>
            <dc:title>Matplotlib v3.6.3, https://matplotlib.org/</dc:title>
          </cc:Agent>
        </dc:creator>
      </cc:Work>
    </rdf:RDF>
  </metadata>
  <defs
     id="defs6">
    <style
       type="text/css"
       id="style4">*{stroke-linejoin: round; stroke-linecap: butt}</style>
    <g
       id="g5729">
      <symbol
         overflow="visible"
         id="symbol9427">
        <path
           style="stroke:none"
           d=""
           id="path3436" />
      </symbol>
      <symbol
         overflow="visible"
         id="symbol4848">
        <path
           style="stroke:none"
           d="m 1.90625,-3.765625 c 0,-0.296875 -0.234375,-0.53125 -0.515625,-0.53125 -0.296875,0 -0.53125,0.234375 -0.53125,0.53125 0,0.28125 0.234375,0.53125 0.53125,0.53125 0.28125,0 0.515625,-0.25 0.515625,-0.53125 z m -0.1875,3.65625 c 0,0.28125 0,1.0625 -0.625,1.796875 -0.078125,0.078125 -0.078125,0.09375 -0.078125,0.125 0,0.078125 0.046875,0.109375 0.09375,0.109375 0.109375,0 0.828125,-0.796875 0.828125,-1.953125 0,-0.28125 -0.015625,-1.03125 -0.546875,-1.03125 -0.359375,0 -0.53125,0.28125 -0.53125,0.53125 C 0.859375,-0.265625 1.03125,0 1.390625,0 1.4375,0 1.453125,0 1.46875,-0.015625 c 0.0625,0 0.171875,-0.03125 0.25,-0.09375 z m 0,0"
           id="path1859" />
      </symbol>
    </g>
  </defs>
  <path
     d="M 0,302.4 H 491.76 V 0 H 0 Z"
     style="fill:#ffffff"
     id="path8" />
  <g
     id="patch_2">
    <path
       d="M 61.47,142.128 H 442.584 V 36.288 H 61.47 Z"
       style="fill:#ffffff"
       id="path11" />
  </g>
  <g
     id="PolyCollection_1">
    <defs
       id="defs15">
      <path
         id="mc004621e64"
         d="m 78.793364,-257.87841 v 13.95962 l 0.176769,-2.29696 0.176769,1.47487 0.176769,-0.23307 0.176769,0.5618 0.176769,2.38096 0.176769,-0.14225 0.176769,0.38924 0.176769,0.65821 0.176769,-6.39008 0.176769,-3.22243 0.176769,-3.43956 0.176769,-0.69565 0.176769,0.0838 0.176769,0.88306 0.176769,-0.80029 0.176769,0.14805 0.176769,0.30084 0.176769,0.20511 0.176769,1.49828 0.176769,-0.62442 0.176769,-1.23968 0.176769,1.10966 0.176769,-0.3332 0.176769,1.61091 0.176769,0.21507 0.176769,-0.08 0.176769,0.36312 0.176769,-0.37073 0.176769,-0.096 0.176769,-0.48341 0.176769,0.65552 0.176769,0.0734 0.176769,0.0717 0.176769,-0.93284 0.176769,0.24087 0.176769,0.402 0.176769,-1.31024 0.176769,0.65338 0.176769,-1.00284 0.176769,0.13182 7.070761,0.17607 7.070765,-1.26468 7.07076,-0.82871 7.07076,2.42318 7.07076,0.40867 7.07076,0.29158 7.07076,-1.22187 7.07076,-0.13411 7.07076,-1.24334 7.07076,0.65994 7.07076,1.43749 7.07076,-0.30653 7.07076,0.99304 7.07076,-1.41592 7.07076,-0.55174 7.07076,-0.13647 7.07077,-1.83883 7.07076,-0.37346 7.07076,-1.13512 7.07076,-1.63779 7.07076,1.35523 7.07076,0.53231 7.07076,-0.40452 7.07076,-1.74994 7.07076,-0.80125 7.07076,-0.22615 7.07076,-1.56903 7.07076,0.60035 7.07076,-1.9413 7.07076,-0.20536 7.07076,-0.34832 7.07077,-0.40201 7.07076,-0.0498 7.07076,0.0161 7.07076,0.2217 7.07076,-0.41956 7.07076,0.49085 7.07076,0.13997 7.07076,-0.20113 7.07076,0.0381 7.07076,-0.0359 7.07076,0.07 7.07076,-0.13099 7.07076,0.12076 7.07076,-0.14809 7.07077,0.12176 7.07076,0.0897 7.07076,-0.10603 v -1.30732 0 l -7.07076,0.24233 -7.07076,-0.1676 -7.07077,0.23052 -7.07076,-0.28445 -7.07076,-0.11192 -7.07076,0.17517 -7.07076,-0.10717 -7.07076,-0.10703 -7.07076,0.012 -7.07076,0.6736 -7.07076,-0.24664 -7.07076,-0.73724 -7.07076,0.11537 -7.07076,0.0293 -7.07076,0.31329 -7.07076,-0.2512 -7.07077,0.24771 -7.07076,0.0339 -7.07076,0.0596 -7.07076,-0.99276 -7.07076,-0.15714 -7.07076,-0.43584 -7.07076,-0.31574 -7.07076,-0.34596 -7.07076,-1.01252 -7.07076,-0.42518 -7.07076,1.11904 -7.07076,-0.12045 -7.07076,-0.0936 -7.07076,-0.24664 -7.07076,-0.81583 -7.07077,-0.82441 -7.07076,0.33959 -7.07076,0.62967 -7.07076,-0.62561 -7.07076,0.9318 -7.07076,0.65904 -7.07076,0.88331 -7.07076,-0.0819 -7.07076,0.8188 -7.07076,-0.55149 -7.07076,0.0356 -7.07076,0.66364 -7.07076,1.34983 -7.07076,1.25275 -7.07076,0.66597 -7.070765,0.22913 -7.070761,3.24294 -0.176769,0.32744 -0.176769,-0.30611 -0.176769,0.0113 -0.176769,0.0661 -0.176769,1.2816 -0.176769,0.16327 -0.176769,-0.42987 -0.176769,0.51168 -0.176769,-0.0404 -0.176769,-0.018 -0.176769,0.13344 -0.176769,-0.55905 -0.176769,-0.0389 -0.176769,0.0402 -0.176769,-0.29672 -0.176769,-1.20027 -0.176769,-0.0515 -0.176769,0.2937 -0.176769,-0.24878 -0.176769,-0.27738 -0.176769,0.54819 -0.176769,-0.12142 -0.176769,-0.28867 -0.176769,-0.57769 -0.176769,0.56456 -0.176769,-0.33507 -0.176769,0.85511 -0.176769,0.47504 -0.176769,0.1404 -0.176769,-0.73463 -0.176769,0.40843 -0.176769,-1.1763 -0.176769,3.27626 -0.176769,1.67945 -0.176769,0.004 -0.176769,1.12417 -0.176769,-0.6798 -0.176769,-1.08452 -0.176769,0.1604 z"
         style="stroke:#0000ff;stroke-opacity:0.5" />
    </defs>
    <g
       clip-path="url(#pbb5d9f0cd7)"
       id="g19">
      <use
         xlink:href="#mc004621e64"
         x="0"
         y="302.39999"
         style="fill:#0000ff;fill-opacity:0.5;stroke:#0000ff;stroke-opacity:0.5"
         id="use17"
         width="100%"
         height="100%" />
    </g>
  </g>
  <g
     id="PolyCollection_2">
    <path
       d="m 80.207516,85.530373 v 23.874977 l 0.176769,0.6412 v -25.401385 0 z"
       clip-path="url(#pbb5d9f0cd7)"
       style="fill:#008000;fill-opacity:0.5;stroke:#008000;stroke-opacity:0.5"
       id="path22" />
    <path
       d="m 80.737823,83.291296 v 19.018274 l 0.176769,2.4287 0.176769,2.20323 0.176769,-2.36367 v -27.207773 0 l -0.176769,0.619661 -0.176769,1.166409 z"
       clip-path="url(#pbb5d9f0cd7)"
       style="fill:#008000;fill-opacity:0.5;stroke:#008000;stroke-opacity:0.5"
       id="path24" />
    <path
       d="m 82.859051,83.591032 v 23.816508 l 0.176769,-2.34022 0.176769,0.26892 0.176769,0.94395 0.176769,-1.92086 0.176769,-0.79139 0.176769,-0.39648 0.176769,-0.37875 0.176769,0.22317 0.176769,-2.46916 0.176769,0.0664 0.176769,0.87071 0.176769,-0.18255 0.176769,0.94274 0.176769,-1.96531 0.176769,1.9905 0.176769,0.20371 0.176769,-0.87907 7.070761,2.62987 7.070765,-0.53337 7.07076,-3.2604 7.07076,-2.689558 7.07076,2.501288 7.07076,3.29448 7.07076,5.80016 7.07076,-5.82091 7.07076,-0.78519 7.07076,-0.87875 7.07076,-2.37635 7.07076,0.98097 7.07076,-0.789575 7.07076,0.953125 7.07076,1.54012 7.07076,-0.86237 7.07077,0.58036 7.07076,-0.40785 7.07076,0.73776 7.07076,-0.12757 7.07076,-0.45648 7.07076,-0.50824 7.07076,0.78522 7.07076,-0.4227 7.07076,1.22247 7.07076,-0.94162 7.07076,-0.2664 7.07076,-2.288844 7.07076,1.450624 7.07076,-0.16939 7.07076,2.72925 7.07077,-1.28872 7.07076,-0.99385 7.07076,0.37509 7.07076,0.61357 7.07076,-1.12654 7.07076,1.86787 7.07076,-1.74413 7.07076,-0.24879 7.07076,0.65397 7.07076,0.281 7.07076,1.13488 7.07076,-1.77143 7.07076,1.0656 7.07076,-0.46658 7.07077,0.23975 7.07076,-0.96695 7.07076,1.06374 v -11.146664 0 l -7.07076,0.343887 -7.07076,0.06165 -7.07077,0.236439 -7.07076,0.848528 -7.07076,0.18958 -7.07076,-1.089209 -7.07076,1.012823 -7.07076,0.184804 -7.07076,0.626488 -7.07076,0.446909 -7.07076,-2.503178 -7.07076,0.837345 -7.07076,-0.479877 -7.07076,1.176963 -7.07076,-1.750997 -7.07076,0.04476 -7.07077,0.688767 -7.07076,-0.234459 -7.07076,-0.149346 -7.07076,0.273517 -7.07076,-1.095379 -7.07076,1.27718 -7.07076,0.245371 -7.07076,-0.146043 -7.07076,0.883043 -7.07076,-1.195174 -7.07076,0.616916 -7.07076,-2.658169 -7.07076,-0.246262 -7.07076,0.754208 -7.07076,0.782298 -7.07077,-0.861867 -7.07076,1.444265 -7.07076,0.643446 -7.07076,-1.839545 -7.07076,-0.03932 -7.07076,-0.882901 -7.07076,-2.01756 -7.07076,-1.725546 -7.07076,-1.078908 -7.07076,-1.329864 -7.07076,1.634219 -7.07076,1.282678 -7.07076,0.410752 -7.07076,1.240578 -7.07076,-0.234257 -7.070765,1.102133 -7.070761,0.520921 -0.176769,1.185892 -0.176769,-0.166069 -0.176769,0.02785 -0.176769,-0.203538 -0.176769,-0.603103 -0.176769,0.273125 -0.176769,-0.907436 -0.176769,0.194848 -0.176769,-1.626832 -0.176769,0.233488 -0.176769,-0.76384 -0.176769,0.305336 -0.176769,-1.442428 -0.176769,-3.428435 -0.176769,1.067599 -0.176769,1.416642 z"
       clip-path="url(#pbb5d9f0cd7)"
       style="fill:#008000;fill-opacity:0.5;stroke:#008000;stroke-opacity:0.5"
       id="path26" />
  </g>
  <g
     id="matplotlib.axis_1">
    <g
       id="xtick_1">
      <g
         id="line2d_1">
        <defs
           id="defs30">
          <path
             id="mb677b21bc4"
             d="M 0,0 V 3.5"
             style="stroke:#000000;stroke-width:0.8" />
        </defs>
        <g
           id="g34">
          <use
             xlink:href="#mb677b21bc4"
             x="78.793365"
             y="142.12801"
             style="stroke:#000000;stroke-width:0.8"
             id="use32"
             width="100%"
             height="100%" />
        </g>
      </g>
      <g
         id="text_1">
        <!-- $\mathdefault{0}$ -->
        <g
           transform="matrix(0.16,0,0,-0.16,74.89137,160.19759)"
           id="g42">
          <defs
             id="defs38">
            <path
               id="CMR17-30"
               d="m 2688,2025 c 0,391 -6,1055 -275,1566 -237,448 -615,607 -947,607 -308,0 -698,-140 -941,-601 C 269,3118 243,2524 243,2025 c 0,-364 7,-919 205,-1406 275,-658 768,-747 1018,-747 294,0 742,121 1004,728 192,442 218,959 218,1425 z M 1466,-26 c -410,0 -653,351 -743,838 -70,376 -70,926 -70,1284 0,492 0,901 83,1291 122,542 480,709 730,709 262,0 601,-173 723,-696 83,-364 89,-793 89,-1304 0,-416 0,-927 -76,-1304 C 2067,95 1690,-26 1466,-26 Z"
               transform="scale(0.015625)" />
          </defs>
          <use
             xlink:href="#CMR17-30"
             transform="scale(0.996264)"
             id="use40"
             x="0"
             y="0"
             width="100%"
             height="100%" />
        </g>
      </g>
    </g>
    <g
       id="xtick_2">
      <g
         id="line2d_2">
        <g
           id="g48">
          <use
             xlink:href="#mb677b21bc4"
             x="149.50098"
             y="142.12801"
             style="stroke:#000000;stroke-width:0.8"
             id="use46"
             width="100%"
             height="100%" />
        </g>
      </g>
      <g
         id="text_2">
        <!-- $\mathdefault{2000}$ -->
        <g
           transform="matrix(0.16,0,0,-0.16,133.893,160.19759)"
           id="g62">
          <defs
             id="defs52">
            <path
               id="CMR17-32"
               d="M 2669,989 H 2554 C 2490,536 2438,459 2413,420 2381,369 1920,369 1830,369 H 602 c 230,250 678,703 1222,1228 390,370 845,805 845,1438 0,755 -602,1189 -1274,1189 -704,0 -1133,-620 -1133,-1194 0,-250 186,-282 263,-282 64,0 256,39 256,262 0,197 -167,254 -256,254 -39,0 -77,-6 -103,-19 122,545 493,813 884,813 556,0 921,-441 921,-1023 0,-556 -326,-1035 -691,-1451 L 262,146 V 0 h 2253 z"
               transform="scale(0.015625)" />
          </defs>
          <use
             xlink:href="#CMR17-32"
             transform="scale(0.996264)"
             id="use54"
             x="0"
             y="0"
             width="100%"
             height="100%" />
          <use
             xlink:href="#CMR17-30"
             transform="matrix(0.996264,0,0,0.996264,45.690477,0)"
             id="use56"
             x="0"
             y="0"
             width="100%"
             height="100%" />
          <use
             xlink:href="#CMR17-30"
             transform="matrix(0.996264,0,0,0.996264,91.380954,0)"
             id="use58"
             x="0"
             y="0"
             width="100%"
             height="100%" />
          <use
             xlink:href="#CMR17-30"
             transform="matrix(0.996264,0,0,0.996264,137.07143,0)"
             id="use60"
             x="0"
             y="0"
             width="100%"
             height="100%" />
        </g>
      </g>
    </g>
    <g
       id="xtick_3">
      <g
         id="line2d_3">
        <g
           id="g68">
          <use
             xlink:href="#mb677b21bc4"
             x="220.20857"
             y="142.12801"
             style="stroke:#000000;stroke-width:0.8"
             id="use66"
             width="100%"
             height="100%" />
        </g>
      </g>
      <g
         id="text_3">
        <!-- $\mathdefault{4000}$ -->
        <g
           transform="matrix(0.16,0,0,-0.16,204.6006,160.19759)"
           id="g82">
          <defs
             id="defs72">
            <path
               id="CMR17-34"
               d="m 2150,4122 c 0,134 -6,134 -121,134 L 128,1254 V 1088 H 1779 V 457 c 0,-233 -13,-297 -461,-297 H 1197 V 0 c 205,0 550,0 768,0 217,0 563,0 768,0 v 160 h -122 c -448,0 -461,64 -461,297 v 631 h 653 v 166 H 2150 Z M 1798,3703 V 1254 H 256 Z"
               transform="scale(0.015625)" />
          </defs>
          <use
             xlink:href="#CMR17-34"
             transform="scale(0.996264)"
             id="use74"
             x="0"
             y="0"
             width="100%"
             height="100%" />
          <use
             xlink:href="#CMR17-30"
             transform="matrix(0.996264,0,0,0.996264,45.690477,0)"
             id="use76"
             x="0"
             y="0"
             width="100%"
             height="100%" />
          <use
             xlink:href="#CMR17-30"
             transform="matrix(0.996264,0,0,0.996264,91.380954,0)"
             id="use78"
             x="0"
             y="0"
             width="100%"
             height="100%" />
          <use
             xlink:href="#CMR17-30"
             transform="matrix(0.996264,0,0,0.996264,137.07143,0)"
             id="use80"
             x="0"
             y="0"
             width="100%"
             height="100%" />
        </g>
      </g>
    </g>
    <g
       id="xtick_4">
      <g
         id="line2d_4">
        <g
           id="g88">
          <use
             xlink:href="#mb677b21bc4"
             x="290.9162"
             y="142.12801"
             style="stroke:#000000;stroke-width:0.8"
             id="use86"
             width="100%"
             height="100%" />
        </g>
      </g>
      <g
         id="text_4">
        <!-- $\mathdefault{6000}$ -->
        <g
           transform="matrix(0.16,0,0,-0.16,275.30821,160.19759)"
           id="g102">
          <defs
             id="defs92">
            <path
               id="CMR17-36"
               d="m 678,2176 c 0,1514 717,1856 1133,1856 135,0 461,-23 589,-256 -102,0 -294,0 -294,-223 0,-172 140,-230 230,-230 58,0 230,25 230,237 0,394 -320,619 -761,619 -762,0 -1562,-789 -1562,-2195 0,-1731 723,-2112 1235,-2112 621,0 1210,555 1210,1411 0,798 -518,1379 -1171,1379 -391,0 -679,-255 -839,-702 z M 1478,25 c -787,0 -787,1175 -787,1411 0,460 218,1124 813,1124 109,0 422,0 634,-440 115,-250 115,-511 115,-831 0,-345 0,-599 -135,-855 C 1978,171 1773,25 1478,25 Z"
               transform="scale(0.015625)" />
          </defs>
          <use
             xlink:href="#CMR17-36"
             transform="scale(0.996264)"
             id="use94"
             x="0"
             y="0"
             width="100%"
             height="100%" />
          <use
             xlink:href="#CMR17-30"
             transform="matrix(0.996264,0,0,0.996264,45.690477,0)"
             id="use96"
             x="0"
             y="0"
             width="100%"
             height="100%" />
          <use
             xlink:href="#CMR17-30"
             transform="matrix(0.996264,0,0,0.996264,91.380954,0)"
             id="use98"
             x="0"
             y="0"
             width="100%"
             height="100%" />
          <use
             xlink:href="#CMR17-30"
             transform="matrix(0.996264,0,0,0.996264,137.07143,0)"
             id="use100"
             x="0"
             y="0"
             width="100%"
             height="100%" />
        </g>
      </g>
    </g>
    <g
       id="xtick_5">
      <g
         id="line2d_5">
        <g
           id="g108">
          <use
             xlink:href="#mb677b21bc4"
             x="361.62378"
             y="142.12801"
             style="stroke:#000000;stroke-width:0.8"
             id="use106"
             width="100%"
             height="100%" />
        </g>
      </g>
      <g
         id="text_5">
        <!-- $\mathdefault{8000}$ -->
        <g
           transform="matrix(0.16,0,0,-0.16,346.01582,160.19759)"
           id="g122">
          <defs
             id="defs112">
            <path
               id="CMR17-38"
               d="m 1741,2264 c 403,203 813,509 813,999 0,578 -564,916 -1082,916 -582,0 -1094,-420 -1094,-999 0,-159 38,-433 288,-675 64,-63 332,-254 505,-375 C 883,1983 211,1634 211,934 211,279 838,-128 1459,-128 c 685,0 1261,490 1261,1138 0,580 -390,847 -646,1019 z m -839,558 c -51,32 -307,229 -307,529 0,388 403,681 864,681 506,0 877,-356 877,-770 0,-593 -666,-931 -698,-931 -6,0 -12,0 -64,39 z M 2080,1519 c 96,-70 403,-279 403,-668 C 2483,381 2010,25 1472,25 890,25 448,438 448,940 c 0,503 390,922 832,1120 z"
               transform="scale(0.015625)" />
          </defs>
          <use
             xlink:href="#CMR17-38"
             transform="scale(0.996264)"
             id="use114"
             x="0"
             y="0"
             width="100%"
             height="100%" />
          <use
             xlink:href="#CMR17-30"
             transform="matrix(0.996264,0,0,0.996264,45.690477,0)"
             id="use116"
             x="0"
             y="0"
             width="100%"
             height="100%" />
          <use
             xlink:href="#CMR17-30"
             transform="matrix(0.996264,0,0,0.996264,91.380954,0)"
             id="use118"
             x="0"
             y="0"
             width="100%"
             height="100%" />
          <use
             xlink:href="#CMR17-30"
             transform="matrix(0.996264,0,0,0.996264,137.07143,0)"
             id="use120"
             x="0"
             y="0"
             width="100%"
             height="100%" />
        </g>
      </g>
    </g>
    <g
       id="xtick_6">
      <g
         id="line2d_6">
        <g
           id="g128">
          <use
             xlink:href="#mb677b21bc4"
             x="432.33139"
             y="142.12801"
             style="stroke:#000000;stroke-width:0.8"
             id="use126"
             width="100%"
             height="100%" />
        </g>
      </g>
      <g
         id="text_6">
        <!-- $\mathdefault{10000}$ -->
        <g
           transform="matrix(0.16,0,0,-0.16,412.82143,160.19759)"
           id="g144">
          <defs
             id="defs132">
            <path
               id="CMR17-31"
               d="m 1702,4058 c 0,134 -6,134 -96,134 -249,-276 -627,-365 -985,-365 -19,0 -51,0 -58,-19 -6,-13 -6,-26 -6,-160 198,0 531,38 787,191 V 461 C 1344,236 1331,160 781,160 H 589 V 0 c 307,0 627,0 934,0 307,0 627,0 935,0 v 160 h -192 c -551,0 -564,70 -564,298 z"
               transform="scale(0.015625)" />
          </defs>
          <use
             xlink:href="#CMR17-31"
             transform="scale(0.996264)"
             id="use134"
             x="0"
             y="0"
             width="100%"
             height="100%" />
          <use
             xlink:href="#CMR17-30"
             transform="matrix(0.996264,0,0,0.996264,45.690477,0)"
             id="use136"
             x="0"
             y="0"
             width="100%"
             height="100%" />
          <use
             xlink:href="#CMR17-30"
             transform="matrix(0.996264,0,0,0.996264,91.380954,0)"
             id="use138"
             x="0"
             y="0"
             width="100%"
             height="100%" />
          <use
             xlink:href="#CMR17-30"
             transform="matrix(0.996264,0,0,0.996264,137.07143,0)"
             id="use140"
             x="0"
             y="0"
             width="100%"
             height="100%" />
          <use
             xlink:href="#CMR17-30"
             transform="matrix(0.996264,0,0,0.996264,182.76191,0)"
             id="use142"
             x="0"
             y="0"
             width="100%"
             height="100%" />
        </g>
      </g>
    </g>
  </g>
  <g
     id="matplotlib.axis_2">
    <g
       id="ytick_1">
      <g
         id="line2d_7">
        <defs
           id="defs150">
          <path
             id="m87df3fded0"
             d="M 0,0 H -3.5"
             style="stroke:#000000;stroke-width:0.8" />
        </defs>
        <g
           id="g154">
          <use
             xlink:href="#m87df3fded0"
             x="61.470001"
             y="142.12801"
             style="stroke:#000000;stroke-width:0.8"
             id="use152"
             width="100%"
             height="100%" />
        </g>
      </g>
      <g
         id="text_7">
        <!-- $\mathdefault{0.0}$ -->
        <g
           transform="matrix(0.16,0,0,-0.16,34.526478,147.66279)"
           id="g166">
          <defs
             id="defs158">
            <path
               id="CMMI12-3a"
               d="M 1178,307 C 1178,492 1024,619 870,619 685,619 557,466 557,313 557,128 710,0 864,0 c 186,0 314,153 314,307 z"
               transform="scale(0.015625)" />
          </defs>
          <use
             xlink:href="#CMR17-30"
             transform="scale(0.996264)"
             id="use160"
             x="0"
             y="0"
             width="100%"
             height="100%" />
          <use
             xlink:href="#CMMI12-3a"
             transform="matrix(0.996264,0,0,0.996264,45.690477,0)"
             id="use162"
             x="0"
             y="0"
             width="100%"
             height="100%" />
          <use
             xlink:href="#CMR17-30"
             transform="matrix(0.996264,0,0,0.996264,72.787654,0)"
             id="use164"
             x="0"
             y="0"
             width="100%"
             height="100%" />
        </g>
      </g>
    </g>
    <g
       id="ytick_2">
      <g
         id="line2d_8">
        <g
           id="g172">
          <use
             xlink:href="#m87df3fded0"
             x="61.470001"
             y="89.208"
             style="stroke:#000000;stroke-width:0.8"
             id="use170"
             width="100%"
             height="100%" />
        </g>
      </g>
      <g
         id="text_8">
        <!-- $\mathdefault{0.5}$ -->
        <g
           transform="matrix(0.16,0,0,-0.16,34.526478,94.742794)"
           id="g184">
          <defs
             id="defs176">
            <path
               id="CMR17-35"
               d="m 730,3692 c 64,-26 326,-108 595,-108 595,0 921,327 1107,516 0,57 0,92 -38,92 -7,0 -20,0 -71,-29 -224,-105 -486,-190 -806,-190 -192,0 -480,26 -794,166 -70,32 -83,32 -89,32 -32,0 -39,-7 -39,-134 V 2203 c 0,-114 0,-146 64,-146 32,0 45,13 77,57 205,287 486,408 806,408 224,0 704,-140 704,-1233 0,-204 0,-574 -192,-868 C 1894,159 1645,25 1370,25 947,25 518,320 403,814 c 26,-7 77,-19 103,-19 83,0 243,45 243,243 0,172 -122,242 -243,242 -148,0 -244,-90 -244,-269 0,-557 442,-1139 1120,-1139 660,0 1287,568 1287,1392 0,766 -499,1360 -1120,1360 -327,0 -602,-121 -819,-350 z"
               transform="scale(0.015625)" />
          </defs>
          <use
             xlink:href="#CMR17-30"
             transform="scale(0.996264)"
             id="use178"
             x="0"
             y="0"
             width="100%"
             height="100%" />
          <use
             xlink:href="#CMMI12-3a"
             transform="matrix(0.996264,0,0,0.996264,45.690477,0)"
             id="use180"
             x="0"
             y="0"
             width="100%"
             height="100%" />
          <use
             xlink:href="#CMR17-35"
             transform="matrix(0.996264,0,0,0.996264,72.787654,0)"
             id="use182"
             x="0"
             y="0"
             width="100%"
             height="100%" />
        </g>
      </g>
    </g>
    <g
       id="ytick_3">
      <g
         id="line2d_9">
        <g
           id="g190">
          <use
             xlink:href="#m87df3fded0"
             x="61.470001"
             y="36.287998"
             style="stroke:#000000;stroke-width:0.8"
             id="use188"
             width="100%"
             height="100%" />
        </g>
      </g>
      <g
         id="text_9">
        <!-- $\mathdefault{1.0}$ -->
        <g
           transform="matrix(0.16,0,0,-0.16,34.526478,41.822794)"
           id="g199">
          <use
             xlink:href="#CMR17-31"
             transform="scale(0.996264)"
             id="use193"
             x="0"
             y="0"
             width="100%"
             height="100%" />
          <use
             xlink:href="#CMMI12-3a"
             transform="matrix(0.996264,0,0,0.996264,45.690477,0)"
             id="use195"
             x="0"
             y="0"
             width="100%"
             height="100%" />
          <use
             xlink:href="#CMR17-30"
             transform="matrix(0.996264,0,0,0.996264,72.787654,0)"
             id="use197"
             x="0"
             y="0"
             width="100%"
             height="100%" />
        </g>
      </g>
    </g>
  </g>
  <g
     id="line2d_10">
    <path
       d="m 78.793364,51.501398 0.176769,-0.186289 0.176769,0.657237 0.176769,0.425724 0.176769,0.620798 0.176769,0.628394 0.176769,-0.07316 0.176769,-0.645106 0.176769,-1.309024 0.176769,-2.606893 0.176769,-1.815427 0.176769,-1.352464 0.176769,-0.418029 0.176769,-0.195617 0.176769,0.01397 0.176769,-0.232611 0.176769,-0.208253 0.176769,0.439267 0.176769,0.24689 0.176769,0.80985 0.176769,-0.586306 0.176769,-0.481149 0.176769,0.679214 0.176769,-0.313445 0.176769,0.831224 0.176769,0.707668 0.176769,0.108366 0.176769,0.161473 0.176769,-0.165905 0.176769,0.231502 0.176769,-0.308422 0.176769,0.336737 0.176769,0.05689 0.176769,-0.220001 0.176769,-0.251486 0.176769,0.0388 0.176769,-0.439796 0.176769,-0.68817 0.176769,0.321032 0.176769,-0.348366 0.176769,-0.09781 7.070761,-1.533436 7.070765,-0.746904 7.07076,-0.747338 7.07076,0.585214 7.07076,-0.470584 7.07076,-0.186025 7.07076,-0.628713 7.07076,0.208694 7.07076,-1.031071 7.07076,0.370913 7.07076,0.277086 7.07076,-0.482787 7.07076,0.03062 7.07076,-0.39515 7.07076,-0.590709 7.07076,-0.238025 7.07077,-0.507215 7.07076,0.221187 7.07076,-0.444237 7.07076,-0.772101 7.07076,0.737844 7.07076,-0.293369 7.07076,0.01033 7.07076,-0.368713 7.07076,-0.227641 7.07076,0.0448 7.07076,-0.566598 7.07076,0.378745 7.07076,-0.474272 7.07076,-0.132485 7.07076,-0.19112 7.07077,-0.32486 7.07076,0.100697 7.07076,-0.148605 7.07076,0.09619 7.07076,-0.267461 7.07076,0.614042 7.07076,0.193304 7.07076,-0.437366 7.07076,0.01308 7.07076,0.03558 7.07076,0.0886 7.07076,-0.15308 7.07076,0.116338 7.07076,0.06818 7.07077,-0.05438 7.07076,0.128635 7.07076,-0.174179"
       clip-path="url(#pbb5d9f0cd7)"
       style="fill:none;stroke:#0000ff;stroke-width:1.5;stroke-linecap:square"
       id="path204" />
  </g>
  <g
     id="line2d_11">
    <path
       d="m 80.207516,97.467861 0.176769,-0.122005 m 0.353538,-4.545421 0.176769,-0.853234 0.176769,0.518406 0.176769,-1.491666 m 1.590921,4.525345 0.176769,-0.679896 0.176769,-0.573861 0.176769,-0.06183 0.176769,0.753789 0.176769,0.325519 0.176769,-0.350906 0.176769,0.192546 0.176769,-0.0052 0.176769,-0.421165 0.176769,-0.06424 0.176769,0.889071 0.176769,-0.227837 0.176769,0.772922 0.176769,-0.880885 0.176769,0.981324 0.176769,0.184888 0.176769,-1.03248 7.070761,1.054474 7.070765,-0.817749 7.07076,-1.513073 7.07076,-1.965068 7.07076,1.045267 7.07076,1.005901 7.07076,2.082972 7.07076,-2.245524 7.07076,0.146862 7.07076,0.423396 7.07076,-0.179395 7.07076,0.931933 7.07076,-0.375126 7.07076,1.396337 7.07076,0.448334 7.07076,-1.153317 7.07077,0.721112 7.07076,-0.595072 7.07076,-0.0082 7.07076,0.05935 7.07076,1.100844 7.07076,-0.56258 7.07076,0.990196 7.07076,-0.652872 7.07076,0.684259 7.07076,-0.593494 7.07076,-0.771793 7.07076,-0.596731 7.07076,0.588555 7.07076,-0.01002 7.07076,1.481852 7.07077,-0.988744 7.07076,-0.519299 7.07076,1.063041 7.07076,-0.281697 7.07076,-0.32333 7.07076,0.515263 7.07076,0.37952 7.07076,-0.347846 7.07076,0.01374 7.07076,0.0481 7.07076,0.06103 7.07076,-0.341112 7.07076,0.438012 7.07076,-0.657553 7.07077,0.0017 7.07076,-0.514302 7.07076,0.359928"
       clip-path="url(#pbb5d9f0cd7)"
       style="fill:none;stroke:#008000;stroke-width:1.5;stroke-linecap:square"
       id="path207" />
  </g>
  <g
     id="patch_3">
    <path
       d="M 61.47,142.128 V 36.288"
       style="fill:none;stroke:#000000;stroke-width:0.8;stroke-linecap:square;stroke-linejoin:miter"
       id="path210" />
  </g>
  <g
     id="patch_4">
    <path
       d="M 442.584,142.128 V 36.288"
       style="fill:none;stroke:#000000;stroke-width:0.8;stroke-linecap:square;stroke-linejoin:miter"
       id="path213" />
  </g>
  <g
     id="patch_5">
    <path
       d="M 61.47,142.128 H 442.584"
       style="fill:none;stroke:#000000;stroke-width:0.8;stroke-linecap:square;stroke-linejoin:miter"
       id="path216" />
  </g>
  <g
     id="patch_6">
    <path
       d="M 61.47,36.288 H 442.584"
       style="fill:none;stroke:#000000;stroke-width:0.8;stroke-linecap:square;stroke-linejoin:miter"
       id="path219" />
  </g>
  <g
     id="patch_8">
    <path
       d="M 61.47,269.136 H 442.584 V 163.296 H 61.47 Z"
       style="fill:#ffffff"
       id="path337" />
  </g>
  <g
     id="PolyCollection_3">
    <defs
       id="defs341">
      <path
         id="mc595987759"
         d="m 78.793364,-134.95665 v 4.01879 l 0.176769,0.3017 0.176769,-1.20194 0.176769,2.07422 0.176769,0.12696 0.176769,0.18223 0.176769,0.54268 0.176769,1.03319 0.176769,-1.88375 0.176769,2.34174 0.176769,-0.81919 0.176769,0.29713 0.176769,0.6567 0.176769,-0.63891 0.176769,0.44323 0.176769,-0.27149 0.176769,0.089 0.176769,0.44623 0.176769,0.16903 0.176769,-0.28778 0.176769,-0.79259 0.176769,0.1269 0.176769,-0.74552 0.176769,-0.35597 0.176769,-0.46571 0.176769,0.13876 0.176769,-0.92975 0.176769,-0.0486 0.176769,-0.64589 0.176769,0.50302 0.176769,0.46557 0.176769,-0.2439 0.176769,0.51729 0.176769,0.0212 0.176769,0.17202 0.176769,0.004 0.176769,-0.0872 0.176769,0.30427 0.176769,0.16374 0.176769,-0.46381 0.176769,-0.1146 7.070761,0.31255 7.070765,-1.38629 7.07076,-0.48831 7.07076,-1.12177 7.07076,-0.49818 7.07076,-1.26495 7.07076,1.08955 7.07076,0.9778 7.07076,-0.76623 7.07076,-0.16001 7.07076,-0.297 7.07076,-0.0645 7.07076,0.70534 7.07076,-0.0526 7.07076,0.17438 7.07076,-2.08108 7.07077,-0.87781 7.07076,-0.4179 7.07076,0.53216 7.07076,-0.57194 7.07076,-0.44536 7.07076,-0.27408 7.07076,0.0757 7.07076,-0.32083 7.07076,0.0992 7.07076,-0.16975 7.07076,-0.0388 7.07076,0.56856 7.07076,-0.66772 7.07076,0.18612 7.07076,0.42215 7.07077,-0.24519 7.07076,0.039 7.07076,-0.13252 7.07076,-0.52106 7.07076,0.67131 7.07076,-0.0789 7.07076,0.0483 7.07076,-0.0983 7.07076,-0.73983 7.07076,0.79572 7.07076,0.1035 7.07076,-0.17632 7.07076,0.027 7.07076,0.0461 7.07077,-0.0169 7.07076,-0.22623 7.07076,-0.12769 v -1.44766 0 l -7.07076,0.27602 -7.07076,0.13562 -7.07077,0.16651 -7.07076,0.002 -7.07076,-0.14018 -7.07076,0.20699 -7.07076,-0.10963 -7.07076,-0.62292 -7.07076,0.91304 -7.07076,-0.75318 -7.07076,0.24782 -7.07076,0.18733 -7.07076,-0.42099 -7.07076,-0.0427 -7.07076,0.49915 -7.07076,-0.33172 -7.07077,0.46383 -7.07076,-0.0754 -7.07076,-0.1816 -7.07076,0.66838 -7.07076,-0.97168 -7.07076,0.50292 -7.07076,-0.13495 -7.07076,-0.29201 -7.07076,0.21535 -7.07076,-0.0816 -7.07076,0.23209 -7.07076,-0.65446 -7.07076,0.5334 -7.07076,0.23483 -7.07076,-0.31986 -7.07077,-0.56833 -7.07076,0.14211 -7.07076,-0.39801 -7.07076,0.36781 -7.07076,0.0779 -7.07076,0.0529 -7.07076,-0.97338 -7.07076,0.80792 -7.07076,0.64859 -7.07076,-0.58019 -7.07076,0.002 -7.07076,-0.28915 -7.07076,-1.06637 -7.07076,1.77523 -7.07076,0.19045 -7.070765,1.31152 -7.070761,0.77799 -0.176769,0.68909 -0.176769,0.0708 -0.176769,0.30739 -0.176769,-0.5224 -0.176769,0.0255 -0.176769,0.50429 -0.176769,-0.57621 -0.176769,0.5031 -0.176769,0.46058 -0.176769,0.17452 -0.176769,0.14185 -0.176769,0.66525 -0.176769,-0.324 -0.176769,-0.53796 -0.176769,0.13641 -0.176769,0.6498 -0.176769,-0.2145 -0.176769,0.12574 -0.176769,-0.31306 -0.176769,0.0406 -0.176769,-0.16589 -0.176769,0.63857 -0.176769,-0.0608 -0.176769,-0.55624 -0.176769,0.42321 -0.176769,0.45525 -0.176769,-0.0164 -0.176769,-0.70106 -0.176769,1.51442 -0.176769,-0.11644 -0.176769,0.53687 -0.176769,0.66159 -0.176769,-0.94334 -0.176769,-0.93808 -0.176769,-0.89828 -0.176769,1.72017 -0.176769,-0.73213 -0.176769,-1.56879 -0.176769,0.22123 z"
         style="stroke:#ff0000;stroke-opacity:0.5" />
    </defs>
    <g
       clip-path="url(#p6fc2713150)"
       id="g345">
      <use
         xlink:href="#mc595987759"
         x="0"
         y="302.39999"
         style="fill:#ff0000;fill-opacity:0.5;stroke:#ff0000;stroke-opacity:0.5"
         id="use343"
         width="100%"
         height="100%" />
    </g>
  </g>
  <g
     id="PolyCollection_4">
    <defs
       id="defs349">
      <path
         id="m35ecf4caa1"
         d="m 78.793364,-120.21905 v 5.0629 l 0.176769,-0.17432 0.176769,1.38046 0.176769,0.31358 0.176769,0.26712 0.176769,1.58928 0.176769,-0.62539 0.176769,0.19508 0.176769,0.6679 0.176769,0.0147 0.176769,-1.18686 0.176769,-0.98213 0.176769,0.5559 0.176769,-2.05643 0.176769,-0.81924 0.176769,0.17727 0.176769,-0.25598 0.176769,0.0292 0.176769,-0.15873 0.176769,-0.39077 0.176769,0.0318 0.176769,-0.12622 0.176769,-0.18422 0.176769,-0.57723 0.176769,-0.63082 0.176769,-0.56868 0.176769,-0.4904 0.176769,0.20866 0.176769,-0.38987 0.176769,-0.0655 0.176769,-0.33149 0.176769,-0.0627 0.176769,0.61994 0.176769,-0.61997 0.176769,0.0545 0.176769,0.42754 0.176769,0.15451 0.176769,-0.63365 0.176769,-0.11972 0.176769,-0.16088 0.176769,0.11091 7.070761,-1.28144 7.070765,-0.0174 7.07076,-0.003 7.07076,-0.41079 7.07076,-0.12617 7.07076,0.0185 7.07076,-0.16411 7.07076,0.0976 7.07076,-0.34356 7.07076,0.14161 7.07076,-0.0465 7.07076,0.41308 7.07076,-0.19426 7.07076,0.13574 7.07076,0.12714 7.07076,-0.35807 7.07077,0.27528 7.07076,0.14815 7.07076,-0.19033 7.07076,-0.0292 7.07076,0.1993 7.07076,-0.36569 7.07076,-0.0595 7.07076,0.19518 7.07076,0.39198 7.07076,-0.28512 7.07076,-0.0921 7.07076,-0.16439 7.07076,0.18925 7.07076,0.008 7.07076,0.20869 7.07077,-0.19515 7.07076,0.0916 7.07076,0.003 7.07076,-0.34115 7.07076,0.20587 7.07076,0.002 7.07076,0.0678 7.07076,-0.0139 7.07076,0.24443 7.07076,-0.0482 7.07076,0.0881 7.07076,-0.17423 7.07076,0.28506 7.07076,-0.19012 7.07077,-0.26689 7.07076,-0.0376 7.07076,0.0439 v -0.77051 0 l -7.07076,-0.20338 -7.07076,0.36851 -7.07077,0.11474 -7.07076,-0.25223 -7.07076,-0.0595 -7.07076,0.0682 -7.07076,-0.0692 -7.07076,-0.18645 -7.07076,-0.0841 -7.07076,0.0861 -7.07076,-0.32813 -7.07076,0.37343 -7.07076,-0.12466 -7.07076,0.22899 -7.07076,0.16522 -7.07076,-0.30624 -7.07077,0.30351 -7.07076,-0.4553 -7.07076,0.0747 -7.07076,0.12238 -7.07076,-0.28126 -7.07076,0.65328 -7.07076,-0.0662 -7.07076,-0.45799 -7.07076,0.24783 -7.07076,0.11494 -7.07076,-0.0892 -7.07076,-0.10591 -7.07076,-0.12443 -7.07076,0.41675 -7.07076,-0.54374 -7.07077,0.27114 -7.07076,0.30377 -7.07076,-0.10083 -7.07076,-0.23287 -7.07076,-0.0134 -7.07076,0.0804 -7.07076,-0.33213 -7.07076,-0.22564 -7.07076,0.114 -7.07076,0.074 -7.07076,-0.18724 -7.07076,-0.10716 -7.07076,-0.22765 -7.07076,0.21457 -7.07076,0.40676 -7.070765,-0.23644 -7.070761,0.34155 -0.176769,0.2166 -0.176769,-0.0166 -0.176769,0.12763 -0.176769,-0.053 -0.176769,0.0609 -0.176769,0.21316 -0.176769,-0.16945 -0.176769,-0.3789 -0.176769,0.39631 -0.176769,0.17124 -0.176769,-0.29002 -0.176769,-0.13295 -0.176769,0.46007 -0.176769,0.28638 -0.176769,-0.0844 -0.176769,0.19942 -0.176769,0.59377 -0.176769,-0.016 -0.176769,-0.025 -0.176769,0.29738 -0.176769,-0.29057 -0.176769,0.77886 -0.176769,-0.32031 -0.176769,0.58445 -0.176769,0.24358 -0.176769,-0.65349 -0.176769,0.92254 -0.176769,0.0464 -0.176769,0.66888 -0.176769,1.02842 -0.176769,-0.0729 -0.176769,-0.22988 -0.176769,0.58674 -0.176769,-0.4594 -0.176769,0.37474 -0.176769,-0.30983 -0.176769,-0.48785 -0.176769,-2.66661 -0.176769,0.26222 z"
         style="stroke:#000000;stroke-opacity:0.5" />
    </defs>
    <g
       clip-path="url(#p6fc2713150)"
       id="g353">
      <use
         xlink:href="#m35ecf4caa1"
         x="0"
         y="302.39999"
         style="fill-opacity:0.5;stroke:#000000;stroke-opacity:0.5"
         id="use351"
         width="100%"
         height="100%" />
    </g>
  </g>
  <g
     id="matplotlib.axis_3">
    <g
       id="xtick_7">
      <g
         id="line2d_14">
        <g
           id="g358">
          <use
             xlink:href="#mb677b21bc4"
             x="78.793365"
             y="269.13599"
             style="stroke:#000000;stroke-width:0.8"
             id="use356"
             width="100%"
             height="100%" />
        </g>
      </g>
      <g
         id="text_12">
        <!-- $\mathdefault{0}$ -->
        <g
           transform="matrix(0.16,0,0,-0.16,74.89137,287.20559)"
           id="g363">
          <use
             xlink:href="#CMR17-30"
             transform="scale(0.996264)"
             id="use361"
             x="0"
             y="0"
             width="100%"
             height="100%" />
        </g>
      </g>
    </g>
    <g
       id="xtick_8">
      <g
         id="line2d_15">
        <g
           id="g369">
          <use
             xlink:href="#mb677b21bc4"
             x="149.50098"
             y="269.13599"
             style="stroke:#000000;stroke-width:0.8"
             id="use367"
             width="100%"
             height="100%" />
        </g>
      </g>
      <g
         id="text_13">
        <!-- $\mathdefault{2000}$ -->
        <g
           transform="matrix(0.16,0,0,-0.16,133.893,287.20559)"
           id="g380">
          <use
             xlink:href="#CMR17-32"
             transform="scale(0.996264)"
             id="use372"
             x="0"
             y="0"
             width="100%"
             height="100%" />
          <use
             xlink:href="#CMR17-30"
             transform="matrix(0.996264,0,0,0.996264,45.690477,0)"
             id="use374"
             x="0"
             y="0"
             width="100%"
             height="100%" />
          <use
             xlink:href="#CMR17-30"
             transform="matrix(0.996264,0,0,0.996264,91.380954,0)"
             id="use376"
             x="0"
             y="0"
             width="100%"
             height="100%" />
          <use
             xlink:href="#CMR17-30"
             transform="matrix(0.996264,0,0,0.996264,137.07143,0)"
             id="use378"
             x="0"
             y="0"
             width="100%"
             height="100%" />
        </g>
      </g>
    </g>
    <g
       id="xtick_9">
      <g
         id="line2d_16">
        <g
           id="g386">
          <use
             xlink:href="#mb677b21bc4"
             x="220.20857"
             y="269.13599"
             style="stroke:#000000;stroke-width:0.8"
             id="use384"
             width="100%"
             height="100%" />
        </g>
      </g>
      <g
         id="text_14">
        <!-- $\mathdefault{4000}$ -->
        <g
           transform="matrix(0.16,0,0,-0.16,204.6006,287.20559)"
           id="g397">
          <use
             xlink:href="#CMR17-34"
             transform="scale(0.996264)"
             id="use389"
             x="0"
             y="0"
             width="100%"
             height="100%" />
          <use
             xlink:href="#CMR17-30"
             transform="matrix(0.996264,0,0,0.996264,45.690477,0)"
             id="use391"
             x="0"
             y="0"
             width="100%"
             height="100%" />
          <use
             xlink:href="#CMR17-30"
             transform="matrix(0.996264,0,0,0.996264,91.380954,0)"
             id="use393"
             x="0"
             y="0"
             width="100%"
             height="100%" />
          <use
             xlink:href="#CMR17-30"
             transform="matrix(0.996264,0,0,0.996264,137.07143,0)"
             id="use395"
             x="0"
             y="0"
             width="100%"
             height="100%" />
        </g>
      </g>
    </g>
    <g
       id="xtick_10">
      <g
         id="line2d_17">
        <g
           id="g403">
          <use
             xlink:href="#mb677b21bc4"
             x="290.9162"
             y="269.13599"
             style="stroke:#000000;stroke-width:0.8"
             id="use401"
             width="100%"
             height="100%" />
        </g>
      </g>
      <g
         id="text_15">
        <!-- $\mathdefault{6000}$ -->
        <g
           transform="matrix(0.16,0,0,-0.16,275.30821,287.20559)"
           id="g414">
          <use
             xlink:href="#CMR17-36"
             transform="scale(0.996264)"
             id="use406"
             x="0"
             y="0"
             width="100%"
             height="100%" />
          <use
             xlink:href="#CMR17-30"
             transform="matrix(0.996264,0,0,0.996264,45.690477,0)"
             id="use408"
             x="0"
             y="0"
             width="100%"
             height="100%" />
          <use
             xlink:href="#CMR17-30"
             transform="matrix(0.996264,0,0,0.996264,91.380954,0)"
             id="use410"
             x="0"
             y="0"
             width="100%"
             height="100%" />
          <use
             xlink:href="#CMR17-30"
             transform="matrix(0.996264,0,0,0.996264,137.07143,0)"
             id="use412"
             x="0"
             y="0"
             width="100%"
             height="100%" />
        </g>
      </g>
    </g>
    <g
       id="xtick_11">
      <g
         id="line2d_18">
        <g
           id="g420">
          <use
             xlink:href="#mb677b21bc4"
             x="361.62378"
             y="269.13599"
             style="stroke:#000000;stroke-width:0.8"
             id="use418"
             width="100%"
             height="100%" />
        </g>
      </g>
      <g
         id="text_16">
        <!-- $\mathdefault{8000}$ -->
        <g
           transform="matrix(0.16,0,0,-0.16,346.01582,287.20559)"
           id="g431">
          <use
             xlink:href="#CMR17-38"
             transform="scale(0.996264)"
             id="use423"
             x="0"
             y="0"
             width="100%"
             height="100%" />
          <use
             xlink:href="#CMR17-30"
             transform="matrix(0.996264,0,0,0.996264,45.690477,0)"
             id="use425"
             x="0"
             y="0"
             width="100%"
             height="100%" />
          <use
             xlink:href="#CMR17-30"
             transform="matrix(0.996264,0,0,0.996264,91.380954,0)"
             id="use427"
             x="0"
             y="0"
             width="100%"
             height="100%" />
          <use
             xlink:href="#CMR17-30"
             transform="matrix(0.996264,0,0,0.996264,137.07143,0)"
             id="use429"
             x="0"
             y="0"
             width="100%"
             height="100%" />
        </g>
      </g>
    </g>
    <g
       id="xtick_12">
      <g
         id="line2d_19">
        <g
           id="g437">
          <use
             xlink:href="#mb677b21bc4"
             x="432.33139"
             y="269.13599"
             style="stroke:#000000;stroke-width:0.8"
             id="use435"
             width="100%"
             height="100%" />
        </g>
      </g>
      <g
         id="text_17">
        <!-- $\mathdefault{10000}$ -->
        <g
           transform="matrix(0.16,0,0,-0.16,412.82143,287.20559)"
           id="g450">
          <use
             xlink:href="#CMR17-31"
             transform="scale(0.996264)"
             id="use440"
             x="0"
             y="0"
             width="100%"
             height="100%" />
          <use
             xlink:href="#CMR17-30"
             transform="matrix(0.996264,0,0,0.996264,45.690477,0)"
             id="use442"
             x="0"
             y="0"
             width="100%"
             height="100%" />
          <use
             xlink:href="#CMR17-30"
             transform="matrix(0.996264,0,0,0.996264,91.380954,0)"
             id="use444"
             x="0"
             y="0"
             width="100%"
             height="100%" />
          <use
             xlink:href="#CMR17-30"
             transform="matrix(0.996264,0,0,0.996264,137.07143,0)"
             id="use446"
             x="0"
             y="0"
             width="100%"
             height="100%" />
          <use
             xlink:href="#CMR17-30"
             transform="matrix(0.996264,0,0,0.996264,182.76191,0)"
             id="use448"
             x="0"
             y="0"
             width="100%"
             height="100%" />
        </g>
      </g>
    </g>
  </g>
  <g
     id="matplotlib.axis_4">
    <g
       id="ytick_4">
      <g
         id="line2d_20">
        <g
           id="g457">
          <use
             xlink:href="#m87df3fded0"
             x="61.470001"
             y="269.13599"
             style="stroke:#000000;stroke-width:0.8"
             id="use455"
             width="100%"
             height="100%" />
        </g>
      </g>
      <g
         id="text_18">
        <!-- $\mathdefault{0.0}$ -->
        <g
           transform="matrix(0.16,0,0,-0.16,34.526478,274.67079)"
           id="g466">
          <use
             xlink:href="#CMR17-30"
             transform="scale(0.996264)"
             id="use460"
             x="0"
             y="0"
             width="100%"
             height="100%" />
          <use
             xlink:href="#CMMI12-3a"
             transform="matrix(0.996264,0,0,0.996264,45.690477,0)"
             id="use462"
             x="0"
             y="0"
             width="100%"
             height="100%" />
          <use
             xlink:href="#CMR17-30"
             transform="matrix(0.996264,0,0,0.996264,72.787654,0)"
             id="use464"
             x="0"
             y="0"
             width="100%"
             height="100%" />
        </g>
      </g>
    </g>
    <g
       id="ytick_5">
      <g
         id="line2d_21">
        <g
           id="g472">
          <use
             xlink:href="#m87df3fded0"
             x="61.470001"
             y="216.216"
             style="stroke:#000000;stroke-width:0.8"
             id="use470"
             width="100%"
             height="100%" />
        </g>
      </g>
      <g
         id="text_19">
        <!-- $\mathdefault{0.5}$ -->
        <g
           transform="matrix(0.16,0,0,-0.16,34.526478,221.75079)"
           id="g481">
          <use
             xlink:href="#CMR17-30"
             transform="scale(0.996264)"
             id="use475"
             x="0"
             y="0"
             width="100%"
             height="100%" />
          <use
             xlink:href="#CMMI12-3a"
             transform="matrix(0.996264,0,0,0.996264,45.690477,0)"
             id="use477"
             x="0"
             y="0"
             width="100%"
             height="100%" />
          <use
             xlink:href="#CMR17-35"
             transform="matrix(0.996264,0,0,0.996264,72.787654,0)"
             id="use479"
             x="0"
             y="0"
             width="100%"
             height="100%" />
        </g>
      </g>
    </g>
    <g
       id="ytick_6">
      <g
         id="line2d_22">
        <g
           id="g487">
          <use
             xlink:href="#m87df3fded0"
             x="61.470001"
             y="163.29601"
             style="stroke:#000000;stroke-width:0.8"
             id="use485"
             width="100%"
             height="100%" />
        </g>
      </g>
      <g
         id="text_20">
        <!-- $\mathdefault{1.0}$ -->
        <g
           transform="matrix(0.16,0,0,-0.16,34.526478,168.83079)"
           id="g496">
          <use
             xlink:href="#CMR17-31"
             transform="scale(0.996264)"
             id="use490"
             x="0"
             y="0"
             width="100%"
             height="100%" />
          <use
             xlink:href="#CMMI12-3a"
             transform="matrix(0.996264,0,0,0.996264,45.690477,0)"
             id="use492"
             x="0"
             y="0"
             width="100%"
             height="100%" />
          <use
             xlink:href="#CMR17-30"
             transform="matrix(0.996264,0,0,0.996264,72.787654,0)"
             id="use494"
             x="0"
             y="0"
             width="100%"
             height="100%" />
        </g>
      </g>
    </g>
  </g>
  <g
     id="line2d_23">
    <path
       d="m 78.793364,169.45274 0.176769,0.32805 0.176769,-0.71158 0.176769,1.8215 0.176769,0.42955 0.176769,-0.76897 0.176769,0.72048 0.176769,0.98563 0.176769,-0.4702 0.176769,0.84007 0.176769,-0.67802 0.176769,0.20678 0.176769,-0.42886 0.176769,0.0311 0.176769,0.22984 0.176769,-0.36336 0.176769,-0.16711 0.176769,0.50125 0.176769,0.1149 0.176769,-0.46318 0.176769,-0.31335 0.176769,0.0431 0.176769,-0.21622 0.176769,-0.24086 0.176769,-0.12561 0.176769,-0.25551 0.176769,-0.53309 0.176769,0.24468 0.176769,-0.16094 0.176769,-0.0811 0.176769,0.16187 0.176769,-0.20922 0.176769,0.0284 0.176769,-0.24098 0.176769,0.37412 0.176769,-0.25015 0.176769,-0.0563 0.176769,0.41334 0.176769,-0.0718 0.176769,-0.26729 0.176769,-0.40184 7.070761,-0.23272 7.070765,-1.34891 7.07076,-0.33938 7.07076,-1.4485 7.07076,0.28409 7.07076,-0.48789 7.07076,0.54379 7.07076,0.77899 7.07076,-0.70741 7.07076,-0.48397 7.07076,0.3382 7.07076,-0.0587 7.07076,0.31375 7.07076,-0.2102 7.07076,0.28619 7.07076,-1.11159 7.07077,-0.15474 7.07076,-0.049 7.07076,0.14866 7.07076,-0.55267 7.07076,0.10455 7.07076,-0.25309 7.07076,0.0786 7.07076,-0.26808 7.07076,0.19562 7.07076,-0.0174 7.07076,-0.27086 7.07076,0.77012 7.07076,-0.66805 7.07076,0.18386 7.07076,0.24876 7.07077,-0.35451 7.07076,0.18533 7.07076,-0.31583 7.07076,-0.23919 7.07076,0.54615 7.07076,-0.1331 7.07076,-0.0998 7.07076,0.32743 7.07076,-0.82643 7.07076,0.70932 7.07076,0.10656 7.07076,-0.19166 7.07076,0.0836 7.07076,0.0218 7.07077,-0.0917 7.07076,-0.18093 7.07076,-0.20185"
       clip-path="url(#p6fc2713150)"
       style="fill:none;stroke:#ff0000;stroke-width:1.5;stroke-linecap:square"
       id="path501" />
  </g>
  <g
     id="line2d_24">
    <path
       d="m 78.793364,184.7124 0.176769,-0.45291 0.176769,0.55912 0.176769,1.4901 0.176769,0.37748 0.176769,0.94955 0.176769,-0.50006 0.176769,0.32724 0.176769,0.0406 0.176769,0.12226 0.176769,-0.55699 0.176769,-1.00527 0.176769,-0.0565 0.176769,-1.05142 0.176769,-0.87089 0.176769,0.41538 0.176769,-0.24978 0.176769,-0.27763 0.176769,0.0808 0.176769,-0.58482 0.176769,0.1612 0.176769,-0.21179 0.176769,-0.0796 0.176769,-0.28061 0.176769,-0.61229 0.176769,-0.38405 0.176769,-0.20302 0.176769,-0.0389 0.176769,-0.42496 0.176769,0.0337 0.176769,-0.0207 0.176769,-0.11696 0.176769,0.11182 0.176769,-0.12054 0.176769,0.11199 0.176769,0.10719 0.176769,0.0468 0.176769,-0.29032 0.176769,-0.12367 0.176769,-0.0721 0.176769,-0.0529 7.070761,-0.81148 7.070765,0.10952 7.07076,-0.20476 7.07076,-0.31268 7.07076,0.0507 7.07076,0.0628 7.07076,0.0116 7.07076,0.0118 7.07076,-0.22878 7.07076,0.18363 7.07076,0.14281 7.07076,0.16631 7.07076,-0.0904 7.07076,0.18431 7.07076,0.11398 7.07076,-0.33091 7.07077,0.002 7.07076,0.34594 7.07076,-0.30354 7.07076,0.0476 7.07076,0.1526 7.07076,-0.13825 7.07076,-0.0872 7.07076,-0.0263 7.07076,0.42499 7.07076,-0.10945 7.07076,-0.37271 7.07076,0.0584 7.07076,0.0334 7.07076,-0.0332 7.07076,0.332 7.07077,-0.24934 7.07076,0.19892 7.07076,-0.0811 7.07076,-0.28507 7.07076,0.16526 7.07076,-0.18571 7.07076,0.19795 7.07076,-0.05 7.07076,0.16428 7.07076,0.0691 7.07076,0.0786 7.07076,-0.1212 7.07076,0.17228 7.07076,0.0311 7.07077,-0.19082 7.07076,-0.20306 7.07076,0.12363"
       clip-path="url(#p6fc2713150)"
       style="fill:none;stroke:#000000;stroke-width:1.5;stroke-linecap:square"
       id="path504" />
  </g>
  <g
     id="patch_9">
    <path
       d="M 61.47,269.136 V 163.296"
       style="fill:none;stroke:#000000;stroke-width:0.8;stroke-linecap:square;stroke-linejoin:miter"
       id="path507" />
  </g>
  <g
     id="patch_10">
    <path
       d="M 442.584,269.136 V 163.296"
       style="fill:none;stroke:#000000;stroke-width:0.8;stroke-linecap:square;stroke-linejoin:miter"
       id="path510" />
  </g>
  <g
     id="patch_11">
    <path
       d="M 61.47,269.136 H 442.584"
       style="fill:none;stroke:#000000;stroke-width:0.8;stroke-linecap:square;stroke-linejoin:miter"
       id="path513" />
  </g>
  <g
     id="patch_12">
    <path
       d="M 61.47,163.296 H 442.584"
       style="fill:none;stroke:#000000;stroke-width:0.8;stroke-linecap:square;stroke-linejoin:miter"
       id="path516" />
  </g>
  <defs
     id="defs615">
    <clipPath
       id="pbb5d9f0cd7">
      <rect
         x="61.470001"
         y="36.287998"
         width="381.11401"
         height="105.84"
         id="rect609" />
    </clipPath>
    <clipPath
       id="p6fc2713150">
      <rect
         x="61.470001"
         y="163.29601"
         width="381.11401"
         height="105.84"
         id="rect612" />
    </clipPath>
  </defs>
  <g
     id="g3442"
     transform="translate(0,4.577614)">
    <g
       id="legend_1"
       transform="translate(228.39295,11.804166)">
      <g
         id="patch_7">
        <path
           d="M 234.61968,101.36444 H 431.384 q 3.2,0 3.2,-3.200001 V 47.488 q 0,-3.2 -3.2,-3.2 H 234.61968 q -3.2,0 -3.2,3.2 v 50.676439 q 0,3.200001 3.2,3.200001 z"
           style="opacity:0.8;fill:#ffffff;stroke:#cccccc;stroke-linejoin:miter"
           id="path222" />
      </g>
      <g
         id="line2d_12">
        <path
           d="m 237.81968,59.241163 h 16 16"
           style="fill:none;stroke:#0000ff;stroke-width:1.5;stroke-linecap:square"
           id="path225" />
      </g>
      <g
         id="text_10">
        <!-- $\eta(U|\Pi^{(1)})$,CxSOM -->
        <g
           transform="matrix(0.16,0,0,-0.16,282.61968,64.841163)"
           id="g272">
          <defs
             id="defs240">
            <path
               id="CMMI12-11"
               d="m 3040,1768 c 32,127 51,205 51,377 0,383 -224,670 -710,670 -570,0 -871,-402 -986,-561 -19,364 -281,561 -563,561 -186,0 -333,-89 -454,-332 -116,-229 -205,-619 -205,-644 0,-26 25,-58 70,-58 51,0 58,7 96,153 96,377 218,754 474,754 147,0 198,-102 198,-294 0,-140 -64,-389 -109,-587 L 723,1118 C 698,996 627,709 595,593 550,428 480,127 480,96 480,6 550,-64 646,-64 c 77,0 167,39 218,134 13,32 70,256 102,383 l 141,575 211,843 c 13,38 173,357 410,561 166,154 384,256 634,256 256,0 345,-192 345,-447 0,-186 -25,-288 -57,-410 l -743,-2938 c -6,-32 -19,-70 -19,-109 0,-96 77,-160 173,-160 57,0 192,26 243,218 z"
               transform="scale(0.015625)" />
            <path
               id="CMR17-28"
               d="m 1958,-1561 c 0,6 0,19 -19,38 -294,299 -1081,1116 -1081,3104 0,1988 774,2798 1088,3116 0,7 12,20 12,39 0,19 -19,32 -44,32 -71,0 -615,-472 -928,-1174 C 666,2887 576,2199 576,1588 c 0,-460 45,-1237 429,-2059 307,-664 832,-1129 909,-1129 32,0 44,13 44,39 z"
               transform="scale(0.015625)" />
            <path
               id="CMMI12-55"
               d="M 3238,1474 C 3014,581 2272,57 1670,57 1210,57 896,363 896,891 c 0,25 0,216 70,496 l 628,2500 c 57,216 70,280 524,280 116,0 180,0 180,115 0,70 -58,70 -96,70 -116,0 -250,0 -372,0 h -755 c -121,0 -256,0 -377,0 -45,0 -122,0 -122,-121 0,-64 45,-64 166,-64 384,0 384,-51 384,-121 0,-38 -44,-222 -76,-331 L 493,1488 c -19,-70 -58,-242 -58,-413 0,-701 506,-1203 1203,-1203 647,0 1364,512 1690,1325 45,108 102,333 141,505 64,231 198,794 243,960 l 243,961 c 83,333 135,544 698,544 51,6 77,57 77,115 0,70 -58,70 -84,70 -89,0 -204,0 -294,0 h -301 c -397,0 -601,0 -608,0 -38,0 -115,0 -115,-121 0,-64 51,-64 96,-64 384,0 410,-147 410,-262 0,-57 0,-77 -26,-166 z"
               transform="scale(0.015625)" />
            <path
               id="CMSY10-6a"
               d="m 1018,4570 c 0,115 0,230 -128,230 -128,0 -128,-115 -128,-230 v -5940 c 0,-115 0,-230 128,-230 128,0 128,115 128,230 z"
               transform="scale(0.015625)" />
            <path
               id="CMR17-5"
               d="m 3590,3898 c 0,288 71,288 512,288 v 166 H 326 v -166 c 442,0 512,0 512,-288 V 448 C 838,160 768,160 326,160 V 0 c 186,0 525,0 724,0 198,0 537,0 723,0 v 160 c -442,0 -512,0 -512,288 V 4186 H 3168 V 448 c 0,-288 -70,-288 -512,-288 V 0 c 186,0 525,0 723,0 199,0 538,0 723,0 v 160 c -441,0 -512,0 -512,288 z"
               transform="scale(0.015625)" />
            <path
               id="CMR17-29"
               d="m 1683,1581 c 0,459 -45,1236 -429,2058 -307,664 -832,1129 -908,1129 -20,0 -45,-7 -45,-39 0,-12 6,-19 13,-32 307,-319 1088,-1129 1088,-3113 0,-1991 -775,-2801 -1088,-3121 -7,-12 -13,-19 -13,-31 0,-32 25,-32 45,-32 70,0 614,472 928,1174 320,707 409,1395 409,2007 z"
               transform="scale(0.015625)" />
            <path
               id="CMSS17-2c"
               d="M 1088,6 V 510 H 576 V 0 H 736 L 570,-800 h 256 z"
               transform="scale(0.015625)" />
            <path
               id="CMSS17-43"
               d="M 3501,714 C 3072,427 2874,344 2355,344 1459,344 934,1303 934,2179 c 0,933 538,1853 1447,1853 409,0 678,-114 1005,-317 l 89,502 C 3168,4370 2778,4440 2387,4440 1158,4440 397,3316 397,2179 397,927 1299,-64 2323,-64 c 551,0 743,45 1216,344 z"
               transform="scale(0.015625)" />
            <path
               id="CMSS17-78"
               d="M 1587,1414 2656,2739 H 2099 L 1363,1777 602,2739 H 32 L 1139,1414 0,0 H 563 L 1363,1121 2195,0 h 563 z"
               transform="scale(0.015625)" />
            <path
               id="CMSS17-53"
               d="m 2797,4169 c -282,165 -589,311 -1107,311 -826,0 -1357,-601 -1357,-1214 0,-241 70,-513 320,-791 249,-279 531,-354 889,-442 148,-39 397,-109 442,-127 358,-139 531,-462 531,-766 0,-398 -313,-822 -870,-822 -192,0 -755,0 -1287,501 L 269,318 c 525,-382 1094,-446 1382,-446 787,0 1351,616 1351,1314 0,254 -77,577 -346,875 -262,286 -493,349 -1018,488 -300,77 -492,128 -652,324 -109,140 -167,273 -167,444 0,356 307,743 871,743 281,0 646,-58 1017,-400 z"
               transform="scale(0.015625)" />
            <path
               id="CMSS17-4f"
               d="M 4096,2178 C 4096,3503 3219,4497 2214,4497 1210,4497 333,3497 333,2178 333,847 1222,-128 2214,-128 c 992,0 1882,975 1882,2306 z M 2214,273 c -704,0 -1344,784 -1344,1988 0,1172 679,1835 1344,1835 666,0 1344,-663 1344,-1835 C 3558,1051 2912,273 2214,273 Z"
               transform="scale(0.015625)" />
            <path
               id="CMSS17-4d"
               d="M 3194,2371 2886,1473 C 2835,1307 2662,791 2624,587 h -6 c -20,128 -58,262 -160,587 -58,191 -122,388 -186,567 L 1325,4416 H 576 V 0 h 499 v 3900 h 7 c 0,-6 57,-287 448,-1401 L 2374,96 h 474 l 762,2135 c 51,147 211,612 281,835 64,191 224,662 263,847 h 6 V 0 h 506 v 4416 h -743 z"
               transform="scale(0.015625)" />
          </defs>
          <use
             xlink:href="#CMMI12-11"
             transform="scale(0.996264)"
             id="use242"
             x="0"
             y="0"
             width="100%"
             height="100%" />
          <use
             xlink:href="#CMR17-28"
             transform="matrix(0.996264,0,0,0.996264,51.703816,0)"
             id="use244"
             x="0"
             y="0"
             width="100%"
             height="100%" />
          <use
             xlink:href="#CMMI12-55"
             transform="matrix(0.996264,0,0,0.996264,86.984584,0)"
             id="use246"
             x="0"
             y="0"
             width="100%"
             height="100%" />
          <use
             xlink:href="#CMR17-5"
             transform="matrix(0.996264,0,0,0.996264,191.31744,0)"
             id="use250"
             x="0"
             y="0"
             width="100%"
             height="100%" />
          <use
             xlink:href="#CMR17-28"
             transform="matrix(0.697382,0,0,0.697382,260.38987,36.153639)"
             id="use252"
             x="0"
             y="0"
             width="100%"
             height="100%" />
          <use
             xlink:href="#CMR17-31"
             transform="matrix(0.697382,0,0,0.697382,285.08629,36.153639)"
             id="use254"
             x="0"
             y="0"
             width="100%"
             height="100%" />
          <use
             xlink:href="#CMR17-29"
             transform="matrix(0.697382,0,0,0.697382,317.06947,36.153639)"
             id="use256"
             x="0"
             y="0"
             width="100%"
             height="100%" />
          <use
             xlink:href="#CMR17-29"
             transform="matrix(0.996264,0,0,0.996264,342.26403,0)"
             id="use258"
             x="0"
             y="0"
             width="100%"
             height="100%" />
          <use
             xlink:href="#CMSS17-2c"
             transform="matrix(0.996264,0,0,0.996264,377.54479,0)"
             id="use260"
             x="0"
             y="0"
             width="100%"
             height="100%" />
          <use
             xlink:href="#CMSS17-43"
             transform="matrix(0.996264,0,0,0.996264,403.569,0)"
             id="use262"
             x="0"
             y="0"
             width="100%"
             height="100%" />
          <use
             xlink:href="#CMSS17-78"
             transform="matrix(0.996264,0,0,0.996264,463.42477,0)"
             id="use264"
             x="0"
             y="0"
             width="100%"
             height="100%" />
          <use
             xlink:href="#CMSS17-53"
             transform="matrix(0.996264,0,0,0.996264,506.42491,0)"
             id="use266"
             x="0"
             y="0"
             width="100%"
             height="100%" />
          <use
             xlink:href="#CMSS17-4f"
             transform="matrix(0.996264,0,0,0.996264,558.47343,0)"
             id="use268"
             x="0"
             y="0"
             width="100%"
             height="100%" />
          <use
             xlink:href="#CMSS17-4d"
             transform="matrix(0.996264,0,0,0.996264,627.49768,0)"
             id="use270"
             x="0"
             y="0"
             width="100%"
             height="100%" />
        </g>
      </g>
      <g
         id="line2d_13">
        <path
           d="m 237.81968,85.379383 h 16 16"
           style="fill:none;stroke:#008000;stroke-width:1.5;stroke-linecap:square"
           id="path275" />
      </g>
      <g
         id="text_11">
        <!-- $\eta(U|\Pi^{(1)})$,carte simple -->
        <g
           transform="matrix(0.16,0,0,-0.16,282.61968,90.979383)"
           id="g332">
          <defs
             id="defs288">
            <path
               id="CMSS17-63"
               d="m 2464,2541 c 0,44 -294,173 -371,198 -211,77 -480,77 -551,77 C 710,2816 211,2093 211,1363 211,595 768,-64 1517,-64 c 429,0 736,140 985,306 l -38,422 C 2189,453 1869,337 1523,337 c -499,0 -825,437 -825,1032 0,462 211,1045 851,1045 352,0 550,-71 845,-269 z"
               transform="scale(0.015625)" />
            <path
               id="CMSS17-61"
               d="m 2406,1791 c 0,601 -428,1017 -1004,1017 -282,0 -589,-51 -941,-255 l 38,-418 c 160,113 435,297 896,297 327,0 525,-252 525,-650 V 1536 C 896,1536 256,1238 256,726 256,461 416,-64 947,-64 c 96,0 615,0 986,281 V -19 h 473 z M 1920,816 c 0,-115 0,-268 -192,-382 -166,-109 -378,-109 -467,-109 -320,0 -538,186 -538,419 0,467 999,467 1197,467 z"
               transform="scale(0.015625)" />
            <path
               id="CMSS17-72"
               d="m 954,1363 c 0,602 441,1005 1004,1005 v 421 c -409,0 -793,-204 -1024,-536 v 505 H 480 V 0 h 474 z"
               transform="scale(0.015625)" />
            <path
               id="CMSS17-74"
               d="m 1069,2368 h 832 v 369 h -832 v 783 H 614 V 2737 H 109 V 2368 H 602 V 749 c 0,-365 83,-813 505,-813 320,0 615,89 896,236 L 1901,548 C 1747,414 1562,337 1363,337 c -281,0 -294,359 -294,519 z"
               transform="scale(0.015625)" />
            <path
               id="CMSS17-65"
               d="m 2502,1377 c 0,213 -12,626 -217,968 -224,368 -589,471 -864,471 C 755,2816 192,2188 192,1375 192,582 774,-64 1510,-64 c 288,0 640,83 960,312 0,26 -12,166 -19,172 0,13 -19,210 -19,236 C 2125,407 1773,325 1517,325 1107,325 666,667 646,1377 Z M 698,1728 c 83,356 364,693 723,693 96,0 544,0 659,-693 z"
               transform="scale(0.015625)" />
            <path
               id="CMSS17-73"
               d="m 2061,2627 c -378,180 -672,180 -864,180 -455,0 -999,-159 -999,-804 0,-644 704,-785 896,-824 295,-57 621,-121 621,-439 0,-403 -461,-403 -544,-403 -256,0 -608,70 -928,301 L 166,210 C 531,0 883,-64 1178,-64 c 787,0 985,480 985,845 0,313 -179,524 -301,620 -211,167 -288,186 -812,295 -90,13 -404,83 -404,370 0,366 404,366 493,366 416,0 672,-129 845,-224 z"
               transform="scale(0.015625)" />
            <path
               id="CMSS17-69"
               d="M 979,4183 H 442 V 3648 H 979 Z M 947,2739 H 474 V 0 h 473 z"
               transform="scale(0.015625)" />
            <path
               id="CMSS17-6d"
               d="m 4288,1877 c 0,431 -109,939 -826,939 -480,0 -768,-300 -896,-485 -115,339 -384,485 -768,485 -435,0 -710,-248 -857,-427 v 369 H 474 V 0 h 486 v 1559 c 0,380 141,869 595,869 583,0 583,-412 583,-599 V 0 h 486 v 1559 c 0,380 141,869 595,869 583,0 583,-412 583,-599 V 0 h 486 z"
               transform="scale(0.015625)" />
            <path
               id="CMSS17-70"
               d="m 966,333 c 212,-204 500,-338 807,-338 595,0 1107,608 1107,1417 0,747 -384,1404 -934,1404 -320,0 -704,-114 -992,-344 v 293 H 480 v -3981 h 486 z m 0,1767 c 52,76 269,315 621,315 448,0 807,-455 807,-1003 0,-625 -436,-1028 -864,-1028 -128,0 -263,31 -391,139 C 966,674 966,768 966,857 Z"
               transform="scale(0.015625)" />
            <path
               id="CMSS17-6c"
               d="M 947,4416 H 474 V 0 h 473 z"
               transform="scale(0.015625)" />
          </defs>
          <use
             xlink:href="#CMMI12-11"
             transform="scale(0.996264)"
             id="use290"
             x="0"
             y="0"
             width="100%"
             height="100%" />
          <use
             xlink:href="#CMR17-28"
             transform="matrix(0.996264,0,0,0.996264,51.703816,0)"
             id="use292"
             x="0"
             y="0"
             width="100%"
             height="100%" />
          <use
             xlink:href="#CMMI12-55"
             transform="matrix(0.996264,0,0,0.996264,86.984584,0)"
             id="use294"
             x="0"
             y="0"
             width="100%"
             height="100%" />
          <use
             xlink:href="#CMR17-5"
             transform="matrix(0.996264,0,0,0.996264,191.31744,0)"
             id="use298"
             x="0"
             y="0"
             width="100%"
             height="100%" />
          <use
             xlink:href="#CMR17-28"
             transform="matrix(0.697382,0,0,0.697382,260.38987,36.153639)"
             id="use300"
             x="0"
             y="0"
             width="100%"
             height="100%" />
          <use
             xlink:href="#CMR17-31"
             transform="matrix(0.697382,0,0,0.697382,285.08629,36.153639)"
             id="use302"
             x="0"
             y="0"
             width="100%"
             height="100%" />
          <use
             xlink:href="#CMR17-29"
             transform="matrix(0.697382,0,0,0.697382,317.06947,36.153639)"
             id="use304"
             x="0"
             y="0"
             width="100%"
             height="100%" />
          <use
             xlink:href="#CMR17-29"
             transform="matrix(0.996264,0,0,0.996264,342.26403,0)"
             id="use306"
             x="0"
             y="0"
             width="100%"
             height="100%" />
          <use
             xlink:href="#CMSS17-2c"
             transform="matrix(0.996264,0,0,0.996264,377.54479,0)"
             id="use308"
             x="0"
             y="0"
             width="100%"
             height="100%" />
          <use
             xlink:href="#CMSS17-63"
             transform="matrix(0.996264,0,0,0.996264,403.569,0)"
             id="use310"
             x="0"
             y="0"
             width="100%"
             height="100%" />
          <use
             xlink:href="#CMSS17-61"
             transform="matrix(0.996264,0,0,0.996264,445.20782,0)"
             id="use312"
             x="0"
             y="0"
             width="100%"
             height="100%" />
          <use
             xlink:href="#CMSS17-72"
             transform="matrix(0.996264,0,0,0.996264,487.52729,0)"
             id="use314"
             x="0"
             y="0"
             width="100%"
             height="100%" />
          <use
             xlink:href="#CMSS17-74"
             transform="matrix(0.996264,0,0,0.996264,519.43706,0)"
             id="use316"
             x="0"
             y="0"
             width="100%"
             height="100%" />
          <use
             xlink:href="#CMSS17-65"
             transform="matrix(0.996264,0,0,0.996264,553.26863,0)"
             id="use318"
             x="0"
             y="0"
             width="100%"
             height="100%" />
          <use
             xlink:href="#CMSS17-73"
             transform="matrix(0.996264,0,0,0.996264,626.13656,0)"
             id="use320"
             x="0"
             y="0"
             width="100%"
             height="100%" />
          <use
             xlink:href="#CMSS17-69"
             transform="matrix(0.996264,0,0,0.996264,662.0501,0)"
             id="use322"
             x="0"
             y="0"
             width="100%"
             height="100%" />
          <use
             xlink:href="#CMSS17-6d"
             transform="matrix(0.996264,0,0,0.996264,684.23083,0)"
             id="use324"
             x="0"
             y="0"
             width="100%"
             height="100%" />
          <use
             xlink:href="#CMSS17-70"
             transform="matrix(0.996264,0,0,0.996264,758.46008,0)"
             id="use326"
             x="0"
             y="0"
             width="100%"
             height="100%" />
          <use
             xlink:href="#CMSS17-6c"
             transform="matrix(0.996264,0,0,0.996264,806.66502,0)"
             id="use328"
             x="0"
             y="0"
             width="100%"
             height="100%" />
          <use
             xlink:href="#CMSS17-65"
             transform="matrix(0.996264,0,0,0.996264,828.84575,0)"
             id="use330"
             x="0"
             y="0"
             width="100%"
             height="100%" />
        </g>
      </g>
    </g>
    <g
       inkscape:label=""
       transform="translate(445.16964,-7.3011463)"
       id="g2984">
      <g
         id="g9425">
        <g
           style="fill:#000000;fill-opacity:1"
           id="g3224">
          <use
             xlink:href="#symbol4848"
             x="91.925003"
             y="81.962997"
             id="use9297"
             width="100%"
             height="100%"
             transform="matrix(1.3260316,0,0,1.3260316,-30.60214,-26.555547)" />
          <use
             xlink:href="#symbol4848"
             x="91.925003"
             y="81.962997"
             id="use9297-3"
             width="100%"
             height="100%"
             transform="matrix(1.3260316,0,0,1.3260316,-30.061332,0.768256)"
             style="fill:#000000;fill-opacity:1;stroke-linecap:butt;stroke-linejoin:round" />
        </g>
      </g>
    </g>
  </g>
  <g
     id="g3366"
     transform="translate(1.79312,-3.711067)">
    <g
       id="legend_2"
       transform="translate(388.54951,-12.670713)">
      <g
         id="patch_13">
        <path
           d="m 72.67,261.136 h 196.76432 q 3.2,0 3.2,-3.2 v -50.67644 q 0,-3.2 -3.2,-3.2 H 72.67 q -3.2,0 -3.2,3.2 V 257.936 q 0,3.2 3.2,3.2 z"
           style="opacity:0.8;fill:#ffffff;stroke:#cccccc;stroke-linejoin:miter"
           id="path519" />
      </g>
      <g
         id="line2d_25">
        <path
           d="m 75.87,219.01272 h 16 16"
           style="fill:none;stroke:#ff0000;stroke-width:1.5;stroke-linecap:square"
           id="path522" />
      </g>
      <g
         id="text_21">
        <!-- $\eta(U|\Pi^{(2)})$,CxSOM -->
        <g
           transform="matrix(0.16,0,0,-0.16,120.67,224.61272)"
           id="g555">
          <use
             xlink:href="#CMMI12-11"
             transform="scale(0.996264)"
             id="use525"
             x="0"
             y="0"
             width="100%"
             height="100%" />
          <use
             xlink:href="#CMR17-28"
             transform="matrix(0.996264,0,0,0.996264,51.703816,0)"
             id="use527"
             x="0"
             y="0"
             width="100%"
             height="100%" />
          <use
             xlink:href="#CMMI12-55"
             transform="matrix(0.996264,0,0,0.996264,86.984584,0)"
             id="use529"
             x="0"
             y="0"
             width="100%"
             height="100%" />
          <use
             xlink:href="#CMR17-5"
             transform="matrix(0.996264,0,0,0.996264,191.31744,0)"
             id="use533"
             x="0"
             y="0"
             width="100%"
             height="100%" />
          <use
             xlink:href="#CMR17-28"
             transform="matrix(0.697382,0,0,0.697382,260.38987,36.153639)"
             id="use535"
             x="0"
             y="0"
             width="100%"
             height="100%" />
          <use
             xlink:href="#CMR17-32"
             transform="matrix(0.697382,0,0,0.697382,285.08629,36.153639)"
             id="use537"
             x="0"
             y="0"
             width="100%"
             height="100%" />
          <use
             xlink:href="#CMR17-29"
             transform="matrix(0.697382,0,0,0.697382,317.06947,36.153639)"
             id="use539"
             x="0"
             y="0"
             width="100%"
             height="100%" />
          <use
             xlink:href="#CMR17-29"
             transform="matrix(0.996264,0,0,0.996264,342.26403,0)"
             id="use541"
             x="0"
             y="0"
             width="100%"
             height="100%" />
          <use
             xlink:href="#CMSS17-2c"
             transform="matrix(0.996264,0,0,0.996264,377.54479,0)"
             id="use543"
             x="0"
             y="0"
             width="100%"
             height="100%" />
          <use
             xlink:href="#CMSS17-43"
             transform="matrix(0.996264,0,0,0.996264,403.569,0)"
             id="use545"
             x="0"
             y="0"
             width="100%"
             height="100%" />
          <use
             xlink:href="#CMSS17-78"
             transform="matrix(0.996264,0,0,0.996264,463.42477,0)"
             id="use547"
             x="0"
             y="0"
             width="100%"
             height="100%" />
          <use
             xlink:href="#CMSS17-53"
             transform="matrix(0.996264,0,0,0.996264,506.42491,0)"
             id="use549"
             x="0"
             y="0"
             width="100%"
             height="100%" />
          <use
             xlink:href="#CMSS17-4f"
             transform="matrix(0.996264,0,0,0.996264,558.47343,0)"
             id="use551"
             x="0"
             y="0"
             width="100%"
             height="100%" />
          <use
             xlink:href="#CMSS17-4d"
             transform="matrix(0.996264,0,0,0.996264,627.49768,0)"
             id="use553"
             x="0"
             y="0"
             width="100%"
             height="100%" />
        </g>
      </g>
      <g
         id="line2d_26">
        <path
           d="m 75.87,245.15094 h 16 16"
           style="fill:none;stroke:#000000;stroke-width:1.5;stroke-linecap:square"
           id="path558" />
      </g>
      <g
         id="text_22">
        <!-- $\eta(U|\Pi^{(2)})$,carte simple -->
        <g
           transform="matrix(0.16,0,0,-0.16,120.67,250.75094)"
           id="g603">
          <use
             xlink:href="#CMMI12-11"
             transform="scale(0.996264)"
             id="use561"
             x="0"
             y="0"
             width="100%"
             height="100%" />
          <use
             xlink:href="#CMR17-28"
             transform="matrix(0.996264,0,0,0.996264,51.703816,0)"
             id="use563"
             x="0"
             y="0"
             width="100%"
             height="100%" />
          <use
             xlink:href="#CMMI12-55"
             transform="matrix(0.996264,0,0,0.996264,86.984584,0)"
             id="use565"
             x="0"
             y="0"
             width="100%"
             height="100%" />
          <use
             xlink:href="#CMR17-5"
             transform="matrix(0.996264,0,0,0.996264,191.31744,0)"
             id="use569"
             x="0"
             y="0"
             width="100%"
             height="100%" />
          <use
             xlink:href="#CMR17-28"
             transform="matrix(0.697382,0,0,0.697382,260.38987,36.153639)"
             id="use571"
             x="0"
             y="0"
             width="100%"
             height="100%" />
          <use
             xlink:href="#CMR17-32"
             transform="matrix(0.697382,0,0,0.697382,285.08629,36.153639)"
             id="use573"
             x="0"
             y="0"
             width="100%"
             height="100%" />
          <use
             xlink:href="#CMR17-29"
             transform="matrix(0.697382,0,0,0.697382,317.06947,36.153639)"
             id="use575"
             x="0"
             y="0"
             width="100%"
             height="100%" />
          <use
             xlink:href="#CMR17-29"
             transform="matrix(0.996264,0,0,0.996264,342.26403,0)"
             id="use577"
             x="0"
             y="0"
             width="100%"
             height="100%" />
          <use
             xlink:href="#CMSS17-2c"
             transform="matrix(0.996264,0,0,0.996264,377.54479,0)"
             id="use579"
             x="0"
             y="0"
             width="100%"
             height="100%" />
          <use
             xlink:href="#CMSS17-63"
             transform="matrix(0.996264,0,0,0.996264,403.569,0)"
             id="use581"
             x="0"
             y="0"
             width="100%"
             height="100%" />
          <use
             xlink:href="#CMSS17-61"
             transform="matrix(0.996264,0,0,0.996264,445.20782,0)"
             id="use583"
             x="0"
             y="0"
             width="100%"
             height="100%" />
          <use
             xlink:href="#CMSS17-72"
             transform="matrix(0.996264,0,0,0.996264,487.52729,0)"
             id="use585"
             x="0"
             y="0"
             width="100%"
             height="100%" />
          <use
             xlink:href="#CMSS17-74"
             transform="matrix(0.996264,0,0,0.996264,519.43706,0)"
             id="use587"
             x="0"
             y="0"
             width="100%"
             height="100%" />
          <use
             xlink:href="#CMSS17-65"
             transform="matrix(0.996264,0,0,0.996264,553.26863,0)"
             id="use589"
             x="0"
             y="0"
             width="100%"
             height="100%" />
          <use
             xlink:href="#CMSS17-73"
             transform="matrix(0.996264,0,0,0.996264,626.13656,0)"
             id="use591"
             x="0"
             y="0"
             width="100%"
             height="100%" />
          <use
             xlink:href="#CMSS17-69"
             transform="matrix(0.996264,0,0,0.996264,662.0501,0)"
             id="use593"
             x="0"
             y="0"
             width="100%"
             height="100%" />
          <use
             xlink:href="#CMSS17-6d"
             transform="matrix(0.996264,0,0,0.996264,684.23083,0)"
             id="use595"
             x="0"
             y="0"
             width="100%"
             height="100%" />
          <use
             xlink:href="#CMSS17-70"
             transform="matrix(0.996264,0,0,0.996264,758.46008,0)"
             id="use597"
             x="0"
             y="0"
             width="100%"
             height="100%" />
          <use
             xlink:href="#CMSS17-6c"
             transform="matrix(0.996264,0,0,0.996264,806.66502,0)"
             id="use599"
             x="0"
             y="0"
             width="100%"
             height="100%" />
          <use
             xlink:href="#CMSS17-65"
             transform="matrix(0.996264,0,0,0.996264,828.84575,0)"
             id="use601"
             x="0"
             y="0"
             width="100%"
             height="100%" />
        </g>
      </g>
    </g>
    <use
       xlink:href="#symbol4848"
       x="91.925003"
       y="81.962997"
       id="use9297-6"
       width="100%"
       height="100%"
       transform="matrix(1.3260316,0,0,1.3260316,413.48409,100.97386)"
       style="fill:#000000;fill-opacity:1;stroke-linecap:butt;stroke-linejoin:round" />
    <use
       xlink:href="#symbol4848"
       x="91.925003"
       y="81.962997"
       id="use9297-7"
       width="100%"
       height="100%"
       transform="matrix(1.3260316,0,0,1.3260316,413.69289,127.93186)"
       style="fill:#000000;fill-opacity:1;stroke-linecap:butt;stroke-linejoin:round" />
  </g>
</svg>
