<?xml version="1.0" encoding="utf-8" standalone="no"?>
<!DOCTYPE svg PUBLIC "-//W3C//DTD SVG 1.1//EN"
  "http://www.w3.org/Graphics/SVG/1.1/DTD/svg11.dtd">
<!-- Created with matplotlib (https://matplotlib.org/) -->
<svg height="478.8pt" version="1.1" viewBox="0 0 931.68 478.8" width="931.68pt" xmlns="http://www.w3.org/2000/svg" xmlns:xlink="http://www.w3.org/1999/xlink">
 <metadata>
  <rdf:RDF xmlns:cc="http://creativecommons.org/ns#" xmlns:dc="http://purl.org/dc/elements/1.1/" xmlns:rdf="http://www.w3.org/1999/02/22-rdf-syntax-ns#">
   <cc:Work>
    <dc:type rdf:resource="http://purl.org/dc/dcmitype/StillImage"/>
    <dc:date>2022-07-07T17:28:23.322103</dc:date>
    <dc:format>image/svg+xml</dc:format>
    <dc:creator>
     <cc:Agent>
      <dc:title>Matplotlib v3.3.4, https://matplotlib.org/</dc:title>
     </cc:Agent>
    </dc:creator>
   </cc:Work>
  </rdf:RDF>
 </metadata>
 <defs>
  <style type="text/css">*{stroke-linecap:butt;stroke-linejoin:round;}</style>
 </defs>
 <g id="figure_1">
  <g id="patch_1">
   <path d="M 0 478.8 
L 931.68 478.8 
L 931.68 0 
L 0 0 
z
" style="fill:#ffffff;"/>
  </g>
  <g id="axes_1">
   <g id="patch_2">
    <path d="M 62.392587 191.421871 
L 914.314437 191.421871 
L 914.314437 36.563515 
L 62.392587 36.563515 
z
" style="fill:#ffffff;"/>
   </g>
   <g id="PolyCollection_1">
    <defs>
     <path d="M 101.116307 -391.244802 
L 101.116307 -373.829976 
L 101.511447 -370.77013 
L 101.906587 -370.393882 
L 102.301727 -367.656695 
L 102.696867 -374.679077 
L 103.092007 -379.327988 
L 103.487147 -379.311498 
L 103.882287 -380.416562 
L 104.277427 -381.226387 
L 104.672567 -379.868881 
L 105.067707 -375.455084 
L 105.462847 -369.405234 
L 105.857987 -366.248024 
L 106.253127 -368.539911 
L 106.648267 -363.793499 
L 107.043407 -368.113968 
L 107.438547 -363.594752 
L 107.833687 -370.213154 
L 108.228827 -368.90389 
L 108.623967 -359.674395 
L 109.019107 -370.758941 
L 109.414247 -369.147863 
L 109.809387 -368.714841 
L 110.204527 -364.658644 
L 110.599667 -362.980941 
L 110.994807 -364.462559 
L 111.389947 -369.205036 
L 111.785087 -367.711538 
L 112.180227 -360.571571 
L 112.575367 -364.893727 
L 112.970507 -348.742366 
L 113.365647 -360.769019 
L 113.760787 -356.553914 
L 114.155927 -354.999062 
L 114.551067 -356.258387 
L 114.946207 -363.73718 
L 115.341347 -362.816966 
L 115.736487 -346.622052 
L 116.131627 -360.949936 
L 116.526767 -357.443856 
L 116.921907 -358.541488 
L 132.727508 -368.812445 
L 148.533108 -368.091261 
L 164.338708 -357.285418 
L 180.144308 -367.827165 
L 195.949908 -355.452872 
L 211.755509 -318.091109 
L 227.561109 -331.947928 
L 243.366709 -334.383588 
L 259.172309 -332.80306 
L 274.977909 -332.614195 
L 290.78351 -324.754911 
L 306.58911 -332.671612 
L 322.39471 -334.3388 
L 338.20031 -324.852855 
L 354.00591 -334.030758 
L 369.81151 -336.564553 
L 385.617111 -320.298034 
L 401.422711 -324.947323 
L 417.228311 -327.485304 
L 433.033911 -319.434538 
L 448.839511 -324.803423 
L 464.645112 -308.577469 
L 480.450712 -310.533363 
L 496.256312 -304.895241 
L 512.061912 -311.954368 
L 527.867512 -309.491077 
L 543.673113 -299.916861 
L 559.478713 -311.330321 
L 575.284313 -305.125453 
L 591.089913 -304.438874 
L 606.895513 -304.840544 
L 622.701113 -300.276193 
L 638.506714 -303.031088 
L 654.312314 -299.760527 
L 670.117914 -304.718493 
L 685.923514 -294.417145 
L 701.729114 -304.910767 
L 717.534715 -305.444069 
L 733.340315 -300.78589 
L 749.145915 -306.478342 
L 764.951515 -303.075328 
L 780.757115 -303.132095 
L 796.562716 -303.561129 
L 812.368316 -308.805134 
L 828.173916 -307.296226 
L 843.979516 -308.003156 
L 859.785116 -307.10657 
L 875.590716 -307.077494 
L 875.590716 -404.423326 
L 875.590716 -404.423326 
L 859.785116 -401.323832 
L 843.979516 -406.196179 
L 828.173916 -402.53365 
L 812.368316 -404.531541 
L 796.562716 -404.464839 
L 780.757115 -403.528396 
L 764.951515 -408.799032 
L 749.145915 -406.472746 
L 733.340315 -412.312623 
L 717.534715 -412.199664 
L 701.729114 -407.989907 
L 685.923514 -411.407669 
L 670.117914 -409.939032 
L 654.312314 -410.507837 
L 638.506714 -409.808482 
L 622.701113 -410.633827 
L 606.895513 -410.646708 
L 591.089913 -411.100419 
L 575.284313 -414.705606 
L 559.478713 -415.894607 
L 543.673113 -413.123201 
L 527.867512 -413.850911 
L 512.061912 -416.676177 
L 496.256312 -400.046858 
L 480.450712 -423.442639 
L 464.645112 -421.493972 
L 448.839511 -426.069036 
L 433.033911 -425.061144 
L 417.228311 -421.012527 
L 401.422711 -426.750496 
L 385.617111 -424.948375 
L 369.81151 -432.633448 
L 354.00591 -431.309236 
L 338.20031 -420.991458 
L 322.39471 -417.577258 
L 306.58911 -412.122871 
L 290.78351 -409.504919 
L 274.977909 -415.609696 
L 259.172309 -406.189976 
L 243.366709 -411.664931 
L 227.561109 -405.289183 
L 211.755509 -409.450531 
L 195.949908 -419.635391 
L 180.144308 -423.289691 
L 164.338708 -419.297166 
L 148.533108 -424.389895 
L 132.727508 -432.086196 
L 116.921907 -433.583603 
L 116.526767 -432.6748 
L 116.131627 -428.001294 
L 115.736487 -420.628442 
L 115.341347 -422.12203 
L 114.946207 -424.126127 
L 114.551067 -418.018676 
L 114.155927 -423.728621 
L 113.760787 -419.644449 
L 113.365647 -424.269801 
L 112.970507 -416.250402 
L 112.575367 -425.276926 
L 112.180227 -420.760159 
L 111.785087 -429.265049 
L 111.389947 -435.197469 
L 110.994807 -430.820685 
L 110.599667 -420.687819 
L 110.204527 -425.306625 
L 109.809387 -417.489791 
L 109.414247 -417.263759 
L 109.019107 -412.722211 
L 108.623967 -412.508971 
L 108.228827 -411.433821 
L 107.833687 -411.804897 
L 107.438547 -407.45201 
L 107.043407 -410.694205 
L 106.648267 -411.986079 
L 106.253127 -411.744347 
L 105.857987 -406.522172 
L 105.462847 -411.349567 
L 105.067707 -412.838597 
L 104.672567 -403.792771 
L 104.277427 -402.850497 
L 103.882287 -409.623606 
L 103.487147 -398.077036 
L 103.092007 -398.633966 
L 102.696867 -396.655796 
L 102.301727 -393.679406 
L 101.906587 -389.208594 
L 101.511447 -390.183465 
L 101.116307 -391.244802 
z
" id="mfeba2ff6f9" style="stroke:#ff0000;stroke-opacity:0.5;"/>
    </defs>
    <g clip-path="url(#pc3bec76d83)">
     <use style="fill:#ff0000;fill-opacity:0.5;stroke:#ff0000;stroke-opacity:0.5;" x="0" xlink:href="#mfeba2ff6f9" y="478.8"/>
    </g>
   </g>
   <g id="PolyCollection_2">
    <defs>
     <path d="M 101.116307 -393.796959 
L 101.116307 -392.976229 
L 101.511447 -393.005516 
L 101.906587 -392.679896 
L 102.301727 -392.95915 
L 102.696867 -392.963482 
L 103.092007 -392.84642 
L 103.487147 -392.849124 
L 103.882287 -392.352901 
L 104.277427 -393.261123 
L 104.672567 -393.251388 
L 105.067707 -393.121563 
L 105.462847 -393.302754 
L 105.857987 -392.693953 
L 106.253127 -390.448702 
L 106.648267 -390.835275 
L 107.043407 -392.980845 
L 107.438547 -392.906683 
L 107.833687 -393.040437 
L 108.228827 -392.766792 
L 108.623967 -392.674773 
L 109.019107 -391.875537 
L 109.414247 -392.350221 
L 109.809387 -392.908034 
L 110.204527 -392.950395 
L 110.599667 -392.935222 
L 110.994807 -392.819986 
L 111.389947 -393.064961 
L 111.785087 -392.621366 
L 112.180227 -392.856039 
L 112.575367 -392.686944 
L 112.970507 -392.643919 
L 113.365647 -390.220299 
L 113.760787 -392.705504 
L 114.155927 -392.877016 
L 114.551067 -392.873727 
L 114.946207 -392.680957 
L 115.341347 -392.908082 
L 115.736487 -392.863403 
L 116.131627 -392.998435 
L 116.526767 -390.800313 
L 116.921907 -391.233282 
L 132.727508 -392.707077 
L 148.533108 -392.000067 
L 164.338708 -391.495674 
L 180.144308 -390.425613 
L 195.949908 -390.980043 
L 211.755509 -390.801882 
L 227.561109 -390.622717 
L 243.366709 -390.28806 
L 259.172309 -390.87791 
L 274.977909 -390.747168 
L 290.78351 -390.781799 
L 306.58911 -390.752067 
L 322.39471 -390.413833 
L 338.20031 -391.000745 
L 354.00591 -390.865161 
L 369.81151 -390.306133 
L 385.617111 -390.665732 
L 401.422711 -390.989264 
L 417.228311 -390.852763 
L 433.033911 -390.863836 
L 448.839511 -390.848259 
L 464.645112 -390.731523 
L 480.450712 -390.210077 
L 496.256312 -390.529171 
L 512.061912 -390.695368 
L 527.867512 -390.635477 
L 543.673113 -390.996123 
L 559.478713 -390.669559 
L 575.284313 -390.661261 
L 591.089913 -391.009515 
L 606.895513 -390.25466 
L 622.701113 -390.971777 
L 638.506714 -390.618844 
L 654.312314 -390.68143 
L 670.117914 -390.708957 
L 685.923514 -390.563093 
L 701.729114 -390.852884 
L 717.534715 -390.098023 
L 733.340315 -390.908013 
L 749.145915 -390.72024 
L 764.951515 -390.959668 
L 780.757115 -390.753194 
L 796.562716 -390.588354 
L 812.368316 -390.733323 
L 828.173916 -390.874384 
L 843.979516 -390.5008 
L 859.785116 -390.850413 
L 875.590716 -390.888692 
L 875.590716 -392.550541 
L 875.590716 -392.550541 
L 859.785116 -392.111998 
L 843.979516 -394.359935 
L 828.173916 -392.46562 
L 812.368316 -392.869001 
L 796.562716 -394.157477 
L 780.757115 -392.479778 
L 764.951515 -392.246254 
L 749.145915 -393.128504 
L 733.340315 -392.371374 
L 717.534715 -393.81979 
L 701.729114 -392.272552 
L 685.923514 -393.50012 
L 670.117914 -392.729947 
L 654.312314 -393.159092 
L 638.506714 -393.631757 
L 622.701113 -392.435232 
L 606.895513 -393.728397 
L 591.089913 -392.332418 
L 575.284313 -393.579516 
L 559.478713 -393.166305 
L 543.673113 -392.425491 
L 527.867512 -393.809446 
L 512.061912 -392.886075 
L 496.256312 -393.162339 
L 480.450712 -393.77321 
L 464.645112 -393.338752 
L 448.839511 -392.467949 
L 433.033911 -392.533127 
L 417.228311 -392.43063 
L 401.422711 -392.377525 
L 385.617111 -393.153683 
L 369.81151 -393.795441 
L 354.00591 -392.278031 
L 338.20031 -392.20982 
L 322.39471 -394.458779 
L 306.58911 -392.570062 
L 290.78351 -393.303515 
L 274.977909 -393.072215 
L 259.172309 -392.320416 
L 243.366709 -394.364614 
L 227.561109 -393.794005 
L 211.755509 -393.160377 
L 195.949908 -393.576886 
L 180.144308 -395.35492 
L 164.338708 -394.603144 
L 148.533108 -395.228173 
L 132.727508 -396.104712 
L 116.921907 -400.665062 
L 116.526767 -400.424192 
L 116.131627 -395.535327 
L 115.736487 -396.524043 
L 115.341347 -396.041108 
L 114.946207 -395.456444 
L 114.551067 -395.790126 
L 114.155927 -395.898919 
L 113.760787 -396.035325 
L 113.365647 -402.761909 
L 112.970507 -396.546697 
L 112.575367 -395.636095 
L 112.180227 -395.638205 
L 111.785087 -396.081357 
L 111.389947 -395.583916 
L 110.994807 -394.464939 
L 110.599667 -395.011 
L 110.204527 -395.731308 
L 109.809387 -395.840055 
L 109.414247 -396.178243 
L 109.019107 -397.269599 
L 108.623967 -394.959667 
L 108.228827 -394.918227 
L 107.833687 -394.139885 
L 107.438547 -394.617645 
L 107.043407 -394.416065 
L 106.648267 -400.351446 
L 106.253127 -400.238174 
L 105.857987 -396.850662 
L 105.462847 -395.202052 
L 105.067707 -394.599877 
L 104.672567 -394.564054 
L 104.277427 -394.428363 
L 103.882287 -395.958291 
L 103.487147 -394.17176 
L 103.092007 -394.329191 
L 102.696867 -394.01042 
L 102.301727 -393.97909 
L 101.906587 -394.46297 
L 101.511447 -393.90399 
L 101.116307 -393.796959 
z
" id="m209e82717e" style="stroke:#000000;stroke-opacity:0.5;"/>
    </defs>
    <g clip-path="url(#pc3bec76d83)">
     <use style="fill-opacity:0.5;stroke:#000000;stroke-opacity:0.5;" x="0" xlink:href="#m209e82717e" y="478.8"/>
    </g>
   </g>
   <g id="matplotlib.axis_1">
    <g id="xtick_1">
     <g id="line2d_1">
      <defs>
       <path d="M 0 0 
L 0 3.5 
" id="m870b102256" style="stroke:#000000;stroke-width:0.8;"/>
      </defs>
      <g>
       <use style="stroke:#000000;stroke-width:0.8;" x="101.116307" xlink:href="#m870b102256" y="191.421871"/>
      </g>
     </g>
     <g id="text_1">
      <!-- $\mathdefault{0}$ -->
      <g transform="translate(97.214314 209.491459)scale(0.16 -0.16)">
       <defs>
        <path d="M 42 31.640625 
C 42 37.75 41.90625 48.125 37.703125 56.109375 
C 34 63.109375 28.09375 65.59375 22.90625 65.59375 
C 18.09375 65.59375 12 63.40625 8.203125 56.203125 
C 4.203125 48.71875 3.796875 39.4375 3.796875 31.640625 
C 3.796875 25.953125 3.90625 17.28125 7 9.671875 
C 11.296875 -0.609375 19 -2 22.90625 -2 
C 27.5 -2 34.5 -0.109375 38.59375 9.375 
C 41.59375 16.28125 42 24.359375 42 31.640625 
z
M 22.90625 -0.40625 
C 16.5 -0.40625 12.703125 5.078125 11.296875 12.6875 
C 10.203125 18.5625 10.203125 27.15625 10.203125 32.75 
C 10.203125 40.4375 10.203125 46.828125 11.5 52.921875 
C 13.40625 61.390625 19 64 22.90625 64 
C 27 64 32.296875 61.296875 34.203125 53.125 
C 35.5 47.4375 35.59375 40.734375 35.59375 32.75 
C 35.59375 26.25 35.59375 18.265625 34.40625 12.375 
C 32.296875 1.484375 26.40625 -0.40625 22.90625 -0.40625 
z
" id="CMR17-48"/>
       </defs>
       <use transform="scale(0.996264)" xlink:href="#CMR17-48"/>
      </g>
     </g>
    </g>
    <g id="xtick_2">
     <g id="line2d_2">
      <g>
       <use style="stroke:#000000;stroke-width:0.8;" x="259.172309" xlink:href="#m870b102256" y="191.421871"/>
      </g>
     </g>
     <g id="text_2">
      <!-- $\mathdefault{2000}$ -->
      <g transform="translate(243.564335 209.491459)scale(0.16 -0.16)">
       <defs>
        <path d="M 41.703125 15.453125 
L 39.90625 15.453125 
C 38.90625 8.375 38.09375 7.171875 37.703125 6.5625 
C 37.203125 5.765625 30 5.765625 28.59375 5.765625 
L 9.40625 5.765625 
C 13 9.671875 20 16.75 28.5 24.953125 
C 34.59375 30.734375 41.703125 37.53125 41.703125 47.421875 
C 41.703125 59.21875 32.296875 66 21.796875 66 
C 10.796875 66 4.09375 56.3125 4.09375 47.34375 
C 4.09375 43.4375 7 42.9375 8.203125 42.9375 
C 9.203125 42.9375 12.203125 43.546875 12.203125 47.03125 
C 12.203125 50.109375 9.59375 51 8.203125 51 
C 7.59375 51 7 50.90625 6.59375 50.703125 
C 8.5 59.21875 14.296875 63.40625 20.40625 63.40625 
C 29.09375 63.40625 34.796875 56.515625 34.796875 47.421875 
C 34.796875 38.734375 29.703125 31.25 24 24.75 
L 4.09375 2.28125 
L 4.09375 0 
L 39.296875 0 
z
" id="CMR17-50"/>
       </defs>
       <use transform="scale(0.996264)" xlink:href="#CMR17-50"/>
       <use transform="translate(45.690477 0)scale(0.996264)" xlink:href="#CMR17-48"/>
       <use transform="translate(91.380954 0)scale(0.996264)" xlink:href="#CMR17-48"/>
       <use transform="translate(137.071431 0)scale(0.996264)" xlink:href="#CMR17-48"/>
      </g>
     </g>
    </g>
    <g id="xtick_3">
     <g id="line2d_3">
      <g>
       <use style="stroke:#000000;stroke-width:0.8;" x="417.228311" xlink:href="#m870b102256" y="191.421871"/>
      </g>
     </g>
     <g id="text_3">
      <!-- $\mathdefault{4000}$ -->
      <g transform="translate(401.620337 209.491459)scale(0.16 -0.16)">
       <defs>
        <path d="M 33.59375 64.40625 
C 33.59375 66.5 33.5 66.5 31.703125 66.5 
L 2 19.59375 
L 2 17 
L 27.796875 17 
L 27.796875 7.140625 
C 27.796875 3.5 27.59375 2.5 20.59375 2.5 
L 18.703125 2.5 
L 18.703125 0 
C 21.90625 0 27.296875 0 30.703125 0 
C 34.09375 0 39.5 0 42.703125 0 
L 42.703125 2.5 
L 40.796875 2.5 
C 33.796875 2.5 33.59375 3.5 33.59375 7.140625 
L 33.59375 17 
L 43.796875 17 
L 43.796875 19.59375 
L 33.59375 19.59375 
z
M 28.09375 57.859375 
L 28.09375 19.59375 
L 4 19.59375 
z
" id="CMR17-52"/>
       </defs>
       <use transform="scale(0.996264)" xlink:href="#CMR17-52"/>
       <use transform="translate(45.690477 0)scale(0.996264)" xlink:href="#CMR17-48"/>
       <use transform="translate(91.380954 0)scale(0.996264)" xlink:href="#CMR17-48"/>
       <use transform="translate(137.071431 0)scale(0.996264)" xlink:href="#CMR17-48"/>
      </g>
     </g>
    </g>
    <g id="xtick_4">
     <g id="line2d_4">
      <g>
       <use style="stroke:#000000;stroke-width:0.8;" x="575.284313" xlink:href="#m870b102256" y="191.421871"/>
      </g>
     </g>
     <g id="text_4">
      <!-- $\mathdefault{6000}$ -->
      <g transform="translate(559.676339 209.491459)scale(0.16 -0.16)">
       <defs>
        <path d="M 10.59375 34 
C 10.59375 57.65625 21.796875 63 28.296875 63 
C 30.40625 63 35.5 62.640625 37.5 59 
C 35.90625 59 32.90625 59 32.90625 55.515625 
C 32.90625 52.828125 35.09375 51.921875 36.5 51.921875 
C 37.40625 51.921875 40.09375 52.3125 40.09375 55.625 
C 40.09375 61.78125 35.09375 65.296875 28.203125 65.296875 
C 16.296875 65.296875 3.796875 52.96875 3.796875 31 
C 3.796875 3.953125 15.09375 -2 23.09375 -2 
C 32.796875 -2 42 6.671875 42 20.046875 
C 42 32.515625 33.90625 41.59375 23.703125 41.59375 
C 17.59375 41.59375 13.09375 37.609375 10.59375 30.625 
z
M 23.09375 0.390625 
C 10.796875 0.390625 10.796875 18.75 10.796875 22.4375 
C 10.796875 29.625 14.203125 40 23.5 40 
C 25.203125 40 30.09375 40 33.40625 33.125 
C 35.203125 29.21875 35.203125 25.140625 35.203125 20.140625 
C 35.203125 14.75 35.203125 10.78125 33.09375 6.78125 
C 30.90625 2.671875 27.703125 0.390625 23.09375 0.390625 
z
" id="CMR17-54"/>
       </defs>
       <use transform="scale(0.996264)" xlink:href="#CMR17-54"/>
       <use transform="translate(45.690477 0)scale(0.996264)" xlink:href="#CMR17-48"/>
       <use transform="translate(91.380954 0)scale(0.996264)" xlink:href="#CMR17-48"/>
       <use transform="translate(137.071431 0)scale(0.996264)" xlink:href="#CMR17-48"/>
      </g>
     </g>
    </g>
    <g id="xtick_5">
     <g id="line2d_5">
      <g>
       <use style="stroke:#000000;stroke-width:0.8;" x="733.340315" xlink:href="#m870b102256" y="191.421871"/>
      </g>
     </g>
     <g id="text_5">
      <!-- $\mathdefault{8000}$ -->
      <g transform="translate(717.732341 209.491459)scale(0.16 -0.16)">
       <defs>
        <path d="M 27.203125 35.375 
C 33.5 38.546875 39.90625 43.328125 39.90625 50.984375 
C 39.90625 60.015625 31.09375 65.296875 23 65.296875 
C 13.90625 65.296875 5.90625 58.734375 5.90625 49.6875 
C 5.90625 47.203125 6.5 42.921875 10.40625 39.140625 
C 11.40625 38.15625 15.59375 35.171875 18.296875 33.28125 
C 13.796875 30.984375 3.296875 25.53125 3.296875 14.59375 
C 3.296875 4.359375 13.09375 -2 22.796875 -2 
C 33.5 -2 42.5 5.65625 42.5 15.78125 
C 42.5 24.84375 36.40625 29.015625 32.40625 31.703125 
z
M 14.09375 44.09375 
C 13.296875 44.59375 9.296875 47.671875 9.296875 52.359375 
C 9.296875 58.421875 15.59375 63 22.796875 63 
C 30.703125 63 36.5 57.4375 36.5 50.96875 
C 36.5 41.703125 26.09375 36.421875 25.59375 36.421875 
C 25.5 36.421875 25.40625 36.421875 24.59375 37.03125 
z
M 32.5 23.734375 
C 34 22.640625 38.796875 19.375 38.796875 13.296875 
C 38.796875 5.953125 31.40625 0.390625 23 0.390625 
C 13.90625 0.390625 7 6.84375 7 14.6875 
C 7 22.546875 13.09375 29.09375 20 32.1875 
z
" id="CMR17-56"/>
       </defs>
       <use transform="scale(0.996264)" xlink:href="#CMR17-56"/>
       <use transform="translate(45.690477 0)scale(0.996264)" xlink:href="#CMR17-48"/>
       <use transform="translate(91.380954 0)scale(0.996264)" xlink:href="#CMR17-48"/>
       <use transform="translate(137.071431 0)scale(0.996264)" xlink:href="#CMR17-48"/>
      </g>
     </g>
    </g>
    <g id="xtick_6">
     <g id="line2d_6">
      <g>
       <use style="stroke:#000000;stroke-width:0.8;" x="891.396317" xlink:href="#m870b102256" y="191.421871"/>
      </g>
     </g>
     <g id="text_6">
      <!-- $\mathdefault{10000}$ -->
      <g transform="translate(871.886349 209.491459)scale(0.16 -0.16)">
       <defs>
        <path d="M 26.59375 63.40625 
C 26.59375 65.5 26.5 65.5 25.09375 65.5 
C 21.203125 61.1875 15.296875 59.796875 9.703125 59.796875 
C 9.40625 59.796875 8.90625 59.796875 8.796875 59.5 
C 8.703125 59.296875 8.703125 59.09375 8.703125 57 
C 11.796875 57 17 57.59375 21 59.984375 
L 21 7.203125 
C 21 3.6875 20.796875 2.5 12.203125 2.5 
L 9.203125 2.5 
L 9.203125 0 
C 14 0 19 0 23.796875 0 
C 28.59375 0 33.59375 0 38.40625 0 
L 38.40625 2.5 
L 35.40625 2.5 
C 26.796875 2.5 26.59375 3.59375 26.59375 7.15625 
z
" id="CMR17-49"/>
       </defs>
       <use transform="scale(0.996264)" xlink:href="#CMR17-49"/>
       <use transform="translate(45.690477 0)scale(0.996264)" xlink:href="#CMR17-48"/>
       <use transform="translate(91.380954 0)scale(0.996264)" xlink:href="#CMR17-48"/>
       <use transform="translate(137.071431 0)scale(0.996264)" xlink:href="#CMR17-48"/>
       <use transform="translate(182.761908 0)scale(0.996264)" xlink:href="#CMR17-48"/>
      </g>
     </g>
    </g>
    <g id="text_7">
     <!-- timestep -->
     <g transform="translate(460.77852 227.660524)scale(0.16 -0.16)">
      <defs>
       <path d="M 16.703125 37 
L 29.703125 37 
L 29.703125 42.765625 
L 16.703125 42.765625 
L 16.703125 55 
L 9.59375 55 
L 9.59375 42.765625 
L 1.703125 42.765625 
L 1.703125 37 
L 9.40625 37 
L 9.40625 11.703125 
C 9.40625 6 10.703125 -1 17.296875 -1 
C 22.296875 -1 26.90625 0.390625 31.296875 2.6875 
L 29.703125 8.5625 
C 27.296875 6.46875 24.40625 5.265625 21.296875 5.265625 
C 16.90625 5.265625 16.703125 10.875 16.703125 13.375 
z
" id="CMSS17-116"/>
       <path d="M 15.296875 65.359375 
L 6.90625 65.359375 
L 6.90625 57 
L 15.296875 57 
z
M 14.796875 42.796875 
L 7.40625 42.796875 
L 7.40625 0 
L 14.796875 0 
z
" id="CMSS17-105"/>
       <path d="M 67 29.328125 
C 67 36.0625 65.296875 44 54.09375 44 
C 46.59375 44 42.09375 39.3125 40.09375 36.421875 
C 38.296875 41.71875 34.09375 44 28.09375 44 
C 21.296875 44 17 40.125 14.703125 37.328125 
L 14.703125 43.09375 
L 7.40625 43.09375 
L 7.40625 0 
L 15 0 
L 15 24.359375 
C 15 30.296875 17.203125 37.9375 24.296875 37.9375 
C 33.40625 37.9375 33.40625 31.5 33.40625 28.578125 
L 33.40625 0 
L 41 0 
L 41 24.359375 
C 41 30.296875 43.203125 37.9375 50.296875 37.9375 
C 59.40625 37.9375 59.40625 31.5 59.40625 28.578125 
L 59.40625 0 
L 67 0 
z
" id="CMSS17-109"/>
       <path d="M 39.09375 21.515625 
C 39.09375 24.84375 38.90625 31.296875 35.703125 36.640625 
C 32.203125 42.390625 26.5 44 22.203125 44 
C 11.796875 44 3 34.1875 3 21.484375 
C 3 9.09375 12.09375 -1 23.59375 -1 
C 28.09375 -1 33.59375 0.296875 38.59375 3.875 
C 38.59375 4.28125 38.40625 6.46875 38.296875 6.5625 
C 38.296875 6.765625 38 9.84375 38 10.25 
C 33.203125 6.359375 27.703125 5.078125 23.703125 5.078125 
C 17.296875 5.078125 10.40625 10.421875 10.09375 21.515625 
z
M 10.90625 27 
C 12.203125 32.5625 16.59375 37.828125 22.203125 37.828125 
C 23.703125 37.828125 30.703125 37.828125 32.5 27 
z
" id="CMSS17-101"/>
       <path d="M 32.203125 41.046875 
C 26.296875 43.859375 21.703125 43.859375 18.703125 43.859375 
C 11.59375 43.859375 3.09375 41.375 3.09375 31.296875 
C 3.09375 21.234375 14.09375 19.03125 17.09375 18.421875 
C 21.703125 17.53125 26.796875 16.53125 26.796875 11.5625 
C 26.796875 5.265625 19.59375 5.265625 18.296875 5.265625 
C 14.296875 5.265625 8.796875 6.359375 3.796875 9.96875 
L 2.59375 3.28125 
C 8.296875 0 13.796875 -1 18.40625 -1 
C 30.703125 -1 33.796875 6.5 33.796875 12.203125 
C 33.796875 17.09375 31 20.390625 29.09375 21.890625 
C 25.796875 24.5 24.59375 24.796875 16.40625 26.5 
C 15 26.703125 10.09375 27.796875 10.09375 32.28125 
C 10.09375 38 16.40625 38 17.796875 38 
C 24.296875 38 28.296875 35.984375 31 34.5 
z
" id="CMSS17-115"/>
       <path d="M 15.09375 5.203125 
C 18.40625 2.015625 22.90625 -0.078125 27.703125 -0.078125 
C 37 -0.078125 45 9.421875 45 22.0625 
C 45 33.734375 39 44 30.40625 44 
C 25.40625 44 19.40625 42.21875 14.90625 38.625 
L 14.90625 43.203125 
L 7.5 43.203125 
L 7.5 -19 
L 15.09375 -19 
z
M 15.09375 32.8125 
C 15.90625 34 19.296875 37.734375 24.796875 37.734375 
C 31.796875 37.734375 37.40625 30.625 37.40625 22.0625 
C 37.40625 12.296875 30.59375 6 23.90625 6 
C 21.90625 6 19.796875 6.484375 17.796875 8.171875 
C 15.09375 10.53125 15.09375 12 15.09375 13.390625 
z
" id="CMSS17-112"/>
      </defs>
      <use transform="scale(0.996264)" xlink:href="#CMSS17-116"/>
      <use transform="translate(33.831567 0)scale(0.996264)" xlink:href="#CMSS17-105"/>
      <use transform="translate(56.01229 0)scale(0.996264)" xlink:href="#CMSS17-109"/>
      <use transform="translate(130.241544 0)scale(0.996264)" xlink:href="#CMSS17-101"/>
      <use transform="translate(171.880366 0)scale(0.996264)" xlink:href="#CMSS17-115"/>
      <use transform="translate(207.793908 0)scale(0.996264)" xlink:href="#CMSS17-116"/>
      <use transform="translate(241.625475 0)scale(0.996264)" xlink:href="#CMSS17-101"/>
      <use transform="translate(283.264297 0)scale(0.996264)" xlink:href="#CMSS17-112"/>
     </g>
    </g>
   </g>
   <g id="matplotlib.axis_2">
    <g id="ytick_1">
     <g id="line2d_7">
      <defs>
       <path d="M 0 0 
L -3.5 0 
" id="m587b0bbdd3" style="stroke:#000000;stroke-width:0.8;"/>
      </defs>
      <g>
       <use style="stroke:#000000;stroke-width:0.8;" x="62.392587" xlink:href="#m587b0bbdd3" y="118.248489"/>
      </g>
     </g>
     <g id="text_8">
      <!-- $\mathdefault{0.2}$ -->
      <g transform="translate(35.449064 123.783283)scale(0.16 -0.16)">
       <defs>
        <path d="M 18.40625 4.796875 
C 18.40625 7.6875 16 9.671875 13.59375 9.671875 
C 10.703125 9.671875 8.703125 7.28125 8.703125 4.890625 
C 8.703125 2 11.09375 0 13.5 0 
C 16.40625 0 18.40625 2.390625 18.40625 4.796875 
z
" id="CMMI12-58"/>
       </defs>
       <use transform="scale(0.996264)" xlink:href="#CMR17-48"/>
       <use transform="translate(45.690477 0)scale(0.996264)" xlink:href="#CMMI12-58"/>
       <use transform="translate(72.787654 0)scale(0.996264)" xlink:href="#CMR17-50"/>
      </g>
     </g>
    </g>
    <g id="ytick_2">
     <g id="line2d_8">
      <g>
       <use style="stroke:#000000;stroke-width:0.8;" x="62.392587" xlink:href="#m587b0bbdd3" y="44.400857"/>
      </g>
     </g>
     <g id="text_9">
      <!-- $\mathdefault{0.4}$ -->
      <g transform="translate(35.449064 49.935651)scale(0.16 -0.16)">
       <use transform="scale(0.996264)" xlink:href="#CMR17-48"/>
       <use transform="translate(45.690477 0)scale(0.996264)" xlink:href="#CMMI12-58"/>
       <use transform="translate(72.787654 0)scale(0.996264)" xlink:href="#CMR17-52"/>
      </g>
     </g>
    </g>
    <g id="text_10">
     <!-- $I_x$ -->
     <g transform="translate(28.349588 120.623209)rotate(-90)scale(0.16 -0.16)">
      <defs>
       <path d="M 36.796875 60.625 
C 37.703125 64.109375 37.90625 65.109375 45.203125 65.109375 
C 47.40625 65.109375 48.203125 65.109375 48.203125 67 
C 48.203125 68 47.09375 68 46.796875 68 
C 45 68 42.796875 68 41 68 
L 28.703125 68 
C 26.703125 68 24.40625 68 22.40625 68 
C 21.59375 68 20.5 68 20.5 66.109375 
C 20.5 65.109375 21.296875 65.109375 23.296875 65.109375 
C 29.5 65.109375 29.5 64.3125 29.5 63.21875 
C 29.5 62.53125 29.296875 61.921875 29.09375 61.03125 
L 15.59375 7.375 
C 14.703125 3.890625 14.5 2.890625 7.203125 2.890625 
C 5 2.890625 4.09375 2.890625 4.09375 1 
C 4.09375 0 5.09375 0 5.59375 0 
C 7.40625 0 9.59375 0 11.40625 0 
L 23.703125 0 
C 25.703125 0 27.90625 0 29.90625 0 
C 30.703125 0 31.90625 0 31.90625 1.796875 
C 31.90625 2.890625 31.296875 2.890625 29.09375 2.890625 
C 22.90625 2.890625 22.90625 3.6875 22.90625 4.875 
C 22.90625 5.078125 22.90625 5.578125 23.296875 7.171875 
z
" id="CMMI12-73"/>
       <path d="M 47.40625 40.71875 
C 44.203125 40.109375 43 37.71875 43 35.828125 
C 43 33.421875 44.90625 32.625 46.296875 32.625 
C 49.296875 32.625 51.40625 35.21875 51.40625 37.921875 
C 51.40625 42.109375 46.59375 44 42.40625 44 
C 36.296875 44 32.90625 38.015625 32 36.125 
C 29.703125 44 23.5 44 21.703125 44 
C 11.5 44 6.09375 30.9375 6.09375 28.734375 
C 6.09375 28.34375 6.5 27.84375 7.203125 27.84375 
C 8 27.84375 8.203125 28.4375 8.40625 28.84375 
C 11.796875 39.921875 18.5 42.015625 21.40625 42.015625 
C 25.90625 42.015625 26.796875 37.8125 26.796875 35.421875 
C 26.796875 33.234375 26.203125 30.9375 25 26.140625 
L 21.59375 12.46875 
C 20.09375 6.484375 17.203125 1 11.90625 1 
C 11.40625 1 8.90625 1 6.796875 2.296875 
C 10.40625 3 11.203125 5.984375 11.203125 7.1875 
C 11.203125 9.1875 9.703125 10.375 7.796875 10.375 
C 5.40625 10.375 2.796875 8.28125 2.796875 5.09375 
C 2.796875 0.890625 7.5 -1 11.796875 -1 
C 16.59375 -1 20 2.796875 22.09375 6.890625 
C 23.703125 1 28.703125 -1 32.40625 -1 
C 42.59375 -1 48 12.078125 48 14.265625 
C 48 14.765625 47.59375 15.171875 47 15.171875 
C 46.09375 15.171875 46 14.671875 45.703125 13.875 
C 43 5.09375 37.203125 1 32.703125 1 
C 29.203125 1 27.296875 3.59375 27.296875 7.6875 
C 27.296875 9.875 27.703125 11.46875 29.296875 18.0625 
L 32.796875 31.625 
C 34.296875 37.625 37.703125 42.015625 42.296875 42.015625 
C 42.5 42.015625 45.296875 42.015625 47.40625 40.71875 
z
" id="CMMI12-120"/>
      </defs>
      <use transform="scale(0.996264)" xlink:href="#CMMI12-73"/>
      <use transform="translate(43.024176 -14.943915)scale(0.697382)" xlink:href="#CMMI12-120"/>
     </g>
    </g>
   </g>
   <g id="line2d_9">
    <path clip-path="url(#pc3bec76d83)" d="M 101.116307 96.262611 
L 101.511447 98.323202 
L 101.906587 98.998762 
L 102.301727 98.131949 
L 102.696867 93.132564 
L 103.092007 89.819023 
L 103.487147 90.105733 
L 103.882287 83.779916 
L 104.277427 86.761558 
L 104.672567 86.969174 
L 105.067707 84.653159 
L 105.462847 88.4226 
L 105.857987 92.414902 
L 106.253127 88.657871 
L 106.648267 90.910211 
L 107.043407 89.395913 
L 107.438547 93.276619 
L 107.833687 87.790974 
L 108.228827 88.631145 
L 108.623967 92.708317 
L 109.019107 87.059424 
L 109.414247 85.594189 
L 109.809387 85.697684 
L 110.204527 83.817365 
L 110.599667 86.96562 
L 110.994807 81.158378 
L 111.389947 76.598748 
L 111.785087 80.311706 
L 112.180227 88.134135 
L 112.575367 83.714673 
L 112.970507 96.303616 
L 113.365647 86.28059 
L 113.760787 90.700819 
L 114.155927 89.436159 
L 114.551067 91.661468 
L 114.946207 84.868347 
L 115.341347 86.330502 
L 115.736487 95.174753 
L 116.131627 84.324385 
L 116.526767 83.740672 
L 116.921907 82.737455 
L 132.727508 78.350679 
L 148.533108 82.559422 
L 164.338708 90.508708 
L 180.144308 83.241572 
L 195.949908 91.255868 
L 211.755509 115.02918 
L 227.561109 110.181444 
L 243.366709 105.77574 
L 259.172309 109.303482 
L 274.977909 104.688054 
L 290.78351 111.670085 
L 306.58911 106.402758 
L 322.39471 102.841971 
L 338.20031 105.877843 
L 354.00591 96.130003 
L 369.81151 94.200999 
L 385.617111 106.176795 
L 401.422711 102.95109 
L 417.228311 104.551085 
L 433.033911 106.552159 
L 448.839511 103.36377 
L 464.645112 113.764279 
L 480.450712 111.811999 
L 496.256312 126.328951 
L 512.061912 114.484727 
L 527.867512 117.129006 
L 543.673113 122.279969 
L 559.478713 115.187536 
L 575.284313 118.88447 
L 591.089913 121.030354 
L 606.895513 121.056374 
L 622.701113 123.34499 
L 638.506714 122.380215 
L 654.312314 123.665818 
L 670.117914 121.471237 
L 685.923514 125.887593 
L 701.729114 122.349663 
L 717.534715 119.978134 
L 733.340315 122.250743 
L 749.145915 122.324456 
L 764.951515 122.86282 
L 780.757115 125.469754 
L 796.562716 124.787016 
L 812.368316 122.131663 
L 828.173916 123.885062 
L 843.979516 121.700332 
L 859.785116 124.584799 
L 875.590716 123.04959 
" style="fill:none;stroke:#ff0000;stroke-linecap:square;stroke-width:1.5;"/>
   </g>
   <g id="line2d_10">
    <path clip-path="url(#pc3bec76d83)" d="M 101.116307 94.015018 
L 101.511447 97.421278 
L 101.906587 98.941283 
L 102.301727 104.091125 
L 102.696867 95.837137 
L 103.092007 93.58116 
L 103.487147 92.927297 
L 103.882287 90.42677 
L 104.277427 91.906532 
L 104.672567 91.890521 
L 105.067707 86.729874 
L 105.462847 91.314301 
L 105.857987 93.936996 
L 106.253127 93.492397 
L 106.648267 95.539287 
L 107.043407 95.621737 
L 107.438547 97.764006 
L 107.833687 83.111626 
L 108.228827 90.699826 
L 108.623967 92.104195 
L 109.019107 82.995329 
L 109.414247 87.581896 
L 109.809387 76.628517 
L 110.204527 68.318745 
L 110.599667 71.148849 
L 110.994807 65.261427 
L 111.389947 66.766822 
L 111.785087 68.845639 
L 112.180227 76.158049 
L 112.575367 73.331341 
L 112.970507 82.838347 
L 113.365647 69.928784 
L 113.760787 77.268229 
L 114.155927 76.799636 
L 114.551067 77.921425 
L 114.946207 68.674899 
L 115.341347 71.100928 
L 115.736487 73.381835 
L 116.131627 67.381868 
L 116.526767 70.079352 
L 116.921907 70.517993 
L 132.727508 74.273796 
L 148.533108 74.253972 
L 164.338708 76.118716 
L 180.144308 77.797258 
L 195.949908 86.653803 
L 211.755509 108.54395 
L 227.561109 110.892291 
L 243.366709 96.739743 
L 259.172309 98.611557 
L 274.977909 106.528668 
L 290.78351 113.034203 
L 306.58911 113.021194 
L 322.39471 95.385595 
L 338.20031 91.902371 
L 354.00591 78.760238 
L 369.81151 73.608123 
L 385.617111 96.933041 
L 401.422711 93.33334 
L 417.228311 107.491166 
L 433.033911 103.02578 
L 448.839511 105.416301 
L 464.645112 119.36362 
L 480.450712 115.059708 
L 496.256312 142.905499 
L 512.061912 140.039592 
L 527.867512 148.563814 
L 543.673113 150.786297 
L 559.478713 147.027284 
L 575.284313 145.737276 
L 591.089913 151.354056 
L 606.895513 157.085346 
L 622.701113 157.499767 
L 638.506714 154.796363 
L 654.312314 154.644129 
L 670.117914 149.235768 
L 685.923514 157.93351 
L 701.729114 148.452767 
L 717.534715 153.03489 
L 733.340315 152.657788 
L 749.145915 150.735252 
L 764.951515 155.418802 
L 780.757115 152.435019 
L 796.562716 154.91415 
L 812.368316 149.491117 
L 828.173916 149.558453 
L 843.979516 151.086267 
L 859.785116 149.047609 
L 875.590716 149.205984 
" style="fill:none;stroke:#ff0000;stroke-dasharray:5.55,2.4;stroke-dashoffset:0;stroke-width:1.5;"/>
   </g>
   <g id="line2d_11">
    <path clip-path="url(#pc3bec76d83)" d="M 101.116307 85.475787 
L 101.511447 85.376006 
L 101.906587 85.454309 
L 102.301727 85.467033 
L 102.696867 85.463901 
L 103.092007 85.474216 
L 103.487147 85.483708 
L 103.882287 85.248162 
L 104.277427 85.14728 
L 104.672567 85.115206 
L 105.067707 85.140079 
L 105.462847 84.380152 
L 105.857987 84.747519 
L 106.253127 84.833568 
L 106.648267 84.734817 
L 107.043407 85.26869 
L 107.438547 85.510548 
L 107.833687 85.415867 
L 108.228827 85.251553 
L 108.623967 85.672384 
L 109.019107 85.49397 
L 109.414247 85.731164 
L 109.809387 84.694033 
L 110.204527 84.403161 
L 110.599667 84.736523 
L 110.994807 85.108811 
L 111.389947 84.437664 
L 111.785087 84.940194 
L 112.180227 84.702534 
L 112.575367 84.50794 
L 112.970507 84.543961 
L 113.365647 84.166826 
L 113.760787 84.483417 
L 114.155927 83.936131 
L 114.551067 84.325147 
L 114.946207 85.012932 
L 115.341347 84.163407 
L 115.736487 84.052754 
L 116.131627 84.028855 
L 116.526767 84.307057 
L 116.921907 84.16683 
L 132.727508 83.846899 
L 148.533108 84.783466 
L 164.338708 86.344316 
L 180.144308 86.988751 
L 195.949908 87.061854 
L 211.755509 87.01041 
L 227.561109 87.128926 
L 243.366709 87.27983 
L 259.172309 87.292455 
L 274.977909 87.204353 
L 290.78351 87.093958 
L 306.58911 87.31891 
L 322.39471 86.975763 
L 338.20031 87.182411 
L 354.00591 87.349682 
L 369.81151 87.243334 
L 385.617111 87.239742 
L 401.422711 87.137834 
L 417.228311 87.259808 
L 433.033911 87.201125 
L 448.839511 87.269949 
L 464.645112 87.180788 
L 480.450712 87.320089 
L 496.256312 87.263118 
L 512.061912 87.39823 
L 527.867512 87.197616 
L 543.673113 87.17157 
L 559.478713 87.186 
L 575.284313 87.150116 
L 591.089913 87.327532 
L 606.895513 87.294101 
L 622.701113 87.083112 
L 638.506714 87.282608 
L 654.312314 87.170741 
L 670.117914 87.293351 
L 685.923514 87.306766 
L 701.729114 87.473204 
L 717.534715 87.39888 
L 733.340315 87.374907 
L 749.145915 87.189523 
L 764.951515 87.317334 
L 780.757115 87.297372 
L 796.562716 87.227478 
L 812.368316 87.324126 
L 828.173916 87.236154 
L 843.979516 87.269032 
L 859.785116 87.297966 
L 875.590716 87.238697 
" style="fill:none;stroke:#000000;stroke-dasharray:5.55,2.4;stroke-dashoffset:0;stroke-width:1.5;"/>
   </g>
   <g id="line2d_12">
    <path clip-path="url(#pc3bec76d83)" d="M 101.116307 85.413406 
L 101.511447 85.345247 
L 101.906587 85.228567 
L 102.301727 85.33088 
L 102.696867 85.313049 
L 103.092007 85.212195 
L 103.487147 85.289558 
L 103.882287 84.644404 
L 104.277427 84.955257 
L 104.672567 84.892279 
L 105.067707 84.93928 
L 105.462847 84.547597 
L 105.857987 84.027693 
L 106.253127 83.456562 
L 106.648267 83.206639 
L 107.043407 85.101545 
L 107.438547 85.037836 
L 107.833687 85.209839 
L 108.228827 84.957491 
L 108.623967 84.98278 
L 109.019107 84.227432 
L 109.414247 84.535768 
L 109.809387 84.425956 
L 110.204527 84.459148 
L 110.599667 84.826889 
L 110.994807 85.157537 
L 111.389947 84.475561 
L 111.785087 84.448638 
L 112.180227 84.552878 
L 112.575367 84.638481 
L 112.970507 84.204692 
L 113.365647 82.308896 
L 113.760787 84.429585 
L 114.155927 84.412033 
L 114.551067 84.468074 
L 114.946207 84.7313 
L 115.341347 84.325405 
L 115.736487 84.106277 
L 116.131627 84.533119 
L 116.526767 83.187747 
L 116.921907 82.850828 
L 132.727508 84.394105 
L 148.533108 85.18588 
L 164.338708 85.750591 
L 180.144308 85.909734 
L 195.949908 86.521536 
L 211.755509 86.818871 
L 227.561109 86.591639 
L 243.366709 86.473663 
L 259.172309 87.200837 
L 274.977909 86.890309 
L 290.78351 86.757343 
L 306.58911 87.138936 
L 322.39471 86.363694 
L 338.20031 87.194717 
L 354.00591 87.228404 
L 369.81151 86.749213 
L 385.617111 86.890293 
L 401.422711 87.116605 
L 417.228311 87.158303 
L 433.033911 87.101519 
L 448.839511 87.141896 
L 464.645112 86.764863 
L 480.450712 86.808357 
L 496.256312 86.954245 
L 512.061912 87.009279 
L 527.867512 86.577539 
L 543.673113 87.089193 
L 559.478713 86.882068 
L 575.284313 86.679612 
L 591.089913 87.129034 
L 606.895513 86.808472 
L 622.701113 87.096495 
L 638.506714 86.6747 
L 654.312314 86.879739 
L 670.117914 87.080548 
L 685.923514 86.768394 
L 701.729114 87.237282 
L 717.534715 86.841094 
L 733.340315 87.160307 
L 749.145915 86.875628 
L 764.951515 87.197039 
L 780.757115 87.183514 
L 796.562716 86.427085 
L 812.368316 86.998838 
L 828.173916 87.129998 
L 843.979516 86.369632 
L 859.785116 87.318795 
L 875.590716 87.080384 
" style="fill:none;stroke:#000000;stroke-linecap:square;stroke-width:1.5;"/>
   </g>
   <g id="patch_3">
    <path d="M 62.392587 191.421871 
L 62.392587 36.563515 
" style="fill:none;stroke:#000000;stroke-linecap:square;stroke-linejoin:miter;stroke-width:0.8;"/>
   </g>
   <g id="patch_4">
    <path d="M 914.314437 191.421871 
L 914.314437 36.563515 
" style="fill:none;stroke:#000000;stroke-linecap:square;stroke-linejoin:miter;stroke-width:0.8;"/>
   </g>
   <g id="patch_5">
    <path d="M 62.392587 191.421871 
L 914.314437 191.421871 
" style="fill:none;stroke:#000000;stroke-linecap:square;stroke-linejoin:miter;stroke-width:0.8;"/>
   </g>
   <g id="patch_6">
    <path d="M 62.392587 36.563515 
L 914.314437 36.563515 
" style="fill:none;stroke:#000000;stroke-linecap:square;stroke-linejoin:miter;stroke-width:0.8;"/>
   </g>
   <g id="text_11">
    <!-- Map X -->
    <g transform="translate(462.601541 30.563515)scale(0.192 -0.192)">
     <defs>
      <path d="M 49.90625 37.046875 
L 45.09375 23.015625 
C 44.296875 20.421875 41.59375 12.359375 41 9.171875 
L 40.90625 9.171875 
C 40.59375 11.171875 40 13.265625 38.40625 18.34375 
C 37.5 21.328125 36.5 24.40625 35.5 27.203125 
L 20.703125 69 
L 9 69 
L 9 0 
L 16.796875 0 
L 16.796875 60.9375 
L 16.90625 60.9375 
C 16.90625 60.84375 17.796875 56.453125 23.90625 39.046875 
L 37.09375 1.5 
L 44.5 1.5 
L 56.40625 34.859375 
C 57.203125 37.15625 59.703125 44.421875 60.796875 47.90625 
C 61.796875 50.890625 64.296875 58.25 64.90625 61.140625 
L 65 61.140625 
L 65 0 
L 72.90625 0 
L 72.90625 69 
L 61.296875 69 
z
" id="CMSS17-77"/>
      <path d="M 37.59375 27.984375 
C 37.59375 37.375 30.90625 43.875 21.90625 43.875 
C 17.5 43.875 12.703125 43.078125 7.203125 39.890625 
L 7.796875 33.359375 
C 10.296875 35.125 14.59375 38 21.796875 38 
C 26.90625 38 30 34.0625 30 27.84375 
L 30 24 
C 14 24 4 19.34375 4 11.34375 
C 4 7.203125 6.5 -1 14.796875 -1 
C 16.296875 -1 24.40625 -1 30.203125 3.390625 
L 30.203125 -0.296875 
L 37.59375 -0.296875 
z
M 30 12.75 
C 30 10.953125 30 8.5625 27 6.78125 
C 24.40625 5.078125 21.09375 5.078125 19.703125 5.078125 
C 14.703125 5.078125 11.296875 7.984375 11.296875 11.625 
C 11.296875 18.921875 26.90625 18.921875 30 18.921875 
z
" id="CMSS17-97"/>
      <path d="M 34.59375 36.390625 
L 57.203125 69 
L 48 69 
L 30.5 43.15625 
L 12.5 69 
L 2.59375 69 
L 26.40625 36.390625 
L 1.296875 0 
L 10.5 0 
L 30.5 30.328125 
L 51.203125 0 
L 61.09375 0 
z
" id="CMSS17-88"/>
     </defs>
     <use transform="scale(0.996264)" xlink:href="#CMSS17-77"/>
     <use transform="translate(81.67603 0)scale(0.996264)" xlink:href="#CMSS17-97"/>
     <use transform="translate(126.597951 0)scale(0.996264)" xlink:href="#CMSS17-112"/>
     <use transform="translate(206.032006 0)scale(0.996264)" xlink:href="#CMSS17-88"/>
    </g>
   </g>
   <g id="legend_1">
    <g id="patch_7">
     <path d="M 704.413625 143.075491 
L 903.114437 143.075491 
Q 906.314437 143.075491 906.314437 139.875491 
L 906.314437 47.763515 
Q 906.314437 44.563515 903.114437 44.563515 
L 704.413625 44.563515 
Q 701.213625 44.563515 701.213625 47.763515 
L 701.213625 139.875491 
Q 701.213625 143.075491 704.413625 143.075491 
z
" style="fill:#ffffff;opacity:0.8;stroke:#cccccc;stroke-linejoin:miter;"/>
    </g>
    <g id="line2d_13">
     <path d="M 707.613625 57.521015 
L 739.613625 57.521015 
" style="fill:none;stroke:#ff0000;stroke-linecap:square;stroke-width:1.5;"/>
    </g>
    <g id="line2d_14"/>
    <g id="text_12">
     <!-- Moyenne, CxSOM -->
     <g transform="translate(752.413625 63.121015)scale(0.16 -0.16)">
      <defs>
       <path d="M 44.203125 21.1875 
C 44.203125 34 34.703125 44 23.5 44 
C 12 44 2.703125 33.703125 2.703125 21.1875 
C 2.703125 8.5 12.296875 -1 23.40625 -1 
C 34.796875 -1 44.203125 8.796875 44.203125 21.1875 
z
M 23.5 5.265625 
C 16.40625 5.265625 10.296875 11.078125 10.296875 22 
C 10.296875 33.609375 17.40625 37.921875 23.40625 37.921875 
C 29.90625 37.921875 36.59375 33.21875 36.59375 22 
C 36.59375 10.671875 30.09375 5.265625 23.5 5.265625 
z
" id="CMSS17-111"/>
       <path d="M 41.796875 43 
L 34 43 
C 25.5 20.21875 22.59375 10.96875 22.40625 5.984375 
L 22.296875 5.984375 
C 22 10.875 17.59375 22.8125 14.09375 31.359375 
L 9.40625 43 
L 1.296875 43 
L 19 0.203125 
C 17.90625 -2.78125 16.296875 -7.265625 15.796875 -8.265625 
C 13.59375 -13.828125 12.09375 -13.828125 10.5 -13.828125 
C 10.09375 -13.828125 6.90625 -13.828125 3.296875 -12.640625 
L 3.90625 -19.203125 
C 6.40625 -19.703125 8.90625 -20 10.703125 -20 
C 13.203125 -20 18.203125 -20 22.796875 -7.765625 
z
" id="CMSS17-121"/>
       <path d="M 40.90625 29.328125 
C 40.90625 35.671875 39.40625 44 28.09375 44 
C 21.703125 44 17.5 40.71875 14.703125 37.328125 
L 14.703125 43.09375 
L 7.40625 43.09375 
L 7.40625 0 
L 15 0 
L 15 24.359375 
C 15 30.6875 17.40625 37.9375 24.203125 37.9375 
C 33 37.9375 33.296875 32 33.296875 28.578125 
L 33.296875 0 
L 40.90625 0 
z
" id="CMSS17-110"/>
       <path d="M 17 0.09375 
L 17 7.96875 
L 9 7.96875 
L 9 0 
L 11.5 0 
L 8.90625 -12.5 
L 12.90625 -12.5 
z
" id="CMSS17-44"/>
       <path d="M 54.703125 11.15625 
C 48 6.671875 44.90625 5.375 36.796875 5.375 
C 22.796875 5.375 14.59375 20.359375 14.59375 34.046875 
C 14.59375 48.625 23 63 37.203125 63 
C 43.59375 63 47.796875 61.21875 52.90625 58.046875 
L 54.296875 65.890625 
C 49.5 68.28125 43.40625 69.375 37.296875 69.375 
C 18.09375 69.375 6.203125 51.8125 6.203125 34.046875 
C 6.203125 14.484375 20.296875 -1 36.296875 -1 
C 44.90625 -1 47.90625 -0.296875 55.296875 4.375 
z
" id="CMSS17-67"/>
       <path d="M 24.796875 22.09375 
L 41.5 42.796875 
L 32.796875 42.796875 
L 21.296875 27.765625 
L 9.40625 42.796875 
L 0.5 42.796875 
L 17.796875 22.09375 
L 0 0 
L 8.796875 0 
L 21.296875 17.515625 
L 34.296875 0 
L 43.09375 0 
z
" id="CMSS17-120"/>
       <path d="M 43.703125 65.140625 
C 39.296875 67.71875 34.5 70 26.40625 70 
C 13.5 70 5.203125 60.609375 5.203125 51.03125 
C 5.203125 47.265625 6.296875 43.015625 10.203125 38.671875 
C 14.09375 34.3125 18.5 33.140625 24.09375 31.765625 
C 26.40625 31.15625 30.296875 30.0625 31 29.78125 
C 36.59375 27.609375 39.296875 22.5625 39.296875 17.8125 
C 39.296875 11.59375 34.40625 4.96875 25.703125 4.96875 
C 22.703125 4.96875 13.90625 4.96875 5.59375 12.796875 
L 4.203125 4.96875 
C 12.40625 -1 21.296875 -2 25.796875 -2 
C 38.09375 -2 46.90625 7.625 46.90625 18.53125 
C 46.90625 22.5 45.703125 27.546875 41.5 32.203125 
C 37.40625 36.671875 33.796875 37.65625 25.59375 39.828125 
C 20.90625 41.03125 17.90625 41.828125 15.40625 44.890625 
C 13.703125 47.078125 12.796875 49.15625 12.796875 51.828125 
C 12.796875 57.390625 17.59375 63.4375 26.40625 63.4375 
C 30.796875 63.4375 36.5 62.53125 42.296875 57.1875 
z
" id="CMSS17-83"/>
       <path d="M 64 34.03125 
C 64 54.734375 50.296875 70.265625 34.59375 70.265625 
C 18.90625 70.265625 5.203125 54.640625 5.203125 34.03125 
C 5.203125 13.234375 19.09375 -2 34.59375 -2 
C 50.09375 -2 64 13.234375 64 34.03125 
z
M 34.59375 4.265625 
C 23.59375 4.265625 13.59375 16.515625 13.59375 35.328125 
C 13.59375 53.640625 24.203125 64 34.59375 64 
C 45 64 55.59375 53.640625 55.59375 35.328125 
C 55.59375 16.421875 45.5 4.265625 34.59375 4.265625 
z
" id="CMSS17-79"/>
      </defs>
      <use transform="scale(0.996264)" xlink:href="#CMSS17-77"/>
      <use transform="translate(81.67603 0)scale(0.996264)" xlink:href="#CMSS17-111"/>
      <use transform="translate(125.9172 0)scale(0.996264)" xlink:href="#CMSS17-121"/>
      <use transform="translate(166.314887 0)scale(0.996264)" xlink:href="#CMSS17-101"/>
      <use transform="translate(207.953709 0)scale(0.996264)" xlink:href="#CMSS17-110"/>
      <use transform="translate(256.158652 0)scale(0.996264)" xlink:href="#CMSS17-110"/>
      <use transform="translate(304.363596 0)scale(0.996264)" xlink:href="#CMSS17-101"/>
      <use transform="translate(346.002418 0)scale(0.996264)" xlink:href="#CMSS17-44"/>
      <use transform="translate(403.255735 0)scale(0.996264)" xlink:href="#CMSS17-67"/>
      <use transform="translate(463.111507 0)scale(0.996264)" xlink:href="#CMSS17-120"/>
      <use transform="translate(506.111649 0)scale(0.996264)" xlink:href="#CMSS17-83"/>
      <use transform="translate(558.160165 0)scale(0.996264)" xlink:href="#CMSS17-79"/>
      <use transform="translate(627.18442 0)scale(0.996264)" xlink:href="#CMSS17-77"/>
     </g>
    </g>
    <g id="line2d_15">
     <path d="M 707.613625 81.006015 
L 739.613625 81.006015 
" style="fill:none;stroke:#ff0000;stroke-dasharray:5.55,2.4;stroke-dashoffset:0;stroke-width:1.5;"/>
    </g>
    <g id="line2d_16"/>
    <g id="text_13">
     <!-- Mediane,CxSOM -->
     <g transform="translate(752.413625 86.606015)scale(0.16 -0.16)">
      <defs>
       <path d="M 40.796875 69 
L 33.40625 69 
L 33.40625 38.09375 
C 30.296875 40.671875 25.203125 43.0625 19.59375 43.0625 
C 10.5 43.0625 3.296875 33.296875 3.296875 21.046875 
C 3.296875 8.78125 10.40625 -1 19.296875 -1 
C 26.203125 -1 30.796875 2.6875 33.203125 4.78125 
L 33.203125 -0.203125 
L 40.796875 -0.203125 
z
M 33.203125 13.0625 
C 33.203125 11.671875 33.203125 10.203125 30.09375 7.53125 
C 28.09375 5.859375 25.703125 5.078125 23.40625 5.078125 
C 18 5.078125 10.90625 9 10.90625 20.9375 
C 10.90625 33.34375 18.90625 37 24.40625 37 
C 28.09375 37 31.09375 35.21875 33.203125 32.265625 
z
" id="CMSS17-100"/>
      </defs>
      <use transform="scale(0.996264)" xlink:href="#CMSS17-77"/>
      <use transform="translate(81.67603 0)scale(0.996264)" xlink:href="#CMSS17-101"/>
      <use transform="translate(123.314852 0)scale(0.996264)" xlink:href="#CMSS17-100"/>
      <use transform="translate(171.519795 0)scale(0.996264)" xlink:href="#CMSS17-105"/>
      <use transform="translate(193.700518 0)scale(0.996264)" xlink:href="#CMSS17-97"/>
      <use transform="translate(238.622439 0)scale(0.996264)" xlink:href="#CMSS17-110"/>
      <use transform="translate(286.827382 0)scale(0.996264)" xlink:href="#CMSS17-101"/>
      <use transform="translate(328.466204 0)scale(0.996264)" xlink:href="#CMSS17-44"/>
      <use transform="translate(354.490409 0)scale(0.996264)" xlink:href="#CMSS17-67"/>
      <use transform="translate(414.34618 0)scale(0.996264)" xlink:href="#CMSS17-120"/>
      <use transform="translate(457.346322 0)scale(0.996264)" xlink:href="#CMSS17-83"/>
      <use transform="translate(509.394838 0)scale(0.996264)" xlink:href="#CMSS17-79"/>
      <use transform="translate(578.419094 0)scale(0.996264)" xlink:href="#CMSS17-77"/>
     </g>
    </g>
    <g id="line2d_17">
     <path d="M 707.613625 104.491015 
L 739.613625 104.491015 
" style="fill:none;stroke:#000000;stroke-dasharray:5.55,2.4;stroke-dashoffset:0;stroke-width:1.5;"/>
    </g>
    <g id="line2d_18"/>
    <g id="text_14">
     <!-- Mediane, Carte Simple -->
     <g transform="translate(752.413625 110.091015)scale(0.16 -0.16)">
      <defs>
       <path d="M 14.90625 21.296875 
C 14.90625 30.703125 21.796875 37 30.59375 37 
L 30.59375 43.578125 
C 24.203125 43.578125 18.203125 40.390625 14.59375 35.203125 
L 14.59375 43.09375 
L 7.5 43.09375 
L 7.5 0 
L 14.90625 0 
z
" id="CMSS17-114"/>
       <path d="M 14.796875 69 
L 7.40625 69 
L 7.40625 0 
L 14.796875 0 
z
" id="CMSS17-108"/>
      </defs>
      <use transform="scale(0.996264)" xlink:href="#CMSS17-77"/>
      <use transform="translate(81.67603 0)scale(0.996264)" xlink:href="#CMSS17-101"/>
      <use transform="translate(123.314852 0)scale(0.996264)" xlink:href="#CMSS17-100"/>
      <use transform="translate(171.519795 0)scale(0.996264)" xlink:href="#CMSS17-105"/>
      <use transform="translate(193.700518 0)scale(0.996264)" xlink:href="#CMSS17-97"/>
      <use transform="translate(238.622439 0)scale(0.996264)" xlink:href="#CMSS17-110"/>
      <use transform="translate(286.827382 0)scale(0.996264)" xlink:href="#CMSS17-101"/>
      <use transform="translate(328.466204 0)scale(0.996264)" xlink:href="#CMSS17-44"/>
      <use transform="translate(385.719522 0)scale(0.996264)" xlink:href="#CMSS17-67"/>
      <use transform="translate(445.575293 0)scale(0.996264)" xlink:href="#CMSS17-97"/>
      <use transform="translate(487.89476 0)scale(0.996264)" xlink:href="#CMSS17-114"/>
      <use transform="translate(519.804532 0)scale(0.996264)" xlink:href="#CMSS17-116"/>
      <use transform="translate(553.636099 0)scale(0.996264)" xlink:href="#CMSS17-101"/>
      <use transform="translate(626.504034 0)scale(0.996264)" xlink:href="#CMSS17-83"/>
      <use transform="translate(678.55255 0)scale(0.996264)" xlink:href="#CMSS17-105"/>
      <use transform="translate(700.733273 0)scale(0.996264)" xlink:href="#CMSS17-109"/>
      <use transform="translate(774.962528 0)scale(0.996264)" xlink:href="#CMSS17-112"/>
      <use transform="translate(823.167471 0)scale(0.996264)" xlink:href="#CMSS17-108"/>
      <use transform="translate(845.348194 0)scale(0.996264)" xlink:href="#CMSS17-101"/>
     </g>
    </g>
    <g id="line2d_19">
     <path d="M 707.613625 127.976015 
L 739.613625 127.976015 
" style="fill:none;stroke:#000000;stroke-linecap:square;stroke-width:1.5;"/>
    </g>
    <g id="line2d_20"/>
    <g id="text_15">
     <!-- Moyenne, carte simple -->
     <g transform="translate(752.413625 133.576015)scale(0.16 -0.16)">
      <defs>
       <path d="M 38.5 39.703125 
C 38.5 40.390625 33.90625 42.40625 32.703125 42.796875 
C 29.40625 44 25.203125 44 24.09375 44 
C 11.09375 44 3.296875 32.703125 3.296875 21.296875 
C 3.296875 9.296875 12 -1 23.703125 -1 
C 30.40625 -1 35.203125 1.1875 39.09375 3.78125 
L 38.5 10.375 
C 34.203125 7.078125 29.203125 5.265625 23.796875 5.265625 
C 16 5.265625 10.90625 12.09375 10.90625 21.390625 
C 10.90625 28.609375 14.203125 37.71875 24.203125 37.71875 
C 29.703125 37.71875 32.796875 36.609375 37.40625 33.515625 
z
" id="CMSS17-99"/>
      </defs>
      <use transform="scale(0.996264)" xlink:href="#CMSS17-77"/>
      <use transform="translate(81.67603 0)scale(0.996264)" xlink:href="#CMSS17-111"/>
      <use transform="translate(125.9172 0)scale(0.996264)" xlink:href="#CMSS17-121"/>
      <use transform="translate(166.314887 0)scale(0.996264)" xlink:href="#CMSS17-101"/>
      <use transform="translate(207.953709 0)scale(0.996264)" xlink:href="#CMSS17-110"/>
      <use transform="translate(256.158652 0)scale(0.996264)" xlink:href="#CMSS17-110"/>
      <use transform="translate(304.363596 0)scale(0.996264)" xlink:href="#CMSS17-101"/>
      <use transform="translate(346.002418 0)scale(0.996264)" xlink:href="#CMSS17-44"/>
      <use transform="translate(403.255735 0)scale(0.996264)" xlink:href="#CMSS17-99"/>
      <use transform="translate(444.894557 0)scale(0.996264)" xlink:href="#CMSS17-97"/>
      <use transform="translate(487.214024 0)scale(0.996264)" xlink:href="#CMSS17-114"/>
      <use transform="translate(519.123797 0)scale(0.996264)" xlink:href="#CMSS17-116"/>
      <use transform="translate(552.955363 0)scale(0.996264)" xlink:href="#CMSS17-101"/>
      <use transform="translate(625.823298 0)scale(0.996264)" xlink:href="#CMSS17-115"/>
      <use transform="translate(661.73684 0)scale(0.996264)" xlink:href="#CMSS17-105"/>
      <use transform="translate(683.917563 0)scale(0.996264)" xlink:href="#CMSS17-109"/>
      <use transform="translate(758.146818 0)scale(0.996264)" xlink:href="#CMSS17-112"/>
      <use transform="translate(806.351761 0)scale(0.996264)" xlink:href="#CMSS17-108"/>
      <use transform="translate(828.532484 0)scale(0.996264)" xlink:href="#CMSS17-101"/>
     </g>
    </g>
   </g>
  </g>
  <g id="axes_2">
   <g id="patch_8">
    <path d="M 62.392587 422.181871 
L 914.314437 422.181871 
L 914.314437 267.323515 
L 62.392587 267.323515 
z
" style="fill:#ffffff;"/>
   </g>
   <g id="PolyCollection_3">
    <defs>
     <path d="M 101.116307 -126.6882 
L 101.116307 -116.090178 
L 101.511447 -110.784648 
L 101.906587 -107.817639 
L 102.301727 -105.833008 
L 102.696867 -114.469783 
L 103.092007 -106.30052 
L 103.487147 -112.831865 
L 103.882287 -111.72455 
L 104.277427 -114.616685 
L 104.672567 -116.258605 
L 105.067707 -119.751093 
L 105.462847 -115.863227 
L 105.857987 -118.641852 
L 106.253127 -118.118989 
L 106.648267 -113.067319 
L 107.043407 -114.350228 
L 107.438547 -111.980577 
L 107.833687 -111.559673 
L 108.228827 -110.187971 
L 108.623967 -108.367486 
L 109.019107 -108.272336 
L 109.414247 -105.546833 
L 109.809387 -107.475936 
L 110.204527 -109.184241 
L 110.599667 -109.649037 
L 110.994807 -110.410337 
L 111.389947 -104.456935 
L 111.785087 -107.57652 
L 112.180227 -112.469481 
L 112.575367 -103.509912 
L 112.970507 -106.631737 
L 113.365647 -106.077093 
L 113.760787 -105.470925 
L 114.155927 -107.99008 
L 114.551067 -104.977769 
L 114.946207 -109.272204 
L 115.341347 -108.770256 
L 115.736487 -108.768136 
L 116.131627 -109.4008 
L 116.526767 -108.194833 
L 116.921907 -107.245892 
L 132.727508 -108.552527 
L 148.533108 -92.020482 
L 164.338708 -96.229891 
L 180.144308 -87.714135 
L 195.949908 -85.572761 
L 211.755509 -87.884734 
L 227.561109 -90.468829 
L 243.366709 -85.012012 
L 259.172309 -85.894399 
L 274.977909 -84.653217 
L 290.78351 -86.669087 
L 306.58911 -88.133734 
L 322.39471 -88.862348 
L 338.20031 -85.106109 
L 354.00591 -82.747574 
L 369.81151 -83.694955 
L 385.617111 -78.343204 
L 401.422711 -82.103607 
L 417.228311 -79.343214 
L 433.033911 -78.448013 
L 448.839511 -84.301391 
L 464.645112 -83.636489 
L 480.450712 -85.603328 
L 496.256312 -79.386676 
L 512.061912 -78.540406 
L 527.867512 -76.960495 
L 543.673113 -81.740819 
L 559.478713 -81.97327 
L 575.284313 -75.206904 
L 591.089913 -75.768218 
L 606.895513 -75.89315 
L 622.701113 -77.305958 
L 638.506714 -79.798102 
L 654.312314 -76.201125 
L 670.117914 -73.792475 
L 685.923514 -80.514756 
L 701.729114 -79.246461 
L 717.534715 -74.311458 
L 733.340315 -79.731251 
L 749.145915 -63.657145 
L 764.951515 -78.794455 
L 780.757115 -71.003864 
L 796.562716 -81.642497 
L 812.368316 -80.216224 
L 828.173916 -73.543149 
L 843.979516 -68.22715 
L 859.785116 -78.188284 
L 875.590716 -73.228554 
L 875.590716 -102.731785 
L 875.590716 -102.731785 
L 859.785116 -91.319036 
L 843.979516 -111.538293 
L 828.173916 -105.279698 
L 812.368316 -96.394882 
L 796.562716 -94.489998 
L 780.757115 -113.561 
L 764.951515 -93.743891 
L 749.145915 -109.903027 
L 733.340315 -94.796082 
L 717.534715 -96.309183 
L 701.729114 -93.166418 
L 685.923514 -93.556995 
L 670.117914 -90.238753 
L 654.312314 -90.800817 
L 638.506714 -92.809694 
L 622.701113 -91.793244 
L 606.895513 -103.974432 
L 591.089913 -118.592347 
L 575.284313 -121.206151 
L 559.478713 -100.425235 
L 543.673113 -92.996014 
L 527.867512 -118.830626 
L 512.061912 -100.979359 
L 496.256312 -104.001258 
L 480.450712 -105.278537 
L 464.645112 -99.971733 
L 448.839511 -108.284932 
L 433.033911 -109.880112 
L 417.228311 -115.733857 
L 401.422711 -111.689204 
L 385.617111 -110.779723 
L 369.81151 -122.189824 
L 354.00591 -121.697494 
L 338.20031 -137.299676 
L 322.39471 -136.537549 
L 306.58911 -133.52178 
L 290.78351 -125.882582 
L 274.977909 -134.27808 
L 259.172309 -141.355634 
L 243.366709 -128.608873 
L 227.561109 -141.485435 
L 211.755509 -144.671438 
L 195.949908 -152.968741 
L 180.144308 -161.440876 
L 164.338708 -161.861808 
L 148.533108 -148.426704 
L 132.727508 -158.468623 
L 116.921907 -168.717663 
L 116.526767 -167.220958 
L 116.131627 -169.171577 
L 115.736487 -170.495194 
L 115.341347 -171.325099 
L 114.946207 -171.816181 
L 114.551067 -163.671147 
L 114.155927 -176.780066 
L 113.760787 -161.589536 
L 113.365647 -161.166381 
L 112.970507 -162.333917 
L 112.575367 -165.391478 
L 112.180227 -164.845941 
L 111.785087 -167.292971 
L 111.389947 -170.011417 
L 110.994807 -165.578085 
L 110.599667 -164.309074 
L 110.204527 -166.128731 
L 109.809387 -157.197382 
L 109.414247 -146.861998 
L 109.019107 -146.370305 
L 108.623967 -146.297033 
L 108.228827 -154.976344 
L 107.833687 -152.866608 
L 107.438547 -149.053481 
L 107.043407 -151.037302 
L 106.648267 -154.625849 
L 106.253127 -162.0302 
L 105.857987 -162.585504 
L 105.462847 -155.068353 
L 105.067707 -159.001314 
L 104.672567 -145.906875 
L 104.277427 -149.825526 
L 103.882287 -161.559477 
L 103.487147 -151.380989 
L 103.092007 -160.623943 
L 102.696867 -132.954985 
L 102.301727 -151.666335 
L 101.906587 -159.689799 
L 101.511447 -146.312175 
L 101.116307 -126.6882 
z
" id="m872158453f" style="stroke:#ff0000;stroke-opacity:0.5;"/>
    </defs>
    <g clip-path="url(#p72641f3e2e)">
     <use style="fill:#ff0000;fill-opacity:0.5;stroke:#ff0000;stroke-opacity:0.5;" x="0" xlink:href="#m872158453f" y="478.8"/>
    </g>
   </g>
   <g id="PolyCollection_4">
    <defs>
     <path d="M 101.116307 -152.693927 
L 101.116307 -117.708693 
L 101.511447 -125.395206 
L 101.906587 -120.541954 
L 102.301727 -113.663961 
L 102.696867 -113.305542 
L 103.092007 -114.060009 
L 103.487147 -113.232128 
L 103.882287 -112.213518 
L 104.277427 -119.319288 
L 104.672567 -122.816089 
L 105.067707 -118.63158 
L 105.462847 -120.189137 
L 105.857987 -120.157926 
L 106.253127 -119.139518 
L 106.648267 -116.275316 
L 107.043407 -118.086889 
L 107.438547 -115.928968 
L 107.833687 -115.37569 
L 108.228827 -121.476328 
L 108.623967 -125.431116 
L 109.019107 -123.110101 
L 109.414247 -119.407791 
L 109.809387 -116.989778 
L 110.204527 -115.047408 
L 110.599667 -118.784684 
L 110.994807 -119.113948 
L 111.389947 -122.482348 
L 111.785087 -123.194114 
L 112.180227 -128.970149 
L 112.575367 -127.8533 
L 112.970507 -128.988432 
L 113.365647 -130.45613 
L 113.760787 -132.317022 
L 114.155927 -130.888336 
L 114.551067 -131.80956 
L 114.946207 -127.753588 
L 115.341347 -128.761315 
L 115.736487 -126.282387 
L 116.131627 -128.98133 
L 116.526767 -129.398125 
L 116.921907 -127.876302 
L 132.727508 -124.396114 
L 148.533108 -122.15231 
L 164.338708 -120.781231 
L 180.144308 -118.17691 
L 195.949908 -117.708447 
L 211.755509 -119.000457 
L 227.561109 -119.892545 
L 243.366709 -120.389177 
L 259.172309 -120.906382 
L 274.977909 -121.605116 
L 290.78351 -121.616328 
L 306.58911 -121.649825 
L 322.39471 -121.613767 
L 338.20031 -121.58855 
L 354.00591 -121.543723 
L 369.81151 -121.607306 
L 385.617111 -121.516741 
L 401.422711 -121.668072 
L 417.228311 -121.604303 
L 433.033911 -121.562631 
L 448.839511 -121.533839 
L 464.645112 -121.64728 
L 480.450712 -121.535227 
L 496.256312 -121.673287 
L 512.061912 -121.580028 
L 527.867512 -121.523265 
L 543.673113 -121.729475 
L 559.478713 -121.650793 
L 575.284313 -121.624722 
L 591.089913 -121.528486 
L 606.895513 -121.589134 
L 622.701113 -121.601066 
L 638.506714 -121.652455 
L 654.312314 -121.645031 
L 670.117914 -121.631487 
L 685.923514 -121.557469 
L 701.729114 -121.685473 
L 717.534715 -121.689302 
L 733.340315 -121.631496 
L 749.145915 -121.633114 
L 764.951515 -121.55839 
L 780.757115 -121.588242 
L 796.562716 -121.550327 
L 812.368316 -121.503955 
L 828.173916 -121.54585 
L 843.979516 -121.66752 
L 859.785116 -121.583417 
L 875.590716 -121.594002 
L 875.590716 -122.16245 
L 875.590716 -122.16245 
L 859.785116 -122.239968 
L 843.979516 -122.249296 
L 828.173916 -122.19592 
L 812.368316 -122.226191 
L 796.562716 -122.210508 
L 780.757115 -122.183219 
L 764.951515 -122.247271 
L 749.145915 -122.29107 
L 733.340315 -122.235864 
L 717.534715 -122.276287 
L 701.729114 -122.306081 
L 685.923514 -122.211087 
L 670.117914 -122.142099 
L 654.312314 -122.09619 
L 638.506714 -122.196595 
L 622.701113 -122.204438 
L 606.895513 -122.261465 
L 591.089913 -122.235655 
L 575.284313 -122.261693 
L 559.478713 -122.182465 
L 543.673113 -121.99048 
L 527.867512 -122.229676 
L 512.061912 -122.243473 
L 496.256312 -122.244757 
L 480.450712 -122.162136 
L 464.645112 -122.25495 
L 448.839511 -122.198429 
L 433.033911 -122.201548 
L 417.228311 -122.295992 
L 401.422711 -122.27687 
L 385.617111 -122.142968 
L 369.81151 -122.106349 
L 354.00591 -122.044815 
L 338.20031 -122.157909 
L 322.39471 -122.286595 
L 306.58911 -122.233525 
L 290.78351 -122.292744 
L 274.977909 -122.285012 
L 259.172309 -123.826697 
L 243.366709 -126.975594 
L 227.561109 -131.715665 
L 211.755509 -133.91222 
L 195.949908 -139.884096 
L 180.144308 -146.016938 
L 164.338708 -149.803159 
L 148.533108 -160.785612 
L 132.727508 -168.651295 
L 116.921907 -192.18776 
L 116.526767 -182.375141 
L 116.131627 -185.540644 
L 115.736487 -196.462048 
L 115.341347 -196.783962 
L 114.946207 -196.478351 
L 114.551067 -193.593406 
L 114.155927 -197.622576 
L 113.760787 -192.507547 
L 113.365647 -192.765282 
L 112.970507 -192.459768 
L 112.575367 -195.494688 
L 112.180227 -193.534643 
L 111.785087 -182.471735 
L 111.389947 -179.795079 
L 110.994807 -179.010044 
L 110.599667 -179.90729 
L 110.204527 -188.596986 
L 109.809387 -186.144728 
L 109.414247 -198.979063 
L 109.019107 -202.98693 
L 108.623967 -204.437469 
L 108.228827 -186.866131 
L 107.833687 -189.895724 
L 107.438547 -187.393411 
L 107.043407 -174.122862 
L 106.648267 -186.356381 
L 106.253127 -171.589143 
L 105.857987 -177.476374 
L 105.462847 -176.838784 
L 105.067707 -176.243058 
L 104.672567 -187.710475 
L 104.277427 -188.690794 
L 103.882287 -174.871195 
L 103.487147 -167.214706 
L 103.092007 -167.827919 
L 102.696867 -158.913545 
L 102.301727 -153.215629 
L 101.906587 -139.236423 
L 101.511447 -132.650943 
L 101.116307 -152.693927 
z
" id="m5c945fc39d" style="stroke:#000000;stroke-opacity:0.5;"/>
    </defs>
    <g clip-path="url(#p72641f3e2e)">
     <use style="fill-opacity:0.5;stroke:#000000;stroke-opacity:0.5;" x="0" xlink:href="#m5c945fc39d" y="478.8"/>
    </g>
   </g>
   <g id="matplotlib.axis_3">
    <g id="xtick_7">
     <g id="line2d_21">
      <g>
       <use style="stroke:#000000;stroke-width:0.8;" x="101.116307" xlink:href="#m870b102256" y="422.181871"/>
      </g>
     </g>
     <g id="text_16">
      <!-- $\mathdefault{0}$ -->
      <g transform="translate(97.214314 440.251459)scale(0.16 -0.16)">
       <use transform="scale(0.996264)" xlink:href="#CMR17-48"/>
      </g>
     </g>
    </g>
    <g id="xtick_8">
     <g id="line2d_22">
      <g>
       <use style="stroke:#000000;stroke-width:0.8;" x="259.172309" xlink:href="#m870b102256" y="422.181871"/>
      </g>
     </g>
     <g id="text_17">
      <!-- $\mathdefault{2000}$ -->
      <g transform="translate(243.564335 440.251459)scale(0.16 -0.16)">
       <use transform="scale(0.996264)" xlink:href="#CMR17-50"/>
       <use transform="translate(45.690477 0)scale(0.996264)" xlink:href="#CMR17-48"/>
       <use transform="translate(91.380954 0)scale(0.996264)" xlink:href="#CMR17-48"/>
       <use transform="translate(137.071431 0)scale(0.996264)" xlink:href="#CMR17-48"/>
      </g>
     </g>
    </g>
    <g id="xtick_9">
     <g id="line2d_23">
      <g>
       <use style="stroke:#000000;stroke-width:0.8;" x="417.228311" xlink:href="#m870b102256" y="422.181871"/>
      </g>
     </g>
     <g id="text_18">
      <!-- $\mathdefault{4000}$ -->
      <g transform="translate(401.620337 440.251459)scale(0.16 -0.16)">
       <use transform="scale(0.996264)" xlink:href="#CMR17-52"/>
       <use transform="translate(45.690477 0)scale(0.996264)" xlink:href="#CMR17-48"/>
       <use transform="translate(91.380954 0)scale(0.996264)" xlink:href="#CMR17-48"/>
       <use transform="translate(137.071431 0)scale(0.996264)" xlink:href="#CMR17-48"/>
      </g>
     </g>
    </g>
    <g id="xtick_10">
     <g id="line2d_24">
      <g>
       <use style="stroke:#000000;stroke-width:0.8;" x="575.284313" xlink:href="#m870b102256" y="422.181871"/>
      </g>
     </g>
     <g id="text_19">
      <!-- $\mathdefault{6000}$ -->
      <g transform="translate(559.676339 440.251459)scale(0.16 -0.16)">
       <use transform="scale(0.996264)" xlink:href="#CMR17-54"/>
       <use transform="translate(45.690477 0)scale(0.996264)" xlink:href="#CMR17-48"/>
       <use transform="translate(91.380954 0)scale(0.996264)" xlink:href="#CMR17-48"/>
       <use transform="translate(137.071431 0)scale(0.996264)" xlink:href="#CMR17-48"/>
      </g>
     </g>
    </g>
    <g id="xtick_11">
     <g id="line2d_25">
      <g>
       <use style="stroke:#000000;stroke-width:0.8;" x="733.340315" xlink:href="#m870b102256" y="422.181871"/>
      </g>
     </g>
     <g id="text_20">
      <!-- $\mathdefault{8000}$ -->
      <g transform="translate(717.732341 440.251459)scale(0.16 -0.16)">
       <use transform="scale(0.996264)" xlink:href="#CMR17-56"/>
       <use transform="translate(45.690477 0)scale(0.996264)" xlink:href="#CMR17-48"/>
       <use transform="translate(91.380954 0)scale(0.996264)" xlink:href="#CMR17-48"/>
       <use transform="translate(137.071431 0)scale(0.996264)" xlink:href="#CMR17-48"/>
      </g>
     </g>
    </g>
    <g id="xtick_12">
     <g id="line2d_26">
      <g>
       <use style="stroke:#000000;stroke-width:0.8;" x="891.396317" xlink:href="#m870b102256" y="422.181871"/>
      </g>
     </g>
     <g id="text_21">
      <!-- $\mathdefault{10000}$ -->
      <g transform="translate(871.886349 440.251459)scale(0.16 -0.16)">
       <use transform="scale(0.996264)" xlink:href="#CMR17-49"/>
       <use transform="translate(45.690477 0)scale(0.996264)" xlink:href="#CMR17-48"/>
       <use transform="translate(91.380954 0)scale(0.996264)" xlink:href="#CMR17-48"/>
       <use transform="translate(137.071431 0)scale(0.996264)" xlink:href="#CMR17-48"/>
       <use transform="translate(182.761908 0)scale(0.996264)" xlink:href="#CMR17-48"/>
      </g>
     </g>
    </g>
    <g id="text_22">
     <!-- timestep -->
     <g transform="translate(460.77852 458.420524)scale(0.16 -0.16)">
      <use transform="scale(0.996264)" xlink:href="#CMSS17-116"/>
      <use transform="translate(33.831567 0)scale(0.996264)" xlink:href="#CMSS17-105"/>
      <use transform="translate(56.01229 0)scale(0.996264)" xlink:href="#CMSS17-109"/>
      <use transform="translate(130.241544 0)scale(0.996264)" xlink:href="#CMSS17-101"/>
      <use transform="translate(171.880366 0)scale(0.996264)" xlink:href="#CMSS17-115"/>
      <use transform="translate(207.793908 0)scale(0.996264)" xlink:href="#CMSS17-116"/>
      <use transform="translate(241.625475 0)scale(0.996264)" xlink:href="#CMSS17-101"/>
      <use transform="translate(283.264297 0)scale(0.996264)" xlink:href="#CMSS17-112"/>
     </g>
    </g>
   </g>
   <g id="matplotlib.axis_4">
    <g id="ytick_3">
     <g id="line2d_27">
      <g>
       <use style="stroke:#000000;stroke-width:0.8;" x="62.392587" xlink:href="#m587b0bbdd3" y="413.019266"/>
      </g>
     </g>
     <g id="text_23">
      <!-- $\mathdefault{0.0}$ -->
      <g transform="translate(35.449064 418.55406)scale(0.16 -0.16)">
       <use transform="scale(0.996264)" xlink:href="#CMR17-48"/>
       <use transform="translate(45.690477 0)scale(0.996264)" xlink:href="#CMMI12-58"/>
       <use transform="translate(72.787654 0)scale(0.996264)" xlink:href="#CMR17-48"/>
      </g>
     </g>
    </g>
    <g id="ytick_4">
     <g id="line2d_28">
      <g>
       <use style="stroke:#000000;stroke-width:0.8;" x="62.392587" xlink:href="#m587b0bbdd3" y="373.170426"/>
      </g>
     </g>
     <g id="text_24">
      <!-- $\mathdefault{0.1}$ -->
      <g transform="translate(35.449064 378.70522)scale(0.16 -0.16)">
       <use transform="scale(0.996264)" xlink:href="#CMR17-48"/>
       <use transform="translate(45.690477 0)scale(0.996264)" xlink:href="#CMMI12-58"/>
       <use transform="translate(72.787654 0)scale(0.996264)" xlink:href="#CMR17-49"/>
      </g>
     </g>
    </g>
    <g id="ytick_5">
     <g id="line2d_29">
      <g>
       <use style="stroke:#000000;stroke-width:0.8;" x="62.392587" xlink:href="#m587b0bbdd3" y="333.321587"/>
      </g>
     </g>
     <g id="text_25">
      <!-- $\mathdefault{0.2}$ -->
      <g transform="translate(35.449064 338.856381)scale(0.16 -0.16)">
       <use transform="scale(0.996264)" xlink:href="#CMR17-48"/>
       <use transform="translate(45.690477 0)scale(0.996264)" xlink:href="#CMMI12-58"/>
       <use transform="translate(72.787654 0)scale(0.996264)" xlink:href="#CMR17-50"/>
      </g>
     </g>
    </g>
    <g id="ytick_6">
     <g id="line2d_30">
      <g>
       <use style="stroke:#000000;stroke-width:0.8;" x="62.392587" xlink:href="#m587b0bbdd3" y="293.472748"/>
      </g>
     </g>
     <g id="text_26">
      <!-- $\mathdefault{0.3}$ -->
      <g transform="translate(35.449064 299.007542)scale(0.16 -0.16)">
       <defs>
        <path d="M 22.09375 33.703125 
C 31 33.703125 34.90625 25.96875 34.90625 17.03125 
C 34.90625 5 28.5 0.390625 22.703125 0.390625 
C 17.40625 0.390625 8.796875 3.03125 6.09375 10.828125 
C 6.59375 10.625 7.09375 10.625 7.59375 10.625 
C 10 10.625 11.796875 12.21875 11.796875 14.8125 
C 11.796875 17.703125 9.59375 19 7.59375 19 
C 5.90625 19 3.296875 18.203125 3.296875 14.46875 
C 3.296875 5.234375 12.296875 -2 22.90625 -2 
C 34 -2 42.5 6.71875 42.5 16.953125 
C 42.5 26.671875 34.5 33.703125 25 34.796875 
C 32.59375 36.375 39.90625 43.0625 39.90625 52.015625 
C 39.90625 59.6875 32 65.296875 23 65.296875 
C 13.90625 65.296875 5.90625 59.828125 5.90625 52.015625 
C 5.90625 48.59375 8.5 48 9.796875 48 
C 11.90625 48 13.703125 49.296875 13.703125 51.890625 
C 13.703125 54.46875 11.90625 55.765625 9.796875 55.765625 
C 9.40625 55.765625 8.90625 55.765625 8.5 55.578125 
C 11.40625 61.859375 19.296875 63 22.796875 63 
C 26.296875 63 32.90625 61.328125 32.90625 51.875 
C 32.90625 49.109375 32.5 44.1875 29.09375 39.84375 
C 26.09375 36 22.703125 36 19.40625 35.6875 
C 18.90625 35.6875 16.59375 35.453125 16.203125 35.453125 
C 15.5 35.359375 15.09375 35.265625 15.09375 34.5 
C 15.09375 33.796875 15.203125 33.703125 17.203125 33.703125 
z
" id="CMR17-51"/>
       </defs>
       <use transform="scale(0.996264)" xlink:href="#CMR17-48"/>
       <use transform="translate(45.690477 0)scale(0.996264)" xlink:href="#CMMI12-58"/>
       <use transform="translate(72.787654 0)scale(0.996264)" xlink:href="#CMR17-51"/>
      </g>
     </g>
    </g>
    <g id="text_27">
     <!-- $I_x$ -->
     <g transform="translate(28.349588 351.383209)rotate(-90)scale(0.16 -0.16)">
      <use transform="scale(0.996264)" xlink:href="#CMMI12-73"/>
      <use transform="translate(43.024176 -14.943915)scale(0.697382)" xlink:href="#CMMI12-120"/>
     </g>
    </g>
   </g>
   <g id="line2d_31">
    <path clip-path="url(#p72641f3e2e)" d="M 101.116307 359.218849 
L 101.511447 355.525924 
L 101.906587 352.20613 
L 102.301727 355.513696 
L 102.696867 358.044448 
L 103.092007 356.179554 
L 103.487147 352.494582 
L 103.882287 352.300372 
L 104.277427 351.95413 
L 104.672567 351.744679 
L 105.067707 336.06337 
L 105.462847 347.854842 
L 105.857987 334.999908 
L 106.253127 339.368805 
L 106.648267 353.859703 
L 107.043407 349.542155 
L 107.438547 350.620548 
L 107.833687 352.288419 
L 108.228827 353.86875 
L 108.623967 356.872886 
L 109.019107 353.882604 
L 109.414247 359.179818 
L 109.809387 350.952276 
L 110.204527 344.837171 
L 110.599667 340.273648 
L 110.994807 343.067682 
L 111.389947 341.072839 
L 111.785087 339.658009 
L 112.180227 340.420901 
L 112.575367 348.577422 
L 112.970507 347.160566 
L 113.365647 347.664304 
L 113.760787 346.72368 
L 114.155927 331.701444 
L 114.551067 346.750107 
L 114.946207 331.319909 
L 115.341347 339.3283 
L 115.736487 337.97271 
L 116.131627 335.458059 
L 116.526767 341.379823 
L 116.921907 342.784456 
L 132.727508 339.921211 
L 148.533108 353.039369 
L 164.338708 355.496207 
L 180.144308 351.043125 
L 195.949908 374.624341 
L 211.755509 373.62578 
L 227.561109 377.59257 
L 243.366709 379.512659 
L 259.172309 368.189453 
L 274.977909 378.016218 
L 290.78351 374.106215 
L 306.58911 366.380306 
L 322.39471 365.174108 
L 338.20031 368.138332 
L 354.00591 382.473398 
L 369.81151 383.012378 
L 385.617111 389.150134 
L 401.422711 385.443159 
L 417.228311 385.679539 
L 433.033911 387.876306 
L 448.839511 386.496552 
L 464.645112 385.659187 
L 480.450712 386.312874 
L 496.256312 388.232223 
L 512.061912 389.201935 
L 527.867512 388.14887 
L 543.673113 391.8078 
L 559.478713 391.216122 
L 575.284313 388.494732 
L 591.089913 390.149153 
L 606.895513 390.033457 
L 622.701113 392.817188 
L 638.506714 391.403911 
L 654.312314 392.510917 
L 670.117914 398.957822 
L 685.923514 391.82494 
L 701.729114 393.207024 
L 717.534715 391.04361 
L 733.340315 391.278777 
L 749.145915 398.387607 
L 764.951515 392.379629 
L 780.757115 392.431165 
L 796.562716 390.674729 
L 812.368316 390.004638 
L 828.173916 392.046574 
L 843.979516 395.641258 
L 859.785116 393.383334 
L 875.590716 394.421885 
" style="fill:none;stroke:#ff0000;stroke-dasharray:5.55,2.4;stroke-dashoffset:0;stroke-width:1.5;"/>
   </g>
   <g id="line2d_32">
    <path clip-path="url(#p72641f3e2e)" d="M 101.116307 347.567766 
L 101.511447 350.11379 
L 101.906587 352.659938 
L 102.301727 351.986543 
L 102.696867 349.25906 
L 103.092007 348.801725 
L 103.487147 349.295807 
L 103.882287 348.805115 
L 104.277427 342.364804 
L 104.672567 336.237351 
L 105.067707 343.213447 
L 105.462847 336.433464 
L 105.857987 336.869857 
L 106.253127 341.135076 
L 106.648267 342.053458 
L 107.043407 336.523132 
L 107.438547 340.865374 
L 107.833687 343.701783 
L 108.228827 336.843047 
L 108.623967 323.05853 
L 109.019107 331.692778 
L 109.414247 338.018788 
L 109.809387 339.023395 
L 110.204527 340.83296 
L 110.599667 338.5085 
L 110.994807 339.807704 
L 111.389947 330.584102 
L 111.785087 332.040383 
L 112.180227 327.029337 
L 112.575367 327.084625 
L 112.970507 324.748693 
L 113.365647 325.147592 
L 113.760787 323.282176 
L 114.155927 323.805942 
L 114.551067 322.765073 
L 114.946207 330.73802 
L 115.341347 325.978644 
L 115.736487 330.424922 
L 116.131627 332.446817 
L 116.526767 333.440004 
L 116.921907 333.340968 
L 132.727508 336.969138 
L 148.533108 341.040275 
L 164.338708 351.116417 
L 180.144308 355.507143 
L 195.949908 356.535015 
L 211.755509 356.584763 
L 227.561109 356.698093 
L 243.366709 356.670903 
L 259.172309 356.8576 
L 274.977909 356.842161 
L 290.78351 356.746344 
L 306.58911 356.799322 
L 322.39471 356.796553 
L 338.20031 356.866866 
L 354.00591 357.041012 
L 369.81151 356.863035 
L 385.617111 356.92558 
L 401.422711 356.74591 
L 417.228311 356.775416 
L 433.033911 356.855876 
L 448.839511 356.833112 
L 464.645112 356.737076 
L 480.450712 356.929422 
L 496.256312 356.696167 
L 512.061912 356.829496 
L 527.867512 356.804201 
L 543.673113 356.957196 
L 559.478713 356.823909 
L 575.284313 356.735291 
L 591.089913 356.817926 
L 606.895513 356.769125 
L 622.701113 356.824929 
L 638.506714 356.848244 
L 654.312314 356.883289 
L 670.117914 356.858431 
L 685.923514 356.8667 
L 701.729114 356.773702 
L 717.534715 356.742402 
L 733.340315 356.747769 
L 749.145915 356.759203 
L 764.951515 356.822064 
L 780.757115 356.827658 
L 796.562716 356.885314 
L 812.368316 356.873197 
L 828.173916 356.848148 
L 843.979516 356.842546 
L 859.785116 356.751592 
L 875.590716 356.889584 
" style="fill:none;stroke:#000000;stroke-dasharray:5.55,2.4;stroke-dashoffset:0;stroke-width:1.5;"/>
   </g>
   <g id="line2d_33">
    <path clip-path="url(#p72641f3e2e)" d="M 101.116307 357.410811 
L 101.511447 350.251589 
L 101.906587 345.046281 
L 102.301727 350.050329 
L 102.696867 355.087616 
L 103.092007 345.337768 
L 103.487147 346.693573 
L 103.882287 342.157987 
L 104.277427 346.578895 
L 104.672567 347.71726 
L 105.067707 339.423796 
L 105.462847 343.33421 
L 105.857987 338.186322 
L 106.253127 338.725405 
L 106.648267 344.953416 
L 107.043407 346.106235 
L 107.438547 348.282971 
L 107.833687 346.58686 
L 108.228827 346.217842 
L 108.623967 351.467741 
L 109.019107 351.478679 
L 109.414247 352.595584 
L 109.809387 346.463341 
L 110.204527 341.143514 
L 110.599667 341.820944 
L 110.994807 340.805789 
L 111.389947 341.565824 
L 111.785087 341.365255 
L 112.180227 340.142289 
L 112.575367 344.349305 
L 112.970507 344.317173 
L 113.365647 345.178263 
L 113.760787 345.269769 
L 114.155927 336.414927 
L 114.551067 344.475542 
L 114.946207 338.255808 
L 115.341347 338.752322 
L 115.736487 339.168335 
L 116.131627 339.513811 
L 116.526767 341.092105 
L 116.921907 340.818222 
L 132.727508 345.289425 
L 148.533108 358.576407 
L 164.338708 349.75415 
L 180.144308 354.222494 
L 195.949908 359.529249 
L 211.755509 362.521914 
L 227.561109 362.822868 
L 243.366709 371.989558 
L 259.172309 365.174984 
L 274.977909 369.334352 
L 290.78351 372.524165 
L 306.58911 367.972243 
L 322.39471 366.100052 
L 338.20031 367.597107 
L 354.00591 376.577466 
L 369.81151 375.85761 
L 385.617111 384.238536 
L 401.422711 381.903594 
L 417.228311 381.261464 
L 433.033911 384.635937 
L 448.839511 382.506839 
L 464.645112 386.995889 
L 480.450712 383.359068 
L 496.256312 387.106033 
L 512.061912 389.040118 
L 527.867512 380.90444 
L 543.673113 391.431584 
L 559.478713 387.600748 
L 575.284313 380.593473 
L 591.089913 381.619717 
L 606.895513 388.866209 
L 622.701113 394.250399 
L 638.506714 392.496102 
L 654.312314 395.299029 
L 670.117914 396.784386 
L 685.923514 391.764124 
L 701.729114 392.59356 
L 717.534715 393.489679 
L 733.340315 391.536334 
L 749.145915 392.019914 
L 764.951515 392.530827 
L 780.757115 386.517568 
L 796.562716 390.733753 
L 812.368316 390.494447 
L 828.173916 389.388577 
L 843.979516 388.917278 
L 859.785116 394.04634 
L 875.590716 390.81983 
" style="fill:none;stroke:#ff0000;stroke-linecap:square;stroke-width:1.5;"/>
   </g>
   <g id="line2d_34">
    <path clip-path="url(#p72641f3e2e)" d="M 101.116307 343.59869 
L 101.511447 349.776926 
L 101.906587 348.910811 
L 102.301727 345.360205 
L 102.696867 342.690456 
L 103.092007 337.856036 
L 103.487147 338.576583 
L 103.882287 335.257643 
L 104.277427 324.794959 
L 104.672567 323.536718 
L 105.067707 331.362681 
L 105.462847 330.28604 
L 105.857987 329.98285 
L 106.253127 333.43567 
L 106.648267 327.484151 
L 107.043407 332.695125 
L 107.438547 327.138811 
L 107.833687 326.164293 
L 108.228827 324.628771 
L 108.623967 313.865708 
L 109.019107 315.751485 
L 109.414247 319.606573 
L 109.809387 327.232747 
L 110.204527 326.977803 
L 110.599667 329.454013 
L 110.994807 329.738004 
L 111.389947 327.661287 
L 111.785087 325.967075 
L 112.180227 317.547604 
L 112.575367 317.126006 
L 112.970507 318.0759 
L 113.365647 317.189294 
L 113.760787 316.387716 
L 114.155927 314.544544 
L 114.551067 316.098517 
L 114.946207 316.684031 
L 115.341347 316.027362 
L 115.736487 317.427783 
L 116.131627 321.539013 
L 116.526767 322.913367 
L 116.921907 318.767969 
L 132.727508 332.276296 
L 148.533108 337.331039 
L 164.338708 343.507805 
L 180.144308 346.703076 
L 195.949908 350.003728 
L 211.755509 352.343661 
L 227.561109 352.995895 
L 243.366709 355.117615 
L 259.172309 356.433461 
L 274.977909 356.854936 
L 290.78351 356.845464 
L 306.58911 356.858325 
L 322.39471 356.849819 
L 338.20031 356.926771 
L 354.00591 357.005731 
L 369.81151 356.943173 
L 385.617111 356.970145 
L 401.422711 356.827529 
L 417.228311 356.849852 
L 433.033911 356.91791 
L 448.839511 356.933866 
L 464.645112 356.848885 
L 480.450712 356.951319 
L 496.256312 356.840978 
L 512.061912 356.88825 
L 527.867512 356.92353 
L 543.673113 356.940023 
L 559.478713 356.883371 
L 575.284313 356.856793 
L 591.089913 356.91793 
L 606.895513 356.874701 
L 622.701113 356.897248 
L 638.506714 356.875475 
L 654.312314 356.929389 
L 670.117914 356.913207 
L 685.923514 356.915722 
L 701.729114 356.804223 
L 717.534715 356.817206 
L 733.340315 356.86632 
L 749.145915 356.837908 
L 764.951515 356.897169 
L 780.757115 356.91427 
L 796.562716 356.919583 
L 812.368316 356.934927 
L 828.173916 356.929115 
L 843.979516 356.841592 
L 859.785116 356.888308 
L 875.590716 356.921774 
" style="fill:none;stroke:#000000;stroke-linecap:square;stroke-width:1.5;"/>
   </g>
   <g id="patch_9">
    <path d="M 62.392587 422.181871 
L 62.392587 267.323515 
" style="fill:none;stroke:#000000;stroke-linecap:square;stroke-linejoin:miter;stroke-width:0.8;"/>
   </g>
   <g id="patch_10">
    <path d="M 914.314437 422.181871 
L 914.314437 267.323515 
" style="fill:none;stroke:#000000;stroke-linecap:square;stroke-linejoin:miter;stroke-width:0.8;"/>
   </g>
   <g id="patch_11">
    <path d="M 62.392587 422.181871 
L 914.314437 422.181871 
" style="fill:none;stroke:#000000;stroke-linecap:square;stroke-linejoin:miter;stroke-width:0.8;"/>
   </g>
   <g id="patch_12">
    <path d="M 62.392587 267.323515 
L 914.314437 267.323515 
" style="fill:none;stroke:#000000;stroke-linecap:square;stroke-linejoin:miter;stroke-width:0.8;"/>
   </g>
   <g id="text_28">
    <!-- Map Y -->
    <g transform="translate(462.601541 261.323515)scale(0.192 -0.192)">
     <defs>
      <path d="M 62.09375 69 
L 53.5 69 
L 38 44.953125 
C 36.796875 43.046875 33.40625 37.890625 31.796875 35 
L 26.90625 42.859375 
L 10.09375 69 
L 0.296875 69 
L 27.09375 27.640625 
L 27.09375 0 
L 35.296875 0 
L 35.296875 27.546875 
z
" id="CMSS17-89"/>
     </defs>
     <use transform="scale(0.996264)" xlink:href="#CMSS17-77"/>
     <use transform="translate(81.67603 0)scale(0.996264)" xlink:href="#CMSS17-97"/>
     <use transform="translate(126.597951 0)scale(0.996264)" xlink:href="#CMSS17-112"/>
     <use transform="translate(206.032006 0)scale(0.996264)" xlink:href="#CMSS17-89"/>
    </g>
   </g>
   <g id="legend_2">
    <g id="patch_13">
     <path d="M 704.168253 373.835491 
L 903.114437 373.835491 
Q 906.314437 373.835491 906.314437 370.635491 
L 906.314437 278.523515 
Q 906.314437 275.323515 903.114437 275.323515 
L 704.168253 275.323515 
Q 700.968253 275.323515 700.968253 278.523515 
L 700.968253 370.635491 
Q 700.968253 373.835491 704.168253 373.835491 
z
" style="fill:#ffffff;opacity:0.8;stroke:#cccccc;stroke-linejoin:miter;"/>
    </g>
    <g id="line2d_35">
     <path d="M 707.368253 288.281015 
L 739.368253 288.281015 
" style="fill:none;stroke:#ff0000;stroke-dasharray:5.55,2.4;stroke-dashoffset:0;stroke-width:1.5;"/>
    </g>
    <g id="line2d_36"/>
    <g id="text_29">
     <!-- Mediane,CxSOM -->
     <g transform="translate(752.168253 293.881015)scale(0.16 -0.16)">
      <use transform="scale(0.996264)" xlink:href="#CMSS17-77"/>
      <use transform="translate(81.67603 0)scale(0.996264)" xlink:href="#CMSS17-101"/>
      <use transform="translate(123.314852 0)scale(0.996264)" xlink:href="#CMSS17-100"/>
      <use transform="translate(171.519795 0)scale(0.996264)" xlink:href="#CMSS17-105"/>
      <use transform="translate(193.700518 0)scale(0.996264)" xlink:href="#CMSS17-97"/>
      <use transform="translate(238.622439 0)scale(0.996264)" xlink:href="#CMSS17-110"/>
      <use transform="translate(286.827382 0)scale(0.996264)" xlink:href="#CMSS17-101"/>
      <use transform="translate(328.466204 0)scale(0.996264)" xlink:href="#CMSS17-44"/>
      <use transform="translate(354.490409 0)scale(0.996264)" xlink:href="#CMSS17-67"/>
      <use transform="translate(414.34618 0)scale(0.996264)" xlink:href="#CMSS17-120"/>
      <use transform="translate(457.346322 0)scale(0.996264)" xlink:href="#CMSS17-83"/>
      <use transform="translate(509.394838 0)scale(0.996264)" xlink:href="#CMSS17-79"/>
      <use transform="translate(578.419094 0)scale(0.996264)" xlink:href="#CMSS17-77"/>
     </g>
    </g>
    <g id="line2d_37">
     <path d="M 707.368253 311.766015 
L 739.368253 311.766015 
" style="fill:none;stroke:#000000;stroke-dasharray:5.55,2.4;stroke-dashoffset:0;stroke-width:1.5;"/>
    </g>
    <g id="line2d_38"/>
    <g id="text_30">
     <!-- Mediane,Carte Simple -->
     <g transform="translate(752.168253 317.366015)scale(0.16 -0.16)">
      <use transform="scale(0.996264)" xlink:href="#CMSS17-77"/>
      <use transform="translate(81.67603 0)scale(0.996264)" xlink:href="#CMSS17-101"/>
      <use transform="translate(123.314852 0)scale(0.996264)" xlink:href="#CMSS17-100"/>
      <use transform="translate(171.519795 0)scale(0.996264)" xlink:href="#CMSS17-105"/>
      <use transform="translate(193.700518 0)scale(0.996264)" xlink:href="#CMSS17-97"/>
      <use transform="translate(238.622439 0)scale(0.996264)" xlink:href="#CMSS17-110"/>
      <use transform="translate(286.827382 0)scale(0.996264)" xlink:href="#CMSS17-101"/>
      <use transform="translate(328.466204 0)scale(0.996264)" xlink:href="#CMSS17-44"/>
      <use transform="translate(354.490409 0)scale(0.996264)" xlink:href="#CMSS17-67"/>
      <use transform="translate(414.34618 0)scale(0.996264)" xlink:href="#CMSS17-97"/>
      <use transform="translate(456.665647 0)scale(0.996264)" xlink:href="#CMSS17-114"/>
      <use transform="translate(488.57542 0)scale(0.996264)" xlink:href="#CMSS17-116"/>
      <use transform="translate(522.406986 0)scale(0.996264)" xlink:href="#CMSS17-101"/>
      <use transform="translate(595.274921 0)scale(0.996264)" xlink:href="#CMSS17-83"/>
      <use transform="translate(647.323437 0)scale(0.996264)" xlink:href="#CMSS17-105"/>
      <use transform="translate(669.50416 0)scale(0.996264)" xlink:href="#CMSS17-109"/>
      <use transform="translate(743.733415 0)scale(0.996264)" xlink:href="#CMSS17-112"/>
      <use transform="translate(791.938358 0)scale(0.996264)" xlink:href="#CMSS17-108"/>
      <use transform="translate(814.119081 0)scale(0.996264)" xlink:href="#CMSS17-101"/>
     </g>
    </g>
    <g id="line2d_39">
     <path d="M 707.368253 335.251015 
L 739.368253 335.251015 
" style="fill:none;stroke:#ff0000;stroke-linecap:square;stroke-width:1.5;"/>
    </g>
    <g id="line2d_40"/>
    <g id="text_31">
     <!-- Moyenne, CxSOM -->
     <g transform="translate(752.168253 340.851015)scale(0.16 -0.16)">
      <use transform="scale(0.996264)" xlink:href="#CMSS17-77"/>
      <use transform="translate(81.67603 0)scale(0.996264)" xlink:href="#CMSS17-111"/>
      <use transform="translate(125.9172 0)scale(0.996264)" xlink:href="#CMSS17-121"/>
      <use transform="translate(166.314887 0)scale(0.996264)" xlink:href="#CMSS17-101"/>
      <use transform="translate(207.953709 0)scale(0.996264)" xlink:href="#CMSS17-110"/>
      <use transform="translate(256.158652 0)scale(0.996264)" xlink:href="#CMSS17-110"/>
      <use transform="translate(304.363596 0)scale(0.996264)" xlink:href="#CMSS17-101"/>
      <use transform="translate(346.002418 0)scale(0.996264)" xlink:href="#CMSS17-44"/>
      <use transform="translate(403.255735 0)scale(0.996264)" xlink:href="#CMSS17-67"/>
      <use transform="translate(463.111507 0)scale(0.996264)" xlink:href="#CMSS17-120"/>
      <use transform="translate(506.111649 0)scale(0.996264)" xlink:href="#CMSS17-83"/>
      <use transform="translate(558.160165 0)scale(0.996264)" xlink:href="#CMSS17-79"/>
      <use transform="translate(627.18442 0)scale(0.996264)" xlink:href="#CMSS17-77"/>
     </g>
    </g>
    <g id="line2d_41">
     <path d="M 707.368253 358.736015 
L 739.368253 358.736015 
" style="fill:none;stroke:#000000;stroke-linecap:square;stroke-width:1.5;"/>
    </g>
    <g id="line2d_42"/>
    <g id="text_32">
     <!-- Moyenne, Carte simple -->
     <g transform="translate(752.168253 364.336015)scale(0.16 -0.16)">
      <use transform="scale(0.996264)" xlink:href="#CMSS17-77"/>
      <use transform="translate(81.67603 0)scale(0.996264)" xlink:href="#CMSS17-111"/>
      <use transform="translate(125.9172 0)scale(0.996264)" xlink:href="#CMSS17-121"/>
      <use transform="translate(166.314887 0)scale(0.996264)" xlink:href="#CMSS17-101"/>
      <use transform="translate(207.953709 0)scale(0.996264)" xlink:href="#CMSS17-110"/>
      <use transform="translate(256.158652 0)scale(0.996264)" xlink:href="#CMSS17-110"/>
      <use transform="translate(304.363596 0)scale(0.996264)" xlink:href="#CMSS17-101"/>
      <use transform="translate(346.002418 0)scale(0.996264)" xlink:href="#CMSS17-44"/>
      <use transform="translate(403.255735 0)scale(0.996264)" xlink:href="#CMSS17-67"/>
      <use transform="translate(463.111507 0)scale(0.996264)" xlink:href="#CMSS17-97"/>
      <use transform="translate(505.430974 0)scale(0.996264)" xlink:href="#CMSS17-114"/>
      <use transform="translate(537.340746 0)scale(0.996264)" xlink:href="#CMSS17-116"/>
      <use transform="translate(571.172313 0)scale(0.996264)" xlink:href="#CMSS17-101"/>
      <use transform="translate(644.040248 0)scale(0.996264)" xlink:href="#CMSS17-115"/>
      <use transform="translate(679.95379 0)scale(0.996264)" xlink:href="#CMSS17-105"/>
      <use transform="translate(702.134513 0)scale(0.996264)" xlink:href="#CMSS17-109"/>
      <use transform="translate(776.363767 0)scale(0.996264)" xlink:href="#CMSS17-112"/>
      <use transform="translate(824.56871 0)scale(0.996264)" xlink:href="#CMSS17-108"/>
      <use transform="translate(846.749433 0)scale(0.996264)" xlink:href="#CMSS17-101"/>
     </g>
    </g>
   </g>
  </g>
 </g>
 <defs>
  <clipPath id="pc3bec76d83">
   <rect height="154.858356" width="851.92185" x="62.392587" y="36.563515"/>
  </clipPath>
  <clipPath id="p72641f3e2e">
   <rect height="154.858356" width="851.92185" x="62.392587" y="267.323515"/>
  </clipPath>
 </defs>
</svg>
