<?xml version="1.0" encoding="utf-8" standalone="no"?>
<!DOCTYPE svg PUBLIC "-//W3C//DTD SVG 1.1//EN"
  "http://www.w3.org/Graphics/SVG/1.1/DTD/svg11.dtd">
<!-- Created with matplotlib (https://matplotlib.org/) -->
<svg height="478.8pt" version="1.1" viewBox="0 0 931.68 478.8" width="931.68pt" xmlns="http://www.w3.org/2000/svg" xmlns:xlink="http://www.w3.org/1999/xlink">
 <metadata>
  <rdf:RDF xmlns:cc="http://creativecommons.org/ns#" xmlns:dc="http://purl.org/dc/elements/1.1/" xmlns:rdf="http://www.w3.org/1999/02/22-rdf-syntax-ns#">
   <cc:Work>
    <dc:type rdf:resource="http://purl.org/dc/dcmitype/StillImage"/>
    <dc:date>2022-06-23T10:21:45.076477</dc:date>
    <dc:format>image/svg+xml</dc:format>
    <dc:creator>
     <cc:Agent>
      <dc:title>Matplotlib v3.3.4, https://matplotlib.org/</dc:title>
     </cc:Agent>
    </dc:creator>
   </cc:Work>
  </rdf:RDF>
 </metadata>
 <defs>
  <style type="text/css">*{stroke-linecap:butt;stroke-linejoin:round;}</style>
 </defs>
 <g id="figure_1">
  <g id="patch_1">
   <path d="M 0 478.8 
L 931.68 478.8 
L 931.68 0 
L 0 0 
z
" style="fill:#ffffff;"/>
  </g>
  <g id="axes_1">
   <g id="patch_2">
    <path d="M 43.385756 205.288647 
L 920.88 205.288647 
L 920.88 25.10218 
L 43.385756 25.10218 
z
" style="fill:#ffffff;"/>
   </g>
   <g id="matplotlib.axis_1">
    <g id="xtick_1">
     <g id="line2d_1">
      <defs>
       <path d="M 0 0 
L 0 3.5 
" id="mf45162e675" style="stroke:#000000;stroke-width:0.8;"/>
      </defs>
      <g>
       <use style="stroke:#000000;stroke-width:0.8;" x="83.271858" xlink:href="#mf45162e675" y="205.288647"/>
      </g>
     </g>
     <g id="text_1">
      <!-- $\mathdefault{0}$ -->
      <g transform="translate(80.78119 219.207145)scale(0.1 -0.1)">
       <defs>
        <path d="M 42 31.640625 
C 42 37.75 41.90625 48.125 37.703125 56.109375 
C 34 63.109375 28.09375 65.59375 22.90625 65.59375 
C 18.09375 65.59375 12 63.40625 8.203125 56.203125 
C 4.203125 48.71875 3.796875 39.4375 3.796875 31.640625 
C 3.796875 25.953125 3.90625 17.28125 7 9.671875 
C 11.296875 -0.609375 19 -2 22.90625 -2 
C 27.5 -2 34.5 -0.109375 38.59375 9.375 
C 41.59375 16.28125 42 24.359375 42 31.640625 
z
M 22.90625 -0.40625 
C 16.5 -0.40625 12.703125 5.078125 11.296875 12.6875 
C 10.203125 18.5625 10.203125 27.15625 10.203125 32.75 
C 10.203125 40.4375 10.203125 46.828125 11.5 52.921875 
C 13.40625 61.390625 19 64 22.90625 64 
C 27 64 32.296875 61.296875 34.203125 53.125 
C 35.5 47.4375 35.59375 40.734375 35.59375 32.75 
C 35.59375 26.25 35.59375 18.265625 34.40625 12.375 
C 32.296875 1.484375 26.40625 -0.40625 22.90625 -0.40625 
z
" id="CMR17-48"/>
       </defs>
       <use transform="scale(0.996264)" xlink:href="#CMR17-48"/>
      </g>
     </g>
    </g>
    <g id="xtick_2">
     <g id="line2d_2">
      <g>
       <use style="stroke:#000000;stroke-width:0.8;" x="225.722222" xlink:href="#mf45162e675" y="205.288647"/>
      </g>
     </g>
     <g id="text_2">
      <!-- $\mathdefault{500}$ -->
      <g transform="translate(218.250219 219.207145)scale(0.1 -0.1)">
       <defs>
        <path d="M 11.40625 57.6875 
C 12.40625 57.28125 16.5 56 20.703125 56 
C 30 56 35.09375 61.109375 38 64.0625 
C 38 64.953125 38 65.5 37.40625 65.5 
C 37.296875 65.5 37.09375 65.5 36.296875 65.046875 
C 32.796875 63.40625 28.703125 62.078125 23.703125 62.078125 
C 20.703125 62.078125 16.203125 62.484375 11.296875 64.671875 
C 10.203125 65.171875 10 65.171875 9.90625 65.171875 
C 9.40625 65.171875 9.296875 65.0625 9.296875 63.078125 
L 9.296875 34.421875 
C 9.296875 32.640625 9.296875 32.140625 10.296875 32.140625 
C 10.796875 32.140625 11 32.34375 11.5 33.03125 
C 14.703125 37.515625 19.09375 39.40625 24.09375 39.40625 
C 27.59375 39.40625 35.09375 37.21875 35.09375 20.140625 
C 35.09375 16.953125 35.09375 11.171875 32.09375 6.578125 
C 29.59375 2.484375 25.703125 0.390625 21.40625 0.390625 
C 14.796875 0.390625 8.09375 5 6.296875 12.71875 
C 6.703125 12.609375 7.5 12.421875 7.90625 12.421875 
C 9.203125 12.421875 11.703125 13.125 11.703125 16.21875 
C 11.703125 18.90625 9.796875 20 7.90625 20 
C 5.59375 20 4.09375 18.59375 4.09375 15.796875 
C 4.09375 7.09375 11 -2 21.59375 -2 
C 31.90625 -2 41.703125 6.875 41.703125 19.75 
C 41.703125 31.71875 33.90625 41 24.203125 41 
C 19.09375 41 14.796875 39.109375 11.40625 35.53125 
z
" id="CMR17-53"/>
       </defs>
       <use transform="scale(0.996264)" xlink:href="#CMR17-53"/>
       <use transform="translate(45.690477 0)scale(0.996264)" xlink:href="#CMR17-48"/>
       <use transform="translate(91.380954 0)scale(0.996264)" xlink:href="#CMR17-48"/>
      </g>
     </g>
    </g>
    <g id="xtick_3">
     <g id="line2d_3">
      <g>
       <use style="stroke:#000000;stroke-width:0.8;" x="368.172586" xlink:href="#mf45162e675" y="205.288647"/>
      </g>
     </g>
     <g id="text_3">
      <!-- $\mathdefault{1000}$ -->
      <g transform="translate(358.209916 219.207145)scale(0.1 -0.1)">
       <defs>
        <path d="M 26.59375 63.40625 
C 26.59375 65.5 26.5 65.5 25.09375 65.5 
C 21.203125 61.1875 15.296875 59.796875 9.703125 59.796875 
C 9.40625 59.796875 8.90625 59.796875 8.796875 59.5 
C 8.703125 59.296875 8.703125 59.09375 8.703125 57 
C 11.796875 57 17 57.59375 21 59.984375 
L 21 7.203125 
C 21 3.6875 20.796875 2.5 12.203125 2.5 
L 9.203125 2.5 
L 9.203125 0 
C 14 0 19 0 23.796875 0 
C 28.59375 0 33.59375 0 38.40625 0 
L 38.40625 2.5 
L 35.40625 2.5 
C 26.796875 2.5 26.59375 3.59375 26.59375 7.15625 
z
" id="CMR17-49"/>
       </defs>
       <use transform="scale(0.996264)" xlink:href="#CMR17-49"/>
       <use transform="translate(45.690477 0)scale(0.996264)" xlink:href="#CMR17-48"/>
       <use transform="translate(91.380954 0)scale(0.996264)" xlink:href="#CMR17-48"/>
       <use transform="translate(137.071431 0)scale(0.996264)" xlink:href="#CMR17-48"/>
      </g>
     </g>
    </g>
    <g id="xtick_4">
     <g id="line2d_4">
      <g>
       <use style="stroke:#000000;stroke-width:0.8;" x="510.622951" xlink:href="#mf45162e675" y="205.288647"/>
      </g>
     </g>
     <g id="text_4">
      <!-- $\mathdefault{1500}$ -->
      <g transform="translate(500.66028 219.207145)scale(0.1 -0.1)">
       <use transform="scale(0.996264)" xlink:href="#CMR17-49"/>
       <use transform="translate(45.690477 0)scale(0.996264)" xlink:href="#CMR17-53"/>
       <use transform="translate(91.380954 0)scale(0.996264)" xlink:href="#CMR17-48"/>
       <use transform="translate(137.071431 0)scale(0.996264)" xlink:href="#CMR17-48"/>
      </g>
     </g>
    </g>
    <g id="xtick_5">
     <g id="line2d_5">
      <g>
       <use style="stroke:#000000;stroke-width:0.8;" x="653.073315" xlink:href="#mf45162e675" y="205.288647"/>
      </g>
     </g>
     <g id="text_5">
      <!-- $\mathdefault{2000}$ -->
      <g transform="translate(643.110645 219.207145)scale(0.1 -0.1)">
       <defs>
        <path d="M 41.703125 15.453125 
L 39.90625 15.453125 
C 38.90625 8.375 38.09375 7.171875 37.703125 6.5625 
C 37.203125 5.765625 30 5.765625 28.59375 5.765625 
L 9.40625 5.765625 
C 13 9.671875 20 16.75 28.5 24.953125 
C 34.59375 30.734375 41.703125 37.53125 41.703125 47.421875 
C 41.703125 59.21875 32.296875 66 21.796875 66 
C 10.796875 66 4.09375 56.3125 4.09375 47.34375 
C 4.09375 43.4375 7 42.9375 8.203125 42.9375 
C 9.203125 42.9375 12.203125 43.546875 12.203125 47.03125 
C 12.203125 50.109375 9.59375 51 8.203125 51 
C 7.59375 51 7 50.90625 6.59375 50.703125 
C 8.5 59.21875 14.296875 63.40625 20.40625 63.40625 
C 29.09375 63.40625 34.796875 56.515625 34.796875 47.421875 
C 34.796875 38.734375 29.703125 31.25 24 24.75 
L 4.09375 2.28125 
L 4.09375 0 
L 39.296875 0 
z
" id="CMR17-50"/>
       </defs>
       <use transform="scale(0.996264)" xlink:href="#CMR17-50"/>
       <use transform="translate(45.690477 0)scale(0.996264)" xlink:href="#CMR17-48"/>
       <use transform="translate(91.380954 0)scale(0.996264)" xlink:href="#CMR17-48"/>
       <use transform="translate(137.071431 0)scale(0.996264)" xlink:href="#CMR17-48"/>
      </g>
     </g>
    </g>
    <g id="xtick_6">
     <g id="line2d_6">
      <g>
       <use style="stroke:#000000;stroke-width:0.8;" x="795.523679" xlink:href="#mf45162e675" y="205.288647"/>
      </g>
     </g>
     <g id="text_6">
      <!-- $\mathdefault{2500}$ -->
      <g transform="translate(785.561009 219.207145)scale(0.1 -0.1)">
       <use transform="scale(0.996264)" xlink:href="#CMR17-50"/>
       <use transform="translate(45.690477 0)scale(0.996264)" xlink:href="#CMR17-53"/>
       <use transform="translate(91.380954 0)scale(0.996264)" xlink:href="#CMR17-48"/>
       <use transform="translate(137.071431 0)scale(0.996264)" xlink:href="#CMR17-48"/>
      </g>
     </g>
    </g>
    <g id="text_7">
     <!-- timestep -->
     <g transform="translate(464.476859 232.062822)scale(0.1 -0.1)">
      <defs>
       <path d="M 16.703125 37 
L 29.703125 37 
L 29.703125 42.765625 
L 16.703125 42.765625 
L 16.703125 55 
L 9.59375 55 
L 9.59375 42.765625 
L 1.703125 42.765625 
L 1.703125 37 
L 9.40625 37 
L 9.40625 11.703125 
C 9.40625 6 10.703125 -1 17.296875 -1 
C 22.296875 -1 26.90625 0.390625 31.296875 2.6875 
L 29.703125 8.5625 
C 27.296875 6.46875 24.40625 5.265625 21.296875 5.265625 
C 16.90625 5.265625 16.703125 10.875 16.703125 13.375 
z
" id="CMSS17-116"/>
       <path d="M 15.296875 65.359375 
L 6.90625 65.359375 
L 6.90625 57 
L 15.296875 57 
z
M 14.796875 42.796875 
L 7.40625 42.796875 
L 7.40625 0 
L 14.796875 0 
z
" id="CMSS17-105"/>
       <path d="M 67 29.328125 
C 67 36.0625 65.296875 44 54.09375 44 
C 46.59375 44 42.09375 39.3125 40.09375 36.421875 
C 38.296875 41.71875 34.09375 44 28.09375 44 
C 21.296875 44 17 40.125 14.703125 37.328125 
L 14.703125 43.09375 
L 7.40625 43.09375 
L 7.40625 0 
L 15 0 
L 15 24.359375 
C 15 30.296875 17.203125 37.9375 24.296875 37.9375 
C 33.40625 37.9375 33.40625 31.5 33.40625 28.578125 
L 33.40625 0 
L 41 0 
L 41 24.359375 
C 41 30.296875 43.203125 37.9375 50.296875 37.9375 
C 59.40625 37.9375 59.40625 31.5 59.40625 28.578125 
L 59.40625 0 
L 67 0 
z
" id="CMSS17-109"/>
       <path d="M 39.09375 21.515625 
C 39.09375 24.84375 38.90625 31.296875 35.703125 36.640625 
C 32.203125 42.390625 26.5 44 22.203125 44 
C 11.796875 44 3 34.1875 3 21.484375 
C 3 9.09375 12.09375 -1 23.59375 -1 
C 28.09375 -1 33.59375 0.296875 38.59375 3.875 
C 38.59375 4.28125 38.40625 6.46875 38.296875 6.5625 
C 38.296875 6.765625 38 9.84375 38 10.25 
C 33.203125 6.359375 27.703125 5.078125 23.703125 5.078125 
C 17.296875 5.078125 10.40625 10.421875 10.09375 21.515625 
z
M 10.90625 27 
C 12.203125 32.5625 16.59375 37.828125 22.203125 37.828125 
C 23.703125 37.828125 30.703125 37.828125 32.5 27 
z
" id="CMSS17-101"/>
       <path d="M 32.203125 41.046875 
C 26.296875 43.859375 21.703125 43.859375 18.703125 43.859375 
C 11.59375 43.859375 3.09375 41.375 3.09375 31.296875 
C 3.09375 21.234375 14.09375 19.03125 17.09375 18.421875 
C 21.703125 17.53125 26.796875 16.53125 26.796875 11.5625 
C 26.796875 5.265625 19.59375 5.265625 18.296875 5.265625 
C 14.296875 5.265625 8.796875 6.359375 3.796875 9.96875 
L 2.59375 3.28125 
C 8.296875 0 13.796875 -1 18.40625 -1 
C 30.703125 -1 33.796875 6.5 33.796875 12.203125 
C 33.796875 17.09375 31 20.390625 29.09375 21.890625 
C 25.796875 24.5 24.59375 24.796875 16.40625 26.5 
C 15 26.703125 10.09375 27.796875 10.09375 32.28125 
C 10.09375 38 16.40625 38 17.796875 38 
C 24.296875 38 28.296875 35.984375 31 34.5 
z
" id="CMSS17-115"/>
       <path d="M 15.09375 5.203125 
C 18.40625 2.015625 22.90625 -0.078125 27.703125 -0.078125 
C 37 -0.078125 45 9.421875 45 22.0625 
C 45 33.734375 39 44 30.40625 44 
C 25.40625 44 19.40625 42.21875 14.90625 38.625 
L 14.90625 43.203125 
L 7.5 43.203125 
L 7.5 -19 
L 15.09375 -19 
z
M 15.09375 32.8125 
C 15.90625 34 19.296875 37.734375 24.796875 37.734375 
C 31.796875 37.734375 37.40625 30.625 37.40625 22.0625 
C 37.40625 12.296875 30.59375 6 23.90625 6 
C 21.90625 6 19.796875 6.484375 17.796875 8.171875 
C 15.09375 10.53125 15.09375 12 15.09375 13.390625 
z
" id="CMSS17-112"/>
      </defs>
      <use transform="scale(0.996264)" xlink:href="#CMSS17-116"/>
      <use transform="translate(33.831567 0)scale(0.996264)" xlink:href="#CMSS17-105"/>
      <use transform="translate(56.01229 0)scale(0.996264)" xlink:href="#CMSS17-109"/>
      <use transform="translate(130.241544 0)scale(0.996264)" xlink:href="#CMSS17-101"/>
      <use transform="translate(171.880366 0)scale(0.996264)" xlink:href="#CMSS17-115"/>
      <use transform="translate(207.793908 0)scale(0.996264)" xlink:href="#CMSS17-116"/>
      <use transform="translate(241.625475 0)scale(0.996264)" xlink:href="#CMSS17-101"/>
      <use transform="translate(283.264297 0)scale(0.996264)" xlink:href="#CMSS17-112"/>
     </g>
    </g>
   </g>
   <g id="matplotlib.axis_2">
    <g id="ytick_1">
     <g id="line2d_7">
      <defs>
       <path d="M 0 0 
L -3.5 0 
" id="m2c78876ed0" style="stroke:#000000;stroke-width:0.8;"/>
      </defs>
      <g>
       <use style="stroke:#000000;stroke-width:0.8;" x="43.385756" xlink:href="#m2c78876ed0" y="179.602848"/>
      </g>
     </g>
     <g id="text_8">
      <!-- $\mathdefault{0.4}$ -->
      <g transform="translate(23.655677 183.062097)scale(0.1 -0.1)">
       <defs>
        <path d="M 18.40625 4.796875 
C 18.40625 7.6875 16 9.671875 13.59375 9.671875 
C 10.703125 9.671875 8.703125 7.28125 8.703125 4.890625 
C 8.703125 2 11.09375 0 13.5 0 
C 16.40625 0 18.40625 2.390625 18.40625 4.796875 
z
" id="CMMI12-58"/>
        <path d="M 33.59375 64.40625 
C 33.59375 66.5 33.5 66.5 31.703125 66.5 
L 2 19.59375 
L 2 17 
L 27.796875 17 
L 27.796875 7.140625 
C 27.796875 3.5 27.59375 2.5 20.59375 2.5 
L 18.703125 2.5 
L 18.703125 0 
C 21.90625 0 27.296875 0 30.703125 0 
C 34.09375 0 39.5 0 42.703125 0 
L 42.703125 2.5 
L 40.796875 2.5 
C 33.796875 2.5 33.59375 3.5 33.59375 7.140625 
L 33.59375 17 
L 43.796875 17 
L 43.796875 19.59375 
L 33.59375 19.59375 
z
M 28.09375 57.859375 
L 28.09375 19.59375 
L 4 19.59375 
z
" id="CMR17-52"/>
       </defs>
       <use transform="scale(0.996264)" xlink:href="#CMR17-48"/>
       <use transform="translate(45.690477 0)scale(0.996264)" xlink:href="#CMMI12-58"/>
       <use transform="translate(72.787654 0)scale(0.996264)" xlink:href="#CMR17-52"/>
      </g>
     </g>
    </g>
    <g id="ytick_2">
     <g id="line2d_8">
      <g>
       <use style="stroke:#000000;stroke-width:0.8;" x="43.385756" xlink:href="#m2c78876ed0" y="141.119268"/>
      </g>
     </g>
     <g id="text_9">
      <!-- $\mathdefault{0.5}$ -->
      <g transform="translate(23.655677 144.578517)scale(0.1 -0.1)">
       <use transform="scale(0.996264)" xlink:href="#CMR17-48"/>
       <use transform="translate(45.690477 0)scale(0.996264)" xlink:href="#CMMI12-58"/>
       <use transform="translate(72.787654 0)scale(0.996264)" xlink:href="#CMR17-53"/>
      </g>
     </g>
    </g>
    <g id="ytick_3">
     <g id="line2d_9">
      <g>
       <use style="stroke:#000000;stroke-width:0.8;" x="43.385756" xlink:href="#m2c78876ed0" y="102.635688"/>
      </g>
     </g>
     <g id="text_10">
      <!-- $\mathdefault{0.6}$ -->
      <g transform="translate(23.655677 106.094937)scale(0.1 -0.1)">
       <defs>
        <path d="M 10.59375 34 
C 10.59375 57.65625 21.796875 63 28.296875 63 
C 30.40625 63 35.5 62.640625 37.5 59 
C 35.90625 59 32.90625 59 32.90625 55.515625 
C 32.90625 52.828125 35.09375 51.921875 36.5 51.921875 
C 37.40625 51.921875 40.09375 52.3125 40.09375 55.625 
C 40.09375 61.78125 35.09375 65.296875 28.203125 65.296875 
C 16.296875 65.296875 3.796875 52.96875 3.796875 31 
C 3.796875 3.953125 15.09375 -2 23.09375 -2 
C 32.796875 -2 42 6.671875 42 20.046875 
C 42 32.515625 33.90625 41.59375 23.703125 41.59375 
C 17.59375 41.59375 13.09375 37.609375 10.59375 30.625 
z
M 23.09375 0.390625 
C 10.796875 0.390625 10.796875 18.75 10.796875 22.4375 
C 10.796875 29.625 14.203125 40 23.5 40 
C 25.203125 40 30.09375 40 33.40625 33.125 
C 35.203125 29.21875 35.203125 25.140625 35.203125 20.140625 
C 35.203125 14.75 35.203125 10.78125 33.09375 6.78125 
C 30.90625 2.671875 27.703125 0.390625 23.09375 0.390625 
z
" id="CMR17-54"/>
       </defs>
       <use transform="scale(0.996264)" xlink:href="#CMR17-48"/>
       <use transform="translate(45.690477 0)scale(0.996264)" xlink:href="#CMMI12-58"/>
       <use transform="translate(72.787654 0)scale(0.996264)" xlink:href="#CMR17-54"/>
      </g>
     </g>
    </g>
    <g id="ytick_4">
     <g id="line2d_10">
      <g>
       <use style="stroke:#000000;stroke-width:0.8;" x="43.385756" xlink:href="#m2c78876ed0" y="64.152108"/>
      </g>
     </g>
     <g id="text_11">
      <!-- $\mathdefault{0.7}$ -->
      <g transform="translate(23.655677 67.611357)scale(0.1 -0.1)">
       <defs>
        <path d="M 45.09375 61.578125 
L 45.09375 63.765625 
L 21.59375 63.765625 
C 9.90625 63.765625 9.703125 65.078125 9.296875 67 
L 7.5 67 
L 4.59375 48.34375 
L 6.40625 48.34375 
C 6.703125 50.234375 7.40625 55.3125 8.59375 57.203125 
C 9.203125 58 16.59375 58 18.296875 58 
L 40.296875 58 
L 29.203125 41.578125 
C 21.796875 30.53125 16.703125 15.609375 16.703125 2.578125 
C 16.703125 1.390625 16.703125 -2 20.296875 -2 
C 23.90625 -2 23.90625 1.390625 23.90625 2.671875 
L 23.90625 7.265625 
C 23.90625 23.5625 26.703125 34.3125 31.296875 41.1875 
z
" id="CMR17-55"/>
       </defs>
       <use transform="scale(0.996264)" xlink:href="#CMR17-48"/>
       <use transform="translate(45.690477 0)scale(0.996264)" xlink:href="#CMMI12-58"/>
       <use transform="translate(72.787654 0)scale(0.996264)" xlink:href="#CMR17-55"/>
      </g>
     </g>
    </g>
    <g id="ytick_5">
     <g id="line2d_11">
      <g>
       <use style="stroke:#000000;stroke-width:0.8;" x="43.385756" xlink:href="#m2c78876ed0" y="25.668528"/>
      </g>
     </g>
     <g id="text_12">
      <!-- $\mathdefault{0.8}$ -->
      <g transform="translate(23.655677 29.127777)scale(0.1 -0.1)">
       <defs>
        <path d="M 27.203125 35.375 
C 33.5 38.546875 39.90625 43.328125 39.90625 50.984375 
C 39.90625 60.015625 31.09375 65.296875 23 65.296875 
C 13.90625 65.296875 5.90625 58.734375 5.90625 49.6875 
C 5.90625 47.203125 6.5 42.921875 10.40625 39.140625 
C 11.40625 38.15625 15.59375 35.171875 18.296875 33.28125 
C 13.796875 30.984375 3.296875 25.53125 3.296875 14.59375 
C 3.296875 4.359375 13.09375 -2 22.796875 -2 
C 33.5 -2 42.5 5.65625 42.5 15.78125 
C 42.5 24.84375 36.40625 29.015625 32.40625 31.703125 
z
M 14.09375 44.09375 
C 13.296875 44.59375 9.296875 47.671875 9.296875 52.359375 
C 9.296875 58.421875 15.59375 63 22.796875 63 
C 30.703125 63 36.5 57.4375 36.5 50.96875 
C 36.5 41.703125 26.09375 36.421875 25.59375 36.421875 
C 25.5 36.421875 25.40625 36.421875 24.59375 37.03125 
z
M 32.5 23.734375 
C 34 22.640625 38.796875 19.375 38.796875 13.296875 
C 38.796875 5.953125 31.40625 0.390625 23 0.390625 
C 13.90625 0.390625 7 6.84375 7 14.6875 
C 7 22.546875 13.09375 29.09375 20 32.1875 
z
" id="CMR17-56"/>
       </defs>
       <use transform="scale(0.996264)" xlink:href="#CMR17-48"/>
       <use transform="translate(45.690477 0)scale(0.996264)" xlink:href="#CMMI12-58"/>
       <use transform="translate(72.787654 0)scale(0.996264)" xlink:href="#CMR17-56"/>
      </g>
     </g>
    </g>
    <g id="text_13">
     <!-- $I_x$ -->
     <g transform="translate(17.718498 119.644017)rotate(-90)scale(0.1 -0.1)">
      <defs>
       <path d="M 36.796875 60.625 
C 37.703125 64.109375 37.90625 65.109375 45.203125 65.109375 
C 47.40625 65.109375 48.203125 65.109375 48.203125 67 
C 48.203125 68 47.09375 68 46.796875 68 
C 45 68 42.796875 68 41 68 
L 28.703125 68 
C 26.703125 68 24.40625 68 22.40625 68 
C 21.59375 68 20.5 68 20.5 66.109375 
C 20.5 65.109375 21.296875 65.109375 23.296875 65.109375 
C 29.5 65.109375 29.5 64.3125 29.5 63.21875 
C 29.5 62.53125 29.296875 61.921875 29.09375 61.03125 
L 15.59375 7.375 
C 14.703125 3.890625 14.5 2.890625 7.203125 2.890625 
C 5 2.890625 4.09375 2.890625 4.09375 1 
C 4.09375 0 5.09375 0 5.59375 0 
C 7.40625 0 9.59375 0 11.40625 0 
L 23.703125 0 
C 25.703125 0 27.90625 0 29.90625 0 
C 30.703125 0 31.90625 0 31.90625 1.796875 
C 31.90625 2.890625 31.296875 2.890625 29.09375 2.890625 
C 22.90625 2.890625 22.90625 3.6875 22.90625 4.875 
C 22.90625 5.078125 22.90625 5.578125 23.296875 7.171875 
z
" id="CMMI12-73"/>
       <path d="M 47.40625 40.71875 
C 44.203125 40.109375 43 37.71875 43 35.828125 
C 43 33.421875 44.90625 32.625 46.296875 32.625 
C 49.296875 32.625 51.40625 35.21875 51.40625 37.921875 
C 51.40625 42.109375 46.59375 44 42.40625 44 
C 36.296875 44 32.90625 38.015625 32 36.125 
C 29.703125 44 23.5 44 21.703125 44 
C 11.5 44 6.09375 30.9375 6.09375 28.734375 
C 6.09375 28.34375 6.5 27.84375 7.203125 27.84375 
C 8 27.84375 8.203125 28.4375 8.40625 28.84375 
C 11.796875 39.921875 18.5 42.015625 21.40625 42.015625 
C 25.90625 42.015625 26.796875 37.8125 26.796875 35.421875 
C 26.796875 33.234375 26.203125 30.9375 25 26.140625 
L 21.59375 12.46875 
C 20.09375 6.484375 17.203125 1 11.90625 1 
C 11.40625 1 8.90625 1 6.796875 2.296875 
C 10.40625 3 11.203125 5.984375 11.203125 7.1875 
C 11.203125 9.1875 9.703125 10.375 7.796875 10.375 
C 5.40625 10.375 2.796875 8.28125 2.796875 5.09375 
C 2.796875 0.890625 7.5 -1 11.796875 -1 
C 16.59375 -1 20 2.796875 22.09375 6.890625 
C 23.703125 1 28.703125 -1 32.40625 -1 
C 42.59375 -1 48 12.078125 48 14.265625 
C 48 14.765625 47.59375 15.171875 47 15.171875 
C 46.09375 15.171875 46 14.671875 45.703125 13.875 
C 43 5.09375 37.203125 1 32.703125 1 
C 29.203125 1 27.296875 3.59375 27.296875 7.6875 
C 27.296875 9.875 27.703125 11.46875 29.296875 18.0625 
L 32.796875 31.625 
C 34.296875 37.625 37.703125 42.015625 42.296875 42.015625 
C 42.5 42.015625 45.296875 42.015625 47.40625 40.71875 
z
" id="CMMI12-120"/>
      </defs>
      <use transform="scale(0.996264)" xlink:href="#CMMI12-73"/>
      <use transform="translate(43.024176 -14.943915)scale(0.697382)" xlink:href="#CMMI12-120"/>
     </g>
    </g>
   </g>
   <g id="line2d_12">
    <path clip-path="url(#pd356fa5cbe)" d="M 83.271858 173.956703 
L 84.696361 175.79523 
L 86.120865 178.635176 
L 87.545369 173.436833 
L 88.969872 173.272562 
L 90.394376 176.494317 
L 91.81888 176.821951 
L 93.243383 173.93482 
L 94.667887 171.247432 
L 96.09239 166.680187 
L 97.516894 161.434623 
L 98.941398 155.02126 
L 100.365901 148.901101 
L 101.790405 144.981422 
L 103.214909 138.182259 
L 104.639412 134.371168 
L 106.063916 130.899942 
L 107.48842 127.309079 
L 108.912923 125.611416 
L 110.337427 122.408849 
L 111.761931 118.780959 
L 113.186434 115.138392 
L 114.610938 112.743458 
L 116.035441 109.167245 
L 117.459945 108.440888 
L 118.884449 104.592721 
L 120.308952 103.207676 
L 121.733456 101.984288 
L 123.15796 101.853058 
L 124.582463 102.065909 
L 126.006967 100.373329 
L 127.431471 98.978836 
L 128.855974 98.417062 
L 130.280478 96.61455 
L 131.704982 95.727448 
L 133.129485 96.90897 
L 134.553989 96.424278 
L 135.978493 94.694233 
L 137.402996 95.105541 
L 138.8275 93.674679 
L 140.252003 93.012484 
L 197.232149 86.172511 
L 254.212295 87.466854 
L 311.192441 86.877576 
L 368.172586 91.752015 
L 425.152732 89.44782 
L 482.132878 93.331538 
L 539.113024 93.476668 
L 596.093169 93.243335 
L 653.073315 94.551042 
L 710.053461 93.136565 
L 767.033607 92.148598 
L 824.013752 94.407063 
L 880.993898 93.539713 
" style="fill:none;stroke:#ff0000;stroke-linecap:square;stroke-width:1.5;"/>
   </g>
   <g id="line2d_13">
    <path clip-path="url(#pd356fa5cbe)" d="M 83.271858 184.417217 
L 84.696361 192.201608 
L 86.120865 192.931374 
L 87.545369 188.784003 
L 88.969872 185.953861 
L 90.394376 183.380449 
L 91.81888 178.338942 
L 93.243383 176.331605 
L 94.667887 175.145766 
L 96.09239 176.485828 
L 97.516894 176.635556 
L 98.941398 168.771836 
L 100.365901 167.627708 
L 101.790405 163.973098 
L 103.214909 160.335446 
L 104.639412 156.384572 
L 106.063916 151.454623 
L 107.48842 148.162268 
L 108.912923 144.992686 
L 110.337427 141.215712 
L 111.761931 136.076411 
L 113.186434 136.231428 
L 114.610938 134.81098 
L 116.035441 129.979955 
L 117.459945 129.311232 
L 118.884449 128.95268 
L 120.308952 125.802352 
L 121.733456 124.81868 
L 123.15796 124.099092 
L 124.582463 123.290187 
L 126.006967 120.349292 
L 127.431471 120.398512 
L 128.855974 120.915102 
L 130.280478 119.891902 
L 131.704982 116.27736 
L 133.129485 114.653099 
L 134.553989 114.005864 
L 135.978493 115.664333 
L 137.402996 115.596825 
L 138.8275 114.032409 
L 140.252003 112.660496 
L 197.232149 99.777268 
L 254.212295 92.156365 
L 311.192441 89.586188 
L 368.172586 88.698331 
L 425.152732 87.161338 
L 482.132878 86.591345 
L 539.113024 84.970814 
L 596.093169 85.31344 
L 653.073315 87.016816 
L 710.053461 84.569236 
L 767.033607 85.913243 
L 824.013752 86.491943 
L 880.993898 86.576873 
" style="fill:none;stroke:#000000;stroke-linecap:square;stroke-width:1.5;"/>
   </g>
   <g id="line2d_14">
    <path clip-path="url(#pd356fa5cbe)" d="M 83.271858 183.366163 
L 84.696361 191.014065 
L 86.120865 192.008299 
L 87.545369 187.843259 
L 88.969872 184.590601 
L 90.394376 181.977869 
L 91.81888 176.957782 
L 93.243383 174.58543 
L 94.667887 173.188774 
L 96.09239 174.014771 
L 97.516894 174.156287 
L 98.941398 165.636029 
L 100.365901 163.689261 
L 101.790405 159.502577 
L 103.214909 155.319451 
L 104.639412 150.822033 
L 106.063916 145.482253 
L 107.48842 141.699597 
L 108.912923 137.236569 
L 110.337427 132.773345 
L 111.761931 127.219957 
L 113.186434 126.255065 
L 114.610938 123.925865 
L 116.035441 118.767477 
L 117.459945 116.505581 
L 118.884449 115.669054 
L 120.308952 112.263095 
L 121.733456 110.373376 
L 123.15796 109.399219 
L 124.582463 107.903177 
L 126.006967 104.431581 
L 127.431471 104.33957 
L 128.855974 104.395175 
L 130.280478 102.709381 
L 131.704982 98.871826 
L 133.129485 97.180398 
L 134.553989 96.147435 
L 135.978493 97.403094 
L 137.402996 95.799473 
L 138.8275 93.874227 
L 140.252003 92.282794 
L 197.232149 71.465069 
L 254.212295 60.04299 
L 311.192441 54.844529 
L 368.172586 52.882303 
L 425.152732 49.996728 
L 482.132878 48.078661 
L 539.113024 46.263501 
L 596.093169 46.347772 
L 653.073315 47.434464 
L 710.053461 45.459985 
L 767.033607 46.734474 
L 824.013752 46.751954 
L 880.993898 47.02154 
" style="fill:none;stroke:#000000;stroke-dasharray:5.55,2.4;stroke-dashoffset:0;stroke-width:1.5;"/>
   </g>
   <g id="line2d_15">
    <path clip-path="url(#pd356fa5cbe)" d="M 83.271858 192.26483 
L 84.696361 194.07913 
L 86.120865 197.098353 
L 87.545369 194.406988 
L 88.969872 194.801283 
L 90.394376 196.384466 
L 91.81888 197.004589 
L 93.243383 195.637963 
L 94.667887 194.415123 
L 96.09239 191.248388 
L 97.516894 186.70658 
L 98.941398 181.778953 
L 100.365901 176.221679 
L 101.790405 172.614133 
L 103.214909 165.910325 
L 104.639412 163.031462 
L 106.063916 161.075871 
L 107.48842 157.281655 
L 108.912923 155.023638 
L 110.337427 152.298592 
L 111.761931 150.171605 
L 113.186434 146.957795 
L 114.610938 144.568707 
L 116.035441 142.076862 
L 117.459945 141.350201 
L 118.884449 138.290583 
L 120.308952 137.577809 
L 121.733456 136.570136 
L 123.15796 136.077994 
L 124.582463 136.003032 
L 126.006967 134.372623 
L 127.431471 132.664382 
L 128.855974 132.063632 
L 130.280478 130.92235 
L 131.704982 130.230565 
L 133.129485 131.171097 
L 134.553989 131.615472 
L 135.978493 130.324181 
L 137.402996 130.340322 
L 138.8275 129.424829 
L 140.252003 128.668448 
L 197.232149 123.22441 
L 254.212295 124.725195 
L 311.192441 125.007854 
L 368.172586 129.517915 
L 425.152732 127.760088 
L 482.132878 132.015366 
L 539.113024 132.301771 
L 596.093169 132.454002 
L 653.073315 133.70887 
L 710.053461 132.629268 
L 767.033607 131.733511 
L 824.013752 133.992243 
L 880.993898 132.742179 
" style="fill:none;stroke:#0000ff;stroke-linecap:square;stroke-width:1.5;"/>
   </g>
   <g id="line2d_16">
    <path clip-path="url(#pd356fa5cbe)" d="M 83.271858 33.292474 
L 84.696361 33.292474 
L 86.120865 33.292474 
L 87.545369 33.292474 
L 88.969872 33.292474 
L 90.394376 33.292474 
L 91.81888 33.292474 
L 93.243383 33.292474 
L 94.667887 33.292474 
L 96.09239 33.292474 
L 97.516894 33.292474 
L 98.941398 33.292474 
L 100.365901 33.292474 
L 101.790405 33.292474 
L 103.214909 33.292474 
L 104.639412 33.292474 
L 106.063916 33.292474 
L 107.48842 33.292474 
L 108.912923 33.292474 
L 110.337427 33.292474 
L 111.761931 33.292474 
L 113.186434 33.292474 
L 114.610938 33.292474 
L 116.035441 33.292474 
L 117.459945 33.292474 
L 118.884449 33.292474 
L 120.308952 33.292474 
L 121.733456 33.292515 
L 123.15796 33.292474 
L 124.582463 33.292474 
L 126.006967 33.292474 
L 127.431471 33.292474 
L 128.855974 33.292515 
L 130.280478 33.292571 
L 131.704982 33.292474 
L 133.129485 33.292474 
L 134.553989 33.292474 
L 135.978493 33.292474 
L 137.402996 33.292474 
L 138.8275 33.292474 
L 140.252003 33.292474 
L 197.232149 33.292474 
L 254.212295 33.292474 
L 311.192441 33.292571 
L 368.172586 33.292474 
L 425.152732 33.292474 
L 482.132878 33.292474 
L 539.113024 33.292474 
L 596.093169 33.292474 
L 653.073315 33.292474 
L 710.053461 33.292515 
L 767.033607 33.292474 
L 824.013752 33.292474 
L 880.993898 33.292474 
" style="fill:none;stroke:#008000;stroke-linecap:square;stroke-width:1.5;"/>
   </g>
   <g id="patch_3">
    <path d="M 43.385756 205.288647 
L 43.385756 25.10218 
" style="fill:none;stroke:#000000;stroke-linecap:square;stroke-linejoin:miter;stroke-width:0.8;"/>
   </g>
   <g id="patch_4">
    <path d="M 920.88 205.288647 
L 920.88 25.10218 
" style="fill:none;stroke:#000000;stroke-linecap:square;stroke-linejoin:miter;stroke-width:0.8;"/>
   </g>
   <g id="patch_5">
    <path d="M 43.385756 205.288647 
L 920.88 205.288647 
" style="fill:none;stroke:#000000;stroke-linecap:square;stroke-linejoin:miter;stroke-width:0.8;"/>
   </g>
   <g id="patch_6">
    <path d="M 43.385756 25.10218 
L 920.88 25.10218 
" style="fill:none;stroke:#000000;stroke-linecap:square;stroke-linejoin:miter;stroke-width:0.8;"/>
   </g>
   <g id="text_14">
    <!-- Map X -->
    <g transform="translate(465.431812 19.10218)scale(0.12 -0.12)">
     <defs>
      <path d="M 49.90625 37.046875 
L 45.09375 23.015625 
C 44.296875 20.421875 41.59375 12.359375 41 9.171875 
L 40.90625 9.171875 
C 40.59375 11.171875 40 13.265625 38.40625 18.34375 
C 37.5 21.328125 36.5 24.40625 35.5 27.203125 
L 20.703125 69 
L 9 69 
L 9 0 
L 16.796875 0 
L 16.796875 60.9375 
L 16.90625 60.9375 
C 16.90625 60.84375 17.796875 56.453125 23.90625 39.046875 
L 37.09375 1.5 
L 44.5 1.5 
L 56.40625 34.859375 
C 57.203125 37.15625 59.703125 44.421875 60.796875 47.90625 
C 61.796875 50.890625 64.296875 58.25 64.90625 61.140625 
L 65 61.140625 
L 65 0 
L 72.90625 0 
L 72.90625 69 
L 61.296875 69 
z
" id="CMSS17-77"/>
      <path d="M 37.59375 27.984375 
C 37.59375 37.375 30.90625 43.875 21.90625 43.875 
C 17.5 43.875 12.703125 43.078125 7.203125 39.890625 
L 7.796875 33.359375 
C 10.296875 35.125 14.59375 38 21.796875 38 
C 26.90625 38 30 34.0625 30 27.84375 
L 30 24 
C 14 24 4 19.34375 4 11.34375 
C 4 7.203125 6.5 -1 14.796875 -1 
C 16.296875 -1 24.40625 -1 30.203125 3.390625 
L 30.203125 -0.296875 
L 37.59375 -0.296875 
z
M 30 12.75 
C 30 10.953125 30 8.5625 27 6.78125 
C 24.40625 5.078125 21.09375 5.078125 19.703125 5.078125 
C 14.703125 5.078125 11.296875 7.984375 11.296875 11.625 
C 11.296875 18.921875 26.90625 18.921875 30 18.921875 
z
" id="CMSS17-97"/>
      <path d="M 34.59375 36.390625 
L 57.203125 69 
L 48 69 
L 30.5 43.15625 
L 12.5 69 
L 2.59375 69 
L 26.40625 36.390625 
L 1.296875 0 
L 10.5 0 
L 30.5 30.328125 
L 51.203125 0 
L 61.09375 0 
z
" id="CMSS17-88"/>
     </defs>
     <use transform="scale(0.996264)" xlink:href="#CMSS17-77"/>
     <use transform="translate(81.67603 0)scale(0.996264)" xlink:href="#CMSS17-97"/>
     <use transform="translate(126.597951 0)scale(0.996264)" xlink:href="#CMSS17-112"/>
     <use transform="translate(206.032006 0)scale(0.996264)" xlink:href="#CMSS17-88"/>
    </g>
   </g>
   <g id="legend_1">
    <g id="patch_7">
     <path d="M 766.28551 200.288647 
L 913.88 200.288647 
Q 915.88 200.288647 915.88 198.288647 
L 915.88 117.606597 
Q 915.88 115.606597 913.88 115.606597 
L 766.28551 115.606597 
Q 764.28551 115.606597 764.28551 117.606597 
L 764.28551 198.288647 
Q 764.28551 200.288647 766.28551 200.288647 
z
" style="fill:#ffffff;opacity:0.8;stroke:#cccccc;stroke-linejoin:miter;"/>
    </g>
    <g id="line2d_17">
     <path d="M 768.28551 124.952347 
L 788.28551 124.952347 
" style="fill:none;stroke:#ff0000;stroke-linecap:square;stroke-width:1.5;"/>
    </g>
    <g id="line2d_18"/>
    <g id="text_15">
     <!-- $I_x(U|\Pi^{(1)})$, CxSOM -->
     <g transform="translate(796.28551 128.452347)scale(0.1 -0.1)">
      <defs>
       <path d="M 30.59375 -24.390625 
C 30.59375 -24.296875 30.59375 -24.09375 30.296875 -23.796875 
C 25.703125 -19.125 13.40625 -6.359375 13.40625 24.703125 
C 13.40625 55.765625 25.5 68.421875 30.40625 73.390625 
C 30.40625 73.5 30.59375 73.703125 30.59375 74 
C 30.59375 74.296875 30.296875 74.5 29.90625 74.5 
C 28.796875 74.5 20.296875 67.125 15.40625 56.15625 
C 10.40625 45.109375 9 34.359375 9 24.8125 
C 9 17.625 9.703125 5.484375 15.703125 -7.359375 
C 20.5 -17.734375 28.703125 -25 29.90625 -25 
C 30.40625 -25 30.59375 -24.796875 30.59375 -24.390625 
z
" id="CMR17-40"/>
       <path d="M 50.59375 23.03125 
C 47.09375 9.078125 35.5 0.890625 26.09375 0.890625 
C 18.90625 0.890625 14 5.671875 14 13.921875 
C 14 14.3125 14 17.296875 15.09375 21.671875 
L 24.90625 60.734375 
C 25.796875 64.109375 26 65.109375 33.09375 65.109375 
C 34.90625 65.109375 35.90625 65.109375 35.90625 66.90625 
C 35.90625 68 35 68 34.40625 68 
C 32.59375 68 30.5 68 28.59375 68 
L 16.796875 68 
C 14.90625 68 12.796875 68 10.90625 68 
C 10.203125 68 9 68 9 66.109375 
C 9 65.109375 9.703125 65.109375 11.59375 65.109375 
C 17.59375 65.109375 17.59375 64.3125 17.59375 63.21875 
C 17.59375 62.625 16.90625 59.75 16.40625 58.046875 
L 7.703125 23.25 
C 7.40625 22.15625 6.796875 19.46875 6.796875 16.796875 
C 6.796875 5.84375 14.703125 -2 25.59375 -2 
C 35.703125 -2 46.90625 6 52 18.703125 
C 52.703125 20.390625 53.59375 23.90625 54.203125 26.59375 
C 55.203125 30.203125 57.296875 39 58 41.59375 
L 61.796875 56.609375 
C 63.09375 61.8125 63.90625 65.109375 72.703125 65.109375 
C 73.5 65.203125 73.90625 66 73.90625 66.90625 
C 73.90625 68 73 68 72.59375 68 
C 71.203125 68 69.40625 68 68 68 
L 63.296875 68 
C 57.09375 68 53.90625 68 53.796875 68 
C 53.203125 68 52 68 52 66.109375 
C 52 65.109375 52.796875 65.109375 53.5 65.109375 
C 59.5 65.109375 59.90625 62.8125 59.90625 61.015625 
C 59.90625 60.125 59.90625 59.8125 59.5 58.421875 
z
" id="CMMI12-85"/>
       <path d="M 15.90625 71.40625 
C 15.90625 73.203125 15.90625 75 13.90625 75 
C 11.90625 75 11.90625 73.203125 11.90625 71.40625 
L 11.90625 -21.40625 
C 11.90625 -23.203125 11.90625 -25 13.90625 -25 
C 15.90625 -25 15.90625 -23.203125 15.90625 -21.40625 
z
" id="CMSY10-106"/>
       <path d="M 56.09375 60.90625 
C 56.09375 65.40625 57.203125 65.40625 64.09375 65.40625 
L 64.09375 68 
L 5.09375 68 
L 5.09375 65.40625 
C 12 65.40625 13.09375 65.40625 13.09375 60.90625 
L 13.09375 7 
C 13.09375 2.5 12 2.5 5.09375 2.5 
L 5.09375 0 
C 8 0 13.296875 0 16.40625 0 
C 19.5 0 24.796875 0 27.703125 0 
L 27.703125 2.5 
C 20.796875 2.5 19.703125 2.5 19.703125 7 
L 19.703125 65.40625 
L 49.5 65.40625 
L 49.5 7 
C 49.5 2.5 48.40625 2.5 41.5 2.5 
L 41.5 0 
C 44.40625 0 49.703125 0 52.796875 0 
C 55.90625 0 61.203125 0 64.09375 0 
L 64.09375 2.5 
C 57.203125 2.5 56.09375 2.5 56.09375 7 
z
" id="CMR17-5"/>
       <path d="M 26.296875 24.703125 
C 26.296875 31.875 25.59375 44.015625 19.59375 56.859375 
C 14.796875 67.234375 6.59375 74.5 5.40625 74.5 
C 5.09375 74.5 4.703125 74.390625 4.703125 73.890625 
C 4.703125 73.703125 4.796875 73.59375 4.90625 73.390625 
C 9.703125 68.40625 21.90625 55.75 21.90625 24.75 
C 21.90625 -6.359375 9.796875 -19.015625 4.90625 -24.015625 
C 4.796875 -24.203125 4.703125 -24.3125 4.703125 -24.5 
C 4.703125 -25 5.09375 -25 5.40625 -25 
C 6.5 -25 15 -17.625 19.90625 -6.65625 
C 24.90625 4.390625 26.296875 15.140625 26.296875 24.703125 
z
" id="CMR17-41"/>
       <path d="M 17 0.09375 
L 17 7.96875 
L 9 7.96875 
L 9 0 
L 11.5 0 
L 8.90625 -12.5 
L 12.90625 -12.5 
z
" id="CMSS17-44"/>
       <path d="M 54.703125 11.15625 
C 48 6.671875 44.90625 5.375 36.796875 5.375 
C 22.796875 5.375 14.59375 20.359375 14.59375 34.046875 
C 14.59375 48.625 23 63 37.203125 63 
C 43.59375 63 47.796875 61.21875 52.90625 58.046875 
L 54.296875 65.890625 
C 49.5 68.28125 43.40625 69.375 37.296875 69.375 
C 18.09375 69.375 6.203125 51.8125 6.203125 34.046875 
C 6.203125 14.484375 20.296875 -1 36.296875 -1 
C 44.90625 -1 47.90625 -0.296875 55.296875 4.375 
z
" id="CMSS17-67"/>
       <path d="M 24.796875 22.09375 
L 41.5 42.796875 
L 32.796875 42.796875 
L 21.296875 27.765625 
L 9.40625 42.796875 
L 0.5 42.796875 
L 17.796875 22.09375 
L 0 0 
L 8.796875 0 
L 21.296875 17.515625 
L 34.296875 0 
L 43.09375 0 
z
" id="CMSS17-120"/>
       <path d="M 43.703125 65.140625 
C 39.296875 67.71875 34.5 70 26.40625 70 
C 13.5 70 5.203125 60.609375 5.203125 51.03125 
C 5.203125 47.265625 6.296875 43.015625 10.203125 38.671875 
C 14.09375 34.3125 18.5 33.140625 24.09375 31.765625 
C 26.40625 31.15625 30.296875 30.0625 31 29.78125 
C 36.59375 27.609375 39.296875 22.5625 39.296875 17.8125 
C 39.296875 11.59375 34.40625 4.96875 25.703125 4.96875 
C 22.703125 4.96875 13.90625 4.96875 5.59375 12.796875 
L 4.203125 4.96875 
C 12.40625 -1 21.296875 -2 25.796875 -2 
C 38.09375 -2 46.90625 7.625 46.90625 18.53125 
C 46.90625 22.5 45.703125 27.546875 41.5 32.203125 
C 37.40625 36.671875 33.796875 37.65625 25.59375 39.828125 
C 20.90625 41.03125 17.90625 41.828125 15.40625 44.890625 
C 13.703125 47.078125 12.796875 49.15625 12.796875 51.828125 
C 12.796875 57.390625 17.59375 63.4375 26.40625 63.4375 
C 30.796875 63.4375 36.5 62.53125 42.296875 57.1875 
z
" id="CMSS17-83"/>
       <path d="M 64 34.03125 
C 64 54.734375 50.296875 70.265625 34.59375 70.265625 
C 18.90625 70.265625 5.203125 54.640625 5.203125 34.03125 
C 5.203125 13.234375 19.09375 -2 34.59375 -2 
C 50.09375 -2 64 13.234375 64 34.03125 
z
M 34.59375 4.265625 
C 23.59375 4.265625 13.59375 16.515625 13.59375 35.328125 
C 13.59375 53.640625 24.203125 64 34.59375 64 
C 45 64 55.59375 53.640625 55.59375 35.328125 
C 55.59375 16.421875 45.5 4.265625 34.59375 4.265625 
z
" id="CMSS17-79"/>
      </defs>
      <use transform="scale(0.996264)" xlink:href="#CMMI12-73"/>
      <use transform="translate(43.024176 -14.943915)scale(0.697382)" xlink:href="#CMMI12-120"/>
      <use transform="translate(82.325967 0)scale(0.996264)" xlink:href="#CMR17-40"/>
      <use transform="translate(117.606735 0)scale(0.996264)" xlink:href="#CMMI12-85"/>
      <use transform="translate(194.265508 0)scale(0.996264)" xlink:href="#CMSY10-106"/>
      <use transform="translate(221.939592 0)scale(0.996264)" xlink:href="#CMR17-5"/>
      <use transform="translate(291.012022 36.153639)scale(0.697382)" xlink:href="#CMR17-40"/>
      <use transform="translate(315.708443 36.153639)scale(0.697382)" xlink:href="#CMR17-49"/>
      <use transform="translate(347.691625 36.153639)scale(0.697382)" xlink:href="#CMR17-41"/>
      <use transform="translate(372.886177 0)scale(0.996264)" xlink:href="#CMR17-41"/>
      <use transform="translate(408.166945 0)scale(0.996264)" xlink:href="#CMSS17-44"/>
      <use transform="translate(465.420262 0)scale(0.996264)" xlink:href="#CMSS17-67"/>
      <use transform="translate(525.276034 0)scale(0.996264)" xlink:href="#CMSS17-120"/>
      <use transform="translate(568.276176 0)scale(0.996264)" xlink:href="#CMSS17-83"/>
      <use transform="translate(620.324692 0)scale(0.996264)" xlink:href="#CMSS17-79"/>
      <use transform="translate(689.348947 0)scale(0.996264)" xlink:href="#CMSS17-77"/>
     </g>
    </g>
    <g id="line2d_19">
     <path d="M 768.28551 141.288757 
L 788.28551 141.288757 
" style="fill:none;stroke:#000000;stroke-linecap:square;stroke-width:1.5;"/>
    </g>
    <g id="line2d_20"/>
    <g id="text_16">
     <!-- $I_x(U|\Pi^{(1)})$, Carte simple -->
     <g transform="translate(796.28551 144.788757)scale(0.1 -0.1)">
      <defs>
       <path d="M 14.90625 21.296875 
C 14.90625 30.703125 21.796875 37 30.59375 37 
L 30.59375 43.578125 
C 24.203125 43.578125 18.203125 40.390625 14.59375 35.203125 
L 14.59375 43.09375 
L 7.5 43.09375 
L 7.5 0 
L 14.90625 0 
z
" id="CMSS17-114"/>
       <path d="M 14.796875 69 
L 7.40625 69 
L 7.40625 0 
L 14.796875 0 
z
" id="CMSS17-108"/>
      </defs>
      <use transform="scale(0.996264)" xlink:href="#CMMI12-73"/>
      <use transform="translate(43.024176 -14.943915)scale(0.697382)" xlink:href="#CMMI12-120"/>
      <use transform="translate(82.325967 0)scale(0.996264)" xlink:href="#CMR17-40"/>
      <use transform="translate(117.606735 0)scale(0.996264)" xlink:href="#CMMI12-85"/>
      <use transform="translate(194.265508 0)scale(0.996264)" xlink:href="#CMSY10-106"/>
      <use transform="translate(221.939592 0)scale(0.996264)" xlink:href="#CMR17-5"/>
      <use transform="translate(291.012022 36.153639)scale(0.697382)" xlink:href="#CMR17-40"/>
      <use transform="translate(315.708443 36.153639)scale(0.697382)" xlink:href="#CMR17-49"/>
      <use transform="translate(347.691625 36.153639)scale(0.697382)" xlink:href="#CMR17-41"/>
      <use transform="translate(372.886177 0)scale(0.996264)" xlink:href="#CMR17-41"/>
      <use transform="translate(408.166945 0)scale(0.996264)" xlink:href="#CMSS17-44"/>
      <use transform="translate(465.420262 0)scale(0.996264)" xlink:href="#CMSS17-67"/>
      <use transform="translate(525.276034 0)scale(0.996264)" xlink:href="#CMSS17-97"/>
      <use transform="translate(567.595501 0)scale(0.996264)" xlink:href="#CMSS17-114"/>
      <use transform="translate(599.505273 0)scale(0.996264)" xlink:href="#CMSS17-116"/>
      <use transform="translate(633.33684 0)scale(0.996264)" xlink:href="#CMSS17-101"/>
      <use transform="translate(706.204775 0)scale(0.996264)" xlink:href="#CMSS17-115"/>
      <use transform="translate(742.118317 0)scale(0.996264)" xlink:href="#CMSS17-105"/>
      <use transform="translate(764.29904 0)scale(0.996264)" xlink:href="#CMSS17-109"/>
      <use transform="translate(838.528294 0)scale(0.996264)" xlink:href="#CMSS17-112"/>
      <use transform="translate(886.733237 0)scale(0.996264)" xlink:href="#CMSS17-108"/>
      <use transform="translate(908.91396 0)scale(0.996264)" xlink:href="#CMSS17-101"/>
     </g>
    </g>
    <g id="line2d_21">
     <path d="M 768.28551 157.625167 
L 788.28551 157.625167 
" style="fill:none;stroke:#000000;stroke-dasharray:5.55,2.4;stroke-dashoffset:0;stroke-width:1.5;"/>
    </g>
    <g id="line2d_22"/>
    <g id="text_17">
     <!-- $I_x(X^{(1)}|\Pi^{(1)})$, Carte simple -->
     <g transform="translate(796.28551 161.125167)scale(0.1 -0.1)">
      <defs>
       <path d="M 47.5 40.5625 
L 38.09375 62.40625 
C 39.40625 64.796875 42.40625 65.1875 43.59375 65.296875 
C 44.203125 65.296875 45.296875 65.296875 45.296875 67.0625 
C 45.296875 68.1875 44.40625 68.1875 43.796875 68.1875 
C 42.09375 68.1875 40.09375 68.1875 38.40625 68.1875 
L 32.59375 68.1875 
C 26.5 68.1875 22.09375 68.1875 22 68.1875 
C 21.203125 68.1875 20.203125 68.1875 20.203125 66.296875 
C 20.203125 65.296875 21.09375 65.296875 22.40625 65.296875 
C 28.203125 65.296875 28.59375 64.296875 29.59375 61.90625 
L 41.5 34.140625 
L 19.796875 10.828125 
C 16.203125 6.90625 11.90625 3.09375 4.5 3.09375 
C 3.296875 3 2.5 3 2.5 1.0625 
C 2.5 0.75 2.59375 0 3.703125 0 
C 5.09375 0 6.59375 0 8 0 
L 12.703125 0 
C 15.90625 0 19.40625 0 22.5 0 
C 23.203125 0 24.40625 0 24.40625 1.796875 
C 24.40625 2.796875 23.703125 2.890625 23.09375 2.890625 
C 21.09375 3.09375 19.796875 4.1875 19.796875 5.78125 
C 19.796875 7.484375 21 8.703125 23.90625 11.6875 
L 32.796875 21.375 
C 35 23.6875 40.296875 29.46875 42.5 31.65625 
L 53 7.078125 
C 53.09375 6.890625 53.5 5.890625 53.5 5.78125 
C 53.5 4.890625 51.296875 3.09375 48.09375 3.09375 
C 47.5 3.09375 46.40625 3.09375 46.40625 1.109375 
C 46.40625 0 47.40625 0 47.90625 0 
C 49.59375 0 51.59375 0 53.296875 0 
L 64.296875 0 
C 66.09375 0 68 0 69.703125 0 
C 70.40625 0 71.5 0 71.5 2.03125 
C 71.5 3.09375 70.5 3.09375 69.59375 3.09375 
C 63.59375 3.09375 63.40625 3.59375 61.703125 7.265625 
L 48.5 38.140625 
L 61.203125 51.8125 
C 62.203125 52.828125 64.5 55.34375 65.40625 56.34375 
C 69.703125 60.875 73.703125 65 81.796875 65 
C 82.796875 65.296875 83.796875 65.296875 83.796875 67.0625 
C 83.796875 68.1875 82.90625 68.1875 82.5 68.1875 
C 81.09375 68.1875 79.59375 68.1875 78.203125 68.1875 
L 73.59375 68.1875 
C 70.40625 68.1875 66.90625 68.1875 63.796875 68.1875 
C 63.09375 68.1875 61.90625 68.1875 61.90625 66.390625 
C 61.90625 65.390625 62.59375 65.296875 63.203125 65.296875 
C 64.796875 65.109375 66.5 64.3125 66.5 62.40625 
L 66.40625 62.21875 
C 66.296875 61.515625 66.09375 60.515625 65 59.328125 
z
" id="CMMI12-88"/>
      </defs>
      <use transform="scale(0.996264)" xlink:href="#CMMI12-73"/>
      <use transform="translate(43.024176 -14.943915)scale(0.697382)" xlink:href="#CMMI12-120"/>
      <use transform="translate(82.325967 0)scale(0.996264)" xlink:href="#CMR17-40"/>
      <use transform="translate(117.606735 0)scale(0.996264)" xlink:href="#CMMI12-88"/>
      <use transform="translate(206.399297 36.153639)scale(0.697382)" xlink:href="#CMR17-40"/>
      <use transform="translate(231.095717 36.153639)scale(0.697382)" xlink:href="#CMR17-49"/>
      <use transform="translate(263.078899 36.153639)scale(0.697382)" xlink:href="#CMR17-41"/>
      <use transform="translate(288.273451 0)scale(0.996264)" xlink:href="#CMSY10-106"/>
      <use transform="translate(315.947536 0)scale(0.996264)" xlink:href="#CMR17-5"/>
      <use transform="translate(385.019966 36.153639)scale(0.697382)" xlink:href="#CMR17-40"/>
      <use transform="translate(409.716386 36.153639)scale(0.697382)" xlink:href="#CMR17-49"/>
      <use transform="translate(441.699568 36.153639)scale(0.697382)" xlink:href="#CMR17-41"/>
      <use transform="translate(466.894121 0)scale(0.996264)" xlink:href="#CMR17-41"/>
      <use transform="translate(502.174889 0)scale(0.996264)" xlink:href="#CMSS17-44"/>
      <use transform="translate(559.428206 0)scale(0.996264)" xlink:href="#CMSS17-67"/>
      <use transform="translate(619.283978 0)scale(0.996264)" xlink:href="#CMSS17-97"/>
      <use transform="translate(661.603444 0)scale(0.996264)" xlink:href="#CMSS17-114"/>
      <use transform="translate(693.513217 0)scale(0.996264)" xlink:href="#CMSS17-116"/>
      <use transform="translate(727.344784 0)scale(0.996264)" xlink:href="#CMSS17-101"/>
      <use transform="translate(800.212719 0)scale(0.996264)" xlink:href="#CMSS17-115"/>
      <use transform="translate(836.126261 0)scale(0.996264)" xlink:href="#CMSS17-105"/>
      <use transform="translate(858.306984 0)scale(0.996264)" xlink:href="#CMSS17-109"/>
      <use transform="translate(932.536238 0)scale(0.996264)" xlink:href="#CMSS17-112"/>
      <use transform="translate(980.741181 0)scale(0.996264)" xlink:href="#CMSS17-108"/>
      <use transform="translate(1002.921904 0)scale(0.996264)" xlink:href="#CMSS17-101"/>
     </g>
    </g>
    <g id="line2d_23">
     <path d="M 768.28551 173.961577 
L 788.28551 173.961577 
" style="fill:none;stroke:#0000ff;stroke-linecap:square;stroke-width:1.5;"/>
    </g>
    <g id="line2d_24"/>
    <g id="text_18">
     <!-- $I_x(X^{(1)}|\Pi^{(1)})$, CxSOM -->
     <g transform="translate(796.28551 177.461577)scale(0.1 -0.1)">
      <use transform="scale(0.996264)" xlink:href="#CMMI12-73"/>
      <use transform="translate(43.024176 -14.943915)scale(0.697382)" xlink:href="#CMMI12-120"/>
      <use transform="translate(82.325967 0)scale(0.996264)" xlink:href="#CMR17-40"/>
      <use transform="translate(117.606735 0)scale(0.996264)" xlink:href="#CMMI12-88"/>
      <use transform="translate(206.399297 36.153639)scale(0.697382)" xlink:href="#CMR17-40"/>
      <use transform="translate(231.095717 36.153639)scale(0.697382)" xlink:href="#CMR17-49"/>
      <use transform="translate(263.078899 36.153639)scale(0.697382)" xlink:href="#CMR17-41"/>
      <use transform="translate(288.273451 0)scale(0.996264)" xlink:href="#CMSY10-106"/>
      <use transform="translate(315.947536 0)scale(0.996264)" xlink:href="#CMR17-5"/>
      <use transform="translate(385.019966 36.153639)scale(0.697382)" xlink:href="#CMR17-40"/>
      <use transform="translate(409.716386 36.153639)scale(0.697382)" xlink:href="#CMR17-49"/>
      <use transform="translate(441.699568 36.153639)scale(0.697382)" xlink:href="#CMR17-41"/>
      <use transform="translate(466.894121 0)scale(0.996264)" xlink:href="#CMR17-41"/>
      <use transform="translate(502.174889 0)scale(0.996264)" xlink:href="#CMSS17-44"/>
      <use transform="translate(559.428206 0)scale(0.996264)" xlink:href="#CMSS17-67"/>
      <use transform="translate(619.283978 0)scale(0.996264)" xlink:href="#CMSS17-120"/>
      <use transform="translate(662.284119 0)scale(0.996264)" xlink:href="#CMSS17-83"/>
      <use transform="translate(714.332636 0)scale(0.996264)" xlink:href="#CMSS17-79"/>
      <use transform="translate(783.356891 0)scale(0.996264)" xlink:href="#CMSS17-77"/>
     </g>
    </g>
    <g id="line2d_25">
     <path d="M 768.28551 190.297987 
L 788.28551 190.297987 
" style="fill:none;stroke:#008000;stroke-linecap:square;stroke-width:1.5;"/>
    </g>
    <g id="line2d_26"/>
    <g id="text_19">
     <!-- $I_x(U|X^{(1)})$ -->
     <g transform="translate(796.28551 193.797987)scale(0.1 -0.1)">
      <use transform="scale(0.996264)" xlink:href="#CMMI12-73"/>
      <use transform="translate(43.024176 -14.943915)scale(0.697382)" xlink:href="#CMMI12-120"/>
      <use transform="translate(82.325967 0)scale(0.996264)" xlink:href="#CMR17-40"/>
      <use transform="translate(117.606735 0)scale(0.996264)" xlink:href="#CMMI12-85"/>
      <use transform="translate(194.265508 0)scale(0.996264)" xlink:href="#CMSY10-106"/>
      <use transform="translate(221.939592 0)scale(0.996264)" xlink:href="#CMMI12-88"/>
      <use transform="translate(310.732154 36.153639)scale(0.697382)" xlink:href="#CMR17-40"/>
      <use transform="translate(335.428575 36.153639)scale(0.697382)" xlink:href="#CMR17-49"/>
      <use transform="translate(367.411757 36.153639)scale(0.697382)" xlink:href="#CMR17-41"/>
      <use transform="translate(392.606309 0)scale(0.996264)" xlink:href="#CMR17-41"/>
     </g>
    </g>
   </g>
  </g>
  <g id="axes_2">
   <g id="patch_8">
    <path d="M 43.385756 439.288647 
L 920.88 439.288647 
L 920.88 259.10218 
L 43.385756 259.10218 
z
" style="fill:#ffffff;"/>
   </g>
   <g id="matplotlib.axis_3">
    <g id="xtick_7">
     <g id="line2d_27">
      <g>
       <use style="stroke:#000000;stroke-width:0.8;" x="83.271858" xlink:href="#mf45162e675" y="439.288647"/>
      </g>
     </g>
     <g id="text_20">
      <!-- $\mathdefault{0}$ -->
      <g transform="translate(80.78119 453.207145)scale(0.1 -0.1)">
       <use transform="scale(0.996264)" xlink:href="#CMR17-48"/>
      </g>
     </g>
    </g>
    <g id="xtick_8">
     <g id="line2d_28">
      <g>
       <use style="stroke:#000000;stroke-width:0.8;" x="225.722222" xlink:href="#mf45162e675" y="439.288647"/>
      </g>
     </g>
     <g id="text_21">
      <!-- $\mathdefault{500}$ -->
      <g transform="translate(218.250219 453.207145)scale(0.1 -0.1)">
       <use transform="scale(0.996264)" xlink:href="#CMR17-53"/>
       <use transform="translate(45.690477 0)scale(0.996264)" xlink:href="#CMR17-48"/>
       <use transform="translate(91.380954 0)scale(0.996264)" xlink:href="#CMR17-48"/>
      </g>
     </g>
    </g>
    <g id="xtick_9">
     <g id="line2d_29">
      <g>
       <use style="stroke:#000000;stroke-width:0.8;" x="368.172586" xlink:href="#mf45162e675" y="439.288647"/>
      </g>
     </g>
     <g id="text_22">
      <!-- $\mathdefault{1000}$ -->
      <g transform="translate(358.209916 453.207145)scale(0.1 -0.1)">
       <use transform="scale(0.996264)" xlink:href="#CMR17-49"/>
       <use transform="translate(45.690477 0)scale(0.996264)" xlink:href="#CMR17-48"/>
       <use transform="translate(91.380954 0)scale(0.996264)" xlink:href="#CMR17-48"/>
       <use transform="translate(137.071431 0)scale(0.996264)" xlink:href="#CMR17-48"/>
      </g>
     </g>
    </g>
    <g id="xtick_10">
     <g id="line2d_30">
      <g>
       <use style="stroke:#000000;stroke-width:0.8;" x="510.622951" xlink:href="#mf45162e675" y="439.288647"/>
      </g>
     </g>
     <g id="text_23">
      <!-- $\mathdefault{1500}$ -->
      <g transform="translate(500.66028 453.207145)scale(0.1 -0.1)">
       <use transform="scale(0.996264)" xlink:href="#CMR17-49"/>
       <use transform="translate(45.690477 0)scale(0.996264)" xlink:href="#CMR17-53"/>
       <use transform="translate(91.380954 0)scale(0.996264)" xlink:href="#CMR17-48"/>
       <use transform="translate(137.071431 0)scale(0.996264)" xlink:href="#CMR17-48"/>
      </g>
     </g>
    </g>
    <g id="xtick_11">
     <g id="line2d_31">
      <g>
       <use style="stroke:#000000;stroke-width:0.8;" x="653.073315" xlink:href="#mf45162e675" y="439.288647"/>
      </g>
     </g>
     <g id="text_24">
      <!-- $\mathdefault{2000}$ -->
      <g transform="translate(643.110645 453.207145)scale(0.1 -0.1)">
       <use transform="scale(0.996264)" xlink:href="#CMR17-50"/>
       <use transform="translate(45.690477 0)scale(0.996264)" xlink:href="#CMR17-48"/>
       <use transform="translate(91.380954 0)scale(0.996264)" xlink:href="#CMR17-48"/>
       <use transform="translate(137.071431 0)scale(0.996264)" xlink:href="#CMR17-48"/>
      </g>
     </g>
    </g>
    <g id="xtick_12">
     <g id="line2d_32">
      <g>
       <use style="stroke:#000000;stroke-width:0.8;" x="795.523679" xlink:href="#mf45162e675" y="439.288647"/>
      </g>
     </g>
     <g id="text_25">
      <!-- $\mathdefault{2500}$ -->
      <g transform="translate(785.561009 453.207145)scale(0.1 -0.1)">
       <use transform="scale(0.996264)" xlink:href="#CMR17-50"/>
       <use transform="translate(45.690477 0)scale(0.996264)" xlink:href="#CMR17-53"/>
       <use transform="translate(91.380954 0)scale(0.996264)" xlink:href="#CMR17-48"/>
       <use transform="translate(137.071431 0)scale(0.996264)" xlink:href="#CMR17-48"/>
      </g>
     </g>
    </g>
    <g id="text_26">
     <!-- timestep -->
     <g transform="translate(464.476859 466.062822)scale(0.1 -0.1)">
      <use transform="scale(0.996264)" xlink:href="#CMSS17-116"/>
      <use transform="translate(33.831567 0)scale(0.996264)" xlink:href="#CMSS17-105"/>
      <use transform="translate(56.01229 0)scale(0.996264)" xlink:href="#CMSS17-109"/>
      <use transform="translate(130.241544 0)scale(0.996264)" xlink:href="#CMSS17-101"/>
      <use transform="translate(171.880366 0)scale(0.996264)" xlink:href="#CMSS17-115"/>
      <use transform="translate(207.793908 0)scale(0.996264)" xlink:href="#CMSS17-116"/>
      <use transform="translate(241.625475 0)scale(0.996264)" xlink:href="#CMSS17-101"/>
      <use transform="translate(283.264297 0)scale(0.996264)" xlink:href="#CMSS17-112"/>
     </g>
    </g>
   </g>
   <g id="matplotlib.axis_4">
    <g id="ytick_6">
     <g id="line2d_33">
      <g>
       <use style="stroke:#000000;stroke-width:0.8;" x="43.385756" xlink:href="#m2c78876ed0" y="415.387008"/>
      </g>
     </g>
     <g id="text_27">
      <!-- $\mathdefault{0.4}$ -->
      <g transform="translate(23.655677 418.846257)scale(0.1 -0.1)">
       <use transform="scale(0.996264)" xlink:href="#CMR17-48"/>
       <use transform="translate(45.690477 0)scale(0.996264)" xlink:href="#CMMI12-58"/>
       <use transform="translate(72.787654 0)scale(0.996264)" xlink:href="#CMR17-52"/>
      </g>
     </g>
    </g>
    <g id="ytick_7">
     <g id="line2d_34">
      <g>
       <use style="stroke:#000000;stroke-width:0.8;" x="43.385756" xlink:href="#m2c78876ed0" y="376.309149"/>
      </g>
     </g>
     <g id="text_28">
      <!-- $\mathdefault{0.5}$ -->
      <g transform="translate(23.655677 379.768398)scale(0.1 -0.1)">
       <use transform="scale(0.996264)" xlink:href="#CMR17-48"/>
       <use transform="translate(45.690477 0)scale(0.996264)" xlink:href="#CMMI12-58"/>
       <use transform="translate(72.787654 0)scale(0.996264)" xlink:href="#CMR17-53"/>
      </g>
     </g>
    </g>
    <g id="ytick_8">
     <g id="line2d_35">
      <g>
       <use style="stroke:#000000;stroke-width:0.8;" x="43.385756" xlink:href="#m2c78876ed0" y="337.23129"/>
      </g>
     </g>
     <g id="text_29">
      <!-- $\mathdefault{0.6}$ -->
      <g transform="translate(23.655677 340.690539)scale(0.1 -0.1)">
       <use transform="scale(0.996264)" xlink:href="#CMR17-48"/>
       <use transform="translate(45.690477 0)scale(0.996264)" xlink:href="#CMMI12-58"/>
       <use transform="translate(72.787654 0)scale(0.996264)" xlink:href="#CMR17-54"/>
      </g>
     </g>
    </g>
    <g id="ytick_9">
     <g id="line2d_36">
      <g>
       <use style="stroke:#000000;stroke-width:0.8;" x="43.385756" xlink:href="#m2c78876ed0" y="298.153431"/>
      </g>
     </g>
     <g id="text_30">
      <!-- $\mathdefault{0.7}$ -->
      <g transform="translate(23.655677 301.61268)scale(0.1 -0.1)">
       <use transform="scale(0.996264)" xlink:href="#CMR17-48"/>
       <use transform="translate(45.690477 0)scale(0.996264)" xlink:href="#CMMI12-58"/>
       <use transform="translate(72.787654 0)scale(0.996264)" xlink:href="#CMR17-55"/>
      </g>
     </g>
    </g>
    <g id="text_31">
     <!-- $I_x$ -->
     <g transform="translate(17.718498 353.644017)rotate(-90)scale(0.1 -0.1)">
      <use transform="scale(0.996264)" xlink:href="#CMMI12-73"/>
      <use transform="translate(43.024176 -14.943915)scale(0.697382)" xlink:href="#CMMI12-120"/>
     </g>
    </g>
   </g>
   <g id="line2d_37">
    <path clip-path="url(#p0c4b4cac2d)" d="M 83.271858 405.608866 
L 84.696361 410.146417 
L 86.120865 408.449664 
L 87.545369 410.845894 
L 88.969872 410.904665 
L 90.394376 410.759919 
L 91.81888 405.624497 
L 93.243383 402.807613 
L 94.667887 399.168955 
L 96.09239 394.853929 
L 97.516894 390.875812 
L 98.941398 387.47624 
L 100.365901 381.141517 
L 101.790405 374.782183 
L 103.214909 372.78227 
L 104.639412 370.002316 
L 106.063916 369.515382 
L 107.48842 365.369811 
L 108.912923 360.047306 
L 110.337427 357.502025 
L 111.761931 353.550809 
L 113.186434 351.034562 
L 114.610938 349.100791 
L 116.035441 344.581964 
L 117.459945 341.551737 
L 118.884449 340.331427 
L 120.308952 339.628847 
L 121.733456 336.792563 
L 123.15796 335.315676 
L 124.582463 334.49743 
L 126.006967 333.751305 
L 127.431471 333.249584 
L 128.855974 331.789791 
L 130.280478 332.707416 
L 131.704982 331.443307 
L 133.129485 330.830451 
L 134.553989 327.964967 
L 135.978493 326.564504 
L 137.402996 326.005251 
L 138.8275 324.490241 
L 140.252003 321.880255 
L 197.232149 319.575132 
L 254.212295 320.632664 
L 311.192441 327.084915 
L 368.172586 328.269201 
L 425.152732 331.113114 
L 482.132878 332.572979 
L 539.113024 333.868212 
L 596.093169 333.585269 
L 653.073315 330.539995 
L 710.053461 330.869446 
L 767.033607 330.419854 
L 824.013752 331.618473 
L 880.993898 330.469902 
" style="fill:none;stroke:#ff0000;stroke-linecap:square;stroke-width:1.5;"/>
   </g>
   <g id="line2d_38">
    <path clip-path="url(#p0c4b4cac2d)" d="M 83.271858 428.366893 
L 84.696361 429.35585 
L 86.120865 431.098353 
L 87.545369 425.716868 
L 88.969872 424.543119 
L 90.394376 424.50975 
L 91.81888 417.586086 
L 93.243383 419.075538 
L 94.667887 415.110508 
L 96.09239 409.947232 
L 97.516894 404.319552 
L 98.941398 398.758354 
L 100.365901 394.356274 
L 101.790405 390.062144 
L 103.214909 388.09778 
L 104.639412 386.411345 
L 106.063916 383.324258 
L 107.48842 378.60899 
L 108.912923 374.914245 
L 110.337427 374.595132 
L 111.761931 371.657642 
L 113.186434 370.652897 
L 114.610938 368.399949 
L 116.035441 366.237418 
L 117.459945 360.475382 
L 118.884449 360.144691 
L 120.308952 359.119635 
L 121.733456 356.799881 
L 123.15796 353.516009 
L 124.582463 355.298562 
L 126.006967 351.299196 
L 127.431471 349.902329 
L 128.855974 348.315177 
L 130.280478 347.359403 
L 131.704982 345.455261 
L 133.129485 346.550003 
L 134.553989 345.76925 
L 135.978493 343.217105 
L 137.402996 341.02375 
L 138.8275 338.986303 
L 140.252003 340.470928 
L 197.232149 332.640881 
L 254.212295 329.298323 
L 311.192441 323.923517 
L 368.172586 324.581514 
L 425.152732 323.694047 
L 482.132878 324.49258 
L 539.113024 323.10797 
L 596.093169 318.882418 
L 653.073315 321.584008 
L 710.053461 318.908797 
L 767.033607 320.182297 
L 824.013752 324.564361 
L 880.993898 320.156024 
" style="fill:none;stroke:#000000;stroke-linecap:square;stroke-width:1.5;"/>
   </g>
   <g id="line2d_39">
    <path clip-path="url(#p0c4b4cac2d)" d="M 83.271858 427.311137 
L 84.696361 428.41088 
L 86.120865 430.30483 
L 87.545369 424.267871 
L 88.969872 423.395222 
L 90.394376 423.225861 
L 91.81888 415.803883 
L 93.243383 417.004893 
L 94.667887 412.69134 
L 96.09239 407.009448 
L 97.516894 400.730145 
L 98.941398 394.524724 
L 100.365901 389.066095 
L 101.790405 383.79149 
L 103.214909 380.621602 
L 104.639412 377.615139 
L 106.063916 373.743525 
L 107.48842 367.907585 
L 108.912923 363.707752 
L 110.337427 362.362497 
L 111.761931 359.120799 
L 113.186434 357.498064 
L 114.610938 355.836338 
L 116.035441 352.862499 
L 117.459945 347.252312 
L 118.884449 345.701555 
L 120.308952 344.817534 
L 121.733456 342.072025 
L 123.15796 338.100272 
L 124.582463 339.72142 
L 126.006967 335.56712 
L 127.431471 333.856815 
L 128.855974 331.403463 
L 130.280478 330.677023 
L 131.704982 328.328084 
L 133.129485 329.422309 
L 134.553989 327.5127 
L 135.978493 324.843492 
L 137.402996 322.454443 
L 138.8275 320.290951 
L 140.252003 321.64773 
L 197.232149 304.457726 
L 254.212295 297.055173 
L 311.192441 289.272916 
L 368.172586 287.843661 
L 425.152732 286.304212 
L 482.132878 287.070566 
L 539.113024 283.421806 
L 596.093169 279.850006 
L 653.073315 280.847776 
L 710.053461 278.679422 
L 767.033607 279.62124 
L 824.013752 284.399353 
L 880.993898 280.255866 
" style="fill:none;stroke:#000000;stroke-dasharray:5.55,2.4;stroke-dashoffset:0;stroke-width:1.5;"/>
   </g>
   <g id="line2d_40">
    <path clip-path="url(#p0c4b4cac2d)" d="M 83.271858 423.901112 
L 84.696361 428.242757 
L 86.120865 428.087737 
L 87.545369 430.748754 
L 88.969872 430.297784 
L 90.394376 430.597221 
L 91.81888 426.915266 
L 93.243383 424.259 
L 94.667887 421.354285 
L 96.09239 419.065271 
L 97.516894 415.69592 
L 98.941398 413.392339 
L 100.365901 407.668227 
L 101.790405 403.110652 
L 103.214909 401.425351 
L 104.639412 397.975352 
L 106.063916 398.637535 
L 107.48842 394.121167 
L 108.912923 389.42124 
L 110.337427 387.49157 
L 111.761931 385.025207 
L 113.186434 383.173076 
L 114.610938 381.982467 
L 116.035441 378.829608 
L 117.459945 375.807358 
L 118.884449 374.22059 
L 120.308952 373.639551 
L 121.733456 370.494972 
L 123.15796 368.984858 
L 124.582463 368.469188 
L 126.006967 367.791148 
L 127.431471 366.944222 
L 128.855974 365.390365 
L 130.280478 366.587156 
L 131.704982 365.804127 
L 133.129485 365.569711 
L 134.553989 362.439016 
L 135.978493 361.521061 
L 137.402996 361.081663 
L 138.8275 359.215976 
L 140.252003 357.370922 
L 197.232149 356.745309 
L 254.212295 358.954901 
L 311.192441 366.581645 
L 368.172586 367.843713 
L 425.152732 371.653419 
L 482.132878 373.360174 
L 539.113024 374.834145 
L 596.093169 374.081447 
L 653.073315 371.569136 
L 710.053461 372.486476 
L 767.033607 372.003906 
L 824.013752 372.50633 
L 880.993898 371.376371 
" style="fill:none;stroke:#0000ff;stroke-linecap:square;stroke-width:1.5;"/>
   </g>
   <g id="line2d_41">
    <path clip-path="url(#p0c4b4cac2d)" d="M 83.271858 267.292501 
L 84.696361 267.2926 
L 86.120865 267.292501 
L 87.545369 267.292501 
L 88.969872 267.292551 
L 90.394376 267.292551 
L 91.81888 267.292474 
L 93.243383 267.292573 
L 94.667887 267.292501 
L 96.09239 267.292501 
L 97.516894 267.292474 
L 98.941398 267.292501 
L 100.365901 267.292474 
L 101.790405 267.292501 
L 103.214909 267.292501 
L 104.639412 267.292501 
L 106.063916 267.292474 
L 107.48842 267.292501 
L 108.912923 267.292501 
L 110.337427 267.292501 
L 111.761931 267.292501 
L 113.186434 267.292474 
L 114.610938 267.2926 
L 116.035441 267.292551 
L 117.459945 267.292501 
L 118.884449 267.292474 
L 120.308952 267.292501 
L 121.733456 267.292474 
L 123.15796 267.292501 
L 124.582463 267.292474 
L 126.006967 267.292501 
L 127.431471 267.292501 
L 128.855974 267.292474 
L 130.280478 267.292474 
L 131.704982 267.292474 
L 133.129485 267.292501 
L 134.553989 267.292501 
L 135.978493 267.292501 
L 137.402996 267.292501 
L 138.8275 267.292474 
L 140.252003 267.292501 
L 197.232149 267.292501 
L 254.212295 267.292501 
L 311.192441 267.292501 
L 368.172586 267.292501 
L 425.152732 267.292474 
L 482.132878 267.292501 
L 539.113024 267.292501 
L 596.093169 267.292501 
L 653.073315 267.292474 
L 710.053461 267.292551 
L 767.033607 267.292474 
L 824.013752 267.292501 
L 880.993898 267.292474 
" style="fill:none;stroke:#008000;stroke-linecap:square;stroke-width:1.5;"/>
   </g>
   <g id="patch_9">
    <path d="M 43.385756 439.288647 
L 43.385756 259.10218 
" style="fill:none;stroke:#000000;stroke-linecap:square;stroke-linejoin:miter;stroke-width:0.8;"/>
   </g>
   <g id="patch_10">
    <path d="M 920.88 439.288647 
L 920.88 259.10218 
" style="fill:none;stroke:#000000;stroke-linecap:square;stroke-linejoin:miter;stroke-width:0.8;"/>
   </g>
   <g id="patch_11">
    <path d="M 43.385756 439.288647 
L 920.88 439.288647 
" style="fill:none;stroke:#000000;stroke-linecap:square;stroke-linejoin:miter;stroke-width:0.8;"/>
   </g>
   <g id="patch_12">
    <path d="M 43.385756 259.10218 
L 920.88 259.10218 
" style="fill:none;stroke:#000000;stroke-linecap:square;stroke-linejoin:miter;stroke-width:0.8;"/>
   </g>
   <g id="text_32">
    <!-- Map Y -->
    <g transform="translate(465.431812 253.10218)scale(0.12 -0.12)">
     <defs>
      <path d="M 62.09375 69 
L 53.5 69 
L 38 44.953125 
C 36.796875 43.046875 33.40625 37.890625 31.796875 35 
L 26.90625 42.859375 
L 10.09375 69 
L 0.296875 69 
L 27.09375 27.640625 
L 27.09375 0 
L 35.296875 0 
L 35.296875 27.546875 
z
" id="CMSS17-89"/>
     </defs>
     <use transform="scale(0.996264)" xlink:href="#CMSS17-77"/>
     <use transform="translate(81.67603 0)scale(0.996264)" xlink:href="#CMSS17-97"/>
     <use transform="translate(126.597951 0)scale(0.996264)" xlink:href="#CMSS17-112"/>
     <use transform="translate(206.032006 0)scale(0.996264)" xlink:href="#CMSS17-89"/>
    </g>
   </g>
   <g id="legend_2">
    <g id="patch_13">
     <path d="M 766.28551 434.288647 
L 913.88 434.288647 
Q 915.88 434.288647 915.88 432.288647 
L 915.88 351.606597 
Q 915.88 349.606597 913.88 349.606597 
L 766.28551 349.606597 
Q 764.28551 349.606597 764.28551 351.606597 
L 764.28551 432.288647 
Q 764.28551 434.288647 766.28551 434.288647 
z
" style="fill:#ffffff;opacity:0.8;stroke:#cccccc;stroke-linejoin:miter;"/>
    </g>
    <g id="line2d_42">
     <path d="M 768.28551 358.952347 
L 788.28551 358.952347 
" style="fill:none;stroke:#ff0000;stroke-linecap:square;stroke-width:1.5;"/>
    </g>
    <g id="line2d_43"/>
    <g id="text_33">
     <!-- $I_x(U|\Pi^{(2)})$, CxSOM -->
     <g transform="translate(796.28551 362.452347)scale(0.1 -0.1)">
      <use transform="scale(0.996264)" xlink:href="#CMMI12-73"/>
      <use transform="translate(43.024176 -14.943915)scale(0.697382)" xlink:href="#CMMI12-120"/>
      <use transform="translate(82.325967 0)scale(0.996264)" xlink:href="#CMR17-40"/>
      <use transform="translate(117.606735 0)scale(0.996264)" xlink:href="#CMMI12-85"/>
      <use transform="translate(194.265508 0)scale(0.996264)" xlink:href="#CMSY10-106"/>
      <use transform="translate(221.939592 0)scale(0.996264)" xlink:href="#CMR17-5"/>
      <use transform="translate(291.012022 36.153639)scale(0.697382)" xlink:href="#CMR17-40"/>
      <use transform="translate(315.708443 36.153639)scale(0.697382)" xlink:href="#CMR17-50"/>
      <use transform="translate(347.691625 36.153639)scale(0.697382)" xlink:href="#CMR17-41"/>
      <use transform="translate(372.886177 0)scale(0.996264)" xlink:href="#CMR17-41"/>
      <use transform="translate(408.166945 0)scale(0.996264)" xlink:href="#CMSS17-44"/>
      <use transform="translate(465.420262 0)scale(0.996264)" xlink:href="#CMSS17-67"/>
      <use transform="translate(525.276034 0)scale(0.996264)" xlink:href="#CMSS17-120"/>
      <use transform="translate(568.276176 0)scale(0.996264)" xlink:href="#CMSS17-83"/>
      <use transform="translate(620.324692 0)scale(0.996264)" xlink:href="#CMSS17-79"/>
      <use transform="translate(689.348947 0)scale(0.996264)" xlink:href="#CMSS17-77"/>
     </g>
    </g>
    <g id="line2d_44">
     <path d="M 768.28551 375.288757 
L 788.28551 375.288757 
" style="fill:none;stroke:#000000;stroke-linecap:square;stroke-width:1.5;"/>
    </g>
    <g id="line2d_45"/>
    <g id="text_34">
     <!-- $I_x(U|\Pi^{(2)})$, Carte simple -->
     <g transform="translate(796.28551 378.788757)scale(0.1 -0.1)">
      <use transform="scale(0.996264)" xlink:href="#CMMI12-73"/>
      <use transform="translate(43.024176 -14.943915)scale(0.697382)" xlink:href="#CMMI12-120"/>
      <use transform="translate(82.325967 0)scale(0.996264)" xlink:href="#CMR17-40"/>
      <use transform="translate(117.606735 0)scale(0.996264)" xlink:href="#CMMI12-85"/>
      <use transform="translate(194.265508 0)scale(0.996264)" xlink:href="#CMSY10-106"/>
      <use transform="translate(221.939592 0)scale(0.996264)" xlink:href="#CMR17-5"/>
      <use transform="translate(291.012022 36.153639)scale(0.697382)" xlink:href="#CMR17-40"/>
      <use transform="translate(315.708443 36.153639)scale(0.697382)" xlink:href="#CMR17-50"/>
      <use transform="translate(347.691625 36.153639)scale(0.697382)" xlink:href="#CMR17-41"/>
      <use transform="translate(372.886177 0)scale(0.996264)" xlink:href="#CMR17-41"/>
      <use transform="translate(408.166945 0)scale(0.996264)" xlink:href="#CMSS17-44"/>
      <use transform="translate(465.420262 0)scale(0.996264)" xlink:href="#CMSS17-67"/>
      <use transform="translate(525.276034 0)scale(0.996264)" xlink:href="#CMSS17-97"/>
      <use transform="translate(567.595501 0)scale(0.996264)" xlink:href="#CMSS17-114"/>
      <use transform="translate(599.505273 0)scale(0.996264)" xlink:href="#CMSS17-116"/>
      <use transform="translate(633.33684 0)scale(0.996264)" xlink:href="#CMSS17-101"/>
      <use transform="translate(706.204775 0)scale(0.996264)" xlink:href="#CMSS17-115"/>
      <use transform="translate(742.118317 0)scale(0.996264)" xlink:href="#CMSS17-105"/>
      <use transform="translate(764.29904 0)scale(0.996264)" xlink:href="#CMSS17-109"/>
      <use transform="translate(838.528294 0)scale(0.996264)" xlink:href="#CMSS17-112"/>
      <use transform="translate(886.733237 0)scale(0.996264)" xlink:href="#CMSS17-108"/>
      <use transform="translate(908.91396 0)scale(0.996264)" xlink:href="#CMSS17-101"/>
     </g>
    </g>
    <g id="line2d_46">
     <path d="M 768.28551 391.625167 
L 788.28551 391.625167 
" style="fill:none;stroke:#000000;stroke-dasharray:5.55,2.4;stroke-dashoffset:0;stroke-width:1.5;"/>
    </g>
    <g id="line2d_47"/>
    <g id="text_35">
     <!-- $I_x(X^{(2)}|\Pi^{(1)})$, Carte simple -->
     <g transform="translate(796.28551 395.125167)scale(0.1 -0.1)">
      <use transform="scale(0.996264)" xlink:href="#CMMI12-73"/>
      <use transform="translate(43.024176 -14.943915)scale(0.697382)" xlink:href="#CMMI12-120"/>
      <use transform="translate(82.325967 0)scale(0.996264)" xlink:href="#CMR17-40"/>
      <use transform="translate(117.606735 0)scale(0.996264)" xlink:href="#CMMI12-88"/>
      <use transform="translate(206.399297 36.153639)scale(0.697382)" xlink:href="#CMR17-40"/>
      <use transform="translate(231.095717 36.153639)scale(0.697382)" xlink:href="#CMR17-50"/>
      <use transform="translate(263.078899 36.153639)scale(0.697382)" xlink:href="#CMR17-41"/>
      <use transform="translate(288.273451 0)scale(0.996264)" xlink:href="#CMSY10-106"/>
      <use transform="translate(315.947536 0)scale(0.996264)" xlink:href="#CMR17-5"/>
      <use transform="translate(385.019966 36.153639)scale(0.697382)" xlink:href="#CMR17-40"/>
      <use transform="translate(409.716386 36.153639)scale(0.697382)" xlink:href="#CMR17-49"/>
      <use transform="translate(441.699568 36.153639)scale(0.697382)" xlink:href="#CMR17-41"/>
      <use transform="translate(466.894121 0)scale(0.996264)" xlink:href="#CMR17-41"/>
      <use transform="translate(502.174889 0)scale(0.996264)" xlink:href="#CMSS17-44"/>
      <use transform="translate(559.428206 0)scale(0.996264)" xlink:href="#CMSS17-67"/>
      <use transform="translate(619.283978 0)scale(0.996264)" xlink:href="#CMSS17-97"/>
      <use transform="translate(661.603444 0)scale(0.996264)" xlink:href="#CMSS17-114"/>
      <use transform="translate(693.513217 0)scale(0.996264)" xlink:href="#CMSS17-116"/>
      <use transform="translate(727.344784 0)scale(0.996264)" xlink:href="#CMSS17-101"/>
      <use transform="translate(800.212719 0)scale(0.996264)" xlink:href="#CMSS17-115"/>
      <use transform="translate(836.126261 0)scale(0.996264)" xlink:href="#CMSS17-105"/>
      <use transform="translate(858.306984 0)scale(0.996264)" xlink:href="#CMSS17-109"/>
      <use transform="translate(932.536238 0)scale(0.996264)" xlink:href="#CMSS17-112"/>
      <use transform="translate(980.741181 0)scale(0.996264)" xlink:href="#CMSS17-108"/>
      <use transform="translate(1002.921904 0)scale(0.996264)" xlink:href="#CMSS17-101"/>
     </g>
    </g>
    <g id="line2d_48">
     <path d="M 768.28551 407.961577 
L 788.28551 407.961577 
" style="fill:none;stroke:#0000ff;stroke-linecap:square;stroke-width:1.5;"/>
    </g>
    <g id="line2d_49"/>
    <g id="text_36">
     <!-- $I_x(X^{(2)}|\Pi^{(2)})$, CxSOM -->
     <g transform="translate(796.28551 411.461577)scale(0.1 -0.1)">
      <use transform="scale(0.996264)" xlink:href="#CMMI12-73"/>
      <use transform="translate(43.024176 -14.943915)scale(0.697382)" xlink:href="#CMMI12-120"/>
      <use transform="translate(82.325967 0)scale(0.996264)" xlink:href="#CMR17-40"/>
      <use transform="translate(117.606735 0)scale(0.996264)" xlink:href="#CMMI12-88"/>
      <use transform="translate(206.399297 36.153639)scale(0.697382)" xlink:href="#CMR17-40"/>
      <use transform="translate(231.095717 36.153639)scale(0.697382)" xlink:href="#CMR17-50"/>
      <use transform="translate(263.078899 36.153639)scale(0.697382)" xlink:href="#CMR17-41"/>
      <use transform="translate(288.273451 0)scale(0.996264)" xlink:href="#CMSY10-106"/>
      <use transform="translate(315.947536 0)scale(0.996264)" xlink:href="#CMR17-5"/>
      <use transform="translate(385.019966 36.153639)scale(0.697382)" xlink:href="#CMR17-40"/>
      <use transform="translate(409.716386 36.153639)scale(0.697382)" xlink:href="#CMR17-50"/>
      <use transform="translate(441.699568 36.153639)scale(0.697382)" xlink:href="#CMR17-41"/>
      <use transform="translate(466.894121 0)scale(0.996264)" xlink:href="#CMR17-41"/>
      <use transform="translate(502.174889 0)scale(0.996264)" xlink:href="#CMSS17-44"/>
      <use transform="translate(559.428206 0)scale(0.996264)" xlink:href="#CMSS17-67"/>
      <use transform="translate(619.283978 0)scale(0.996264)" xlink:href="#CMSS17-120"/>
      <use transform="translate(662.284119 0)scale(0.996264)" xlink:href="#CMSS17-83"/>
      <use transform="translate(714.332636 0)scale(0.996264)" xlink:href="#CMSS17-79"/>
      <use transform="translate(783.356891 0)scale(0.996264)" xlink:href="#CMSS17-77"/>
     </g>
    </g>
    <g id="line2d_50">
     <path d="M 768.28551 424.297987 
L 788.28551 424.297987 
" style="fill:none;stroke:#008000;stroke-linecap:square;stroke-width:1.5;"/>
    </g>
    <g id="line2d_51"/>
    <g id="text_37">
     <!-- $I_x(U|X^{(2)})$ -->
     <g transform="translate(796.28551 427.797987)scale(0.1 -0.1)">
      <use transform="scale(0.996264)" xlink:href="#CMMI12-73"/>
      <use transform="translate(43.024176 -14.943915)scale(0.697382)" xlink:href="#CMMI12-120"/>
      <use transform="translate(82.325967 0)scale(0.996264)" xlink:href="#CMR17-40"/>
      <use transform="translate(117.606735 0)scale(0.996264)" xlink:href="#CMMI12-85"/>
      <use transform="translate(194.265508 0)scale(0.996264)" xlink:href="#CMSY10-106"/>
      <use transform="translate(221.939592 0)scale(0.996264)" xlink:href="#CMMI12-88"/>
      <use transform="translate(310.732154 36.153639)scale(0.697382)" xlink:href="#CMR17-40"/>
      <use transform="translate(335.428575 36.153639)scale(0.697382)" xlink:href="#CMR17-50"/>
      <use transform="translate(367.411757 36.153639)scale(0.697382)" xlink:href="#CMR17-41"/>
      <use transform="translate(392.606309 0)scale(0.996264)" xlink:href="#CMR17-41"/>
     </g>
    </g>
   </g>
  </g>
 </g>
 <defs>
  <clipPath id="pd356fa5cbe">
   <rect height="180.186467" width="877.494244" x="43.385756" y="25.10218"/>
  </clipPath>
  <clipPath id="p0c4b4cac2d">
   <rect height="180.186467" width="877.494244" x="43.385756" y="259.10218"/>
  </clipPath>
 </defs>
</svg>
