<?xml version="1.0" encoding="UTF-8" standalone="no"?>
<!-- Created with Inkscape (http://www.inkscape.org/) -->

<svg
   xmlns:dc="http://purl.org/dc/elements/1.1/"
   xmlns:cc="http://creativecommons.org/ns#"
   xmlns:rdf="http://www.w3.org/1999/02/22-rdf-syntax-ns#"
   xmlns:svg="http://www.w3.org/2000/svg"
   xmlns="http://www.w3.org/2000/svg"
   xmlns:sodipodi="http://sodipodi.sourceforge.net/DTD/sodipodi-0.dtd"
   xmlns:inkscape="http://www.inkscape.org/namespaces/inkscape"
   version="1.1"
   id="svg2"
   xml:space="preserve"
   width="1251.0986"
   height="652.90137"
   viewBox="0 0 1251.0986 652.90137"
   sodipodi:docname="relaxation_2maps.svg"
   inkscape:version="0.92.5 (2060ec1f9f, 2020-04-08)"><metadata
     id="metadata8"><rdf:RDF><cc:Work
         rdf:about=""><dc:format>image/svg+xml</dc:format><dc:type
           rdf:resource="http://purl.org/dc/dcmitype/StillImage" /><dc:title /></cc:Work></rdf:RDF></metadata><defs
     id="defs6"><marker
       inkscape:isstock="true"
       style="overflow:visible;"
       id="marker2424"
       refX="0.0"
       refY="0.0"
       orient="auto"
       inkscape:stockid="Arrow1Mend"><path
         transform="scale(0.4) rotate(180) translate(10,0)"
         style="fill-rule:evenodd;stroke:#eb0000;stroke-width:1pt;stroke-opacity:1;fill:#eb0000;fill-opacity:1"
         d="M 0.0,0.0 L 5.0,-5.0 L -12.5,0.0 L 5.0,5.0 L 0.0,0.0 z "
         id="path2422" /></marker><marker
       inkscape:stockid="Arrow1Mend"
       orient="auto"
       refY="0.0"
       refX="0.0"
       id="Arrow1Mend"
       style="overflow:visible;"
       inkscape:isstock="true"
       inkscape:collect="always"><path
         id="path1843"
         d="M 0.0,0.0 L 5.0,-5.0 L -12.5,0.0 L 5.0,5.0 L 0.0,0.0 z "
         style="fill-rule:evenodd;stroke:#ff0000;stroke-width:1pt;stroke-opacity:1;fill:#ff0000;fill-opacity:1"
         transform="scale(0.4) rotate(180) translate(10,0)" /></marker><marker
       inkscape:stockid="Arrow1Mstart"
       orient="auto"
       refY="0.0"
       refX="0.0"
       id="marker2260"
       style="overflow:visible"
       inkscape:isstock="true"><path
         id="path2258"
         d="M 0.0,0.0 L 5.0,-5.0 L -12.5,0.0 L 5.0,5.0 L 0.0,0.0 z "
         style="fill-rule:evenodd;stroke:#2100b4;stroke-width:1pt;stroke-opacity:1;fill:#2100b4;fill-opacity:1"
         transform="scale(0.4) translate(10,0)" /></marker><marker
       inkscape:stockid="Arrow1Mstart"
       orient="auto"
       refY="0.0"
       refX="0.0"
       id="Arrow1Mstart"
       style="overflow:visible"
       inkscape:isstock="true"><path
         id="path1840"
         d="M 0.0,0.0 L 5.0,-5.0 L -12.5,0.0 L 5.0,5.0 L 0.0,0.0 z "
         style="fill-rule:evenodd;stroke:#2100b4;stroke-width:1pt;stroke-opacity:1;fill:#2100b4;fill-opacity:1"
         transform="scale(0.4) translate(10,0)" /></marker><clipPath
       clipPathUnits="userSpaceOnUse"
       id="clipPath38"><path
         d="M 0,0 H 939 V 490 H 0 Z"
         id="path36"
         inkscape:connector-curvature="0" /></clipPath><clipPath
       clipPathUnits="userSpaceOnUse"
       id="clipPath54"><path
         d="M 0,0 H 939 V 490 H 0 Z"
         id="path52"
         inkscape:connector-curvature="0" /></clipPath><clipPath
       clipPathUnits="userSpaceOnUse"
       id="clipPath92"><path
         d="M 0,0 H 939 V 490 H 0 Z"
         id="path90"
         inkscape:connector-curvature="0" /></clipPath><clipPath
       clipPathUnits="userSpaceOnUse"
       id="clipPath108"><path
         d="M 0,0 H 939 V 490 H 0 Z"
         id="path106"
         inkscape:connector-curvature="0" /></clipPath><clipPath
       clipPathUnits="userSpaceOnUse"
       id="clipPath146"><path
         d="M 0,0 H 939 V 490 H 0 Z"
         id="path144"
         inkscape:connector-curvature="0" /></clipPath><clipPath
       clipPathUnits="userSpaceOnUse"
       id="clipPath162"><path
         d="M 0,0 H 939 V 490 H 0 Z"
         id="path160"
         inkscape:connector-curvature="0" /></clipPath><clipPath
       clipPathUnits="userSpaceOnUse"
       id="clipPath316"><path
         d="M 0,0 H 939 V 490 H 0 Z"
         id="path314"
         inkscape:connector-curvature="0" /></clipPath><clipPath
       clipPathUnits="userSpaceOnUse"
       id="clipPath370"><path
         d="m 124,456 h 26 v 25.977 h -26 z"
         id="path368"
         inkscape:connector-curvature="0" /></clipPath><clipPath
       clipPathUnits="userSpaceOnUse"
       id="clipPath378"><path
         d="M 0,0 H 939 V 490 H 0 Z"
         id="path376"
         inkscape:connector-curvature="0" /></clipPath><clipPath
       clipPathUnits="userSpaceOnUse"
       id="clipPath606"><path
         d="m 469.992,418.555 h 29 v 28.422 h -29 z"
         id="path604"
         inkscape:connector-curvature="0" /></clipPath><clipPath
       clipPathUnits="userSpaceOnUse"
       id="clipPath614"><path
         d="M 0,0 H 939 V 490 H 0 Z"
         id="path612"
         inkscape:connector-curvature="0" /></clipPath><clipPath
       clipPathUnits="userSpaceOnUse"
       id="clipPath618"><path
         d="M 0,0 H 939 V 490 H 0 Z"
         id="path616"
         inkscape:connector-curvature="0" /></clipPath></defs><sodipodi:namedview
     pagecolor="#ffffff"
     bordercolor="#666666"
     borderopacity="1"
     objecttolerance="10"
     gridtolerance="10"
     guidetolerance="10"
     inkscape:pageopacity="0"
     inkscape:pageshadow="2"
     inkscape:window-width="1294"
     inkscape:window-height="704"
     id="namedview4"
     showgrid="false"
     inkscape:zoom="1.5689638"
     inkscape:cx="554.43021"
     inkscape:cy="188.85768"
     inkscape:window-x="72"
     inkscape:window-y="27"
     inkscape:window-maximized="1"
     inkscape:current-layer="g10" /><g
     id="g10"
     inkscape:groupmode="layer"
     inkscape:label="relaxation"
     transform="matrix(1.3333333,0,0,1.3333333,0,1.9655868e-5)"><g
       id="g28" /><g
       id="g82" /><g
       id="g364"
       transform="translate(98.023761,-100.3283)"><g
         id="g366"
         clip-path="url(#clipPath370)"><g
           id="g372"><g
             id="g374" /><g
             id="g386"><g
               clip-path="url(#clipPath378)"
               id="g384"
               style="opacity:0.98999999"><g
                 id="g382"><path
                   d="m 124.281,456.32 h 24.852 v 25.637 h -24.852 z"
                   style="fill:#ff0000;fill-opacity:1;fill-rule:evenodd;stroke:none"
                   id="path380"
                   inkscape:connector-curvature="0" /></g></g></g></g></g></g><path
       inkscape:connector-curvature="0"
       id="path416"
       style="fill:#000000;fill-opacity:1;fill-rule:evenodd;stroke:none"
       d="m 493.27764,367.30277 v -0.066 l -0.004,-0.07 -0.012,-0.067 -0.011,-0.062 -0.016,-0.067 -0.02,-0.062 -0.019,-0.059 -0.024,-0.058 -0.027,-0.059 -0.031,-0.059 -0.028,-0.054 -0.035,-0.051 -0.039,-0.055 -0.043,-0.05 -0.039,-0.051 -0.09,-0.09 -0.097,-0.078 -0.055,-0.043 -0.055,-0.028 -0.058,-0.035 -0.051,-0.027 -0.059,-0.031 -0.062,-0.024 -0.059,-0.019 -0.125,-0.031 -0.066,-0.016 -0.067,-0.004 h -0.07 l -0.066,-0.004 c -0.719,0 -1.321,0.594 -1.321,1.32 0,0.727 0.602,1.325 1.321,1.325 0.73,0 1.328,-0.598 1.328,-1.325 z" /><path
       inkscape:connector-curvature="0"
       id="path418"
       style="fill:#000000;fill-opacity:1;fill-rule:evenodd;stroke:none"
       d="m 493.27764,375.42077 v -0.063 l -0.004,-0.074 -0.012,-0.067 -0.011,-0.062 -0.016,-0.063 -0.039,-0.125 -0.024,-0.058 -0.027,-0.063 -0.031,-0.054 -0.028,-0.055 -0.035,-0.055 -0.039,-0.05 -0.043,-0.051 -0.039,-0.051 -0.09,-0.086 -0.097,-0.082 -0.055,-0.035 -0.113,-0.07 -0.051,-0.032 -0.059,-0.023 -0.062,-0.028 -0.059,-0.019 -0.062,-0.02 -0.063,-0.015 -0.066,-0.008 -0.067,-0.012 -0.07,-0.004 h -0.066 c -0.719,0 -1.321,0.602 -1.321,1.321 0,0.722 0.602,1.324 1.321,1.324 0.73,0 1.328,-0.602 1.328,-1.324 z" /><path
       inkscape:connector-curvature="0"
       id="path420"
       style="fill:#000000;fill-opacity:1;fill-rule:evenodd;stroke:none"
       d="m 702.37864,373.42377 h 6.918 c 0.454,0 0.856,0 0.856,-0.5 0,-0.5 -0.402,-0.5 -0.856,-0.5 h -6.918 v -6.894 c 0,-0.402 0,-0.93 -0.5,-0.93 -0.504,0 -0.504,0.457 -0.504,0.86 v 6.964 h -6.968 c -0.457,0 -0.903,0 -0.903,0.5 0,0.5 0.446,0.5 0.903,0.5 h 6.968 v 6.817 h -6.968 c -0.457,0 -0.903,0 -0.903,0.5 0,0.504 0.446,0.504 0.903,0.504 h 14.89 c 0.454,0 0.856,0 0.856,-0.504 0,-0.5 -0.402,-0.5 -0.856,-0.5 h -6.918 z" /><path
       inkscape:connector-curvature="0"
       id="path422"
       style="fill:#000000;fill-opacity:1;fill-rule:evenodd;stroke:none"
       d="m 728.19964,363.80277 v -0.058 l -0.047,-0.028 v -0.05 l -0.051,-0.024 v -0.066 l -0.051,-0.02 v -0.054 l -0.05,-0.016 v -0.027 l -0.051,-0.012 v -0.027 l -0.047,-0.008 v -0.012 h -0.051 v -0.016 l -0.051,-0.003 v -0.004 l -0.05,-0.004 v -0.004 l -0.051,-0.004 h -0.051 v -0.004 h -0.098 c -0.402,0 -0.453,0.125 -0.652,0.445 l -0.156,2.055 6.726,13.488 h -13.441 l 6.715,-13.488 0.156,-2.055 -8.426,16.938 c -0.148,0.226 -0.148,0.281 -0.148,0.297 0,0.207 0.148,0.207 0.55,0.207 h 17.348 c 0.402,0 0.555,0 0.555,-0.207 0,-0.016 0,-0.071 -0.102,-0.297 z" /><path
       inkscape:connector-curvature="0"
       id="path538"
       style="fill:#000000;fill-opacity:1;fill-rule:evenodd;stroke:none"
       d="m 533.39064,363.77177 v -0.273 l 0.008,-0.078 0.004,-0.082 0.008,-0.075 0.011,-0.07 0.012,-0.066 0.016,-0.067 0.019,-0.054 0.028,-0.059 0.027,-0.051 0.035,-0.055 0.035,-0.046 0.047,-0.039 0.051,-0.04 0.059,-0.043 0.062,-0.031 0.035,-0.019 0.039,-0.012 0.035,-0.016 0.039,-0.011 0.047,-0.02 0.047,-0.012 0.047,-0.007 0.047,-0.012 0.051,-0.012 0.051,-0.008 0.117,-0.023 0.058,-0.004 0.063,-0.008 0.066,-0.012 0.067,-0.003 0.074,-0.008 0.07,-0.004 0.074,-0.008 h 0.078 l 0.083,-0.004 0.085,-0.008 h 0.172 l 0.094,-0.004 h 0.992 v -0.894 h -19.613 v 0.894 h 0.691 c 2.207,0 2.27,0.317 2.27,1.344 v 15.047 c 0,1.031 -0.063,1.348 -2.27,1.348 h -0.691 v 0.894 c 1.008,-0.094 3.137,-0.094 4.223,-0.094 1.089,0 3.242,0 4.25,0.094 v -0.894 h -0.692 c -2.207,0 -2.273,-0.317 -2.273,-1.348 v -16.391 h 8.594 v 16.391 c 0,1.031 -0.063,1.348 -2.27,1.348 h -0.691 v 0.894 c 1.007,-0.094 3.136,-0.094 4.222,-0.094 1.09,0 3.242,0 4.25,0.094 v -0.894 h -0.691 c -2.207,0 -2.262,-0.317 -2.262,-1.348 z" /><path
       inkscape:connector-curvature="0"
       id="path540"
       style="fill:#000000;fill-opacity:1;fill-rule:evenodd;stroke:none"
       d="m 544.42164,351.05677 -0.343,0.258 -0.336,0.266 -0.317,0.273 -0.304,0.281 -0.289,0.289 -0.27,0.293 -0.262,0.305 -0.242,0.305 -0.23,0.312 -0.211,0.317 -0.207,0.324 -0.192,0.32 -0.179,0.328 -0.161,0.332 -0.156,0.332 -0.144,0.336 -0.125,0.332 -0.121,0.336 -0.11,0.34 -0.105,0.332 -0.086,0.336 -0.082,0.336 -0.075,0.328 -0.054,0.328 -0.059,0.328 -0.043,0.325 -0.039,0.316 -0.027,0.309 -0.024,0.312 -0.019,0.305 -0.004,0.297 -0.008,0.293 c 0,2.836 0.848,7.23 4.824,10.039 0.168,0 0.399,0 0.399,-0.231 0,-0.129 -0.051,-0.168 -0.196,-0.312 -2.675,-2.406 -3.66,-5.82 -3.66,-9.481 0,-5.418 2.075,-8.066 3.723,-9.554 0.082,-0.082 0.133,-0.145 0.133,-0.242 0,-0.243 -0.231,-0.243 -0.399,-0.243 z" /><g
       id="g310"
       transform="translate(-77.066957,-132.12311)"><g
         id="g312" /><g
         id="g324"><g
           style="opacity:0.98999999"
           id="g322"
           clip-path="url(#clipPath316)"><g
             id="g320"><path
               inkscape:connector-curvature="0"
               id="path318"
               style="fill:#f92300;fill-opacity:0.59500002;fill-rule:evenodd;stroke:none"
               d="m 124.273,418.68 h 24.859 v 25.633 h -24.859 z" /></g></g></g></g><path
       inkscape:connector-curvature="0"
       id="path526"
       style="fill:#000000;fill-opacity:1;fill-rule:evenodd;stroke:none"
       d="m 319.18704,288.42789 v -0.278 l 0.004,-0.082 0.008,-0.082 0.004,-0.074 0.011,-0.074 0.012,-0.07 0.019,-0.063 0.016,-0.058 0.031,-0.059 0.028,-0.055 0.035,-0.054 0.035,-0.047 0.047,-0.039 0.055,-0.043 0.058,-0.039 0.067,-0.036 0.035,-0.019 0.039,-0.012 0.035,-0.015 0.043,-0.012 0.047,-0.02 0.14,-0.035 0.055,-0.012 0.051,-0.007 0.117,-0.024 0.063,-0.004 0.062,-0.008 0.07,-0.011 0.067,-0.004 0.074,-0.008 0.07,-0.004 0.078,-0.008 h 0.082 l 0.083,-0.004 0.089,-0.007 h 0.176 l 0.094,-0.004 h 1.016 v -0.914 h -20.051 v 0.914 h 0.707 c 2.258,0 2.324,0.324 2.324,1.371 v 15.383 c 0,1.054 -0.066,1.378 -2.324,1.378 h -0.707 v 0.915 c 1.031,-0.094 3.207,-0.094 4.32,-0.094 1.113,0 3.309,0 4.34,0.094 v -0.915 h -0.707 c -2.254,0 -2.32,-0.324 -2.32,-1.378 v -16.754 h 8.785 v 16.754 c 0,1.054 -0.067,1.378 -2.321,1.378 h -0.707 v 0.915 c 1.032,-0.094 3.203,-0.094 4.317,-0.094 1.113,0 3.312,0 4.344,0.094 v -0.915 h -0.708 c -2.257,0 -2.308,-0.324 -2.308,-1.378 z" /><path
       inkscape:connector-curvature="0"
       id="path528"
       style="fill:#000000;fill-opacity:1;fill-rule:evenodd;stroke:none"
       d="m 330.46004,275.43189 -0.351,0.265 -0.344,0.27 -0.324,0.277 -0.313,0.289 -0.293,0.297 -0.277,0.301 -0.266,0.308 -0.246,0.313 -0.234,0.32 -0.219,0.325 -0.215,0.328 -0.191,0.332 -0.184,0.336 -0.164,0.336 -0.16,0.339 -0.148,0.344 -0.129,0.34 -0.125,0.344 -0.11,0.347 -0.105,0.34 -0.09,0.344 -0.082,0.34 -0.078,0.336 -0.117,0.672 -0.039,0.328 -0.043,0.324 -0.032,0.32 -0.023,0.317 -0.016,0.312 -0.007,0.301 -0.004,0.301 c 0,2.898 0.867,7.394 4.929,10.261 0.172,0 0.407,0 0.407,-0.234 0,-0.129 -0.051,-0.172 -0.2,-0.32 -2.734,-2.461 -3.742,-5.949 -3.742,-9.692 0,-5.535 2.121,-8.246 3.809,-9.765 0.082,-0.082 0.133,-0.149 0.133,-0.246 0,-0.25 -0.235,-0.25 -0.407,-0.25 z" /><path
       inkscape:connector-curvature="0"
       id="path530"
       style="fill:#000000;fill-opacity:1;fill-rule:evenodd;stroke:none"
       d="m 339.01504,278.00189 v -0.066 l -0.004,-0.028 -0.008,-0.035 -0.004,-0.031 -0.007,-0.035 -0.012,-0.032 -0.024,-0.07 -0.011,-0.027 -0.02,-0.035 -0.015,-0.032 -0.02,-0.035 -0.023,-0.027 -0.024,-0.031 -0.023,-0.028 -0.024,-0.031 -0.027,-0.031 -0.031,-0.024 -0.028,-0.023 -0.105,-0.07 -0.043,-0.016 -0.043,-0.02 -0.039,-0.011 -0.043,-0.016 -0.047,-0.008 -0.047,-0.011 -0.047,-0.004 -0.051,-0.008 h -0.054 c -0.555,0 -1.149,0.535 -1.149,1.133 0,0.351 0.266,0.781 0.825,0.781 0.589,0 1.148,-0.574 1.148,-1.129 z" /><path
       inkscape:connector-curvature="0"
       id="path532"
       style="fill:#000000;fill-opacity:1;fill-rule:evenodd;stroke:none"
       d="m 334.82804,288.42789 -0.032,0.101 -0.027,0.102 -0.02,0.047 -0.015,0.051 -0.012,0.054 -0.012,0.047 -0.019,0.051 -0.012,0.055 -0.004,0.058 -0.012,0.055 -0.007,0.058 -0.004,0.028 v 0.066 l -0.008,0.028 v 0.066 c 0,0.965 0.82,1.738 1.945,1.738 2.051,0 2.961,-2.824 2.961,-3.133 0,-0.273 -0.265,-0.273 -0.328,-0.273 -0.289,0 -0.312,0.125 -0.394,0.355 -0.473,1.637 -1.375,2.485 -2.176,2.485 -0.41,0 -0.516,-0.27 -0.516,-0.719 0,-0.473 0.145,-0.867 0.336,-1.32 0.199,-0.551 0.43,-1.102 0.652,-1.637 0.184,-0.496 0.926,-2.363 1.008,-2.617 0.059,-0.199 0.125,-0.445 0.125,-0.652 0,-0.965 -0.82,-1.739 -1.957,-1.739 -2.031,0 -2.969,2.793 -2.969,3.141 0,0.265 0.282,0.265 0.348,0.265 0.289,0 0.305,-0.101 0.371,-0.332 0.528,-1.765 1.43,-2.503 2.192,-2.503 0.328,0 0.511,0.168 0.511,0.718 0,0.473 -0.117,0.785 -0.636,2.051 z" /><path
       inkscape:connector-curvature="0"
       id="path534"
       style="fill:#000000;fill-opacity:1;fill-rule:evenodd;stroke:none"
       d="m 342.48404,275.43189 h -0.11 l -0.011,0.007 h -0.035 l -0.02,0.004 h -0.016 l -0.011,0.008 -0.02,0.004 h -0.016 l -0.011,0.008 -0.02,0.004 -0.011,0.008 -0.016,0.011 -0.012,0.004 -0.015,0.012 -0.024,0.023 -0.004,0.008 -0.008,0.004 v 0.008 l -0.011,0.012 v 0.011 l -0.012,0.012 v 0.012 l -0.004,0.004 v 0.019 l -0.008,0.012 v 0.055 c 0,0.097 0.059,0.164 0.184,0.308 1.769,1.621 3.734,4.399 3.734,9.688 0,4.289 -1.332,7.539 -3.551,9.543 -0.343,0.355 -0.367,0.371 -0.367,0.484 0,0.102 0.059,0.234 0.266,0.234 0.25,0 2.199,-1.347 3.555,-3.917 0.898,-1.704 1.5,-3.922 1.5,-6.329 0,-2.886 -0.864,-7.378 -4.926,-10.261 z" /><path
       inkscape:connector-curvature="0"
       id="path536"
       style="fill:#000000;fill-opacity:1;fill-rule:evenodd;stroke:none"
       d="m 330.21404,302.03689 h 3.824 c 0.215,0 1.083,0 1.083,-0.816 0,-0.574 -0.532,-0.574 -0.883,-0.574 h -6.465 c -0.594,0 -1.258,0.042 -2.32,1.027 -0.594,0.527 -1.36,1.625 -1.36,1.785 0,0.246 0.27,0.246 0.352,0.246 0.23,0 0.25,-0.035 0.367,-0.219 1.047,-1.449 2.305,-1.449 2.769,-1.449 h 1.832 l -2.035,6.574 c -0.097,0.332 -0.097,0.348 -0.097,0.473 0,0.559 0.511,0.66 0.675,0.66 0.778,0 0.926,-0.742 0.993,-1.031 z" /><path
       inkscape:connector-curvature="0"
       id="path542"
       style="fill:#000000;fill-opacity:1;fill-rule:evenodd;stroke:none"
       d="m 302.66304,371.08389 v -0.062 l -0.007,-0.028 -0.004,-0.035 -0.008,-0.031 -0.004,-0.031 -0.012,-0.032 -0.023,-0.07 -0.012,-0.027 -0.015,-0.036 -0.02,-0.027 -0.016,-0.035 -0.023,-0.027 -0.024,-0.032 -0.046,-0.054 -0.028,-0.032 -0.031,-0.023 -0.027,-0.023 -0.035,-0.024 -0.036,-0.019 -0.035,-0.024 -0.039,-0.019 -0.039,-0.016 -0.043,-0.012 -0.039,-0.019 -0.047,-0.004 -0.043,-0.012 -0.047,-0.004 -0.054,-0.008 h -0.051 c -0.543,0 -1.125,0.524 -1.125,1.106 0,0.348 0.262,0.769 0.808,0.769 0.579,0 1.125,-0.566 1.125,-1.109 z" /><path
       inkscape:connector-curvature="0"
       id="path544"
       style="fill:#000000;fill-opacity:1;fill-rule:evenodd;stroke:none"
       d="m 548.69564,363.77177 -0.031,0.098 -0.028,0.097 -0.015,0.047 -0.02,0.051 -0.012,0.051 -0.011,0.047 -0.016,0.051 -0.012,0.054 -0.008,0.055 -0.011,0.055 -0.004,0.054 -0.008,0.032 v 0.062 l -0.004,0.027 v 0.067 c 0,0.945 0.801,1.699 1.902,1.699 2.004,0 2.899,-2.762 2.899,-3.066 0,-0.266 -0.258,-0.266 -0.324,-0.266 -0.282,0 -0.305,0.121 -0.383,0.348 -0.465,1.601 -1.344,2.429 -2.129,2.429 -0.402,0 -0.508,-0.265 -0.508,-0.703 0,-0.461 0.145,-0.847 0.328,-1.289 0.196,-0.543 0.422,-1.078 0.641,-1.601 0.18,-0.485 0.906,-2.313 0.984,-2.559 0.059,-0.199 0.121,-0.441 0.121,-0.641 0,-0.945 -0.8,-1.703 -1.91,-1.703 -1.988,0 -2.906,2.735 -2.906,3.074 0,0.258 0.277,0.258 0.34,0.258 0.281,0 0.301,-0.097 0.363,-0.32 0.52,-1.73 1.399,-2.449 2.145,-2.449 0.32,0 0.5,0.16 0.5,0.703 0,0.461 -0.114,0.766 -0.621,2.004 z" /><path
       inkscape:connector-curvature="0"
       id="path546"
       style="fill:#000000;fill-opacity:1;fill-rule:evenodd;stroke:none"
       d="m 556.18764,351.05677 h -0.109 l -0.012,0.004 h -0.035 l -0.02,0.008 h -0.015 l -0.012,0.004 -0.016,0.008 h -0.019 l -0.012,0.004 -0.016,0.007 -0.011,0.004 -0.016,0.012 -0.012,0.008 -0.035,0.035 -0.008,0.004 -0.004,0.008 v 0.004 l -0.007,0.004 -0.004,0.007 v 0.012 l -0.008,0.004 -0.004,0.008 v 0.012 l -0.008,0.003 v 0.02 l -0.004,0.012 v 0.051 c 0,0.097 0.059,0.16 0.18,0.304 1.727,1.586 3.652,4.301 3.652,9.477 0,4.195 -1.3,7.375 -3.476,9.336 -0.332,0.343 -0.356,0.363 -0.356,0.472 0,0.098 0.059,0.231 0.258,0.231 0.242,0 2.152,-1.32 3.477,-3.832 0.882,-1.668 1.468,-3.84 1.468,-6.192 0,-2.824 -0.847,-7.222 -4.816,-10.039 z" /><path
       inkscape:connector-curvature="0"
       id="path548"
       style="fill:#000000;fill-opacity:1;fill-rule:evenodd;stroke:none"
       d="m 544.17964,381.37377 h 3.742 c 0.215,0 1.059,0 1.059,-0.801 0,-0.555 -0.516,-0.555 -0.863,-0.555 h -6.321 c -0.582,0 -1.234,0.035 -2.273,0.996 -0.582,0.528 -1.332,1.598 -1.332,1.746 0,0.243 0.266,0.243 0.348,0.243 0.226,0 0.242,-0.036 0.355,-0.211 1.027,-1.418 2.254,-1.418 2.711,-1.418 h 1.793 l -1.988,6.429 c -0.098,0.325 -0.098,0.348 -0.098,0.461 0,0.551 0.5,0.649 0.66,0.649 0.762,0 0.906,-0.727 0.969,-1.012 z" /><path
       inkscape:connector-curvature="0"
       id="path550"
       style="fill:#000000;fill-opacity:1;fill-rule:evenodd;stroke:none"
       d="m 559.53164,384.13177 h 6.14 c 0.262,0 0.739,0 0.739,-0.489 0,-0.496 -0.461,-0.496 -0.739,-0.496 h -6.14 v -6.168 c 0,-0.258 0,-0.734 -0.485,-0.734 -0.507,0 -0.507,0.461 -0.507,0.734 v 6.168 h -6.157 c -0.265,0 -0.75,0 -0.75,0.481 0,0.504 0.461,0.504 0.75,0.504 h 6.157 v 6.168 c 0,0.261 0,0.738 0.488,0.738 0.504,0 0.504,-0.461 0.504,-0.738 z" /><path
       inkscape:connector-curvature="0"
       id="path552"
       style="fill:#000000;fill-opacity:1;fill-rule:evenodd;stroke:none"
       d="m 574.58964,375.89677 v -0.18 l -0.007,-0.015 v -0.074 l -0.004,-0.02 v -0.027 l -0.008,-0.016 v -0.012 l -0.004,-0.011 v -0.02 l -0.012,-0.023 -0.008,-0.024 -0.007,-0.015 -0.012,-0.016 -0.012,-0.02 -0.012,-0.011 -0.019,-0.016 -0.016,-0.012 -0.023,-0.007 -0.016,-0.012 -0.023,-0.004 -0.032,-0.008 -0.011,-0.004 h -0.016 l -0.012,-0.008 h -0.027 l -0.019,-0.003 h -0.094 l -0.02,-0.004 h -0.191 c -1.285,1.265 -3.106,1.289 -3.93,1.289 v 0.715 c 0.485,0 1.809,0 2.903,-0.555 v 10.238 c 0,0.668 0,0.926 -2.004,0.926 h -0.754 v 0.723 c 0.355,-0.02 2.82,-0.082 3.57,-0.082 0.625,0 3.152,0.062 3.594,0.082 v -0.723 h -0.77 c -2.004,0 -2.004,-0.258 -2.004,-0.926 z" /><g
       id="g1774"
       transform="translate(559.74947,-66.250544)"><path
         d="M -8.2844609,284.61312 H 327.82854 v 15.254 H -8.2844609 Z"
         style="fill:#728dff;fill-opacity:0.525;fill-rule:nonzero;stroke:none"
         id="path68"
         inkscape:connector-curvature="0" /><g
         transform="translate(-116.27646,-22.984882)"
         id="g70"><path
           d="m 107.992,307.598 h 336.113 v 15.254 H 107.992 Z"
           style="fill:none;stroke:#000000;stroke-width:1.12826896;stroke-linecap:butt;stroke-linejoin:miter;stroke-miterlimit:4;stroke-dasharray:none;stroke-opacity:1"
           id="path72"
           inkscape:connector-curvature="0" /></g><path
         d="M -8.2844609,268.35112 H 327.82854 v 16.262 H -8.2844609 Z"
         style="fill:#e0ab16;fill-opacity:0.525;fill-rule:nonzero;stroke:none"
         id="path74"
         inkscape:connector-curvature="0" /><g
         transform="translate(-116.27646,-22.984882)"
         id="g76"><path
           d="m 107.992,291.336 h 336.113 v 16.262 H 107.992 Z"
           style="fill:none;stroke:#000000;stroke-width:1.003438;stroke-linecap:butt;stroke-linejoin:miter;stroke-miterlimit:4;stroke-dasharray:none;stroke-opacity:1"
           id="path78"
           inkscape:connector-curvature="0" /></g><g
         transform="matrix(1,0,0,0.65746874,-116.27646,87.449248)"
         id="g86"><g
           id="g88" /><g
           id="g100"><g
             clip-path="url(#clipPath92)"
             id="g98"
             style="opacity:0.98999999"><g
               id="g96"><path
                 d="m 304.539,274.957 h 8.363 v 47.449 h -8.363 z"
                 style="fill:#ff0000;fill-opacity:1;fill-rule:evenodd;stroke:none"
                 id="path94"
                 inkscape:connector-curvature="0" /></g></g></g></g><g
         transform="matrix(1,0,0,0.66754319,-116.27646,84.367418)"
         id="g102"><g
           id="g104" /><g
           id="g116"><g
             clip-path="url(#clipPath108)"
             id="g114"
             style="opacity:0.98999999"><g
               id="g112"><path
                 d="m 344.301,275.457 h 6.863 v 47.449 h -6.863 z"
                 style="fill:#f92300;fill-opacity:0.59500002;fill-rule:evenodd;stroke:none"
                 id="path110"
                 inkscape:connector-curvature="0" /></g></g></g></g><g
         transform="translate(-116.27646,-22.984882)"
         id="g118"><path
           sodipodi:nodetypes="ccccc"
           d="m 222,290.73174 h 8.043 V 321.816 H 222 Z"
           style="fill:none;stroke:#ff0000;stroke-width:1.91493797;stroke-linecap:butt;stroke-linejoin:miter;stroke-miterlimit:4;stroke-dasharray:none;stroke-opacity:1"
           id="path120"
           inkscape:connector-curvature="0" /></g><g
         transform="translate(-116.27646,-22.984882)"
         id="g172"><path
           d="m 346.941,328.441 -32.191,0.348"
           style="fill:none;stroke:#000000;stroke-width:1.00201201;stroke-linecap:butt;stroke-linejoin:miter;stroke-miterlimit:4;stroke-dasharray:none;stroke-opacity:1"
           id="path174"
           inkscape:connector-curvature="0" /></g><g
         id="g176"
         transform="matrix(1,-0.0109885,0.0109885,1,-116.27646,-22.984882)"><path
           d="m 311.096,332.208 2.014,-2.002 -7.014,2.005 7.009,1.999 z"
           style="fill:#000000;fill-opacity:1;fill-rule:evenodd;stroke:#000000;stroke-width:0.53437501;stroke-linecap:butt;stroke-linejoin:miter;stroke-miterlimit:4;stroke-dasharray:none;stroke-opacity:1"
           id="path178"
           inkscape:connector-curvature="0" /></g><g
         transform="translate(-116.27646,-22.984882)"
         id="g238" /><g
         id="g242"
         transform="rotate(180,-58.13823,-11.492441)" /><path
         d="m 218.99354,323.94112 v -0.25 l 0.003,-0.078 0.004,-0.075 0.016,-0.132 0.012,-0.063 0.015,-0.058 0.016,-0.055 0.055,-0.102 0.031,-0.047 0.031,-0.043 0.043,-0.035 0.047,-0.039 0.055,-0.039 0.058,-0.031 0.032,-0.016 0.039,-0.011 0.031,-0.016 0.039,-0.008 0.043,-0.016 0.039,-0.011 0.086,-0.024 0.051,-0.007 0.046,-0.008 0.055,-0.012 0.051,-0.008 0.055,-0.008 0.058,-0.004 0.063,-0.011 0.058,-0.004 0.071,-0.004 0.062,-0.008 0.07,-0.004 h 0.075 l 0.074,-0.008 0.082,-0.003 h 0.16 l 0.086,-0.004 h 0.914 v -0.829 h -18.141 v 0.829 h 0.641 c 2.039,0 2.098,0.293 2.098,1.242 v 13.918 c 0,0.953 -0.059,1.246 -2.098,1.246 h -0.641 v 0.828 c 0.934,-0.086 2.899,-0.086 3.907,-0.086 1.008,0 2.996,0 3.929,0.086 v -0.828 h -0.64 c -2.039,0 -2.098,-0.293 -2.098,-1.246 v -15.16 h 7.949 v 15.16 c 0,0.953 -0.058,1.246 -2.101,1.246 h -0.641 v 0.828 c 0.934,-0.086 2.902,-0.086 3.906,-0.086 1.008,0 2.996,0 3.93,0.086 v -0.828 h -0.637 c -2.043,0 -2.089,-0.293 -2.089,-1.246 z"
         style="fill:#000000;fill-opacity:1;fill-rule:evenodd;stroke:none"
         id="path564"
         inkscape:connector-curvature="0" /><path
         d="m 229.19654,312.17912 -0.321,0.238 -0.308,0.246 -0.293,0.25 -0.285,0.262 -0.266,0.27 -0.25,0.269 -0.242,0.281 -0.223,0.286 -0.211,0.285 -0.199,0.297 -0.191,0.297 -0.176,0.296 -0.164,0.305 -0.153,0.305 -0.144,0.308 -0.133,0.309 -0.117,0.309 -0.109,0.312 -0.102,0.313 -0.098,0.308 -0.078,0.309 -0.074,0.312 -0.07,0.301 -0.055,0.305 -0.051,0.304 -0.039,0.297 -0.039,0.293 -0.047,0.578 -0.015,0.282 -0.004,0.273 -0.008,0.27 c 0,2.625 0.785,6.691 4.465,9.289 0.152,0 0.367,0 0.367,-0.215 0,-0.117 -0.047,-0.153 -0.184,-0.285 -2.472,-2.231 -3.383,-5.387 -3.383,-8.774 0,-5.008 1.918,-7.461 3.442,-8.836 0.078,-0.074 0.125,-0.133 0.125,-0.226 0,-0.223 -0.215,-0.223 -0.367,-0.223 z"
         style="fill:#000000;fill-opacity:1;fill-rule:evenodd;stroke:none"
         id="path566"
         inkscape:connector-curvature="0" /><path
         d="m 240.29354,322.73412 h -0.632 c -0.051,0.406 -0.243,1.504 -0.481,1.691 -0.145,0.106 -1.578,0.106 -1.836,0.106 h -3.422 c 1.946,-1.723 2.598,-2.239 3.715,-3.114 1.371,-1.097 2.656,-2.25 2.656,-4.011 0,-2.25 -1.965,-3.625 -4.343,-3.625 -2.305,0 -3.872,1.613 -3.872,3.32 0,0.953 0.801,1.043 0.993,1.043 0.441,0 0.984,-0.32 0.984,-0.984 0,-0.333 -0.133,-0.981 -1.098,-0.981 0.571,-1.316 1.84,-1.723 2.715,-1.723 1.856,0 2.824,1.438 2.824,2.95 0,1.613 -1.152,2.894 -1.746,3.558 l -4.48,4.426 c -0.192,0.164 -0.192,0.207 -0.192,0.727 h 7.657 z"
         style="fill:#000000;fill-opacity:1;fill-rule:evenodd;stroke:none"
         id="path568"
         inkscape:connector-curvature="0" /><path
         d="m 243.14554,312.17912 h -0.102 l -0.015,0.004 h -0.028 l -0.015,0.008 h -0.016 l -0.016,0.004 -0.011,0.008 h -0.016 l -0.008,0.003 -0.019,0.004 -0.008,0.008 -0.016,0.008 -0.023,0.016 -0.012,0.011 -0.008,0.012 -0.007,0.004 -0.004,0.008 -0.004,0.004 v 0.004 l -0.008,0.007 -0.004,0.008 v 0.008 l -0.004,0.004 v 0.012 l -0.008,0.003 v 0.012 l -0.004,0.004 v 0.027 l -0.007,0.012 v 0.02 c 0,0.093 0.058,0.152 0.171,0.285 1.602,1.465 3.379,3.976 3.379,8.762 0,3.882 -1.207,6.824 -3.214,8.636 -0.309,0.321 -0.336,0.336 -0.336,0.438 0,0.09 0.058,0.215 0.246,0.215 0.226,0 1.988,-1.223 3.215,-3.547 0.816,-1.539 1.355,-3.551 1.355,-5.727 0,-2.609 -0.777,-6.679 -4.453,-9.285 z"
         style="fill:#000000;fill-opacity:1;fill-rule:evenodd;stroke:none"
         id="path570"
         inkscape:connector-curvature="0" /></g><path
       inkscape:connector-curvature="0"
       id="path584"
       style="fill:#000000;fill-opacity:1;fill-rule:evenodd;stroke:none"
       d="m 607.65664,369.69377 h 0.285 l 0.047,-0.008 h 0.054 l 0.043,-0.004 0.141,-0.023 0.047,-0.004 0.039,-0.016 0.047,-0.011 0.039,-0.012 0.039,-0.016 0.078,-0.039 0.035,-0.027 0.032,-0.02 0.035,-0.031 0.027,-0.027 0.023,-0.032 0.016,-0.023 0.012,-0.019 0.008,-0.012 0.011,-0.02 0.008,-0.019 0.012,-0.028 0.008,-0.019 0.008,-0.027 0.003,-0.02 0.008,-0.027 v -0.024 l 0.008,-0.027 v -0.027 l 0.008,-0.028 v -0.058 c 0,-0.661 -0.629,-0.661 -1.086,-0.661 h -19.734 c -0.473,0 -1.086,0 -1.086,0.661 0,0.648 0.613,0.648 1.109,0.648 z" /><path
       inkscape:connector-curvature="0"
       id="path586"
       style="fill:#000000;fill-opacity:1;fill-rule:evenodd;stroke:none"
       d="m 607.69164,376.09577 h 0.086 l 0.094,-0.007 h 0.136 l 0.047,-0.008 0.047,-0.004 h 0.047 l 0.039,-0.008 0.047,-0.012 0.047,-0.007 0.039,-0.012 0.047,-0.016 0.039,-0.012 0.039,-0.015 0.039,-0.02 0.031,-0.019 0.035,-0.024 0.032,-0.027 0.035,-0.027 0.027,-0.032 0.012,-0.015 0.011,-0.02 0.016,-0.011 0.012,-0.02 0.008,-0.023 0.011,-0.02 0.008,-0.02 0.012,-0.019 0.008,-0.027 0.008,-0.02 0.003,-0.023 0.008,-0.028 v -0.027 l 0.008,-0.027 v -0.024 l 0.008,-0.027 v -0.059 c 0,-0.664 -0.629,-0.664 -1.121,-0.664 h -19.676 c -0.496,0 -1.109,0 -1.109,0.664 0,0.66 0.613,0.66 1.086,0.66 z" /><path
       inkscape:connector-curvature="0"
       id="path588"
       style="fill:#000000;fill-opacity:1;fill-rule:evenodd;stroke:none"
       d="m 646.82064,365.97477 v -0.277 l 0.004,-0.082 0.008,-0.082 0.003,-0.074 0.012,-0.071 0.012,-0.074 0.019,-0.062 0.016,-0.059 0.031,-0.059 0.032,-0.054 0.07,-0.102 0.047,-0.039 0.05,-0.043 0.059,-0.039 0.067,-0.035 0.035,-0.02 0.043,-0.011 0.035,-0.016 0.039,-0.012 0.047,-0.019 0.14,-0.035 0.055,-0.012 0.055,-0.004 0.117,-0.023 0.058,-0.008 0.063,-0.004 0.074,-0.016 0.063,-0.004 0.078,-0.007 0.07,-0.004 0.074,-0.008 h 0.086 l 0.082,-0.004 0.086,-0.008 h 0.18 l 0.094,-0.004 h 1.011 v -0.914 h -20.046 v 0.914 h 0.707 c 2.254,0 2.32,0.324 2.32,1.371 v 15.383 c 0,1.055 -0.066,1.379 -2.32,1.379 h -0.707 v 0.914 c 1.031,-0.094 3.203,-0.094 4.316,-0.094 1.113,0 3.312,0 4.344,0.094 v -0.914 h -0.707 c -2.258,0 -2.321,-0.324 -2.321,-1.379 v -16.754 h 8.782 v 16.754 c 0,1.055 -0.063,1.379 -2.321,1.379 h -0.707 v 0.914 c 1.032,-0.094 3.203,-0.094 4.321,-0.094 1.113,0 3.308,0 4.339,0.094 v -0.914 h -0.707 c -2.257,0 -2.308,-0.324 -2.308,-1.379 z" /><path
       inkscape:connector-curvature="0"
       id="path590"
       style="fill:#000000;fill-opacity:1;fill-rule:evenodd;stroke:none"
       d="m 658.09764,352.97877 -0.355,0.266 -0.34,0.273 -0.324,0.274 -0.313,0.289 -0.297,0.297 -0.277,0.3 -0.262,0.313 -0.25,0.309 -0.234,0.32 -0.219,0.324 -0.211,0.328 -0.195,0.332 -0.184,0.336 -0.164,0.336 -0.16,0.34 -0.145,0.344 -0.132,0.34 -0.121,0.343 -0.114,0.348 -0.105,0.34 -0.09,0.343 -0.082,0.34 -0.074,0.336 -0.059,0.336 -0.062,0.336 -0.039,0.328 -0.043,0.324 -0.028,0.321 -0.023,0.316 -0.02,0.313 -0.004,0.3 -0.007,0.301 c 0,2.899 0.867,7.395 4.933,10.262 0.168,0 0.406,0 0.406,-0.234 0,-0.129 -0.054,-0.172 -0.203,-0.317 -2.73,-2.465 -3.738,-5.953 -3.738,-9.691 0,-5.539 2.121,-8.25 3.805,-9.77 0.082,-0.082 0.136,-0.148 0.136,-0.246 0,-0.25 -0.238,-0.25 -0.406,-0.25 z" /><path
       inkscape:connector-curvature="0"
       id="path592"
       style="fill:#000000;fill-opacity:1;fill-rule:evenodd;stroke:none"
       d="m 666.64864,355.54977 v -0.067 l -0.004,-0.027 -0.008,-0.035 -0.004,-0.032 -0.008,-0.035 -0.011,-0.027 -0.012,-0.039 -0.012,-0.035 -0.011,-0.028 -0.016,-0.035 -0.02,-0.031 -0.015,-0.035 -0.024,-0.028 -0.023,-0.031 -0.023,-0.027 -0.024,-0.031 -0.031,-0.028 -0.028,-0.023 -0.031,-0.028 -0.105,-0.07 -0.043,-0.016 -0.039,-0.019 -0.043,-0.012 -0.039,-0.015 -0.047,-0.008 -0.047,-0.012 -0.051,-0.004 -0.051,-0.008 h -0.054 c -0.551,0 -1.149,0.536 -1.149,1.133 0,0.352 0.266,0.781 0.825,0.781 0.589,0 1.148,-0.574 1.148,-1.128 z" /><path
       inkscape:connector-curvature="0"
       id="path594"
       style="fill:#000000;fill-opacity:1;fill-rule:evenodd;stroke:none"
       d="m 662.46064,365.97477 -0.027,0.102 -0.031,0.101 -0.016,0.047 -0.019,0.051 -0.012,0.055 -0.012,0.047 -0.019,0.05 -0.012,0.055 -0.004,0.059 -0.012,0.054 -0.007,0.059 -0.004,0.027 v 0.067 l -0.008,0.027 v 0.066 c 0,0.965 0.82,1.739 1.945,1.739 2.051,0 2.965,-2.821 2.965,-3.133 0,-0.274 -0.266,-0.274 -0.332,-0.274 -0.289,0 -0.313,0.126 -0.395,0.356 -0.468,1.637 -1.371,2.484 -2.171,2.484 -0.415,0 -0.52,-0.269 -0.52,-0.718 0,-0.469 0.148,-0.868 0.336,-1.321 0.199,-0.551 0.43,-1.101 0.652,-1.636 0.184,-0.497 0.926,-2.364 1.008,-2.618 0.059,-0.199 0.125,-0.445 0.125,-0.652 0,-0.965 -0.82,-1.738 -1.957,-1.738 -2.031,0 -2.969,2.793 -2.969,3.14 0,0.266 0.282,0.266 0.348,0.266 0.289,0 0.305,-0.102 0.371,-0.332 0.531,-1.766 1.434,-2.504 2.191,-2.504 0.333,0 0.512,0.168 0.512,0.719 0,0.472 -0.117,0.785 -0.636,2.051 z" /><path
       inkscape:connector-curvature="0"
       id="path596"
       style="fill:#000000;fill-opacity:1;fill-rule:evenodd;stroke:none"
       d="m 670.12164,352.97877 h -0.114 l -0.011,0.008 h -0.036 l -0.015,0.004 h -0.02 l -0.011,0.008 -0.02,0.004 h -0.016 l -0.011,0.007 -0.02,0.004 -0.012,0.008 -0.015,0.012 -0.012,0.004 -0.047,0.047 v 0.007 l -0.008,0.004 -0.003,0.008 v 0.012 l -0.008,0.004 -0.004,0.008 v 0.011 l -0.008,0.004 v 0.02 l -0.004,0.011 v 0.055 c 0,0.098 0.059,0.164 0.18,0.313 1.769,1.617 3.738,4.394 3.738,9.683 0,4.289 -1.332,7.539 -3.555,9.543 -0.339,0.356 -0.363,0.371 -0.363,0.485 0,0.101 0.059,0.234 0.266,0.234 0.246,0 2.195,-1.348 3.55,-3.918 0.903,-1.703 1.504,-3.922 1.504,-6.324 0,-2.887 -0.867,-7.383 -4.925,-10.266 z" /><path
       inkscape:connector-curvature="0"
       id="path598"
       style="fill:#000000;fill-opacity:1;fill-rule:evenodd;stroke:none"
       d="m 657.84764,379.58477 h 3.824 c 0.219,0 1.086,0 1.086,-0.817 0,-0.574 -0.531,-0.574 -0.886,-0.574 h -6.461 c -0.598,0 -1.262,0.043 -2.321,1.027 -0.597,0.528 -1.363,1.625 -1.363,1.786 0,0.246 0.274,0.246 0.356,0.246 0.23,0 0.246,-0.036 0.363,-0.219 1.051,-1.449 2.305,-1.449 2.769,-1.449 h 1.832 l -2.031,6.574 c -0.101,0.332 -0.101,0.348 -0.101,0.473 0,0.558 0.511,0.66 0.679,0.66 0.778,0 0.922,-0.742 0.989,-1.032 z" /><g
       id="g600"
       transform="translate(93.291579,-128.69979)"><g
         id="g602"
         clip-path="url(#clipPath606)"><g
           id="g608"><g
             id="g610" /><g
             id="g638"><g
               clip-path="url(#clipPath614)"
               id="g636"><g
                 id="g634"><g
                   id="g632"><g
                     id="g620" /><g
                     id="g630"><g
                       clip-path="url(#clipPath618)"
                       id="g628"
                       style="opacity:0.98999999"><g
                         id="g626"><g
                           id="g624"><path
                             d="m 471.992,419.957 h 24.852 v 25.637 h -24.852 z"
                             style="fill:none;stroke:#ff0000;stroke-width:2.73322797;stroke-linecap:butt;stroke-linejoin:miter;stroke-miterlimit:4;stroke-dasharray:none;stroke-opacity:1"
                             id="path622"
                             inkscape:connector-curvature="0" /></g></g></g></g></g></g></g></g></g></g></g><g
       id="g2141"
       transform="translate(-13.5)"><path
         inkscape:connector-curvature="0"
         id="path240"
         style="fill:none;stroke:#2100b4;stroke-width:2.10074997;stroke-linecap:butt;stroke-linejoin:miter;stroke-miterlimit:4;stroke-dasharray:none;stroke-opacity:1;marker-start:url(#Arrow1Mstart)"
         d="m 922.41454,219.99868 h 41.012" /><path
         inkscape:connector-curvature="0"
         id="path466"
         style="fill:#000000;fill-opacity:1;fill-rule:evenodd;stroke:none;stroke-width:0.99999994"
         d="m 1005.5124,220.30214 -3.058,-7.247 c -0.11,-0.296 -0.184,-0.437 -0.184,-0.464 0,-0.235 0.621,-0.914 2.152,-1.071 0.368,-0.027 0.731,-0.066 0.731,-0.695 0,-0.43 -0.445,-0.43 -0.547,-0.43 -1.5,0 -3.066,0.11 -4.594,0.11 -0.91798,0 -3.16798,-0.11 -4.08598,-0.11 -0.211,0 -0.656,0 -0.656,0.731 0,0.394 0.367,0.394 0.84,0.394 2.187,0 2.402,0.368 2.738,1.172 l 4.29298,10.168 -7.68698,8.281 -0.469,0.395 c -1.785,1.934 -3.504,2.519 -5.363,2.621 -0.469,0.035 -0.805,0.035 -0.805,0.731 0,0.039 0,0.402 0.484,0.402 1.082,0 2.282,-0.117 3.414,-0.117 1.356,0 2.782,0.117 4.082,0.117 0.227,0 0.668,0 0.668,-0.731 0,-0.367 -0.367,-0.402 -0.441,-0.402 -0.328,-0.035 -1.461,-0.102 -1.461,-1.133 0,-0.578 0.547,-1.164 0.988,-1.633 l 3.70698,-3.945 3.286,-3.57 3.679,8.715 c 0.149,0.402 0.184,0.433 0.184,0.511 0,0.286 -0.688,0.907 -2.113,1.055 -0.403,0.035 -0.727,0.082 -0.727,0.695 0,0.438 0.402,0.438 0.543,0.438 1.031,0 3.578,-0.117 4.594,-0.117 0.914,0 3.133,0.117 4.047,0.117 0.254,0 0.695,0 0.695,-0.703 0,-0.43 -0.367,-0.43 -0.66,-0.43 -2.434,-0.035 -2.516,-0.148 -3.129,-1.602 -1.422,-3.394 -3.863,-9.074 -4.699,-11.261 2.48,-2.559 6.293,-6.891 7.464,-7.906 1.059,-0.879 2.442,-1.75 4.629,-1.868 0.477,-0.027 0.797,-0.027 0.797,-0.73 0,-0.031 0,-0.395 -0.469,-0.395 -1.097,0 -2.296,0.11 -3.429,0.11 -1.348,0 -2.731,-0.11 -4.047,-0.11 -0.219,0 -0.688,0 -0.688,0.731 0,0.25 0.184,0.367 0.442,0.394 0.328,0.039 1.461,0.118 1.461,1.133 0,0.516 -0.403,0.981 -0.703,1.32 z" /><path
         inkscape:connector-curvature="0"
         id="path468"
         style="fill:#000000;fill-opacity:1;fill-rule:evenodd;stroke:none;stroke-width:0.99999994"
         d="m 1029.9934,197.20414 -0.449,0.328 -0.422,0.336 -0.403,0.344 -0.382,0.359 -0.364,0.367 -0.351,0.371 -0.325,0.391 -0.312,0.387 -0.293,0.394 -0.27,0.403 -0.257,0.41 -0.243,0.41 -0.226,0.418 -0.211,0.414 -0.199,0.426 -0.176,0.426 -0.168,0.421 -0.152,0.426 -0.141,0.43 -0.121,0.426 -0.117,0.425 -0.106,0.422 -0.086,0.418 -0.082,0.418 -0.066,0.414 -0.059,0.41 -0.05,0.403 -0.036,0.394 -0.027,0.399 -0.023,0.386 -0.01,0.372 -0.01,0.375 c 0,3.597 1.074,9.179 6.133,12.742 0.203,0 0.496,0 0.496,-0.289 0,-0.164 -0.067,-0.215 -0.25,-0.399 -3.395,-3.054 -4.637,-7.386 -4.637,-12.031 0,-6.879 2.625,-10.246 4.719,-12.133 0.101,-0.101 0.168,-0.183 0.168,-0.305 0,-0.308 -0.293,-0.308 -0.496,-0.308 z" /><path
         inkscape:connector-curvature="0"
         id="path470"
         style="fill:#000000;fill-opacity:1;fill-rule:evenodd;stroke:none;stroke-width:0.99999994"
         d="m 1045.2154,211.68814 h -0.863 c -0.074,0.559 -0.336,2.063 -0.664,2.321 -0.199,0.144 -2.16,0.144 -2.519,0.144 h -4.696 c 2.68,-2.363 3.571,-3.07 5.098,-4.269 1.891,-1.508 3.644,-3.09 3.644,-5.512 0,-3.086 -2.691,-4.973 -5.96,-4.973 -3.161,0 -5.305,2.215 -5.305,4.559 0,1.308 1.097,1.433 1.359,1.433 0.602,0 1.348,-0.441 1.348,-1.355 0,-0.453 -0.184,-1.344 -1.508,-1.344 0.789,-1.808 2.523,-2.363 3.723,-2.363 2.554,0 3.879,1.973 3.879,4.043 0,2.219 -1.582,3.973 -2.399,4.887 l -6.14,6.074 c -0.262,0.226 -0.262,0.285 -0.262,0.996 h 10.504 z" /><path
         inkscape:connector-curvature="0"
         id="path472"
         style="fill:#000000;fill-opacity:1;fill-rule:evenodd;stroke:none;stroke-width:0.99999994"
         d="m 1049.1294,197.20414 h -0.136 l -0.016,0.008 h -0.043 l -0.023,0.008 h -0.024 l -0.011,0.007 -0.024,0.004 h -0.023 l -0.012,0.008 -0.023,0.008 -0.016,0.008 -0.02,0.015 -0.015,0.008 -0.016,0.012 -0.015,0.015 -0.012,0.016 -0.016,0.016 v 0.008 l -0.01,0.003 -0.01,0.008 v 0.016 l -0.016,0.016 v 0.011 0.008 0.023 l -0.01,0.016 v 0.051 l -0.01,0.015 c 0,0.122 0.079,0.204 0.235,0.387 2.195,2.012 4.637,5.457 4.637,12.028 0,5.324 -1.653,9.363 -4.411,11.851 -0.425,0.438 -0.461,0.461 -0.461,0.602 0,0.121 0.079,0.289 0.336,0.289 0.309,0 2.731,-1.672 4.41,-4.864 1.122,-2.113 1.868,-4.871 1.868,-7.855 0,-3.586 -1.075,-9.168 -6.118,-12.746 z" /></g><g
       id="g2314"
       transform="translate(67.30851,-13.301351)"><path
         d="m -25.9525,231.66392 h 336.109 v 15.254 h -336.109 z"
         style="fill:#728dff;fill-opacity:0.525;fill-rule:nonzero;stroke:none"
         id="path14"
         inkscape:connector-curvature="0" /><g
         transform="translate(-501.4795,-76.582075)"
         id="g16"><path
           d="M 475.527,308.246 H 811.636 V 323.5 H 475.527 Z"
           style="fill:none;stroke:#000000;stroke-width:1.12826896;stroke-linecap:butt;stroke-linejoin:miter;stroke-miterlimit:4;stroke-dasharray:none;stroke-opacity:1"
           id="path18"
           inkscape:connector-curvature="0" /></g><path
         d="m -25.9525,215.40192 h 336.109 v 16.262 h -336.109 z"
         style="fill:#e0ab16;fill-opacity:0.525;fill-rule:nonzero;stroke:none"
         id="path20"
         inkscape:connector-curvature="0" /><g
         transform="translate(-501.4795,-76.582075)"
         id="g22"><path
           d="m 475.527,291.984 h 336.109 v 16.262 H 475.527 Z"
           style="fill:none;stroke:#000000;stroke-width:1.003438;stroke-linecap:butt;stroke-linejoin:miter;stroke-miterlimit:4;stroke-dasharray:none;stroke-opacity:1"
           id="path24"
           inkscape:connector-curvature="0" /></g><g
         transform="matrix(1,0,0,0.63228262,-501.4795,41.972215)"
         id="g32"><g
           id="g34" /><g
           id="g46"><g
             clip-path="url(#clipPath38)"
             id="g44"
             style="opacity:0.98999999"><g
               id="g42"><path
                 d="m 640.18,274.957 h 8.363 v 47.449 h -8.363 z"
                 style="fill:#ff0000;fill-opacity:1;fill-rule:evenodd;stroke:none"
                 id="path40"
                 inkscape:connector-curvature="0" /></g></g></g></g><g
         transform="matrix(1,0,0,0.64739429,-501.4795,37.177345)"
         id="g48"><g
           id="g50" /><g
           id="g62"><g
             clip-path="url(#clipPath54)"
             id="g60"
             style="opacity:0.98999999"><g
               id="g58"><path
                 d="m 604.789,275.176 h 6.863 v 47.449 h -6.863 z"
                 style="fill:#f92300;fill-opacity:0.59500002;fill-rule:evenodd;stroke:none"
                 id="path56"
                 inkscape:connector-curvature="0" /></g></g></g></g><g
         transform="translate(-501.4795,-76.582075)"
         id="g64"><path
           sodipodi:nodetypes="ccccc"
           d="m 708.012,292.52277 h 8.039 V 323.129 h -8.039 z"
           style="fill:none;stroke:#ff0000;stroke-width:1.91493797;stroke-linecap:butt;stroke-linejoin:miter;stroke-miterlimit:4;stroke-dasharray:none;stroke-opacity:1"
           id="path66"
           inkscape:connector-curvature="0" /></g><path
         inkscape:connector-curvature="0"
         id="path248"
         style="fill:none;stroke:#2100b4;stroke-width:1.82550001;stroke-linecap:butt;stroke-linejoin:miter;stroke-miterlimit:4;stroke-dasharray:none;stroke-opacity:1;marker-start:url(#marker2260)"
         d="m -37.9525,233.16392 -38.441,-1.418" /><g
         transform="translate(90)"
         id="g2223"><path
           inkscape:connector-curvature="0"
           id="path486"
           style="fill:#000000;fill-opacity:1;fill-rule:evenodd;stroke:none;stroke-width:0.99999994"
           d="m -223.25037,225.33122 -3.394,-8.043 c -0.122,-0.336 -0.204,-0.488 -0.204,-0.523 0,-0.258 0.692,-1.016 2.387,-1.184 0.406,-0.035 0.813,-0.074 0.813,-0.773 0,-0.481 -0.493,-0.481 -0.61,-0.481 -1.664,0 -3.402,0.125 -5.101,0.125 -1.016,0 -3.52,-0.125 -4.535,-0.125 -0.235,0 -0.731,0 -0.731,0.813 0,0.441 0.406,0.441 0.934,0.441 2.429,0 2.668,0.406 3.039,1.301 l 4.769,11.293 -8.539,9.199 -0.519,0.438 c -1.985,2.144 -3.895,2.796 -5.957,2.91 -0.52,0.039 -0.895,0.039 -0.895,0.812 0,0.039 0,0.445 0.539,0.445 1.199,0 2.535,-0.128 3.793,-0.128 1.504,0 3.09,0.128 4.535,0.128 0.25,0 0.739,0 0.739,-0.812 0,-0.406 -0.407,-0.445 -0.489,-0.445 -0.363,-0.039 -1.625,-0.114 -1.625,-1.258 0,-0.645 0.61,-1.293 1.098,-1.813 l 4.121,-4.382 3.648,-3.965 4.086,9.679 c 0.164,0.446 0.204,0.481 0.204,0.567 0,0.32 -0.762,1.008 -2.348,1.172 -0.445,0.039 -0.805,0.09 -0.805,0.773 0,0.484 0.445,0.484 0.602,0.484 1.144,0 3.972,-0.128 5.101,-0.128 1.016,0 3.481,0.128 4.496,0.128 0.286,0 0.77,0 0.77,-0.777 0,-0.48 -0.406,-0.48 -0.731,-0.48 -2.707,-0.039 -2.793,-0.164 -3.476,-1.782 -1.578,-3.769 -4.293,-10.074 -5.219,-12.503 2.758,-2.844 6.988,-7.657 8.289,-8.786 1.18,-0.976 2.715,-1.941 5.14499,-2.07 0.52701,-0.035 0.88601,-0.035 0.88601,-0.812 0,-0.036 0,-0.442 -0.519,-0.442 -1.219,0 -2.555,0.125 -3.813,0.125 -1.496,0 -3.031,-0.125 -4.492,-0.125 -0.246,0 -0.765,0 -0.765,0.813 0,0.277 0.203,0.406 0.488,0.441 0.363,0.039 1.625,0.129 1.625,1.258 0,0.57 -0.449,1.09 -0.781,1.465 z" /><g
           id="g2215"><path
             d="m -196.05937,199.67922 -0.49601,0.363 -0.47199,0.375 -0.44601,0.383 -0.42099,0.398 -0.40701,0.407 -0.39,0.414 -0.36,0.429 -0.34699,0.43 -0.32501,0.441 -0.3,0.446 -0.28599,0.453 -0.26901,0.457 -0.24999,0.465 -0.238,0.461 -0.219,0.472 -0.195,0.469 -0.18401,0.473 -0.17199,0.472 -0.156,0.477 -0.13701,0.473 -0.129,0.472 -0.11299,0.469 -0.098,0.465 -0.09,0.465 -0.074,0.461 -0.066,0.457 -0.055,0.445 -0.043,0.437 -0.031,0.442 -0.024,0.429 -0.015,0.829 c 0,4 1.191,10.199 6.808,14.156 0.227,0 0.551,0 0.551,-0.324 0,-0.18 -0.07,-0.239 -0.273,-0.442 -3.774,-3.394 -5.153,-8.207 -5.153,-13.367 0,-7.637 2.918,-11.375 5.243,-13.473 0.113,-0.113 0.183,-0.203 0.183,-0.339 -8e-5,-0.34 -0.32408,-0.34 -0.55107,-0.34 z"
             style="fill:#000000;fill-opacity:1;fill-rule:evenodd;stroke:none;stroke-width:0.99999994"
             id="path488"
             inkscape:connector-curvature="0" /><path
             d="m -185.70738,211.46022 0.40601,0.016 0.196,0.023 0.195,0.035 0.187,0.039 0.188,0.051 0.176,0.055 0.172,0.066 0.171,0.082 0.161,0.078 0.164,0.098 0.156,0.098 0.144,0.113 0.137,0.125 0.141,0.129 0.129,0.137 0.121,0.148 0.113,0.152 0.113,0.172 0.11,0.172 0.086,0.176 0.089,0.195 0.082,0.203 0.075,0.203 0.062,0.223 0.059,0.227 0.051,0.23399 0.039,0.24201 0.031,0.254 0.016,0.262 0.019,0.273 0.008,0.278 c 0,3.519 -2.051,4.558 -3.684,4.558 -1.13601,0 -3.633,-0.308 -4.816,-1.984 1.324,-0.047 1.63999,-0.988 1.63999,-1.582 0,-0.903 -0.68299,-1.555 -1.56199,-1.555 -0.785,0 -1.59,0.488 -1.59,1.645 0,2.664 2.949,4.386 6.379,4.386 3.934,0 6.652,-2.64 6.652,-5.468 0,-2.211 -1.8,-4.422 -4.929,-5.071 2.972,-1.074 4.054,-3.195 4.054,-4.926 0,-2.234 -2.578,-3.906 -5.714,-3.906 -3.153,0 -5.547,1.535 -5.547,3.793 0,0.969 0.617,1.504 1.46799,1.504 0.879,0 1.43801,-0.648 1.43801,-1.437 0,-0.829 -0.55901,-1.422 -1.43801,-1.473 0.993,-1.258 2.934,-1.559 3.993,-1.559 1.26501,0 3.05401,0.618 3.05401,3.078 0,1.196 -0.39,2.48899 -1.129,3.36799 -0.937,1.078 -1.722,1.14401 -3.148,1.21801 -0.71501,0.063 -0.762,0.063 -0.89801,0.086 -0.067,0 -0.29299,0.051 -0.29299,0.375 0,0.391 0.25,0.391 0.73,0.391 z"
             style="fill:#000000;fill-opacity:1;fill-rule:evenodd;stroke:none;stroke-width:0.99999994"
             id="path490"
             inkscape:connector-curvature="0" /><path
             d="m -174.80137,199.67922 h -0.156 l -0.016,0.008 h -0.047 l -0.027,0.007 h -0.023 l -0.016,0.008 -0.023,0.008 h -0.024 l -0.019,0.008 -0.024,0.008 -0.015,0.007 -0.024,0.016 -0.015,0.008 -0.067,0.066 v 0.008 l -0.015,0.016 v 0.015 l -0.008,0.012 -0.008,0.008 v 0.015 l -0.008,0.008 v 0.024 l -0.012,0.015 v 0.059 l -0.007,0.016 c 0,0.136 0.089,0.226 0.261,0.429 2.438,2.235 5.153,6.063 5.153,13.36 0,5.918 -1.836,10.402 -4.903,13.164 -0.468,0.488 -0.511,0.511 -0.511,0.668 0,0.136 0.089,0.324 0.375,0.324 0.339,0 3.031,-1.859 4.898,-5.402 1.246,-2.352 2.074,-5.415 2.074,-8.731 0,-3.98 -1.195,-10.18 -6.793,-14.152 z"
             style="fill:#000000;fill-opacity:1;fill-rule:evenodd;stroke:none;stroke-width:0.99999994"
             id="path492"
             inkscape:connector-curvature="0" /><path
             d="m -199.62537,236.37422 h 5.273 c 0.301,0 1.497,0 1.497,-1.129 0,-0.789 -0.735,-0.789 -1.223,-0.789 h -8.914 c -0.82001,0 -1.73801,0.059 -3.192,1.414 -0.828,0.731 -1.886,2.242 -1.886,2.461 0,0.344 0.375,0.344 0.488,0.344 0.316,0 0.34,-0.051 0.504,-0.301 1.44499,-2 3.17599,-2 3.828,-2 h 2.52 l -2.805,9.07 c -0.137,0.453 -0.137,0.477 -0.137,0.64901 0,0.773 0.707,0.90999 0.942,0.90999 1.06599,0 1.269,-1.024 1.355,-1.422 z"
             style="fill:#000000;fill-opacity:1;fill-rule:evenodd;stroke:none;stroke-width:0.99999994"
             id="path494"
             inkscape:connector-curvature="0" /></g></g></g><path
       style="fill:none;stroke:#ff0000;stroke-width:2.92499995;stroke-linecap:butt;stroke-linejoin:miter;stroke-miterlimit:4;stroke-dasharray:none;stroke-opacity:1;marker-end:url(#Arrow1Mend)"
       d="M 397.1458,209.80129 H 528.29483"
       id="path2316"
       inkscape:connector-curvature="0" /><path
       style="fill:none;stroke:#eb0000;stroke-width:2.625;stroke-linecap:butt;stroke-linejoin:miter;stroke-miterlimit:4;stroke-dasharray:none;stroke-opacity:1;marker-end:url(#marker2424)"
       d="m 531.67496,230.08206 h -130.473"
       id="path2350"
       inkscape:connector-curvature="0" /><g
       id="g3053"
       transform="matrix(0.51082608,0,0,0.51082608,-44.003502,18.743119)"><g
         word-spacing="normal"
         letter-spacing="normal"
         font-size-adjust="none"
         font-stretch="normal"
         font-weight="normal"
         font-variant="normal"
         font-style="normal"
         stroke-miterlimit="10.433"
         xml:space="preserve"
         transform="matrix(0.93271624,0,0,-0.93271624,-163.22534,938.32395)"
         id="content"
         style="font-style:normal;font-variant:normal;font-weight:normal;font-stretch:normal;letter-spacing:normal;word-spacing:normal;text-anchor:start;fill:none;fill-opacity:1;fill-rule:evenodd;stroke:#000000;stroke-linecap:butt;stroke-linejoin:miter;stroke-miterlimit:10.43299961;stroke-dasharray:none;stroke-dashoffset:0;stroke-opacity:1"><path
           id="path3008"
           d="m 466.83,421.95 -0.15,1.28 v 13.45 c 0,1.66 0.11,2 2.43,2 h 4.44 c 7.92,0 7.92,-5.28 7.92,-7.72 0,-2.34 0,-7.73 -7.92,-7.73 h -6.87 l 0.15,-1.28 h 8.42 c 5.97,0 11.36,4.03 11.36,9.01 0,4.88 -4.93,9.27 -11.76,9.27 h -17.58 v -1.55 h 1.19 c 3.84,0 3.93,-0.54 3.93,-2.34 v -26.25 c 0,-1.8 -0.09,-2.34 -3.93,-2.34 h -1.19 v -1.55 c 1.73,0.16 5.42,0.16 7.31,0.16 1.89,0 5.64,0 7.38,-0.16 v 1.55 h -1.19 c -3.84,0 -3.94,0.54 -3.94,2.34 z"
           inkscape:connector-curvature="0"
           style="fill:#000000;stroke-width:0" /><path
           id="path3010"
           d="m 511.5,416.86 -0.01,0.59 -0.04,0.59 -0.07,0.58 -0.1,0.57 -0.13,0.56 -0.15,0.55 -0.17,0.54 -0.2,0.53 -0.22,0.51 -0.25,0.5 -0.26,0.49 -0.29,0.47 -0.31,0.46 -0.33,0.44 -0.35,0.43 -0.36,0.4 -0.39,0.39 -0.4,0.37 -0.41,0.35 -0.44,0.32 -0.44,0.31 -0.46,0.28 -0.48,0.26 -0.49,0.24 -0.5,0.21 -0.51,0.18 -0.52,0.16 -0.53,0.13 -0.54,0.11 -0.54,0.07 -0.56,0.05 -0.56,0.01 -0.05,-1.09 c 2.19,0 4.33,-1.1 5.63,-3.24 1.29,-2.14 1.29,-5.03 1.29,-6.92 0,-1.8 0,-4.48 -1.09,-6.67 -1.09,-2.25 -3.28,-3.69 -5.78,-3.69 v 0 c -2.14,0 -4.33,1.05 -5.67,3.33 -1.25,2.2 -1.25,5.23 -1.25,7.03 0,1.94 0,4.63 1.18,6.83 1.36,2.28 3.69,3.33 5.69,3.33 l 0.05,1.09 c -6.22,0 -11.06,-5.42 -11.06,-11.65 0,-6.43 5.18,-11.21 11.01,-11.21 6.03,0 11.06,4.88 11.06,11.21 z"
           inkscape:connector-curvature="0"
           style="fill:#000000;stroke-width:0" /><path
           id="path3012"
           d="m 523.35,415.87 0.11,-0.02 0.13,-0.02 0.14,-0.03 0.16,-0.04 0.17,-0.04 0.18,-0.04 0.19,-0.05 0.19,-0.06 0.21,-0.06 0.21,-0.07 0.21,-0.08 0.22,-0.08 0.22,-0.1 0.23,-0.1 0.22,-0.11 0.22,-0.12 0.21,-0.14 0.21,-0.14 0.21,-0.15 0.2,-0.16 0.19,-0.18 0.18,-0.19 0.17,-0.2 0.15,-0.21 0.15,-0.22 0.06,-0.12 0.06,-0.12 0.06,-0.13 0.06,-0.12 0.05,-0.14 0.04,-0.13 0.04,-0.14 0.04,-0.14 0.03,-0.15 0.02,-0.15 0.02,-0.16 0.02,-0.15 0.01,-0.17 v -0.16 c 0,-2.53 -1.75,-4.53 -5.63,-4.53 -4.18,0 -5.98,2.84 -6.93,7.07 -0.14,0.64 -0.19,0.85 -0.69,0.85 -0.66,0 -0.66,-0.35 -0.66,-1.25 v -6.58 c 0,-0.84 0,-1.19 0.55,-1.19 0.25,0 0.3,0.05 1.25,1 0.09,0.1 0.09,0.19 1,1.14 2.19,-2.09 4.44,-2.14 5.48,-2.14 5.72,0 8.02,3.35 8.02,6.92 0,2.64 -1.5,4.14 -2.09,4.74 -1.64,1.59 -3.6,2 -5.69,2.39 -2.78,0.55 -6.13,1.2 -6.13,4.09 0,1.74 1.3,3.78 5.58,3.78 5.49,0 5.74,-4.48 5.83,-6.03 0.06,-0.45 0.5,-0.45 0.61,-0.45 0.64,0 0.64,0.25 0.64,1.2 v 5.03 c 0,0.85 0,1.19 -0.55,1.19 -0.25,0 -0.34,0 -1,-0.59 -0.14,-0.21 -0.64,-0.64 -0.84,-0.8 -1.89,1.39 -3.94,1.39 -4.69,1.39 -6.08,0 -7.97,-3.33 -7.97,-6.12 0,-1.74 0.8,-3.14 2.14,-4.24 1.6,-1.29 3,-1.59 6.58,-2.28 z"
           inkscape:connector-curvature="0"
           style="fill:#000000;stroke-width:0" /><path
           id="path3014"
           d="m 541.48,428.21 -6.96,-0.54 v -1.55 c 3.23,0 3.68,-0.3 3.68,-2.73 v -13.41 c 0,-2.23 -0.54,-2.23 -3.89,-2.23 v -1.55 c 1.6,0.05 4.28,0.16 5.49,0.16 1.75,0 3.48,-0.11 5.18,-0.16 v 1.55 c -3.29,0 -3.5,0.25 -3.5,2.18 z"
           inkscape:connector-curvature="0"
           style="fill:#000000;stroke-width:0" /><path
           id="path3016"
           d="m 541.69,436.89 -0.01,0.14 -0.01,0.15 -0.01,0.14 -0.03,0.14 -0.03,0.13 -0.04,0.13 -0.04,0.13 -0.05,0.12 -0.05,0.12 -0.06,0.12 -0.07,0.11 -0.07,0.1 -0.08,0.1 -0.08,0.1 -0.08,0.1 -0.09,0.08 -0.09,0.09 -0.1,0.08 -0.1,0.07 -0.11,0.07 -0.1,0.07 -0.11,0.06 -0.12,0.05 -0.11,0.05 -0.12,0.04 -0.12,0.04 -0.13,0.03 -0.12,0.03 -0.13,0.02 -0.12,0.01 -0.13,0.01 -0.13,0.01 c -1.55,0 -2.64,-1.35 -2.64,-2.64 0,-1.35 1.09,-2.64 2.64,-2.64 1.39,0 2.64,1.04 2.64,2.64 z"
           inkscape:connector-curvature="0"
           style="fill:#000000;stroke-width:0" /><path
           id="path3018"
           d="m 555.09,426.12 h 7.13 v 1.55 h -7.13 v 9.17 h -1.25 c -0.04,-4.08 -1.54,-9.42 -6.42,-9.61 v -1.11 h 4.24 v -13.75 c 0,-6.12 4.62,-6.72 6.42,-6.72 3.53,0 4.94,3.53 4.94,6.72 v 2.84 h -1.25 v -2.73 c 0,-3.69 -1.5,-5.58 -3.35,-5.58 -3.33,0 -3.33,4.53 -3.33,5.38 z"
           inkscape:connector-curvature="0"
           style="fill:#000000;stroke-width:0" /><path
           id="path3020"
           d="m 574.6,428.21 -6.97,-0.54 v -1.55 c 3.23,0 3.69,-0.3 3.69,-2.73 v -13.41 c 0,-2.23 -0.55,-2.23 -3.89,-2.23 v -1.55 c 1.59,0.05 4.28,0.16 5.48,0.16 1.75,0 3.49,-0.11 5.19,-0.16 v 1.55 c -3.3,0 -3.5,0.25 -3.5,2.18 z"
           inkscape:connector-curvature="0"
           style="fill:#000000;stroke-width:0" /><path
           id="path3022"
           d="m 574.8,436.89 v 0.14 l -0.01,0.15 -0.02,0.14 -0.03,0.14 -0.03,0.13 -0.03,0.13 -0.05,0.13 -0.05,0.12 -0.05,0.12 -0.06,0.12 -0.07,0.11 -0.07,0.1 -0.07,0.1 -0.08,0.1 -0.09,0.1 -0.09,0.08 -0.09,0.09 -0.1,0.08 -0.1,0.07 -0.1,0.07 -0.11,0.07 -0.11,0.06 -0.11,0.05 -0.12,0.05 -0.12,0.04 -0.12,0.04 -0.12,0.03 -0.13,0.03 -0.12,0.02 -0.13,0.01 -0.13,0.01 -0.13,0.01 c -1.55,0 -2.64,-1.35 -2.64,-2.64 0,-1.35 1.09,-2.64 2.64,-2.64 1.39,0 2.64,1.04 2.64,2.64 z"
           inkscape:connector-curvature="0"
           style="fill:#000000;stroke-width:0" /><path
           id="path3024"
           d="m 603.05,416.86 -0.01,0.59 -0.05,0.59 -0.07,0.58 -0.09,0.57 -0.13,0.56 -0.15,0.55 -0.17,0.54 -0.2,0.53 -0.22,0.51 -0.25,0.5 -0.27,0.49 -0.28,0.47 -0.31,0.46 -0.33,0.44 -0.35,0.43 -0.37,0.4 -0.38,0.39 -0.4,0.37 -0.42,0.35 -0.43,0.32 -0.45,0.31 -0.46,0.28 -0.47,0.26 -0.49,0.24 -0.5,0.21 -0.51,0.18 -0.52,0.16 -0.53,0.13 -0.54,0.11 -0.55,0.07 -0.55,0.05 -0.57,0.01 -0.04,-1.09 c 2.19,0 4.33,-1.1 5.62,-3.24 1.3,-2.14 1.3,-5.03 1.3,-6.92 0,-1.8 0,-4.48 -1.09,-6.67 -1.1,-2.25 -3.29,-3.69 -5.79,-3.69 v 0 c -2.13,0 -4.32,1.05 -5.67,3.33 -1.25,2.2 -1.25,5.23 -1.25,7.03 0,1.94 0,4.63 1.19,6.83 1.36,2.28 3.69,3.33 5.69,3.33 l 0.04,1.09 c -6.21,0 -11.06,-5.42 -11.06,-11.65 0,-6.43 5.19,-11.21 11.02,-11.21 6.03,0 11.06,4.88 11.06,11.21 z"
           inkscape:connector-curvature="0"
           style="fill:#000000;stroke-width:0" /><path
           id="path3026"
           d="m 610.02,423.34 v -13.36 c 0,-2.23 -0.54,-2.23 -3.89,-2.23 v -1.55 c 1.75,0.05 4.28,0.16 5.63,0.16 1.29,0 3.89,-0.11 5.58,-0.16 v 1.55 c -3.33,0 -3.88,0 -3.88,2.23 v 9.17 c 0,5.19 3.53,7.97 6.72,7.97 3.14,0 3.69,-2.69 3.69,-5.53 v -11.61 c 0,-2.23 -0.55,-2.23 -3.89,-2.23 v -1.55 c 1.75,0.05 4.29,0.16 5.64,0.16 1.29,0 3.87,-0.11 5.58,-0.16 v 1.55 c -2.6,0 -3.85,0 -3.9,1.5 v 9.51 c 0,4.28 0,5.83 -1.54,7.61 -0.69,0.86 -2.35,1.84 -5.22,1.84 -3.64,0 -5.99,-2.14 -7.38,-5.21 v 5.21 l -7.03,-0.54 v -1.55 c 3.49,0 3.89,-0.34 3.89,-2.78 z"
           inkscape:connector-curvature="0"
           style="fill:#000000;stroke-width:0" /><path
           id="path3028"
           d="m 657.38,424.93 v 3.28 l -7.17,-0.54 v -1.55 c 3.55,0 3.89,-0.3 3.89,-2.48 v -23.32 c 0,-2.25 -0.55,-2.25 -3.89,-2.25 v -1.54 c 1.7,0.06 4.28,0.15 5.58,0.15 1.34,0 3.89,-0.09 5.64,-0.15 v 1.54 c -3.34,0 -3.89,0 -3.89,2.25 v 8.36 0.46 l 0.7,0.65 c -0.7,1.05 -0.7,1.1 -0.7,2.08 v 0 11.13 c 1.44,2.53 3.89,3.98 6.42,3.98 3.64,0 6.69,-4.39 6.69,-10.02 0,-6.03 -3.5,-10.21 -7.19,-10.21 -1.98,0 -3.87,1 -5.22,3.04 l -0.7,-0.65 c 0.25,-0.8 2.34,-3.49 6.12,-3.49 5.94,0 11.11,4.88 11.11,11.31 0,6.33 -4.82,11.25 -10.4,11.25 -3.89,0 -5.99,-2.18 -6.99,-3.28 z"
           inkscape:connector-curvature="0"
           style="fill:#000000;stroke-width:0" /><path
           id="path3030"
           d="m 684.85,422.75 v 5.46 l -6.92,-0.54 v -1.55 c 3.48,0 3.89,-0.34 3.89,-2.78 v -13.36 c 0,-2.23 -0.55,-2.23 -3.89,-2.23 v -1.55 c 1.95,0.05 4.28,0.16 5.69,0.16 1.98,0 4.33,0 6.33,-0.16 v 1.55 h -1.05 c -3.69,0 -3.8,0.54 -3.8,2.34 v 7.67 c 0,4.92 2.1,9.36 5.89,9.36 0.35,0 0.44,0 0.55,-0.05 -0.16,-0.04 -1.16,-0.64 -1.16,-1.93 0,-1.41 1.05,-2.14 2.16,-2.14 0.89,0 2.14,0.59 2.14,2.18 0,1.6 -1.55,3.03 -3.69,3.03 -3.64,0 -5.44,-3.32 -6.14,-5.46 z"
           inkscape:connector-curvature="0"
           style="fill:#000000;stroke-width:0" /><path
           id="path3032"
           d="m 713.34,437.68 0.04,0.04 0.05,0.03 0.08,0.07 0.07,0.08 0.08,0.08 0.07,0.08 0.04,0.05 0.03,0.04 0.04,0.05 0.03,0.04 0.03,0.05 0.03,0.05 0.03,0.05 0.03,0.05 0.02,0.05 0.03,0.05 0.02,0.05 0.02,0.05 0.02,0.05 0.02,0.06 0.01,0.05 0.02,0.05 0.01,0.06 0.01,0.05 0.01,0.06 v 0.05 l 0.01,0.06 v 0.05 c 0,0.89 -0.89,1.8 -1.8,1.8 -0.75,0 -1.3,-0.55 -1.5,-0.86 l -5.97,-7.61 0.85,-0.9 z"
           inkscape:connector-curvature="0"
           style="fill:#000000;stroke-width:0" /><path
           id="path3034"
           d="m 701.62,417.71 0.05,1.05 c 0.3,7.42 4.49,8.66 6.19,8.66 5.12,0 5.62,-6.72 5.62,-8.66 h -11.81 l -0.05,-1.05 h 13.91 c 1.09,0 1.24,0 1.24,1.05 0,4.92 -2.69,9.75 -8.91,9.75 -5.78,0 -10.38,-5.12 -10.38,-11.36 0,-6.67 5.24,-11.5 10.97,-11.5 6.08,0 8.32,5.53 8.32,6.47 0,0.5 -0.39,0.61 -0.65,0.61 -0.45,0 -0.54,-0.3 -0.65,-0.7 -1.74,-5.13 -6.22,-5.13 -6.72,-5.13 -2.5,0 -4.48,1.49 -5.63,3.33 -1.5,2.39 -1.5,5.69 -1.5,7.48 z"
           inkscape:connector-curvature="0"
           style="fill:#000000;stroke-width:0" /><path
           id="path3036"
           d="m 724,417.06 v 0.38 l 0.01,0.36 0.02,0.36 0.02,0.35 0.02,0.34 0.03,0.34 0.04,0.32 0.04,0.32 0.05,0.31 0.05,0.3 0.05,0.29 0.07,0.29 0.13,0.55 0.15,0.51 0.17,0.49 0.18,0.46 0.2,0.43 0.2,0.4 0.23,0.38 0.23,0.35 0.24,0.32 0.25,0.3 0.25,0.28 0.27,0.26 0.27,0.23 0.27,0.21 0.28,0.19 0.28,0.16 0.28,0.15 0.29,0.13 0.28,0.12 0.28,0.09 0.28,0.08 0.28,0.06 0.27,0.05 0.26,0.03 0.26,0.02 0.25,0.01 c 0.44,0 3.58,-0.05 5.33,-1.85 -2.04,-0.15 -2.34,-1.64 -2.34,-2.29 0,-1.3 0.89,-2.3 2.3,-2.3 1.28,0 2.28,0.86 2.28,2.34 0,3.39 -3.78,5.33 -7.63,5.33 -6.22,0 -10.81,-5.37 -10.81,-11.55 0,-6.37 4.94,-11.31 10.72,-11.31 6.67,0 8.26,5.99 8.26,6.47 0,0.5 -0.5,0.5 -0.64,0.5 -0.45,0 -0.54,-0.19 -0.65,-0.5 -1.44,-4.62 -4.67,-5.22 -6.52,-5.22 -2.64,0 -7.03,2.14 -7.03,10.16 z"
           inkscape:connector-curvature="0"
           style="fill:#000000;stroke-width:0" /><path
           id="path3038"
           d="m 757.5,437.68 0.04,0.04 0.04,0.03 0.08,0.07 0.08,0.08 0.07,0.08 0.08,0.08 0.03,0.05 0.04,0.04 0.03,0.05 0.03,0.04 0.03,0.05 0.03,0.05 0.03,0.05 0.03,0.05 0.02,0.05 0.03,0.05 0.02,0.05 0.02,0.05 0.02,0.05 0.02,0.06 0.02,0.05 0.01,0.05 0.01,0.06 0.01,0.05 0.01,0.06 0.01,0.05 v 0.06 0.05 c 0,0.89 -0.89,1.8 -1.8,1.8 -0.75,0 -1.29,-0.55 -1.5,-0.86 l -5.97,-7.61 0.85,-0.9 z"
           inkscape:connector-curvature="0"
           style="fill:#000000;stroke-width:0" /><path
           id="path3040"
           d="m 745.78,417.71 0.04,1.05 c 0.3,7.42 4.49,8.66 6.19,8.66 5.13,0 5.63,-6.72 5.63,-8.66 h -11.82 l -0.04,-1.05 h 13.9 c 1.1,0 1.24,0 1.24,1.05 0,4.92 -2.69,9.75 -8.91,9.75 -5.78,0 -10.37,-5.12 -10.37,-11.36 0,-6.67 5.23,-11.5 10.96,-11.5 6.08,0 8.32,5.53 8.32,6.47 0,0.5 -0.39,0.61 -0.64,0.61 -0.46,0 -0.55,-0.3 -0.66,-0.7 -1.73,-5.13 -6.22,-5.13 -6.72,-5.13 -2.5,0 -4.48,1.49 -5.62,3.33 -1.5,2.39 -1.5,5.69 -1.5,7.48 z"
           inkscape:connector-curvature="0"
           style="fill:#000000;stroke-width:0" /><path
           id="path3042"
           d="m 781.26,408.93 v -3.28 l 7.31,0.55 v 1.55 c -3.48,0 -3.87,0.34 -3.87,2.78 v 30.25 l -7.17,-0.55 v -1.55 c 3.48,0 3.87,-0.34 3.87,-2.79 v -10.75 c -1.43,1.78 -3.58,3.07 -6.28,3.07 l 0.2,-1.09 c 1.75,0 3.85,-0.75 5.4,-2.98 0.54,-0.85 0.54,-0.96 0.54,-1.85 v 0 -10.22 c 0,-0.89 0,-1 -0.54,-1.84 -1.5,-2.39 -3.75,-3.48 -5.9,-3.48 -2.23,0 -4.03,1.29 -5.22,3.18 -1.29,2.05 -1.45,4.89 -1.45,6.93 0,1.84 0.1,4.84 1.55,7.07 1.05,1.55 2.94,3.19 5.62,3.19 l -0.2,1.09 c -5.87,0 -11.11,-4.87 -11.11,-11.29 0,-6.33 4.89,-11.27 10.56,-11.27 3.19,0 5.44,1.69 6.69,3.28 z"
           inkscape:connector-curvature="0"
           style="fill:#000000;stroke-width:0" /><path
           id="path3044"
           d="m 795.57,417.71 0.05,1.05 c 0.3,7.42 4.48,8.66 6.19,8.66 5.12,0 5.62,-6.72 5.62,-8.66 h -11.81 l -0.05,-1.05 h 13.91 c 1.09,0 1.24,0 1.24,1.05 0,4.92 -2.69,9.75 -8.91,9.75 -5.78,0 -10.38,-5.12 -10.38,-11.36 0,-6.67 5.24,-11.5 10.97,-11.5 6.08,0 8.32,5.53 8.32,6.47 0,0.5 -0.4,0.61 -0.65,0.61 -0.45,0 -0.54,-0.3 -0.65,-0.7 -1.74,-5.13 -6.22,-5.13 -6.72,-5.13 -2.5,0 -4.48,1.49 -5.63,3.33 -1.5,2.39 -1.5,5.69 -1.5,7.48 z"
           inkscape:connector-curvature="0"
           style="fill:#000000;stroke-width:0" /><path
           id="path3046"
           d="m 817.6,423.34 v -13.36 c 0,-2.23 -0.54,-2.23 -3.88,-2.23 v -1.55 c 1.75,0.05 4.28,0.16 5.62,0.16 1.3,0 3.89,-0.11 5.58,-0.16 v 1.55 c -3.33,0 -3.88,0 -3.88,2.23 v 9.17 c 0,5.19 3.53,7.97 6.72,7.97 3.14,0 3.69,-2.69 3.69,-5.53 v -11.61 c 0,-2.23 -0.55,-2.23 -3.89,-2.23 v -1.55 c 1.75,0.05 4.29,0.16 5.64,0.16 1.3,0 3.87,-0.11 5.58,-0.16 v 1.55 c -2.6,0 -3.85,0 -3.89,1.5 v 9.51 c 0,4.28 0,5.83 -1.55,7.61 -0.69,0.86 -2.34,1.84 -5.22,1.84 -3.64,0 -5.98,-2.14 -7.37,-5.21 v 5.21 l -7.03,-0.54 v -1.55 c 3.48,0 3.88,-0.34 3.88,-2.78 z"
           inkscape:connector-curvature="0"
           style="fill:#000000;stroke-width:0" /><path
           id="path3048"
           d="m 847.03,426.12 h 7.12 v 1.55 h -7.12 v 9.17 h -1.25 c -0.05,-4.08 -1.55,-9.42 -6.43,-9.61 v -1.11 h 4.24 v -13.75 c 0,-6.12 4.63,-6.72 6.42,-6.72 3.53,0 4.94,3.53 4.94,6.72 v 2.84 h -1.25 v -2.73 c 0,-3.69 -1.5,-5.58 -3.35,-5.58 -3.32,0 -3.32,4.53 -3.32,5.38 z"
           inkscape:connector-curvature="0"
           style="fill:#000000;stroke-width:0" /><path
           id="path3050"
           d="m 863.25,417.71 0.05,1.05 c 0.29,7.42 4.48,8.66 6.18,8.66 5.13,0 5.63,-6.72 5.63,-8.66 H 863.3 l -0.05,-1.05 h 13.91 c 1.09,0 1.23,0 1.23,1.05 0,4.92 -2.69,9.75 -8.91,9.75 -5.78,0 -10.37,-5.12 -10.37,-11.36 0,-6.67 5.23,-11.5 10.97,-11.5 6.08,0 8.31,5.53 8.31,6.47 0,0.5 -0.39,0.61 -0.64,0.61 -0.45,0 -0.55,-0.3 -0.66,-0.7 -1.73,-5.13 -6.21,-5.13 -6.71,-5.13 -2.5,0 -4.49,1.49 -5.63,3.33 -1.5,2.39 -1.5,5.69 -1.5,7.48 z"
           inkscape:connector-curvature="0"
           style="fill:#000000;stroke-width:0" /></g></g><g
       id="g3341"
       transform="matrix(0.54956386,0,0,0.54956386,125.37615,68.572589)"><g
         word-spacing="normal"
         letter-spacing="normal"
         font-size-adjust="none"
         font-stretch="normal"
         font-weight="normal"
         font-variant="normal"
         font-style="normal"
         stroke-miterlimit="10.433"
         xml:space="preserve"
         transform="matrix(0.93271624,0,0,-0.93271624,-163.22534,938.32395)"
         id="g3339"
         style="font-style:normal;font-variant:normal;font-weight:normal;font-stretch:normal;letter-spacing:normal;word-spacing:normal;text-anchor:start;fill:none;fill-opacity:1;fill-rule:evenodd;stroke:#000000;stroke-linecap:butt;stroke-linejoin:miter;stroke-miterlimit:10.43299961;stroke-dasharray:none;stroke-dashoffset:0;stroke-opacity:1"><path
           id="path3303"
           d="m 467.08,439.57 -0.04,0.06 -0.04,0.05 -0.04,0.05 -0.03,0.05 -0.04,0.04 -0.03,0.04 -0.03,0.04 -0.03,0.03 -0.03,0.04 -0.03,0.03 -0.03,0.02 -0.04,0.03 -0.03,0.02 -0.03,0.02 -0.03,0.02 -0.04,0.02 -0.03,0.02 -0.04,0.01 -0.04,0.01 -0.04,0.01 -0.05,0.01 -0.04,0.01 -0.05,0.01 h -0.06 l -0.05,0.01 h -0.06 -0.07 l -0.06,0.01 h -0.08 -0.03 -0.04 -0.04 -0.04 -0.05 -0.04 -8.47 v -1.55 h 1.45 c 0.75,0 1.74,-0.04 2.49,-0.09 1.14,-0.16 1.2,-0.2 1.2,-1.16 v -26 c 0,-1.34 0,-3.68 -5.14,-3.68 v -1.55 c 1.75,0.05 4.19,0.16 5.83,0.16 1.65,0 4.09,-0.11 5.83,-0.16 v 1.55 c -5.13,0 -5.13,2.34 -5.13,3.68 v 25.91 c 0.25,-0.25 0.3,-0.3 0.5,-0.59 l 20.33,-29.91 c 0.44,-0.59 0.5,-0.64 0.84,-0.64 0.71,0 0.71,0.34 0.71,1.3 V 435 c 0,1.34 0,3.68 5.12,3.68 v 1.55 c -1.75,-0.05 -4.19,-0.16 -5.83,-0.16 -1.64,0 -4.09,0.11 -5.82,0.16 v -1.55 c 5.12,0 5.12,-2.34 5.12,-3.68 v -21.29 z"
           inkscape:connector-curvature="0"
           style="fill:#000000;stroke-width:0" /><path
           id="path3305"
           d="m 516.3,416.86 -0.01,0.59 -0.04,0.59 -0.07,0.58 -0.1,0.57 -0.13,0.56 -0.14,0.55 -0.18,0.54 -0.2,0.53 -0.22,0.51 -0.25,0.5 -0.26,0.49 -0.29,0.47 -0.31,0.46 -0.33,0.44 -0.35,0.43 -0.36,0.4 -0.39,0.39 -0.4,0.37 -0.41,0.35 -0.44,0.32 -0.44,0.31 -0.46,0.28 -0.48,0.26 -0.49,0.24 -0.49,0.21 -0.51,0.18 -0.53,0.16 -0.53,0.13 -0.54,0.11 -0.54,0.07 -0.56,0.05 -0.56,0.01 -0.05,-1.09 c 2.19,0 4.33,-1.1 5.63,-3.24 1.29,-2.14 1.29,-5.03 1.29,-6.92 0,-1.8 0,-4.48 -1.09,-6.67 -1.09,-2.25 -3.28,-3.69 -5.78,-3.69 v 0 c -2.14,0 -4.33,1.05 -5.67,3.33 -1.25,2.2 -1.25,5.23 -1.25,7.03 0,1.94 0,4.63 1.18,6.83 1.36,2.28 3.69,3.33 5.69,3.33 l 0.05,1.09 c -6.22,0 -11.06,-5.42 -11.06,-11.65 0,-6.43 5.18,-11.21 11.01,-11.21 6.03,0 11.06,4.88 11.06,11.21 z"
           inkscape:connector-curvature="0"
           style="fill:#000000;stroke-width:0" /><path
           id="path3307"
           d="m 537.28,410.14 v -4.49 l 7.17,0.55 v 1.55 c -3.48,0 -3.89,0.34 -3.89,2.78 v 17.68 l -7.33,-0.54 v -1.55 c 3.5,0 3.89,-0.34 3.89,-2.78 v -8.88 c 0,-4.32 -2.39,-7.71 -6.03,-7.71 -4.17,0 -4.37,2.34 -4.37,4.93 v 16.53 l -7.33,-0.54 v -1.55 c 3.89,0 3.89,-0.14 3.89,-4.58 v -7.47 c 0,-3.89 0,-8.42 7.56,-8.42 2.8,0 4.98,1.39 6.44,4.49 z"
           inkscape:connector-curvature="0"
           style="fill:#000000;stroke-width:0" /><path
           id="path3309"
           d="m 566.23,422.79 0.04,0.11 0.05,0.12 0.05,0.12 0.05,0.12 0.06,0.13 0.06,0.13 0.07,0.13 0.07,0.14 0.07,0.13 0.08,0.14 0.09,0.14 0.09,0.14 0.1,0.13 0.11,0.14 0.12,0.13 0.12,0.13 0.13,0.12 0.14,0.13 0.15,0.11 0.16,0.12 0.17,0.11 0.18,0.1 0.19,0.09 0.2,0.09 0.21,0.08 0.22,0.07 0.24,0.07 0.25,0.05 0.26,0.05 0.14,0.01 0.13,0.02 0.15,0.01 0.14,0.01 0.15,0.01 h 0.15 v 1.55 c -1.15,-0.1 -2.59,-0.14 -3.73,-0.14 -1.2,0 -3.5,0.09 -4.34,0.14 v -1.55 c 1.84,-0.05 2.39,-1.19 2.39,-2.14 0,-0.44 -0.1,-0.64 -0.3,-1.19 l -5.08,-12.7 -5.58,13.89 c -0.29,0.66 -0.29,0.75 -0.29,0.86 0,1.28 1.93,1.28 2.83,1.28 v 1.55 c -1.49,-0.05 -4.29,-0.14 -5.43,-0.14 -1.34,0 -3.34,0.04 -4.82,0.14 v -1.55 c 3.12,0 3.32,-0.3 3.98,-1.84 l 7.17,-17.67 c 0.3,-0.71 0.39,-0.96 1.05,-0.96 0.64,0 0.84,0.46 1.05,0.96 z"
           inkscape:connector-curvature="0"
           style="fill:#000000;stroke-width:0" /><path
           id="path3311"
           d="m 575.88,417.71 0.05,1.05 c 0.29,7.42 4.48,8.66 6.18,8.66 5.13,0 5.63,-6.72 5.63,-8.66 h -11.81 l -0.05,-1.05 h 13.9 c 1.1,0 1.24,0 1.24,1.05 0,4.92 -2.69,9.75 -8.91,9.75 -5.78,0 -10.37,-5.12 -10.37,-11.36 0,-6.67 5.23,-11.5 10.97,-11.5 6.07,0 8.31,5.53 8.31,6.47 0,0.5 -0.39,0.61 -0.64,0.61 -0.45,0 -0.55,-0.3 -0.66,-0.7 -1.73,-5.13 -6.22,-5.13 -6.72,-5.13 -2.5,0 -4.48,1.49 -5.62,3.33 -1.5,2.39 -1.5,5.69 -1.5,7.48 z"
           inkscape:connector-curvature="0"
           style="fill:#000000;stroke-width:0" /><path
           id="path3313"
           d="m 601.24,440.78 -7.17,-0.55 v -1.55 c 3.48,0 3.89,-0.34 3.89,-2.79 v -25.91 c 0,-2.23 -0.55,-2.23 -3.89,-2.23 v -1.55 c 1.64,0.05 4.28,0.16 5.53,0.16 1.25,0 3.68,-0.11 5.53,-0.16 v 1.55 c -3.35,0 -3.89,0 -3.89,2.23 z"
           inkscape:connector-curvature="0"
           style="fill:#000000;stroke-width:0" /><path
           id="path3315"
           d="m 615.03,440.78 -7.17,-0.55 v -1.55 c 3.49,0 3.89,-0.34 3.89,-2.79 v -25.91 c 0,-2.23 -0.54,-2.23 -3.89,-2.23 v -1.55 c 1.64,0.05 4.29,0.16 5.54,0.16 1.25,0 3.68,-0.11 5.53,-0.16 v 1.55 c -3.35,0 -3.9,0 -3.9,2.23 z"
           inkscape:connector-curvature="0"
           style="fill:#000000;stroke-width:0" /><path
           id="path3317"
           d="m 625.55,417.71 0.05,1.05 c 0.3,7.42 4.48,8.66 6.18,8.66 5.13,0 5.63,-6.72 5.63,-8.66 H 625.6 l -0.05,-1.05 h 13.91 c 1.09,0 1.23,0 1.23,1.05 0,4.92 -2.69,9.75 -8.91,9.75 -5.78,0 -10.37,-5.12 -10.37,-11.36 0,-6.67 5.24,-11.5 10.97,-11.5 6.08,0 8.31,5.53 8.31,6.47 0,0.5 -0.39,0.61 -0.64,0.61 -0.45,0 -0.55,-0.3 -0.65,-0.7 -1.74,-5.13 -6.22,-5.13 -6.72,-5.13 -2.5,0 -4.49,1.49 -5.63,3.33 -1.5,2.39 -1.5,5.69 -1.5,7.48 z"
           inkscape:connector-curvature="0"
           style="fill:#000000;stroke-width:0" /><path
           id="path3319"
           d="m 667.46,424.93 v 3.28 l -7.17,-0.54 v -1.55 c 3.55,0 3.89,-0.3 3.89,-2.48 v -23.32 c 0,-2.25 -0.55,-2.25 -3.89,-2.25 v -1.54 c 1.7,0.06 4.28,0.15 5.58,0.15 1.34,0 3.89,-0.09 5.64,-0.15 v 1.54 c -3.35,0 -3.89,0 -3.89,2.25 v 8.36 0.46 l 0.7,0.65 c -0.7,1.05 -0.7,1.1 -0.7,2.08 v 0 11.13 c 1.43,2.53 3.89,3.98 6.42,3.98 3.64,0 6.69,-4.39 6.69,-10.02 0,-6.03 -3.5,-10.21 -7.19,-10.21 -1.99,0 -3.88,1 -5.22,3.04 l -0.7,-0.65 c 0.25,-0.8 2.34,-3.49 6.12,-3.49 5.94,0 11.11,4.88 11.11,11.31 0,6.33 -4.83,11.25 -10.4,11.25 -3.9,0 -5.99,-2.18 -6.99,-3.28 z"
           inkscape:connector-curvature="0"
           style="fill:#000000;stroke-width:0" /><path
           id="path3321"
           d="m 711.53,416.86 -0.02,0.59 -0.04,0.59 -0.07,0.58 -0.1,0.57 -0.12,0.56 -0.15,0.55 -0.18,0.54 -0.2,0.53 -0.22,0.51 -0.24,0.5 -0.27,0.49 -0.29,0.47 -0.31,0.46 -0.33,0.44 -0.34,0.43 -0.37,0.4 -0.38,0.39 -0.4,0.37 -0.42,0.35 -0.43,0.32 -0.45,0.31 -0.46,0.28 -0.48,0.26 -0.48,0.24 -0.5,0.21 -0.51,0.18 -0.52,0.16 -0.53,0.13 -0.54,0.11 -0.55,0.07 -0.56,0.05 -0.56,0.01 -0.04,-1.09 c 2.18,0 4.32,-1.1 5.62,-3.24 1.3,-2.14 1.3,-5.03 1.3,-6.92 0,-1.8 0,-4.48 -1.1,-6.67 -1.09,-2.25 -3.28,-3.69 -5.78,-3.69 v 0 c -2.14,0 -4.33,1.05 -5.67,3.33 -1.25,2.2 -1.25,5.23 -1.25,7.03 0,1.94 0,4.63 1.19,6.83 1.36,2.28 3.69,3.33 5.69,3.33 l 0.04,1.09 c -6.22,0 -11.06,-5.42 -11.06,-11.65 0,-6.43 5.19,-11.21 11.02,-11.21 6.03,0 11.06,4.88 11.06,11.21 z"
           inkscape:connector-curvature="0"
           style="fill:#000000;stroke-width:0" /><path
           id="path3323"
           d="m 723.38,415.87 0.11,-0.02 0.12,-0.02 0.15,-0.03 0.15,-0.04 0.17,-0.04 0.18,-0.04 0.19,-0.05 0.2,-0.06 0.2,-0.06 0.21,-0.07 0.22,-0.08 0.22,-0.08 0.22,-0.1 0.22,-0.1 0.22,-0.11 0.22,-0.12 0.21,-0.14 0.22,-0.14 0.2,-0.15 0.2,-0.16 0.19,-0.18 0.18,-0.19 0.17,-0.2 0.16,-0.21 0.14,-0.22 0.07,-0.12 0.06,-0.12 0.06,-0.13 0.05,-0.12 0.05,-0.14 0.04,-0.13 0.05,-0.14 0.03,-0.14 0.03,-0.15 0.03,-0.15 0.02,-0.16 0.01,-0.15 0.01,-0.17 v -0.16 c 0,-2.53 -1.75,-4.53 -5.62,-4.53 -4.19,0 -5.99,2.84 -6.94,7.07 -0.14,0.64 -0.19,0.85 -0.69,0.85 -0.65,0 -0.65,-0.35 -0.65,-1.25 v -6.58 c 0,-0.84 0,-1.19 0.54,-1.19 0.25,0 0.3,0.05 1.25,1 0.1,0.1 0.1,0.19 1,1.14 2.19,-2.09 4.44,-2.14 5.49,-2.14 5.72,0 8.01,3.35 8.01,6.92 0,2.64 -1.5,4.14 -2.09,4.74 -1.64,1.59 -3.59,2 -5.69,2.39 -2.78,0.55 -6.12,1.2 -6.12,4.09 0,1.74 1.29,3.78 5.57,3.78 5.49,0 5.74,-4.48 5.83,-6.03 0.07,-0.45 0.5,-0.45 0.61,-0.45 0.64,0 0.64,0.25 0.64,1.2 v 5.03 c 0,0.85 0,1.19 -0.54,1.19 -0.25,0 -0.35,0 -1,-0.59 -0.14,-0.21 -0.64,-0.64 -0.85,-0.8 -1.89,1.39 -3.93,1.39 -4.69,1.39 -6.07,0 -7.96,-3.33 -7.96,-6.12 0,-1.74 0.79,-3.14 2.14,-4.24 1.59,-1.29 3,-1.59 6.58,-2.28 z"
           inkscape:connector-curvature="0"
           style="fill:#000000;stroke-width:0" /><path
           id="path3325"
           d="m 741.51,428.21 -6.97,-0.54 v -1.55 c 3.23,0 3.69,-0.3 3.69,-2.73 v -13.41 c 0,-2.23 -0.55,-2.23 -3.89,-2.23 v -1.55 c 1.59,0.05 4.28,0.16 5.48,0.16 1.75,0 3.48,-0.11 5.19,-0.16 v 1.55 c -3.3,0 -3.5,0.25 -3.5,2.18 z"
           inkscape:connector-curvature="0"
           style="fill:#000000;stroke-width:0" /><path
           id="path3327"
           d="m 741.71,436.89 v 0.14 l -0.01,0.15 -0.02,0.14 -0.03,0.14 -0.03,0.13 -0.03,0.13 -0.05,0.13 -0.05,0.12 -0.05,0.12 -0.06,0.12 -0.07,0.11 -0.07,0.1 -0.07,0.1 -0.08,0.1 -0.09,0.1 -0.09,0.08 -0.09,0.09 -0.1,0.08 -0.1,0.07 -0.1,0.07 -0.11,0.07 -0.11,0.06 -0.11,0.05 -0.12,0.05 -0.12,0.04 -0.12,0.04 -0.12,0.03 -0.13,0.03 -0.12,0.02 -0.13,0.01 -0.13,0.01 -0.13,0.01 c -1.55,0 -2.64,-1.35 -2.64,-2.64 0,-1.35 1.09,-2.64 2.64,-2.64 1.39,0 2.64,1.04 2.64,2.64 z"
           inkscape:connector-curvature="0"
           style="fill:#000000;stroke-width:0" /><path
           id="path3329"
           d="m 755.12,426.12 h 7.12 v 1.55 h -7.12 v 9.17 h -1.25 c -0.05,-4.08 -1.55,-9.42 -6.42,-9.61 v -1.11 h 4.23 v -13.75 c 0,-6.12 4.62,-6.72 6.42,-6.72 3.53,0 4.94,3.53 4.94,6.72 v 2.84 h -1.25 v -2.73 c 0,-3.69 -1.5,-5.58 -3.34,-5.58 -3.33,0 -3.33,4.53 -3.33,5.38 z"
           inkscape:connector-curvature="0"
           style="fill:#000000;stroke-width:0" /><path
           id="path3331"
           d="m 774.62,428.21 -6.97,-0.54 v -1.55 c 3.24,0 3.69,-0.3 3.69,-2.73 v -13.41 c 0,-2.23 -0.55,-2.23 -3.89,-2.23 v -1.55 c 1.59,0.05 4.28,0.16 5.48,0.16 1.75,0 3.49,-0.11 5.19,-0.16 v 1.55 c -3.3,0 -3.5,0.25 -3.5,2.18 z"
           inkscape:connector-curvature="0"
           style="fill:#000000;stroke-width:0" /><path
           id="path3333"
           d="m 774.82,436.89 v 0.14 l -0.01,0.15 -0.02,0.14 -0.02,0.14 -0.03,0.13 -0.04,0.13 -0.04,0.13 -0.05,0.12 -0.06,0.12 -0.06,0.12 -0.06,0.11 -0.07,0.1 -0.08,0.1 -0.08,0.1 -0.09,0.1 -0.08,0.08 -0.1,0.09 -0.09,0.08 -0.11,0.07 -0.1,0.07 -0.11,0.07 -0.11,0.06 -0.11,0.05 -0.12,0.05 -0.12,0.04 -0.12,0.04 -0.12,0.03 -0.12,0.03 -0.13,0.02 -0.13,0.01 -0.13,0.01 -0.13,0.01 c -1.54,0 -2.64,-1.35 -2.64,-2.64 0,-1.35 1.1,-2.64 2.64,-2.64 1.39,0 2.64,1.04 2.64,2.64 z"
           inkscape:connector-curvature="0"
           style="fill:#000000;stroke-width:0" /><path
           id="path3335"
           d="m 803.07,416.86 -0.01,0.59 -0.04,0.59 -0.07,0.58 -0.1,0.57 -0.13,0.56 -0.15,0.55 -0.17,0.54 -0.2,0.53 -0.22,0.51 -0.25,0.5 -0.26,0.49 -0.29,0.47 -0.31,0.46 -0.33,0.44 -0.35,0.43 -0.36,0.4 -0.39,0.39 -0.4,0.37 -0.41,0.35 -0.44,0.32 -0.44,0.31 -0.46,0.28 -0.48,0.26 -0.49,0.24 -0.49,0.21 -0.51,0.18 -0.53,0.16 -0.53,0.13 -0.54,0.11 -0.54,0.07 -0.56,0.05 -0.56,0.01 -0.05,-1.09 c 2.19,0 4.33,-1.1 5.63,-3.24 1.29,-2.14 1.29,-5.03 1.29,-6.92 0,-1.8 0,-4.48 -1.09,-6.67 -1.09,-2.25 -3.28,-3.69 -5.78,-3.69 v 0 c -2.14,0 -4.33,1.05 -5.67,3.33 -1.25,2.2 -1.25,5.23 -1.25,7.03 0,1.94 0,4.63 1.18,6.83 1.36,2.28 3.69,3.33 5.69,3.33 l 0.05,1.09 c -6.22,0 -11.06,-5.42 -11.06,-11.65 0,-6.43 5.18,-11.21 11.01,-11.21 6.03,0 11.06,4.88 11.06,11.21 z"
           inkscape:connector-curvature="0"
           style="fill:#000000;stroke-width:0" /><path
           id="path3337"
           d="m 810.05,423.34 v -13.36 c 0,-2.23 -0.55,-2.23 -3.89,-2.23 v -1.55 c 1.75,0.05 4.28,0.16 5.62,0.16 1.3,0 3.89,-0.11 5.58,-0.16 v 1.55 c -3.33,0 -3.88,0 -3.88,2.23 v 9.17 c 0,5.19 3.54,7.97 6.72,7.97 3.14,0 3.69,-2.69 3.69,-5.53 v -11.61 c 0,-2.23 -0.55,-2.23 -3.89,-2.23 v -1.55 c 1.75,0.05 4.3,0.16 5.64,0.16 1.3,0 3.88,-0.11 5.58,-0.16 v 1.55 c -2.6,0 -3.84,0 -3.89,1.5 v 9.51 c 0,4.28 0,5.83 -1.55,7.61 -0.69,0.86 -2.34,1.84 -5.22,1.84 -3.64,0 -5.98,-2.14 -7.37,-5.21 v 5.21 l -7.03,-0.54 v -1.55 c 3.48,0 3.89,-0.34 3.89,-2.78 z"
           inkscape:connector-curvature="0"
           style="fill:#000000;stroke-width:0" /></g></g></g></svg>